<svg id="Layer_1" data-name="Layer 1" xmlns="http://www.w3.org/2000/svg" viewBox="0 0 487.93429 303.03287"><defs><style>.cls-1{fill:#dbdad9;}.cls-2{fill:#329a46;}.cls-3{fill:#329a47;}.cls-4{fill:#fff;}.cls-5{fill:#231f20;}.cls-6{fill:#7cbd42;}</style></defs><title>alligator</title><polyline class="cls-1" points="4.375 232.683 1.682 265.431 31.791 252.127"/><polyline class="cls-1" points="34.484 219.121 31.791 251.869 61.899 238.565"/><polyline class="cls-1" points="64.353 205.983 61.66 238.731 91.768 225.427"/><polyline class="cls-1" points="94.461 191.969 91.768 224.717 121.877 211.414"/><polyline class="cls-1" points="124.57 177.908 121.877 210.656 151.985 197.352"/><polyline class="cls-1" points="143.455 142.28 131.898 173.039 164.498 168.489"/><polyline class="cls-1" points="121.616 115.182 110.058 145.941 142.659 141.391"/><polyline class="cls-1" points="102.08 86.059 90.522 116.818 123.123 112.267"/><polyline class="cls-1" points="81.062 59.272 69.505 90.031 102.105 85.48"/><polyline class="cls-1" points="63.395 30.053 47.187 58.635 80.098 59.219"/><path class="cls-2" d="M172.49976,186.70418l-2.85932-4.68459-1.52231-2.0625Q131.04075,123.09545,89.635,69.21821C80.43175,57.24384,70.91988,45.11343,65.86669,30.88139c-2.143-6.03566-3.33518-13.10279.00445-18.568A19.35953,19.35953,0,0,1,72.5303,6.17462C77.185,3.33633,82.70827,1.46594,88.07952,2.3999c4.52256.78639,8.46452,3.45023,12.22176,6.08748C124.101,25.19267,147.4556,44.28249,160.7982,70.1179l1.73523.71009c6.28146-2.92712,12.67425-5.88842,19.53062-6.89594s14.36735.1999,19.55622,4.79342c10.04743,8.89461,7.20558,24.97295,3.52869,37.8782,13.11129-2.97569,27.811,5.05017,32.39719,17.6885s-1.54545,28.2235-13.51382,34.34876A494.72659,494.72659,0,0,1,325.59088,172.9263c24.39328,6.06456,48.3306,13.991,72.97165,18.95385s50.37926,6.88674,74.78769.88344c2.82339-.69442,6.50579-1.16731,7.99552,1.32957a5.87393,5.87393,0,0,1,.15652,4.53164c-2.87023,10.449-12.69677,17.21749-21.90048,22.93687Q425.753,242.596,390.49509,261.24085a7.00515,7.00515,0,0,0-2.89823,2.2692c-1.218,1.99624-.18468,4.52508.35222,6.80111,1.77969,7.54442-2.43308,15.203-7.422,21.13564-2.79256,3.32081-6.15155,6.54533-10.40949,7.37965-3.23376.63363-6.55442-.20061-9.74373-1.02945l-18.43018-4.78966c-4.19983-1.09146-9.39071-3.50734-8.957-7.825a9.2677,9.2677,0,0,1,2.268-4.472l10.0696-13.15676a565.08976,565.08976,0,0,0-78.50762-1.89225l-2.41429.06147a59.74129,59.74129,0,0,1-8.59879,23.87486c-2.96569,4.72475-8.07447,9.51982-13.38616,7.81555-1.909-.61251-3.47061-1.99926-5.30425-2.80993-5.09281-2.25158-10.8658.28752-16.32941,1.36237s-12.87266-.90621-13.20605-6.46455a8.10791,8.10791,0,0,1,1.29937-4.56291c2.70093-4.51955,7.80031-6.93877,11.65916-10.52075s6.34828-10.09334,2.7089-13.89811c-1.90609-1.9927-4.84643-2.504-7.574-2.90931-16.81058-2.49829-33.748-5.00362-50.72534-4.22355-43.42295,1.9952-82.76738,25.01863-124.68185,36.53866-8.66775,2.3823-18.03969,4.24885-26.50213,1.217s-15.11314-12.7461-11.74054-21.07861c2.5121-6.20653,9.26-9.38292,15.418-12.01176Q94.72306,225.0594,170.021,187.65188"/><path class="cls-3" d="M174.65844,185.44238c-14.30557-23.43767-30.47157-45.98928-46.43118-68.3294q-12.78264-17.893-26.01347-35.4603c-8.33665-11.07017-17.32746-21.79855-24.81106-33.479C70.83875,37.92867,59.03718,18.52,72.50559,9.15839c6.33422-4.40279,13.725-5.94309,20.71-2.25015,5.85978,3.098,11.23591,7.51665,16.53779,11.48046A219.70117,219.70117,0,0,1,139.05,44.08145a132.35151,132.35151,0,0,1,11.97312,14.699c1.86624,2.68353,3.62737,5.442,5.25622,8.27615,1.1374,1.97907,1.861,4.29756,3.8543,5.472,1.69011.99582,2.74969.76329,4.44807.0924,3.8409-1.51724,7.47219-3.44912,11.43209-4.6931,7.08951-2.22713,15.41679-3.021,21.98742,1.19149,12.12508,7.77344,7.91687,25.46441,4.73708,36.81968a2.52963,2.52963,0,0,0,3.07529,3.0753c12.11131-2.40326,25.51437,4.68219,29.53344,16.579,3.9663,11.7406-1.90794,25.0562-12.57646,30.8889-2.25776,1.23436-1.12518,4.56845,1.2618,4.65867a495.85983,495.85983,0,0,1,97.12775,13.27545c31.187,7.49355,61.61634,18.38388,93.50955,22.70715,15.16832,2.05614,30.55374,2.61349,45.757.58967,3.63713-.48416,7.25336-1.10822,10.83618-1.90036,1.4029-.31017,3.51911-1.24658,4.97816-1.00913,3.45468.56221,2.73357,4.18569,1.55959,6.63523-2.91105,6.074-8.35832,10.56436-13.801,14.29777-12.50771,8.57973-25.90558,16.07522-39.04518,23.63411q-10.28091,5.91435-20.68268,11.61523-4.99257,2.736-10.01222,5.42236c-2.59773,1.3902-6.07184,2.57324-8.03294,4.86851a7.32408,7.32408,0,0,0-1.49607,6.19756c.67144,4.76549,1.58443,8.31253-.29068,13.03338-2.954,7.4371-9.95741,16.98969-18.87661,15.836-4.323-.55918-8.60539-2.018-12.81833-3.11291-3.939-1.02367-8.05638-1.80407-11.89377-3.16486-1.176-.417-4.09127-1.3569-4.65667-2.668-1.23022-2.85274,1.35113-5.59864,2.89716-7.61866l8.39134-10.964c1.27179-1.66171-.51345-3.61014-2.15868-3.7618-27.01122-2.49-53.83886-2.52033-80.92191-1.83078a2.5287,2.5287,0,0,0-2.41069,1.8354c-1.25571,8.57678-4.0116,17.49886-9.20728,24.563a14.23974,14.23974,0,0,1-5.73192,5.00223c-3.01028,1.21246-4.92271-.17367-7.34361-1.48395A15.576,15.576,0,0,0,230.074,291.39c-3.93769.46555-7.76231,2.203-11.72463,2.34778-5.75113.21012-10.94955-3.58775-6.01533-9.30825,4.52457-5.24558,11.39038-7.52926,14.12688-14.3457,6.523-16.24828-17.61754-16.07667-27.31489-17.31-18.3627-2.33538-36.5706-2.80583-54.83841.53586-34.57564,6.32484-66.11544,22.79694-99.62285,32.74919-8.97158,2.6647-19.21851,5.94189-28.55427,3.215C8.60075,287.07444.42468,278.30827,4.7813,270.04087c3.78-7.17322,14.20134-9.94011,21.10477-12.90908q13.01546-5.59758,25.97606-11.32159,60.33476-26.64579,119.42068-55.99964c2.88232-1.43077.35232-5.745-2.5236-4.31736q-57.3275,28.45711-115.84644,54.41829-14.73936,6.533-29.5503,12.903c-7.25735,3.121-16.00831,5.748-21.15351,12.13742-9.49162,11.787,1.64066,26.89972,14.31788,29.56291,9.02095,1.8951,18.283-.41485,26.94708-2.89479,9.35823-2.67862,18.55321-5.8897,27.68032-9.26425,17.96167-6.64093,35.69882-13.98424,54.10824-19.336,19.76274-5.74518,39.66631-8.304,60.22662-6.68546,10.52162.82829,22.06088,1.424,32.26972,4.17815,6.42138,1.7324,5.15127,7.78161,1.47635,11.66072-2.80081,2.95644-6.56079,4.83681-9.45465,7.702-4.77726,4.73-7.052,12.52345-.329,16.698a16.27962,16.27962,0,0,0,9.51647,2.12027c5.2159-.32216,10.67893-3.60513,15.93335-2.21738,4.05645,1.07136,6.52382,4.2555,11.04621,3.67248,3.99-.51439,7.31024-3.24154,9.8053-6.23839,6.27765-7.54015,9.66095-17.96509,11.06025-27.52265l-2.4107,1.8354c27.08292-.68955,53.91073-.65925,80.92191,1.83078l-2.15868-3.7618-7.83191,10.233c-2.07943,2.71695-4.87553,5.56013-4.8389,9.22289.0522,5.21943,5.28478,7.93944,9.6193,9.3393,7.80548,2.52083,16.641,5.201,24.78269,6.22841,6.78614.85637,11.993-2.07381,16.4458-7.00071,4.59852-5.08809,8.657-11.39573,9.38127-18.354.337-3.23722-1.633-7.70993-.56677-10.53355,1.26994-3.363,8.48534-5.69209,11.63889-7.40023q24.1954-13.10559,47.74426-27.36087c11.85665-7.17961,27.34148-14.53876,33.17116-28.01911,1.94882-4.50638,2.89323-10.84862-3.01407-12.59819-2.29933-.681-4.72611-.1712-7.01168.304-5.32268,1.10673-10.56878,2.22355-15.9854,2.81466-37.16487,4.05573-73.579-7.08175-108.95533-16.925-40.51237-11.27229-81.64109-18.51139-123.71256-20.10165l1.26179,4.65868c12.98734-7.10044,19.84242-23.75053,14.41678-37.79615-5.369-13.8989-20.84945-21.66335-35.22654-18.81049l3.07529,3.0753c2.9876-10.66894,5.93792-23.59484.61787-34.03469-5.53774-10.867-18.19014-13.63882-29.326-11.23782a60.43141,60.43141,0,0,0-10.65109,3.55665c-1.2567.52877-2.57532,1.01629-3.77718,1.6597a12.788,12.788,0,0,0-1.62693.87347c-1.15255-.16991-.42528-.51082-.60533-.68468-2.05642-1.98577-3.42247-5.99712-5.02273-8.43851-1.90661-2.90876-3.94837-5.72733-6.08635-8.47006-8.95566-11.4888-19.68339-21.43667-31.07182-30.47022-5.35552-4.24811-10.85132-8.31578-16.42778-12.26853C98.16722,3.9152,92.54448-.131,85.65565-.31832,73.60089-.64616,60.79779,8.688,61.31293,21.38347c.5588,13.77177,9.90021,27.21532,17.71931,37.94228,9.69031,13.29406,19.955,26.17248,29.71648,39.41813,21.36317,28.98843,42.82517,58.47467,61.59236,89.22209,1.6739,2.74246,5.99993.23307,4.31736-2.52359Z"/><circle class="cls-4" cx="180.67586" cy="86.15717" r="15.2809"/><circle class="cls-4" cx="205.24889" cy="132.23582" r="15.2809"/><circle class="cls-5" cx="205.24889" cy="124.80886" r="5.75281"/><circle class="cls-5" cx="177.09159" cy="80.40436" r="5.75281"/><path class="cls-6" d="M249.31456,209.19433c7.31428-2.06272,9.38115,3.29415,14.73526,6.44613,4.83964,2.84911,9.24636,1.11233,13.9434-1.01684,5.5072-2.49641,12.82009,3.27229,18.1364,5.24451a182.571,182.571,0,0,0,19.263,5.80749,40.36334,40.36334,0,0,0,18.15641.48188c5.78532-1.09124,10.06894,3.73108,15.89176,2.56816,2.83538-.56628,4.647-2.47351,7.10238-3.73276,2.83965-1.45634,5.34877.14117,8.09981,1.22548a60.88626,60.88626,0,0,0,21.31234,4.21932c6.43751.13242,6.43674-9.8676,0-10-7.55018-.1553-14.01182-2.14912-20.98671-4.82873a16.02762,16.02762,0,0,0-8.25152-1.23985c-3.08954.47652-4.87879,2.13618-7.4814,3.58808-3.00469,1.67622-5.00961-.58176-7.97066-1.51571a16.76976,16.76976,0,0,0-8-.38725c-3.21267.53286-6.20949,1.38205-9.51455,1.08084a62.00793,62.00793,0,0,1-10.931-2.53018c-6.64031-1.86119-13.34217-3.75955-19.6-6.70161-5.68567-2.67306-10.73744-5.60512-17.1208-3.33024-2.02278.72086-4.96975,3.12321-6.987,2.373-1.97677-.73519-3.74148-3.68275-5.52232-4.89645a20.08485,20.08485,0,0,0-16.93314-2.498c-6.18416,1.744-3.55631,11.39541,2.65839,9.64279Z"/><path class="cls-6" d="M237.48073,164.68988c7.30293-2.53792,12.02956,1.17544,16.628,6.45172,3.92875,4.50784,8.93274,6.95408,14.85976,4.9885,2.7554-.91377,5.04715-2.73546,7.66287-3.91875,3.63076-1.64247,6.33131.00264,9.55517,1.86938a132.594,132.594,0,0,0,20.7321,9.68052,184.18416,184.18416,0,0,0,22.24586,7.1158,38.32862,38.32862,0,0,0,10.89315,1.13484c3.81791-.249,7.32783-1.72,11.07649-2.17126,6.70331-.80688,11.2674,6.34255,18.51191,4.46183a17.93112,17.93112,0,0,0,6.618-3.80377c3.67958-2.96267,5.47251-3.58578,10.10533-1.48511,4.44371,2.01492,8.00389,3.3568,12.94185,3.18876,5.83351-.19852,10.42081,1.305,15.60508,4.08434,5.67086,3.04019,10.72727-5.58958,5.04719-8.6347-5.16477-2.76887-10.54605-5.11889-16.46309-5.489-3.23477-.20233-6.4384.56788-9.54651-.56615-6.42669-2.34486-12.09231-6.24558-18.96984-2.532-2.48227,1.34031-4.3582,4.00275-6.90158,5.11047-2.902,1.26389-5.86221-1.65372-8.49958-2.83154-7.75285-3.46232-14.28652.97306-22.13707.71131-8.22516-.27425-16.7751-4.03693-24.46633-6.72031a131.83691,131.83691,0,0,1-22.45361-10.3022c-6.03508-3.46613-11.85684-4.92-18.3449-1.765-2.43,1.18165-5.85234,4.471-8.55621,3.20933-2.8618-1.33533-4.93137-5.64237-7.45764-7.6703a22.29024,22.29024,0,0,0-21.34481-3.75953c-6.04107,2.0994-3.44338,11.76329,2.6584,9.64279Z"/><path class="cls-6" d="M247.68158,191.42683a14.38168,14.38168,0,0,1,11.37286.90513c3.10223,1.695,5.04536,4.74664,7.82739,6.85586,6.49809,4.92659,12.28574,2.10015,18.89149-.82386,6.97513-3.08751,14.7295,3.46483,21.18486,6.06808a228.51688,228.51688,0,0,0,25.52819,8.12424,73.462,73.462,0,0,0,12.60706,2.53933c4.97218.45148,9.42278-.50306,14.25659-1.44512,7.53516-1.46851,13.29535,5.646,20.98845,3.36639,3.628-1.07507,6.09059-4.601,9.6078-5.57819,3.72508-1.035,8.149,1.9355,11.49135,3.23667a74.448,74.448,0,0,0,25.87492,4.85751c6.4373.10248,6.43912-9.8975,0-10a71.59081,71.59081,0,0,1-26.39609-5.82689c-3.85229-1.57317-7.83644-2.99484-12.06279-2.23241-3.50317.632-5.8701,2.52249-8.75125,4.4324-4.18844,2.7765-6.6607.30088-10.82183-1.32675a19.80186,19.80186,0,0,0-10.80972-.91426c-5.043.83626-9.43748,1.98973-14.60462,1.24265a108.09108,108.09108,0,0,1-13.992-3.47766c-8.67983-2.4729-17.41463-5.04762-25.55058-9.0139-6.98486-3.40512-13.26851-6.92107-21.11634-3.79-2.48492.99142-6.14361,3.9277-8.8782,3.42452-3.159-.58126-6.249-5.83171-9.00295-7.61044a24.40057,24.40057,0,0,0-20.303-2.6561c-6.14262,1.86053-3.52467,11.51557,2.6584,9.64279Z"/></svg>