<svg id="Layer_1" data-name="Layer 1" xmlns="http://www.w3.org/2000/svg" viewBox="0 0 517 517"><defs><style>.cls-1{fill:#93278f;}.cls-2{fill:#25a9e0;}.cls-3{fill:#fff;}</style></defs><title>avocado4</title><path class="cls-1" d="M258.45,516.49945c-142.5,0-258-115.5-258-258a257.961,257.961,0,0,1,75.6-182.4c100.8-100.8,264.1-100.8,364.9,0s100.8,264.1,0,364.9A256.49776,256.49776,0,0,1,258.45,516.49945Z"/><path class="cls-2" d="M258.93388,38.96345a31.77363,31.77363,0,0,1-1.02657,6.81392,63.56582,63.56582,0,0,1-5.0919,12.14834c-3.67625,7.30638-7.38153,14.65973-12.33141,21.171-2.11719,2.785-4.45,5.39934-6.60782,8.153-9.24957,11.80394-15.08128,25.89415-20.0513,40.04287a62.68171,62.68171,0,0,0-3.54906,13.43673,43.53818,43.53818,0,0,0,.66388,13.0965c1.61212,8.49112,5.1313,16.7435,10.92173,23.15982a40.1795,40.1795,0,0,0,15.80491,10.66405,56.074,56.074,0,0,0,7.815,2.19686,57.21192,57.21192,0,0,0,13.28615,1.42276c11.95476-.28827,23.54241-5.80119,31.93-14.32453s13.64486-19.88954,15.57145-31.69156a38.787,38.787,0,0,0-.15881-15.37281c-1.23372-5.07131-3.89123-9.67066-6.685-14.07922-8.42359-13.29258-18.38178-25.5816-26.45606-39.08921A165.70509,165.70509,0,0,1,257.5677,42.76631"/><path class="cls-2" d="M257.68388,38.96345c-.49626,7.28375-3.49639,13.48763-6.73647,19.89741A134.13182,134.13182,0,0,1,240.44674,77.058c-3.7412,5.187-8.14048,9.82169-11.68555,15.163A119.22812,119.22812,0,0,0,219.008,110.489c-4.81692,11.0241-10.6,23.60638-10.19058,35.86752.377,11.29045,4.54119,23.07533,12.1601,31.513,15.57378,17.24748,44.49034,19.05971,63.18365,6.17113,17.36325-11.97154,30.18419-39.16157,21.36769-59.71554-6.06975-14.15047-17.11435-26.347-25.63154-39.06A175.43032,175.43032,0,0,1,258.773,42.434c-.50146-1.52089-2.91651-.86948-2.41069.6646a171.29644,171.29644,0,0,0,14.623,32.71254c6.0977,10.45607,13.37944,20.14149,20.28983,30.0595,7.68073,11.02363,15.61539,21.84609,14.19948,35.96663a57.748,57.748,0,0,1-14.5367,33.044c-16.98139,18.37943-49.00592,20.90569-67.09345,2.3885-8.60778-8.81224-13.273-22.4173-12.48387-34.66872.407-6.31818,2.69622-12.34238,4.833-18.23915a183.54031,183.54031,0,0,1,7.88768-18.8953,102.7682,102.7682,0,0,1,9.822-16.21393c4.23072-5.63365,8.88243-10.72378,12.54262-16.78312,6.05813-10.02905,12.92569-21.58384,13.738-33.50607.10942-1.60589-2.391-1.59913-2.5,0Z"/><path class="cls-1" d="M255.31363,47.49751a29.51662,29.51662,0,0,0,3.68263-10.52107c.11694-.78691-1.08733-1.12644-1.20535-.3323a28.57713,28.57713,0,0,1-3.55662,10.22247.62547.62547,0,0,0,1.07934.6309Z"/><path class="cls-1" d="M262.90712,45.85479c-.62561-2.13662-1.23613-4.2786-1.90382-6.40258-.471-1.49819-.79445-3.67445-2.09157-4.68782-.84751-.66212-2.60737-.09446-2.08923,1.21618.63367,1.60289,2.09757,2.68416,2.43117,4.40824l1.83625-1.41164a10.77478,10.77478,0,0,1-2.40241-2.47958c-.914-1.29374-2.9727-.15874-2.15868,1.2618,1.05952,1.84894,2.61667,3.44011,3.13025,5.55325l2.08923-1.21618a16.75962,16.75962,0,0,1-2.56858-4.78l-2.28469.9632c1.56465,2.20649,3.04714,4.51949,3.29753,7.28119l1.8809-1.07934c-.52744-.23271-1.19-1.32386-1.48093-1.75037-.6512-.95456-1.85189-2.32574-1.95708-3.5006l-2.13389.88388a20.53774,20.53774,0,0,1,2.98631,3.85948l1.96322-1.51478a15.54811,15.54811,0,0,1-2.29161-3.67753c-.71377-1.44191-2.87079-.17677-2.15867,1.2618a17.81455,17.81455,0,0,0,2.68251,4.1835c.95724,1.059,2.68921-.30637,1.96323-1.51478a23.32218,23.32218,0,0,0-3.37722-4.36545,1.26307,1.26307,0,0,0-2.13388.88388c.15673,1.7505,1.17484,3.03254,2.10928,4.47122.64637.99518,1.44267,2.44239,2.56693,2.93843.77281.341,1.97574-.03336,1.8809-1.07934-.29481-3.25167-1.77725-5.91772-3.63885-8.543-.75148-1.05974-2.84746-.453-2.28469.9632a20.54609,20.54609,0,0,0,3.21151,5.88318c.84662,1.00634,2.36385-.08627,2.08923-1.21618-.57342-2.35936-2.20192-4.09067-3.38226-6.15045l-2.15868,1.2618a14.72751,14.72751,0,0,0,3.29929,3.37646c.95911.7167,2.01988-.46259,1.83625-1.41164-.35858-1.85318-1.77677-2.7529-2.43117-4.40824L257.144,36.53216c1.06876.835,1.53488,3.84375,1.90212,5.06051.49464,1.63886.9693,3.28384,1.45035,4.92672a1.25107,1.25107,0,0,0,2.41069-.6646Z"/><path class="cls-3" d="M152.99854,235.0918h2.43017v13.72412h18.89893V235.0918h2.43017v31.498h-2.43017V251.06592H155.42871v15.52392h-2.43017Z"/><path class="cls-3" d="M184.63428,233.42676h2.25v4.36474h-2.25Zm0,10.66455h2.25v22.49853h-2.25Z"/><path class="cls-3" d="M211.45264,265.06055c0,7.19922-3.19483,10.97949-9.71924,10.97949-5.8501,0-8.27979-3.28516-8.81983-6.70508h2.29493c.81005,3.10449,3.375,4.58984,6.61474,4.58984,5.84961,0,7.46973-3.78027,7.46973-9.49511v-2.33985c-1.21484,2.92579-3.41992,4.5-7.51465,4.5-5.26465,0-9.31445-4.27441-9.31445-11.249,0-7.55957,4.31982-11.78955,9.62939-11.78955,4.58985,0,6.56983,2.16016,7.19971,3.96.04492-1.30518.08984-2.87988.13476-3.41992H211.543c0,.81006-.09033,4.36474-.09033,6.5249Zm-16.604-9.80957c0,5.35449,2.835,9.22461,7.15479,9.22461,5.62451,0,7.33447-3.73536,7.33447-9.585,0-5.93946-1.7998-9.22461-7.19971-9.22461C196.96338,245.666,194.84863,250.12109,194.84863,255.251Z"/><path class="cls-3" d="M221.0835,233.42676v14.44433a7.84753,7.84753,0,0,1,7.42431-4.31982c3.19483,0,7.605,1.62012,7.605,8.72949v14.30908h-2.25V252.731c0-4.45508-2.0249-6.97461-5.75976-6.97461-4.45459,0-7.01953,2.74463-7.01953,8.27929v12.5542h-2.25V233.42676Z"/><path class="cls-3" d="M255.2373,244.09131c3.33008,11.60937,5.26465,18.269,5.624,20.24853h.0459c.35937-1.7998,2.60937-8.86425,6.11914-20.24853h2.42968c4.18555,13.9043,5.44532,17.90869,5.85059,19.66357h.04492c.62989-2.47461,1.665-5.84912,5.80469-19.66357H283.541l-7.10938,22.49853h-2.47559c-2.42968-7.96435-5.35449-17.729-5.80468-19.79882h-.04492c-.4502,2.20507-3.01465,10.25976-5.93946,19.79882H259.4668l-6.61426-22.49853Z"/><path class="cls-3" d="M303.2959,262.31543a25.72547,25.72547,0,0,0,.31543,4.27441h-2.16016a14.80358,14.80358,0,0,1-.40429-3.46484c-.76563,1.665-2.74512,4.00488-7.37989,4.00488-5.21972,0-7.46972-3.375-7.46972-6.75,0-4.94922,3.82421-7.19922,10.57421-7.19922h4.2754v-2.29492c0-2.24951-.67579-5.26465-5.80567-5.26465-4.54394,0-5.21973,2.38477-5.71387,4.23h-2.25c.26954-2.47509,1.79981-6.2998,8.00977-6.2998,5.12891,0,8.00879,2.16016,8.00879,7.10986Zm-2.2041-7.19971h-4.41016c-4.99512,0-8.09961,1.30518-8.09961,5.17432,0,2.835,2.02442,4.77051,5.17481,4.77051,6.43457,0,7.335-4.27539,7.335-9.13477Z"/><path class="cls-3" d="M307.12207,244.09131h4.18555v-7.01953h2.249v7.01953h5.35547v2.11474h-5.35547v14.624c0,2.52051.54,3.96,2.7002,3.96a8.51935,8.51935,0,0,0,2.33984-.26953V266.5a7.88964,7.88964,0,0,1-2.79.40527c-2.87988,0-4.499-1.44043-4.499-5.04V246.20605h-4.18555Z"/><path class="cls-3" d="M323.72754,255.61084c.04492,5.8042,2.96973,9.40479,7.28906,9.40479,4.23047,0,5.66992-2.38575,6.47949-4.23047H339.791c-.94434,2.96972-3.32911,6.34472-8.86426,6.34472-6.83985,0-9.49414-5.89453-9.49414-11.60888,0-6.43506,3.19433-11.96973,9.76367-11.96973,6.93066,0,9.13476,5.98486,9.13476,10.21436,0,.63037,0,1.26025-.04492,1.84521Zm14.26367-1.98c-.04492-4.45459-2.47461-7.96484-6.88476-7.96484-4.63477,0-6.749,3.24023-7.24415,7.96484Z"/><path class="cls-3" d="M345.82227,250.21094c0-3.77979-.04493-5.3999-.04493-6.11963h2.20411c.04492.71973.09082,2.15967.09082,5.03955a8.52368,8.52368,0,0,1,7.8291-5.57959V245.981c-4.67969.31543-7.8291,3.55517-7.8291,8.90967v11.69921h-2.25Z"/><path class="cls-3" d="M149.30859,313.97559c-1.07959,3.96-3.68994,7.15429-8.72949,7.15429-5.625,0-9.62939-4.18457-9.62939-11.69922,0-6.165,3.28467-11.87988,9.89941-11.87988a8.04436,8.04436,0,0,1,8.45947,7.2002h-2.29492c-.6748-2.61035-2.38476-5.085-6.20947-5.085-4.77,0-7.46973,4.0498-7.46973,9.6748,0,5.35449,2.52,9.67481,7.24463,9.67481,3.28467,0,5.26465-1.665,6.43457-5.04Z"/><path class="cls-3" d="M172.978,309.2959c0,6.2539-3.46485,11.834-10.16944,11.834-6.0747,0-9.85449-4.99414-9.85449-11.78906,0-6.43457,3.55469-11.79,10.07959-11.79C169.01807,297.55078,172.978,302.23047,172.978,309.2959Zm-17.63916.04492c0,5.35449,2.87988,9.67481,7.64941,9.67481,4.85986,0,7.605-4.00489,7.605-9.67481,0-5.31055-2.70019-9.6748-7.69482-9.6748C157.76855,299.666,155.33887,303.94043,155.33887,309.34082Z"/><path class="cls-3" d="M178.55859,303.76074c0-1.97949,0-3.87011-.04492-5.66992h2.20459c.09033.71973.13526,3.64551.09033,4.27539.98975-2.29492,2.83448-4.81543,7.46973-4.81543,4.00439,0,7.55957,2.25,7.55957,8.46v14.5791h-2.25V306.37109c0-4.00488-1.665-6.61523-5.57959-6.61523-5.355,0-7.19971,4.45508-7.19971,9.35937v11.47461h-2.25Z"/><path class="cls-3" d="M203.0835,314.37988c.76464,2.92578,2.835,4.68067,6.38964,4.68067,4.00489,0,5.625-1.84571,5.625-4.36524,0-2.56445-1.08007-3.82519-6.12011-5.04-5.80469-1.39453-7.24463-3.14941-7.24463-6.11914,0-3.10547,2.33984-5.98535,7.4248-5.98535s7.51465,3.10547,7.87451,6.29981h-2.25c-.40478-1.88965-1.88964-4.2295-5.71435-4.2295-3.915,0-5.04,1.93457-5.04,3.73438,0,2.07031,1.08008,3.10547,5.53467,4.18555,6.34472,1.52929,7.91992,3.59961,7.91992,6.97461,0,4.09472-3.33008,6.61425-8.05469,6.61425-5.12988,0-8.00976-2.70019-8.63965-6.75Z"/><path class="cls-3" d="M239.35205,314.02051c0,2.20508.04492,5.71484.04492,6.56933H237.2373a36.17612,36.17612,0,0,1-.13525-3.915c-.94482,2.65528-3.23975,4.45508-7.24463,4.45508-3.23974,0-7.37939-1.25976-7.37939-8.14453V298.09082h2.20459v14.35449c0,3.28516,1.03515,6.47949,5.48974,6.47949,5.04,0,6.92969-2.835,6.92969-9.26953V298.09082h2.25Z"/><path class="cls-3" d="M246.73242,303.89551c0-1.93457,0-4.04981-.04492-5.80469h2.20459c.04492.76563.13525,2.7002.09033,4.00488a7.0367,7.0367,0,0,1,6.74951-4.54492c3.14991,0,5.62452,1.5752,6.52491,4.45508a7.65569,7.65569,0,0,1,7.334-4.45508c3.46484,0,7.06543,1.98047,7.06543,8.23535v14.80371h-2.25V306.05566c0-3.01464-1.08008-6.2998-5.26465-6.2998-4.36523,0-6.34472,3.50977-6.34472,7.875v12.959H260.5918V306.10059c0-3.28516-.99024-6.34473-5.12989-6.34473-4.36474,0-6.47949,3.87012-6.47949,8.46v12.374h-2.25Z"/><path class="cls-3" d="M286.28711,317.25977v12.33007h-2.25V303.626c0-1.84473,0-3.8252-.04492-5.53516h2.20508c.08984.85547.08984,2.20508.08984,4.04981a8.26675,8.26675,0,0,1,7.91992-4.58985c5.30957,0,8.999,4.45508,8.999,11.20508,0,8.09961-4.31933,12.374-9.76464,12.374C289.48242,321.12988,287.41211,319.375,286.28711,317.25977Zm14.53418-8.41407c0-5.21972-2.51953-9.13476-6.97461-9.13476-5.44434,0-7.69434,3.41992-7.69434,9.54,0,6.02929,1.75489,9.76465,7.37989,9.76465C298.21191,319.01563,300.82129,315.05566,300.82129,308.8457Z"/><path class="cls-3" d="M305.457,298.09082h4.18457v-7.01953h2.25v7.01953h5.35449v2.11523H311.8916v14.624c0,2.52051.54,3.96,2.7002,3.96a8.52353,8.52353,0,0,0,2.33984-.26953V320.5a7.893,7.893,0,0,1-2.79.40527c-2.87988,0-4.5-1.44043-4.5-5.04V300.20605H305.457Z"/><path class="cls-3" d="M321.83594,287.42676h2.25V291.791h-2.25Zm0,10.66406h2.25v22.499h-2.25Z"/><path class="cls-3" d="M349.69043,309.2959c0,6.2539-3.46484,11.834-10.16992,11.834-6.07422,0-9.85449-4.99414-9.85449-11.78906,0-6.43457,3.55468-11.79,10.08007-11.79C345.73047,297.55078,349.69043,302.23047,349.69043,309.2959Zm-17.63965.04492c0,5.35449,2.87988,9.67481,7.64942,9.67481,4.86035,0,7.60546-4.00489,7.60546-9.67481,0-5.31055-2.70019-9.6748-7.69531-9.6748C334.48047,299.666,332.05078,303.94043,332.05078,309.34082Z"/><path class="cls-3" d="M355.27051,303.76074c0-1.97949,0-3.87011-.04492-5.66992h2.2041c.09082.71973.13574,3.64551.09082,4.27539.98926-2.29492,2.834-4.81543,7.46972-4.81543,4.00391,0,7.55957,2.25,7.55957,8.46v14.5791h-2.25V306.37109c0-4.00488-1.665-6.61523-5.58007-6.61523-5.3545,0-7.19922,4.45508-7.19922,9.35937v11.47461h-2.25Z"/><path class="cls-3" d="M104.42236,374.58984V341.42676h2.25v33.16308Z"/><path class="cls-3" d="M114.54688,363.61035c.04492,5.80469,2.96972,9.40528,7.28955,9.40528,4.23,0,5.66992-2.38575,6.47949-4.23047h2.29492c-.94482,2.96972-3.32959,6.34472-8.86426,6.34472-6.83984,0-9.49463-5.89453-9.49463-11.60937,0-6.43457,3.19483-11.96973,9.76416-11.96973,6.93018,0,9.13477,5.98535,9.13477,10.21485,0,.62988,0,1.25976-.04492,1.84472Zm14.26416-1.97949c-.04493-4.45508-2.4751-7.96484-6.88477-7.96484-4.63477,0-6.74951,3.24023-7.24463,7.96484Z"/><path class="cls-3" d="M152.07568,370.31543a25.67163,25.67163,0,0,0,.31543,4.27441H150.231a14.765,14.765,0,0,1-.40479-3.46484c-.76513,1.665-2.74512,4.00488-7.37988,4.00488-5.21973,0-7.46973-3.375-7.46973-6.75,0-4.94922,3.82471-7.19922,10.57471-7.19922h4.2749v-2.29492c0-2.25-.67529-5.26465-5.80517-5.26465-4.54444,0-5.21973,2.38477-5.71436,4.2295h-2.25c.27-2.47461,1.79981-6.29981,8.00977-6.29981,5.12939,0,8.00927,2.16016,8.00927,7.11035Zm-2.20459-7.2002h-4.41015c-4.99463,0-8.09961,1.30567-8.09961,5.17481,0,2.835,2.0249,4.77051,5.1748,4.77051,6.43506,0,7.335-4.27539,7.335-9.13477Z"/><path class="cls-3" d="M176.87061,341.42676v26.68359c0,2.16016,0,4.22949.04492,6.47949h-2.15967c-.09033-.54-.13525-2.65429-.13525-3.77929-1.125,2.74414-3.64454,4.31933-7.55957,4.31933-5.84961,0-9.35938-4.76953-9.35938-11.51953,0-6.92969,3.82471-12.05957,9.94434-12.05957,4.5,0,6.2998,1.93555,6.97461,3.375v-13.499Zm-16.78418,22.09375c0,6.165,3.19482,9.49512,7.06445,9.49512,5.93994,0,7.56006-4.09571,7.56006-10.21485,0-5.80469-1.395-9.13476-7.15479-9.13476C163.10107,353.666,160.08643,357.2207,160.08643,363.52051Z"/><path class="cls-3" d="M184.251,341.42676h2.25V345.791h-2.25Zm0,10.66406h2.25v22.499h-2.25Z"/><path class="cls-3" d="M193.88037,357.76074c0-1.97949,0-3.87011-.04492-5.66992H196.04c.09033.71973.13525,3.64551.09033,4.27539.98975-2.29492,2.83447-4.81543,7.46973-4.81543,4.00439,0,7.55957,2.25,7.55957,8.46v14.5791h-2.25V360.37109c0-4.00488-1.665-6.61523-5.57959-6.61523-5.355,0-7.19971,4.45508-7.19971,9.35937v11.47461h-2.25Z"/><path class="cls-3" d="M235.729,373.06055c0,7.19922-3.19482,10.97949-9.71923,10.97949-5.8501,0-8.27979-3.28516-8.81983-6.70508h2.29492c.81006,3.10449,3.375,4.58984,6.61475,4.58984,5.84961,0,7.46973-3.78027,7.46973-9.49511v-2.33985c-1.21485,2.92579-3.41993,4.5-7.51465,4.5-5.26465,0-9.31446-4.27441-9.31446-11.249,0-7.55957,4.31983-11.79,9.6294-11.79,4.58984,0,6.56982,2.16016,7.19971,3.96.04492-1.30469.08984-2.87988.13476-3.41992h2.11524c0,.81055-.09034,4.36523-.09034,6.52539ZM219.125,363.251c0,5.35449,2.835,9.22461,7.15479,9.22461,5.62451,0,7.33447-3.73536,7.33447-9.585,0-5.93946-1.79981-9.22461-7.19971-9.22461C221.23975,353.666,219.125,358.12109,219.125,363.251Z"/><path class="cls-3" d="M251.43457,352.09082h4.18506v-7.01953h2.24951v7.01953h5.35449v2.11523h-5.35449v14.624c0,2.52051.54,3.96,2.7002,3.96a8.52353,8.52353,0,0,0,2.33984-.26953V374.5a7.893,7.893,0,0,1-2.79.40527c-2.87988,0-4.49951-1.44043-4.49951-5.04V354.20605h-4.18506Z"/><path class="cls-3" d="M285.76758,363.2959c0,6.2539-3.46485,11.834-10.16895,11.834-6.07519,0-9.85449-4.99414-9.85449-11.78906,0-6.43457,3.55469-11.79,10.0791-11.79C281.80762,351.55078,285.76758,356.23047,285.76758,363.2959Zm-17.63867.04492c0,5.35449,2.87988,9.67481,7.64941,9.67481,4.85938,0,7.60449-4.00489,7.60449-9.67481,0-5.31055-2.70019-9.6748-7.69433-9.6748C270.55859,353.666,268.12891,357.94043,268.12891,363.34082Z"/><path class="cls-3" d="M303.09277,352.09082c3.33008,11.60938,5.26465,18.26953,5.625,20.249h.04493c.36035-1.7998,2.61035-8.86425,6.12011-20.249h2.42969c4.18457,13.9043,5.44434,17.90918,5.84961,19.66406h.04492c.62988-2.47461,1.665-5.84961,5.80469-19.66406h2.38476l-7.10937,22.499H321.8125c-2.42969-7.96484-5.35547-17.72949-5.80469-19.79882h-.04492c-.45019,2.20507-3.01562,10.25976-5.94043,19.79882h-2.69922l-6.61523-22.499Z"/><path class="cls-3" d="M351.15234,370.31543a25.75626,25.75626,0,0,0,.31446,4.27441h-2.15918a14.72634,14.72634,0,0,1-.40528-3.46484c-.76464,1.665-2.74511,4.00488-7.37988,4.00488-5.21973,0-7.46973-3.375-7.46973-6.75,0-4.94922,3.8252-7.19922,10.5752-7.19922h4.27441v-2.29492c0-2.25-.6748-5.26465-5.80468-5.26465-4.54493,0-5.21973,2.38477-5.71485,4.2295h-2.25c.27051-2.47461,1.79981-6.29981,8.00977-6.29981,5.12988,0,8.00976,2.16016,8.00976,7.11035Zm-2.20507-7.2002h-4.41016c-4.99414,0-8.09961,1.30567-8.09961,5.17481,0,2.835,2.02539,4.77051,5.1748,4.77051,6.43555,0,7.335-4.27539,7.335-9.13477Z"/><path class="cls-3" d="M354.97852,352.09082h4.18457v-7.01953h2.25v7.01953h5.35449v2.11523h-5.35449v14.624c0,2.52051.54,3.96,2.70019,3.96a8.5236,8.5236,0,0,0,2.33985-.26953V374.5a7.893,7.893,0,0,1-2.79.40527c-2.87989,0-4.5-1.44043-4.5-5.04V354.20605h-4.18457Z"/><path class="cls-3" d="M371.583,363.61035c.04492,5.80469,2.96972,9.40528,7.28906,9.40528,4.23047,0,5.66992-2.38575,6.47949-4.23047h2.29492c-.94433,2.96972-3.3291,6.34472-8.86425,6.34472-6.83985,0-9.49414-5.89453-9.49414-11.60937,0-6.43457,3.19433-11.96973,9.76367-11.96973,6.93066,0,9.13476,5.98535,9.13476,10.21485,0,.62988,0,1.25976-.04492,1.84472Zm14.26367-1.97949c-.04492-4.45508-2.47461-7.96484-6.88477-7.96484-4.63476,0-6.749,3.24023-7.24414,7.96484Z"/><path class="cls-3" d="M393.67773,358.21094c0-3.78028-.04492-5.40039-.04492-6.12012h2.2041c.04493.71973.09082,2.16016.09082,5.04a8.52415,8.52415,0,0,1,7.82911-5.58008v2.42969c-4.67969.31543-7.82911,3.55566-7.82911,8.91016v11.69921h-2.25Z"/><path class="cls-3" d="M207.044,422.37988c.76464,2.92578,2.835,4.68067,6.38964,4.68067,4.00489,0,5.625-1.84571,5.625-4.36524,0-2.56445-1.08007-3.82519-6.12011-5.04-5.80469-1.39453-7.24463-3.14941-7.24463-6.11914,0-3.10547,2.33984-5.98535,7.4248-5.98535s7.51465,3.10547,7.87451,6.29981h-2.25c-.40478-1.88965-1.88964-4.2295-5.71435-4.2295-3.915,0-5.04,1.93457-5.04,3.73438,0,2.07031,1.08008,3.10547,5.53467,4.18555,6.34472,1.52929,7.91992,3.59961,7.91992,6.97461,0,4.09472-3.33008,6.61425-8.05469,6.61425-5.12988,0-8.00976-2.70019-8.63965-6.75Z"/><path class="cls-3" d="M223.51367,406.09082h4.18506v-7.01953h2.24951v7.01953h5.355v2.11523h-5.355v14.624c0,2.52051.54,3.96,2.7002,3.96a8.52142,8.52142,0,0,0,2.33984-.26953V428.5a7.89133,7.89133,0,0,1-2.79.40527c-2.87988,0-4.49951-1.44043-4.49951-5.04V408.20605h-4.18506Z"/><path class="cls-3" d="M239.48877,412.21094c0-3.78028-.04492-5.40039-.04492-6.12012h2.20459c.04492.71973.09033,2.16016.09033,5.04a8.52428,8.52428,0,0,1,7.82959-5.58008v2.42969c-4.67969.31543-7.82959,3.55566-7.82959,8.91016v11.69921h-2.25Z"/><path class="cls-3" d="M254.20361,417.61035c.04493,5.80469,2.96973,9.40528,7.28955,9.40528,4.2295,0,5.66993-2.38575,6.4795-4.23047h2.29492c-.94531,2.96972-3.33008,6.34472-8.86426,6.34472-6.83984,0-9.49463-5.89453-9.49463-11.60937,0-6.43457,3.19483-11.96973,9.76416-11.96973,6.92969,0,9.13477,5.98535,9.13477,10.21485,0,.62988,0,1.25976-.04492,1.84472Zm14.26416-1.97949c-.04492-4.45508-2.47558-7.96484-6.88476-7.96484-4.63477,0-6.74951,3.24023-7.24463,7.96484Z"/><path class="cls-3" d="M276.83789,422.37988c.76465,2.92578,2.835,4.68067,6.38965,4.68067,4.00488,0,5.625-1.84571,5.625-4.36524,0-2.56445-1.08008-3.82519-6.12012-5.04-5.80469-1.39453-7.24512-3.14941-7.24512-6.11914,0-3.10547,2.33985-5.98535,7.42481-5.98535s7.51465,3.10547,7.875,6.29981h-2.25c-.40527-1.88965-1.88965-4.2295-5.71484-4.2295-3.915,0-5.04,1.93457-5.04,3.73438,0,2.07031,1.08007,3.10547,5.53515,4.18555,6.34473,1.52929,7.91992,3.59961,7.91992,6.97461,0,4.09472-3.33007,6.61425-8.05468,6.61425-5.12989,0-8.00977-2.70019-8.63965-6.75Z"/><path class="cls-3" d="M297.35645,422.37988c.76464,2.92578,2.835,4.68067,6.38964,4.68067,4.00489,0,5.625-1.84571,5.625-4.36524,0-2.56445-1.08007-3.82519-6.12011-5.04-5.80469-1.39453-7.24414-3.14941-7.24414-6.11914,0-3.10547,2.33984-5.98535,7.4248-5.98535s7.51465,3.10547,7.874,6.29981h-2.25c-.40429-1.88965-1.88964-4.2295-5.71386-4.2295-3.915,0-5.04,1.93457-5.04,3.73438,0,2.07031,1.08008,3.10547,5.53418,4.18555,6.34472,1.52929,7.91992,3.59961,7.91992,6.97461,0,4.09472-3.33008,6.61425-8.05469,6.61425-5.12988,0-8.00976-2.70019-8.63965-6.75Z"/></svg>