<svg id="Layer_1" data-name="Layer 1" xmlns="http://www.w3.org/2000/svg" viewBox="0 0 517 517"><defs><style>.cls-1{fill:#2e3192;}.cls-2{fill:#fff;}.cls-3{fill:#006838;}.cls-4{fill:#009345;}.cls-5{fill:#8bc53f;}.cls-6{fill:#603813;stroke:#603813;stroke-miterlimit:10;}</style></defs><title>avocado1</title><path class="cls-1" d="M258.45,516.49945c-142.5,0-258-115.5-258-258a257.961,257.961,0,0,1,75.6-182.4c100.8-100.8,264.1-100.8,364.9,0s100.8,264.1,0,364.9A256.49776,256.49776,0,0,1,258.45,516.49945Z"/><path class="cls-2" d="M135.84668,252.74854h11.83008c9.791,0,16.57422,6.83251,16.57422,17.5415,0,10.6582-6.62989,18.1543-16.625,18.1543h-11.7793Zm2.75391,33.146h8.61718c9.43457,0,14.0752-6.6289,14.0752-15.45117,0-7.85352-4.18164-15.145-14.0752-15.145h-8.61718Z"/><path class="cls-2" d="M171.85254,276.002c.05078,6.57813,3.36523,10.65821,8.26074,10.65821,4.79395,0,6.42578-2.70313,7.34375-4.79395h2.60059c-1.07129,3.36524-3.77344,7.19043-10.0459,7.19043-7.75195,0-10.76074-6.68066-10.76074-13.15723,0-7.292,3.62109-13.56445,11.0664-13.56445,7.85352,0,10.35157,6.78223,10.35157,11.57617,0,.71387,0,1.42774-.05079,2.09082Zm16.165-2.24414c-.05078-5.04785-2.80469-9.02539-7.80274-9.02539-5.252,0-7.64843,3.6709-8.21,9.02539Z"/><path class="cls-2" d="M196.89355,269.52539c0-2.19238,0-4.58984-.05175-6.57812h2.499c.05078.86718.15332,3.05957.10254,4.53808a7.97332,7.97332,0,0,1,7.64844-5.15039c3.57031,0,6.375,1.78516,7.39453,5.04883a8.679,8.679,0,0,1,8.3125-5.04883c3.92676,0,8.00586,2.24414,8.00586,9.332v16.77735h-2.54981V271.97363c0-3.417-1.22363-7.13965-5.96582-7.13965-4.94726,0-7.19043,3.97754-7.19043,8.92383v14.68653h-2.499V272.02441c0-3.72265-1.12207-7.19043-5.81348-7.19043-4.94629,0-7.34277,4.38575-7.34277,9.58692v14.02344h-2.54981Z"/><path class="cls-2" d="M256.35742,283.59961a29.08848,29.08848,0,0,0,.35742,4.84473H254.2666a16.77131,16.77131,0,0,1-.459-3.92676c-.86621,1.88672-3.11035,4.53906-8.36328,4.53906-5.915,0-8.46485-3.82519-8.46485-7.64941,0-5.60938,4.335-8.15918,11.98438-8.15918h4.84375v-2.60059c0-2.5498-.76465-5.9668-6.57813-5.9668-5.15039,0-5.915,2.70313-6.47656,4.79395h-2.5498c.30664-2.80469,2.04-7.13965,9.07714-7.13965,5.81348,0,9.07715,2.44824,9.07715,8.05762Zm-2.498-8.15918h-4.998c-5.66016,0-9.17871,1.47949-9.17871,5.86523,0,3.21192,2.29492,5.40528,5.86426,5.40528,7.292,0,8.3125-4.84473,8.3125-10.35254Z"/><path class="cls-2" d="M264.77441,269.37207c0-2.24316,0-4.38477-.05175-6.4248h2.499c.10254.81543.15332,4.13086.10254,4.84472,1.12109-2.60156,3.21191-5.457,8.46484-5.457,4.53809,0,8.56739,2.54981,8.56739,9.58692v16.52246h-2.54981V272.33008c0-4.53809-1.88672-7.4961-6.32324-7.4961-6.06836,0-8.15918,5.04883-8.15918,10.60645v13.00391h-2.54981Z"/><path class="cls-2" d="M312.40527,250.86182v30.23974c0,2.44727,0,4.793.05078,7.34278h-2.44726c-.10254-.61133-.15332-3.00879-.15332-4.28321-1.27442,3.11035-4.13086,4.89551-8.56738,4.89551-6.62891,0-10.60645-5.40527-10.60645-13.05469,0-7.85351,4.335-13.667,11.26953-13.667,5.09961,0,7.13965,2.19336,7.9043,3.8252V250.86182Zm-19.0205,25.03759c0,6.98633,3.62011,10.76075,8.00586,10.76075,6.73144,0,8.56738-4.64063,8.56738-11.57618,0-6.57812-1.58106-10.35156-8.1084-10.35156C296.80078,264.73242,293.38477,268.76074,293.38477,275.89941Z"/><path class="cls-2" d="M334.69336,288.44434V265.34375h-4.38574v-2.39648h4.38574v-3.6211c0-4.2832,1.22363-8.97461,6.93555-8.97461a9.52944,9.52944,0,0,1,2.499.35694v2.44775a12.69024,12.69024,0,0,0-2.75391-.30566c-3.00879,0-4.13086,2.1416-4.13086,6.57812v3.51856h5.5586v2.39648h-5.5586v23.10059Z"/><path class="cls-2" d="M367.48438,275.64453c0,7.08887-3.92676,13.41211-11.5254,13.41211-6.88378,0-11.168-5.66016-11.168-13.36035,0-7.293,4.02929-13.36133,11.42285-13.36133C362.99707,262.335,367.48438,267.63867,367.48438,275.64453Zm-19.99024.05176c0,6.06836,3.26367,10.96387,8.66895,10.96387,5.50781,0,8.61816-4.53907,8.61816-10.96387,0-6.01758-3.05957-10.96387-8.71973-10.96387C350.24805,264.73242,347.49414,269.57617,347.49414,275.69629Z"/><path class="cls-2" d="M373.80957,269.88281c0-4.28418-.05078-6.12011-.05078-6.93554h2.499c.05078.81543.10157,2.44726.10157,5.71093a9.65961,9.65961,0,0,1,8.873-6.32324v2.75391c-5.30371.35742-8.873,4.02832-8.873,10.09668v13.25879h-2.54981Z"/><path class="cls-2" d="M177.74121,344.7998a29.22818,29.22818,0,0,0,.35645,4.84473h-2.44727a16.71479,16.71479,0,0,1-.459-3.92676c-.86719,1.88672-3.11133,4.53907-8.36328,4.53907-5.915,0-8.46485-3.8252-8.46485-7.64942,0-5.60937,4.334-8.15918,11.9834-8.15918h4.84473v-2.60058c0-2.54981-.76465-5.9668-6.57813-5.9668-5.15137,0-5.916,2.70312-6.47656,4.79394h-2.54981c.30567-2.80468,2.04-7.13964,9.07715-7.13964,5.81348,0,9.07715,2.44824,9.07715,8.05761Zm-2.499-8.15917h-4.99707c-5.66114,0-9.17969,1.47949-9.17969,5.86523,0,3.21191,2.29492,5.40527,5.86426,5.40527,7.293,0,8.3125-4.84472,8.3125-10.35254Z"/><path class="cls-2" d="M184.78125,324.14746c4.13086,11.67774,6.98633,19.63281,7.95508,22.89649h.05078c.56152-1.88672,3.417-9.48536,8.36328-22.89649h2.70313l-9.63868,25.49707h-3.05957l-9.07714-25.49707Z"/><path class="cls-2" d="M229.50586,336.84473c0,7.08886-3.92676,13.41211-11.52539,13.41211-6.88379,0-11.168-5.66016-11.168-13.36036,0-7.293,4.0293-13.36132,11.42285-13.36132C225.01855,323.53516,229.50586,328.83887,229.50586,336.84473Zm-19.99023.05175c0,6.06836,3.26367,10.96387,8.66894,10.96387,5.50781,0,8.61816-4.53906,8.61816-10.96387,0-6.01757-3.05957-10.96386-8.71972-10.96386C212.26953,325.93262,209.51563,330.77637,209.51563,336.89648Z"/><path class="cls-2" d="M254.90332,342.14844c-1.22363,4.4873-4.18164,8.1084-9.89258,8.1084-6.375,0-10.91308-4.74219-10.91308-13.25879,0-6.98633,3.72265-13.46289,11.21875-13.46289,6.47656,0,9.12793,4.58984,9.58691,8.15918h-2.60059c-.76464-2.957-2.70312-5.76172-7.0371-5.76172-5.40528,0-8.46485,4.58886-8.46485,10.96386,0,6.06836,2.85547,10.96387,8.21,10.96387,3.72266,0,5.96582-1.88769,7.292-5.71191Z"/><path class="cls-2" d="M278.51563,344.7998a29.08837,29.08837,0,0,0,.35742,4.84473H276.4248a16.77131,16.77131,0,0,1-.459-3.92676c-.86621,1.88672-3.11035,4.53907-8.36328,4.53907-5.915,0-8.46484-3.8252-8.46484-7.64942,0-5.60937,4.335-8.15918,11.98437-8.15918h4.84375v-2.60058c0-2.54981-.76465-5.9668-6.57812-5.9668-5.1504,0-5.915,2.70312-6.47657,4.79394h-2.5498c.30664-2.80468,2.04-7.13964,9.07715-7.13964,5.81347,0,9.07715,2.44824,9.07715,8.05761Zm-2.498-8.15917h-4.99805c-5.66015,0-9.17871,1.47949-9.17871,5.86523,0,3.21191,2.29492,5.40527,5.86426,5.40527,7.292,0,8.3125-4.84472,8.3125-10.35254Z"/><path class="cls-2" d="M306.61719,312.06152v30.24024c0,2.44726,0,4.793.05078,7.34277h-2.44824c-.10157-.61133-.15235-3.00879-.15235-4.2832-1.27539,3.11035-4.13086,4.89551-8.56738,4.89551-6.62891,0-10.60742-5.40528-10.60742-13.05469,0-7.85352,4.335-13.667,11.27051-13.667,5.09961,0,7.13867,2.19336,7.90429,3.82519V312.06152ZM287.5957,337.09961c0,6.98633,3.6211,10.76074,8.00586,10.76074,6.73145,0,8.56739-4.64062,8.56739-11.57617,0-6.57813-1.58106-10.35156-8.1084-10.35156C291.0127,325.93262,287.5957,329.96094,287.5957,337.09961Z"/><path class="cls-2" d="M335.63477,336.84473c0,7.08886-3.92676,13.41211-11.52442,13.41211-6.88476,0-11.168-5.66016-11.168-13.36036,0-7.293,4.02832-13.36132,11.42285-13.36132C331.14746,323.53516,335.63477,328.83887,335.63477,336.84473Zm-19.98926.05175c0,6.06836,3.26367,10.96387,8.66894,10.96387,5.50684,0,8.61817-4.53906,8.61817-10.96387,0-6.01757-3.05957-10.96386-8.72071-10.96386C318.39844,325.93262,315.64551,330.77637,315.64551,336.89648Z"/><path class="cls-2" d="M342.4707,342.60742c.86621,3.31446,3.21192,5.30371,7.24121,5.30371,4.53809,0,6.374-2.09082,6.374-4.94629,0-2.90722-1.22364-4.335-6.93555-5.71191-6.57812-1.58105-8.21-3.56934-8.21-6.93555,0-3.51855,2.65234-6.78222,8.41406-6.78222,5.7627,0,8.5166,3.51855,8.92481,7.13964h-2.54981c-.459-2.1416-2.14258-4.79394-6.47656-4.79394-4.43652,0-5.71191,2.19336-5.71191,4.23242,0,2.34668,1.22461,3.51953,6.27246,4.74317,7.19043,1.73339,8.97558,4.0791,8.97558,7.90429,0,4.64063-3.77343,7.4961-9.12793,7.4961-5.81347,0-9.07715-3.05957-9.791-7.64942Z"/><path class="cls-3" d="M207.038,130.31485l2.08747-59.78432c.333-9.53594,1.06859-20.0473,7.80535-26.80459a24.80051,24.80051,0,0,1,13.064-6.43354c12.20533-2.30085,24.93024,2.20652,34.92257,9.58335s17.67052,17.40463,24.917,27.49187q11.35529,15.80679,21.76091,32.26777c15.31121,24.22218,29.51013,52.92985,21.61833,80.47738-1.56451,5.46118-4.0544,10.79012-8.09347,14.78487-5.10812,5.05205-12.17358,7.51807-19.05175,9.59332-17.16588,5.17922-35.18378,8.90522-52.97269,6.65883s-35.4367-11.267-44.53064-26.71988c-10.76535-18.293-7.81127-41.37583-2.68346-61.97275"/><path class="cls-3" d="M212.038,130.31485,213.91674,76.509c.255-7.30281.0307-14.95592,2.32652-21.9839,2.51712-7.70541,9.06213-11.84593,16.94519-12.681,15.50749-1.64281,29.39771,7.92809,39.42372,18.77417C283.63057,72.53782,292.614,86.619,301.48426,100.158c16.33134,24.92714,37.81008,58.34077,25.68391,89.312-5.88168,15.02227-23.63038,18.10855-37.716,21.26291-15.31938,3.43065-31.55639,4.706-46.77336.09807-15.08125-4.56682-28.503-14.914-33.57942-30.244-5.347-16.14723-2.34733-33.7002,1.60357-49.80061,1.53348-6.24912-8.1074-8.9153-9.64279-2.6584-4.07923,16.62337-6.94755,34.39523-2.71951,51.29093,3.96492,15.84423,14.89627,28.66576,29.335,36.06874,15.55,7.97269,33.15337,9.56167,50.30265,7.369a179.41352,179.41352,0,0,0,28.5298-6.27911c7.4741-2.23063,15.07883-4.853,21.0237-10.10059,12.87428-11.36431,14.39-32.02686,11.89814-47.85327-2.91648-18.52318-11.90637-35.73863-21.64955-51.52389-10.13032-16.4125-20.9185-32.8168-33.11362-47.782-10.92062-13.40123-25.1198-25.04856-42.81077-27.256-8.93346-1.1147-18.69883.40747-25.96691,6.01439C208.5399,43.74574,205.778,52.45662,204.7377,61.35361c-1.27678,10.91958-1.06385,22.11186-1.4472,33.09065L202.038,130.31485c-.22474,6.43636,9.77556,6.42763,10,0Z"/><path class="cls-3" d="M201.81289,142.11126a154.88376,154.88376,0,0,0,4.308-26.69069"/><path class="cls-3" d="M204.22359,142.77586a170.4093,170.4093,0,0,0,4.39733-27.35529c.25346-3.20819-4.74785-3.19168-5,0a162.11174,162.11174,0,0,1-4.21873,26.02609c-.76856,3.12424,4.05191,4.45718,4.8214,1.3292Z"/><path class="cls-4" d="M211.65258,130.28506l1.61369-56.26223c.25739-8.97415.87423-18.86457,6.93175-25.19409a21.82489,21.82489,0,0,1,11.77724-5.99591c11.0201-2.11,22.54086,2.19067,31.60512,9.17968s16.04923,16.4627,22.64431,25.99035q10.33452,14.92992,19.81378,30.47124c13.94811,22.86892,26.91147,49.95471,19.905,75.84769-1.389,5.13317-3.61493,10.13766-7.247,13.87926-4.59342,4.73191-10.96759,7.02078-17.1743,8.94272-15.49007,4.79656-31.75681,8.22141-47.84384,6.0258s-32.07746-10.76676-40.36667-25.35324c-9.81271-17.26738-7.24832-38.98048-2.70805-58.34385"/><path class="cls-4" d="M216.65258,130.28506l1.39111-48.50193c.34966-12.19138-1.29823-30.11521,13.80825-33.81041,14.20328-3.47428,27.83973,5.83954,37.01868,15.72269,9.97,10.73485,17.88733,23.63887,25.7514,35.93639,15.21169,23.78746,34.58932,53.75918,26.5,83.3608-1.84882,6.7655-5.16206,12.30033-11.47754,15.68375-6.17043,3.30571-13.5299,5.0145-20.2878,6.69535-14.52076,3.61166-29.98718,5.23768-44.5008.7221-14.01827-4.36146-26.05438-14.34822-30.646-28.57937-4.88582-15.14305-2.27864-31.57208,1.215-46.71275,1.44518-6.26305-8.19411-8.93658-9.64279-2.6584-3.66524,15.88421-6.223,32.841-2.11425,48.90661a53.43164,53.43164,0,0,0,26.98458,33.87638c14.3706,7.64466,30.70968,9.1,46.65016,6.93072a156.70231,156.70231,0,0,0,27.10271-6.38116c7.25295-2.35019,14.42351-5.47058,19.35813-11.51258,10.11367-12.38327,10.50417-30.93595,7.54533-45.89378-3.41-17.23858-11.89957-33.24049-20.953-48.119-9.32524-15.32519-19.0169-30.89164-30.44078-44.76078-10.09053-12.25039-23.62633-22.75655-40.023-23.824-8.25128-.53718-17.36024,1.8325-23.2295,7.92749-5.6555,5.873-7.39378,14.04057-8.05262,21.89764-1.75116,20.88375-1.35646,42.146-1.95729,63.09422-.18462,6.43718,9.81553,6.43191,10,0Z"/><path class="cls-4" d="M206.9842,141.36453a150.68827,150.68827,0,0,0,3.77157-25.10285"/><path class="cls-4" d="M209.3949,142.02913a166.08658,166.08658,0,0,0,3.86087-25.76745c.22808-3.2109-4.77293-3.19658-5,0a157.46885,157.46885,0,0,1-3.68226,24.43825c-.72526,3.13113,4.09443,4.46768,4.82139,1.3292Z"/><path class="cls-5" d="M215.2379,130.911l1.58188-52.17648c.25231-8.32244.84272-17.495,6.52907-23.37213a20.60279,20.60279,0,0,1,11.04782-5.57475c10.33328-1.9702,21.128,2.00381,29.61663,8.47389s15.025,15.24687,21.19574,24.07419q9.66964,13.83249,18.53678,28.233c13.04741,21.19024,25.1665,46.29218,18.5665,70.31252-1.30842,4.76192-3.40124,9.40554-6.8107,12.87976-4.31187,4.39376-10.29009,6.52417-16.11087,8.31409-14.52691,4.46711-29.78021,7.66311-44.85814,5.6468s-30.05747-9.94507-37.81018-23.46158c-9.17761-16.00076-6.747-36.13945-2.46693-54.10155"/><path class="cls-5" d="M220.2379,130.911l1.34752-44.44663c.34247-11.29581-1.3046-27.91314,12.609-31.51585,13.3697-3.46187,26.35,5.53686,34.94986,14.82616,9.36716,10.1181,16.85375,22.22145,24.28519,33.78285,13.92909,21.6701,31.56022,49.0054,24.06143,75.9945-1.7355,6.24628-4.836,11.26851-10.6387,14.34407-6.01643,3.18882-13.22706,4.8213-19.808,6.408-13.50486,3.25612-27.86071,4.60978-41.29941.32983-12.9019-4.109-23.91262-13.35993-28.02888-26.52571-4.32866-13.84514-1.87114-28.82483,1.36093-42.62028,1.46659-6.25989-8.17307-8.93164-9.6428-2.65839-3.41232,14.56484-5.81165,30.08634-2.21049,44.86028a49.82494,49.82494,0,0,0,25.074,32.02993c13.39948,7.22141,28.73405,8.71834,43.65542,6.77987a149.08223,149.08223,0,0,0,25.4956-5.831c6.59666-2.07544,13.37462-4.73589,18.13272-9.97208,10.27182-11.30392,10.91578-29.08209,8.221-43.30745-3.028-15.98471-10.87827-30.84762-19.28495-44.60165C299.94538,94.76284,290.97458,80.649,280.637,67.84518,271.06193,55.9857,258.32316,45.732,242.6,44.40433c-7.85937-.66367-16.36015,1.389-22.21176,6.883-5.71206,5.363-7.51535,13.22518-8.20459,20.737-1.78583,19.46315-1.35344,39.35116-1.94571,58.88665-.19516,6.437,9.805,6.43083,10,0Z"/><path class="cls-5" d="M210.848,141.19122a138.50449,138.50449,0,0,0,3.56647-23.28363"/><path class="cls-5" d="M213.25866,141.85582a153.85535,153.85535,0,0,0,3.65577-23.94823c.23625-3.21007-4.76486-3.195-5,0a145.23883,145.23883,0,0,1-3.47717,22.619c-.73518,3.12966,4.08468,4.46538,4.8214,1.32919Z"/><circle class="cls-6" cx="268.01661" cy="157.42359" r="36.08408"/></svg>