<svg id="Layer_1" data-name="Layer 1" xmlns="http://www.w3.org/2000/svg" viewBox="0 0 517 517"><defs><style>.cls-1{fill:#93278f;}.cls-2{fill:#fff;}.cls-3{fill:#603813;stroke:#603813;}.cls-3,.cls-5,.cls-6,.cls-7{stroke-miterlimit:10;stroke-width:7px;}.cls-4{fill:#6d6e70;}.cls-5,.cls-6{fill:none;}.cls-5{stroke:#6d6e70;}.cls-6{stroke:#3b2314;}.cls-7{fill:#006838;stroke:#006838;}</style></defs><title>avocado2</title><path class="cls-1" d="M258.45,516.49945c-142.5,0-258-115.5-258-258a257.961,257.961,0,0,1,75.6-182.4c100.8-100.8,264.1-100.8,364.9,0s100.8,264.1,0,364.9A256.49776,256.49776,0,0,1,258.45,516.49945Z"/><path class="cls-2" d="M129.959,227.002h10.44043c8.63965,0,14.624,6.02979,14.624,15.479,0,9.40478-5.84961,16.01953-14.66992,16.01953H129.959Zm2.43067,29.24854h7.60449c8.32422,0,12.419-5.84961,12.419-13.63428,0-6.92969-3.68946-13.36475-12.419-13.36475h-7.60449Z"/><path class="cls-2" d="M161.72949,247.521c.04492,5.80468,2.96973,9.40478,7.29,9.40478,4.22949,0,5.66992-2.38525,6.47949-4.23H177.794c-.94532,2.96973-3.33008,6.34424-8.86426,6.34424-6.83985,0-9.49512-5.89453-9.49512-11.60889,0-6.43506,3.19531-11.96972,9.76465-11.96972,6.92969,0,9.13476,5.98486,9.13476,10.21435,0,.63037,0,1.26026-.04492,1.84522Zm14.26465-1.98c-.04492-4.45459-2.47559-7.96485-6.88476-7.96485-4.63477,0-6.75,3.24024-7.24512,7.96485Z"/><path class="cls-2" d="M184.99414,258.50049V238.11621H181.124v-2.11475h3.87012v-3.19482c0-3.77978,1.08008-7.91992,6.11914-7.91992a8.42368,8.42368,0,0,1,2.20508.31494v2.16016a11.1574,11.1574,0,0,0-2.42969-.27c-2.65527,0-3.64453,1.89013-3.64453,5.80468v3.105h4.9043v2.11475h-4.9043v20.38428Z"/><path class="cls-2" d="M213.92773,247.20605c0,6.2544-3.46484,11.834-10.16992,11.834-6.07422,0-9.85449-4.99414-9.85449-11.78906,0-6.43457,3.55469-11.78955,10.08008-11.78955C209.96777,235.46143,213.92773,240.14111,213.92773,247.20605Zm-17.63964.04493c0,5.355,2.87988,9.6748,7.64941,9.6748,4.86035,0,7.60547-4.00488,7.60547-9.6748,0-5.31006-2.7002-9.67481-7.69531-9.67481C198.71777,237.57617,196.28809,241.85107,196.28809,247.251Z"/><path class="cls-2" d="M219.50781,242.12109c0-3.77978-.04492-5.3999-.04492-6.11963H221.668c.04492.71973.08984,2.15967.08984,5.03956a8.52394,8.52394,0,0,1,7.83008-5.57959v2.42968c-4.67969.31543-7.83008,3.55518-7.83008,8.90967v11.69971h-2.25Z"/><path class="cls-2" d="M234.22266,247.521c.04492,5.80468,2.96972,9.40478,7.29,9.40478,4.22949,0,5.66992-2.38525,6.47949-4.23h2.29492c-.94531,2.96973-3.33008,6.34424-8.86426,6.34424-6.83984,0-9.49512-5.89453-9.49512-11.60889,0-6.43506,3.19532-11.96972,9.76465-11.96972,6.92969,0,9.13477,5.98486,9.13477,10.21435,0,.63037,0,1.26026-.04492,1.84522Zm14.26464-1.98c-.04492-4.45459-2.47558-7.96485-6.88476-7.96485-4.63477,0-6.75,3.24024-7.24512,7.96485Z"/><path class="cls-2" d="M256.85742,252.29053c.76465,2.92529,2.835,4.68017,6.38965,4.68017,4.00488,0,5.625-1.84521,5.625-4.36474,0-2.56494-1.08008-3.8252-6.12012-5.04-5.80468-1.395-7.24511-3.1499-7.24511-6.11963,0-3.105,2.33984-5.98486,7.4248-5.98486s7.51465,3.105,7.875,6.2998h-2.25c-.40527-1.89014-1.88965-4.23-5.71484-4.23-3.915,0-5.04,1.93506-5.04,3.73486,0,2.06983,1.08008,3.105,5.53515,4.18506,6.34473,1.52979,7.91993,3.59961,7.91993,6.97461,0,4.09473-3.33008,6.61426-8.05469,6.61426-5.12988,0-8.00977-2.69971-8.63965-6.74951Z"/><path class="cls-2" d="M273.32715,236.00146h4.18457v-7.01953h2.25v7.01953h5.35449v2.11475h-5.35449v14.62451c0,2.52.54,3.96,2.70019,3.96a8.50574,8.50574,0,0,0,2.33985-.27v1.98a7.90406,7.90406,0,0,1-2.79.40479c-2.87988,0-4.5-1.43994-4.5-5.03955V238.11621h-4.18457Z"/><path class="cls-2" d="M305.14063,254.22559a25.75894,25.75894,0,0,0,.31445,4.2749H303.2959a14.73038,14.73038,0,0,1-.40527-3.46485c-.76465,1.665-2.74512,4.0044-7.37989,4.0044-5.21972,0-7.46972-3.37451-7.46972-6.74951,0-4.94971,3.82519-7.19971,10.57519-7.19971h4.27442V242.7959c0-2.24951-.67481-5.26465-5.80469-5.26465-4.54492,0-5.21973,2.38477-5.71485,4.23h-2.25c.27051-2.4751,1.79981-6.2998,8.00977-6.2998,5.12988,0,8.00977,2.16015,8.00977,7.10986Zm-2.20508-7.19971h-4.41016c-4.99414,0-8.09961,1.30517-8.09961,5.1748,0,2.835,2.02539,4.77,5.17481,4.77,6.43554,0,7.335-4.2749,7.335-9.13476Z"/><path class="cls-2" d="M308.9668,236.00146h4.18457v-7.01953h2.25v7.01953h5.35449v2.11475h-5.35449v14.62451c0,2.52.54,3.96,2.70019,3.96a8.50574,8.50574,0,0,0,2.33985-.27v1.98a7.90406,7.90406,0,0,1-2.79.40479c-2.87989,0-4.5-1.43994-4.5-5.03955V238.11621H308.9668Z"/><path class="cls-2" d="M325.3457,225.33691h2.25v4.36475h-2.25Zm0,10.66455h2.25v22.499h-2.25Z"/><path class="cls-2" d="M353.2002,247.20605c0,6.2544-3.46485,11.834-10.16993,11.834-6.07422,0-9.85449-4.99414-9.85449-11.78906,0-6.43457,3.55469-11.78955,10.08008-11.78955C349.24023,235.46143,353.2002,240.14111,353.2002,247.20605Zm-17.63965.04493c0,5.355,2.87988,9.6748,7.64941,9.6748,4.86035,0,7.60547-4.00488,7.60547-9.6748,0-5.31006-2.7002-9.67481-7.69531-9.67481C337.99023,237.57617,335.56055,241.85107,335.56055,247.251Z"/><path class="cls-2" d="M358.78027,241.67139c0-1.98,0-3.87012-.04492-5.66993h2.20508c.08984.71973.13477,3.645.08984,4.27491.99024-2.29492,2.835-4.81494,7.46973-4.81494,4.00488,0,7.55957,2.25,7.55957,8.45947v14.57959h-2.25V244.28125c0-4.00488-1.665-6.61475-5.5791-6.61475-5.35547,0-7.2002,4.45459-7.2002,9.35938v11.47461h-2.25Z"/><path class="cls-2" d="M152.48145,301.20605c0,6.25391-3.46485,11.834-10.16895,11.834-6.0752,0-9.85449-4.99414-9.85449-11.78906,0-6.43457,3.55469-11.79,10.0791-11.79C148.52148,289.46094,152.48145,294.14063,152.48145,301.20605Zm-17.63868.04493c0,5.35449,2.87989,9.6748,7.64942,9.6748,4.85937,0,7.60449-4.00488,7.60449-9.6748,0-5.31055-2.7002-9.67481-7.69434-9.67481C137.27246,291.57617,134.84277,295.85059,134.84277,301.251Z"/><path class="cls-2" d="M159.00684,312.5V292.11621h-3.87012V290.001h3.87012v-3.19434c0-3.78027,1.08007-7.91992,6.12011-7.91992a8.42415,8.42415,0,0,1,2.20508.31445v2.16016a11.19566,11.19566,0,0,0-2.43066-.26953c-2.6543,0-3.64453,1.88965-3.64453,5.80468v3.1045h4.90527v2.11523h-4.90527V312.5Z"/><path class="cls-2" d="M181.416,296.12109c0-3.78027-.04493-5.40039-.04493-6.12011h2.20508c.04492.71972.08985,2.16015.08985,5.04a8.5244,8.5244,0,0,1,7.83007-5.58008v2.42969c-4.67968.31542-7.83007,3.55566-7.83007,8.91015V312.5h-2.25Z"/><path class="cls-2" d="M210.665,308.22559a25.72557,25.72557,0,0,0,.31543,4.27441h-2.16016a14.80424,14.80424,0,0,1-.40429-3.46484c-.76563,1.665-2.74512,4.00488-7.37989,4.00488-5.21972,0-7.46972-3.375-7.46972-6.75,0-4.94922,3.82422-7.19922,10.57422-7.19922H208.416V296.7959c0-2.25-.67579-5.26465-5.80567-5.26465-4.54394,0-5.21972,2.38477-5.71387,4.22949h-2.25c.26954-2.47461,1.79981-6.2998,8.00977-6.2998,5.12891,0,8.00879,2.16015,8.00879,7.11035Zm-2.2041-7.2002h-4.41016c-4.99512,0-8.09961,1.30566-8.09961,5.17481,0,2.835,2.02442,4.7705,5.17481,4.7705,6.43457,0,7.335-4.27539,7.335-9.13476Z"/><path class="cls-2" d="M218.09082,279.33691h2.25v4.36426h-2.25Zm0,10.66407h2.25V312.5h-2.25Z"/><path class="cls-2" d="M227.7207,295.6709c0-1.97949,0-3.87012-.04492-5.66992h2.2041c.09082.71972.13575,3.6455.09082,4.27539.98926-2.29492,2.834-4.81543,7.46973-4.81543,4.00391,0,7.55957,2.25,7.55957,8.46V312.5h-2.25V298.28125c0-4.00488-1.665-6.61523-5.58008-6.61523-5.35449,0-7.19922,4.45507-7.19922,9.35937V312.5h-2.25Z"/><path class="cls-2" d="M252.96484,312.5V292.11621h-3.87011V290.001h3.87011v-3.19434c0-3.78027,1.08008-7.91992,6.11914-7.91992a8.42415,8.42415,0,0,1,2.20508.31445v2.16016a11.18682,11.18682,0,0,0-2.42968-.26953c-2.65528,0-3.64454,1.88965-3.64454,5.80468v3.1045h4.9043v2.11523h-4.9043V312.5Z"/><path class="cls-2" d="M281.89844,301.20605c0,6.25391-3.46485,11.834-10.16895,11.834-6.07519,0-9.85449-4.99414-9.85449-11.78906,0-6.43457,3.55469-11.79,10.0791-11.79C277.93848,289.46094,281.89844,294.14063,281.89844,301.20605Zm-17.63867.04493c0,5.35449,2.87988,9.6748,7.64941,9.6748,4.85937,0,7.60449-4.00488,7.60449-9.6748,0-5.31055-2.70019-9.67481-7.69433-9.67481C266.68945,291.57617,264.25977,295.85059,264.25977,301.251Z"/><path class="cls-2" d="M287.47949,296.12109c0-3.78027-.04492-5.40039-.04492-6.12011h2.2041c.04492.71972.09082,2.16015.09082,5.04a8.52413,8.52413,0,0,1,7.8291-5.58008v2.42969c-4.67968.31542-7.8291,3.55566-7.8291,8.91015V312.5h-2.25Z"/><path class="cls-2" d="M302.19434,301.52051c.04492,5.80469,2.96972,9.40527,7.28906,9.40527,4.23047,0,5.66992-2.38574,6.47949-4.23047h2.29492c-.94433,2.96973-3.3291,6.34473-8.86426,6.34473-6.83984,0-9.49414-5.89453-9.49414-11.60938,0-6.43457,3.19434-11.96972,9.76368-11.96972,6.93066,0,9.13476,5.98535,9.13476,10.21484,0,.62988,0,1.25977-.04492,1.84473ZM316.458,299.541c-.04492-4.45508-2.47461-7.96485-6.88477-7.96485-4.63476,0-6.749,3.24024-7.24414,7.96485Z"/><path class="cls-2" d="M324.82813,306.29c.76464,2.92578,2.835,4.68066,6.38964,4.68066,4.00489,0,5.625-1.8457,5.625-4.36523,0-2.56445-1.08007-3.8252-6.12011-5.04-5.80469-1.39453-7.24414-3.14941-7.24414-6.11914,0-3.10547,2.33984-5.98535,7.4248-5.98535s7.51465,3.10547,7.874,6.2998h-2.25c-.40429-1.88965-1.88964-4.22949-5.71386-4.22949-3.915,0-5.04,1.93457-5.04,3.73438,0,2.07031,1.08008,3.10546,5.53418,4.18554,6.34472,1.5293,7.91992,3.59961,7.91992,6.97461,0,4.09473-3.33008,6.61426-8.05469,6.61426-5.12988,0-8.00976-2.7002-8.63965-6.75Z"/><path class="cls-2" d="M341.29785,290.001h4.18555v-7.01953h2.249V290.001h5.35547v2.11523h-5.35547v14.624c0,2.52051.54,3.96,2.7002,3.96a8.51937,8.51937,0,0,0,2.33984-.26954v1.9795a7.88964,7.88964,0,0,1-2.79.40527c-2.87988,0-4.499-1.44043-4.499-5.04V292.11621h-4.18555Z"/><path class="cls-2" d="M358.44238,306.29c.76465,2.92578,2.835,4.68066,6.38965,4.68066,4.00488,0,5.625-1.8457,5.625-4.36523,0-2.56445-1.08008-3.8252-6.12012-5.04-5.80468-1.39453-7.24414-3.14941-7.24414-6.11914,0-3.10547,2.33985-5.98535,7.42481-5.98535s7.51465,3.10547,7.874,6.2998h-2.25c-.4043-1.88965-1.88965-4.22949-5.71387-4.22949-3.915,0-5.04,1.93457-5.04,3.73438,0,2.07031,1.08007,3.10546,5.53418,4.18554,6.34472,1.5293,7.91992,3.59961,7.91992,6.97461,0,4.09473-3.33008,6.61426-8.05469,6.61426-5.12988,0-8.00977-2.7002-8.63965-6.75Z"/><path class="cls-2" d="M121.65625,344.001h4.18457v-7.01953h2.25V344.001h5.35449v2.11523h-5.35449v14.624c0,2.52051.54,3.96,2.7002,3.96a8.52355,8.52355,0,0,0,2.33984-.26954v1.9795a7.893,7.893,0,0,1-2.79.40527c-2.87988,0-4.5-1.44043-4.5-5.04V346.11621h-4.18457Z"/><path class="cls-2" d="M155.98926,355.20605c0,6.25391-3.46485,11.834-10.16895,11.834-6.07519,0-9.85449-4.99414-9.85449-11.78906,0-6.43457,3.55469-11.79,10.0791-11.79C152.0293,343.46094,155.98926,348.14063,155.98926,355.20605Zm-17.63867.04493c0,5.35449,2.87988,9.6748,7.64941,9.6748,4.85938,0,7.60449-4.00488,7.60449-9.6748,0-5.31055-2.70019-9.67481-7.69433-9.67481C140.78027,345.57617,138.35059,349.85059,138.35059,355.251Z"/><path class="cls-2" d="M173.26953,349.80566c0-1.93457,0-4.0498-.04492-5.80468h2.20508c.04492.76562.13476,2.70019.08984,4.00488a7.03738,7.03738,0,0,1,6.75-4.54492c3.14942,0,5.625,1.57519,6.52442,4.45508a7.65716,7.65716,0,0,1,7.335-4.45508c3.46484,0,7.06445,1.98047,7.06445,8.23535V366.5h-2.25V351.96582c0-3.01465-1.08008-6.2998-5.26465-6.2998-4.36523,0-6.34473,3.50976-6.34473,7.875V366.5h-2.20507V352.01074c0-3.28515-.99024-6.34472-5.12989-6.34472-4.36425,0-6.47949,3.87011-6.47949,8.46V366.5h-2.25Z"/><path class="cls-2" d="M225.73926,362.22559a25.7578,25.7578,0,0,0,.31445,4.27441h-2.15918a14.72664,14.72664,0,0,1-.40527-3.46484c-.76465,1.665-2.74512,4.00488-7.37988,4.00488-5.21973,0-7.46973-3.375-7.46973-6.75,0-4.94922,3.82519-7.19922,10.57519-7.19922h4.27442V350.7959c0-2.25-.67481-5.26465-5.80469-5.26465-4.54492,0-5.21973,2.38477-5.71484,4.22949h-2.25c.2705-2.47461,1.7998-6.2998,8.00976-6.2998,5.12989,0,8.00977,2.16015,8.00977,7.11035Zm-2.20508-7.2002H219.124c-4.99414,0-8.09961,1.30566-8.09961,5.17481,0,2.835,2.02539,4.7705,5.17481,4.7705,6.43555,0,7.335-4.27539,7.335-9.13476Z"/><path class="cls-2" d="M235.415,355.61035c2.06934-2.2041,8.36914-8.59472,11.38379-11.60937h2.87988l-8.90918,8.95507L250.80371,366.5h-2.79l-8.86426-12.10449-3.73437,3.59961V366.5h-2.25V333.33691h2.25Z"/><path class="cls-2" d="M254.4502,355.52051c.04492,5.80469,2.96972,9.40527,7.28906,9.40527,4.23047,0,5.66992-2.38574,6.47949-4.23047h2.29492c-.94433,2.96973-3.3291,6.34473-8.86426,6.34473-6.83984,0-9.49414-5.89453-9.49414-11.60938,0-6.43457,3.19434-11.96972,9.76368-11.96972,6.93066,0,9.13476,5.98535,9.13476,10.21484,0,.62988,0,1.25977-.04492,1.84473Zm14.26367-1.97949c-.04492-4.45508-2.47461-7.96485-6.88477-7.96485-4.63476,0-6.749,3.24024-7.24414,7.96485Z"/><path class="cls-2" d="M288.24414,350.12109c0-3.78027-.04492-5.40039-.04492-6.12011h2.20508c.04492.71972.08984,2.16015.08984,5.04a8.52441,8.52441,0,0,1,7.83008-5.58008v2.42969c-4.67969.31542-7.83008,3.55566-7.83008,8.91015V366.5h-2.25Z"/><path class="cls-2" d="M320.68848,355.20605c0,6.25391-3.46485,11.834-10.16993,11.834-6.07421,0-9.85449-4.99414-9.85449-11.78906,0-6.43457,3.55469-11.79,10.08008-11.79C316.72852,343.46094,320.68848,348.14063,320.68848,355.20605Zm-17.63965.04493c0,5.35449,2.87988,9.6748,7.64941,9.6748,4.86035,0,7.60547-4.00488,7.60547-9.6748,0-5.31055-2.70019-9.67481-7.69531-9.67481C305.47852,345.57617,303.04883,349.85059,303.04883,355.251Z"/><path class="cls-2" d="M344.7627,355.20605c0,6.25391-3.46485,11.834-10.16895,11.834-6.0752,0-9.85449-4.99414-9.85449-11.78906,0-6.43457,3.55469-11.79,10.0791-11.79C340.80273,343.46094,344.7627,348.14063,344.7627,355.20605ZM327.124,355.251c0,5.35449,2.87989,9.6748,7.64942,9.6748,4.85937,0,7.60449-4.00488,7.60449-9.6748,0-5.31055-2.7002-9.67481-7.69434-9.67481C329.55371,345.57617,327.124,349.85059,327.124,355.251Z"/><path class="cls-2" d="M350.34375,349.80566c0-1.93457,0-4.0498-.04492-5.80468h2.2041c.04492.76562.13574,2.70019.09082,4.00488a7.036,7.036,0,0,1,6.749-4.54492c3.15039,0,5.625,1.57519,6.52539,4.45508a7.65569,7.65569,0,0,1,7.334-4.45508c3.46484,0,7.06543,1.98047,7.06543,8.23535V366.5h-2.25V351.96582c0-3.01465-1.08008-6.2998-5.26465-6.2998-4.36523,0-6.34473,3.50976-6.34473,7.875V366.5h-2.20507V352.01074c0-3.28515-.99024-6.34472-5.12989-6.34472-4.36523,0-6.47949,3.87011-6.47949,8.46V366.5h-2.25Z"/><path class="cls-2" d="M99.69727,420.5V400.11621H95.82715V398.001h3.87012v-3.19434c0-3.78027,1.08007-7.91992,6.12011-7.91992a8.42415,8.42415,0,0,1,2.20508.31445v2.16016a11.19566,11.19566,0,0,0-2.43066-.26953c-2.6543,0-3.64453,1.88965-3.64453,5.80468v3.1045h4.90527v2.11523h-4.90527V420.5Z"/><path class="cls-2" d="M128.63086,409.20605c0,6.25391-3.46484,11.834-10.169,11.834-6.07519,0-9.85449-4.99414-9.85449-11.78906,0-6.43457,3.55469-11.79,10.0791-11.79C124.6709,397.46094,128.63086,402.14063,128.63086,409.20605Zm-17.63867.04493c0,5.35449,2.87988,9.6748,7.64941,9.6748,4.85938,0,7.60449-4.00488,7.60449-9.6748,0-5.31055-2.70019-9.67481-7.69433-9.67481C113.42188,399.57617,110.99219,403.85059,110.99219,409.251Z"/><path class="cls-2" d="M134.21191,404.12109c0-3.78027-.04492-5.40039-.04492-6.12011h2.2041c.04493.71972.09082,2.16015.09082,5.04a8.52413,8.52413,0,0,1,7.82911-5.58008v2.42969c-4.67969.31542-7.82911,3.55566-7.82911,8.91015V420.5h-2.25Z"/><path class="cls-2" d="M175.9248,416.22559a25.7267,25.7267,0,0,0,.31543,4.27441h-2.16015a14.804,14.804,0,0,1-.4043-3.46484c-.76562,1.665-2.74512,4.00488-7.37988,4.00488-5.21973,0-7.46973-3.375-7.46973-6.75,0-4.94922,3.82422-7.19922,10.57422-7.19922h4.27539V404.7959c0-2.25-.67578-5.26465-5.80566-5.26465-4.54395,0-5.21973,2.38477-5.71387,4.22949h-2.25c.26953-2.47461,1.7998-6.2998,8.00977-6.2998,5.1289,0,8.00878,2.16015,8.00878,7.11035Zm-2.2041-7.2002h-4.41015c-4.99512,0-8.09961,1.30566-8.09961,5.17481,0,2.835,2.02441,4.7705,5.1748,4.7705,6.43457,0,7.335-4.27539,7.335-9.13476Z"/><path class="cls-2" d="M182.13672,398.001c3.64453,10.30468,6.16406,17.32422,7.01953,20.2041h.04492c.49512-1.665,3.01465-8.36914,7.37988-20.2041h2.38477L190.46094,420.5h-2.7002L179.751,398.001Z"/><path class="cls-2" d="M221.60059,409.20605c0,6.25391-3.46485,11.834-10.16993,11.834-6.07421,0-9.85449-4.99414-9.85449-11.78906,0-6.43457,3.55469-11.79,10.08008-11.79C217.64063,397.46094,221.60059,402.14063,221.60059,409.20605Zm-17.63965.04493c0,5.35449,2.87988,9.6748,7.64941,9.6748,4.86035,0,7.60547-4.00488,7.60547-9.6748,0-5.31055-2.70019-9.67481-7.69531-9.67481C206.39063,399.57617,203.96094,403.85059,203.96094,409.251Z"/><path class="cls-2" d="M244.00977,413.88574c-1.07911,3.96-3.68946,7.1543-8.7295,7.1543-5.625,0-9.6289-4.18457-9.6289-11.69922,0-6.165,3.28418-11.87988,9.89941-11.87988a8.04351,8.04351,0,0,1,8.459,7.20019h-2.29493c-.6748-2.61035-2.38476-5.085-6.209-5.085-4.77051,0-7.46973,4.04981-7.46973,9.67481,0,5.35449,2.51953,9.6748,7.24414,9.6748,3.28516,0,5.26465-1.665,6.43457-5.04Z"/><path class="cls-2" d="M264.84473,416.22559a25.75668,25.75668,0,0,0,.31445,4.27441H263a14.72664,14.72664,0,0,1-.40527-3.46484c-.76465,1.665-2.74512,4.00488-7.37989,4.00488-5.21972,0-7.46972-3.375-7.46972-6.75,0-4.94922,3.82519-7.19922,10.57519-7.19922h4.27442V404.7959c0-2.25-.67481-5.26465-5.80469-5.26465-4.54492,0-5.21973,2.38477-5.71484,4.22949h-2.25c.2705-2.47461,1.7998-6.2998,8.00976-6.2998,5.12988,0,8.00977,2.16015,8.00977,7.11035Zm-2.20508-7.2002h-4.41016c-4.99414,0-8.09961,1.30566-8.09961,5.17481,0,2.835,2.02539,4.7705,5.17481,4.7705,6.43554,0,7.335-4.27539,7.335-9.13476Z"/><path class="cls-2" d="M289.63965,387.33691v26.6836c0,2.16015,0,4.22949.04492,6.47949h-2.16016c-.08984-.54-.13476-2.6543-.13476-3.7793-1.125,2.74414-3.64453,4.31934-7.55957,4.31934-5.84961,0-9.35938-4.76953-9.35938-11.51953,0-6.92969,3.82422-12.05957,9.94434-12.05957,4.5,0,6.2998,1.93554,6.97461,3.375v-13.499Zm-16.78418,22.09375c0,6.165,3.19433,9.49512,7.06445,9.49512,5.93946,0,7.55957-4.0957,7.55957-10.21484,0-5.80469-1.39453-9.13477-7.15429-9.13477C275.87012,399.57617,272.85547,403.13086,272.85547,409.43066Z"/><path class="cls-2" d="M315.24414,409.20605c0,6.25391-3.46484,11.834-10.16992,11.834-6.07422,0-9.85449-4.99414-9.85449-11.78906,0-6.43457,3.55468-11.79,10.08007-11.79C311.28418,397.46094,315.24414,402.14063,315.24414,409.20605Zm-17.63965.04493c0,5.35449,2.87989,9.6748,7.64942,9.6748,4.86035,0,7.60547-4.00488,7.60547-9.6748,0-5.31055-2.7002-9.67481-7.69532-9.67481C300.03418,399.57617,297.60449,403.85059,297.60449,409.251Z"/><path class="cls-2" d="M329.14941,398.001H333.334v-7.01953h2.25V398.001h5.3545v2.11523H335.584v14.624c0,2.52051.54,3.96,2.7002,3.96a8.52355,8.52355,0,0,0,2.33984-.26954v1.9795a7.893,7.893,0,0,1-2.79.40527c-2.87988,0-4.5-1.44043-4.5-5.04V400.11621h-4.18457Z"/><path class="cls-2" d="M345.124,404.12109c0-3.78027-.04492-5.40039-.04492-6.12011h2.2041c.04493.71972.09082,2.16015.09082,5.04a8.52413,8.52413,0,0,1,7.82911-5.58008v2.42969c-4.67969.31542-7.82911,3.55566-7.82911,8.91015V420.5h-2.25Z"/><path class="cls-2" d="M359.83887,409.52051c.04492,5.80469,2.96972,9.40527,7.28906,9.40527,4.23047,0,5.66992-2.38574,6.47949-4.23047h2.29492c-.94433,2.96973-3.3291,6.34473-8.86425,6.34473-6.83985,0-9.49414-5.89453-9.49414-11.60938,0-6.43457,3.19433-11.96972,9.76367-11.96972,6.93066,0,9.13476,5.98535,9.13476,10.21484,0,.62988,0,1.25977-.04492,1.84473Zm14.26367-1.97949c-.04492-4.45508-2.47461-7.96485-6.88477-7.96485-4.63476,0-6.749,3.24024-7.24414,7.96485Z"/><path class="cls-2" d="M382.65332,409.52051c.04492,5.80469,2.96973,9.40527,7.28906,9.40527,4.23047,0,5.66992-2.38574,6.4795-4.23047h2.29492c-.94434,2.96973-3.3291,6.34473-8.86426,6.34473-6.83984,0-9.49414-5.89453-9.49414-11.60938,0-6.43457,3.19433-11.96972,9.76367-11.96972,6.93066,0,9.13477,5.98535,9.13477,10.21484,0,.62988,0,1.25977-.04493,1.84473ZM396.917,407.541c-.04492-4.45508-2.47461-7.96485-6.88476-7.96485-4.63477,0-6.749,3.24024-7.24414,7.96485Z"/><path class="cls-2" d="M405.28809,414.29c.76464,2.92578,2.835,4.68066,6.38964,4.68066,4.00489,0,5.625-1.8457,5.625-4.36523,0-2.56445-1.08007-3.8252-6.12011-5.04-5.80469-1.39453-7.24512-3.14941-7.24512-6.11914,0-3.10547,2.33984-5.98535,7.4248-5.98535s7.51465,3.10547,7.875,6.2998h-2.25c-.40527-1.88965-1.88964-4.22949-5.71484-4.22949-3.915,0-5.04,1.93457-5.04,3.73438,0,2.07031,1.08008,3.10546,5.53516,4.18554,6.34472,1.5293,7.91992,3.59961,7.91992,6.97461,0,4.09473-3.33008,6.61426-8.05469,6.61426-5.12988,0-8.00976-2.7002-8.63965-6.75Z"/><rect class="cls-3" x="243.0613" y="113.66888" width="22.3821" height="7.18481" transform="translate(272.01982 -162.16452) rotate(68.87912)"/><polyline class="cls-4" points="283.431 128.844 288.05 133.669 289.026 127.06 293.646 131.885 294.625 125.276 299.246 130.1 300.222 123.492 304.844 128.316 305.822 121.707 310.443 126.531 311.42 119.922 316.043 124.746 317.02 118.137 321.643 122.961 322.621 116.352 327.242 121.177 328.218 114.568 332.836 119.394 333.812 112.785 338.435 117.609 339.411 111 344.034 115.824 345.012 109.215 349.636 114.039 350.615 107.429 355.239 112.253 356.22 105.643 360.845 110.466 361.823 103.857 366.448 108.68 367.43 102.07 372.056 106.892 373.043 100.281 377.674 105.102"/><polyline class="cls-5" points="283.431 128.844 288.05 133.669 289.026 127.06 293.646 131.885 294.625 125.276 299.246 130.1 300.222 123.492 304.844 128.316 305.822 121.707 310.443 126.531 311.42 119.922 316.043 124.746 317.02 118.137 321.643 122.961 322.621 116.352 327.242 121.177 328.218 114.568 332.836 119.394 333.812 112.785 338.435 117.609 339.411 111 344.034 115.824 345.012 109.215 349.636 114.039 350.615 107.429 355.239 112.253 356.22 105.643 360.845 110.466 361.823 103.857 366.448 108.68 367.43 102.07 372.056 106.892 373.043 100.281 377.674 105.102"/><polygon class="cls-4" points="285.712 129.349 279.208 113.054 369.063 84.779 377.432 104.183 285.712 129.349"/><polygon class="cls-6" points="369.798 81.948 379.559 110.297 389.484 105.643 382.462 79.087 369.798 81.948"/><polygon class="cls-1" points="289.543 138.721 278.186 103.297 269.352 106.182 278.816 134.304 289.543 138.721"/><polygon class="cls-7" points="98.931 185.442 265.159 163.581 225.873 70.064 98.931 185.442"/><rect class="cls-3" x="277.2557" y="141.48148" width="22.3821" height="43.96047"/></svg>