<svg id="Layer_1" data-name="Layer 1" xmlns="http://www.w3.org/2000/svg" viewBox="0 0 517 517"><defs><style>.cls-1{fill:#2e3192;}.cls-2{fill:#342300;}.cls-3{fill:#fff;}</style></defs><title>avocado3</title><path class="cls-1" d="M258.45,516.49945c-142.5,0-258-115.5-258-258a257.961,257.961,0,0,1,75.6-182.4c100.8-100.8,264.1-100.8,364.9,0s100.8,264.1,0,364.9A256.49776,256.49776,0,0,1,258.45,516.49945Z"/><path class="cls-2" d="M254.40667,39.14989c-22.71893,28.69339-46.371,59.62994-49.70131,96.07674-.68717,7.52045-.43222,15.31928,2.45754,22.29629,3.66564,8.85026,11.166,15.49376,18.83368,21.2358,8.4715,6.344,17.72878,12.11454,28.11172,14.16567,19.03943,3.76121,39.39007-6.44236,49.83185-22.80133a56.16591,56.16591,0,0,0,7.20274-42.70016c-2.65079-11.12646-8.64678-21.11949-14.55857-30.91109L283.9627,75.60686C276.213,62.77111,268.32881,49.7661,257.44927,39.44862"/><path class="cls-3" d="M156.98047,258.50049h-2.02539a23.693,23.693,0,0,1-.31445-5.04c-1.125,2.16016-3.60059,5.3999-10.16993,5.3999-9.04492,0-13.67968-6.88476-13.67968-15.83935,0-9.4043,4.95019-16.46924,14.1748-16.46924,6.79492,0,11.29395,3.55469,12.28418,9.35986h-2.42969c-1.35058-4.45508-4.45508-7.10986-9.94433-7.10986-7.875,0-11.47461,6.11963-11.47461,14.08447,0,7.19971,3.46484,13.72412,11.15918,13.72412,7.875,0,10.08008-5.12939,10.08008-12.10449V244.146H144.4707v-2.25h12.50977Z"/><path class="cls-3" d="M164.31641,242.12109c0-3.77978-.04493-5.3999-.04493-6.11963h2.20411c.04492.71973.09082,2.15967.09082,5.03956a8.52365,8.52365,0,0,1,7.8291-5.57959v2.42968c-4.67969.31543-7.8291,3.55518-7.8291,8.90967v11.69971h-2.25Z"/><path class="cls-3" d="M196.75977,247.20605c0,6.2544-3.46485,11.834-10.16895,11.834-6.07519,0-9.85449-4.99414-9.85449-11.78906,0-6.43457,3.55469-11.78955,10.0791-11.78955C192.7998,235.46143,196.75977,240.14111,196.75977,247.20605Zm-17.63868.04493c0,5.355,2.87989,9.6748,7.64942,9.6748,4.85937,0,7.60449-4.00488,7.60449-9.6748,0-5.31006-2.7002-9.67481-7.69434-9.67481C181.55078,237.57617,179.12109,241.85107,179.12109,247.251Z"/><path class="cls-3" d="M219.169,251.93066c0,2.20508.04492,5.71485.04492,6.56983h-2.15918a36.13774,36.13774,0,0,1-.13574-3.915c-.94434,2.65527-3.23926,4.45459-7.24415,4.45459-3.24023,0-7.37988-1.25928-7.37988-8.144V236.00146H204.5V250.356c0,3.28467,1.03516,6.47949,5.48926,6.47949,5.04,0,6.92969-2.835,6.92969-9.26953V236.00146h2.25Z"/><path class="cls-3" d="M226.5498,241.67139c0-1.98,0-3.87012-.04492-5.66993H228.71c.08984.71973.13477,3.645.08984,4.27491.99024-2.29492,2.835-4.81494,7.46973-4.81494,4.00488,0,7.55957,2.25,7.55957,8.45947v14.57959h-2.25V244.28125c0-4.00488-1.665-6.61475-5.5791-6.61475-5.35547,0-7.2002,4.45459-7.2002,9.35938v11.47461h-2.25Z"/><path class="cls-3" d="M268.5791,225.33691V252.021c0,2.15966,0,4.22949.04492,6.47949h-2.16015c-.08985-.54-.13477-2.65479-.13477-3.77979-1.125,2.74463-3.64453,4.31934-7.55957,4.31934-5.84961,0-9.35937-4.76953-9.35937-11.519,0-6.92969,3.82422-12.05957,9.94433-12.05957,4.5,0,6.29981,1.935,6.97461,3.375V225.33691Zm-16.78418,22.09424c0,6.16455,3.19434,9.49463,7.06446,9.49463,5.93945,0,7.55957-4.09521,7.55957-10.21484,0-5.80469-1.39454-9.13477-7.1543-9.13477C254.80957,237.57617,251.79492,241.13135,251.79492,247.43115Z"/><path class="cls-3" d="M275.55371,236.00146c3.33008,11.60938,5.26465,18.269,5.625,20.249h.04492c.36035-1.79981,2.61035-8.86475,6.12012-20.249h2.42969c4.18457,13.9043,5.44433,17.90918,5.84961,19.66407h.04492c.62988-2.47461,1.665-5.84961,5.80469-19.66407h2.38476l-7.10937,22.499h-2.47461c-2.42969-7.96485-5.35547-17.72949-5.80469-19.79932h-.04492c-.4502,2.20508-3.01563,10.25977-5.94043,19.79932h-2.69922l-6.61523-22.499Z"/><path class="cls-3" d="M323.61328,254.22559a25.76007,25.76007,0,0,0,.31445,4.2749h-2.15918a14.73153,14.73153,0,0,1-.40527-3.46485c-.76465,1.665-2.74512,4.0044-7.37988,4.0044-5.21973,0-7.46973-3.37451-7.46973-6.74951,0-4.94971,3.8252-7.19971,10.5752-7.19971h4.27441V242.7959c0-2.24951-.6748-5.26465-5.80469-5.26465-4.54492,0-5.21972,2.38477-5.71484,4.23h-2.25c.27051-2.4751,1.7998-6.2998,8.00977-6.2998,5.12988,0,8.00976,2.16015,8.00976,7.10986Zm-2.20508-7.19971h-4.41015c-4.99414,0-8.09961,1.30517-8.09961,5.1748,0,2.835,2.02539,4.77,5.1748,4.77,6.43555,0,7.335-4.2749,7.335-9.13476Z"/><path class="cls-3" d="M327.43945,236.00146H331.624v-7.01953h2.25v7.01953h5.3545v2.11475H333.874v14.62451c0,2.52.54,3.96,2.7002,3.96a8.50567,8.50567,0,0,0,2.33984-.27v1.98a7.904,7.904,0,0,1-2.79.40479c-2.87988,0-4.5-1.43994-4.5-5.03955V238.11621h-4.18457Z"/><path class="cls-3" d="M344.044,247.521c.04492,5.80468,2.96972,9.40478,7.29,9.40478,4.2295,0,5.66993-2.38525,6.4795-4.23h2.29492c-.94531,2.96973-3.33008,6.34424-8.86426,6.34424-6.83984,0-9.49512-5.89453-9.49512-11.60889,0-6.43506,3.19532-11.96972,9.76465-11.96972,6.92969,0,9.13477,5.98486,9.13477,10.21435,0,.63037,0,1.26026-.04492,1.84522Zm14.26464-1.98c-.04492-4.45459-2.47558-7.96485-6.88476-7.96485-4.63477,0-6.75,3.24024-7.24512,7.96485Z"/><path class="cls-3" d="M366.13867,242.12109c0-3.77978-.04492-5.3999-.04492-6.11963h2.20508c.04492.71973.08984,2.15967.08984,5.03956a8.52394,8.52394,0,0,1,7.83008-5.57959v2.42968c-4.67969.31543-7.83008,3.55518-7.83008,8.90967v11.69971h-2.25Z"/><path class="cls-3" d="M87.99707,305.88574c-1.0791,3.96-3.68945,7.1543-8.72949,7.1543-5.625,0-9.62891-4.18457-9.62891-11.69922,0-6.165,3.28418-11.87988,9.89942-11.87988a8.0435,8.0435,0,0,1,8.459,7.20019H85.70215c-.67481-2.61035-2.38477-5.085-6.209-5.085-4.7705,0-7.46972,4.04981-7.46972,9.67481,0,5.35449,2.51953,9.6748,7.24414,9.6748,3.28515,0,5.26465-1.665,6.43457-5.04Z"/><path class="cls-3" d="M111.667,301.20605c0,6.25391-3.46484,11.834-10.16992,11.834-6.07422,0-9.85449-4.99414-9.85449-11.78906,0-6.43457,3.55469-11.79,10.08008-11.79C107.707,289.46094,111.667,294.14063,111.667,301.20605Zm-17.63965.04493c0,5.35449,2.87989,9.6748,7.64942,9.6748,4.86035,0,7.60547-4.00488,7.60547-9.6748,0-5.31055-2.7002-9.67481-7.69532-9.67481C96.457,291.57617,94.02734,295.85059,94.02734,301.251Z"/><path class="cls-3" d="M117.24707,295.6709c0-1.97949,0-3.87012-.04492-5.66992h2.20508c.08984.71972.13476,3.6455.08984,4.27539.99023-2.29492,2.835-4.81543,7.46973-4.81543,4.00488,0,7.55957,2.25,7.55957,8.46V312.5h-2.25V298.28125c0-4.00488-1.665-6.61523-5.5791-6.61523-5.35547,0-7.2002,4.45507-7.2002,9.35937V312.5h-2.25Z"/><path class="cls-3" d="M138.39746,290.001H142.582v-7.01953h2.25V290.001h5.35449v2.11523H144.832v14.624c0,2.52051.54,3.96,2.7002,3.96a8.52355,8.52355,0,0,0,2.33984-.26954v1.9795a7.893,7.893,0,0,1-2.79.40527c-2.87988,0-4.5-1.44043-4.5-5.04V292.11621h-4.18457Z"/><path class="cls-3" d="M170.21094,308.22559a25.7578,25.7578,0,0,0,.31445,4.27441h-2.15918a14.72664,14.72664,0,0,1-.40527-3.46484c-.76465,1.665-2.74512,4.00488-7.37989,4.00488-5.21972,0-7.46972-3.375-7.46972-6.75,0-4.94922,3.82519-7.19922,10.57519-7.19922h4.27442V296.7959c0-2.25-.67481-5.26465-5.80469-5.26465-4.54492,0-5.21973,2.38477-5.71484,4.22949h-2.25c.2705-2.47461,1.7998-6.2998,8.00976-6.2998,5.12988,0,8.00977,2.16015,8.00977,7.11035Zm-2.20508-7.2002H163.5957c-4.99414,0-8.09961,1.30566-8.09961,5.17481,0,2.835,2.02539,4.7705,5.17481,4.7705,6.43555,0,7.335-4.27539,7.335-9.13476Z"/><path class="cls-3" d="M177.63574,295.80566c0-1.93457,0-4.0498-.04492-5.80468h2.20508c.04492.76562.13476,2.70019.08984,4.00488a7.03738,7.03738,0,0,1,6.75-4.54492c3.14942,0,5.625,1.57519,6.52442,4.45508a7.65716,7.65716,0,0,1,7.335-4.45508c3.46484,0,7.06445,1.98047,7.06445,8.23535V312.5h-2.25V297.96582c0-3.01465-1.08008-6.2998-5.26465-6.2998-4.36523,0-6.34472,3.50976-6.34472,7.875V312.5h-2.20508V298.01074c0-3.28515-.99024-6.34472-5.12989-6.34472-4.36425,0-6.47949,3.87011-6.47949,8.46V312.5h-2.25Z"/><path class="cls-3" d="M214.94141,279.33691h2.25v4.36426h-2.25Zm0,10.66407h2.25V312.5h-2.25Z"/><path class="cls-3" d="M224.57031,295.6709c0-1.97949,0-3.87012-.04492-5.66992h2.20508c.08984.71972.13476,3.6455.08984,4.27539.99024-2.29492,2.835-4.81543,7.46973-4.81543,4.00488,0,7.55957,2.25,7.55957,8.46V312.5h-2.25V298.28125c0-4.00488-1.665-6.61523-5.5791-6.61523-5.35547,0-7.2002,4.45507-7.2002,9.35937V312.5h-2.25Z"/><path class="cls-3" d="M264.39453,308.22559A25.7578,25.7578,0,0,0,264.709,312.5H262.5498a14.72721,14.72721,0,0,1-.40527-3.46484c-.76465,1.665-2.74512,4.00488-7.37988,4.00488-5.21973,0-7.46973-3.375-7.46973-6.75,0-4.94922,3.8252-7.19922,10.5752-7.19922h4.27441V296.7959c0-2.25-.6748-5.26465-5.80469-5.26465-4.54492,0-5.21972,2.38477-5.71484,4.22949h-2.25c.27051-2.47461,1.7998-6.2998,8.00977-6.2998,5.12988,0,8.00976,2.16015,8.00976,7.11035Zm-2.20508-7.2002H257.7793c-4.99414,0-8.09961,1.30566-8.09961,5.17481,0,2.835,2.02539,4.7705,5.1748,4.7705,6.43555,0,7.335-4.27539,7.335-9.13476Z"/><path class="cls-3" d="M268.2207,290.001h4.18457v-7.01953h2.25V290.001h5.3545v2.11523h-5.3545v14.624c0,2.52051.54,3.96,2.7002,3.96a8.52355,8.52355,0,0,0,2.33984-.26954v1.9795a7.893,7.893,0,0,1-2.79.40527c-2.87988,0-4.5-1.44043-4.5-5.04V292.11621H268.2207Z"/><path class="cls-3" d="M284.59961,279.33691h2.25v4.36426h-2.25Zm0,10.66407h2.25V312.5h-2.25Z"/><path class="cls-3" d="M312.45313,301.20605c0,6.25391-3.46485,11.834-10.16895,11.834-6.0752,0-9.85449-4.99414-9.85449-11.78906,0-6.43457,3.55469-11.79,10.0791-11.79C308.49316,289.46094,312.45313,294.14063,312.45313,301.20605Zm-17.63868.04493c0,5.35449,2.87989,9.6748,7.64942,9.6748,4.85937,0,7.60449-4.00488,7.60449-9.6748,0-5.31055-2.7002-9.67481-7.69434-9.67481C297.24414,291.57617,294.81445,295.85059,294.81445,301.251Z"/><path class="cls-3" d="M318.03418,295.6709c0-1.97949,0-3.87012-.04492-5.66992h2.2041c.09082.71972.13574,3.6455.09082,4.27539.98926-2.29492,2.834-4.81543,7.46973-4.81543,4.0039,0,7.55957,2.25,7.55957,8.46V312.5h-2.25V298.28125c0-4.00488-1.665-6.61523-5.58008-6.61523-5.35449,0-7.19922,4.45507-7.19922,9.35937V312.5h-2.25Z"/><path class="cls-3" d="M354.97852,312.5V292.11621H351.1084V290.001h3.87012v-3.19434c0-3.78027,1.08007-7.91992,6.11914-7.91992a8.42407,8.42407,0,0,1,2.20507.31445v2.16016a11.18682,11.18682,0,0,0-2.42968-.26953c-2.65528,0-3.64453,1.88965-3.64453,5.80468v3.1045h4.90429v2.11523h-4.90429V312.5Z"/><path class="cls-3" d="M365.91211,296.12109c0-3.78027-.04492-5.40039-.04492-6.12011h2.20508c.04492.71972.08984,2.16015.08984,5.04a8.52441,8.52441,0,0,1,7.83008-5.58008v2.42969c-4.67969.31542-7.83008,3.55566-7.83008,8.91015V312.5h-2.25Z"/><path class="cls-3" d="M398.35645,301.20605c0,6.25391-3.46485,11.834-10.16993,11.834-6.07422,0-9.85449-4.99414-9.85449-11.78906,0-6.43457,3.55469-11.79,10.08008-11.79C394.39648,289.46094,398.35645,294.14063,398.35645,301.20605Zm-17.63965.04493c0,5.35449,2.87988,9.6748,7.64941,9.6748,4.86035,0,7.60547-4.00488,7.60547-9.6748,0-5.31055-2.7002-9.67481-7.69531-9.67481C383.14648,291.57617,380.7168,295.85059,380.7168,301.251Z"/><path class="cls-3" d="M403.93652,295.80566c0-1.93457,0-4.0498-.04492-5.80468h2.20508c.04492.76562.13477,2.70019.08984,4.00488a7.03739,7.03739,0,0,1,6.75-4.54492c3.14942,0,5.625,1.57519,6.52442,4.45508a7.65716,7.65716,0,0,1,7.335-4.45508c3.46484,0,7.06445,1.98047,7.06445,8.23535V312.5h-2.25V297.96582c0-3.01465-1.08008-6.2998-5.26465-6.2998-4.36523,0-6.34472,3.50976-6.34472,7.875V312.5H417.7959V298.01074c0-3.28515-.99024-6.34472-5.12988-6.34472-4.36426,0-6.4795,3.87011-6.4795,8.46V312.5h-2.25Z"/><path class="cls-3" d="M47.14063,363.16992V375.5h-2.25V349.53613c0-1.84472,0-3.82519-.04493-5.53515h2.2041c.09083.85547.09083,2.20507.09083,4.0498a8.26526,8.26526,0,0,1,7.91894-4.58984c5.31055,0,9,4.45508,9,11.20508,0,8.09961-4.32031,12.374-9.76465,12.374C50.335,367.04,48.26563,365.28516,47.14063,363.16992Zm14.53417-8.41406c0-5.21973-2.5205-9.13477-6.9746-9.13477-5.44532,0-7.69532,3.41993-7.69532,9.54,0,6.0293,1.75489,9.76465,7.37989,9.76465C59.06445,364.92578,61.6748,360.96582,61.6748,354.75586Z"/><path class="cls-3" d="M70.4502,355.52051c.04492,5.80469,2.96972,9.40527,7.28906,9.40527,4.23047,0,5.66992-2.38574,6.47949-4.23047h2.29492c-.94433,2.96973-3.3291,6.34473-8.86426,6.34473-6.83984,0-9.49414-5.89453-9.49414-11.60938,0-6.43457,3.19434-11.96972,9.76368-11.96972,6.93066,0,9.13476,5.98535,9.13476,10.21484,0,.62988,0,1.25977-.04492,1.84473ZM84.71387,353.541c-.04492-4.45508-2.47461-7.96485-6.88477-7.96485-4.63476,0-6.749,3.24024-7.24414,7.96485Z"/><path class="cls-3" d="M93.085,360.29c.76465,2.92578,2.835,4.68066,6.38965,4.68066,4.00488,0,5.625-1.8457,5.625-4.36523,0-2.56445-1.08008-3.8252-6.12012-5.04-5.80469-1.39453-7.24511-3.14941-7.24511-6.11914,0-3.10547,2.33984-5.98535,7.4248-5.98535s7.51465,3.10547,7.875,6.2998h-2.25c-.40527-1.88965-1.88965-4.22949-5.71484-4.22949-3.915,0-5.04,1.93457-5.04,3.73438,0,2.07031,1.08008,3.10546,5.53515,4.18554,6.34473,1.5293,7.91993,3.59961,7.91993,6.97461,0,4.09473-3.33008,6.61426-8.05469,6.61426-5.12989,0-8.00977-2.7002-8.63965-6.75Z"/><path class="cls-3" d="M109.55469,344.001h4.18457v-7.01953h2.25V344.001h5.35449v2.11523h-5.35449v14.624c0,2.52051.54,3.96,2.70019,3.96a8.52362,8.52362,0,0,0,2.33985-.26954v1.9795a7.893,7.893,0,0,1-2.79.40527c-2.87988,0-4.5-1.44043-4.5-5.04V346.11621h-4.18457Z"/><path class="cls-3" d="M125.93359,333.33691h2.25v4.36426h-2.25Zm0,10.66407h2.25V366.5h-2.25Z"/><path class="cls-3" d="M152.12207,359.88574c-1.0791,3.96-3.68945,7.1543-8.72949,7.1543-5.625,0-9.62891-4.18457-9.62891-11.69922,0-6.165,3.28418-11.87988,9.89942-11.87988a8.0435,8.0435,0,0,1,8.459,7.20019h-2.29492c-.67481-2.61035-2.38477-5.085-6.209-5.085-4.7705,0-7.46972,4.04981-7.46972,9.67481,0,5.35449,2.51953,9.6748,7.24414,9.6748,3.28515,0,5.26465-1.665,6.43457-5.04Z"/><path class="cls-3" d="M157.92773,333.33691h2.25v4.36426h-2.25Zm0,10.66407h2.25V366.5h-2.25Z"/><path class="cls-3" d="M184.92578,333.33691v26.6836c0,2.16015,0,4.22949.04492,6.47949h-2.15918c-.09082-.54-.13574-2.6543-.13574-3.7793-1.125,2.74414-3.64453,4.31934-7.55957,4.31934-5.84961,0-9.35937-4.76953-9.35937-11.51953,0-6.92969,3.82519-12.05957,9.94433-12.05957,4.5,0,6.29981,1.93554,6.97461,3.375v-13.499ZM168.1416,355.43066c0,6.165,3.19531,9.49512,7.06445,9.49512,5.94043,0,7.56055-4.0957,7.56055-10.21484,0-5.80469-1.39551-9.13477-7.15527-9.13477C171.15625,345.57617,168.1416,349.13086,168.1416,355.43066Z"/><path class="cls-3" d="M192.80176,355.52051c.04492,5.80469,2.96972,9.40527,7.28906,9.40527,4.23047,0,5.66992-2.38574,6.47949-4.23047h2.29492c-.94433,2.96973-3.3291,6.34473-8.86425,6.34473-6.83985,0-9.49414-5.89453-9.49414-11.60938,0-6.43457,3.19433-11.96972,9.76367-11.96972,6.93066,0,9.13476,5.98535,9.13476,10.21484,0,.62988,0,1.25977-.04492,1.84473Zm14.26367-1.97949c-.04492-4.45508-2.47461-7.96485-6.88477-7.96485-4.63476,0-6.749,3.24024-7.24414,7.96485Z"/><path class="cls-3" d="M215.43555,360.29c.76465,2.92578,2.835,4.68066,6.38965,4.68066,4.00488,0,5.625-1.8457,5.625-4.36523,0-2.56445-1.08008-3.8252-6.12012-5.04-5.80469-1.39453-7.24414-3.14941-7.24414-6.11914,0-3.10547,2.33984-5.98535,7.4248-5.98535s7.51465,3.10547,7.874,6.2998h-2.25c-.4043-1.88965-1.88965-4.22949-5.71387-4.22949-3.915,0-5.04,1.93457-5.04,3.73438,0,2.07031,1.08008,3.10546,5.53418,4.18554,6.34473,1.5293,7.91992,3.59961,7.91992,6.97461,0,4.09473-3.33008,6.61426-8.05469,6.61426-5.12988,0-8.00976-2.7002-8.63964-6.75Z"/><path class="cls-3" d="M262.54883,362.22559a25.72557,25.72557,0,0,0,.31543,4.27441H260.7041a14.804,14.804,0,0,1-.4043-3.46484c-.76562,1.665-2.74511,4.00488-7.37988,4.00488-5.21972,0-7.46972-3.375-7.46972-6.75,0-4.94922,3.82421-7.19922,10.57421-7.19922h4.27539V350.7959c0-2.25-.67578-5.26465-5.80566-5.26465-4.54394,0-5.21973,2.38477-5.71387,4.22949h-2.25c.26953-2.47461,1.79981-6.2998,8.00977-6.2998,5.12891,0,8.00879,2.16015,8.00879,7.11035Zm-2.2041-7.2002h-4.41016c-4.99512,0-8.09961,1.30566-8.09961,5.17481,0,2.835,2.02442,4.7705,5.17481,4.7705,6.43457,0,7.335-4.27539,7.335-9.13476Z"/><path class="cls-3" d="M269.97461,349.6709c0-1.97949,0-3.87012-.04492-5.66992h2.20508c.08984.71972.13476,3.6455.08984,4.27539.99023-2.29492,2.835-4.81543,7.46973-4.81543,4.00488,0,7.55957,2.25,7.55957,8.46V366.5h-2.25V352.28125c0-4.00488-1.665-6.61523-5.57911-6.61523-5.35546,0-7.20019,4.45507-7.20019,9.35937V366.5h-2.25Z"/><path class="cls-3" d="M312.00391,333.33691v26.6836c0,2.16015,0,4.22949.04492,6.47949h-2.16016c-.08984-.54-.13476-2.6543-.13476-3.7793-1.125,2.74414-3.64453,4.31934-7.55957,4.31934-5.84961,0-9.35938-4.76953-9.35938-11.51953,0-6.92969,3.82422-12.05957,9.94434-12.05957,4.5,0,6.2998,1.93554,6.97461,3.375v-13.499Zm-16.78418,22.09375c0,6.165,3.19433,9.49512,7.06445,9.49512,5.93945,0,7.55957-4.0957,7.55957-10.21484,0-5.80469-1.39453-9.13477-7.1543-9.13477C298.23438,345.57617,295.21973,349.13086,295.21973,355.43066Z"/><path class="cls-3" d="M331.669,366.5V346.11621h-3.87012V344.001H331.669v-3.19434c0-3.78027,1.08007-7.91992,6.11914-7.91992a8.42407,8.42407,0,0,1,2.20507.31445v2.16016a11.18682,11.18682,0,0,0-2.42968-.26953c-2.65528,0-3.64453,1.88965-3.64453,5.80468v3.1045h4.90429v2.11523H333.919V366.5Z"/><path class="cls-3" d="M342.87305,355.52051c.04492,5.80469,2.96972,9.40527,7.29,9.40527,4.22949,0,5.66992-2.38574,6.47949-4.23047h2.29492c-.94531,2.96973-3.33008,6.34473-8.86426,6.34473-6.83984,0-9.49511-5.89453-9.49511-11.60938,0-6.43457,3.19531-11.96972,9.76464-11.96972,6.92969,0,9.13477,5.98535,9.13477,10.21484,0,.62988,0,1.25977-.04492,1.84473ZM357.1377,353.541c-.04493-4.45508-2.47559-7.96485-6.88477-7.96485-4.63477,0-6.75,3.24024-7.24512,7.96485Z"/><path class="cls-3" d="M364.96777,350.12109c0-3.78027-.04492-5.40039-.04492-6.12011h2.20508c.04492.71972.08984,2.16015.08984,5.04a8.52441,8.52441,0,0,1,7.83008-5.58008v2.42969c-4.67969.31542-7.83008,3.55566-7.83008,8.91015V366.5h-2.25Z"/><path class="cls-3" d="M377.56738,344.001H381.752v-7.01953h2.25V344.001h5.3545v2.11523H384.002v14.624c0,2.52051.54,3.96,2.7002,3.96a8.52355,8.52355,0,0,0,2.33984-.26954v1.9795a7.893,7.893,0,0,1-2.79.40527c-2.87988,0-4.5-1.44043-4.5-5.04V346.11621h-4.18457Z"/><path class="cls-3" d="M393.94629,333.33691h2.25v4.36426h-2.25Zm0,10.66407h2.25V366.5h-2.25Z"/><path class="cls-3" d="M403.57617,366.5V333.33691h2.25V366.5Z"/><path class="cls-3" d="M413.20605,333.33691h2.25v4.36426h-2.25Zm0,10.66407h2.25V366.5h-2.25Z"/><path class="cls-3" d="M420.49512,364.43066l14.21972-18.31445h-13.5V344.001h16.10938v2.16015l-14.03906,18.22461h14.53418l-.54,2.11426H420.49512Z"/><path class="cls-3" d="M442.81445,355.52051c.04493,5.80469,2.96973,9.40527,7.29,9.40527,4.22949,0,5.66992-2.38574,6.47949-4.23047h2.29493c-.94532,2.96973-3.33008,6.34473-8.86426,6.34473-6.83985,0-9.49512-5.89453-9.49512-11.60938,0-6.43457,3.19531-11.96972,9.76465-11.96972,6.92969,0,9.13477,5.98535,9.13477,10.21484,0,.62988,0,1.25977-.04493,1.84473ZM457.0791,353.541c-.04492-4.45508-2.47558-7.96485-6.88476-7.96485-4.63477,0-6.75,3.24024-7.24512,7.96485Z"/><path class="cls-3" d="M464.90918,350.12109c0-3.78027-.04492-5.40039-.04492-6.12011h2.20508c.04492.71972.08984,2.16015.08984,5.04a8.52441,8.52441,0,0,1,7.83008-5.58008v2.42969c-4.67969.31542-7.83008,3.55566-7.83008,8.91015V366.5h-2.25Z"/></svg>