<svg id="Layer_1" data-name="Layer 1" xmlns="http://www.w3.org/2000/svg" viewBox="0 0 517 517"><defs><style>.cls-1{fill:#2e3192;}.cls-2{fill:#fff;}.cls-3{fill:#f9ec31;stroke:#f9ec31;}.cls-3,.cls-4,.cls-5,.cls-6{stroke-miterlimit:10;}.cls-3,.cls-4,.cls-6{stroke-width:2px;}.cls-4{fill:#ffdd15;stroke:#ffdd15;}.cls-5{fill:#3b2314;stroke:#3b2314;}.cls-6{fill:#603813;stroke:#603813;}</style></defs><title>banana1</title><path class="cls-1" d="M258.5,516.5C116,516.5.5,401,.5,258.5A257.961,257.961,0,0,1,76.1,76.1C176.9-24.7,340.2-24.7,441,76.1S541.8,340.2,441,441A256.49775,256.49775,0,0,1,258.5,516.5Z"/><path class="cls-2" d="M258.5,1C400.8,1.1,516,116.5,515.9,258.7a257.62392,257.62392,0,0,1-157.2,237C227.7,551,76.6,489.6,21.3,358.5c-55.2-131,6.1-281.9,137-337.3A255.54924,255.54924,0,0,1,258.5,1m0-1C115.7,0,0,115.7,0,258.5S115.7,517,258.5,517,517,401.3,517,258.5,401.3,0,258.5,0Z"/><path class="cls-2" d="M102.45117,280.80273h8.35108c6.91113,0,11.69873,4.82422,11.69873,12.38282C122.501,300.709,117.82129,306,110.76611,306h-8.31494ZM104.395,304.2002h6.0835c6.65918,0,9.93457-4.67969,9.93457-10.90625,0-5.54395-2.95166-10.69043-9.93457-10.69043H104.395Z"/><path class="cls-2" d="M127.86768,297.2168c.03613,4.64355,2.37548,7.52343,5.83105,7.52343a5.06841,5.06841,0,0,0,5.18359-3.38378h1.83545a6.89993,6.89993,0,0,1-7.09082,5.07519c-5.47119,0-7.59521-4.71484-7.59521-9.28613,0-5.14746,2.55566-9.5752,7.811-9.5752,5.54346,0,7.30713,4.78711,7.30713,8.1709,0,.50391,0,1.00781-.03613,1.47559Zm11.41064-1.584c-.03613-3.56347-1.98-6.37109-5.50732-6.37109-3.70752,0-5.39942,2.5918-5.79541,6.37109Z"/><path class="cls-2" d="M145.54346,292.64551c0-1.54785,0-3.23926-.03614-4.64356H147.271c.03613.61231.10839,2.16016.07226,3.2041a5.6293,5.6293,0,0,1,5.39942-3.63574,5.10851,5.10851,0,0,1,5.21923,3.56348,6.12428,6.12428,0,0,1,5.86719-3.56348c2.77149,0,5.65137,1.584,5.65137,6.58692V306h-1.79981v-11.627c0-2.41114-.86377-5.03907-4.21142-5.03907-3.4917,0-5.0752,2.80762-5.0752,6.29883V306h-1.76416V294.40918c0-2.62695-.7915-5.0752-4.10351-5.0752-3.49121,0-5.18311,3.09571-5.18311,6.76758V306h-1.7998Z"/><path class="cls-2" d="M187.51758,302.58008A20.51782,20.51782,0,0,0,187.77,306h-1.728a11.81156,11.81156,0,0,1-.32373-2.77148c-.6123,1.332-2.1958,3.20312-5.90332,3.20312-4.17578,0-5.97558-2.69922-5.97558-5.39941,0-3.959,3.05957-5.75879,8.459-5.75879h3.41992V293.4375c0-1.7998-.54-4.21094-4.64355-4.21094-3.63575,0-4.17578,1.90723-4.57129,3.38282h-1.79981c.21582-1.9795,1.43946-5.03907,6.40723-5.03907,4.103,0,6.40674,1.72754,6.40674,5.6875Zm-1.76367-5.75879h-3.52735c-3.9956,0-6.47949,1.04394-6.47949,4.13965,0,2.26758,1.62012,3.81543,4.13965,3.81543,5.14746,0,5.86719-3.41992,5.86719-7.30762Z"/><path class="cls-2" d="M193.459,292.53809c0-1.584,0-3.09571-.03613-4.53614h1.76367c.07227.57618.1084,2.916.07227,3.41993a5.8781,5.8781,0,0,1,5.9751-3.85157c3.20361,0,6.04736,1.79981,6.04736,6.76758V306h-1.7998V294.625c0-3.20312-1.332-5.291-4.46338-5.291-4.28369,0-5.75928,3.56348-5.75928,7.48731V306H193.459Z"/><path class="cls-2" d="M227.08057,279.4707v21.34571c0,1.72851,0,3.38379.03613,5.18359h-1.72754c-.07227-.43164-.1084-2.124-.1084-3.02344-.8999,2.19532-2.91553,3.45508-6.04687,3.45508-4.67969,0-7.48731-3.81543-7.48731-9.21484,0-5.543,3.05957-9.64649,7.95508-9.64649,3.59961,0,5.03955,1.54785,5.5791,2.69922V279.4707ZM213.6543,297.14551c0,4.93066,2.55566,7.59472,5.65136,7.59472,4.75147,0,6.04737-3.27539,6.04737-8.17089,0-4.64356-1.11573-7.30762-5.72315-7.30762C216.06592,289.26172,213.6543,292.10547,213.6543,297.14551Z"/><path class="cls-2" d="M242.814,306V289.69434h-3.0957V288.002h3.0957v-2.55566c0-3.02344.86426-6.335,4.89551-6.335a6.69985,6.69985,0,0,1,1.76367.25195v1.72852a8.90413,8.90413,0,0,0-1.94384-.2168c-2.12354,0-2.91553,1.51172-2.91553,4.64355v2.4834h3.92383v1.69239h-3.92383V306Z"/><path class="cls-2" d="M265.96,296.96484c0,5.00391-2.77148,9.4668-8.13476,9.4668-4.85938,0-7.88331-3.99512-7.88331-9.43066,0-5.14746,2.84375-9.43067,8.063-9.43067C262.793,287.57031,265.96,291.31348,265.96,296.96484Zm-14.11035.03614c0,4.2832,2.30371,7.73925,6.11914,7.73925,3.8877,0,6.084-3.2041,6.084-7.73925,0-4.24707-2.16015-7.73926-6.15576-7.73926C253.79346,289.26172,251.84961,292.68164,251.84961,297.001Z"/><path class="cls-2" d="M270.42578,292.89746c0-3.02344-.03613-4.31933-.03613-4.89551h1.76367c.03613.57618.07227,1.72852.07227,4.03223a6.81774,6.81774,0,0,1,6.26367-4.46387v1.94336c-3.74414.252-6.26367,2.84375-6.26367,7.12793V306h-1.79981Z"/><path class="cls-2" d="M291.44922,279.4707h1.7998v11.55469c.86426-1.79883,2.62793-3.45508,6.15528-3.45508,4.248,0,7.3789,3.49121,7.3789,9.03516,0,5.68652-2.80761,9.82617-7.84668,9.82617-3.02343,0-4.751-1.22363-5.6875-3.27539,0,1.15234-.03613,2.33984-.07226,2.84375h-1.76367c.03613-2.05176.03613-4.10352.03613-6.15527ZM304.876,296.6416c0-4.5-2.23243-7.37988-5.65137-7.37988-4.5,0-6.083,3.05957-6.083,7.77539,0,4.24707,1.40332,7.70312,5.86719,7.70312C302.64355,304.74023,304.876,301.7168,304.876,296.6416Z"/><path class="cls-2" d="M323.5957,302.58008a20.533,20.533,0,0,0,.252,3.41992h-1.72754a11.74492,11.74492,0,0,1-.32422-2.77148c-.61231,1.332-2.19629,3.20312-5.90332,3.20312-4.17578,0-5.97559-2.69922-5.97559-5.39941,0-3.959,3.05957-5.75879,8.459-5.75879h3.41992V293.4375c0-1.7998-.54-4.21094-4.64356-4.21094-3.63574,0-4.17578,1.90723-4.57129,3.38282h-1.7998c.21582-1.9795,1.43945-5.03907,6.40723-5.03907,4.10351,0,6.40722,1.72754,6.40722,5.6875Zm-1.76367-5.75879h-3.52832c-3.99512,0-6.47949,1.04394-6.47949,4.13965,0,2.26758,1.62012,3.81543,4.14062,3.81543,5.14649,0,5.86719-3.41992,5.86719-7.30762Z"/><path class="cls-2" d="M329.53613,292.53809c0-1.584,0-3.09571-.03515-4.53614h1.76367c.07129.57618.10742,2.916.07129,3.41993a5.87923,5.87923,0,0,1,5.97558-3.85157c3.20411,0,6.04688,1.79981,6.04688,6.76758V306h-1.79883V294.625c0-3.20312-1.332-5.291-4.46387-5.291-4.2832,0-5.75976,3.56348-5.75976,7.48731V306h-1.79981Z"/><path class="cls-2" d="M361.39453,302.58008a20.64348,20.64348,0,0,0,.252,3.41992H359.919a11.85646,11.85646,0,0,1-.32422-2.77148c-.61133,1.332-2.19532,3.20312-5.90332,3.20312-4.17481,0-5.97461-2.69922-5.97461-5.39941,0-3.959,3.05957-5.75879,8.459-5.75879h3.419V293.4375c0-1.7998-.54-4.21094-4.64356-4.21094-3.63476,0-4.1748,1.90723-4.57129,3.38282h-1.7998c.21582-1.9795,1.44043-5.03907,6.40722-5.03907,4.10352,0,6.40723,1.72754,6.40723,5.6875Zm-1.76367-5.75879h-3.52734c-3.99512,0-6.4795,1.04394-6.4795,4.13965,0,2.26758,1.62012,3.81543,4.13965,3.81543,5.14746,0,5.86719-3.41992,5.86719-7.30762Z"/><path class="cls-2" d="M367.33594,292.53809c0-1.584,0-3.09571-.03516-4.53614h1.76367c.07129.57618.10743,2.916.07129,3.41993a5.87924,5.87924,0,0,1,5.97559-3.85157c3.2041,0,6.04687,1.79981,6.04687,6.76758V306h-1.7998V294.625c0-3.20312-1.33106-5.291-4.46289-5.291-4.28321,0-5.75977,3.56348-5.75977,7.48731V306h-1.7998Z"/><path class="cls-2" d="M399.19434,302.58008A20.64348,20.64348,0,0,0,399.44629,306h-1.72754a11.85762,11.85762,0,0,1-.32422-2.77148c-.61133,1.332-2.19531,3.20312-5.90332,3.20312-4.1748,0-5.97461-2.69922-5.97461-5.39941,0-3.959,3.05957-5.75879,8.459-5.75879h3.41894V293.4375c0-1.7998-.54-4.21094-4.64355-4.21094-3.63477,0-4.17481,1.90723-4.57129,3.38282h-1.79981c.21582-1.9795,1.44043-5.03907,6.40723-5.03907,4.10352,0,6.40723,1.72754,6.40723,5.6875Zm-1.76368-5.75879h-3.52734c-3.99512,0-6.47949,1.04394-6.47949,4.13965,0,2.26758,1.62012,3.81543,4.13965,3.81543,5.14746,0,5.86718-3.41992,5.86718-7.30762Z"/><path class="cls-2" d="M404.95605,301.03223c.61231,2.33984,2.26856,3.74414,5.11133,3.74414,3.2041,0,4.5-1.47559,4.5-3.49219,0-2.05176-.86425-3.05957-4.8955-4.03125-4.64356-1.11523-5.79493-2.51953-5.79493-4.89551,0-2.4834,1.8711-4.78711,5.93848-4.78711,4.06836,0,6.01172,2.4834,6.2998,5.03907h-1.7998a4.24233,4.24233,0,0,0-4.57129-3.38282c-3.13184,0-4.03125,1.54688-4.03125,2.98731,0,1.65527.86328,2.4834,4.42676,3.34765,5.07519,1.22364,6.335,2.87989,6.335,5.57911,0,3.27539-2.66309,5.291-6.44238,5.291-4.10352,0-6.40723-2.15918-6.91114-5.39941Z"/><path class="cls-3" d="M311.16471,85.75841l5.44417-36.92569s13.24048,3.49145,13.63328-.81817S319.2473,76.8797,323.37677,85.13064s23.62513,24.13781-19.77257,100.84145-130.682,31.703-130.682,31.703-.80832-10.6162,4.20156-13.48754S256.41548,195.33151,311.16471,85.75841Z"/><path class="cls-4" d="M177.12378,204.18753s87.2214-14.58428,134.04093-118.42912l5.44417-36.92569L321.7985,49.86l-4.769,37.52679s-29.45242,137.253-143.61654,123.095Z"/><ellipse class="cls-5" cx="175.07935" cy="211.01527" rx="7.12501" ry="3.4114" transform="translate(-74.51947 324.50824) rotate(-74.76887)"/><polygon class="cls-6" points="311.165 85.758 316.609 48.833 330.242 48.015 323.377 85.131 311.165 85.758"/></svg>