<svg id="Layer_1" data-name="Layer 1" xmlns="http://www.w3.org/2000/svg" viewBox="0 0 517 517"><defs><style>.cls-1{fill:#2e3192;}.cls-2{stroke:#000;}.cls-2,.cls-4{stroke-miterlimit:10;}.cls-3{fill:#fff;}.cls-4{stroke:#fff;stroke-width:0.5px;}</style></defs><title>banana3</title><path class="cls-1" d="M260.5,516.5c-142.5,0-258-115.5-258-258A257.961,257.961,0,0,1,78.1,76.1C178.9-24.7,342.2-24.7,443,76.1S543.8,340.2,443,441A256.49775,256.49775,0,0,1,260.5,516.5Z"/><path class="cls-2" d="M192.43515,99.94942V205.869s48.39429,20.54475,92.67964,0l-.22828-104.32166S238.775,113.87419,192.43515,99.94942Z"/><path class="cls-2" d="M192.20687,94.69909l27.393-27.84954s21.45785-9.131,38.80674,0l26.4799,27.84954S238.775,109.76524,192.20687,94.69909Z"/><polygon class="cls-2" points="267.994 73.698 284.887 72.328 289.452 77.807 281.691 88.764 267.994 73.698"/><polygon class="cls-2" points="290.822 72.328 341.042 39 346.064 44.479 326.514 53.249 347.89 49.044 351.999 54.066 308.627 67.763 354.496 58.256 357.478 65.023 333.737 72.328 360.217 72.328 362.5 79.176 290.822 72.328"/><path class="cls-3" d="M228.708,150.28129a21.79874,21.79874,0,0,0,1.68112,11.64585c1.04,2.54332,2.56781,5.10685,5.06889,6.2447,3.72046,1.6926,8.22161-.47864,10.75908-3.683s3.70485-7.24466,5.37863-10.97362c3.07279-6.84576,8.09019-13.30177,7.94725-20.80418a9.83535,9.83535,0,0,0-1.77619-5.82958,11.31322,11.31322,0,0,0-4.08853-3.054,28.75127,28.75127,0,0,0-29.51932,2.8672c-1.54854,1.18308-3.05259,2.66474-3.41474,4.57955a9.10267,9.10267,0,0,0,.77581,4.6954,148.45646,148.45646,0,0,0,6.58033,15.42893"/><path class="cls-3" d="M225.73143,150.28129c-1.24855,11.22877,7.88831,28.95159,20.638,18.26442,5.29519-4.4386,6.87943-11.97835,9.96984-17.88945,3.18137-6.0851,7.09735-12.7216,6.01-19.89282-2.00024-13.19124-21.12222-14.48159-31.14381-11.07882-5.01092,1.70143-12.07661,5.08457-13.33142,10.79831-.73661,3.35415.9,6.72554,2.08666,9.76936,1.67478,4.29587,3.5503,8.50432,5.56954,12.64859,1.6778,3.44348,6.81337.429,5.14035-3.00466-2.20178-4.51891-5.37285-9.74921-6.28026-14.71789-1.12156-6.14126,4.70836-8.74529,9.816-10.19131,6.99427-1.98013,22.51669-1.64639,22.33727,8.52011-.08086,4.58144-2.49749,8.75854-4.57365,12.69992-1.86414,3.53888-3.44324,7.11118-5.01272,10.78281-1.71534,4.01286-6.23136,12.04992-11.589,7.51771-3.61669-3.05946-4.15708-9.96763-3.68355-14.22628.42274-3.8019-5.53373-3.77185-5.95313,0Z"/><path class="cls-3" d="M221.21762,189.96775q24.2628-6.79635,47.80651-15.79932c3.54261-1.35474,2.00507-7.11244-1.58257-5.74047Q243.907,177.4279,219.635,184.22728c-3.68363,1.03183-2.1187,6.77725,1.58258,5.74047Z"/><path class="cls-3" d="M214.72967,173.95686q24.79422,11.012,50.256,20.39841c3.60044,1.32563,5.15351-4.42571,1.58258-5.74048q-24.73565-9.10734-48.83391-19.79828c-3.4706-1.54141-6.50284,3.58668-3.00466,5.14035Z"/><path class="cls-3" d="M218.0504,169.33649c-.05763.56494.09084-.31434.103-.36448.17312-.71656-.21406.2683.13659-.37982a4.882,4.882,0,0,1,.46412-.74984c-.30285.37571.273-.22822.3188-.272L214.398,166.968c.07086.122.32259.78211.18022.32175a4.98438,4.98438,0,0,1,.14608.55165q-.03792-.41079-.01481-.08365c.006.11011-.03269.895.01.60057.06568-.45267-.31562.9145-.036.25974-.60967,1.42772-.47427,3.25774,1.06784,4.07251,1.27785.67514,3.41961.4611,4.0725-1.06785a8.26651,8.26651,0,0,0-.28549-7.65938,3.012,3.012,0,0,0-4.67493-.60242,9.28029,9.28029,0,0,0-2.76609,5.97562,2.98557,2.98557,0,0,0,2.97656,2.97656,3.059,3.059,0,0,0,2.97656-2.97656Z"/><path class="cls-3" d="M213.0748,168.73618l-3.88,2.30625a3.00617,3.00617,0,0,0,0,5.14035c3.57775,2.08195,7.29986.54221,10.38845-1.64424a3.05831,3.05831,0,0,0,1.06784-4.0725,3.00137,3.00137,0,0,0-4.0725-1.06785c-1.0922.77318-2.9685,2.46511-4.37914,1.64424v5.14035l3.88-2.30625c3.2905-1.95587.29962-7.10441-3.00465-5.14035Z"/><path class="cls-3" d="M216.10079,186.80385c-.2537-.21229-.47782-.44007-.7088-.67578q-.32406-.38508.01419.02226-.13827-.2027-.25938-.41608t-.22423-.436q.20728.5036.03333.02616c-.07216-.32093-.16461-.62845-.21678-.955l-2.87023,3.76785q.51928.04116-.0693-.01873.238.04779.47005.119.47739.17014-.0329-.03663.21962.10417.4283.22876t.40459.26847q-.42525-.32432-.04877.00653.1728.17049.32778.3573-.32617-.42453-.04575-.00843a2.977,2.977,0,1,0,5.14035-3.00465,8.23313,8.23313,0,0,0-6.57435-3.86474,2.83833,2.83833,0,0,0-2.33746,1.173,3.0904,3.0904,0,0,0-.53278,2.59483,8.55479,8.55479,0,0,0,2.89265,5.06141,3.04285,3.04285,0,0,0,4.20949,0,3.01208,3.01208,0,0,0,0-4.2095Z"/><path class="cls-3" d="M212.36562,190.43012l-.285,4.50464c-.15465,2.44449,2.59581,3.45146,4.47889,2.57017,3.69251-1.7281,4.34289-5.95459,4.28267-9.59418-.06333-3.82677-6.01665-3.83858-5.95313,0,.02564,1.549.29275,3.69242-1.3342,4.45384l4.47889,2.57017.285-4.50464a2.97657,2.97657,0,1,0-5.95313,0Z"/><path class="cls-3" d="M269.74776,171.73561c-.54-.20313.17449.09483.28892.16157q.23836.13917.46266.3-.303-.23481-.06756-.03079c.07264.06882.59862.619.42152.40635q-.17218-.24.09355.14283.14993.23177.27651.47705l1.77889-4.37257c-.17.04639-.84009.11208-.33021.09259a4.986,4.986,0,0,1-.57067-.0005q.4058.07655.08388.013c-.10508-.02862-.83063-.244-.5962-.14752.37838.15574-.79495-.52764-.26267-.11169a3.05712,3.05712,0,0,0-4.2095,0c-.98116,1.06883-1.31027,3.18557,0,4.2095a8.26143,8.26143,0,0,0,7.46794,1.68509,3.01271,3.01271,0,0,0,1.77889-4.37257,9.24238,9.24238,0,0,0-5.03337-4.19283,2.99033,2.99033,0,0,0-3.66153,2.07894,3.058,3.058,0,0,0,2.079,3.66153Z"/><path class="cls-3" d="M271.63307,167.08809l-1.23235-4.34216a3.00594,3.00594,0,0,0-4.975-1.31346c-2.92531,2.91732-2.39017,6.91467-1.07286,10.45444a3.05844,3.05844,0,0,0,3.66152,2.07895,3.00058,3.00058,0,0,0,2.07895-3.66153c-.47013-1.26329-1.62112-3.50254-.45812-4.66236l-4.975-1.31346,1.23235,4.34215c1.04428,3.67947,6.79006,2.1156,5.74047-1.58257Z"/><path class="cls-3" d="M266.1802,193.05628c.01774.06608.15014.91583.10951.36327a7.617,7.617,0,0,1,.007.88183c.02081-.50426-.04975.22964-.08727.36766-.03025.11129-.34177.84751-.12154.38525l4.67492-.60242a5.54356,5.54356,0,0,1-.73973-.70172c.41739.48483-.16142-.33081-.22923-.46568.29535.58744-.06872-.34283-.10628-.49694.16332.67011.01477-.27919.02335-.47913a2.99843,2.99843,0,0,0-2.97656-2.97656,3.04,3.04,0,0,0-2.97656,2.97656,7.89137,7.89137,0,0,0,2.79552,6.353,3.07928,3.07928,0,0,0,2.50039.81865,2.81645,2.81645,0,0,0,2.17453-1.42107,9.31948,9.31948,0,0,0,.69239-6.58523,2.97732,2.97732,0,0,0-5.74048,1.58257Z"/><path class="cls-3" d="M270.91817,192.35209l2.8049-3.53632a3.1201,3.1201,0,0,0,.76549-2.896,2.92873,2.92873,0,0,0-2.079-2.07895c-4.47715-.767-7.36586,2.08372-9.67633,5.53281a2.977,2.977,0,0,0,5.14035,3.00466c.51138-.7634,1.79665-2.99515,2.95341-2.797l-1.31346-4.975-2.8049,3.53632a3.07032,3.07032,0,0,0,0,4.2095c1.036,1.036,3.2051,1.2663,4.20949,0Z"/><circle class="cls-4" cx="231.2268" cy="134.64498" r="3.91165"/><circle class="cls-4" cx="247.58459" cy="134.64498" r="3.91165"/><path class="cls-3" d="M150.11377,234.7998h8.25146c4.22461,0,7.12891,2.34375,7.12891,6.436,0,4.15869-2.87158,6.60107-7.36035,6.60107H151.9292v10.06641h-1.81543Zm1.81543,11.38672h6.36963c3.73,0,5.28076-1.98,5.28076-4.88476,0-3.102-2.0459-4.85156-5.14844-4.85156H151.9292Z"/><path class="cls-3" d="M169.28711,249.8501c.0332,4.25781,2.17822,6.89795,5.34668,6.89795a4.64689,4.64689,0,0,0,4.75293-3.10254h1.6831a6.32674,6.32674,0,0,1-6.50195,4.65381c-5.0166,0-6.96387-4.32373-6.96387-8.51514,0-4.71973,2.34327-8.7793,7.16211-8.7793,5.08252,0,6.69971,4.38965,6.69971,7.49219,0,.46191,0,.92383-.03271,1.353Zm10.4624-1.45215c-.03271-3.26758-1.81494-5.8418-5.04931-5.8418-3.39991,0-4.95069,2.37647-5.314,5.8418Z"/><path class="cls-3" d="M185.88623,253.34863a4.37027,4.37027,0,0,0,4.68652,3.43262c2.9375,0,4.12549-1.35352,4.12549-3.20166,0-1.88135-.792-2.80518-4.48877-3.69629-4.25732-1.02344-5.31347-2.31055-5.31347-4.48877,0-2.27734,1.7163-4.38965,5.4458-4.38965s5.51172,2.27735,5.77588,4.62061h-1.65039a3.89,3.89,0,0,0-4.19141-3.10254c-2.87158,0-3.69678,1.41943-3.69678,2.73975,0,1.51806.792,2.27734,4.05957,3.06933,4.65381,1.12207,5.80908,2.64014,5.80908,5.11572,0,3.00342-2.44238,4.85157-5.9082,4.85157-3.76221,0-5.87451-1.98-6.33691-4.95069Z"/><path class="cls-3" d="M197.96338,241.40088h3.06933V236.252h1.6504v5.14893h3.92773v1.55127h-3.92773v10.72656c0,1.84815.396,2.9043,1.98046,2.9043a6.23929,6.23929,0,0,0,1.71631-.19776v1.45215a5.7998,5.7998,0,0,1-2.04638.29688c-2.11231,0-3.30079-1.05615-3.30079-3.69629V242.95215h-3.06933Z"/><path class="cls-3" d="M209.97559,233.57861h1.6499v3.20166h-1.6499Zm0,7.82227h1.6499v16.50244h-1.6499Z"/><path class="cls-3" d="M229.18262,253.05176c-.792,2.90429-2.70606,5.24756-6.40283,5.24756-4.12549,0-7.063-3.06934-7.063-8.58106,0-4.522,2.40918-8.71338,7.26123-8.71338a5.90015,5.90015,0,0,1,6.20459,5.28076h-1.68311a4.4594,4.4594,0,0,0-4.55469-3.72949c-3.49853,0-5.479,2.97022-5.479,7.09619,0,3.92725,1.84863,7.09571,5.314,7.09571,2.40917,0,3.86132-1.22119,4.71972-3.69629Z"/><path class="cls-3" d="M233.4375,233.57861h1.6499v3.20166h-1.6499Zm0,7.82227h1.6499v16.50244h-1.6499Z"/><path class="cls-3" d="M253.23877,233.57861v19.57178c0,1.58447,0,3.10254.03271,4.75293h-1.584c-.06592-.396-.09912-1.94727-.09912-2.77246-.8252,2.01318-2.67334,3.16846-5.54492,3.16846-4.29053,0-6.86475-3.49854-6.86475-8.44922,0-5.08252,2.80518-8.84522,7.29395-8.84522,3.30078,0,4.6206,1.41944,5.11572,2.47559v-9.90186Zm-12.311,16.20557c0,4.52148,2.34375,6.96387,5.18213,6.96387,4.35645,0,5.54444-3.00342,5.54444-7.49219,0-4.25732-1.023-6.69971-5.24756-6.69971C243.13916,242.55615,240.92773,245.16357,240.92773,249.78418Z"/><path class="cls-3" d="M259.01172,249.8501c.0332,4.25781,2.17773,6.89795,5.34668,6.89795a4.64644,4.64644,0,0,0,4.75293-3.10254h1.68359a6.328,6.328,0,0,1-6.50195,4.65381c-5.01758,0-6.96436-4.32373-6.96436-8.51514,0-4.71973,2.34327-8.7793,7.16162-8.7793,5.083,0,6.7002,4.38965,6.7002,7.49219,0,.46191,0,.92383-.03223,1.353Zm10.46289-1.45215c-.0332-3.26758-1.81543-5.8418-5.04981-5.8418-3.39941,0-4.95019,2.37647-5.31347,5.8418Z"/><path class="cls-3" d="M283.79492,245.88965c0-2.77246-.0332-3.96045-.0332-4.48877h1.61719c.0332.52832.06543,1.58447.06543,3.69678a6.25238,6.25238,0,0,1,5.74316-4.09278v1.78223c-3.43262.231-5.74316,2.60742-5.74316,6.53516v8.58105h-1.64942Z"/><path class="cls-3" d="M306.4668,253.08447c0,1.61719.0332,4.1919.0332,4.81885h-1.584a26.36633,26.36633,0,0,1-.09961-2.87158c-.69239,1.94726-2.376,3.26758-5.31348,3.26758-2.376,0-5.41309-.92432-5.41309-5.97364v-10.9248H295.707v10.52881c0,2.40918.75977,4.75244,4.02735,4.75244,3.69628,0,5.082-2.0791,5.082-6.79883v-8.48242h1.65039Z"/><path class="cls-3" d="M311.877,245.55957c0-1.45215,0-2.83838-.0332-4.15869h1.61816c.06543.52832.09864,2.67334.06543,3.13574a5.38983,5.38983,0,0,1,5.47852-3.53174c2.9375,0,5.54492,1.65039,5.54492,6.20508v10.69336h-1.65039V247.47363c0-2.937-1.2207-4.85156-4.0918-4.85156-3.92773,0-5.28125,3.26758-5.28125,6.86523v8.416H311.877Z"/><path class="cls-3" d="M343.32813,249.61914c0,4.58789-2.541,8.68018-7.459,8.68018-4.45605,0-7.22851-3.66358-7.22851-8.647,0-4.71972,2.60742-8.64746,7.39355-8.64746C340.42383,241.00488,343.32813,244.4375,343.32813,249.61914Zm-12.9375.0332c0,3.92725,2.1123,7.09571,5.61035,7.09571,3.56445,0,5.57812-2.9375,5.57812-7.09571,0-3.89453-1.98047-7.09619-5.64355-7.09619C332.17285,242.55615,330.39063,245.69141,330.39063,249.65234Z"/><path class="cls-3" d="M349.76074,242.95215v14.95117h-1.65039V242.95215h-2.83887v-1.55127h2.83887v-2.27734c0-2.83838.627-5.875,4.32324-5.875a3.60472,3.60472,0,0,1,1.48536.23144v1.55127a5.26064,5.26064,0,0,0-1.584-.23145c-1.84863,0-2.57422,1.2212-2.57422,4.05958v2.5415h6.63379v-2.27734c0-2.83838.69238-5.875,4.32324-5.875a3.60472,3.60472,0,0,1,1.48536.23144v1.55127a5.26068,5.26068,0,0,0-1.584-.23145c-1.84863,0-2.57422,1.2212-2.57422,4.05958v2.5415H361.543v1.55127h-3.49805v14.95117h-1.65039V242.95215Z"/><path class="cls-3" d="M177.88477,294.36719a18.84653,18.84653,0,0,0,.23144,3.13574h-1.58447a10.85512,10.85512,0,0,1-.29688-2.541c-.561,1.22071-2.01367,2.9375-5.41308,2.9375-3.82862,0-5.47852-2.47558-5.47852-4.95117,0-3.63086,2.80518-5.28027,7.75586-5.28027h3.13574v-1.68359c0-1.6504-.49511-3.86133-4.25781-3.86133-3.3335,0-3.82861,1.749-4.19141,3.10254h-1.65039c.19825-1.81543,1.32032-4.6211,5.875-4.6211,3.76221,0,5.87452,1.584,5.87452,5.21485Zm-1.61719-5.28028H173.0332c-3.66357,0-5.94091.957-5.94091,3.79493,0,2.08007,1.48535,3.499,3.79541,3.499,4.71972,0,5.37988-3.13574,5.37988-6.7002Z"/><path class="cls-3" d="M183.32813,285.15918c0-1.45215,0-2.83887-.03321-4.1582h1.61719c.06592.52734.09912,2.67285.06592,3.13476a5.3909,5.3909,0,0,1,5.479-3.53125c2.9375,0,5.54492,1.65039,5.54492,6.20508v10.69336h-1.65039V287.07324c0-2.9375-1.22119-4.85156-4.09277-4.85156-3.92725,0-5.28076,3.26758-5.28076,6.86523v8.416h-1.6499Z"/><path class="cls-3" d="M214.15186,273.17871V292.75c0,1.584,0,3.10254.03271,4.75293h-1.584c-.06592-.39648-.09913-1.94727-.09913-2.77246-.82519,2.01367-2.67333,3.16894-5.54492,3.16894-4.29052,0-6.86474-3.499-6.86474-8.44921,0-5.083,2.80517-8.84571,7.29394-8.84571,3.30078,0,4.62061,1.41895,5.11572,2.47559v-9.90137Zm-12.311,16.20508c0,4.52148,2.34375,6.96387,5.18213,6.96387,4.35644,0,5.54443-3.00293,5.54443-7.49219,0-4.25781-1.023-6.7002-5.24756-6.7002C204.05225,282.15527,201.84082,284.7627,201.84082,289.38379Z"/><path class="cls-3" d="M229.791,295.06055v9.043h-1.64991v-19.043c0-1.35352,0-2.80567-.0332-4.05957h1.61719c.06592.62695.06592,1.61718.06592,2.96972a6.06251,6.06251,0,0,1,5.80908-3.36621c3.89453,0,6.60107,3.26758,6.60107,8.21778,0,5.9414-3.16846,9.07714-7.16211,9.07714C232.13477,297.89941,230.61621,296.61133,229.791,295.06055Zm10.66064-6.17188c0-3.82812-1.84814-6.70019-5.11572-6.70019-3.99365,0-5.64356,2.50879-5.64356,6.99707,0,4.42285,1.28711,7.16211,5.4126,7.16211C238.5376,296.34766,240.45166,293.44336,240.45166,288.88867Z"/><path class="cls-3" d="M259.88867,289.21875c0,4.58789-2.5415,8.68066-7.459,8.68066-4.45557,0-7.228-3.66406-7.228-8.64746,0-4.71972,2.60742-8.64746,7.39307-8.64746C256.98438,280.60449,259.88867,284.03711,259.88867,289.21875Zm-12.938.0332c0,3.92774,2.11231,7.09571,5.61084,7.09571,3.56446,0,5.57813-2.9375,5.57813-7.09571,0-3.89453-1.98047-7.09668-5.644-7.09668C248.73291,282.15527,246.95068,285.291,246.95068,289.252Z"/><path class="cls-3" d="M277.543,289.21875c0,4.58789-2.541,8.68066-7.459,8.68066-4.45507,0-7.22753-3.66406-7.22753-8.64746,0-4.71972,2.60742-8.64746,7.39355-8.64746C274.63867,280.60449,277.543,284.03711,277.543,289.21875Zm-12.9375.0332c0,3.92774,2.1123,7.09571,5.61133,7.09571,3.56445,0,5.57812-2.9375,5.57812-7.09571,0-3.89453-1.98047-7.09668-5.64453-7.09668C266.3877,282.15527,264.60547,285.291,264.60547,289.252Z"/><path class="cls-3" d="M281.63281,285.48926c0-2.77246-.0332-3.96094-.0332-4.48828h1.61719c.0332.52734.0664,1.584.0664,3.69629a6.2524,6.2524,0,0,1,5.74317-4.09278v1.78223c-3.43262.23144-5.74317,2.60742-5.74317,6.53516v8.58105h-1.65039Z"/><path class="cls-3" d="M300.9043,292.94824a4.37168,4.37168,0,0,0,4.6875,3.43262c2.9375,0,4.125-1.35352,4.125-3.20117,0-1.88184-.792-2.80567-4.48828-3.69727-4.25782-1.02246-5.31446-2.30957-5.31446-4.48828,0-2.27734,1.7168-4.38965,5.44629-4.38965s5.51172,2.27735,5.77637,4.6211h-1.65039a3.89,3.89,0,0,0-4.19141-3.10254c-2.87207,0-3.69726,1.41894-3.69726,2.73925,0,1.51758.792,2.27735,4.05957,3.06934,4.65332,1.12207,5.80957,2.64063,5.80957,5.11524,0,3.0039-2.44336,4.85253-5.90821,4.85253-3.76269,0-5.875-1.98046-6.33789-4.95117Z"/><path class="cls-3" d="M328.92285,289.21875c0,4.58789-2.541,8.68066-7.459,8.68066-4.45606,0-7.22852-3.66406-7.22852-8.64746,0-4.71972,2.60742-8.64746,7.39356-8.64746C326.01855,280.60449,328.92285,284.03711,328.92285,289.21875Zm-12.9375.0332c0,3.92774,2.11231,7.09571,5.61035,7.09571,3.56446,0,5.57813-2.9375,5.57813-7.09571,0-3.89453-1.98047-7.09668-5.64356-7.09668C317.76758,282.15527,315.98535,285.291,315.98535,289.252Z"/><path class="cls-3" d="M333.14453,273.17871h1.65039v3.20117h-1.65039Zm0,7.82227h1.65039v16.50195h-1.65039Z"/><path class="cls-3" d="M340.20605,297.50293V273.17871h1.6504v24.32422Z"/><path class="cls-3" d="M174.71729,312.7793v19.57129c0,1.585,0,3.10254.03271,4.75293h-1.584c-.06592-.39649-.09913-1.94727-.09913-2.77247-.82519,2.01368-2.67334,3.16895-5.54492,3.16895-4.29052,0-6.86474-3.499-6.86474-8.44922,0-5.083,2.80517-8.8457,7.29394-8.8457,3.30078,0,4.62061,1.41894,5.11572,2.47558V312.7793Zm-12.311,16.20508c0,4.52148,2.34375,6.96386,5.18213,6.96386,4.35644,0,5.54443-3.00293,5.54443-7.49219,0-4.25781-1.023-6.70019-5.24756-6.70019C164.61768,321.75586,162.40625,324.36328,162.40625,328.98438Z"/><path class="cls-3" d="M192.4707,332.28516c0,1.61718.03272,4.1914.03272,4.81836h-1.584a26.53821,26.53821,0,0,1-.09912-2.8711c-.69287,1.94727-2.37646,3.26758-5.314,3.26758-2.376,0-5.4126-.9248-5.4126-5.97461V320.60156h1.61719v10.52832c0,2.40918.75927,4.75293,4.02685,4.75293,3.69629,0,5.08252-2.08008,5.08252-6.7998v-8.48145h1.65039Z"/><path class="cls-3" d="M198.24365,329.05078c.03321,4.25684,2.17823,6.89746,5.34668,6.89746a4.64688,4.64688,0,0,0,4.75293-3.10254h1.68311a6.32709,6.32709,0,0,1-6.502,4.6543c-5.0166,0-6.96386-4.32422-6.96386-8.51562,0-4.71973,2.34326-8.7793,7.16211-8.7793,5.08252,0,6.6997,4.38965,6.6997,7.49219,0,.46191,0,.92382-.03271,1.35351Zm10.4624-1.45312c-.03271-3.26661-1.81494-5.8418-5.04931-5.8418-3.3999,0-4.95069,2.377-5.314,5.8418Z"/><path class="cls-3" d="M220.55127,320.60156h3.06934v-5.14941H225.271v5.14941h3.92773v1.55078H225.271v10.72657c0,1.84863.396,2.90429,1.98046,2.90429a6.24023,6.24023,0,0,0,1.71631-.19824v1.45215a5.78864,5.78864,0,0,1-2.04638.29785c-2.11231,0-3.30078-1.05664-3.30078-3.69726V322.15234h-3.06934Z"/><path class="cls-3" d="M245.73193,328.81934c0,4.58789-2.5415,8.68066-7.459,8.68066-4.45557,0-7.228-3.66406-7.228-8.64746,0-4.71973,2.60742-8.64746,7.39307-8.64746C242.82764,320.20508,245.73193,323.6377,245.73193,328.81934Zm-12.938.0332c0,3.92773,2.1123,7.0957,5.61084,7.0957,3.56445,0,5.57812-2.9375,5.57812-7.0957,0-3.89453-1.98047-7.09668-5.644-7.09668C234.57617,321.75586,232.794,324.8916,232.794,328.85254Z"/><path class="cls-3" d="M258.76465,329.05078c.0332,4.25684,2.17871,6.89746,5.34668,6.89746a4.64734,4.64734,0,0,0,4.75293-3.10254h1.68262a6.32584,6.32584,0,0,1-6.502,4.6543c-5.01562,0-6.96338-4.32422-6.96338-8.51562,0-4.71973,2.34326-8.7793,7.1626-8.7793,5.082,0,6.69922,4.38965,6.69922,7.49219,0,.46191,0,.92382-.0332,1.35351Zm10.46191-1.45312c-.03222-3.26661-1.81445-5.8418-5.04883-5.8418-3.40039,0-4.95117,2.377-5.314,5.8418Z"/><path class="cls-3" d="M274.96777,325.08984c0-2.77246-.0332-3.96093-.0332-4.48828h1.61719c.0332.52735.06543,1.584.06543,3.69629a6.25368,6.25368,0,0,1,5.74414-4.09277v1.78222c-3.4336.23145-5.74414,2.60743-5.74414,6.53516v8.58106h-1.64942Z"/><path class="cls-3" d="M298.76172,328.81934c0,4.58789-2.541,8.68066-7.459,8.68066-4.45507,0-7.22753-3.66406-7.22753-8.64746,0-4.71973,2.60742-8.64746,7.39355-8.64746C295.85742,320.20508,298.76172,323.6377,298.76172,328.81934Zm-12.9375.0332c0,3.92773,2.1123,7.0957,5.61133,7.0957,3.56445,0,5.57812-2.9375,5.57812-7.0957,0-3.89453-1.98047-7.09668-5.64453-7.09668C287.60645,321.75586,285.82422,324.8916,285.82422,328.85254Z"/><path class="cls-3" d="M303.18164,332.54883a4.37168,4.37168,0,0,0,4.6875,3.43262c2.9375,0,4.125-1.35352,4.125-3.20118,0-1.88183-.792-2.80566-4.48828-3.69726-4.25781-1.02246-5.31445-2.30957-5.31445-4.48828,0-2.27735,1.71679-4.38965,5.44629-4.38965s5.51171,2.27734,5.77539,4.62109h-1.64942a3.89,3.89,0,0,0-4.1914-3.10254c-2.87207,0-3.69727,1.41895-3.69727,2.73926,0,1.51758.792,2.27734,4.05957,3.06934,4.65332,1.12207,5.80859,2.64062,5.80859,5.11523,0,3.00391-2.44238,4.85254-5.90722,4.85254-3.7627,0-5.875-1.98047-6.33789-4.95117Z"/><path class="cls-3" d="M317.833,312.7793h1.65039v3.20117H317.833Zm0,7.82226h1.65039v16.502H317.833Z"/><path class="cls-3" d="M338.26172,328.81934c0,4.58789-2.541,8.68066-7.459,8.68066-4.45605,0-7.22851-3.66406-7.22851-8.64746,0-4.71973,2.60742-8.64746,7.39355-8.64746C335.35742,320.20508,338.26172,323.6377,338.26172,328.81934Zm-12.9375.0332c0,3.92773,2.1123,7.0957,5.61035,7.0957,3.56445,0,5.57813-2.9375,5.57813-7.0957,0-3.89453-1.98047-7.09668-5.64356-7.09668C327.10645,321.75586,325.32422,324.8916,325.32422,328.85254Z"/><path class="cls-3" d="M342.35156,324.75977c0-1.45215,0-2.83887-.03222-4.15821h1.61718c.06543.52735.09864,2.67285.06543,3.13477a5.39067,5.39067,0,0,1,5.47852-3.53125c2.9375,0,5.54492,1.65039,5.54492,6.20508v10.69336H353.375V326.67383c0-2.9375-1.2207-4.85156-4.0918-4.85156-3.92773,0-5.28125,3.26757-5.28125,6.86523v8.416h-1.65039Z"/><path class="cls-3" d="M107.61328,371.85156c-.792,2.9043-2.70605,5.248-6.40283,5.248-4.12549,0-7.063-3.07031-7.063-8.582,0-4.52149,2.40918-8.71289,7.26123-8.71289a5.90048,5.90048,0,0,1,6.20459,5.28125h-1.6831a4.45934,4.45934,0,0,0-4.55469-3.73047c-3.49854,0-5.479,2.9707-5.479,7.09668,0,3.92773,1.84864,7.0957,5.314,7.0957,2.40918,0,3.86133-1.2207,4.71973-3.69629Z"/><path class="cls-3" d="M122.8916,373.56738a18.84647,18.84647,0,0,0,.23145,3.13575h-1.58448a10.8561,10.8561,0,0,1-.29687-2.541c-.561,1.2207-2.01367,2.9375-5.41309,2.9375-3.82861,0-5.47851-2.47559-5.47851-4.95117,0-3.63086,2.80517-5.28028,7.75586-5.28028h3.13574v-1.68359c0-1.65039-.49512-3.86133-4.25781-3.86133-3.3335,0-3.82862,1.749-4.19141,3.10254h-1.65039c.19824-1.81543,1.32031-4.62109,5.875-4.62109,3.76221,0,5.87451,1.584,5.87451,5.21484Zm-1.61719-5.28027H118.04c-3.66358,0-5.94092.957-5.94092,3.79492,0,2.08008,1.48535,3.499,3.79541,3.499,4.71973,0,5.37988-3.13574,5.37988-6.70019Z"/><path class="cls-3" d="M140.481,371.88477c0,1.61718.03271,4.1914.03271,4.81836h-1.584a26.5355,26.5355,0,0,1-.09912-2.8711c-.69287,1.94727-2.37647,3.26758-5.314,3.26758-2.376,0-5.4126-.92481-5.4126-5.97461V360.20117h1.61719v10.52832c0,2.40918.75928,4.75293,4.02686,4.75293,3.69629,0,5.08252-2.08008,5.08252-6.7998v-8.48145H140.481Z"/><path class="cls-3" d="M145.69336,372.14844a4.37026,4.37026,0,0,0,4.68652,3.43261c2.9375,0,4.12549-1.35351,4.12549-3.20117,0-1.88183-.792-2.80566-4.48877-3.69726-4.25732-1.02246-5.31347-2.30957-5.31347-4.48828,0-2.27735,1.7163-4.38965,5.4458-4.38965s5.51171,2.27734,5.77587,4.62109h-1.65039a3.88961,3.88961,0,0,0-4.1914-3.10254c-2.87158,0-3.69678,1.41895-3.69678,2.73926,0,1.51758.792,2.27734,4.05957,3.06934,4.65381,1.12207,5.80908,2.64062,5.80908,5.11523,0,3.00391-2.44238,4.85254-5.9082,4.85254-3.76221,0-5.87451-1.98047-6.33691-4.95117Z"/><path class="cls-3" d="M160.70752,368.65039c.0332,4.25684,2.17822,6.89746,5.34668,6.89746a4.64688,4.64688,0,0,0,4.75293-3.10254h1.6831a6.32707,6.32707,0,0,1-6.50195,4.6543c-5.0166,0-6.96387-4.32422-6.96387-8.51563,0-4.71972,2.34327-8.77929,7.16211-8.77929,5.08252,0,6.69971,4.38965,6.69971,7.49219,0,.46191,0,.92382-.03271,1.35351Zm10.4624-1.45312c-.03271-3.26661-1.81494-5.8418-5.04931-5.8418-3.39991,0-4.95069,2.37695-5.314,5.8418Z"/><path class="cls-3" d="M189.81543,352.37891V371.9502c0,1.585,0,3.10253.03271,4.75293h-1.584c-.06592-.39649-.09912-1.94727-.09912-2.77247-.8252,2.01368-2.67334,3.16895-5.54492,3.16895-4.29053,0-6.86475-3.499-6.86475-8.44922,0-5.083,2.80518-8.8457,7.29395-8.8457,3.30078,0,4.6206,1.41894,5.11572,2.47558v-9.90136Zm-12.311,16.20507c0,4.52149,2.34375,6.96387,5.18213,6.96387,4.35645,0,5.54444-3.00293,5.54444-7.49219,0-4.25781-1.023-6.70019-5.24756-6.70019C179.71582,361.35547,177.50439,363.96289,177.50439,368.584Z"/><path class="cls-3" d="M203.80469,352.37891h1.6499v10.59375c.79248-1.64942,2.40967-3.168,5.644-3.168,3.89453,0,6.76612,3.20117,6.76612,8.28418,0,5.21484-2.57471,9.01074-7.19532,9.01074-2.77246,0-4.35644-1.123-5.21484-3.00391,0,1.05664-.03271,2.14551-.06592,2.60743h-1.61719c.03321-1.88086.03321-3.7627.03321-5.64356Zm12.31054,15.74316c0-4.126-2.04638-6.7666-5.18164-6.7666-4.12548,0-5.57763,2.80566-5.57763,7.12988,0,3.89453,1.28711,7.0625,5.37939,7.0625C214.06885,375.54785,216.11523,372.77539,216.11523,368.12207Z"/><path class="cls-3" d="M221.82178,360.20117c3.33349,9.43848,4.78564,13.334,5.34668,15.11621h.0332c.66016-2.01367,1.98-5.84277,5.18164-15.11621h1.71631l-6.20508,17.459c-1.749,4.88476-2.9375,5.97363-5.90771,5.97363a10.935,10.935,0,0,1-1.51807-.09863v-1.65039a10.79731,10.79731,0,0,0,1.48486.09961c2.37647,0,3.13575-1.15528,4.35694-4.55469l-6.3042-17.22852Z"/><path class="cls-3" d="M258.58545,352.37891V371.9502c0,1.585,0,3.10253.03271,4.75293h-1.584c-.06592-.39649-.09912-1.94727-.09912-2.77247-.8252,2.01368-2.67334,3.16895-5.54492,3.16895-4.29053,0-6.86475-3.499-6.86475-8.44922,0-5.083,2.80518-8.8457,7.294-8.8457,3.30078,0,4.6206,1.41894,5.11572,2.47558v-9.90136Zm-12.311,16.20507c0,4.52149,2.34375,6.96387,5.18213,6.96387,4.35645,0,5.54444-3.00293,5.54444-7.49219,0-4.25781-1.023-6.70019-5.24756-6.70019C248.48584,361.35547,246.27441,363.96289,246.27441,368.584Z"/><path class="cls-3" d="M264.35742,368.65039c.03321,4.25684,2.17871,6.89746,5.34766,6.89746a4.646,4.646,0,0,0,4.75195-3.10254h1.6836a6.32751,6.32751,0,0,1-6.502,4.6543c-5.0166,0-6.96387-4.32422-6.96387-8.51563,0-4.71972,2.34278-8.77929,7.16211-8.77929,5.083,0,6.7002,4.38965,6.7002,7.49219,0,.46191,0,.92382-.0332,1.35351Zm10.46289-1.45312c-.0332-3.26661-1.81445-5.8418-5.04883-5.8418-3.40039,0-4.95117,2.37695-5.31445,5.8418Z"/><path class="cls-3" d="M281.418,376.70313V361.752h-2.83789v-1.55078H281.418v-2.34375c0-2.77246.793-5.80859,4.48926-5.80859a6.17114,6.17114,0,0,1,1.61718.23047v1.585a8.14491,8.14491,0,0,0-1.78222-.19824c-1.94727,0-2.67383,1.38574-2.67383,4.25781v2.27734H286.666V361.752h-3.59766v14.95118Z"/><path class="cls-3" d="M302.63867,368.419c0,4.58789-2.541,8.68066-7.459,8.68066-4.45508,0-7.22754-3.66406-7.22754-8.64746,0-4.71973,2.60742-8.64746,7.39355-8.64746C299.73438,359.80469,302.63867,363.2373,302.63867,368.419Zm-12.9375.0332c0,3.92773,2.11231,7.0957,5.61133,7.0957,3.56445,0,5.57813-2.9375,5.57813-7.0957,0-3.89453-1.98047-7.09668-5.64454-7.09668C291.4834,361.35547,289.70117,364.49121,289.70117,368.45215Z"/><path class="cls-3" d="M306.72852,364.68945c0-2.77246-.03321-3.96093-.03321-4.48828h1.61719c.0332.52735.06641,1.584.06641,3.69629a6.25238,6.25238,0,0,1,5.74316-4.09277v1.78222c-3.43262.23145-5.74316,2.60743-5.74316,6.53516v8.58106h-1.65039Z"/><path class="cls-3" d="M317.51953,368.65039c.0332,4.25684,2.17871,6.89746,5.34668,6.89746a4.64642,4.64642,0,0,0,4.75293-3.10254h1.68359a6.32748,6.32748,0,0,1-6.502,4.6543c-5.01758,0-6.96484-4.32422-6.96484-8.51563,0-4.71972,2.34375-8.77929,7.16211-8.77929,5.083,0,6.70019,4.38965,6.70019,7.49219,0,.46191,0,.92382-.0332,1.35351Zm10.46289-1.45312c-.0332-3.26661-1.81543-5.8418-5.0498-5.8418-3.39942,0-4.95117,2.37695-5.31348,5.8418Z"/><path class="cls-3" d="M334.11816,372.14844a4.37128,4.37128,0,0,0,4.68653,3.43261c2.9375,0,4.126-1.35351,4.126-3.20117,0-1.88183-.792-2.80566-4.48828-3.69726-4.25781-1.02246-5.31445-2.30957-5.31445-4.48828,0-2.27735,1.7168-4.38965,5.44629-4.38965s5.51172,2.27734,5.77539,4.62109H342.7002a3.89114,3.89114,0,0,0-4.19239-3.10254c-2.87109,0-3.69629,1.41895-3.69629,2.73926,0,1.51758.792,2.27734,4.05957,3.06934,4.65332,1.12207,5.8086,2.64062,5.8086,5.11523,0,3.00391-2.44239,4.85254-5.90723,4.85254-3.76269,0-5.875-1.98047-6.33691-4.95117Z"/><path class="cls-3" d="M346.19629,360.20117h3.06934v-5.14941H350.916v5.14941h3.92675V361.752H350.916v10.72657c0,1.84863.3955,2.90429,1.97949,2.90429a6.2436,6.2436,0,0,0,1.71679-.19824v1.45215a5.78972,5.78972,0,0,1-2.04687.29785c-2.1123,0-3.2998-1.05664-3.2998-3.69727V361.752h-3.06934Z"/><path class="cls-3" d="M369.52832,373.56738a18.93276,18.93276,0,0,0,.23047,3.13575h-1.584a10.82781,10.82781,0,0,1-.29687-2.541c-.56152,1.2207-2.01367,2.9375-5.41309,2.9375-3.82812,0-5.47851-2.47559-5.47851-4.95117,0-3.63086,2.80566-5.28028,7.75586-5.28028h3.13574v-1.68359c0-1.65039-.49512-3.86133-4.25781-3.86133-3.333,0-3.82813,1.749-4.19141,3.10254h-1.65039c.19824-1.81543,1.32031-4.62109,5.875-4.62109,3.7627,0,5.875,1.584,5.875,5.21484Zm-1.61719-5.28027h-3.23437c-3.66406,0-5.94141.957-5.94141,3.79492,0,2.08008,1.48535,3.499,3.7959,3.499,4.71973,0,5.37988-3.13574,5.37988-6.70019Z"/><path class="cls-3" d="M372.332,360.20117h3.06934v-5.14941h1.65039v5.14941h3.92676V361.752h-3.92676v10.72657c0,1.84863.39551,2.90429,1.97949,2.90429a6.24367,6.24367,0,0,0,1.7168-.19824v1.45215a5.78981,5.78981,0,0,1-2.04688.29785c-2.1123,0-3.2998-1.05664-3.2998-3.69727V361.752H372.332Z"/><path class="cls-3" d="M384.34277,352.37891h1.65039v3.20117h-1.65039Zm0,7.82226h1.65039v16.502h-1.65039Z"/><path class="cls-3" d="M404.77246,368.419c0,4.58789-2.541,8.68066-7.459,8.68066-4.45606,0-7.22852-3.66406-7.22852-8.64746,0-4.71973,2.60742-8.64746,7.39356-8.64746C401.86816,359.80469,404.77246,363.2373,404.77246,368.419Zm-12.9375.0332c0,3.92773,2.11231,7.0957,5.61035,7.0957,3.56446,0,5.57813-2.9375,5.57813-7.0957,0-3.89453-1.98047-7.09668-5.64356-7.09668C393.61719,361.35547,391.835,364.49121,391.835,368.45215Z"/><path class="cls-3" d="M408.86133,364.35938c0-1.45215,0-2.83887-.03223-4.15821h1.61719c.06543.52735.09863,2.67285.06543,3.13477a5.39065,5.39065,0,0,1,5.47851-3.53125c2.9375,0,5.54493,1.65039,5.54493,6.20508v10.69336h-1.65039V366.27344c0-2.9375-1.22071-4.85156-4.0918-4.85156-3.92774,0-5.28125,3.26757-5.28125,6.86523v8.416h-1.65039Z"/></svg>