<svg id="Layer_1" data-name="Layer 1" xmlns="http://www.w3.org/2000/svg" viewBox="0 0 516.1 516.0011"><defs><style>.cls-1{fill:#93278f;}.cls-2{fill:#fff;}.cls-3{fill:#603813;stroke:#603813;}.cls-3,.cls-4,.cls-6,.cls-7{stroke-miterlimit:10;stroke-width:7px;}.cls-4{fill:#006838;stroke:#006838;}.cls-5{fill:#6d6e70;}.cls-6,.cls-7{fill:none;}.cls-6{stroke:#6d6e70;}.cls-7{stroke:#3b2314;}</style></defs><title>banana2</title><path class="cls-1" d="M258,516C115.5,516,0,400.5,0,258A257.961,257.961,0,0,1,75.6,75.6c100.8-100.8,264.1-100.8,364.9,0s100.8,264.1,0,364.9A256.49776,256.49776,0,0,1,258,516Z"/><path class="cls-2" d="M258,.5C400.3.6,515.5,116,515.4,258.2a257.624,257.624,0,0,1-157.2,237C227.1,550.5,76.1,489,20.8,357.9-34.4,227,26.9,76,157.7,20.6A258.09883,258.09883,0,0,1,258,.5m0-1C115.2-.5-.5,115.2-.5,258S115.2,516.5,258,516.5,516.5,400.8,516.5,258,400.8-.5,258-.5Z"/><polygon class="cls-1" points="292.9 141.2 280 100.8 270 104.1 280.7 136.1 292.9 141.2"/><path class="cls-2" d="M145.98389,255.80322H154.335c6.91113,0,11.69873,4.82373,11.69873,12.38233C166.03369,275.709,161.354,281,154.29883,281h-8.31494Zm1.94384,23.397h6.0835c6.65918,0,9.93457-4.67969,9.93457-10.90625,0-5.54395-2.95166-10.69092-9.93457-10.69092h-6.0835Z"/><path class="cls-2" d="M171.40039,272.2168c.03613,4.64355,2.37549,7.52343,5.83106,7.52343a5.06843,5.06843,0,0,0,5.18359-3.38378h1.83545a6.89993,6.89993,0,0,1-7.09082,5.07519c-5.47119,0-7.59522-4.71484-7.59522-9.28613,0-5.14746,2.55567-9.5752,7.811-9.5752,5.54346,0,7.30713,4.78711,7.30713,8.1709,0,.50391,0,1.00781-.03614,1.47559Zm11.41065-1.584c-.03614-3.56347-1.98-6.37109-5.50733-6.37109-3.70752,0-5.39941,2.5918-5.79541,6.37109Z"/><path class="cls-2" d="M190.01123,281V264.69434h-3.0957V263.002h3.0957v-2.55566c0-3.02344.86426-6.335,4.89551-6.335a6.72024,6.72024,0,0,1,1.76367.25195v1.728a8.93365,8.93365,0,0,0-1.94385-.21631c-2.12353,0-2.91552,1.51172-2.91552,4.64355v2.4834h3.92382v1.69239H191.811V281Z"/><path class="cls-2" d="M213.15723,271.96484c0,5.00391-2.77149,9.4668-8.13477,9.4668-4.85937,0-7.8833-3.99512-7.8833-9.43066,0-5.14746,2.84375-9.43067,8.063-9.43067C209.98975,262.57031,213.15723,266.31348,213.15723,271.96484Zm-14.11035.03614c0,4.2832,2.30371,7.73925,6.11914,7.73925,3.88769,0,6.08349-3.2041,6.08349-7.73925,0-4.24707-2.15967-7.73926-6.15527-7.73926C200.99072,264.26172,199.04688,267.68164,199.04688,272.001Z"/><path class="cls-2" d="M217.62305,267.89746c0-3.02344-.03614-4.31933-.03614-4.89551h1.76368c.03613.57618.07226,1.72852.07226,4.03223a6.81762,6.81762,0,0,1,6.26319-4.46387v1.94336c-3.74366.252-6.26319,2.84375-6.26319,7.12793V281h-1.7998Z"/><path class="cls-2" d="M229.39453,272.2168c.03613,4.64355,2.37549,7.52343,5.83106,7.52343a5.06842,5.06842,0,0,0,5.18359-3.38378h1.83545a6.89993,6.89993,0,0,1-7.09082,5.07519c-5.47119,0-7.59522-4.71484-7.59522-9.28613,0-5.14746,2.55567-9.5752,7.811-9.5752,5.54346,0,7.30713,4.78711,7.30713,8.1709,0,.50391,0,1.00781-.03613,1.47559Zm11.41065-1.584c-.03614-3.56347-1.98-6.37109-5.50733-6.37109-3.70752,0-5.39941,2.5918-5.79541,6.37109Z"/><path class="cls-2" d="M247.50244,276.03223c.61182,2.33984,2.26758,3.74414,5.11133,3.74414,3.20361,0,4.49951-1.47559,4.49951-3.49219,0-2.05176-.86377-3.05957-4.89551-4.03125-4.64355-1.11523-5.79541-2.51953-5.79541-4.89551,0-2.4834,1.87207-4.78711,5.93946-4.78711s6.01123,2.4834,6.29931,5.03907h-1.7998a4.24233,4.24233,0,0,0-4.57129-3.38282c-3.13184,0-4.03174,1.54688-4.03174,2.98731,0,1.65527.86377,2.4834,4.42725,3.34765,5.07568,1.22364,6.33545,2.87989,6.33545,5.57911,0,3.27539-2.66358,5.291-6.44336,5.291-4.10352,0-6.40723-2.15918-6.91114-5.39941Z"/><path class="cls-2" d="M260.67871,263.002h3.34766v-5.61523h1.7998V263.002h4.28321v1.69239h-4.28321v11.69824c0,2.01562.43164,3.168,2.15967,3.168a6.77725,6.77725,0,0,0,1.87158-.2168v1.584a6.31874,6.31874,0,0,1-2.23144.32422c-2.30371,0-3.59961-1.15136-3.59961-4.03125V264.69434h-3.34766Z"/><path class="cls-2" d="M286.12793,277.58008a20.58822,20.58822,0,0,0,.252,3.41992h-1.72754a11.81156,11.81156,0,0,1-.32373-2.77148c-.6123,1.332-2.1958,3.20312-5.90332,3.20312-4.17578,0-5.97558-2.69922-5.97558-5.39941,0-3.959,3.05957-5.75879,8.459-5.75879h3.41992V268.4375c0-1.7998-.54-4.21094-4.64355-4.21094-3.63574,0-4.17578,1.90723-4.57129,3.38282H273.314c.21583-1.9795,1.43946-5.03907,6.40723-5.03907,4.103,0,6.40674,1.72754,6.40674,5.6875Zm-1.76367-5.75879h-3.52735c-3.9956,0-6.47949,1.04394-6.47949,4.13965,0,2.26758,1.62012,3.81543,4.13965,3.81543,5.14746,0,5.86719-3.41992,5.86719-7.30762Z"/><path class="cls-2" d="M289.19043,263.002h3.34766v-5.61523h1.7998V263.002h4.2832v1.69239h-4.2832v11.69824c0,2.01562.43164,3.168,2.15967,3.168a6.77725,6.77725,0,0,0,1.87158-.2168v1.584a6.31881,6.31881,0,0,1-2.23144.32422c-2.30372,0-3.59961-1.15136-3.59961-4.03125V264.69434h-3.34766Z"/><path class="cls-2" d="M302.29346,254.47119h1.7998v3.4917h-1.7998Zm0,8.53076h1.7998V281h-1.7998Z"/><path class="cls-2" d="M324.5752,271.96484c0,5.00391-2.77149,9.4668-8.13477,9.4668-4.85938,0-7.8833-3.99512-7.8833-9.43066,0-5.14746,2.84375-9.43067,8.063-9.43067C321.40723,262.57031,324.5752,266.31348,324.5752,271.96484Zm-14.11036.03614c0,4.2832,2.30371,7.73925,6.11914,7.73925,3.8877,0,6.083-3.2041,6.083-7.73925,0-4.24707-2.15918-7.73926-6.15478-7.73926C312.40869,264.26172,310.46484,267.68164,310.46484,272.001Z"/><path class="cls-2" d="M329.04,267.53809c0-1.584,0-3.09571-.03516-4.53614h1.76367c.07129.57618.10743,2.916.07129,3.41993a5.87925,5.87925,0,0,1,5.97559-3.85157c3.2041,0,6.04687,1.79981,6.04687,6.76758V281h-1.7998V269.625c0-3.20312-1.33105-5.291-4.46289-5.291-4.2832,0-5.75977,3.56348-5.75977,7.48731V281H329.04Z"/><path class="cls-2" d="M372.707,271.96484c0,5.00391-2.77246,9.4668-8.13574,9.4668-4.85938,0-7.88281-3.99512-7.88281-9.43066,0-5.14746,2.84375-9.43067,8.06347-9.43067C369.53906,262.57031,372.707,266.31348,372.707,271.96484Zm-14.11035.03614c0,4.2832,2.30371,7.73925,6.11914,7.73925,3.8877,0,6.083-3.2041,6.083-7.73925,0-4.24707-2.16016-7.73926-6.15528-7.73926C360.54,264.26172,358.59668,267.68164,358.59668,272.001Z"/><path class="cls-2" d="M377.92773,281V264.69434H374.832V263.002h3.0957v-2.55566c0-3.02344.86329-6.335,4.89551-6.335a6.73228,6.73228,0,0,1,1.76367.25195v1.728a8.93791,8.93791,0,0,0-1.94433-.21631c-2.12305,0-2.915,1.51172-2.915,4.64355v2.4834h3.92285v1.69239h-3.92285V281Z"/><path class="cls-2" d="M121.86426,311.09766c0-3.02344-.03613-4.31934-.03613-4.89551h1.76367c.03613.57617.07226,1.72851.07226,4.03223a6.8176,6.8176,0,0,1,6.26319-4.46387v1.94336c-3.74366.252-6.26319,2.84375-6.26319,7.12793v9.3584h-1.7998Z"/><path class="cls-2" d="M145.26221,320.78027a20.518,20.518,0,0,0,.25244,3.41993h-1.728a11.81177,11.81177,0,0,1-.32373-2.77149c-.6123,1.332-2.1958,3.20313-5.90332,3.20313-4.17578,0-5.97559-2.69922-5.97559-5.39942,0-3.959,3.05957-5.75879,8.459-5.75879h3.41992V311.6377c0-1.79981-.54-4.21094-4.64355-4.21094-3.63575,0-4.17579,1.90722-4.57129,3.38281h-1.79981c.21582-1.97949,1.43946-5.03906,6.40723-5.03906,4.103,0,6.40674,1.72754,6.40674,5.6875Zm-1.76367-5.75879h-3.52735c-3.9956,0-6.47949,1.04395-6.47949,4.13965,0,2.26758,1.62012,3.81543,4.13965,3.81543,5.14746,0,5.86719-3.41992,5.86719-7.30761Z"/><path class="cls-2" d="M151.20361,297.67188h1.79981v3.49121h-1.79981Zm0,8.53027h1.79981v17.998h-1.79981Z"/><path class="cls-2" d="M158.90723,310.73828c0-1.584,0-3.0957-.03614-4.53613h1.76368c.07226.57617.10839,2.916.07226,3.41992a5.8781,5.8781,0,0,1,5.9751-3.85156c3.20361,0,6.04736,1.7998,6.04736,6.76758V324.2002h-1.7998v-11.375c0-3.20313-1.332-5.291-4.46338-5.291-4.28369,0-5.75928,3.56348-5.75928,7.4873v9.17872h-1.7998Z"/><path class="cls-2" d="M179.103,324.2002V307.89453h-3.09571v-1.69238H179.103v-2.55567c0-3.02343.86426-6.335,4.89551-6.335a6.74038,6.74038,0,0,1,1.76367.252V299.291a8.96261,8.96261,0,0,0-1.94385-.21582c-2.12354,0-2.91553,1.51171-2.91553,4.64355v2.4834h3.92383v1.69238h-3.92383V324.2002Z"/><path class="cls-2" d="M202.249,315.165c0,5.00391-2.77148,9.4668-8.13476,9.4668-4.85938,0-7.8833-3.99512-7.8833-9.43067,0-5.14746,2.84375-9.43066,8.063-9.43066C199.08154,305.77051,202.249,309.51367,202.249,315.165Zm-14.11035.03613c0,4.28321,2.30371,7.73926,6.11914,7.73926,3.8877,0,6.0835-3.2041,6.0835-7.73926,0-4.24707-2.15967-7.73926-6.15527-7.73926C190.08252,307.46191,188.13867,310.88184,188.13867,315.20117Z"/><path class="cls-2" d="M206.71436,311.09766c0-3.02344-.03614-4.31934-.03614-4.89551h1.76367c.03614.57617.07227,1.72851.07227,4.03223a6.8176,6.8176,0,0,1,6.26318-4.46387v1.94336c-3.74365.252-6.26318,2.84375-6.26318,7.12793v9.3584h-1.7998Z"/><path class="cls-2" d="M218.48633,315.417c.03613,4.64356,2.37549,7.52344,5.83105,7.52344a5.06843,5.06843,0,0,0,5.1836-3.38379h1.83545a6.89993,6.89993,0,0,1-7.09082,5.0752c-5.4712,0-7.59522-4.71485-7.59522-9.28614,0-5.14746,2.55566-9.57519,7.811-9.57519,5.54345,0,7.30712,4.78711,7.30712,8.1709,0,.5039,0,1.00781-.03613,1.47558Zm11.41064-1.583c-.03613-3.56445-1.98-6.37207-5.50732-6.37207-3.70752,0-5.39942,2.5918-5.79541,6.37207Z"/><path class="cls-2" d="M236.59375,319.23242c.61182,2.33985,2.26758,3.74414,5.11133,3.74414,3.20361,0,4.49951-1.47558,4.49951-3.49218,0-2.05176-.86377-3.05958-4.89551-4.03125-4.64355-1.11524-5.79541-2.51954-5.79541-4.89551,0-2.4834,1.87207-4.78711,5.93946-4.78711s6.01123,2.4834,6.29931,5.03906h-1.7998a4.24233,4.24233,0,0,0-4.57129-3.38281c-3.13184,0-4.03174,1.54687-4.03174,2.9873,0,1.65528.86377,2.4834,4.42725,3.34766,5.07568,1.22363,6.33544,2.87988,6.33544,5.5791,0,3.27539-2.66357,5.291-6.44335,5.291-4.10352,0-6.40723-2.15918-6.91114-5.39942Z"/><path class="cls-2" d="M249.77,306.20215h3.34766v-5.61524h1.7998v5.61524h4.2832v1.69238h-4.2832v11.69824c0,2.01563.43164,3.168,2.15967,3.168a6.77723,6.77723,0,0,0,1.87158-.21679v1.584a6.319,6.319,0,0,1-2.23144.32422c-2.30372,0-3.59961-1.15137-3.59961-4.03125V307.89453H249.77Z"/><path class="cls-2" d="M263.48535,319.23242c.61182,2.33985,2.26758,3.74414,5.11133,3.74414,3.20361,0,4.49951-1.47558,4.49951-3.49218,0-2.05176-.86377-3.05958-4.89551-4.03125-4.64355-1.11524-5.79541-2.51954-5.79541-4.89551,0-2.4834,1.87207-4.78711,5.93946-4.78711s6.01123,2.4834,6.29931,5.03906h-1.7998a4.24233,4.24233,0,0,0-4.57129-3.38281c-3.13184,0-4.03174,1.54687-4.03174,2.9873,0,1.65528.86377,2.4834,4.42725,3.34766,5.07568,1.22363,6.33545,2.87988,6.33545,5.5791,0,3.27539-2.66358,5.291-6.44336,5.291-4.10352,0-6.40723-2.15918-6.91114-5.39942Z"/><path class="cls-2" d="M286.12891,306.20215h3.34765v-5.61524h1.79981v5.61524h4.2832v1.69238h-4.2832v11.69824c0,2.01563.43164,3.168,2.15967,3.168a6.77731,6.77731,0,0,0,1.87158-.21679v1.584a6.31906,6.31906,0,0,1-2.23145.32422c-2.30371,0-3.59961-1.15137-3.59961-4.03125V307.89453h-3.34765Z"/><path class="cls-2" d="M313.59424,315.165c0,5.00391-2.77149,9.4668-8.13477,9.4668-4.85937,0-7.8833-3.99512-7.8833-9.43067,0-5.14746,2.84375-9.43066,8.063-9.43066C310.42676,305.77051,313.59424,309.51367,313.59424,315.165Zm-14.11035.03613c0,4.28321,2.30371,7.73926,6.11914,7.73926,3.88769,0,6.08349-3.2041,6.08349-7.73926,0-4.24707-2.15966-7.73926-6.15527-7.73926C301.42773,307.46191,299.48389,310.88184,299.48389,315.20117Z"/><path class="cls-2" d="M327.419,310.8457c0-1.54785,0-3.23925-.03516-4.64355h1.76367c.03613.6123.10742,2.16015.07129,3.2041a5.6298,5.6298,0,0,1,5.39941-3.63574,5.10834,5.10834,0,0,1,5.21973,3.56347,6.12325,6.12325,0,0,1,5.86719-3.56347c2.77148,0,5.65137,1.584,5.65137,6.58691V324.2002h-1.79981v-11.627c0-2.41113-.86426-5.03906-4.21191-5.03906-3.49121,0-5.0752,2.80762-5.0752,6.2998V324.2002h-1.76367V312.60938c0-2.627-.792-5.0752-4.10352-5.0752-3.49121,0-5.18359,3.0957-5.18359,6.76758v9.89844H327.419Z"/><path class="cls-2" d="M369.39355,320.78027a20.64331,20.64331,0,0,0,.252,3.41993H367.918a11.85724,11.85724,0,0,1-.32422-2.77149c-.61133,1.332-2.19531,3.20313-5.90332,3.20313-4.1748,0-5.97461-2.69922-5.97461-5.39942,0-3.959,3.05957-5.75879,8.459-5.75879h3.41895V311.6377c0-1.79981-.54-4.21094-4.64355-4.21094-3.63477,0-4.17481,1.90722-4.57129,3.38281H356.5791c.21582-1.97949,1.44043-5.03906,6.40723-5.03906,4.10351,0,6.40722,1.72754,6.40722,5.6875Zm-1.76367-5.75879h-3.52734c-3.99512,0-6.47949,1.04395-6.47949,4.13965,0,2.26758,1.62011,3.81543,4.13965,3.81543,5.14746,0,5.86718-3.41992,5.86718-7.30761Z"/><path class="cls-2" d="M377.13477,315.48926c1.65625-1.76367,6.69531-6.875,9.10742-9.28711h2.30371l-7.127,7.16308,8.02636,10.835h-2.23144l-7.09082-9.68262-2.98828,2.87988v6.80274H375.335V297.67188h1.79981Z"/><path class="cls-2" d="M392.36328,315.417c.03613,4.64356,2.376,7.52344,5.83106,7.52344a5.06887,5.06887,0,0,0,5.18359-3.38379h1.83594a6.90075,6.90075,0,0,1-7.0918,5.0752c-5.4707,0-7.59473-4.71485-7.59473-9.28614,0-5.14746,2.55567-9.57519,7.81153-9.57519,5.543,0,7.30664,4.78711,7.30664,8.1709,0,.5039,0,1.00781-.03613,1.47558Zm11.41016-1.583c-.03614-3.56445-1.97949-6.37207-5.50684-6.37207-3.708,0-5.39941,2.5918-5.7959,6.37207Z"/><path class="cls-2" d="M135.43555,354.29785c0-3.02344-.03614-4.31933-.03614-4.89551h1.76368c.03613.57618.07226,1.72852.07226,4.03223a6.81763,6.81763,0,0,1,6.26319-4.46387v1.94336c-3.74366.252-6.26319,2.84375-6.26319,7.12793v9.3584h-1.7998Z"/><path class="cls-2" d="M161.38965,358.36523c0,5.00391-2.77149,9.4668-8.13477,9.4668-4.85937,0-7.8833-3.99512-7.8833-9.43066,0-5.14746,2.84375-9.43067,8.063-9.43067C158.22217,348.9707,161.38965,352.71387,161.38965,358.36523Zm-14.11035.03614c0,4.2832,2.30371,7.73926,6.11914,7.73926,3.88769,0,6.08349-3.20411,6.08349-7.73926,0-4.24707-2.15966-7.73926-6.15527-7.73926C149.22314,350.66211,147.2793,354.082,147.2793,358.40137Z"/><path class="cls-2" d="M180.64893,358.36523c0,5.00391-2.77149,9.4668-8.13477,9.4668-4.85937,0-7.8833-3.99512-7.8833-9.43066,0-5.14746,2.84375-9.43067,8.063-9.43067C177.48145,348.9707,180.64893,352.71387,180.64893,358.36523Zm-14.11036.03614c0,4.2832,2.30372,7.73926,6.11914,7.73926,3.8877,0,6.0835-3.20411,6.0835-7.73926,0-4.24707-2.15967-7.73926-6.15527-7.73926C168.48242,350.66211,166.53857,354.082,166.53857,358.40137Z"/><path class="cls-2" d="M185.11475,354.0459c0-1.54785,0-3.23926-.03614-4.64356h1.76368c.03613.61231.10839,2.16016.07226,3.20411a5.62929,5.62929,0,0,1,5.39941-3.63575,5.10851,5.10851,0,0,1,5.21924,3.56348,6.12428,6.12428,0,0,1,5.86719-3.56348c2.77149,0,5.65137,1.584,5.65137,6.58692v11.84277H207.252v-11.627c0-2.41114-.86377-5.03906-4.21142-5.03906-3.4917,0-5.0752,2.80761-5.0752,6.29882v10.36719h-1.76416V355.80957c0-2.627-.792-5.07519-4.10351-5.07519-3.49121,0-5.18311,3.0957-5.18311,6.76757v9.89844h-1.7998Z"/><path class="cls-2" d="M224.78613,367.40039V351.09473h-3.0957v-1.69239h3.0957v-2.55566c0-3.02344.86426-6.335,4.89551-6.335a6.74075,6.74075,0,0,1,1.76367.25195v1.72754a8.96323,8.96323,0,0,0-1.94385-.21582c-2.12353,0-2.91552,1.51172-2.91552,4.64356v2.48339h3.92383v1.69239h-3.92383v16.30566Z"/><path class="cls-2" d="M247.93213,358.36523c0,5.00391-2.77149,9.4668-8.13477,9.4668-4.85937,0-7.8833-3.99512-7.8833-9.43066,0-5.14746,2.84375-9.43067,8.063-9.43067C244.76465,348.9707,247.93213,352.71387,247.93213,358.36523Zm-14.11035.03614c0,4.2832,2.30371,7.73926,6.11914,7.73926,3.88769,0,6.08349-3.20411,6.08349-7.73926,0-4.24707-2.15966-7.73926-6.15527-7.73926C235.76563,350.66211,233.82178,354.082,233.82178,358.40137Z"/><path class="cls-2" d="M252.39746,354.29785c0-3.02344-.03613-4.31933-.03613-4.89551H254.125c.03613.57618.07227,1.72852.07227,4.03223a6.81761,6.81761,0,0,1,6.26318-4.46387v1.94336c-3.74365.252-6.26318,2.84375-6.26318,7.12793v9.3584h-1.79981Z"/><path class="cls-2" d="M273.4209,340.87207h1.7998v11.55371c.86377-1.79883,2.62744-3.45508,6.15528-3.45508,4.24756,0,7.3789,3.49121,7.3789,9.03516,0,5.68652-2.80761,9.82617-7.84717,9.82617-3.02343,0-4.751-1.22363-5.687-3.27539,0,1.15234-.03613,2.33984-.07226,2.84375h-1.76367c.03613-2.05176.03613-4.10351.03613-6.15527ZM286.84717,358.042c0-4.5-2.23194-7.37988-5.65137-7.37988-4.49951,0-6.083,3.05957-6.083,7.77539,0,4.24707,1.40381,7.70313,5.86719,7.70313C284.61523,366.14063,286.84717,363.11719,286.84717,358.042Z"/><path class="cls-2" d="M305.56689,363.98047a20.51751,20.51751,0,0,0,.25245,3.41992h-1.728a11.81156,11.81156,0,0,1-.32373-2.77148c-.61231,1.332-2.1958,3.20312-5.90332,3.20312-4.17578,0-5.97559-2.69922-5.97559-5.39941,0-3.959,3.05957-5.75879,8.459-5.75879h3.41992v-1.83594c0-1.7998-.54-4.21094-4.64356-4.21094-3.63574,0-4.17578,1.90723-4.57129,3.38282h-1.7998c.21582-1.9795,1.43945-5.03907,6.40723-5.03907,4.103,0,6.40673,1.72754,6.40673,5.6875Zm-1.76367-5.75879h-3.52734c-3.99561,0-6.47949,1.04395-6.47949,4.13965,0,2.26758,1.62011,3.81543,4.13965,3.81543,5.14746,0,5.86718-3.41992,5.86718-7.30762Z"/><path class="cls-2" d="M311.5083,353.93848c0-1.584,0-3.09571-.03613-4.53614h1.76367c.07227.57618.1084,2.916.07227,3.41993a5.87809,5.87809,0,0,1,5.97509-3.85157c3.2041,0,6.04688,1.79981,6.04688,6.76758v11.66211h-1.79883v-11.375c0-3.20312-1.332-5.291-4.46387-5.291-4.28369,0-5.75927,3.56347-5.75927,7.4873v9.17871H311.5083Z"/><path class="cls-2" d="M343.36621,363.98047a20.64348,20.64348,0,0,0,.25195,3.41992h-1.72753a11.85646,11.85646,0,0,1-.32422-2.77148c-.61133,1.332-2.19532,3.20312-5.90332,3.20312-4.17481,0-5.97461-2.69922-5.97461-5.39941,0-3.959,3.05957-5.75879,8.459-5.75879h3.41895v-1.83594c0-1.7998-.54-4.21094-4.64356-4.21094-3.63476,0-4.1748,1.90723-4.57129,3.38282h-1.7998c.21582-1.9795,1.44043-5.03907,6.40722-5.03907,4.10352,0,6.40723,1.72754,6.40723,5.6875Zm-1.76367-5.75879H338.0752c-3.99512,0-6.4795,1.04395-6.4795,4.13965,0,2.26758,1.62012,3.81543,4.13965,3.81543,5.14746,0,5.86719-3.41992,5.86719-7.30762Z"/><path class="cls-2" d="M349.30762,353.93848c0-1.584,0-3.09571-.03516-4.53614h1.76367c.07129.57618.10742,2.916.07129,3.41993a5.87924,5.87924,0,0,1,5.97559-3.85157c3.2041,0,6.04687,1.79981,6.04687,6.76758v11.66211h-1.7998v-11.375c0-3.20312-1.33106-5.291-4.46289-5.291-4.28321,0-5.75977,3.56347-5.75977,7.4873v9.17871h-1.7998Z"/><path class="cls-2" d="M381.166,363.98047a20.64348,20.64348,0,0,0,.252,3.41992h-1.72754a11.85762,11.85762,0,0,1-.32422-2.77148c-.61133,1.332-2.19531,3.20312-5.90332,3.20312-4.1748,0-5.97461-2.69922-5.97461-5.39941,0-3.959,3.05957-5.75879,8.459-5.75879h3.41894v-1.83594c0-1.7998-.54-4.21094-4.64355-4.21094-3.63477,0-4.17481,1.90723-4.57129,3.38282h-1.79981c.21582-1.9795,1.44043-5.03907,6.40723-5.03907,4.10351,0,6.40723,1.72754,6.40723,5.6875Zm-1.76368-5.75879H375.875c-3.99512,0-6.47949,1.04395-6.47949,4.13965,0,2.26758,1.62012,3.81543,4.13965,3.81543,5.14746,0,5.86718-3.41992,5.86718-7.30762Z"/><path class="cls-2" d="M184.52051,407.93555v9.86328H182.7207V397.0293c0-1.47559,0-3.05957-.03613-4.42774h1.76367c.07227.68457.07227,1.76367.07227,3.24024a6.61136,6.61136,0,0,1,6.335-3.67188c4.24756,0,7.19922,3.56348,7.19922,8.96289,0,6.47949-3.45557,9.89844-7.811,9.89844C187.07617,411.03125,185.42041,409.62793,184.52051,407.93555Zm11.62646-6.73047c0-4.17578-2.01562-7.30762-5.5791-7.30762-4.35547,0-6.15527,2.73633-6.15527,7.63086,0,4.82422,1.40381,7.81152,5.90332,7.81152C194.05908,409.33984,196.147,406.17188,196.147,401.20508Z"/><path class="cls-2" d="M202.55664,410.59961V384.07129h1.79981v26.52832Z"/><path class="cls-2" d="M222.35449,407.17969a20.58791,20.58791,0,0,0,.252,3.41992h-1.72754a11.81041,11.81041,0,0,1-.32373-2.77148c-.61231,1.332-2.1958,3.20312-5.90332,3.20312-4.17579,0-5.97559-2.69922-5.97559-5.39941,0-3.959,3.05957-5.75879,8.459-5.75879h3.41993v-1.83594c0-1.79981-.54-4.21094-4.64356-4.21094-3.63574,0-4.17578,1.90723-4.57129,3.38281h-1.7998c.21582-1.97949,1.43945-5.03906,6.40722-5.03906,4.103,0,6.40674,1.72754,6.40674,5.6875Zm-1.76367-5.75879h-3.52734c-3.99561,0-6.4795,1.04394-6.4795,4.13965,0,2.26758,1.62012,3.81543,4.13965,3.81543,5.14746,0,5.86719-3.41993,5.86719-7.30762Z"/><path class="cls-2" d="M228.29639,397.1377c0-1.584,0-3.09571-.03614-4.53614h1.76368c.07226.57617.10839,2.916.07226,3.41992a5.87811,5.87811,0,0,1,5.9751-3.85156c3.20361,0,6.04736,1.79981,6.04736,6.76758v11.66211h-1.7998v-11.375c0-3.20313-1.332-5.291-4.46338-5.291-4.28369,0-5.75928,3.56348-5.75928,7.48731v9.17871h-1.7998Z"/><path class="cls-2" d="M245.2168,392.60156h3.34765v-5.61523h1.79981v5.61523h4.2832V394.294h-4.2832v11.69824c0,2.01562.43164,3.168,2.15967,3.168a6.77733,6.77733,0,0,0,1.87158-.2168v1.584a6.31883,6.31883,0,0,1-2.23145.32422c-2.30371,0-3.59961-1.15136-3.59961-4.03125V394.294H245.2168Z"/><path class="cls-2" d="M270.666,407.17969a20.58822,20.58822,0,0,0,.252,3.41992h-1.72754a11.81156,11.81156,0,0,1-.32373-2.77148c-.61231,1.332-2.1958,3.20312-5.90332,3.20312-4.17578,0-5.97559-2.69922-5.97559-5.39941,0-3.959,3.05957-5.75879,8.459-5.75879h3.41992v-1.83594c0-1.79981-.54-4.21094-4.64356-4.21094-3.63574,0-4.17578,1.90723-4.57128,3.38281h-1.79981c.21582-1.97949,1.43945-5.03906,6.40723-5.03906,4.103,0,6.40674,1.72754,6.40674,5.6875Zm-1.76368-5.75879H265.375c-3.99561,0-6.47949,1.04394-6.47949,4.13965,0,2.26758,1.62012,3.81543,4.13965,3.81543,5.14746,0,5.86718-3.41993,5.86718-7.30762Z"/><path class="cls-2" d="M273.72852,392.60156h3.34765v-5.61523H278.876v5.61523h4.2832V394.294H278.876v11.69824c0,2.01562.43164,3.168,2.15966,3.168a6.77736,6.77736,0,0,0,1.87159-.2168v1.584a6.31883,6.31883,0,0,1-2.23145.32422c-2.30371,0-3.59961-1.15136-3.59961-4.03125V394.294h-3.34765Z"/><path class="cls-2" d="M286.83154,384.07129h1.79981v3.49121h-1.79981Zm0,8.53027h1.79981v17.998h-1.79981Z"/><path class="cls-2" d="M309.11328,401.56445c0,5.00391-2.77148,9.4668-8.13476,9.4668-4.85938,0-7.88331-3.99512-7.88331-9.43066,0-5.14746,2.84375-9.43067,8.063-9.43067C305.9458,392.16992,309.11328,395.91309,309.11328,401.56445Zm-14.11035.03614c0,4.2832,2.30371,7.73925,6.11914,7.73925,3.8877,0,6.0835-3.2041,6.0835-7.73925,0-4.24707-2.15967-7.73926-6.15528-7.73926C296.94678,393.86133,295.00293,397.28125,295.00293,401.60059Z"/><path class="cls-2" d="M313.57861,397.1377c0-1.584,0-3.09571-.03613-4.53614h1.76367c.07227.57617.1084,2.916.07227,3.41992a5.87855,5.87855,0,0,1,5.9751-3.85156c3.2041,0,6.04687,1.79981,6.04687,6.76758v11.66211h-1.79883v-11.375c0-3.20313-1.332-5.291-4.46386-5.291-4.2837,0-5.75928,3.56348-5.75928,7.48731v9.17871h-1.79981Z"/><path class="cls-2" d="M333.19824,405.63184c.61231,2.33984,2.26856,3.74414,5.11231,3.74414,3.20312,0,4.499-1.47559,4.499-3.49219,0-2.05176-.86426-3.05957-4.89551-4.03125-4.64355-1.11524-5.79492-2.51953-5.79492-4.89551,0-2.4834,1.87109-4.78711,5.93848-4.78711,4.06836,0,6.01172,2.4834,6.2998,5.03906h-1.7998a4.24233,4.24233,0,0,0-4.57129-3.38281c-3.13184,0-4.03125,1.54688-4.03125,2.98731,0,1.65527.86328,2.4834,4.42676,3.34765,5.07519,1.22364,6.335,2.87989,6.335,5.5791,0,3.2754-2.66309,5.291-6.44239,5.291-4.10351,0-6.40722-2.15918-6.91113-5.39941Z"/><rect class="cls-3" x="272.23702" y="138.53751" width="23.12115" height="45.41204"/><polygon class="cls-4" points="88.024 183.95 259.741 161.367 219.158 64.762 88.024 183.95"/><rect class="cls-3" x="236.91352" y="109.80655" width="23.12115" height="7.42205" transform="translate(264.83147 -159.16916) rotate(68.87912)"/><polyline class="cls-5" points="278.646 125.577 283.358 130.372 284.426 123.735 289.139 128.53 290.21 121.891 294.923 126.686 295.992 120.048 300.706 124.843 301.776 118.204 306.49 122.999 307.559 116.361 312.275 121.155 313.344 114.517 318.06 119.311 319.13 112.673 323.843 117.468 324.912 110.83 329.622 115.626 330.691 108.988 335.406 113.782 336.475 107.144 341.19 111.939 342.26 105.3 346.977 110.094 348.048 103.455 352.765 108.249 353.839 101.61 358.557 106.403 359.627 99.765 364.345 104.558 365.419 97.919 370.138 102.712 371.217 96.07 375.941 100.862"/><polyline class="cls-6" points="278.646 125.577 283.358 130.372 284.426 123.735 289.139 128.53 290.21 121.891 294.923 126.686 295.992 120.048 300.706 124.843 301.776 118.204 306.49 122.999 307.559 116.361 312.275 121.155 313.344 114.517 318.06 119.311 319.13 112.673 323.843 117.468 324.912 110.83 329.622 115.626 330.691 108.988 335.406 113.782 336.475 107.144 341.19 111.939 342.26 105.3 346.977 110.094 348.048 103.455 352.765 108.249 353.839 101.61 358.557 106.403 359.627 99.765 364.345 104.558 365.419 97.919 370.138 102.712 371.217 96.07 375.941 100.862"/><polygon class="cls-5" points="280.972 126.004 274.254 109.171 367.076 79.963 375.721 100.007 280.972 126.004"/><polygon class="cls-7" points="367.835 77.039 377.918 106.323 388.171 101.516 380.917 74.082 367.835 77.039"/><polygon class="cls-1" points="284.93 135.686 273.198 99.092 264.072 102.072 273.849 131.123 284.93 135.686"/></svg>