<svg id="Layer_1" data-name="Layer 1" xmlns="http://www.w3.org/2000/svg" viewBox="0 0 517 517"><defs><style>.cls-1{fill:#2e3192;}.cls-2{fill:#fff;}</style></defs><title>blue circle</title><path class="cls-1" d="M258.5,516.5A258.00006,258.00006,0,0,1,76.06641,76.06641,258.00006,258.00006,0,0,1,440.93359,440.93359,256.313,256.313,0,0,1,258.5,516.5Z"/><path class="cls-2" d="M258.5,1A257.56816,257.56816,0,0,1,358.73035,495.76477,257.56695,257.56695,0,0,1,158.26965,21.2352,255.88784,255.88784,0,0,1,258.5,1m0-1C115.73441,0,0,115.73441,0,258.5S115.73441,517,258.5,517,517,401.26563,517,258.5,401.26563,0,258.5,0Z"/></svg>