<svg id="Layer_1" data-name="Layer 1" xmlns="http://www.w3.org/2000/svg" viewBox="0 0 516.1 516.0011"><defs><style>.cls-1{fill:#2e3192;}.cls-2{fill:#fff;}.cls-3{fill:#ffefdf;stroke:#c3996b;stroke-miterlimit:10;stroke-width:9px;}</style></defs><title>bread1</title><path class="cls-1" d="M258,516C115.5,516,0,400.5,0,258A257.961,257.961,0,0,1,75.6,75.6c100.8-100.8,264.1-100.8,364.9,0s100.8,264.1,0,364.9A256.49776,256.49776,0,0,1,258,516Z"/><path class="cls-2" d="M258,.5C400.3.6,515.5,116,515.4,258.2a257.624,257.624,0,0,1-157.2,237C227.1,550.5,76.1,489,20.8,357.9-34.4,227,26.9,76,157.7,20.6A258.09883,258.09883,0,0,1,258,.5m0-1C115.2-.5-.5,115.2-.5,258S115.2,516.5,258,516.5,516.5,400.8,516.5,258,400.8-.5,258-.5Z"/><path class="cls-2" d="M128.07373,246.562h8.35107c6.91114,0,11.69874,4.82373,11.69874,12.38233,0,7.52343-4.67969,12.81445-11.73487,12.81445h-8.31494Zm1.94385,23.397h6.08349c6.65918,0,9.93457-4.67968,9.93457-10.90625,0-5.54394-2.95166-10.69091-9.93457-10.69091h-6.08349Z"/><path class="cls-2" d="M153.48975,262.97559c.03613,4.64355,2.37548,7.52343,5.83105,7.52343a5.0684,5.0684,0,0,0,5.18359-3.38379h1.83545a6.89992,6.89992,0,0,1-7.09082,5.0752c-5.47119,0-7.59521-4.71484-7.59521-9.28613,0-5.14746,2.55566-9.5752,7.811-9.5752,5.54346,0,7.30713,4.78711,7.30713,8.1709,0,.50391,0,1.00781-.03613,1.47559Zm11.41064-1.584c-.03613-3.56347-1.98-6.37109-5.50732-6.37109-3.70752,0-5.39942,2.59179-5.79541,6.37109Z"/><path class="cls-2" d="M171.166,258.4043c0-1.54785,0-3.23926-.03614-4.64356h1.76367c.03614.61231.1084,2.16016.07227,3.2041a5.6293,5.6293,0,0,1,5.39941-3.63574,5.10851,5.10851,0,0,1,5.21924,3.56348,6.12428,6.12428,0,0,1,5.86719-3.56348c2.77148,0,5.65137,1.584,5.65137,6.58692v11.84277h-1.79981V260.13184c0-2.41114-.86377-5.03907-4.21142-5.03907-3.4917,0-5.0752,2.80762-5.0752,6.29883v10.36719h-1.76416V260.168c0-2.627-.792-5.0752-4.10351-5.0752-3.49122,0-5.18311,3.09571-5.18311,6.76758v9.89844H171.166Z"/><path class="cls-2" d="M213.14014,268.33887a20.58822,20.58822,0,0,0,.25195,3.41992h-1.72754a11.81159,11.81159,0,0,1-.32373-2.77149c-.6123,1.332-2.1958,3.20313-5.90332,3.20313-4.17578,0-5.97559-2.69922-5.97559-5.39941,0-3.959,3.05957-5.75879,8.459-5.75879h3.41992v-1.83594c0-1.79981-.54-4.21094-4.64355-4.21094-3.63575,0-4.17579,1.90723-4.57129,3.38281h-1.79981c.21582-1.97949,1.43946-5.03906,6.40723-5.03906,4.103,0,6.40674,1.72754,6.40674,5.6875Zm-1.76368-5.75879h-3.52734c-3.9956,0-6.47949,1.04394-6.47949,4.13965,0,2.26757,1.62012,3.81543,4.13965,3.81543,5.14746,0,5.86718-3.41993,5.86718-7.30762Z"/><path class="cls-2" d="M219.08154,258.29688c0-1.584,0-3.09571-.03613-4.53614h1.76367c.07227.57617.1084,2.916.07227,3.41992a5.87811,5.87811,0,0,1,5.9751-3.85156c3.20361,0,6.04736,1.79981,6.04736,6.76758v11.66211H231.104v-11.375c0-3.20313-1.332-5.291-4.46337-5.291-4.2837,0-5.75928,3.56348-5.75928,7.48731v9.17871h-1.79981Z"/><path class="cls-2" d="M252.70361,245.23V266.5752c0,1.72851,0,3.38378.03614,5.18359h-1.72754c-.07227-.43164-.1084-2.124-.1084-3.02344-.8999,2.19531-2.91553,3.45508-6.04688,3.45508-4.67968,0-7.4873-3.81543-7.4873-9.21484,0-5.543,3.05957-9.64649,7.95508-9.64649,3.59961,0,5.03955,1.54785,5.5791,2.69922V245.23ZM239.27734,262.9043c0,4.93066,2.55567,7.59472,5.65137,7.59472,4.75147,0,6.04736-3.27539,6.04736-8.17089,0-4.64356-1.11572-7.30762-5.72314-7.30762C241.689,255.02051,239.27734,257.86426,239.27734,262.9043Z"/><path class="cls-2" d="M268.43652,271.75879V255.45313h-3.0957v-1.69239h3.0957v-2.55566c0-3.02344.86426-6.335,4.89551-6.335a6.72024,6.72024,0,0,1,1.76367.252v1.728a8.933,8.933,0,0,0-1.94384-.21631c-2.12354,0-2.91553,1.51172-2.91553,4.64355v2.4834h3.92383v1.69239h-3.92383v16.30566Z"/><path class="cls-2" d="M291.58252,262.72363c0,5.00391-2.77148,9.4668-8.13477,9.4668-4.85937,0-7.8833-3.99512-7.8833-9.43066,0-5.14747,2.84375-9.43067,8.063-9.43067C288.415,253.3291,291.58252,257.07227,291.58252,262.72363Zm-14.11035.03614c0,4.2832,2.30371,7.73925,6.11914,7.73925,3.88769,0,6.08349-3.2041,6.08349-7.73925,0-4.24707-2.15966-7.73926-6.15527-7.73926C279.416,255.02051,277.47217,258.44043,277.47217,262.75977Z"/><path class="cls-2" d="M296.04785,258.65625c0-3.02344-.03613-4.31934-.03613-4.89551h1.76367c.03613.57617.07227,1.72852.07227,4.03223a6.81759,6.81759,0,0,1,6.26318-4.46387v1.94336c-3.74365.25195-6.26318,2.84375-6.26318,7.12793v9.3584h-1.79981Z"/><path class="cls-2" d="M317.0708,245.23h1.79981v11.5542c.86425-1.79883,2.62793-3.45508,6.15527-3.45508,4.24805,0,7.37988,3.49121,7.37988,9.03516,0,5.68652-2.80762,9.82617-7.84765,9.82617-3.02344,0-4.751-1.22363-5.6875-3.27539,0,1.15234-.03516,2.33984-.07129,2.84375h-1.76368c.03516-2.05176.03516-4.10352.03516-6.15527Zm13.42676,17.17041c0-4.5-2.23145-7.37988-5.65137-7.37988-4.499,0-6.083,3.05957-6.083,7.77539,0,4.24707,1.40332,7.70312,5.86719,7.70312C328.26611,270.499,330.49756,267.47559,330.49756,262.40039Z"/><path class="cls-2" d="M336.87061,258.65625c0-3.02344-.03516-4.31934-.03516-4.89551h1.76367c.03613.57617.07129,1.72852.07129,4.03223a6.81776,6.81776,0,0,1,6.26367-4.46387v1.94336c-3.74316.25195-6.26367,2.84375-6.26367,7.12793v9.3584h-1.7998Z"/><path class="cls-2" d="M348.64307,262.97559c.03613,4.64355,2.376,7.52343,5.83105,7.52343a5.06886,5.06886,0,0,0,5.18359-3.38379h1.83594a6.90074,6.90074,0,0,1-7.09179,5.0752c-5.47071,0-7.59473-4.71484-7.59473-9.28613,0-5.14746,2.55566-9.5752,7.81152-9.5752,5.543,0,7.30664,4.78711,7.30664,8.1709,0,.50391,0,1.00781-.03613,1.47559Zm11.41015-1.584c-.03613-3.56347-1.97949-6.37109-5.50683-6.37109-3.708,0-5.39942,2.59179-5.7959,6.37109Z"/><path class="cls-2" d="M378.66553,268.33887a20.64348,20.64348,0,0,0,.252,3.41992h-1.72754a11.85765,11.85765,0,0,1-.32422-2.77149c-.61133,1.332-2.19531,3.20313-5.90332,3.20313-4.1748,0-5.97461-2.69922-5.97461-5.39941,0-3.959,3.05957-5.75879,8.459-5.75879h3.41894v-1.83594c0-1.79981-.54-4.21094-4.64355-4.21094-3.63477,0-4.17481,1.90723-4.57129,3.38281h-1.79981c.21582-1.97949,1.44043-5.03906,6.40723-5.03906,4.10352,0,6.40723,1.72754,6.40723,5.6875Zm-1.76367-5.75879h-3.52735c-3.99512,0-6.47949,1.04394-6.47949,4.13965,0,2.26757,1.62012,3.81543,4.13965,3.81543,5.14746,0,5.86719-3.41993,5.86719-7.30762Z"/><path class="cls-2" d="M398.50049,245.23V266.5752c0,1.72851,0,3.38378.03613,5.18359h-1.72754c-.07226-.43164-.1084-2.124-.1084-3.02344-.89941,2.19531-2.915,3.45508-6.04687,3.45508-4.67969,0-7.48731-3.81543-7.48731-9.21484,0-5.543,3.05957-9.64649,7.95508-9.64649,3.59961,0,5.03906,1.54785,5.5791,2.69922V245.23ZM385.07471,262.9043c0,4.93066,2.55566,7.59472,5.65136,7.59472,4.751,0,6.04688-3.27539,6.04688-8.17089,0-4.64356-1.11621-7.30762-5.72363-7.30762C387.48584,255.02051,385.07471,257.86426,385.07471,262.9043Z"/><path class="cls-3" d="M328.64089,202.07947H187.45912c-5.92561,0-10.72927-5.88448-10.72927-13.14336l2.19192-101.24188-2.19192-22.837c0-7.25887,9.8562-16.92094,15.78181-16.92094l45.59189,3.77759h90.53734c5.92561,0,10.72926,5.88448,10.72926,13.14335l-3.94545,22.3,3.94545,101.7789C339.37015,196.195,334.5665,202.07947,328.64089,202.07947Z"/><path class="cls-3" d="M338.20777,59.52973s-4.88976-8.014-7.94253-10.181c-10.69966-7.59511-38.40656-13.0059-70.90009-13.0059-32.9388,0-60.95889,5.5601-71.33034,13.31936a81.9747,81.9747,0,0,0-7.07313,6.494"/></svg>