<svg id="Layer_1" data-name="Layer 1" xmlns="http://www.w3.org/2000/svg" viewBox="0 0 516.1 516.0011"><defs><style>.cls-1{fill:#93278f;}.cls-2{fill:#fff;}.cls-3{fill:#2e3192;}.cls-4{fill:#ffc32c;}.cls-5{fill:#df3f3f;}</style></defs><title>bread2</title><path class="cls-1" d="M258,516C115.5,516,0,400.5,0,258A257.961,257.961,0,0,1,75.6,75.6c100.8-100.8,264.1-100.8,364.9,0s100.8,264.1,0,364.9A256.49776,256.49776,0,0,1,258,516Z"/><path class="cls-2" d="M258,.5C400.3.6,515.5,116,515.4,258.2a257.624,257.624,0,0,1-157.2,237C227.1,550.5,76.1,489,20.8,357.9-34.4,227,26.9,76,157.7,20.6A258.09883,258.09883,0,0,1,258,.5m0-1C115.2-.5-.5,115.2-.5,258S115.2,516.5,258,516.5,516.5,400.8,516.5,258,400.8-.5,258-.5Z"/><path class="cls-2" d="M50.22363,227.86719h-8.459v-1.79981H60.69824v1.79981H52.20361v23.397h-1.98Z"/><path class="cls-2" d="M65.34473,224.73535v11.5542a6.27812,6.27812,0,0,1,5.939-3.45508c2.55615,0,6.0835,1.2959,6.0835,6.9834v11.44629H75.56738V240.17725c0-3.56348-1.61963-5.57911-4.60742-5.57911-3.56348,0-5.61523,2.19629-5.61523,6.62305v10.043H63.54492V224.73535Z"/><path class="cls-2" d="M83.66846,242.481c.03613,4.64355,2.37549,7.52343,5.83105,7.52343a5.06843,5.06843,0,0,0,5.1836-3.38378h1.83544a6.89992,6.89992,0,0,1-7.09082,5.07519c-5.47119,0-7.59521-4.71484-7.59521-9.28613,0-5.14746,2.55566-9.5752,7.811-9.5752,5.54346,0,7.30713,4.78711,7.30713,8.1709,0,.50391,0,1.00781-.03613,1.47559Zm11.41064-1.584c-.03613-3.56347-1.98-6.37109-5.50732-6.37109-3.70752,0-5.39942,2.5918-5.79541,6.37109Z"/><path class="cls-2" d="M111.1001,242.481c.03613,4.64355,2.37549,7.52343,5.83105,7.52343a5.06843,5.06843,0,0,0,5.1836-3.38378h1.83545a6.89993,6.89993,0,0,1-7.09082,5.07519c-5.4712,0-7.59522-4.71484-7.59522-9.28613,0-5.14746,2.55566-9.5752,7.811-9.5752,5.54345,0,7.30712,4.78711,7.30712,8.1709,0,.50391,0,1.00781-.03613,1.47559Zm11.41064-1.584c-.03613-3.56347-1.98-6.37109-5.50732-6.37109-3.70752,0-5.39942,2.5918-5.79541,6.37109Z"/><path class="cls-2" d="M128.77588,237.80225c0-1.584,0-3.09571-.03613-4.53614h1.76367c.07226.57618.1084,2.916.07226,3.41993a5.87811,5.87811,0,0,1,5.9751-3.85157c3.20361,0,6.04736,1.79981,6.04736,6.76758v11.66211h-1.7998v-11.375c0-3.20312-1.332-5.291-4.46338-5.291-4.28369,0-5.75928,3.56348-5.75928,7.48731v9.17871h-1.7998Z"/><path class="cls-2" d="M148.89941,242.481c.03614,4.64355,2.37549,7.52343,5.83106,7.52343a5.06842,5.06842,0,0,0,5.18359-3.38378h1.83545a6.89993,6.89993,0,0,1-7.09082,5.07519c-5.47119,0-7.59521-4.71484-7.59521-9.28613,0-5.14746,2.55566-9.5752,7.811-9.5752,5.54346,0,7.30713,4.78711,7.30713,8.1709,0,.50391,0,1.00781-.03613,1.47559Zm11.41065-1.584c-.03613-3.56347-1.98-6.37109-5.50733-6.37109-3.70752,0-5.39941,2.5918-5.79541,6.37109Z"/><path class="cls-2" d="M166.57568,238.16162c0-3.02344-.03613-4.31933-.03613-4.89551h1.76367c.03614.57618.07227,1.72852.07227,4.03223a6.81759,6.81759,0,0,1,6.26318-4.46387v1.94336c-3.74365.252-6.26318,2.84375-6.26318,7.12793v9.3584h-1.79981Z"/><path class="cls-2" d="M191.52246,250.04053c0,5.75879-2.55615,8.78271-7.77539,8.78271-4.6792,0-6.62305-2.62744-7.05518-5.36377h1.83594c.648,2.48438,2.69971,3.67188,5.29151,3.67188,4.6792,0,5.97509-3.02344,5.97509-7.59473v-1.87207c-.97168,2.33984-2.73584,3.59961-6.01123,3.59961-4.21142,0-7.45117-3.41992-7.45117-8.999,0-6.04688,3.45557-9.43067,7.70313-9.43067,3.67138,0,5.25537,1.72754,5.75927,3.168.03614-1.04394.07178-2.30371.10791-2.73633h1.6919c0,.64844-.07178,3.49219-.07178,5.21973Zm-13.28271-7.84766c0,4.28418,2.26806,7.37988,5.72363,7.37988,4.499,0,5.86719-2.98828,5.86719-7.667,0-4.75195-1.43994-7.37988-5.75928-7.37988C179.93164,234.52588,178.23975,238.08936,178.23975,242.19287Z"/><path class="cls-2" d="M197.2832,233.26611c3.63526,10.29493,5.21924,14.543,5.83106,16.48633h.03613c.71973-2.19629,2.15967-6.37109,5.65137-16.48633h1.87158l-6.76709,19.042c-1.90771,5.32714-3.20361,6.51513-6.44336,6.51513a11.958,11.958,0,0,1-1.65576-.10742v-1.80029a11.80435,11.80435,0,0,0,1.61963.1084c2.59179,0,3.41992-1.26075,4.75146-4.96778l-6.875-18.79Z"/><path class="cls-2" d="M223.49023,237.80225c0-1.584,0-3.09571-.03613-4.53614h1.76367c.07227.57618.1084,2.916.07227,3.41993a5.8781,5.8781,0,0,1,5.9751-3.85157c3.20361,0,6.04736,1.79981,6.04736,6.76758v11.66211h-1.7998v-11.375c0-3.20312-1.332-5.291-4.46338-5.291-4.28369,0-5.75928,3.56348-5.75928,7.48731v9.17871h-1.79981Z"/><path class="cls-2" d="M243.61377,242.481c.03613,4.64355,2.37549,7.52343,5.83105,7.52343a5.06843,5.06843,0,0,0,5.1836-3.38378h1.83545a6.89993,6.89993,0,0,1-7.09082,5.07519c-5.47119,0-7.59522-4.71484-7.59522-9.28613,0-5.14746,2.55567-9.5752,7.811-9.5752,5.54345,0,7.30713,4.78711,7.30713,8.1709,0,.50391,0,1.00781-.03614,1.47559Zm11.41064-1.584c-.03613-3.56347-1.98-6.37109-5.50732-6.37109-3.70752,0-5.39941,2.5918-5.79541,6.37109Z"/><path class="cls-2" d="M261.86523,242.481c.03614,4.64355,2.37549,7.52343,5.83106,7.52343a5.06842,5.06842,0,0,0,5.18359-3.38378h1.83545a6.89993,6.89993,0,0,1-7.09082,5.07519c-5.47119,0-7.59521-4.71484-7.59521-9.28613,0-5.14746,2.55566-9.5752,7.811-9.5752,5.54346,0,7.30713,4.78711,7.30713,8.1709,0,.50391,0,1.00781-.03613,1.47559Zm11.41065-1.584c-.03613-3.56347-1.98-6.37109-5.50733-6.37109-3.70751,0-5.39941,2.5918-5.79541,6.37109Z"/><path class="cls-2" d="M293.61523,224.73535v21.34522c0,1.72851,0,3.38379.03614,5.18359h-1.72754c-.07227-.43164-.1084-2.124-.1084-3.02344-.8999,2.19532-2.91553,3.45508-6.04688,3.45508-4.67968,0-7.4873-3.81543-7.4873-9.21484,0-5.543,3.05957-9.64649,7.95508-9.64649,3.59961,0,5.03955,1.54785,5.5791,2.69922V224.73535ZM280.189,242.40967c0,4.93066,2.55567,7.59472,5.65137,7.59472,4.75147,0,6.04737-3.27539,6.04737-8.17089,0-4.64356-1.11573-7.30762-5.72315-7.30762C282.60059,234.52588,280.189,237.36963,280.189,242.40967Z"/><path class="cls-2" d="M299.9165,242.481c.03614,4.64355,2.37549,7.52343,5.83106,7.52343a5.06842,5.06842,0,0,0,5.18359-3.38378h1.83545a6.89993,6.89993,0,0,1-7.09082,5.07519c-5.47119,0-7.59521-4.71484-7.59521-9.28613,0-5.14746,2.55566-9.5752,7.811-9.5752,5.54346,0,7.30762,4.78711,7.30762,8.1709,0,.50391,0,1.00781-.03613,1.47559Zm11.41065-1.584c-.03613-3.56347-1.98-6.37109-5.50733-6.37109-3.70752,0-5.39941,2.5918-5.79541,6.37109Z"/><path class="cls-2" d="M331.666,224.73535v21.34522c0,1.72851,0,3.38379.03613,5.18359h-1.72754c-.07227-.43164-.1084-2.124-.1084-3.02344-.89941,2.19532-2.915,3.45508-6.04687,3.45508-4.67969,0-7.48731-3.81543-7.48731-9.21484,0-5.543,3.05957-9.64649,7.95508-9.64649,3.59961,0,5.03906,1.54785,5.5791,2.69922V224.73535Zm-13.42579,17.67432c0,4.93066,2.55567,7.59472,5.65137,7.59472,4.751,0,6.04688-3.27539,6.04688-8.17089,0-4.64356-1.11621-7.30762-5.72364-7.30762C320.65137,234.52588,318.24023,237.36963,318.24023,242.40967Z"/><path class="cls-2" d="M344.23145,233.26611h3.34765v-5.61523h1.79981v5.61523h4.2832v1.69239h-4.2832v11.69824c0,2.01562.43164,3.168,2.15918,3.168a6.78281,6.78281,0,0,0,1.87207-.2168v1.584a6.31714,6.31714,0,0,1-2.23145.32422c-2.30371,0-3.59961-1.15136-3.59961-4.03125V234.9585h-3.34765Z"/><path class="cls-2" d="M371.69824,242.229c0,5.00391-2.77246,9.4668-8.13574,9.4668-4.85937,0-7.88281-3.99512-7.88281-9.43066,0-5.14746,2.84375-9.43067,8.06347-9.43067C368.53027,232.83447,371.69824,236.57764,371.69824,242.229Zm-14.11035.03614c0,4.2832,2.30371,7.73925,6.11914,7.73925,3.8877,0,6.083-3.2041,6.083-7.73925,0-4.24707-2.16016-7.73926-6.15527-7.73926C359.53125,234.52588,357.58789,237.9458,357.58789,242.26514Z"/><path class="cls-2" d="M385.52246,237.90967c0-1.54785,0-3.23926-.03516-4.64356H387.251c.03613.61231.10742,2.16016.07129,3.2041a5.6298,5.6298,0,0,1,5.39941-3.63574,5.10912,5.10912,0,0,1,5.21973,3.56348,6.12325,6.12325,0,0,1,5.86718-3.56348c2.77149,0,5.65137,1.584,5.65137,6.58692v11.84277h-1.7998V239.63721c0-2.41114-.86426-5.03907-4.21192-5.03907-3.49121,0-5.07519,2.80762-5.07519,6.29883v10.36719h-1.76367V239.67334c0-2.62695-.792-5.0752-4.10352-5.0752-3.49121,0-5.18359,3.09571-5.18359,6.76758v9.89844h-1.79981Z"/><path class="cls-2" d="M427.49707,247.84424a20.64348,20.64348,0,0,0,.25195,3.41992h-1.72754a11.85726,11.85726,0,0,1-.32421-2.77148c-.61133,1.332-2.19532,3.20312-5.90332,3.20312-4.17481,0-5.97461-2.69922-5.97461-5.39941,0-3.959,3.05957-5.75879,8.459-5.75879h3.41895v-1.83594c0-1.7998-.54-4.21094-4.64356-4.21094-3.63476,0-4.1748,1.90723-4.57129,3.38282h-1.7998c.21582-1.9795,1.44043-5.03907,6.40722-5.03907,4.10352,0,6.40723,1.72754,6.40723,5.6875Zm-1.76367-5.75879h-3.52735c-3.99511,0-6.47949,1.04394-6.47949,4.13965,0,2.26758,1.62012,3.81543,4.13965,3.81543,5.14746,0,5.86719-3.41992,5.86719-7.30762Z"/><path class="cls-2" d="M435.23828,242.55322c1.65625-1.76367,6.69531-6.875,9.10742-9.28711h2.30371l-7.12695,7.16309,8.02637,10.835h-2.23145l-7.09082-9.68262-2.98828,2.87989v6.80273h-1.7998V224.73535h1.7998Z"/><path class="cls-2" d="M450.4668,242.481c.03613,4.64355,2.376,7.52343,5.83105,7.52343a5.06889,5.06889,0,0,0,5.1836-3.38378h1.83593a6.90074,6.90074,0,0,1-7.09179,5.07519c-5.47071,0-7.59473-4.71484-7.59473-9.28613,0-5.14746,2.55566-9.5752,7.81152-9.5752,5.543,0,7.30664,4.78711,7.30664,8.1709,0,.50391,0,1.00781-.03613,1.47559Zm11.41015-1.584c-.03613-3.56347-1.97949-6.37109-5.50683-6.37109-3.708,0-5.39942,2.5918-5.79492,6.37109Z"/><path class="cls-2" d="M55.33789,294.46484V278.15918h-3.0957V276.4668h3.0957v-2.55567c0-3.02343.86426-6.335,4.89551-6.335a6.74032,6.74032,0,0,1,1.76367.252v1.72753a8.96323,8.96323,0,0,0-1.94385-.21582c-2.12353,0-2.91552,1.51172-2.91552,4.64356v2.4834h3.92382v1.69238H57.1377v16.30566Z"/><path class="cls-2" d="M64.30176,285.68164c.03613,4.64356,2.37549,7.52344,5.83105,7.52344a5.06843,5.06843,0,0,0,5.1836-3.38379h1.83545a6.89992,6.89992,0,0,1-7.09082,5.07519c-5.4712,0-7.59522-4.71484-7.59522-9.28613,0-5.14746,2.55566-9.57519,7.811-9.57519,5.54345,0,7.30712,4.78711,7.30712,8.17089,0,.50391,0,1.00782-.03613,1.47559Zm11.41064-1.583c-.03613-3.56445-1.98-6.37207-5.50732-6.37207-3.70752,0-5.39942,2.5918-5.79541,6.37207Z"/><path class="cls-2" d="M81.978,281.3623c0-3.02343-.03614-4.31933-.03614-4.8955h1.76368c.03613.57617.07226,1.72851.07226,4.03222a6.81761,6.81761,0,0,1,6.26319-4.46386v1.94336c-3.74366.252-6.26319,2.84375-6.26319,7.12793v9.35839H81.978Z"/><path class="cls-2" d="M92.05762,276.4668h3.34765v-5.61524h1.79981v5.61524h4.2832v1.69238h-4.2832v11.69824c0,2.01563.43164,3.168,2.15967,3.168a6.77691,6.77691,0,0,0,1.87158-.2168v1.584a6.31906,6.31906,0,0,1-2.23145.32422c-2.30371,0-3.59961-1.15137-3.59961-4.03125V278.15918H92.05762Z"/><path class="cls-2" d="M105.16064,267.93652h1.79981v3.49121h-1.79981Zm0,8.53028h1.79981v17.998h-1.79981Z"/><path class="cls-2" d="M112.86426,294.46484V267.93652h1.7998v26.52832Z"/><path class="cls-2" d="M120.56787,267.93652h1.79981v3.49121h-1.79981Zm0,8.53028h1.79981v17.998h-1.79981Z"/><path class="cls-2" d="M126.39941,292.80859l11.37452-14.64941H126.9751V276.4668h12.88672v1.72851l-11.231,14.57813h11.62695l-.43213,1.6914H126.39941Z"/><path class="cls-2" d="M144.25488,285.68164c.03614,4.64356,2.37549,7.52344,5.83106,7.52344a5.06841,5.06841,0,0,0,5.18359-3.38379H157.105a6.89992,6.89992,0,0,1-7.09082,5.07519c-5.47119,0-7.59521-4.71484-7.59521-9.28613,0-5.14746,2.55566-9.57519,7.811-9.57519,5.54346,0,7.30713,4.78711,7.30713,8.17089,0,.50391,0,1.00782-.03613,1.47559Zm11.41065-1.583c-.03614-3.56445-1.98-6.37207-5.50733-6.37207-3.70752,0-5.39941,2.5918-5.79541,6.37207Z"/><path class="cls-2" d="M161.93066,281.3623c0-3.02343-.03613-4.31933-.03613-4.8955h1.76367c.03614.57617.07227,1.72851.07227,4.03222a6.8176,6.8176,0,0,1,6.26318-4.46386v1.94336c-3.74365.252-6.26318,2.84375-6.26318,7.12793v9.35839h-1.79981Z"/><path class="cls-2" d="M195.30029,291.04492a20.51884,20.51884,0,0,0,.25244,3.41992h-1.728a11.81041,11.81041,0,0,1-.32373-2.77148c-.61231,1.332-2.1958,3.20312-5.90332,3.20312-4.17578,0-5.97559-2.69921-5.97559-5.39941,0-3.959,3.05957-5.75879,8.459-5.75879H193.501v-1.83594c0-1.7998-.54-4.21093-4.64356-4.21093-3.63574,0-4.17578,1.90722-4.57129,3.38281h-1.7998c.21582-1.97949,1.43945-5.03906,6.40722-5.03906,4.103,0,6.40674,1.72754,6.40674,5.6875Zm-1.76367-5.75879h-3.52734c-3.99561,0-6.47949,1.04395-6.47949,4.13965,0,2.26758,1.62011,3.81543,4.13964,3.81543,5.14746,0,5.86719-3.41992,5.86719-7.30762Z"/><path class="cls-2" d="M201.24219,281.00293c0-1.584,0-3.0957-.03614-4.53613h1.76368c.07226.57617.1084,2.916.07226,3.41992a5.8781,5.8781,0,0,1,5.9751-3.85156c3.20361,0,6.04736,1.7998,6.04736,6.76757v11.66211h-1.7998v-11.375c0-3.20312-1.332-5.291-4.46338-5.291-4.28369,0-5.75928,3.56347-5.75928,7.4873v9.17871h-1.7998Z"/><path class="cls-2" d="M234.86377,267.93652v21.34473c0,1.72754,0,3.38379.03613,5.18359h-1.72754c-.07226-.43164-.1084-2.124-.1084-3.02343-.8999,2.19531-2.91552,3.45507-6.04687,3.45507-4.67969,0-7.4873-3.81543-7.4873-9.21484,0-5.543,3.05957-9.64648,7.95507-9.64648,3.59961,0,5.03955,1.54785,5.5791,2.69922V267.93652ZM221.4375,285.61035c0,4.93067,2.55566,7.59473,5.65137,7.59473,4.75146,0,6.04736-3.27539,6.04736-8.1709,0-4.64355-1.11572-7.30762-5.72314-7.30762C223.84912,277.72656,221.4375,280.57031,221.4375,285.61035Z"/><path class="cls-2" d="M247.4292,276.4668h3.34766v-5.61524h1.7998v5.61524h4.2832v1.69238h-4.2832v11.69824c0,2.01563.43164,3.168,2.15967,3.168a6.77687,6.77687,0,0,0,1.87158-.2168v1.584a6.31906,6.31906,0,0,1-2.23145.32422c-2.30371,0-3.5996-1.15137-3.5996-4.03125V278.15918H247.4292Z"/><path class="cls-2" d="M262.22461,267.93652v11.55469a6.27717,6.27717,0,0,1,5.939-3.45605c2.55616,0,6.0835,1.29589,6.0835,6.98339v11.44629h-1.7998V283.37793c0-3.56348-1.61963-5.5791-4.60743-5.5791-3.56347,0-5.61523,2.19629-5.61523,6.623v10.043H260.4248V267.93652Z"/><path class="cls-2" d="M280.54834,285.68164c.03613,4.64356,2.37549,7.52344,5.83105,7.52344a5.06843,5.06843,0,0,0,5.1836-3.38379h1.83545a6.89992,6.89992,0,0,1-7.09082,5.07519c-5.47119,0-7.59522-4.71484-7.59522-9.28613,0-5.14746,2.55567-9.57519,7.811-9.57519,5.54345,0,7.30713,4.78711,7.30713,8.17089,0,.50391,0,1.00782-.03614,1.47559Zm11.41064-1.583c-.03613-3.56445-1.98-6.37207-5.50732-6.37207-3.70752,0-5.39941,2.5918-5.79541,6.37207Z"/><path class="cls-2" d="M307.98047,285.68164c.03613,4.64356,2.37549,7.52344,5.831,7.52344a5.06888,5.06888,0,0,0,5.1836-3.38379h1.83593a6.90073,6.90073,0,0,1-7.09179,5.07519c-5.47071,0-7.59473-4.71484-7.59473-9.28613,0-5.14746,2.55567-9.57519,7.81152-9.57519,5.543,0,7.30665,4.78711,7.30665,8.17089,0,.50391,0,1.00782-.03614,1.47559Zm11.41016-1.583c-.03614-3.56445-1.9795-6.37207-5.50684-6.37207-3.70752,0-5.39941,2.5918-5.79541,6.37207Z"/><path class="cls-2" d="M325.65527,281.11035c0-1.54785,0-3.23926-.03515-4.64355h1.76367c.03613.6123.10742,2.16015.07129,3.2041a5.62978,5.62978,0,0,1,5.39941-3.63574,5.10911,5.10911,0,0,1,5.21973,3.56347,6.12325,6.12325,0,0,1,5.86719-3.56347c2.77148,0,5.65136,1.584,5.65136,6.58691v11.84277H347.793V282.83789c0-2.41113-.86426-5.03906-4.21192-5.03906-3.49121,0-5.07519,2.80762-5.07519,6.2998v10.36621h-1.76367V282.874c0-2.62695-.792-5.07519-4.10352-5.07519-3.49121,0-5.18359,3.0957-5.18359,6.76758v9.89843h-1.79981Z"/><path class="cls-2" d="M355.499,267.93652h1.79981v3.49121H355.499Zm0,8.53028h1.79981v17.998H355.499Z"/><path class="cls-2" d="M363.02344,289.49707c.6123,2.33984,2.26855,3.74414,5.1123,3.74414,3.20313,0,4.499-1.47558,4.499-3.49219,0-2.05175-.86426-3.05957-4.89551-4.03125-4.64356-1.11523-5.79492-2.51953-5.79492-4.8955,0-2.4834,1.87109-4.78711,5.93847-4.78711,4.06836,0,6.01172,2.48339,6.29981,5.03906h-1.79981a4.24233,4.24233,0,0,0-4.57129-3.38281c-3.13183,0-4.03125,1.54687-4.03125,2.9873,0,1.65527.86328,2.4834,4.42676,3.34766,5.0752,1.22363,6.335,2.87988,6.335,5.5791,0,3.27539-2.66308,5.291-6.44238,5.291-4.10352,0-6.40723-2.15918-6.91113-5.39941Z"/><path class="cls-2" d="M379.43848,289.49707c.6123,2.33984,2.26855,3.74414,5.11132,3.74414,3.20411,0,4.5-1.47558,4.5-3.49219,0-2.05175-.86425-3.05957-4.8955-4.03125-4.64356-1.11523-5.79492-2.51953-5.79492-4.8955,0-2.4834,1.87109-4.78711,5.93847-4.78711,4.06836,0,6.01172,2.48339,6.29981,5.03906h-1.79981a4.24233,4.24233,0,0,0-4.57129-3.38281c-3.13183,0-4.03125,1.54687-4.03125,2.9873,0,1.65527.86328,2.4834,4.42676,3.34766,5.0752,1.22363,6.335,2.87988,6.335,5.5791,0,3.27539-2.66308,5.291-6.44238,5.291-4.10352,0-6.40723-2.15918-6.91113-5.39941Z"/><path class="cls-2" d="M395.42188,267.93652h1.7998v3.49121h-1.7998Zm0,8.53028h1.7998v17.998h-1.7998Z"/><path class="cls-2" d="M417.70508,285.42969c0,5.0039-2.77246,9.46679-8.13574,9.46679-4.85938,0-7.88282-3.99511-7.88282-9.43066,0-5.14746,2.84375-9.43066,8.06348-9.43066C414.53711,276.03516,417.70508,279.77832,417.70508,285.42969Zm-14.11035.03613c0,4.2832,2.30371,7.73926,6.11914,7.73926,3.88769,0,6.083-3.2041,6.083-7.73926,0-4.24707-2.16016-7.73926-6.15528-7.73926C405.53809,277.72656,403.59473,281.14648,403.59473,285.46582Z"/><path class="cls-2" d="M422.16992,281.00293c0-1.584,0-3.0957-.03515-4.53613h1.76367c.07129.57617.10742,2.916.07129,3.41992a5.87922,5.87922,0,0,1,5.97558-3.85156c3.2041,0,6.04688,1.7998,6.04688,6.76757v11.66211h-1.79981v-11.375c0-3.20312-1.33105-5.291-4.46289-5.291-4.2832,0-5.75976,3.56347-5.75976,7.4873v9.17871h-1.79981Z"/><path class="cls-2" d="M441.78906,289.49707c.61231,2.33984,2.26856,3.74414,5.11231,3.74414,3.20312,0,4.499-1.47558,4.499-3.49219,0-2.05175-.86426-3.05957-4.89551-4.03125-4.64355-1.11523-5.79492-2.51953-5.79492-4.8955,0-2.4834,1.87109-4.78711,5.93848-4.78711,4.06836,0,6.01172,2.48339,6.2998,5.03906h-1.7998a4.24233,4.24233,0,0,0-4.57129-3.38281c-3.13184,0-4.03125,1.54687-4.03125,2.9873,0,1.65527.86328,2.4834,4.42676,3.34766,5.07519,1.22363,6.335,2.87988,6.335,5.5791,0,3.27539-2.66309,5.291-6.44239,5.291-4.10351,0-6.40722-2.15918-6.91113-5.39941Z"/><path class="cls-2" d="M76.811,324.5625c0-3.02344-.03614-4.31934-.03614-4.89551h1.76367c.03614.57617.07227,1.72852.07227,4.03223a6.81762,6.81762,0,0,1,6.26318-4.46387v1.94336c-3.74365.25195-6.26318,2.84375-6.26318,7.12793v9.3584H76.811Z"/><path class="cls-2" d="M88.583,328.88184c.03613,4.64355,2.37549,7.52343,5.83105,7.52343a5.06843,5.06843,0,0,0,5.1836-3.38379h1.83545a6.89993,6.89993,0,0,1-7.09082,5.0752c-5.4712,0-7.59522-4.71484-7.59522-9.28613,0-5.14746,2.55566-9.5752,7.811-9.5752,5.54345,0,7.30712,4.78711,7.30712,8.1709,0,.50391,0,1.00781-.03613,1.47559Zm11.41064-1.584c-.03613-3.56347-1.98-6.37109-5.50732-6.37109-3.70752,0-5.39942,2.59179-5.79541,6.37109Z"/><path class="cls-2" d="M106.40283,337.665V311.13672h1.79981V337.665Z"/><path class="cls-2" d="M114.50244,328.88184c.03613,4.64355,2.37549,7.52343,5.83106,7.52343a5.06841,5.06841,0,0,0,5.18359-3.38379h1.83545a6.89993,6.89993,0,0,1-7.09082,5.0752c-5.47119,0-7.59522-4.71484-7.59522-9.28613,0-5.14746,2.55567-9.5752,7.811-9.5752,5.54346,0,7.30713,4.78711,7.30713,8.1709,0,.50391,0,1.00781-.03613,1.47559Zm11.41065-1.584c-.03614-3.56347-1.98-6.37109-5.50733-6.37109-3.70752,0-5.39941,2.59179-5.79541,6.37109Z"/><path class="cls-2" d="M144.52441,334.24512a20.58791,20.58791,0,0,0,.252,3.41992h-1.72754a11.81159,11.81159,0,0,1-.32373-2.77149c-.61231,1.332-2.1958,3.20313-5.90332,3.20313-4.17578,0-5.97559-2.69922-5.97559-5.39941,0-3.959,3.05957-5.75879,8.459-5.75879h3.41992v-1.83594c0-1.79981-.54-4.21094-4.64356-4.21094-3.63574,0-4.17578,1.90723-4.57129,3.38281h-1.7998c.21582-1.97949,1.43945-5.03906,6.40723-5.03906,4.103,0,6.40673,1.72754,6.40673,5.6875Zm-1.76367-5.75879H139.2334c-3.99561,0-6.47949,1.04394-6.47949,4.13965,0,2.26757,1.62011,3.81543,4.13964,3.81543,5.14747,0,5.86719-3.41993,5.86719-7.30762Z"/><path class="cls-2" d="M150.28662,332.69727c.61182,2.33984,2.26758,3.74414,5.11133,3.74414,3.20361,0,4.49951-1.47559,4.49951-3.49219,0-2.05176-.86377-3.05957-4.89551-4.03125-4.64355-1.11524-5.79541-2.51953-5.79541-4.89551,0-2.4834,1.87207-4.78711,5.93946-4.78711s6.01123,2.4834,6.29931,5.03906h-1.7998a4.24233,4.24233,0,0,0-4.57129-3.38281c-3.13184,0-4.03174,1.54688-4.03174,2.98731,0,1.65527.86377,2.48339,4.42725,3.34765,5.07568,1.22364,6.33545,2.87989,6.33545,5.5791,0,3.27539-2.66358,5.291-6.44336,5.291-4.10352,0-6.40723-2.15918-6.91114-5.39941Z"/><path class="cls-2" d="M166.666,328.88184c.03613,4.64355,2.37548,7.52343,5.83105,7.52343a5.06841,5.06841,0,0,0,5.18359-3.38379h1.83545a6.89992,6.89992,0,0,1-7.09082,5.0752c-5.47119,0-7.59521-4.71484-7.59521-9.28613,0-5.14746,2.55566-9.5752,7.811-9.5752,5.54346,0,7.30713,4.78711,7.30713,8.1709,0,.50391,0,1.00781-.03613,1.47559Zm11.41064-1.584c-.03613-3.56347-1.98-6.37109-5.50732-6.37109-3.70752,0-5.39942,2.59179-5.79541,6.37109Z"/><path class="cls-2" d="M198.41553,311.13672v21.34473c0,1.72851,0,3.38378.03613,5.18359h-1.72754c-.07226-.43164-.1084-2.124-.1084-3.02344-.8999,2.19531-2.91552,3.45508-6.04687,3.45508-4.67969,0-7.48731-3.81543-7.48731-9.21484,0-5.543,3.05957-9.64649,7.95508-9.64649,3.59961,0,5.03955,1.54785,5.5791,2.69922V311.13672Zm-13.42627,17.67383c0,4.93066,2.55566,7.59472,5.65137,7.59472,4.75146,0,6.04736-3.27539,6.04736-8.17089,0-4.64356-1.11572-7.30762-5.72315-7.30762C187.40088,320.92676,184.98926,323.77051,184.98926,328.81055Z"/><path class="cls-2" d="M213.71729,319.667c2.66357,9.28711,4.21142,14.61426,4.49951,16.19824h.03564c.28809-1.43945,2.08789-7.09082,4.89551-16.19824h1.94385c3.34765,11.123,4.35547,14.32617,4.6792,15.73047h.03613c.50391-1.97949,1.332-4.67969,4.64355-15.73047h1.90772l-5.6875,17.998h-1.97949c-1.94385-6.37109-4.2837-14.18262-4.64356-15.83789h-.03613c-.35986,1.76367-2.41162,8.207-4.75147,15.83789h-2.15966l-5.291-17.998Z"/><path class="cls-2" d="M241.9043,311.13672v11.55371a6.27812,6.27812,0,0,1,5.939-3.45508c2.55615,0,6.0835,1.2959,6.0835,6.9834V337.665H252.127V326.57813c0-3.56348-1.61963-5.57911-4.60742-5.57911-3.56348,0-5.61523,2.19629-5.61523,6.62305v10.043h-1.79981V311.13672Z"/><path class="cls-2" d="M260.22852,328.88184c.03613,4.64355,2.37548,7.52343,5.83105,7.52343a5.06841,5.06841,0,0,0,5.18359-3.38379h1.83545a6.89992,6.89992,0,0,1-7.09082,5.0752c-5.47119,0-7.59521-4.71484-7.59521-9.28613,0-5.14746,2.55566-9.5752,7.811-9.5752,5.54346,0,7.30713,4.78711,7.30713,8.1709,0,.50391,0,1.00781-.03613,1.47559Zm11.41064-1.584c-.03613-3.56347-1.98-6.37109-5.50732-6.37109-3.70752,0-5.39942,2.59179-5.79541,6.37109Z"/><path class="cls-2" d="M277.9043,324.20313c0-1.584,0-3.09571-.03614-4.53614h1.76368c.07226.57617.10839,2.916.07226,3.41992a5.87811,5.87811,0,0,1,5.9751-3.85156c3.20361,0,6.04736,1.79981,6.04736,6.76758V337.665h-1.7998V326.29c0-3.20313-1.332-5.291-4.46338-5.291-4.28369,0-5.75928,3.56348-5.75928,7.48731V337.665h-1.7998Z"/><path class="cls-2" d="M306.9917,311.13672h1.7998v3.49121h-1.7998Zm0,8.53027h1.7998v17.998h-1.7998Z"/><path class="cls-2" d="M312.24707,319.667h3.34766v-5.61523h1.7998V319.667h4.2832v1.69239h-4.2832v11.69824c0,2.01562.43164,3.168,2.15918,3.168a6.78277,6.78277,0,0,0,1.87207-.2168v1.584a6.31708,6.31708,0,0,1-2.23144.32422c-2.30371,0-3.59961-1.15136-3.59961-4.03125V321.35938h-3.34766Z"/><path class="cls-2" d="M334.71,311.13672h1.79981v11.55371c.86425-1.79883,2.62793-3.45508,6.15527-3.45508,4.24805,0,7.37988,3.49121,7.37988,9.03516,0,5.68652-2.80762,9.82617-7.84765,9.82617-3.02344,0-4.751-1.22363-5.6875-3.27539,0,1.15234-.03516,2.33984-.07129,2.84375H334.6748c.03516-2.05176.03516-4.10352.03516-6.15527Zm13.42676,17.16992c0-4.5-2.23145-7.37988-5.65137-7.37988-4.499,0-6.083,3.05957-6.083,7.77539,0,4.24707,1.40332,7.70312,5.86719,7.70312C345.90527,336.40527,348.13672,333.38184,348.13672,328.30664Z"/><path class="cls-2" d="M354.50879,324.5625c0-3.02344-.03516-4.31934-.03516-4.89551h1.76367c.03614.57617.07129,1.72852.07129,4.03223a6.81776,6.81776,0,0,1,6.26368-4.46387v1.94336c-3.74317.25195-6.26368,2.84375-6.26368,7.12793v9.3584h-1.7998Z"/><path class="cls-2" d="M366.28125,328.88184c.03613,4.64355,2.376,7.52343,5.83105,7.52343a5.06888,5.06888,0,0,0,5.1836-3.38379h1.83594a6.90075,6.90075,0,0,1-7.0918,5.0752c-5.4707,0-7.59473-4.71484-7.59473-9.28613,0-5.14746,2.55567-9.5752,7.81153-9.5752,5.543,0,7.30664,4.78711,7.30664,8.1709,0,.50391,0,1.00781-.03614,1.47559Zm11.41016-1.584c-.03614-3.56347-1.9795-6.37109-5.50684-6.37109-3.708,0-5.39941,2.59179-5.79492,6.37109Z"/><path class="cls-2" d="M396.30371,334.24512a20.64348,20.64348,0,0,0,.25195,3.41992h-1.72753a11.85649,11.85649,0,0,1-.32422-2.77149c-.61133,1.332-2.19532,3.20313-5.90332,3.20313-4.17481,0-5.97461-2.69922-5.97461-5.39941,0-3.959,3.05957-5.75879,8.459-5.75879h3.41895v-1.83594c0-1.79981-.54-4.21094-4.64356-4.21094-3.63476,0-4.1748,1.90723-4.57129,3.38281h-1.7998c.21582-1.97949,1.44043-5.03906,6.40722-5.03906,4.10352,0,6.40723,1.72754,6.40723,5.6875ZM394.54,328.48633H391.0127c-3.99512,0-6.4795,1.04394-6.4795,4.13965,0,2.26757,1.62012,3.81543,4.13965,3.81543,5.14746,0,5.86719-3.41993,5.86719-7.30762Z"/><path class="cls-2" d="M404.04492,328.9541c1.65625-1.76367,6.69531-6.875,9.10742-9.28711h2.30371l-7.127,7.16309,8.02637,10.835H414.124l-7.09082-9.68262-2.98828,2.87988V337.665h-1.7998V311.13672h1.7998Z"/><path class="cls-2" d="M419.84863,332.69727c.61231,2.33984,2.26856,3.74414,5.11133,3.74414,3.2041,0,4.5-1.47559,4.5-3.49219,0-2.05176-.86426-3.05957-4.89551-4.03125-4.64355-1.11524-5.79492-2.51953-5.79492-4.89551,0-2.4834,1.8711-4.78711,5.93848-4.78711,4.06836,0,6.01172,2.4834,6.2998,5.03906H429.208a4.24233,4.24233,0,0,0-4.57129-3.38281c-3.13184,0-4.03125,1.54688-4.03125,2.98731,0,1.65527.86328,2.48339,4.42676,3.34765,5.07519,1.22364,6.335,2.87989,6.335,5.5791,0,3.27539-2.66309,5.291-6.44239,5.291-4.10351,0-6.40722-2.15918-6.91113-5.39941Z"/><path class="cls-2" d="M78.98779,354.33594v21.34472c0,1.72852,0,3.38379.03614,5.1836H77.29639c-.07227-.43164-.1084-2.124-.1084-3.02344-.8999,2.19531-2.91553,3.45508-6.04688,3.45508-4.67968,0-7.4873-3.81543-7.4873-9.21485,0-5.543,3.05957-9.64648,7.95508-9.64648,3.59961,0,5.03955,1.54785,5.5791,2.69922V354.33594ZM65.56152,372.00977c0,4.93066,2.55567,7.59472,5.65137,7.59472,4.75147,0,6.04736-3.27539,6.04736-8.1709,0-4.64355-1.11572-7.30761-5.72314-7.30761C67.97314,364.126,65.56152,366.96973,65.56152,372.00977Z"/><path class="cls-2" d="M99.47119,371.8291c0,5.00391-2.77148,9.4668-8.13476,9.4668-4.85938,0-7.8833-3.99512-7.8833-9.43067,0-5.14746,2.84375-9.43066,8.063-9.43066C96.30371,362.43457,99.47119,366.17773,99.47119,371.8291Zm-14.11035.03613c0,4.28321,2.30371,7.73926,6.11914,7.73926,3.8877,0,6.0835-3.2041,6.0835-7.73926,0-4.24707-2.15967-7.73925-6.15528-7.73925C87.30469,364.126,85.36084,367.5459,85.36084,371.86523Z"/><path class="cls-2" d="M103.86572,362.86621c2.66358,9.28711,4.21143,14.61426,4.49951,16.19824h.03565c.28808-1.43945,2.08789-7.09082,4.89551-16.19824h1.94384c3.34766,11.123,4.35547,14.32617,4.6792,15.73047h.03614c.5039-1.97949,1.332-4.67969,4.64355-15.73047h1.90772l-5.6875,17.998h-1.9795c-1.94384-6.3711-4.28369-14.18262-4.64355-15.83789h-.03613c-.35987,1.76367-2.41162,8.207-4.75147,15.83789H107.249l-5.291-17.998Z"/><path class="cls-2" d="M129.85693,367.40234c0-1.584,0-3.0957-.03613-4.53613h1.76367c.07227.57617.1084,2.916.07227,3.41992a5.87811,5.87811,0,0,1,5.9751-3.85156c3.20361,0,6.04736,1.79981,6.04736,6.76758v11.66211h-1.79981v-11.375c0-3.20313-1.332-5.291-4.46337-5.291-4.2837,0-5.75928,3.56348-5.75928,7.48731v9.17871h-1.79981Z"/><path class="cls-2" d="M158.94434,354.33594h1.7998v3.49121h-1.7998Zm0,8.53027h1.7998v17.998h-1.7998Z"/><path class="cls-2" d="M166.648,367.40234c0-1.584,0-3.0957-.03613-4.53613h1.76367c.07226.57617.1084,2.916.07226,3.41992a5.87812,5.87812,0,0,1,5.9751-3.85156c3.20361,0,6.04736,1.79981,6.04736,6.76758v11.66211h-1.7998v-11.375c0-3.20313-1.332-5.291-4.46338-5.291-4.28369,0-5.75928,3.56348-5.75928,7.48731v9.17871H166.648Z"/><path class="cls-2" d="M195.73535,375.89648c.61182,2.33985,2.26758,3.74415,5.11133,3.74415,3.20361,0,4.49951-1.47559,4.49951-3.49219,0-2.05176-.86377-3.05957-4.89551-4.03125-4.64355-1.11524-5.79541-2.51953-5.79541-4.89551,0-2.4834,1.87207-4.78711,5.93946-4.78711s6.01123,2.4834,6.29931,5.03906h-1.7998a4.24233,4.24233,0,0,0-4.57129-3.38281c-3.13184,0-4.03174,1.54688-4.03174,2.98731,0,1.65527.86377,2.48339,4.42725,3.34765,5.07568,1.22363,6.33545,2.87988,6.33545,5.5791,0,3.27539-2.66358,5.291-6.44336,5.291-4.10352,0-6.40723-2.15918-6.91114-5.39942Z"/><path class="cls-2" d="M226.29688,371.8291c0,5.00391-2.77149,9.4668-8.13477,9.4668-4.85938,0-7.8833-3.99512-7.8833-9.43067,0-5.14746,2.84375-9.43066,8.063-9.43066C223.12939,362.43457,226.29688,366.17773,226.29688,371.8291Zm-14.11036.03613c0,4.28321,2.30371,7.73926,6.11914,7.73926,3.8877,0,6.0835-3.2041,6.0835-7.73926,0-4.24707-2.15967-7.73925-6.15527-7.73925C214.13037,364.126,212.18652,367.5459,212.18652,371.86523Z"/><path class="cls-2" d="M230.90674,354.33594h1.7998v3.49121h-1.7998Zm0,8.53027h1.7998v17.998h-1.7998Z"/><path class="cls-2" d="M238.61035,380.86426V354.33594h1.79981v26.52832Z"/><path class="cls-2" d="M268.91943,375.57324c-.86377,3.167-2.95166,5.72266-6.98291,5.72266-4.49951,0-7.70312-3.34766-7.70312-9.3584,0-4.93164,2.62793-9.50293,7.91894-9.50293a6.43456,6.43456,0,0,1,6.76709,5.75977H267.084c-.54-2.08789-1.90771-4.06836-4.96728-4.06836-3.81592,0-5.97559,3.24023-5.97559,7.73925,0,4.28321,2.01612,7.73926,5.79541,7.73926,2.62744,0,4.21143-1.332,5.14746-4.03125Z"/><path class="cls-2" d="M287.855,371.8291c0,5.00391-2.77148,9.4668-8.13477,9.4668-4.85937,0-7.8833-3.99512-7.8833-9.43067,0-5.14746,2.84375-9.43066,8.063-9.43066C284.6875,362.43457,287.855,366.17773,287.855,371.8291Zm-14.11035.03613c0,4.28321,2.30371,7.73926,6.11914,7.73926,3.88769,0,6.0835-3.2041,6.0835-7.73926,0-4.24707-2.15967-7.73925-6.15528-7.73925C275.68848,364.126,273.74463,367.5459,273.74463,371.86523Z"/><path class="cls-2" d="M292.3208,367.40234c0-1.584,0-3.0957-.03613-4.53613h1.76367c.07227.57617.1084,2.916.07227,3.41992a5.87809,5.87809,0,0,1,5.97509-3.85156c3.20362,0,6.04737,1.79981,6.04737,6.76758v11.66211h-1.79981v-11.375c0-3.20313-1.332-5.291-4.46338-5.291-4.28369,0-5.75927,3.56348-5.75927,7.48731v9.17871H292.3208Z"/><path class="cls-2" d="M309.24072,362.86621h3.34717V357.251h1.79981v5.61523h4.28418v1.69238H314.3877v11.69825c0,2.01562.43261,3.168,2.16015,3.168a6.78275,6.78275,0,0,0,1.87207-.21679v1.584a6.326,6.326,0,0,1-2.23242.32422c-2.30371,0-3.59961-1.15137-3.59961-4.03125V364.55859h-3.34717Z"/><path class="cls-2" d="M322.02051,367.76172c0-3.02344-.03516-4.31934-.03516-4.89551H323.749c.03614.57617.07129,1.72852.07129,4.03223a6.81776,6.81776,0,0,1,6.26367-4.46387v1.94336c-3.74316.252-6.26367,2.84375-6.26367,7.12793v9.3584h-1.7998Z"/><path class="cls-2" d="M333.39551,354.33594h1.7998v3.49121h-1.7998Zm0,8.53027h1.7998v17.998h-1.7998Z"/><path class="cls-2" d="M341.09961,354.33594h1.7998v11.55371c.86426-1.79883,2.62793-3.45508,6.15528-3.45508,4.248,0,7.37988,3.49121,7.37988,9.03516,0,5.68652-2.80762,9.82617-7.84766,9.82617-3.02343,0-4.751-1.22363-5.6875-3.27539,0,1.15234-.03515,2.33984-.07128,2.84375h-1.76368c.03516-2.05176.03516-4.10352.03516-6.15528Zm13.42676,17.16992c0-4.5-2.23145-7.37988-5.65137-7.37988-4.499,0-6.083,3.05957-6.083,7.77539,0,4.24707,1.40332,7.70312,5.86719,7.70312C352.29492,379.60449,354.52637,376.58105,354.52637,371.50586Z"/><path class="cls-2" d="M374.3623,375.60938c0,1.76367.03614,4.57128.03614,5.25488h-1.72852a29.17323,29.17323,0,0,1-.10742-3.13184c-.75586,2.124-2.5918,3.56348-5.79492,3.56348-2.5918,0-5.90332-1.00781-5.90332-6.51465v-11.915h1.76367v11.48242c0,2.62793.82715,5.1836,4.3916,5.1836,4.03125,0,5.543-2.26758,5.543-7.415v-9.251h1.7998Z"/><path class="cls-2" d="M377.999,362.86621h3.34766V357.251h1.7998v5.61523h4.28321v1.69238h-4.28321v11.69825c0,2.01562.43165,3.168,2.15918,3.168a6.78275,6.78275,0,0,0,1.87207-.21679v1.584a6.317,6.317,0,0,1-2.23144.32422c-2.30371,0-3.59961-1.15137-3.59961-4.03125V364.55859H377.999Z"/><path class="cls-2" d="M391.28223,372.08105c.03613,4.64356,2.376,7.52344,5.831,7.52344a5.06888,5.06888,0,0,0,5.1836-3.38379h1.83593a6.90074,6.90074,0,0,1-7.09179,5.0752c-5.47071,0-7.59473-4.71485-7.59473-9.28613,0-5.14747,2.55566-9.5752,7.81152-9.5752,5.543,0,7.30664,4.78711,7.30664,8.1709,0,.50391,0,1.00781-.03613,1.47558Zm11.41015-1.584c-.03613-3.56348-1.97949-6.37109-5.50683-6.37109-3.708,0-5.39942,2.59179-5.7959,6.37109Z"/><path class="cls-2" d="M415.61914,362.86621h3.34766V357.251h1.7998v5.61523h4.2832v1.69238h-4.2832v11.69825c0,2.01562.43164,3.168,2.15918,3.168a6.78275,6.78275,0,0,0,1.87207-.21679v1.584a6.31708,6.31708,0,0,1-2.23144.32422c-2.30371,0-3.59961-1.15137-3.59961-4.03125V364.55859h-3.34766Z"/><path class="cls-2" d="M443.085,371.8291c0,5.00391-2.77246,9.4668-8.13574,9.4668-4.85938,0-7.88281-3.99512-7.88281-9.43067,0-5.14746,2.84375-9.43066,8.06347-9.43066C439.917,362.43457,443.085,366.17773,443.085,371.8291Zm-14.11035.03613c0,4.28321,2.30371,7.73926,6.11914,7.73926,3.8877,0,6.083-3.2041,6.083-7.73926,0-4.24707-2.16016-7.73925-6.15528-7.73925C430.918,364.126,428.97461,367.5459,428.97461,371.86523Z"/><path class="cls-2" d="M136.58594,422.84082c0,5.75879-2.55615,8.78223-7.77539,8.78223-4.6792,0-6.62305-2.627-7.05518-5.36328h1.83594c.648,2.48437,2.69971,3.67187,5.2915,3.67187,4.6792,0,5.9751-3.02344,5.9751-7.59473v-1.87207c-.97168,2.33985-2.73584,3.59961-6.01123,3.59961-4.21143,0-7.45117-3.41992-7.45117-8.999,0-6.04688,3.45556-9.43066,7.70312-9.43066,3.67139,0,5.25537,1.72753,5.75928,3.168.03613-1.04394.07178-2.30371.10791-2.73632h1.69189c0,.64843-.07177,3.49218-.07177,5.21972Zm-13.28272-7.84766c0,4.28418,2.26807,7.37989,5.72364,7.37989,4.499,0,5.86718-2.98828,5.86718-7.667,0-4.752-1.43994-7.37988-5.75927-7.37988C124.99512,407.32617,123.30322,410.88965,123.30322,414.99316Z"/><path class="cls-2" d="M142.49121,410.96191c0-3.02343-.03613-4.31933-.03613-4.8955h1.76367c.03613.57617.07227,1.72851.07227,4.03222a6.81759,6.81759,0,0,1,6.26318-4.46386v1.94336c-3.74365.252-6.26318,2.84375-6.26318,7.12792v9.3584h-1.79981Z"/><path class="cls-2" d="M154.2627,415.28125c.03613,4.64355,2.37548,7.52344,5.83105,7.52344a5.06842,5.06842,0,0,0,5.18359-3.38379h1.83545a6.89992,6.89992,0,0,1-7.09082,5.07519c-5.47119,0-7.59521-4.71484-7.59521-9.28613,0-5.14746,2.55566-9.57519,7.811-9.57519,5.54346,0,7.30713,4.78711,7.30713,8.17089,0,.50391,0,1.00782-.03613,1.47559Zm11.41064-1.583c-.03613-3.56445-1.98-6.37207-5.50732-6.37207-3.70752,0-5.39942,2.5918-5.79541,6.37207Z"/><path class="cls-2" d="M172.51465,415.28125c.03613,4.64355,2.37549,7.52344,5.83105,7.52344a5.06844,5.06844,0,0,0,5.1836-3.38379h1.83545a6.89992,6.89992,0,0,1-7.09082,5.07519c-5.4712,0-7.59522-4.71484-7.59522-9.28613,0-5.14746,2.55567-9.57519,7.811-9.57519,5.54345,0,7.30713,4.78711,7.30713,8.17089,0,.50391,0,1.00782-.03614,1.47559Zm11.41064-1.583c-.03613-3.56445-1.98-6.37207-5.50732-6.37207-3.70752,0-5.39942,2.5918-5.79541,6.37207Z"/><path class="cls-2" d="M190.19043,410.60254c0-1.584,0-3.0957-.03613-4.53613H191.918c.07226.57617.1084,2.916.07226,3.41992a5.87811,5.87811,0,0,1,5.9751-3.85156c3.20362,0,6.04737,1.7998,6.04737,6.76757v11.66211h-1.79981v-11.375c0-3.20312-1.332-5.291-4.46338-5.291-4.28369,0-5.75928,3.56347-5.75928,7.4873v9.17871h-1.7998Z"/><path class="cls-2" d="M211.71777,397.53613v11.55469a6.27719,6.27719,0,0,1,5.939-3.45605c2.55615,0,6.08349,1.29589,6.08349,6.98339v11.44629h-1.7998V412.97754c0-3.56348-1.61963-5.5791-4.60742-5.5791-3.56348,0-5.61524,2.19629-5.61524,6.623v10.043H209.918V397.53613Z"/><path class="cls-2" d="M244.22363,415.0293c0,5.0039-2.77148,9.46679-8.13476,9.46679-4.85938,0-7.8833-3.99511-7.8833-9.43066,0-5.14746,2.84375-9.43066,8.063-9.43066C241.05615,405.63477,244.22363,409.37793,244.22363,415.0293Zm-14.11035.03613c0,4.2832,2.30371,7.73926,6.11914,7.73926,3.8877,0,6.0835-3.2041,6.0835-7.73926,0-4.24707-2.15967-7.73926-6.15528-7.73926C232.05713,407.32617,230.11328,410.74609,230.11328,415.06543Z"/><path class="cls-2" d="M262.15186,418.80957c0,1.76367.03564,4.57129.03564,5.25488H260.46a28.99647,28.99647,0,0,1-.10791-3.13183c-.75586,2.124-2.5918,3.56347-5.79541,3.56347-2.5918,0-5.90332-1.00781-5.90332-6.51464v-11.915H250.417v11.48242c0,2.62793.82813,5.18359,4.3916,5.18359,4.03174,0,5.54346-2.26758,5.54346-7.415v-9.251h1.79981Z"/><path class="cls-2" d="M267.84131,419.09668c.61182,2.33984,2.26758,3.74414,5.11133,3.74414,3.20361,0,4.49951-1.47559,4.49951-3.49219,0-2.05175-.86377-3.05957-4.89551-4.03125-4.64355-1.11523-5.79541-2.51953-5.79541-4.8955,0-2.4834,1.87207-4.78711,5.93945-4.78711s6.01123,2.48339,6.29932,5.03906h-1.7998a4.24233,4.24233,0,0,0-4.57129-3.38281c-3.13184,0-4.03174,1.54687-4.03174,2.9873,0,1.65527.86377,2.4834,4.42724,3.34766,5.07569,1.22363,6.33545,2.87988,6.33545,5.5791,0,3.27539-2.66357,5.291-6.44336,5.291-4.10351,0-6.40722-2.15918-6.91113-5.39941Z"/><path class="cls-2" d="M284.2207,415.28125c.03614,4.64355,2.37549,7.52344,5.83106,7.52344a5.06842,5.06842,0,0,0,5.18359-3.38379h1.83545a6.89992,6.89992,0,0,1-7.09082,5.07519c-5.47119,0-7.59521-4.71484-7.59521-9.28613,0-5.14746,2.55566-9.57519,7.811-9.57519,5.54346,0,7.30713,4.78711,7.30713,8.17089,0,.50391,0,1.00782-.03613,1.47559Zm11.41065-1.583c-.03614-3.56445-1.98-6.37207-5.50733-6.37207-3.70752,0-5.39941,2.5918-5.79541,6.37207Z"/><path class="cls-2" d="M325.00684,422.84082c0,5.75879-2.55567,8.78223-7.77539,8.78223-4.67969,0-6.623-2.627-7.05518-5.36328h1.83594c.648,2.48437,2.6997,3.67187,5.2915,3.67187,4.67969,0,5.97461-3.02344,5.97461-7.59473v-1.87207c-.97168,2.33985-2.73535,3.59961-6.01074,3.59961-4.21192,0-7.45117-3.41992-7.45117-8.999,0-6.04688,3.45605-9.43066,7.70312-9.43066,3.67188,0,5.25488,1.72753,5.75879,3.168.03613-1.04394.07227-2.30371.1084-2.73632h1.69141c0,.64843-.07129,3.49218-.07129,5.21972Zm-13.28272-7.84766c0,4.28418,2.26807,7.37989,5.72315,7.37989,4.5,0,5.86718-2.98828,5.86718-7.667,0-4.752-1.43945-7.37988-5.75879-7.37988C313.416,407.32617,311.72412,410.88965,311.72412,414.99316Z"/><path class="cls-2" d="M342.93457,420.64453a20.64337,20.64337,0,0,0,.25195,3.41992H341.459a11.85726,11.85726,0,0,1-.32421-2.77148c-.61133,1.332-2.19532,3.20312-5.90332,3.20312-4.17481,0-5.97461-2.69921-5.97461-5.39941,0-3.959,3.05957-5.75879,8.459-5.75879h3.41895V411.502c0-1.7998-.54-4.21093-4.64356-4.21093-3.63476,0-4.1748,1.90722-4.57129,3.38281h-1.7998c.21582-1.97949,1.44043-5.03906,6.40722-5.03906,4.10352,0,6.40723,1.72753,6.40723,5.6875Zm-1.76367-5.75879h-3.52735c-3.99511,0-6.47949,1.04395-6.47949,4.13965,0,2.26758,1.62012,3.81543,4.13965,3.81543,5.14746,0,5.86719-3.41992,5.86719-7.30762Z"/><path class="cls-2" d="M348.69629,419.09668c.6123,2.33984,2.26855,3.74414,5.11133,3.74414,3.2041,0,4.5-1.47559,4.5-3.49219,0-2.05175-.86426-3.05957-4.89551-4.03125-4.64356-1.11523-5.79492-2.51953-5.79492-4.8955,0-2.4834,1.87109-4.78711,5.93847-4.78711,4.06836,0,6.01172,2.48339,6.29981,5.03906h-1.79981a4.24231,4.24231,0,0,0-4.57128-3.38281c-3.13184,0-4.03125,1.54687-4.03125,2.9873,0,1.65527.86328,2.4834,4.42675,3.34766,5.0752,1.22363,6.335,2.87988,6.335,5.5791,0,3.27539-2.66308,5.291-6.44238,5.291-4.10351,0-6.40723-2.15918-6.91113-5.39941Z"/><path class="cls-2" d="M365.07617,415.28125c.03613,4.64355,2.376,7.52344,5.83106,7.52344a5.06888,5.06888,0,0,0,5.18359-3.38379h1.83594a6.90074,6.90074,0,0,1-7.0918,5.07519c-5.4707,0-7.59473-4.71484-7.59473-9.28613,0-5.14746,2.55567-9.57519,7.81153-9.57519,5.543,0,7.30664,4.78711,7.30664,8.17089,0,.50391,0,1.00782-.03613,1.47559Zm11.41016-1.583c-.03613-3.56445-1.97949-6.37207-5.50684-6.37207-3.708,0-5.39941,2.5918-5.79492,6.37207Z"/><path class="cls-2" d="M383.18359,419.09668c.61231,2.33984,2.26856,3.74414,5.11231,3.74414,3.20312,0,4.499-1.47559,4.499-3.49219,0-2.05175-.86426-3.05957-4.89551-4.03125-4.64355-1.11523-5.79492-2.51953-5.79492-4.8955,0-2.4834,1.8711-4.78711,5.93848-4.78711,4.06836,0,6.01172,2.48339,6.2998,5.03906H392.543a4.24233,4.24233,0,0,0-4.57129-3.38281c-3.13184,0-4.03125,1.54687-4.03125,2.9873,0,1.65527.86328,2.4834,4.42676,3.34766,5.07519,1.22363,6.335,2.87988,6.335,5.5791,0,3.27539-2.66309,5.291-6.44238,5.291-4.10352,0-6.40723-2.15918-6.91114-5.39941Z"/><path class="cls-3" d="M-207.89326,943.0618c-142.5,0-258-115.5-258-258a257.961,257.961,0,0,1,75.6-182.4c100.8-100.8,264.1-100.8,364.9,0s100.8,264.1,0,364.9A256.49775,256.49775,0,0,1-207.89326,943.0618Z"/><path class="cls-2" d="M209.60193,171.91415s-7.52134-2.48178-6.96631,7.44535a132.10767,132.10767,0,0,1-.02927,16.79225s-.44977,6.371,6.99558,10.50735h81.07155s10.00863-.74683,8.83039-10.50735l.09643-19.68766s1.41394-4.54994-7.68593-7.03172S209.60193,171.91415,209.60193,171.91415Z"/><rect class="cls-4" x="205.64111" y="129.58047" width="90.99868" height="44.67208"/><path class="cls-2" d="M263.76366,62.30211v-4.1363H238.62675v4.1363s-38.07409-4.96356-35.57221,32.26317l-.11811,32.6768s-2.15685,4.54993,6.7362,4.54993H292.3987s8.27261,1.09727,7.03171-6.7933.12685-39.94693.12685-39.94693S301.5163,58.37262,263.76366,62.30211Z"/><path class="cls-5" d="M234.93227,59.131h32.53892V47.8308s-.01764-5.05549-5.89156-4.41206l-20.94846-.05659s-5.42315-.86259-5.6989,4.101S234.93227,59.131,234.93227,59.131Z"/><path class="cls-1" d="M256.49754,82.94342l22.428,22.61179s6.34234,6.71,9.7433-1.28685V89.37767s-.55151-13.97152-16.08563-14.8907-11.31471,0-11.31471,0S252.36123,75.95766,256.49754,82.94342Z"/><path d="M217.93555,142.09814H223.812v1.52832h-4.22412v5.91016h3.9751v1.52832h-3.9751v8.40186h-1.65234Z"/><path d="M230.98047,150.94434h-3.91358v7.00293h4.42774l-.23,1.51953h-5.85059V142.09814h5.791v1.52832h-4.13819v5.79834h3.91358Z"/><path d="M234.668,151.27588v8.19092h-1.65234V142.09814h2.87548c2.602,0,3.82032,1.14063,3.82032,3.95264v.82568c0,2.28565-.76709,3.32032-1.76807,3.66456,1.12207.39306,1.61963,1.24609,1.61963,3.562a45.42451,45.42451,0,0,0,.17285,5.36377h-1.61572a41.33077,41.33077,0,0,1-.18213-5.23194c0-2.28173-.32715-2.959-2.0874-2.959Zm0-1.418h1.25732c1.70508,0,2.1167-1.0542,2.1167-2.90186v-.81494c0-1.64355-.46924-2.625-2.26123-2.625H234.668Z"/><path d="M243.39746,143.62646H240.582v-1.52832h7.25928v1.52832h-2.791V159.4668h-1.65283Z"/><path d="M250.78711,142.09814V159.4668h-1.65234V142.09814Z"/><path d="M253.42432,142.09814h1.65234v15.877h4.36816l-.20019,1.4917h-5.82031Z"/><path d="M262.25293,142.09814V159.4668h-1.65234V142.09814Z"/><path d="M263.89941,158.36572l5.2212-14.73926h-4.7959v-1.52832h6.6333v1.24707l-5.15625,14.60206h5.2041l-.22949,1.51953h-6.877Z"/><path d="M278.06494,150.94434h-3.91357v7.00293h4.42773l-.23,1.51953h-5.85058V142.09814h5.791v1.52832h-4.13818v5.79834h3.91357Z"/><path d="M281.75244,151.27588v8.19092H280.1001V142.09814h2.87549c2.602,0,3.82031,1.14063,3.82031,3.95264v.82568c0,2.28565-.76709,3.32032-1.76807,3.66456,1.12207.39306,1.61963,1.24609,1.61963,3.562a45.31949,45.31949,0,0,0,.17285,5.36377h-1.61572a41.33077,41.33077,0,0,1-.18213-5.23194c0-2.28173-.32715-2.959-2.0874-2.959Zm0-1.418h1.25733c1.70507,0,2.11669-1.0542,2.11669-2.90186v-.81494c0-1.64355-.46923-2.625-2.26123-2.625h-1.11279Z"/></svg>