<svg id="Layer_1" data-name="Layer 1" xmlns="http://www.w3.org/2000/svg" viewBox="0 0 522.97175 643.65488"><defs><style>.cls-1{fill:#d9a859;}.cls-2{fill:#e3d19f;}</style></defs><title>bread</title><path class="cls-1" d="M486.81443,8.88778s-35-34-118,31-278,296-348,437,59,162,59,162,71,64,304-277S486.81443,8.88778,486.81443,8.88778Z"/><path class="cls-2" d="M211.81443,291.88778s35-91,111-90,120-34,120-34-94,131-215,124"/><path class="cls-2" d="M112.81443,448.88778s34-85,129-105,111-37,111-37S328.81443,423.88778,112.81443,448.88778Z"/><path class="cls-2" d="M313.81443,154.88778s41-59,97-71,79-14,79-14-36,74-88,77S313.81443,154.88778,313.81443,154.88778Z"/><path class="cls-2" d="M35.81443,558.88778s41-59,97-71,79-14,79-14-36,74-88,77S35.81443,558.88778,35.81443,558.88778Z"/></svg>