<svg id="Layer_1" data-name="Layer 1" xmlns="http://www.w3.org/2000/svg" viewBox="0 0 516.1 516.0011"><defs><style>.cls-1{fill:#2e3192;}.cls-2{fill:#fff;}.cls-3{fill:#27b8cf;}.cls-4{fill:#766f41;}.cls-5{fill:#9cb66f;}.cls-6{fill:#9bb56e;}</style></defs><title>bread3</title><path class="cls-1" d="M258,515.99945c-142.5,0-258-115.5-258-258a257.961,257.961,0,0,1,75.6-182.4c100.8-100.8,264.1-100.8,364.9,0s100.8,264.1,0,364.9A256.49776,256.49776,0,0,1,258,515.99945Z"/><path class="cls-2" d="M258,.5C400.3.6,515.5,116,515.4,258.2a257.624,257.624,0,0,1-157.2,237C227.1,550.5,76.1,489,20.8,357.9-34.4,227,26.9,76,157.7,20.6A258.09883,258.09883,0,0,1,258,.5m0-1C115.2-.5-.5,115.2-.5,258S115.2,516.5,258,516.5,516.5,400.8,516.5,258,400.8-.5,258-.5Z"/><path class="cls-2" d="M143.57178,226.06738H158.834v1.79981H145.51563v9.50244h12.49072v1.7998H145.51563v12.09473h-1.94385Z"/><path class="cls-2" d="M163.22754,242.481c.03613,4.64355,2.37549,7.52343,5.83105,7.52343a5.06843,5.06843,0,0,0,5.1836-3.38378h1.83545a6.89993,6.89993,0,0,1-7.09082,5.07519c-5.47119,0-7.59522-4.71484-7.59522-9.28613,0-5.14746,2.55567-9.5752,7.811-9.5752,5.54345,0,7.30713,4.78711,7.30713,8.1709,0,.50391,0,1.00781-.03614,1.47559Zm11.41064-1.584c-.03613-3.56347-1.98-6.37109-5.50732-6.37109-3.70752,0-5.39941,2.5918-5.79541,6.37109Z"/><path class="cls-2" d="M180.90332,238.16162c0-3.02344-.03613-4.31933-.03613-4.89551h1.76367c.03613.57618.07227,1.72852.07227,4.03223a6.81759,6.81759,0,0,1,6.26318-4.46387v1.94336c-3.74365.252-6.26318,2.84375-6.26318,7.12793v9.3584h-1.79981Z"/><path class="cls-2" d="M190.98291,233.26611h3.34766v-5.61523h1.7998v5.61523h4.2832v1.69239h-4.2832v11.69824c0,2.01562.43164,3.168,2.15967,3.168a6.77725,6.77725,0,0,0,1.87158-.2168v1.584a6.31878,6.31878,0,0,1-2.23144.32422c-2.30372,0-3.59961-1.15136-3.59961-4.03125V234.9585h-3.34766Z"/><path class="cls-2" d="M204.08594,224.73535h1.7998v3.4917h-1.7998Zm0,8.53076h1.7998v17.99805h-1.7998Z"/><path class="cls-2" d="M211.78955,251.26416V224.73535h1.79981v26.52881Z"/><path class="cls-2" d="M219.49316,224.73535H221.293v3.4917h-1.79981Zm0,8.53076H221.293v17.99805h-1.79981Z"/><path class="cls-2" d="M225.3252,249.60791l11.37451-14.64941H225.90088v-1.69239H238.7876v1.72852l-11.231,14.57812h11.627l-.43213,1.69141H225.3252Z"/><path class="cls-2" d="M243.18018,242.481c.03613,4.64355,2.37548,7.52343,5.83105,7.52343a5.06841,5.06841,0,0,0,5.18359-3.38378h1.83545a6.89993,6.89993,0,0,1-7.09082,5.07519c-5.47119,0-7.59521-4.71484-7.59521-9.28613,0-5.14746,2.55566-9.5752,7.811-9.5752,5.54346,0,7.30713,4.78711,7.30713,8.1709,0,.50391,0,1.00781-.03613,1.47559Zm11.41064-1.584c-.03613-3.56347-1.98-6.37109-5.50732-6.37109-3.70752,0-5.39942,2.5918-5.79541,6.37109Z"/><path class="cls-2" d="M260.85645,238.16162c0-3.02344-.03614-4.31933-.03614-4.89551H262.584c.03614.57618.07227,1.72852.07227,4.03223a6.81762,6.81762,0,0,1,6.26318-4.46387v1.94336c-3.74365.252-6.26318,2.84375-6.26318,7.12793v9.3584h-1.7998Z"/><path class="cls-2" d="M281.87988,238.16162c0-3.02344-.03613-4.31933-.03613-4.89551h1.76367c.03613.57618.07227,1.72852.07227,4.03223a6.81759,6.81759,0,0,1,6.26318-4.46387v1.94336c-3.74365.252-6.26318,2.84375-6.26318,7.12793v9.3584h-1.79981Z"/><path class="cls-2" d="M306.61035,246.00928c0,1.76367.03565,4.57129.03565,5.25488h-1.72754a28.99657,28.99657,0,0,1-.10791-3.13184c-.75586,2.124-2.5918,3.56348-5.79541,3.56348-2.5918,0-5.90332-1.00781-5.90332-6.51465v-11.915h1.76367v11.48243c0,2.62792.82812,5.18359,4.3916,5.18359,4.03174,0,5.54346-2.26758,5.54346-7.415v-9.251h1.7998Z"/><path class="cls-2" d="M312.51563,237.80225c0-1.584,0-3.09571-.03614-4.53614h1.76367c.07227.57618.1084,2.916.07227,3.41993a5.87834,5.87834,0,0,1,5.97559-3.85157c3.20312,0,6.04687,1.79981,6.04687,6.76758v11.66211h-1.7998v-11.375c0-3.20312-1.332-5.291-4.46387-5.291-4.2832,0-5.75879,3.56348-5.75879,7.48731v9.17871h-1.7998Z"/><path class="cls-2" d="M346.82227,242.229c0,5.00391-2.77247,9.4668-8.13575,9.4668-4.85937,0-7.88281-3.99512-7.88281-9.43066,0-5.14746,2.84375-9.43067,8.06348-9.43067C343.6543,232.83447,346.82227,236.57764,346.82227,242.229Zm-14.11036.03614c0,4.2832,2.30372,7.73925,6.11914,7.73925,3.8877,0,6.083-3.2041,6.083-7.73925,0-4.24707-2.16015-7.73926-6.15527-7.73926C334.65527,234.52588,332.71191,237.9458,332.71191,242.26514Z"/><path class="cls-2" d="M353.84277,234.9585v16.30566H352.043V234.9585h-3.0957v-1.69239h3.0957v-2.4834c0-3.0957.68359-6.40722,4.71484-6.40722a3.93624,3.93624,0,0,1,1.62012.25195v1.6919a5.731,5.731,0,0,0-1.72754-.252c-2.01562,0-2.80762,1.33155-2.80762,4.42725v2.77148h7.23438v-2.4834c0-3.0957.75586-6.40722,4.71582-6.40722a3.93888,3.93888,0,0,1,1.62012.25195v1.6919a5.73723,5.73723,0,0,0-1.72852-.252c-2.01562,0-2.80762,1.33155-2.80762,4.42725v2.77148h3.81543v1.69239H362.877v16.30566h-1.7998V234.9585Z"/><path class="cls-2" d="M99.13037,267.93652h1.79981v3.49121H99.13037Zm0,8.53028h1.79981v17.998H99.13037Z"/><path class="cls-2" d="M106.834,281.00293c0-1.584,0-3.0957-.03613-4.53613h1.76367c.07227.57617.1084,2.916.07227,3.41992a5.8781,5.8781,0,0,1,5.9751-3.85156c3.20361,0,6.04736,1.7998,6.04736,6.76757v11.66211h-1.7998v-11.375c0-3.20312-1.332-5.291-4.46338-5.291-4.28369,0-5.75928,3.56347-5.75928,7.4873v9.17871H106.834Z"/><path class="cls-2" d="M135.92139,289.49707c.61181,2.33984,2.26757,3.74414,5.11132,3.74414,3.20362,0,4.49952-1.47558,4.49952-3.49219,0-2.05175-.86377-3.05957-4.89551-4.03125-4.64356-1.11523-5.79541-2.51953-5.79541-4.8955,0-2.4834,1.87207-4.78711,5.93945-4.78711s6.01123,2.48339,6.29932,5.03906h-1.79981a4.24233,4.24233,0,0,0-4.57129-3.38281c-3.13183,0-4.03173,1.54687-4.03173,2.9873,0,1.65527.86377,2.4834,4.42724,3.34766,5.07569,1.22363,6.33545,2.87988,6.33545,5.5791,0,3.27539-2.66357,5.291-6.44336,5.291-4.10351,0-6.40722-2.15918-6.91113-5.39941Z"/><path class="cls-2" d="M149.09766,276.4668h3.34765v-5.61524h1.79981v5.61524h4.2832v1.69238h-4.2832v11.69824c0,2.01563.43164,3.168,2.15967,3.168a6.777,6.777,0,0,0,1.87158-.2168v1.584a6.31906,6.31906,0,0,1-2.23145.32422c-2.30371,0-3.59961-1.15137-3.59961-4.03125V278.15918h-3.34765Z"/><path class="cls-2" d="M161.877,281.3623c0-3.02343-.03613-4.31933-.03613-4.8955h1.76367c.03614.57617.07227,1.72851.07227,4.03222a6.81759,6.81759,0,0,1,6.26318-4.46386v1.94336c-3.74365.252-6.26318,2.84375-6.26318,7.12793v9.35839H161.877Z"/><path class="cls-2" d="M173.64893,285.68164c.03613,4.64356,2.37548,7.52344,5.83105,7.52344a5.0684,5.0684,0,0,0,5.18359-3.38379H186.499a6.89992,6.89992,0,0,1-7.09082,5.07519c-5.47119,0-7.59521-4.71484-7.59521-9.28613,0-5.14746,2.55566-9.57519,7.811-9.57519,5.54346,0,7.30713,4.78711,7.30713,8.17089,0,.50391,0,1.00782-.03613,1.47559Zm11.41064-1.583c-.03613-3.56445-1.98-6.37207-5.50732-6.37207-3.70752,0-5.39942,2.5918-5.79541,6.37207Z"/><path class="cls-2" d="M203.6709,291.04492a20.58812,20.58812,0,0,0,.252,3.41992h-1.72754a11.81156,11.81156,0,0,1-.32373-2.77148c-.6123,1.332-2.1958,3.20312-5.90332,3.20312-4.17578,0-5.97558-2.69921-5.97558-5.39941,0-3.959,3.05957-5.75879,8.459-5.75879h3.41992v-1.83594c0-1.7998-.54-4.21093-4.64355-4.21093-3.63574,0-4.17578,1.90722-4.57129,3.38281h-1.79981c.21582-1.97949,1.43946-5.03906,6.40723-5.03906,4.103,0,6.40674,1.72754,6.40674,5.6875Zm-1.76367-5.75879h-3.52735c-3.9956,0-6.47949,1.04395-6.47949,4.13965,0,2.26758,1.62012,3.81543,4.13965,3.81543,5.14746,0,5.86719-3.41992,5.86719-7.30762Z"/><path class="cls-2" d="M209.61279,281.11035c0-1.54785,0-3.23926-.03613-4.64355h1.76367c.03613.6123.1084,2.16015.07227,3.2041a5.62929,5.62929,0,0,1,5.39941-3.63574,5.10852,5.10852,0,0,1,5.21924,3.56347,6.12426,6.12426,0,0,1,5.86719-3.56347c2.77148,0,5.65136,1.584,5.65136,6.58691v11.84277H231.75V282.83789c0-2.41113-.86377-5.03906-4.21143-5.03906-3.49169,0-5.07519,2.80762-5.07519,6.2998v10.36621h-1.76416V282.874c0-2.62695-.792-5.07519-4.10352-5.07519-3.49121,0-5.1831,3.0957-5.1831,6.76758v9.89843h-1.79981Z"/><path class="cls-2" d="M239.34912,289.49707c.61182,2.33984,2.26758,3.74414,5.11133,3.74414,3.20361,0,4.49951-1.47558,4.49951-3.49219,0-2.05175-.86377-3.05957-4.89551-4.03125-4.64355-1.11523-5.79541-2.51953-5.79541-4.8955,0-2.4834,1.87207-4.78711,5.93946-4.78711s6.01123,2.48339,6.29931,5.03906H248.708a4.24233,4.24233,0,0,0-4.57129-3.38281c-3.13184,0-4.03174,1.54687-4.03174,2.9873,0,1.65527.86377,2.4834,4.42725,3.34766,5.07568,1.22363,6.33545,2.87988,6.33545,5.5791,0,3.27539-2.66358,5.291-6.44336,5.291-4.10352,0-6.40723-2.15918-6.91114-5.39941Z"/><path class="cls-2" d="M277.03809,291.04492a20.58812,20.58812,0,0,0,.25195,3.41992H275.5625a11.81156,11.81156,0,0,1-.32373-2.77148c-.61231,1.332-2.1958,3.20312-5.90332,3.20312-4.17578,0-5.97559-2.69921-5.97559-5.39941,0-3.959,3.05957-5.75879,8.459-5.75879h3.41992v-1.83594c0-1.7998-.54-4.21093-4.64356-4.21093-3.63574,0-4.17578,1.90722-4.57128,3.38281h-1.79981c.21582-1.97949,1.43945-5.03906,6.40723-5.03906,4.103,0,6.40674,1.72754,6.40674,5.6875Zm-1.76368-5.75879h-3.52734c-3.99561,0-6.47949,1.04395-6.47949,4.13965,0,2.26758,1.62012,3.81543,4.13965,3.81543,5.14746,0,5.86718-3.41992,5.86718-7.30762Z"/><path class="cls-2" d="M282.98,281.00293c0-1.584,0-3.0957-.03613-4.53613h1.76367c.07227.57617.1084,2.916.07227,3.41992a5.87808,5.87808,0,0,1,5.97509-3.85156c3.20362,0,6.04737,1.7998,6.04737,6.76757v11.66211h-1.79981v-11.375c0-3.20312-1.332-5.291-4.46338-5.291-4.28369,0-5.75927,3.56347-5.75927,7.4873v9.17871H282.98Z"/><path class="cls-2" d="M316.60156,267.93652v21.34473c0,1.72754,0,3.38379.03614,5.18359h-1.72754c-.07227-.43164-.1084-2.124-.1084-3.02343-.89942,2.19531-2.91553,3.45507-6.04688,3.45507-4.67968,0-7.4873-3.81543-7.4873-9.21484,0-5.543,3.05957-9.64648,7.95508-9.64648,3.59961,0,5.03906,1.54785,5.5791,2.69922V267.93652Zm-13.42627,17.67383c0,4.93067,2.55567,7.59473,5.65137,7.59473,4.75147,0,6.04736-3.27539,6.04736-8.1709,0-4.64355-1.11621-7.30762-5.72314-7.30762C305.58691,277.72656,303.17529,280.57031,303.17529,285.61035Z"/><path class="cls-2" d="M331.86621,281.3623c0-3.02343-.03516-4.31933-.03516-4.8955h1.76368c.03613.57617.07129,1.72851.07129,4.03222a6.81773,6.81773,0,0,1,6.26367-4.46386v1.94336c-3.74317.252-6.26367,2.84375-6.26367,7.12793v9.35839h-1.79981Z"/><path class="cls-2" d="M343.24219,267.93652h1.7998v3.49121h-1.7998Zm0,8.53028h1.7998v17.998h-1.7998Z"/><path class="cls-2" d="M350.6582,276.4668c2.916,8.24316,4.93164,13.8584,5.61524,16.16211h.03613c.39648-1.332,2.41211-6.69532,5.90332-16.16211h1.9082l-6.80371,17.998H355.1582l-6.40722-17.998Z"/><path class="cls-2" d="M368.0459,285.68164c.03613,4.64356,2.376,7.52344,5.83105,7.52344a5.06888,5.06888,0,0,0,5.1836-3.38379h1.83593a6.90073,6.90073,0,0,1-7.09179,5.07519c-5.47071,0-7.59473-4.71484-7.59473-9.28613,0-5.14746,2.55567-9.57519,7.81152-9.57519,5.543,0,7.30665,4.78711,7.30665,8.17089,0,.50391,0,1.00782-.03614,1.47559Zm11.41015-1.583c-.03613-3.56445-1.97949-6.37207-5.50683-6.37207-3.708,0-5.39942,2.5918-5.7959,6.37207Z"/><path class="cls-2" d="M385.72168,281.3623c0-3.02343-.03516-4.31933-.03516-4.8955h1.76368c.03613.57617.07128,1.72851.07128,4.03222a6.81775,6.81775,0,0,1,6.26368-4.46386v1.94336c-3.74317.252-6.26368,2.84375-6.26368,7.12793v9.35839h-1.7998Z"/><path class="cls-2" d="M397.5293,289.49707c.6123,2.33984,2.26855,3.74414,5.1123,3.74414,3.20313,0,4.499-1.47558,4.499-3.49219,0-2.05175-.86426-3.05957-4.89551-4.03125-4.64356-1.11523-5.79492-2.51953-5.79492-4.8955,0-2.4834,1.87109-4.78711,5.93847-4.78711,4.06836,0,6.01172,2.48339,6.29981,5.03906h-1.79981a4.24233,4.24233,0,0,0-4.57129-3.38281c-3.13183,0-4.03125,1.54687-4.03125,2.9873,0,1.65527.86328,2.4834,4.42676,3.34766,5.0752,1.22363,6.335,2.87988,6.335,5.5791,0,3.27539-2.66308,5.291-6.44238,5.291-4.10352,0-6.40723-2.15918-6.91113-5.39941Z"/><path class="cls-2" d="M154.67529,332.374c-.86377,3.167-2.95166,5.72266-6.98291,5.72266-4.49951,0-7.70312-3.34766-7.70312-9.3584,0-4.93164,2.62793-9.50293,7.91894-9.50293a6.43456,6.43456,0,0,1,6.76709,5.75977h-1.83545c-.54-2.08789-1.90771-4.06836-4.96728-4.06836-3.81592,0-5.97559,3.24023-5.97559,7.73926,0,4.2832,2.01612,7.73925,5.79541,7.73925,2.62744,0,4.21143-1.332,5.14746-4.03125Z"/><path class="cls-2" d="M171.34326,334.24512a20.51782,20.51782,0,0,0,.25244,3.41992h-1.728a11.81044,11.81044,0,0,1-.32373-2.77149c-.61231,1.332-2.19581,3.20313-5.90332,3.20313-4.17579,0-5.97559-2.69922-5.97559-5.39941,0-3.959,3.05957-5.75879,8.459-5.75879H169.544v-1.83594c0-1.79981-.54-4.21094-4.64356-4.21094-3.63574,0-4.17578,1.90723-4.57129,3.38281h-1.7998c.21582-1.97949,1.43945-5.03906,6.40722-5.03906,4.103,0,6.40674,1.72754,6.40674,5.6875Zm-1.76367-5.75879h-3.52734c-3.99561,0-6.4795,1.04394-6.4795,4.13965,0,2.26757,1.62012,3.81543,4.13965,3.81543,5.14746,0,5.86719-3.41993,5.86719-7.30762Z"/><path class="cls-2" d="M190.53125,332.41016c0,1.76367.03564,4.57129.03564,5.25488h-1.72753a28.99657,28.99657,0,0,1-.10791-3.13184c-.75586,2.124-2.5918,3.56348-5.79541,3.56348-2.5918,0-5.90333-1.00781-5.90333-6.51465V319.667h1.76368v11.48242c0,2.62793.82812,5.1836,4.3916,5.1836,4.03174,0,5.54346-2.26758,5.54346-7.415v-9.251h1.7998Z"/><path class="cls-2" d="M196.2207,332.69727c.61182,2.33984,2.26758,3.74414,5.11133,3.74414,3.20361,0,4.49951-1.47559,4.49951-3.49219,0-2.05176-.86377-3.05957-4.8955-4.03125-4.64356-1.11524-5.79541-2.51953-5.79541-4.89551,0-2.4834,1.87207-4.78711,5.93945-4.78711s6.01123,2.4834,6.29931,5.03906h-1.7998a4.24233,4.24233,0,0,0-4.57129-3.38281c-3.13184,0-4.03174,1.54688-4.03174,2.98731,0,1.65527.86377,2.48339,4.42725,3.34765,5.07568,1.22364,6.33545,2.87989,6.33545,5.5791,0,3.27539-2.66358,5.291-6.44336,5.291-4.10352,0-6.40723-2.15918-6.91113-5.39941Z"/><path class="cls-2" d="M212.6001,328.88184c.03613,4.64355,2.37549,7.52343,5.83105,7.52343a5.06843,5.06843,0,0,0,5.1836-3.38379h1.83545a6.89993,6.89993,0,0,1-7.09082,5.0752c-5.4712,0-7.59522-4.71484-7.59522-9.28613,0-5.14746,2.55566-9.5752,7.811-9.5752,5.54345,0,7.30712,4.78711,7.30712,8.1709,0,.50391,0,1.00781-.03613,1.47559Zm11.41064-1.584c-.03613-3.56347-1.98-6.37109-5.50732-6.37109-3.70752,0-5.39942,2.59179-5.79541,6.37109Z"/><path class="cls-2" d="M230.708,332.69727c.61181,2.33984,2.26758,3.74414,5.11133,3.74414,3.20361,0,4.49951-1.47559,4.49951-3.49219,0-2.05176-.86377-3.05957-4.89551-4.03125-4.64355-1.11524-5.79541-2.51953-5.79541-4.89551,0-2.4834,1.87207-4.78711,5.93945-4.78711s6.01123,2.4834,6.29932,5.03906h-1.79981a4.24231,4.24231,0,0,0-4.57128-3.38281c-3.13184,0-4.03174,1.54688-4.03174,2.98731,0,1.65527.86377,2.48339,4.42724,3.34765,5.07569,1.22364,6.33545,2.87989,6.33545,5.5791,0,3.27539-2.66357,5.291-6.44336,5.291-4.10351,0-6.40722-2.15918-6.91113-5.39941Z"/><path class="cls-2" d="M257.85107,311.13672v11.55371a6.27814,6.27814,0,0,1,5.939-3.45508c2.55566,0,6.0835,1.2959,6.0835,6.9834V337.665h-1.79981V326.57813c0-3.56348-1.61963-5.57911-4.60742-5.57911-3.56348,0-5.61524,2.19629-5.61524,6.62305v10.043h-1.7998V311.13672Z"/><path class="cls-2" d="M287.90918,334.24512a20.58822,20.58822,0,0,0,.252,3.41992h-1.72754a11.81159,11.81159,0,0,1-.32373-2.77149c-.6123,1.332-2.1958,3.20313-5.90332,3.20313-4.17578,0-5.97558-2.69922-5.97558-5.39941,0-3.959,3.05957-5.75879,8.459-5.75879h3.41992v-1.83594c0-1.79981-.54-4.21094-4.64355-4.21094-3.63574,0-4.17578,1.90723-4.57129,3.38281h-1.79981c.21583-1.97949,1.43946-5.03906,6.40723-5.03906,4.103,0,6.40674,1.72754,6.40674,5.6875Zm-1.76367-5.75879h-3.52735c-3.9956,0-6.47949,1.04394-6.47949,4.13965,0,2.26757,1.62012,3.81543,4.13965,3.81543,5.14746,0,5.86719-3.41993,5.86719-7.30762Z"/><path class="cls-2" d="M293.85059,324.5625c0-3.02344-.03614-4.31934-.03614-4.89551h1.76368c.03613.57617.07226,1.72852.07226,4.03223a6.81762,6.81762,0,0,1,6.26318-4.46387v1.94336c-3.74365.25195-6.26318,2.84375-6.26318,7.12793v9.3584h-1.7998Z"/><path class="cls-2" d="M305.11865,324.31055c0-1.54785,0-3.23926-.03613-4.64356h1.76367c.03613.61231.1084,2.16016.07227,3.2041a5.62911,5.62911,0,0,1,5.39892-3.63574,5.10912,5.10912,0,0,1,5.21973,3.56348,6.12325,6.12325,0,0,1,5.86719-3.56348c2.77148,0,5.65136,1.584,5.65136,6.58692V337.665h-1.7998V326.03809c0-2.41114-.86426-5.03907-4.21191-5.03907-3.49122,0-5.0752,2.80762-5.0752,6.29883V337.665h-1.76367V326.07422c0-2.627-.792-5.0752-4.10352-5.0752-3.49121,0-5.1831,3.09571-5.1831,6.76758V337.665h-1.79981Z"/><path class="cls-2" d="M335.43066,337.665V321.35938H332.335V319.667h3.0957v-2.55566c0-3.02344.86329-6.335,4.89551-6.335a6.75286,6.75286,0,0,1,1.76367.252v1.72754a8.96694,8.96694,0,0,0-1.94433-.21582c-2.123,0-2.915,1.51172-2.915,4.64355v2.4834h3.92285v1.69239h-3.92285V337.665Z"/><path class="cls-2" d="M357.60449,332.41016c0,1.76367.03614,4.57129.03614,5.25488h-1.72852a29.1731,29.1731,0,0,1-.10742-3.13184c-.75586,2.124-2.5918,3.56348-5.79492,3.56348-2.5918,0-5.90332-1.00781-5.90332-6.51465V319.667h1.76367v11.48242c0,2.62793.82715,5.1836,4.3916,5.1836,4.03125,0,5.543-2.26758,5.543-7.415v-9.251h1.7998Z"/><path class="cls-2" d="M363.50977,337.665V311.13672h1.7998V337.665Z"/><path class="cls-2" d="M148.68359,362.86621c2.66358,9.28711,4.21143,14.61426,4.499,16.19824h.03613c.28809-1.43945,2.08789-7.09082,4.89551-16.19824h1.94385c3.34765,11.123,4.35546,14.32617,4.67919,15.73047h.03614c.5039-1.97949,1.332-4.67969,4.64355-15.73047h1.90772l-5.6875,17.998h-1.9795c-1.94384-6.3711-4.28369-14.18262-4.64355-15.83789H158.978c-.35987,1.76367-2.41162,8.207-4.75147,15.83789h-2.15967l-5.291-17.998Z"/><path class="cls-2" d="M187.12939,377.44434a20.51751,20.51751,0,0,0,.25245,3.41992h-1.728a11.81159,11.81159,0,0,1-.32373-2.77149c-.61231,1.332-2.1958,3.20313-5.90332,3.20313-4.17578,0-5.97559-2.69922-5.97559-5.39942,0-3.959,3.05957-5.75878,8.459-5.75878h3.41992v-1.83594c0-1.79981-.54-4.21094-4.64356-4.21094-3.63574,0-4.17578,1.90723-4.57129,3.38281h-1.7998c.21582-1.97949,1.43945-5.03906,6.40723-5.03906,4.103,0,6.40673,1.72754,6.40673,5.6875Zm-1.76367-5.75879h-3.52734c-3.99561,0-6.47949,1.04394-6.47949,4.13965,0,2.26757,1.62011,3.81543,4.13965,3.81543,5.14746,0,5.86718-3.41993,5.86718-7.30762Z"/><path class="cls-2" d="M190.19189,362.86621h3.34766V357.251h1.79981v5.61523h4.2832v1.69238h-4.2832v11.69825c0,2.01562.43164,3.168,2.15966,3.168a6.77734,6.77734,0,0,0,1.87159-.21679v1.584a6.31883,6.31883,0,0,1-2.23145.32422c-2.30371,0-3.59961-1.15137-3.59961-4.03125V364.55859h-3.34766Z"/><path class="cls-2" d="M203.4751,372.08105c.03613,4.64356,2.37549,7.52344,5.83105,7.52344a5.06843,5.06843,0,0,0,5.1836-3.38379h1.83545a6.89993,6.89993,0,0,1-7.09082,5.0752c-5.4712,0-7.59522-4.71485-7.59522-9.28613,0-5.14747,2.55566-9.5752,7.811-9.5752,5.54345,0,7.30712,4.78711,7.30712,8.1709,0,.50391,0,1.00781-.03613,1.47558Zm11.41064-1.584c-.03613-3.56348-1.98-6.37109-5.50732-6.37109-3.70752,0-5.39942,2.59179-5.79541,6.37109Z"/><path class="cls-2" d="M221.15137,367.76172c0-3.02344-.03614-4.31934-.03614-4.89551h1.76368c.03613.57617.07226,1.72852.07226,4.03223a6.81762,6.81762,0,0,1,6.26319-4.46387v1.94336c-3.74366.252-6.26319,2.84375-6.26319,7.12793v9.3584h-1.7998Z"/><path class="cls-2" d="M243.97461,378.2002v9.86328H242.1748V367.294c0-1.47559,0-3.05957-.03613-4.42774h1.76367c.07227.68457.07227,1.76367.07227,3.24024a6.61136,6.61136,0,0,1,6.335-3.67188c4.24756,0,7.19922,3.56348,7.19922,8.96289,0,6.47949-3.45557,9.89844-7.811,9.89844C246.53027,381.2959,244.87451,379.89258,243.97461,378.2002Zm11.62646-6.73047c0-4.17578-2.01562-7.30762-5.5791-7.30762-4.35547,0-6.15527,2.73633-6.15527,7.63086,0,4.82422,1.40381,7.81152,5.90332,7.81152C253.51318,379.60449,255.60107,376.43652,255.60107,371.46973Z"/><path class="cls-2" d="M276.8042,371.8291c0,5.00391-2.77149,9.4668-8.13477,9.4668-4.85937,0-7.8833-3.99512-7.8833-9.43067,0-5.14746,2.84375-9.43066,8.063-9.43066C273.63672,362.43457,276.8042,366.17773,276.8042,371.8291Zm-14.11035.03613c0,4.28321,2.30371,7.73926,6.11914,7.73926,3.88769,0,6.08349-3.2041,6.08349-7.73926,0-4.24707-2.15966-7.73925-6.15527-7.73925C264.6377,364.126,262.69385,367.5459,262.69385,371.86523Z"/><path class="cls-2" d="M281.27,380.86426V354.33594h1.7998v26.52832Z"/><path class="cls-2" d="M288.97363,380.86426V354.33594h1.79981v26.52832Z"/><path class="cls-2" d="M310.13965,375.60938c0,1.76367.03564,4.57128.03564,5.25488h-1.72754a28.99942,28.99942,0,0,1-.10791-3.13184c-.75586,2.124-2.59179,3.56348-5.79541,3.56348-2.59179,0-5.90332-1.00781-5.90332-6.51465v-11.915h1.76368v11.48242c0,2.62793.82812,5.1836,4.3916,5.1836,4.03174,0,5.54345-2.26758,5.54345-7.415v-9.251h1.79981Z"/><path class="cls-2" d="M313.77734,362.86621H317.125V357.251h1.7998v5.61523H323.208v1.69238H318.9248v11.69825c0,2.01562.43165,3.168,2.15918,3.168a6.78275,6.78275,0,0,0,1.87207-.21679v1.584a6.317,6.317,0,0,1-2.23144.32422c-2.30371,0-3.59961-1.15137-3.59961-4.03125V364.55859h-3.34766Z"/><path class="cls-2" d="M326.87988,354.33594h1.79981v3.49121h-1.79981Zm0,8.53027h1.79981v17.998h-1.79981Z"/><path class="cls-2" d="M349.16211,371.8291c0,5.00391-2.77246,9.4668-8.13574,9.4668-4.85938,0-7.88282-3.99512-7.88282-9.43067,0-5.14746,2.84375-9.43066,8.06348-9.43066C345.99414,362.43457,349.16211,366.17773,349.16211,371.8291Zm-14.11035.03613c0,4.28321,2.30371,7.73926,6.11914,7.73926,3.88769,0,6.083-3.2041,6.083-7.73926,0-4.24707-2.16016-7.73925-6.15528-7.73925C336.99512,364.126,335.05176,367.5459,335.05176,371.86523Z"/><path class="cls-2" d="M353.627,367.40234c0-1.584,0-3.0957-.03515-4.53613h1.76367c.07129.57617.10742,2.916.07129,3.41992a5.87924,5.87924,0,0,1,5.97558-3.85156c3.20411,0,6.04688,1.79981,6.04688,6.76758v11.66211h-1.79981v-11.375c0-3.20313-1.33105-5.291-4.46289-5.291-4.2832,0-5.75976,3.56348-5.75976,7.48731v9.17871H353.627Z"/><path class="cls-1" d="M-207.89326,943.0618c-142.5,0-258-115.5-258-258a257.961,257.961,0,0,1,75.6-182.4c100.8-100.8,264.1-100.8,364.9,0s100.8,264.1,0,364.9A256.49775,256.49775,0,0,1-207.89326,943.0618Z"/><path class="cls-3" d="M264.77942,183.51936s-5.01641-19.42366,49.79555-37.783,38.31516-65.45507,38.31516-65.45507-58.00489-30.59891-6.38586-36.18654h-20.754s-34.85616,5.60241-40.97594,14.77469,4.95865,26.20125,4.95865,26.20125,13.4007,8.78055-38.48441,15.96465-79.498,6.11978-92.43237,23.947-27.30251,61.10174-27.30251,61.10174Z"/><path class="cls-4" d="M190.61124,157.49866a12.96936,12.96936,0,0,1-3.95716-7.05545,8.10323,8.10323,0,0,1,2.5232-7.45019c2.23813-1.85671,5.426-2.05517,8.30693-1.65943s5.70456,1.29575,8.61251,1.31538a14.52647,14.52647,0,0,0,10.89729-4.91632,16.6914,16.6914,0,0,1,3.21158-3.40681,10.59139,10.59139,0,0,1,5.16261-1.213l13.22-.80832c4.61957-.28245,9.46332-.52508,13.65763,1.43144,3.36764,1.57089,6.53255,4.568,10.18932,3.90713,1.79033-.32357,3.28785-1.49742,4.90577-2.32949s3.69884-1.29221,5.17577-.22981a4.78345,4.78345,0,0,1,1.50782,2.127c2.33113,5.65406-.39213,12.02026-3.20146,17.45258a5.68487,5.68487,0,0,1-1.881,2.41539c-2.03179,1.2266-4.50882-.388-6.80167-1.00083-7.71724-2.06267-13.90095,7.5468-21.85491,8.285-5.45747.5065-11.25976-3.2524-16.15412-.78546-2.40913,1.2143-4.0223,3.75359-6.55943,4.67089-2.26039.81724-4.766.17281-7.04692-.58529a74.628,74.628,0,0,1-20.92258-10.89016"/><path class="cls-5" d="M307.74382,105.7039a8.49747,8.49747,0,0,1,4.214-16.352,6.63253,6.63253,0,0,0,2.17678.15571c1.56-.30575,2.41612-2.11651,2.30036-3.702a14.21706,14.21706,0,0,0-1.55626-4.47977c-1.28532-2.95769-1.88519-6.39446-.71851-9.40092s4.49182-5.29495,7.617-4.49936c4.40994,1.12264,5.753,6.96718,9.6432,9.32819,3.26105,1.97918,7.46212,1.05777,11.18034,1.91007a4.57447,4.57447,0,0,1,3.91453,3.69593c1.25483,4.35868-.0812,9.15574,1.22349,13.49976.55237,1.83912,1.56235,3.5295,1.97225,5.40552.88806,4.06438-1.23616,8.28025-4.22964,11.16935a20.36768,20.36768,0,0,1-11.0307,5.44411c-10.68052,1.60629-21.07314-5.74211-26.53208-15.06164"/><path class="cls-6" d="M309.00561,103.54522c-4.03194-1.97663-5.8442-7.1353-1.87518-10.314,2.75553-2.20682,4.83266-.60308,7.66873-1.31291,3.68141-.9214,4.6608-5.109,3.73234-8.31933-.83054-2.87169-2.7373-5.40806-2.48922-8.55779.28192-3.57935,3.76806-6.53843,7.00482-4.04209a14.20489,14.20489,0,0,1,2.33631,2.93092c2.82416,3.78555,5.44172,5.99479,10.30342,6.59345,4.22689.5205,8.33171-.26914,8.86551,5.17361.27792,2.83382-.11085,5.68109.31072,8.514.392,2.63409,1.8114,4.88212,2.28889,7.46178.79914,4.31742-1.95334,8.1468-5.34129,10.58706-11.58929,8.34752-25.3225-.29258-31.73341-10.70479-1.68412-2.73526-6.01076-.22675-4.31735,2.52359,6.277,10.19479,17.607,18.49333,30.12232,16.064A21.76293,21.76293,0,0,0,350.528,109.96424c3.82438-6.81187-.39152-11.45709-.88659-18.28473-.3763-5.18972.91463-12.43572-4.9939-14.97925-3.4151-1.47015-7.34946-.384-10.76779-1.68356-3.51064-1.33469-4.71023-5.09482-7.29706-7.55311a8.653,8.653,0,0,0-12.20158-.12112C310.0375,71.45782,310.64642,77.501,312.72,82.58771c2.26253,5.55028-2.218,3.60651-5.75237,4.9688a11.51979,11.51979,0,0,0-6.11546,5.54086c-2.78187,5.59727.30748,12.15594,5.62986,14.76521,2.87853,1.41118,5.41568-2.89953,2.52359-4.31736Z"/></svg>