<svg id="Layer_1" data-name="Layer 1" xmlns="http://www.w3.org/2000/svg" viewBox="0 0 516.1 516.0011"><defs><style>.cls-1{fill:#93278f;}.cls-2{fill:#fff;}.cls-3{fill:#2e3192;}.cls-4{fill:#ff0;}</style></defs><title>bread4</title><path class="cls-1" d="M258,515.99945c-142.5,0-258-115.5-258-258a257.961,257.961,0,0,1,75.6-182.4c100.8-100.8,264.1-100.8,364.9,0s100.8,264.1,0,364.9A256.49776,256.49776,0,0,1,258,515.99945Z"/><path class="cls-2" d="M258,.5C400.3.6,515.5,116,515.4,258.2a257.624,257.624,0,0,1-157.2,237C227.1,550.5,76.1,489,20.8,357.9-34.4,227,26.9,76,157.7,20.6A258.09883,258.09883,0,0,1,258,.5m0-1C115.2-.5-.5,115.2-.5,258S115.2,516.5,258,516.5,516.5,400.8,516.5,258,400.8-.5,258-.5Z"/><path class="cls-2" d="M109.91211,227.86719h-8.459v-1.79981h18.93359v1.79981h-8.49463v23.397h-1.98Z"/><path class="cls-2" d="M123.55664,224.73535h1.79981v3.4917h-1.79981Zm0,8.53076h1.79981v17.99805h-1.79981Z"/><path class="cls-2" d="M131.26025,251.26416V224.73535h1.79981v26.52881Z"/><path class="cls-2" d="M138.96387,251.26416V224.73535h1.7998v26.52881Z"/><path class="cls-2" d="M146.66748,224.73535h1.79981v3.4917h-1.79981Zm0,8.53076h1.79981v17.99805h-1.79981Z"/><path class="cls-2" d="M154.37109,237.80225c0-1.584,0-3.09571-.03613-4.53614h1.76367c.07227.57618.1084,2.916.07227,3.41993a5.8781,5.8781,0,0,1,5.9751-3.85157c3.20361,0,6.04736,1.79981,6.04736,6.76758v11.66211h-1.79981v-11.375c0-3.20312-1.332-5.291-4.46337-5.291-4.2837,0-5.75928,3.56348-5.75928,7.48731v9.17871h-1.79981Z"/><path class="cls-2" d="M187.84863,250.04053c0,5.75879-2.55566,8.78271-7.7749,8.78271-4.6792,0-6.62305-2.62744-7.05518-5.36377h1.83594c.648,2.48438,2.69971,3.67188,5.29151,3.67188,4.6792,0,5.97509-3.02344,5.97509-7.59473v-1.87207c-.97168,2.33984-2.73584,3.59961-6.01123,3.59961-4.21142,0-7.45117-3.41992-7.45117-8.999,0-6.04688,3.45557-9.43067,7.70313-9.43067,3.67138,0,5.25537,1.72754,5.75927,3.168.03614-1.04394.07178-2.30371.10791-2.73633h1.6919c0,.64844-.07227,3.49219-.07227,5.21973Zm-13.28222-7.84766c0,4.28418,2.26806,7.37988,5.72363,7.37988,4.499,0,5.86719-2.98828,5.86719-7.667,0-4.75195-1.43994-7.37988-5.75928-7.37988C176.2583,234.52588,174.56641,238.08936,174.56641,242.19287Z"/><path class="cls-2" d="M203.11426,246.29639c.61181,2.33984,2.26758,3.74414,5.11133,3.74414,3.20361,0,4.49951-1.47559,4.49951-3.49219,0-2.05176-.86377-3.05957-4.89551-4.03125-4.64355-1.11523-5.79541-2.51953-5.79541-4.89551,0-2.4834,1.87207-4.78711,5.93945-4.78711s6.01123,2.4834,6.29932,5.03907h-1.79981a4.24231,4.24231,0,0,0-4.57128-3.38282c-3.13184,0-4.03174,1.54688-4.03174,2.98731,0,1.65527.86377,2.4834,4.42724,3.34765,5.07569,1.22364,6.33545,2.87989,6.33545,5.57911,0,3.27539-2.66357,5.291-6.44336,5.291-4.10351,0-6.40722-2.15918-6.91113-5.39941Z"/><path class="cls-2" d="M233.67578,242.229c0,5.00391-2.77148,9.4668-8.13476,9.4668-4.85938,0-7.88331-3.99512-7.88331-9.43066,0-5.14746,2.84375-9.43067,8.063-9.43067C230.5083,232.83447,233.67578,236.57764,233.67578,242.229Zm-14.11035.03614c0,4.2832,2.30371,7.73925,6.11914,7.73925,3.8877,0,6.0835-3.2041,6.0835-7.73925,0-4.24707-2.15967-7.73926-6.15528-7.73926C221.50928,234.52588,219.56543,237.9458,219.56543,242.26514Z"/><path class="cls-2" d="M238.28516,224.73535h1.7998v3.4917h-1.7998Zm0,8.53076h1.7998v17.99805h-1.7998Z"/><path class="cls-2" d="M245.98877,251.26416V224.73535h1.7998v26.52881Z"/><path class="cls-2" d="M250.77686,255.36768a22.88948,22.88948,0,0,0,2.51953-8.71094h1.7998a22.51959,22.51959,0,0,1-2.69971,8.71094Z"/><path class="cls-2" d="M269.1001,224.73535h1.7998v3.4917h-1.7998Zm0,8.53076h1.7998v17.99805h-1.7998Z"/><path class="cls-2" d="M276.8042,238.16162c0-3.02344-.03613-4.31933-.03613-4.89551h1.76367c.03613.57618.07226,1.72852.07226,4.03223a6.81762,6.81762,0,0,1,6.26319-4.46387v1.94336c-3.74365.252-6.26319,2.84375-6.26319,7.12793v9.3584h-1.7998Z"/><path class="cls-2" d="M288.07227,238.16162c0-3.02344-.03614-4.31933-.03614-4.89551h1.76367c.03614.57618.07227,1.72852.07227,4.03223a6.81762,6.81762,0,0,1,6.26318-4.46387v1.94336c-3.74365.252-6.26318,2.84375-6.26318,7.12793v9.3584h-1.7998Z"/><path class="cls-2" d="M299.44775,224.73535h1.79981v3.4917h-1.79981Zm0,8.53076h1.79981v17.99805h-1.79981Z"/><path class="cls-2" d="M320.90137,250.04053c0,5.75879-2.55567,8.78271-7.77442,8.78271-4.67968,0-6.62353-2.62744-7.05566-5.36377h1.83594c.64795,2.48438,2.6997,3.67188,5.291,3.67188,4.67969,0,5.97559-3.02344,5.97559-7.59473v-1.87207c-.97168,2.33984-2.73535,3.59961-6.01172,3.59961-4.21094,0-7.45068-3.41992-7.45068-8.999,0-6.04688,3.45556-9.43067,7.70361-9.43067,3.6709,0,5.25488,1.72754,5.75879,3.168.03613-1.04394.07226-2.30371.1084-2.73633h1.6914c0,.64844-.07226,3.49219-.07226,5.21973Zm-13.28223-7.84766c0,4.28418,2.26807,7.37988,5.72363,7.37988,4.499,0,5.86719-2.98828,5.86719-7.667,0-4.75195-1.44043-7.37988-5.75976-7.37988C309.311,234.52588,307.61914,238.08936,307.61914,242.19287Z"/><path class="cls-2" d="M338.83008,247.84424a20.64348,20.64348,0,0,0,.25195,3.41992h-1.72754a11.85762,11.85762,0,0,1-.32422-2.77148c-.61132,1.332-2.19531,3.20312-5.90332,3.20312-4.1748,0-5.97461-2.69922-5.97461-5.39941,0-3.959,3.05957-5.75879,8.459-5.75879h3.41894v-1.83594c0-1.7998-.54-4.21094-4.64355-4.21094-3.63477,0-4.17481,1.90723-4.57129,3.38282h-1.7998c.21582-1.9795,1.44042-5.03907,6.40722-5.03907,4.10352,0,6.40723,1.72754,6.40723,5.6875Zm-1.76367-5.75879h-3.52735c-3.99511,0-6.47949,1.04394-6.47949,4.13965,0,2.26758,1.62012,3.81543,4.13965,3.81543,5.14746,0,5.86719-3.41992,5.86719-7.30762Z"/><path class="cls-2" d="M341.8916,233.26611h3.34766v-5.61523h1.7998v5.61523h4.28321v1.69239h-4.28321v11.69824c0,2.01562.43164,3.168,2.15918,3.168a6.78277,6.78277,0,0,0,1.87207-.2168v1.584a6.31708,6.31708,0,0,1-2.23144.32422c-2.30371,0-3.59961-1.15136-3.59961-4.03125V234.9585H341.8916Z"/><path class="cls-2" d="M354.99512,224.73535h1.7998v3.4917h-1.7998Zm0,8.53076h1.7998v17.99805h-1.7998Z"/><path class="cls-2" d="M362.69824,237.80225c0-1.584,0-3.09571-.03515-4.53614h1.76367c.07129.57618.10742,2.916.07129,3.41993a5.87923,5.87923,0,0,1,5.97558-3.85157c3.2041,0,6.04688,1.79981,6.04688,6.76758v11.66211h-1.79883v-11.375c0-3.20312-1.332-5.291-4.46387-5.291-4.2832,0-5.75976,3.56348-5.75976,7.48731v9.17871h-1.79981Z"/><path class="cls-2" d="M396.17676,250.04053c0,5.75879-2.55567,8.78271-7.77539,8.78271-4.67969,0-6.623-2.62744-7.05469-5.36377h1.83594c.64746,2.48438,2.69922,3.67188,5.291,3.67188,4.67969,0,5.97461-3.02344,5.97461-7.59473v-1.87207c-.97168,2.33984-2.73535,3.59961-6.01074,3.59961-4.21191,0-7.45117-3.41992-7.45117-8.999,0-6.04688,3.45605-9.43067,7.70312-9.43067,3.67188,0,5.25489,1.72754,5.75879,3.168.03614-1.04394.07227-2.30371.1084-2.73633h1.69141c0,.64844-.07129,3.49219-.07129,5.21973Zm-13.28223-7.84766c0,4.28418,2.26758,7.37988,5.72266,7.37988,4.5,0,5.86719-2.98828,5.86719-7.667,0-4.75195-1.43946-7.37988-5.75879-7.37988C384.58594,234.52588,382.89453,238.08936,382.89453,242.19287Z"/><path class="cls-2" d="M399.49023,255.36768a22.89837,22.89837,0,0,0,2.51954-8.71094h1.7998a22.5359,22.5359,0,0,1-2.69922,8.71094Z"/><path class="cls-2" d="M46.30273,267.93652v11.55469a6.27719,6.27719,0,0,1,5.939-3.45605c2.55615,0,6.0835,1.29589,6.0835,6.98339v11.44629H56.52539V283.37793c0-3.56348-1.61963-5.5791-4.60742-5.5791-3.56348,0-5.61524,2.19629-5.61524,6.623v10.043h-1.7998V267.93652Z"/><path class="cls-2" d="M76.36084,291.04492a20.51772,20.51772,0,0,0,.25244,3.41992h-1.728a11.81156,11.81156,0,0,1-.32373-2.77148c-.6123,1.332-2.1958,3.20312-5.90332,3.20312-4.17578,0-5.97558-2.69921-5.97558-5.39941,0-3.959,3.05957-5.75879,8.459-5.75879h3.41992v-1.83594c0-1.7998-.54-4.21093-4.64355-4.21093-3.63574,0-4.17578,1.90722-4.57129,3.38281h-1.7998c.21582-1.97949,1.43945-5.03906,6.40722-5.03906,4.103,0,6.40674,1.72754,6.40674,5.6875Zm-1.76367-5.75879H71.06982c-3.9956,0-6.47949,1.04395-6.47949,4.13965,0,2.26758,1.62012,3.81543,4.13965,3.81543,5.14746,0,5.86719-3.41992,5.86719-7.30762Z"/><path class="cls-2" d="M82.30225,281.3623c0-3.02343-.03614-4.31933-.03614-4.8955h1.76368c.03613.57617.07226,1.72851.07226,4.03222a6.81761,6.81761,0,0,1,6.26318-4.46386v1.94336c-3.74365.252-6.26318,2.84375-6.26318,7.12793v9.35839h-1.7998Z"/><path class="cls-2" d="M94.686,276.4668c2.91552,8.24316,4.93115,13.8584,5.61523,16.16211h.03564c.396-1.332,2.41211-6.69532,5.90332-16.16211H108.148l-6.80274,17.998H99.18506l-6.40674-17.998Z"/><path class="cls-2" d="M112.07373,285.68164c.03613,4.64356,2.37549,7.52344,5.83106,7.52344a5.06842,5.06842,0,0,0,5.18359-3.38379h1.83545a6.89992,6.89992,0,0,1-7.09082,5.07519c-5.47119,0-7.59522-4.71484-7.59522-9.28613,0-5.14746,2.55567-9.57519,7.811-9.57519,5.54346,0,7.30713,4.78711,7.30713,8.17089,0,.50391,0,1.00782-.03614,1.47559Zm11.41065-1.583c-.03614-3.56445-1.98-6.37207-5.50733-6.37207-3.70752,0-5.39941,2.5918-5.79541,6.37207Z"/><path class="cls-2" d="M130.18164,289.49707c.61182,2.33984,2.26758,3.74414,5.11133,3.74414,3.20361,0,4.49951-1.47558,4.49951-3.49219,0-2.05175-.86377-3.05957-4.89551-4.03125-4.64355-1.11523-5.79541-2.51953-5.79541-4.8955,0-2.4834,1.87207-4.78711,5.93946-4.78711s6.01123,2.48339,6.29931,5.03906h-1.7998a4.24233,4.24233,0,0,0-4.57129-3.38281c-3.13184,0-4.03174,1.54687-4.03174,2.9873,0,1.65527.86377,2.4834,4.42725,3.34766,5.07568,1.22363,6.33545,2.87988,6.33545,5.5791,0,3.27539-2.66358,5.291-6.44336,5.291-4.10352,0-6.40723-2.15918-6.91114-5.39941Z"/><path class="cls-2" d="M143.35742,276.4668h3.34766v-5.61524h1.7998v5.61524h4.28321v1.69238h-4.28321v11.69824c0,2.01563.43164,3.168,2.15967,3.168a6.77687,6.77687,0,0,0,1.87158-.2168v1.584a6.319,6.319,0,0,1-2.23144.32422c-2.30371,0-3.59961-1.15137-3.59961-4.03125V278.15918h-3.34766Z"/><path class="cls-2" d="M156.46094,267.93652h1.7998v3.49121h-1.7998Zm0,8.53028h1.7998v17.998h-1.7998Z"/><path class="cls-2" d="M164.16455,281.00293c0-1.584,0-3.0957-.03613-4.53613h1.76367c.07227.57617.1084,2.916.07227,3.41992a5.87808,5.87808,0,0,1,5.97509-3.85156c3.20362,0,6.04737,1.7998,6.04737,6.76757v11.66211H176.187v-11.375c0-3.20312-1.332-5.291-4.46338-5.291-4.28369,0-5.75927,3.56347-5.75927,7.4873v9.17871h-1.79981Z"/><path class="cls-2" d="M197.64258,293.24121c0,5.75879-2.55615,8.78223-7.77539,8.78223-4.6792,0-6.62305-2.627-7.05518-5.36328H184.648c.64795,2.48437,2.69971,3.67187,5.2915,3.67187,4.6792,0,5.9751-3.02344,5.9751-7.59473v-1.87207c-.97168,2.33985-2.73584,3.59961-6.01123,3.59961-4.21143,0-7.45117-3.41992-7.45117-8.999,0-6.04687,3.45556-9.43066,7.70312-9.43066,3.67139,0,5.25537,1.72754,5.75928,3.168.03613-1.04395.07178-2.30372.10791-2.73633h1.6919c0,.64843-.07178,3.49218-.07178,5.21972Zm-13.28272-7.84766c0,4.28418,2.26807,7.37989,5.72364,7.37989,4.499,0,5.86718-2.98828,5.86718-7.667,0-4.752-1.43994-7.37989-5.75927-7.37989C186.05176,277.72656,184.35986,281.29,184.35986,285.39355Z"/><path class="cls-2" d="M200.95557,298.56836a22.88938,22.88938,0,0,0,2.51953-8.71094h1.7998a22.5197,22.5197,0,0,1-2.6997,8.71094Z"/><path class="cls-2" d="M231.625,291.04492a20.58812,20.58812,0,0,0,.25195,3.41992h-1.72754a11.81156,11.81156,0,0,1-.32373-2.77148c-.6123,1.332-2.1958,3.20312-5.90332,3.20312-4.17578,0-5.97558-2.69921-5.97558-5.39941,0-3.959,3.05957-5.75879,8.459-5.75879h3.41992v-1.83594c0-1.7998-.54-4.21093-4.64355-4.21093-3.63574,0-4.17578,1.90722-4.57129,3.38281H218.811c.21582-1.97949,1.43945-5.03906,6.40722-5.03906,4.103,0,6.40674,1.72754,6.40674,5.6875Zm-1.76367-5.75879H226.334c-3.9956,0-6.47949,1.04395-6.47949,4.13965,0,2.26758,1.62012,3.81543,4.13965,3.81543,5.14746,0,5.86719-3.41992,5.86719-7.30762Z"/><path class="cls-2" d="M237.56689,281.00293c0-1.584,0-3.0957-.03613-4.53613h1.76367c.07227.57617.1084,2.916.07227,3.41992a5.8781,5.8781,0,0,1,5.9751-3.85156c3.20361,0,6.04736,1.7998,6.04736,6.76757v11.66211h-1.7998v-11.375c0-3.20312-1.332-5.291-4.46338-5.291-4.28369,0-5.75928,3.56347-5.75928,7.4873v9.17871h-1.79981Z"/><path class="cls-2" d="M271.18848,267.93652v21.34473c0,1.72754,0,3.38379.03613,5.18359h-1.72754c-.07227-.43164-.1084-2.124-.1084-3.02343-.8999,2.19531-2.91553,3.45507-6.04687,3.45507-4.67969,0-7.48731-3.81543-7.48731-9.21484,0-5.543,3.05957-9.64648,7.95508-9.64648,3.59961,0,5.03955,1.54785,5.5791,2.69922V267.93652Zm-13.42627,17.67383c0,4.93067,2.55566,7.59473,5.65136,7.59473,4.75147,0,6.04737-3.27539,6.04737-8.1709,0-4.64355-1.11573-7.30762-5.72315-7.30762C260.17383,277.72656,257.76221,280.57031,257.76221,285.61035Z"/><path class="cls-2" d="M286.84961,285.68164c.03613,4.64356,2.37549,7.52344,5.83105,7.52344a5.06843,5.06843,0,0,0,5.1836-3.38379h1.83545a6.89992,6.89992,0,0,1-7.09082,5.07519c-5.47119,0-7.59522-4.71484-7.59522-9.28613,0-5.14746,2.55567-9.57519,7.811-9.57519,5.54345,0,7.30713,4.78711,7.30713,8.17089,0,.50391,0,1.00782-.03614,1.47559Zm11.41064-1.583c-.03613-3.56445-1.98-6.37207-5.50732-6.37207-3.70752,0-5.39941,2.5918-5.79541,6.37207Z"/><path class="cls-2" d="M304.66943,294.46484V267.93652h1.79981v26.52832Z"/><path class="cls-2" d="M312.76855,285.68164c.03614,4.64356,2.376,7.52344,5.832,7.52344a5.06749,5.06749,0,0,0,5.18261-3.38379h1.83594a6.89951,6.89951,0,0,1-7.09082,5.07519c-5.47168,0-7.59521-4.71484-7.59521-9.28613,0-5.14746,2.55615-9.57519,7.811-9.57519,5.543,0,7.30762,4.78711,7.30762,8.17089,0,.50391,0,1.00782-.03613,1.47559Zm11.41114-1.583c-.03614-3.56445-1.97949-6.37207-5.50781-6.37207-3.707,0-5.39942,2.5918-5.79493,6.37207Z"/><path class="cls-2" d="M343.87109,289.17383c-.86425,3.167-2.95214,5.72265-6.98339,5.72265-4.499,0-7.70313-3.34765-7.70313-9.35839,0-4.93164,2.62793-9.50293,7.91895-9.50293a6.43573,6.43573,0,0,1,6.76757,5.75879h-1.83593c-.54-2.08692-1.90821-4.06739-4.96778-4.06739-3.81543,0-5.97461,3.24024-5.97461,7.73926,0,4.2832,2.01563,7.73926,5.79493,7.73926,2.62793,0,4.21191-1.332,5.14746-4.03125Z"/><path class="cls-2" d="M345.78027,276.4668h3.34766v-5.61524h1.7998v5.61524h4.28321v1.69238h-4.28321v11.69824c0,2.01563.43165,3.168,2.15918,3.168a6.78239,6.78239,0,0,0,1.87207-.2168v1.584a6.31728,6.31728,0,0,1-2.23144.32422c-2.30371,0-3.59961-1.15137-3.59961-4.03125V278.15918h-3.34766Z"/><path class="cls-2" d="M358.55957,281.3623c0-3.02343-.03516-4.31933-.03516-4.8955h1.76368c.03613.57617.07129,1.72851.07129,4.03222a6.81773,6.81773,0,0,1,6.26367-4.46386v1.94336c-3.74317.252-6.26367,2.84375-6.26367,7.12793v9.35839h-1.79981Z"/><path class="cls-2" d="M369.93555,267.93652h1.7998v3.49121h-1.7998Zm0,8.53028h1.7998v17.998h-1.7998Z"/><path class="cls-2" d="M390.88672,289.17383c-.86426,3.167-2.95215,5.72265-6.9834,5.72265-4.499,0-7.70312-3.34765-7.70312-9.35839,0-4.93164,2.62793-9.50293,7.91894-9.50293a6.43575,6.43575,0,0,1,6.76758,5.75879h-1.83594c-.54-2.08692-1.9082-4.06739-4.96777-4.06739-3.81543,0-5.97461,3.24024-5.97461,7.73926,0,4.2832,2.01562,7.73926,5.79492,7.73926,2.62793,0,4.21191-1.332,5.14746-4.03125Z"/><path class="cls-2" d="M395.53027,267.93652h1.79981v3.49121h-1.79981Zm0,8.53028h1.79981v17.998h-1.79981Z"/><path class="cls-2" d="M400.78613,276.4668h3.34766v-5.61524h1.7998v5.61524h4.28321v1.69238h-4.28321v11.69824c0,2.01563.43164,3.168,2.15918,3.168a6.78239,6.78239,0,0,0,1.87207-.2168v1.584a6.31728,6.31728,0,0,1-2.23144.32422c-2.30371,0-3.59961-1.15137-3.59961-4.03125V278.15918h-3.34766Z"/><path class="cls-2" d="M414.501,276.4668c3.63574,10.29492,5.21972,14.542,5.832,16.48633h.03515c.72071-2.19629,2.16016-6.3711,5.65137-16.48633h1.87207l-6.76758,19.042c-1.90722,5.32715-3.20312,6.51465-6.44238,6.51465a11.96169,11.96169,0,0,1-1.65625-.10742v-1.79981a11.80685,11.80685,0,0,0,1.62012.10742c2.59179,0,3.41894-1.25976,4.751-4.96679l-6.875-18.79Z"/><path class="cls-2" d="M440.708,267.93652h1.7998v3.49121H440.708Zm0,8.53028h1.7998v17.998H440.708Z"/><path class="cls-2" d="M448.41211,281.00293c0-1.584,0-3.0957-.03516-4.53613h1.76368c.07128.57617.10742,2.916.07128,3.41992a5.87925,5.87925,0,0,1,5.97559-3.85156c3.2041,0,6.04688,1.7998,6.04688,6.76757v11.66211h-1.79981v-11.375c0-3.20312-1.33105-5.291-4.46289-5.291-4.2832,0-5.75977,3.56347-5.75977,7.4873v9.17871h-1.7998Z"/><path class="cls-2" d="M91.94824,324.31055c0-1.54785,0-3.23926-.03613-4.64356h1.76367c.03613.61231.1084,2.16016.07227,3.2041a5.6293,5.6293,0,0,1,5.39941-3.63574,5.10853,5.10853,0,0,1,5.21924,3.56348,6.12427,6.12427,0,0,1,5.86719-3.56348c2.77148,0,5.65136,1.584,5.65136,6.58692V337.665h-1.7998V326.03809c0-2.41114-.86377-5.03907-4.21143-5.03907-3.4917,0-5.07519,2.80762-5.07519,6.29883V337.665h-1.76416V326.07422c0-2.627-.79151-5.0752-4.10352-5.0752-3.49121,0-5.1831,3.09571-5.1831,6.76758V337.665H91.94824Z"/><path class="cls-2" d="M121.792,311.13672h1.79981v3.49121H121.792Zm0,8.53027h1.79981v17.998H121.792Z"/><path class="cls-2" d="M129.49561,337.665V311.13672h1.7998V337.665Z"/><path class="cls-2" d="M137.19922,337.665V311.13672h1.7998V337.665Z"/><path class="cls-2" d="M144.72314,332.69727c.61182,2.33984,2.26758,3.74414,5.11133,3.74414,3.20362,0,4.49951-1.47559,4.49951-3.49219,0-2.05176-.86377-3.05957-4.8955-4.03125-4.64356-1.11524-5.79541-2.51953-5.79541-4.89551,0-2.4834,1.87207-4.78711,5.93945-4.78711s6.01123,2.4834,6.29932,5.03906H154.082a4.24233,4.24233,0,0,0-4.57129-3.38281c-3.13183,0-4.03174,1.54688-4.03174,2.98731,0,1.65527.86377,2.48339,4.42725,3.34765,5.07568,1.22364,6.33545,2.87989,6.33545,5.5791,0,3.27539-2.66357,5.291-6.44336,5.291-4.10352,0-6.40723-2.15918-6.91113-5.39941Z"/><path class="cls-2" d="M182.4126,334.24512a20.51782,20.51782,0,0,0,.25244,3.41992h-1.728a11.81159,11.81159,0,0,1-.32373-2.77149c-.6123,1.332-2.1958,3.20313-5.90332,3.20313-4.17578,0-5.97558-2.69922-5.97558-5.39941,0-3.959,3.05957-5.75879,8.459-5.75879h3.41992v-1.83594c0-1.79981-.54-4.21094-4.64355-4.21094-3.63575,0-4.17578,1.90723-4.57129,3.38281h-1.79981c.21582-1.97949,1.43946-5.03906,6.40723-5.03906,4.103,0,6.40674,1.72754,6.40674,5.6875Zm-1.76367-5.75879h-3.52735c-3.9956,0-6.47949,1.04394-6.47949,4.13965,0,2.26757,1.62012,3.81543,4.13965,3.81543,5.14746,0,5.86719-3.41993,5.86719-7.30762Z"/><path class="cls-2" d="M188.35449,324.20313c0-1.584,0-3.09571-.03613-4.53614H190.082c.07227.57617.1084,2.916.07227,3.41992a5.8781,5.8781,0,0,1,5.97509-3.85156c3.20362,0,6.04737,1.79981,6.04737,6.76758V337.665H200.377V326.29c0-3.20313-1.332-5.291-4.46338-5.291-4.28369,0-5.75927,3.56348-5.75927,7.48731V337.665h-1.79981Z"/><path class="cls-2" d="M221.97607,311.13672v21.34473c0,1.72851,0,3.38378.03614,5.18359h-1.72754c-.07227-.43164-.1084-2.124-.1084-3.02344-.8999,2.19531-2.91553,3.45508-6.04688,3.45508-4.67968,0-7.4873-3.81543-7.4873-9.21484,0-5.543,3.05957-9.64649,7.95508-9.64649,3.59961,0,5.03955,1.54785,5.5791,2.69922V311.13672ZM208.5498,328.81055c0,4.93066,2.55567,7.59472,5.65137,7.59472,4.75147,0,6.04737-3.27539,6.04737-8.17089,0-4.64356-1.11573-7.30762-5.72315-7.30762C210.96143,320.92676,208.5498,323.77051,208.5498,328.81055Z"/><path class="cls-2" d="M237.24121,311.13672H239.041v11.55371c.86377-1.79883,2.62744-3.45508,6.15527-3.45508,4.24756,0,7.37891,3.49121,7.37891,9.03516,0,5.68652-2.80762,9.82617-7.84717,9.82617-3.02344,0-4.751-1.22363-5.687-3.27539,0,1.15234-.03614,2.33984-.07227,2.84375h-1.76367c.03613-2.05176.03613-4.10352.03613-6.15527Zm13.42627,17.16992c0-4.5-2.23193-7.37988-5.65137-7.37988-4.49951,0-6.083,3.05957-6.083,7.77539,0,4.24707,1.4038,7.70312,5.86718,7.70312C248.43555,336.40527,250.66748,333.38184,250.66748,328.30664Z"/><path class="cls-2" d="M269.38721,334.24512a20.51782,20.51782,0,0,0,.25244,3.41992h-1.728a11.81159,11.81159,0,0,1-.32373-2.77149c-.6123,1.332-2.1958,3.20313-5.90332,3.20313-4.17578,0-5.97559-2.69922-5.97559-5.39941,0-3.959,3.05957-5.75879,8.459-5.75879h3.41992v-1.83594c0-1.79981-.54-4.21094-4.64355-4.21094-3.63575,0-4.17579,1.90723-4.57129,3.38281h-1.79981c.21582-1.97949,1.43946-5.03906,6.40723-5.03906,4.103,0,6.40674,1.72754,6.40674,5.6875Zm-1.76367-5.75879h-3.52735c-3.9956,0-6.47949,1.04394-6.47949,4.13965,0,2.26757,1.62012,3.81543,4.13965,3.81543,5.14746,0,5.86719-3.41993,5.86719-7.30762Z"/><path class="cls-2" d="M277.12842,328.9541c1.65576-1.76367,6.69531-6.875,9.10693-9.28711h2.30371l-7.12744,7.16309,8.02734,10.835H287.207l-7.09082-9.68262-2.98779,2.87988V337.665h-1.79981V311.13672h1.79981Z"/><path class="cls-2" d="M292.35693,328.88184c.03614,4.64355,2.37549,7.52343,5.83106,7.52343a5.06841,5.06841,0,0,0,5.18359-3.38379H305.207a6.89992,6.89992,0,0,1-7.09082,5.0752c-5.47119,0-7.59521-4.71484-7.59521-9.28613,0-5.14746,2.55566-9.5752,7.811-9.5752,5.54346,0,7.30713,4.78711,7.30713,8.1709,0,.50391,0,1.00781-.03613,1.47559Zm11.41065-1.584c-.03613-3.56347-1.98-6.37109-5.50733-6.37109-3.70752,0-5.39941,2.59179-5.79541,6.37109Z"/><path class="cls-2" d="M310.03271,324.5625c0-3.02344-.03613-4.31934-.03613-4.89551h1.76367c.03614.57617.07227,1.72852.07227,4.03223a6.8166,6.8166,0,0,1,6.26318-4.46387v1.94336c-3.74316.25195-6.26318,2.84375-6.26318,7.12793v9.3584h-1.79981Z"/><path class="cls-2" d="M321.4082,311.13672H323.208v3.49121H321.4082Zm0,8.53027H323.208v17.998H321.4082Z"/><path class="cls-2" d="M329.50879,328.88184c.03613,4.64355,2.376,7.52343,5.83105,7.52343a5.06888,5.06888,0,0,0,5.1836-3.38379h1.83594a6.90075,6.90075,0,0,1-7.0918,5.0752c-5.4707,0-7.59473-4.71484-7.59473-9.28613,0-5.14746,2.55567-9.5752,7.81153-9.5752,5.543,0,7.30664,4.78711,7.30664,8.1709,0,.50391,0,1.00781-.03614,1.47559Zm11.41016-1.584c-.03614-3.56347-1.9795-6.37109-5.50684-6.37109-3.708,0-5.39941,2.59179-5.7959,6.37109Z"/><path class="cls-2" d="M347.61523,332.69727c.61231,2.33984,2.26856,3.74414,5.11231,3.74414,3.20312,0,4.499-1.47559,4.499-3.49219,0-2.05176-.86426-3.05957-4.89551-4.03125-4.64355-1.11524-5.79492-2.51953-5.79492-4.89551,0-2.4834,1.8711-4.78711,5.93848-4.78711,4.06836,0,6.01172,2.4834,6.2998,5.03906h-1.7998a4.24233,4.24233,0,0,0-4.57129-3.38281c-3.13184,0-4.03125,1.54688-4.03125,2.98731,0,1.65527.86328,2.48339,4.42676,3.34765,5.07519,1.22364,6.335,2.87989,6.335,5.5791,0,3.27539-2.66309,5.291-6.44238,5.291-4.10352,0-6.40723-2.15918-6.91114-5.39941Z"/><path class="cls-2" d="M385.30566,334.24512a20.64316,20.64316,0,0,0,.252,3.41992h-1.72754a11.85707,11.85707,0,0,1-.32422-2.77149c-.61133,1.332-2.19531,3.20313-5.90332,3.20313-4.17481,0-5.97461-2.69922-5.97461-5.39941,0-3.959,3.05957-5.75879,8.459-5.75879h3.41895v-1.83594c0-1.79981-.54-4.21094-4.64356-4.21094-3.63476,0-4.1748,1.90723-4.57128,3.38281h-1.79981c.21582-1.97949,1.44043-5.03906,6.40723-5.03906,4.10351,0,6.40722,1.72754,6.40722,5.6875Zm-1.76367-5.75879h-3.52734c-3.99512,0-6.47949,1.04394-6.47949,4.13965,0,2.26757,1.62011,3.81543,4.13964,3.81543,5.14747,0,5.86719-3.41993,5.86719-7.30762Z"/><path class="cls-2" d="M391.24707,324.5625c0-3.02344-.03516-4.31934-.03516-4.89551h1.76368c.03613.57617.07129,1.72852.07129,4.03223a6.81774,6.81774,0,0,1,6.26367-4.46387v1.94336c-3.74317.25195-6.26367,2.84375-6.26367,7.12793v9.3584h-1.79981Z"/><path class="cls-2" d="M403.01855,328.88184c.03614,4.64355,2.376,7.52343,5.83106,7.52343a5.06886,5.06886,0,0,0,5.18359-3.38379h1.83594a6.90075,6.90075,0,0,1-7.0918,5.0752c-5.4707,0-7.59472-4.71484-7.59472-9.28613,0-5.14746,2.55566-9.5752,7.81152-9.5752,5.543,0,7.30664,4.78711,7.30664,8.1709,0,.50391,0,1.00781-.03613,1.47559Zm11.41016-1.584c-.03613-3.56347-1.97949-6.37109-5.50683-6.37109-3.708,0-5.39942,2.59179-5.7959,6.37109Z"/><path class="cls-2" d="M64.87744,372.08105c.03613,4.64356,2.37549,7.52344,5.83106,7.52344a5.06841,5.06841,0,0,0,5.18359-3.38379h1.83545a6.89993,6.89993,0,0,1-7.09082,5.0752c-5.47119,0-7.59522-4.71485-7.59522-9.28613,0-5.14747,2.55567-9.5752,7.811-9.5752,5.54346,0,7.30713,4.78711,7.30713,8.1709,0,.50391,0,1.00781-.03613,1.47558Zm11.41065-1.584c-.03614-3.56348-1.98-6.37109-5.50733-6.37109-3.70752,0-5.39941,2.59179-5.79541,6.37109Z"/><path class="cls-2" d="M82.55322,367.40234c0-1.584,0-3.0957-.03613-4.53613h1.76367c.07227.57617.1084,2.916.07227,3.41992a5.87811,5.87811,0,0,1,5.9751-3.85156c3.20361,0,6.04736,1.79981,6.04736,6.76758v11.66211H94.57568v-11.375c0-3.20313-1.332-5.291-4.46338-5.291-4.28369,0-5.75927,3.56348-5.75927,7.48731v9.17871H82.55322Z"/><path class="cls-2" d="M102.67676,372.08105c.03613,4.64356,2.37549,7.52344,5.83105,7.52344a5.06843,5.06843,0,0,0,5.1836-3.38379h1.83545a6.89993,6.89993,0,0,1-7.09082,5.0752c-5.4712,0-7.59522-4.71485-7.59522-9.28613,0-5.14747,2.55566-9.5752,7.811-9.5752,5.54345,0,7.30712,4.78711,7.30712,8.1709,0,.50391,0,1.00781-.03613,1.47558Zm11.41064-1.584c-.03613-3.56348-1.98-6.37109-5.50732-6.37109-3.70752,0-5.39942,2.59179-5.79541,6.37109Z"/><path class="cls-2" d="M120.353,367.76172c0-3.02344-.03614-4.31934-.03614-4.89551h1.76368c.03613.57617.07226,1.72852.07226,4.03223a6.81762,6.81762,0,0,1,6.26319-4.46387v1.94336c-3.74366.252-6.26319,2.84375-6.26319,7.12793v9.3584H120.353Z"/><path class="cls-2" d="M145.2998,379.64063c0,5.75878-2.55615,8.78222-7.77539,8.78222-4.6792,0-6.623-2.62695-7.05517-5.36328h1.83594c.64795,2.48438,2.6997,3.67188,5.2915,3.67188,4.6792,0,5.9751-3.02344,5.9751-7.59473v-1.87207c-.97168,2.33984-2.73584,3.59961-6.01123,3.59961-4.21143,0-7.45117-3.41992-7.45117-8.999,0-6.04687,3.45556-9.43066,7.70312-9.43066,3.67139,0,5.25537,1.72754,5.75928,3.168.03613-1.04395.07177-2.30371.10791-2.73633h1.69189c0,.64844-.07178,3.49219-.07178,5.21973ZM132.01709,371.793c0,4.28418,2.26807,7.37988,5.72363,7.37988,4.499,0,5.86719-2.98828,5.86719-7.667,0-4.75195-1.43994-7.37988-5.75928-7.37988C133.709,364.126,132.01709,367.68945,132.01709,371.793Z"/><path class="cls-2" d="M151.06055,362.86621c3.63525,10.29492,5.21924,14.543,5.83105,16.48633h.03613c.71973-2.19629,2.15967-6.37109,5.65137-16.48633h1.87158l-6.76709,19.042c-1.90771,5.32715-3.20361,6.51465-6.44336,6.51465a11.95809,11.95809,0,0,1-1.65576-.10742v-1.7998a11.80448,11.80448,0,0,0,1.61963.10839c2.5918,0,3.41992-1.26074,4.75147-4.96777l-6.875-18.79Z"/><path class="cls-2" d="M177.26758,354.33594h1.7998v3.49121h-1.7998Zm0,8.53027h1.7998v17.998h-1.7998Z"/><path class="cls-2" d="M184.97119,367.40234c0-1.584,0-3.0957-.03613-4.53613h1.76367c.07227.57617.1084,2.916.07227,3.41992a5.87809,5.87809,0,0,1,5.97509-3.85156c3.20362,0,6.04737,1.79981,6.04737,6.76758v11.66211h-1.79981v-11.375c0-3.20313-1.332-5.291-4.46338-5.291-4.28369,0-5.75927,3.56348-5.75927,7.48731v9.17871h-1.79981Z"/><path class="cls-2" d="M201.8916,362.86621h3.34766V357.251h1.7998v5.61523h4.28321v1.69238h-4.28321v11.69825c0,2.01562.43164,3.168,2.15967,3.168a6.77723,6.77723,0,0,0,1.87158-.21679v1.584a6.31874,6.31874,0,0,1-2.23144.32422c-2.30371,0-3.59961-1.15137-3.59961-4.03125V364.55859H201.8916Z"/><path class="cls-2" d="M215.1748,372.08105c.03614,4.64356,2.37549,7.52344,5.83106,7.52344a5.06841,5.06841,0,0,0,5.18359-3.38379h1.83545a6.89992,6.89992,0,0,1-7.09082,5.0752c-5.47119,0-7.59521-4.71485-7.59521-9.28613,0-5.14747,2.55566-9.5752,7.811-9.5752,5.54346,0,7.30713,4.78711,7.30713,8.1709,0,.50391,0,1.00781-.03613,1.47558Zm11.41065-1.584c-.03613-3.56348-1.98-6.37109-5.50732-6.37109-3.70752,0-5.39942,2.59179-5.79542,6.37109Z"/><path class="cls-2" d="M232.85059,367.40234c0-1.584,0-3.0957-.03614-4.53613h1.76368c.07226.57617.10839,2.916.07226,3.41992a5.87811,5.87811,0,0,1,5.9751-3.85156c3.20361,0,6.04736,1.79981,6.04736,6.76758v11.66211h-1.7998v-11.375c0-3.20313-1.332-5.291-4.46338-5.291-4.28369,0-5.75928,3.56348-5.75928,7.48731v9.17871h-1.7998Z"/><path class="cls-2" d="M252.4707,375.89648c.61182,2.33985,2.26758,3.74415,5.11133,3.74415,3.20361,0,4.49951-1.47559,4.49951-3.49219,0-2.05176-.86377-3.05957-4.8955-4.03125-4.64356-1.11524-5.79541-2.51953-5.79541-4.89551,0-2.4834,1.87207-4.78711,5.93945-4.78711s6.01123,2.4834,6.29931,5.03906h-1.7998a4.24233,4.24233,0,0,0-4.57129-3.38281c-3.13184,0-4.03174,1.54688-4.03174,2.98731,0,1.65527.86377,2.48339,4.42725,3.34765,5.07568,1.22363,6.33545,2.87988,6.33545,5.5791,0,3.27539-2.66358,5.291-6.44336,5.291-4.10352,0-6.40723-2.15918-6.91113-5.39942Z"/><path class="cls-2" d="M268.4541,354.33594h1.79981v3.49121H268.4541Zm0,8.53027h1.79981v17.998H268.4541Z"/><path class="cls-2" d="M275.86963,362.86621c2.91553,8.24317,4.93115,13.8584,5.61523,16.16211h.03565c.396-1.332,2.41211-6.69531,5.90332-16.16211h1.90771l-6.80273,17.998h-2.16016l-6.40674-17.998Z"/><path class="cls-2" d="M293.25732,372.08105c.03614,4.64356,2.37549,7.52344,5.83106,7.52344a5.06841,5.06841,0,0,0,5.18359-3.38379h1.83545a6.89992,6.89992,0,0,1-7.09082,5.0752c-5.47119,0-7.59521-4.71485-7.59521-9.28613,0-5.14747,2.55566-9.5752,7.811-9.5752,5.54346,0,7.30713,4.78711,7.30713,8.1709,0,.50391,0,1.00781-.03613,1.47558Zm11.41065-1.584c-.03613-3.56348-1.98-6.37109-5.50733-6.37109-3.70751,0-5.39941,2.59179-5.79541,6.37109Z"/><path class="cls-2" d="M322.09277,378.2002v9.86328H320.293V367.294c0-1.47559,0-3.05957-.03516-4.42774h1.76367c.07129.68457.07129,1.76367.07129,3.24024a6.61237,6.61237,0,0,1,6.33594-3.67188c4.24707,0,7.19922,3.56348,7.19922,8.96289,0,6.47949-3.45605,9.89844-7.81152,9.89844C324.64844,381.2959,322.99316,379.89258,322.09277,378.2002Zm11.627-6.73047c0-4.17578-2.01563-7.30762-5.5791-7.30762-4.35547,0-6.15528,2.73633-6.15528,7.63086,0,4.82422,1.40332,7.81152,5.90332,7.81152C331.63184,379.60449,333.71973,376.43652,333.71973,371.46973Z"/><path class="cls-2" d="M340.12891,367.76172c0-3.02344-.03516-4.31934-.03516-4.89551h1.76367c.03613.57617.07129,1.72852.07129,4.03223a6.81776,6.81776,0,0,1,6.26367-4.46387v1.94336c-3.74316.252-6.26367,2.84375-6.26367,7.12793v9.3584h-1.7998Z"/><path class="cls-2" d="M363.52734,377.44434a20.64316,20.64316,0,0,0,.252,3.41992h-1.72754a11.85649,11.85649,0,0,1-.32422-2.77149c-.61133,1.332-2.19531,3.20313-5.90332,3.20313-4.17481,0-5.97461-2.69922-5.97461-5.39942,0-3.959,3.05957-5.75878,8.459-5.75878h3.41895v-1.83594c0-1.79981-.54-4.21094-4.64356-4.21094-3.63476,0-4.1748,1.90723-4.57128,3.38281h-1.79981c.21582-1.97949,1.44043-5.03906,6.40723-5.03906,4.10351,0,6.40722,1.72754,6.40722,5.6875Zm-1.76367-5.75879h-3.52734c-3.99512,0-6.47949,1.04394-6.47949,4.13965,0,2.26757,1.62011,3.81543,4.13964,3.81543,5.14747,0,5.86719-3.41993,5.86719-7.30762Z"/><path class="cls-2" d="M382.71484,375.57324c-.86425,3.167-2.95214,5.72266-6.98339,5.72266-4.499,0-7.70313-3.34766-7.70313-9.3584,0-4.93164,2.62793-9.50293,7.91895-9.50293a6.43577,6.43577,0,0,1,6.76757,5.75977h-1.83593c-.54-2.08789-1.90821-4.06836-4.96778-4.06836-3.81543,0-5.97461,3.24023-5.97461,7.73925,0,4.28321,2.01563,7.73926,5.79493,7.73926,2.62793,0,4.21191-1.332,5.14746-4.03125Z"/><path class="cls-2" d="M384.624,362.86621h3.34766V357.251h1.7998v5.61523h4.28321v1.69238h-4.28321v11.69825c0,2.01562.43165,3.168,2.15918,3.168a6.78275,6.78275,0,0,0,1.87207-.21679v1.584a6.317,6.317,0,0,1-2.23144.32422c-2.30371,0-3.59961-1.15137-3.59961-4.03125V364.55859H384.624Z"/><path class="cls-2" d="M397.72754,354.33594h1.7998v3.49121h-1.7998Zm0,8.53027h1.7998v17.998h-1.7998Z"/><path class="cls-2" d="M418.67773,375.57324c-.86425,3.167-2.95214,5.72266-6.98339,5.72266-4.499,0-7.70313-3.34766-7.70313-9.3584,0-4.93164,2.62793-9.50293,7.91895-9.50293a6.43576,6.43576,0,0,1,6.76757,5.75977H416.8418c-.54-2.08789-1.90821-4.06836-4.96778-4.06836-3.81543,0-5.97461,3.24023-5.97461,7.73925,0,4.28321,2.01563,7.73926,5.79493,7.73926,2.62793,0,4.21191-1.332,5.14746-4.03125Z"/><path class="cls-2" d="M423.43066,372.08105c.03614,4.64356,2.376,7.52344,5.83106,7.52344a5.06886,5.06886,0,0,0,5.18359-3.38379h1.83594a6.90075,6.90075,0,0,1-7.0918,5.0752c-5.4707,0-7.59472-4.71485-7.59472-9.28613,0-5.14747,2.55566-9.5752,7.81152-9.5752,5.543,0,7.30664,4.78711,7.30664,8.1709,0,.50391,0,1.00781-.03613,1.47558Zm11.41016-1.584c-.03613-3.56348-1.97949-6.37109-5.50684-6.37109-3.708,0-5.39941,2.59179-5.79589,6.37109Z"/><path class="cls-2" d="M441.53809,375.89648c.6123,2.33985,2.26855,3.74415,5.11132,3.74415,3.20411,0,4.5-1.47559,4.5-3.49219,0-2.05176-.86425-3.05957-4.8955-4.03125-4.64356-1.11524-5.79493-2.51953-5.79493-4.89551,0-2.4834,1.8711-4.78711,5.93848-4.78711,4.06836,0,6.01172,2.4834,6.29981,5.03906h-1.79981a4.24233,4.24233,0,0,0-4.57129-3.38281c-3.13183,0-4.03125,1.54688-4.03125,2.98731,0,1.65527.86328,2.48339,4.42676,3.34765,5.0752,1.22363,6.335,2.87988,6.335,5.5791,0,3.27539-2.66309,5.291-6.44238,5.291-4.10352,0-6.40723-2.15918-6.91113-5.39942Z"/><path class="cls-3" d="M-207.89326,943.0618c-142.5,0-258-115.5-258-258a257.961,257.961,0,0,1,75.6-182.4c100.8-100.8,264.1-100.8,364.9,0s100.8,264.1,0,364.9A256.49775,256.49775,0,0,1-207.89326,943.0618Z"/><polygon class="cls-4" points="261.248 30.258 303.663 28.347 253.224 90.249 284.939 90.249 227.241 151.387 253.988 151.387 182.916 204.118 211.956 160.94 190.94 160.94 237.557 102.095 208.899 100.566 261.248 30.258"/></svg>