<svg id="Layer_1" data-name="Layer 1" xmlns="http://www.w3.org/2000/svg" viewBox="0 0 793.14007 529.10331"><defs><style>.cls-1{fill:#fe6400;}.cls-2{fill:#fe5500;}.cls-3{fill:#fe7701;}.cls-18,.cls-4{fill:#1a1309;}.cls-5{fill:#fe7e00;}.cls-6{fill:#fd8400;}.cls-7{fill:#ff8b00;}.cls-8{fill:#fe9d00;}.cls-9{fill:#ffaa01;}.cls-10{fill:#fdab00;}.cls-11{fill:#ff9c00;}.cls-12{fill:#fd8700;}.cls-13{fill:#fefefe;}.cls-14{fill:#fcbd00;}.cls-15{fill:#ff3f00;}.cls-16{fill:#fff;}.cls-17{fill:none;stroke-width:5px;}.cls-17,.cls-18{stroke:#1a1309;stroke-miterlimit:10;}.cls-18{stroke-width:0.5px;}</style></defs><title>butterfly</title><path d="M417,203.08012s89-189,297-203c0,0,83-5,79,64,0,0,4,41-41,109,0,0,0,68-13,85s-31,44-79,41c0,0,53,48,37,84s-23,128-145,146c0,0-73,6-144-175"/><path class="cls-1" d="M421,212.08012s63-114,170-148c0,0-19,95-170,166Z"/><path class="cls-2" d="M594,118.08012s25-34,33-63c0,0,67-23,87,36C714,91.08012,694,106.08012,594,118.08012Z"/><path class="cls-1" d="M516,190.08012s57-39,67-59c0,0,127-19,137-5v40S686,191.08012,516,190.08012Z"/><path class="cls-3" d="M421,249.08012l77-45s206-15,216,4c0,0-19,69-77,55C637,263.08012,446,242.08012,421,249.08012Z"/><path class="cls-4" d="M412,175.08012a17,17,0,1,1-17-17A17,17,0,0,1,412,175.08012Z"/><path class="cls-4" d="M384,185.08012s-15,16-14,45,3,69,3,69,11,56,11,62-1,143,11,139,10-143,10-143,10-33,12-58,4-69,4-69,1-37-16-45S384,185.08012,384,185.08012Z"/><path class="cls-5" d="M421,258.70933s114,.37079,151,26.37079l-46,8s-49-17.47191-105-22.236Z"/><path class="cls-6" d="M542,301.08012s7,11,6,16,100,0,100,0-21-17-33-20S567,294.08012,542,301.08012Z"/><path class="cls-7" d="M555,326.08012s101,11,113,12,6,40,6,40-84-29-96-30A74.254,74.254,0,0,0,555,326.08012Z"/><path class="cls-8" d="M581,356.08012s65,22,85,41a78.57415,78.57415,0,0,1-18,32s-74-60-81-59C567,370.08012,578,363.08012,581,356.08012Z"/><path class="cls-9" d="M516,363.08012s31,11,41,9c0,0,60,42,78,70,0,0-19,27-46,36C589,478.08012,528,367.08012,516,363.08012Z"/><path class="cls-10" d="M417,299.08012l76,53s81,112,79,131c0,0-12,7-33,6,0,0-122.99909-179.87019-122.49909-184.9351Z"/><path class="cls-11" d="M413.86469,320.89652S518,479.08012,516,486.08012c0,0-48-16-57-29,0,0-44-66-54-101Z"/><path class="cls-12" d="M417.96994,285.59791S528,373.08012,558,358.08012c0,0,12-7,0-13s-25-18-27-33-77-26-77-26l-35.57641-7.59641Z"/><ellipse class="cls-13" cx="650" cy="28.58012" rx="5.5" ry="9" transform="translate(466.5197 652.80107) rotate(-76.13774)"/><ellipse class="cls-14" cx="688.5" cy="24.08012" rx="9" ry="13.5" transform="translate(445.78202 668.82819) rotate(-71.37404)"/><ellipse class="cls-14" cx="718" cy="48.08012" rx="7" ry="11" transform="translate(443.11708 713.11777) rotate(-71.37404)"/><ellipse class="cls-14" cx="734.5" cy="75.08012" rx="7.5" ry="5"/><ellipse class="cls-15" cx="731" cy="16.58012" rx="9.5" ry="15" transform="translate(570.59561 729.95683) rotate(-78.627)"/><ellipse class="cls-15" cx="752.5" cy="43.58012" rx="8.5" ry="5.5"/><ellipse class="cls-16" cx="763.5" cy="15.08012" rx="4" ry="5.5" transform="translate(470.02783 720.08632) rotate(-68.53107)"/><ellipse class="cls-16" cx="779" cy="32.58012" rx="5" ry="6.5" transform="translate(-0.31512 56.46328) rotate(-4.15024)"/><ellipse class="cls-16" cx="773.5" cy="85.08012" rx="5.5" ry="4" transform="translate(537.55986 826.61442) rotate(-78.627)"/><ellipse class="cls-16" cx="782.5" cy="57.08012" rx="5.5" ry="4" transform="translate(572.2353 812.95917) rotate(-78.627)"/><ellipse class="cls-16" cx="758.5" cy="113.08012" rx="5.5" ry="4" transform="translate(308.57714 734.11053) rotate(-62.55692)"/><ellipse class="cls-16" cx="745.5" cy="146.08012" rx="5.5" ry="4" transform="translate(524.45064 872.88602) rotate(-84.17008)"/><ellipse class="cls-16" cx="734.5" cy="181.08012" rx="5.5" ry="4" transform="translate(479.749 893.38776) rotate(-84.17008)"/><ellipse class="cls-16" cx="728.26976" cy="218.8241" rx="6.89218" ry="5.30225" transform="translate(281.33238 834.05399) rotate(-70.72726)"/><ellipse class="cls-16" cx="713.76976" cy="251.3241" rx="8.47315" ry="5.32537" transform="translate(191.8715 799.27782) rotate(-65.7927)"/><ellipse class="cls-16" cx="684.70459" cy="275.86939" rx="7.43359" ry="5.32537" transform="translate(-51.69238 327.28726) rotate(-25.93876)"/><ellipse class="cls-16" cx="681.43013" cy="338.91865" rx="3.99314" ry="5.7415" transform="translate(-76.44681 269.38151) rotate(-21.20173)"/><ellipse class="cls-16" cx="687.43013" cy="365.91865" rx="5.7415" ry="3.99314" transform="translate(246.10644 1007.54942) rotate(-83.50554)"/><ellipse class="cls-16" cx="680.43013" cy="397.91865" rx="5.7415" ry="3.99314" transform="translate(172.88001 1001.00844) rotate(-80.2359)"/><ellipse class="cls-16" cx="666.43013" cy="424.91865" rx="5.7415" ry="3.99314" transform="translate(-65.57648 722.99801) rotate(-54.67833)"/><ellipse class="cls-16" cx="649.43013" cy="448.91865" rx="5.7415" ry="3.99314" transform="translate(-92.32971 719.2514) rotate(-54.67833)"/><ellipse class="cls-16" cx="624.42626" cy="476.68733" rx="6.50616" ry="4.67216" transform="translate(-125.53418 710.56403) rotate(-54.67833)"/><ellipse class="cls-16" cx="600.20475" cy="495.34703" rx="7.32461" ry="4.74399" transform="matrix(0.78382, -0.62099, 0.62099, 0.78382, -177.85229, 479.80114)"/><ellipse class="cls-16" cx="568.12073" cy="507.54427" rx="7.32461" ry="5.55113" transform="translate(-49.74664 61.89613) rotate(-5.97506)"/><ellipse class="cls-16" cx="535.12073" cy="505.54427" rx="5.55113" ry="7.32461" transform="translate(-114.91795 851.05681) rotate(-71.36386)"/><path class="cls-17" d="M401,165.08012s28-67,55-81"/><path class="cls-17" d="M391,165.08012s-28-67-55-81"/><path class="cls-18" d="M488,60.08012s-32.5,9.1-35,26C453,86.08012,478,86.08012,488,60.08012Z"/><path class="cls-18" d="M305,61.08012s32.5,9.1,35,26C340,87.08012,315,87.08012,305,61.08012Z"/><path d="M376.14007,203.08012s-89-189-297-203c0,0-83-5-79,64,0,0-4,41,41,109,0,0,0,68,13,85s31,44,79,41c0,0-53,48-37,84s23,128,145,146c0,0,73,6,144-175"/><path class="cls-1" d="M372.14007,212.08012s-63-114-170-148c0,0,19,95,170,166Z"/><path class="cls-2" d="M199.14007,118.08012s-25-34-33-63c0,0-67-23-87,36C79.14007,91.08012,99.14007,106.08012,199.14007,118.08012Z"/><path class="cls-1" d="M277.14007,190.08012s-57-39-67-59c0,0-127-19-137-5v40S107.14007,191.08012,277.14007,190.08012Z"/><path class="cls-3" d="M372.14007,249.08012l-77-45s-206-15-216,4c0,0,19,69,77,55C156.14007,263.08012,347.14007,242.08012,372.14007,249.08012Z"/><path class="cls-5" d="M372.14007,258.70933s-114,.37079-151,26.37079l46,8s49-17.47191,105-22.236Z"/><path class="cls-6" d="M251.14007,301.08012s-7,11-6,16-100,0-100,0,21-17,33-20S226.14007,294.08012,251.14007,301.08012Z"/><path class="cls-7" d="M238.14007,326.08012s-101,11-113,12-6,40-6,40,84-29,96-30A74.254,74.254,0,0,1,238.14007,326.08012Z"/><path class="cls-8" d="M212.14007,356.08012s-65,22-85,41a78.57415,78.57415,0,0,0,18,32s74-60,81-59C226.14007,370.08012,215.14007,363.08012,212.14007,356.08012Z"/><path class="cls-9" d="M277.14007,363.08012s-31,11-41,9c0,0-60,42-78,70,0,0,19,27,46,36C204.14007,478.08012,265.14007,367.08012,277.14007,363.08012Z"/><path class="cls-10" d="M376.14007,299.08012l-76,53s-81,112-79,131c0,0,12,7,33,6,0,0,122.99908-179.87019,122.49908-184.9351Z"/><path class="cls-11" d="M379.27537,320.89652s-104.1353,158.1836-102.1353,165.1836c0,0,48-16,57-29,0,0,44-66,54-101Z"/><path class="cls-12" d="M375.17013,285.59791s-110.03006,87.48221-140.03006,72.48221c0,0-12-7,0-13s25-18,27-33,77-26,77-26l35.57641-7.59641Z"/><ellipse class="cls-13" cx="143.14007" cy="28.58012" rx="9" ry="5.5" transform="translate(-2.67844 35.12714) rotate(-13.86226)"/><ellipse class="cls-14" cx="104.64007" cy="24.08012" rx="13.5" ry="9" transform="translate(-2.21027 34.68208) rotate(-18.62596)"/><ellipse class="cls-14" cx="75.14007" cy="48.08012" rx="11" ry="7" transform="translate(-11.42069 26.51714) rotate(-18.62596)"/><ellipse class="cls-14" cx="58.64007" cy="75.08012" rx="7.5" ry="5"/><ellipse class="cls-15" cx="62.14007" cy="16.58012" rx="15" ry="9.5" transform="translate(-2.04935 12.5793) rotate(-11.373)"/><ellipse class="cls-15" cx="40.64007" cy="43.58012" rx="8.5" ry="5.5"/><ellipse class="cls-16" cx="29.64007" cy="15.08012" rx="5.5" ry="4" transform="translate(-3.46273 11.89448) rotate(-21.46893)"/><ellipse class="cls-16" cx="14.14007" cy="32.58012" rx="6.5" ry="5" transform="translate(-19.37796 44.32521) rotate(-85.84976)"/><ellipse class="cls-16" cx="19.64007" cy="85.08012" rx="4" ry="5.5" transform="translate(-16.39176 5.54355) rotate(-11.373)"/><ellipse class="cls-16" cx="10.64007" cy="57.08012" rx="4" ry="5.5" transform="translate(-11.04701 3.21899) rotate(-11.373)"/><ellipse class="cls-16" cx="34.64007" cy="113.08012" rx="4" ry="5.5" transform="translate(-48.21684 28.68947) rotate(-27.44308)"/><ellipse class="cls-16" cx="47.64007" cy="146.08012" rx="4" ry="5.5" transform="translate(-14.59181 5.59464) rotate(-5.82992)"/><ellipse class="cls-16" cx="58.64007" cy="181.08012" rx="4" ry="5.5" transform="translate(-18.09007 6.893) rotate(-5.82992)"/><ellipse class="cls-16" cx="64.87031" cy="218.8241" rx="5.30225" ry="6.89218" transform="translate(-68.59079 33.67476) rotate(-19.27274)"/><ellipse class="cls-16" cx="79.37031" cy="251.3241" rx="5.32537" ry="8.47315" transform="translate(-96.07355 54.6444) rotate(-24.2073)"/><ellipse class="cls-16" cx="108.43547" cy="275.86939" rx="5.32537" ry="7.43359" transform="translate(-187.07419 252.71322) rotate(-64.06124)"/><ellipse class="cls-16" cx="111.70994" cy="338.91865" rx="5.7415" ry="3.99314" transform="translate(-244.66849 320.4964) rotate(-68.79827)"/><ellipse class="cls-16" cx="105.70994" cy="365.91865" rx="3.99314" ry="5.7415" transform="translate(-40.70963 14.30471) rotate(-6.49446)"/><ellipse class="cls-16" cx="112.70994" cy="397.91865" rx="3.99314" ry="5.7415" transform="translate(-65.85119 24.87883) rotate(-9.7641)"/><ellipse class="cls-16" cx="126.70994" cy="424.91865" rx="3.99314" ry="5.7415" transform="translate(-222.34873 151.47887) rotate(-35.32167)"/><ellipse class="cls-16" cx="143.70994" cy="448.91865" rx="3.99314" ry="5.7415" transform="translate(-233.09535 165.72564) rotate(-35.32167)"/><ellipse class="cls-16" cx="168.71381" cy="476.68733" rx="4.67216" ry="6.50616" transform="translate(-244.54752 185.29373) rotate(-35.32167)"/><ellipse class="cls-16" cx="192.93532" cy="495.34703" rx="4.74399" ry="7.32461" transform="translate(-315.13873 338.97093) rotate(-51.61189)"/><ellipse class="cls-16" cx="225.01934" cy="507.54427" rx="5.55113" ry="7.32461" transform="translate(-303.1911 678.50809) rotate(-84.02494)"/><ellipse class="cls-16" cx="258.01934" cy="505.54427" rx="7.32461" ry="5.55113" transform="translate(-148.02151 108.95907) rotate(-18.63614)"/><path class="cls-17" d="M392.14007,165.08012s-28-67-55-81"/><path class="cls-18" d="M305.14007,60.08012s32.5,9.1,35,26C340.14007,86.08012,315.14007,86.08012,305.14007,60.08012Z"/></svg>