<svg id="Layer_1" data-name="Layer 1" xmlns="http://www.w3.org/2000/svg" viewBox="0 0 323.96564 334.65744"><defs><style>.cls-1{fill:#3b2314;stroke:#3b2314;}.cls-1,.cls-2{stroke-miterlimit:10;stroke-width:3px;}.cls-2{fill:#57320d;stroke:#57320d;}</style></defs><title>chocolate</title><rect class="cls-1" x="79.38852" y="19.6706" width="165.18861" height="295.31624" transform="translate(152.22779 -65.35599) rotate(41.66932)"/><rect class="cls-2" x="109.24669" y="105.78642" width="19.89698" height="40.72366" transform="translate(114.02425 -47.32836) rotate(41.66932)"/><rect class="cls-2" x="137.22216" y="133.7017" width="19.9342" height="40.79985" transform="translate(139.69116 -58.86731) rotate(41.66932)"/><rect class="cls-2" x="70.99274" y="148.56929" width="19.9342" height="40.79985" transform="translate(132.81917 -11.07439) rotate(41.66932)"/><rect class="cls-2" x="99.73077" y="175.82651" width="19.9342" height="40.79985" transform="translate(158.21148 -23.28408) rotate(41.66932)"/><rect class="cls-2" x="32.82254" y="191.4568" width="19.9342" height="40.79985" transform="translate(151.67481 25.15309) rotate(41.66932)"/><rect class="cls-2" x="62.39499" y="217.77648" width="19.9342" height="40.79985" transform="translate(176.65494 12.15147) rotate(41.66932)"/><rect class="cls-2" x="181.56608" y="24.67179" width="19.89698" height="40.72366" transform="translate(78.39399 -115.93095) rotate(41.66932)"/><rect class="cls-2" x="145.56608" y="64.67179" width="19.89698" height="40.72366" transform="translate(95.879 -81.87683) rotate(41.66932)"/><rect class="cls-2" x="210.67188" y="51.46591" width="19.9342" height="40.79985" transform="translate(103.60151 -128.50504) rotate(41.66932)"/><rect class="cls-2" x="174.60453" y="91.54075" width="19.9342" height="40.79985" transform="translate(121.11923 -94.3872) rotate(41.66932)"/><rect class="cls-2" x="169.24669" y="157.78642" width="19.89698" height="40.72366" transform="translate(163.77577 -74.06189) rotate(41.66932)"/><rect class="cls-2" x="197.22216" y="185.7017" width="19.9342" height="40.79985" transform="translate(189.44269 -85.60084) rotate(41.66932)"/><rect class="cls-2" x="130.99274" y="200.56929" width="19.9342" height="40.79985" transform="translate(182.57069 -37.80792) rotate(41.66932)"/><rect class="cls-2" x="159.73077" y="227.82651" width="19.9342" height="40.79985" transform="translate(207.96301 -50.01761) rotate(41.66932)"/><rect class="cls-2" x="92.82254" y="243.4568" width="19.9342" height="40.79985" transform="translate(201.42633 -1.58044) rotate(41.66932)"/><rect class="cls-2" x="122.39499" y="269.77648" width="19.9342" height="40.79985" transform="translate(226.40646 -14.58206) rotate(41.66932)"/><rect class="cls-2" x="241.56608" y="76.67179" width="19.89698" height="40.72366" transform="translate(128.14551 -142.66448) rotate(41.66932)"/><rect class="cls-2" x="205.56608" y="116.67179" width="19.89698" height="40.72366" transform="translate(145.63052 -108.61036) rotate(41.66932)"/><rect class="cls-2" x="270.67188" y="103.46591" width="19.9342" height="40.79985" transform="translate(153.35303 -155.23857) rotate(41.66932)"/><rect class="cls-2" x="234.60453" y="143.54075" width="19.9342" height="40.79985" transform="translate(170.87075 -121.12073) rotate(41.66932)"/></svg>