<svg id="Layer_1" data-name="Layer 1" xmlns="http://www.w3.org/2000/svg" viewBox="0 0 516.1 516.0011"><defs><style>.cls-1{fill:#93278f;}.cls-2{fill:#fff;}.cls-3{fill:#603813;stroke:#603813;}.cls-3,.cls-4,.cls-6,.cls-7{stroke-miterlimit:10;stroke-width:7px;}.cls-4{fill:#006838;stroke:#006838;}.cls-5{fill:#6d6e70;}.cls-6,.cls-7{fill:none;}.cls-6{stroke:#6d6e70;}.cls-7{stroke:#3b2314;}</style></defs><title>chocolate2</title><path class="cls-1" d="M258,516C115.5,516,0,400.5,0,258A257.961,257.961,0,0,1,75.6,75.6c100.8-100.8,264.1-100.8,364.9,0s100.8,264.1,0,364.9A256.49776,256.49776,0,0,1,258,516Z"/><path class="cls-2" d="M258,.5C400.3.6,515.5,116,515.4,258.2a257.624,257.624,0,0,1-157.2,237C227.1,550.5,76.1,489,20.8,357.9-34.4,227,26.9,76,157.7,20.6A258.09883,258.09883,0,0,1,258,.5m0-1C115.2-.5-.5,115.2-.5,258S115.2,516.5,258,516.5,516.5,400.8,516.5,258,400.8-.5,258-.5Z"/><path class="cls-2" d="M26.86182,230.70557h1.94384V254.103H42.34033l-.36035,1.7998H26.86182Z"/><path class="cls-2" d="M58.46777,252.48291a20.51894,20.51894,0,0,0,.25244,3.41992h-1.728a11.81041,11.81041,0,0,1-.32373-2.77148c-.61231,1.332-2.1958,3.20312-5.90332,3.20312-4.17578,0-5.97559-2.69922-5.97559-5.39941,0-3.959,3.05957-5.75879,8.459-5.75879h3.41992v-1.83594c0-1.7998-.54-4.21094-4.64356-4.21094-3.63574,0-4.17578,1.90723-4.57129,3.38282h-1.7998c.21582-1.9795,1.43945-5.03907,6.40723-5.03907,4.103,0,6.40673,1.72754,6.40673,5.6875Zm-1.76367-5.75879H53.17676c-3.99561,0-6.47949,1.04395-6.47949,4.13965,0,2.26758,1.62011,3.81543,4.13964,3.81543,5.14747,0,5.86719-3.41992,5.86719-7.30762Z"/><path class="cls-2" d="M64.40918,242.80029c0-3.02343-.03613-4.31933-.03613-4.8955h1.76367c.03613.57617.07226,1.72851.07226,4.03222a6.81763,6.81763,0,0,1,6.26319-4.46387v1.94336c-3.74365.252-6.26319,2.84375-6.26319,7.12793v9.3584h-1.7998Z"/><path class="cls-2" d="M89.356,254.6792c0,5.7583-2.55616,8.78174-7.77539,8.78174-4.6792,0-6.623-2.627-7.05518-5.3628h1.83594c.648,2.48389,2.69971,3.67139,5.2915,3.67139,4.6792,0,5.9751-3.02344,5.9751-7.59424v-1.87207c-.97168,2.33985-2.73584,3.59961-6.01123,3.59961-4.21143,0-7.45117-3.41992-7.45117-8.999,0-6.04688,3.45556-9.43067,7.70312-9.43067,3.67139,0,5.25537,1.72754,5.75928,3.168.03613-1.04394.07178-2.30371.10791-2.73632h1.69189c0,.64843-.07177,3.49218-.07177,5.21972Zm-13.28272-7.84766c0,4.28418,2.26807,7.37989,5.72364,7.37989,4.499,0,5.86718-2.98829,5.86718-7.667,0-4.75195-1.43994-7.37988-5.75927-7.37988C77.76514,239.16455,76.07324,242.728,76.07324,246.83154Z"/><path class="cls-2" d="M95.65723,247.11963c.03613,4.64355,2.37548,7.52344,5.83105,7.52344a5.06844,5.06844,0,0,0,5.1836-3.38379h1.83544a6.89993,6.89993,0,0,1-7.09082,5.07519c-5.47119,0-7.59521-4.71484-7.59521-9.28613,0-5.14746,2.55566-9.5752,7.811-9.5752,5.54346,0,7.30713,4.78711,7.30713,8.1709,0,.50391,0,1.00782-.03613,1.47559Zm11.41064-1.583c-.03613-3.56445-1.98-6.37207-5.50732-6.37207-3.70752,0-5.39942,2.5918-5.79541,6.37207Z"/><path class="cls-2" d="M135.939,250.61182c-.86376,3.167-2.95117,5.72265-6.98291,5.72265-4.49951,0-7.70312-3.34765-7.70312-9.3584,0-4.93164,2.62793-9.50293,7.91895-9.50293a6.43454,6.43454,0,0,1,6.76708,5.75879h-1.83544c-.54-2.08691-1.90772-4.06738-4.96729-4.06738-3.81592,0-5.97559,3.24024-5.97559,7.73926,0,4.2832,2.01612,7.73926,5.79541,7.73926,2.62745,0,4.21143-1.332,5.14747-4.03125Z"/><path class="cls-2" d="M154.87451,246.86768c0,5.0039-2.77148,9.46679-8.13476,9.46679-4.85938,0-7.8833-3.99511-7.8833-9.43066,0-5.14746,2.84375-9.43067,8.063-9.43067C151.707,237.47314,154.87451,241.21631,154.87451,246.86768Zm-14.11035.03613c0,4.2832,2.30371,7.73926,6.11914,7.73926,3.8877,0,6.0835-3.20411,6.0835-7.73926,0-4.24707-2.15967-7.73926-6.15528-7.73926C142.708,239.16455,140.76416,242.58447,140.76416,246.90381Z"/><path class="cls-2" d="M172.80176,250.61182c-.86377,3.167-2.95166,5.72265-6.98291,5.72265-4.49951,0-7.70313-3.34765-7.70313-9.3584,0-4.93164,2.62793-9.50293,7.91895-9.50293a6.43454,6.43454,0,0,1,6.76709,5.75879h-1.83545c-.54-2.08691-1.90772-4.06738-4.96729-4.06738-3.81591,0-5.97558,3.24024-5.97558,7.73926,0,4.2832,2.01611,7.73926,5.79541,7.73926,2.62744,0,4.21142-1.332,5.14746-4.03125Z"/><path class="cls-2" d="M191.7373,246.86768c0,5.0039-2.77148,9.46679-8.13476,9.46679-4.85938,0-7.8833-3.99511-7.8833-9.43066,0-5.14746,2.84375-9.43067,8.063-9.43067C188.56982,237.47314,191.7373,241.21631,191.7373,246.86768Zm-14.11035.03613c0,4.2832,2.30371,7.73926,6.11914,7.73926,3.8877,0,6.0835-3.20411,6.0835-7.73926,0-4.24707-2.15967-7.73926-6.15527-7.73926C179.5708,239.16455,177.627,242.58447,177.627,246.90381Z"/><path class="cls-2" d="M208.54932,252.48291a20.58822,20.58822,0,0,0,.25195,3.41992h-1.72754a11.81156,11.81156,0,0,1-.32373-2.77148c-.6123,1.332-2.1958,3.20312-5.90332,3.20312-4.17578,0-5.97559-2.69922-5.97559-5.39941,0-3.959,3.05957-5.75879,8.459-5.75879H206.75v-1.83594c0-1.7998-.54-4.21094-4.64355-4.21094-3.63575,0-4.17579,1.90723-4.57129,3.38282h-1.79981c.21582-1.9795,1.43945-5.03907,6.40723-5.03907,4.103,0,6.40674,1.72754,6.40674,5.6875Zm-1.76368-5.75879H203.2583c-3.9956,0-6.47949,1.04395-6.47949,4.13965,0,2.26758,1.62012,3.81543,4.13965,3.81543,5.14746,0,5.86718-3.41992,5.86718-7.30762Z"/><path class="cls-2" d="M225.65039,253.23877v9.86279h-1.7998v-20.769c0-1.47559,0-3.05957-.03614-4.42773h1.76368c.07226.68457.07226,1.76367.07226,3.24023a6.61136,6.61136,0,0,1,6.335-3.67188c4.24756,0,7.19922,3.56348,7.19922,8.9629,0,6.47949-3.45557,9.89843-7.811,9.89843C228.20605,256.33447,226.55029,254.93115,225.65039,253.23877Zm11.62647-6.73047c0-4.17578-2.01563-7.30762-5.57911-7.30762-4.35546,0-6.15527,2.73633-6.15527,7.63086,0,4.82422,1.40381,7.81153,5.90332,7.81153C235.189,254.64307,237.27686,251.4751,237.27686,246.5083Z"/><path class="cls-2" d="M243.68652,255.90283V229.37451h1.79981v26.52832Z"/><path class="cls-2" d="M263.48438,252.48291a20.51782,20.51782,0,0,0,.25244,3.41992h-1.728a11.81156,11.81156,0,0,1-.32373-2.77148c-.61231,1.332-2.1958,3.20312-5.90332,3.20312-4.17578,0-5.97559-2.69922-5.97559-5.39941,0-3.959,3.05957-5.75879,8.459-5.75879h3.41992v-1.83594c0-1.7998-.54-4.21094-4.64356-4.21094-3.63574,0-4.17578,1.90723-4.57129,3.38282h-1.7998c.21582-1.9795,1.43945-5.03907,6.40723-5.03907,4.103,0,6.40674,1.72754,6.40674,5.6875Zm-1.76368-5.75879h-3.52734c-3.99561,0-6.47949,1.04395-6.47949,4.13965,0,2.26758,1.62011,3.81543,4.13965,3.81543,5.14746,0,5.86718-3.41992,5.86718-7.30762Z"/><path class="cls-2" d="M269.42627,242.44092c0-1.584,0-3.09571-.03613-4.53613h1.76367c.07226.57617.1084,2.916.07226,3.41992a5.87811,5.87811,0,0,1,5.9751-3.85157c3.20362,0,6.04737,1.79981,6.04737,6.76758v11.66211h-1.79981v-11.375c0-3.20312-1.332-5.291-4.46338-5.291-4.28369,0-5.75928,3.56347-5.75928,7.4873v9.17871h-1.7998Z"/><path class="cls-2" d="M286.34619,237.90479h3.34766v-5.61524h1.7998v5.61524h4.28321v1.69238h-4.28321v11.69824c0,2.01563.43164,3.168,2.15967,3.168a6.77687,6.77687,0,0,0,1.87158-.2168v1.584a6.319,6.319,0,0,1-2.23144.32422c-2.30371,0-3.59961-1.15137-3.59961-4.03125V239.59717h-3.34766Z"/><path class="cls-2" d="M311.7959,252.48291a20.51782,20.51782,0,0,0,.25244,3.41992h-1.728a11.81156,11.81156,0,0,1-.32373-2.77148c-.6123,1.332-2.1958,3.20312-5.90332,3.20312-4.17578,0-5.97558-2.69922-5.97558-5.39941,0-3.959,3.05957-5.75879,8.459-5.75879h3.41992v-1.83594c0-1.7998-.54-4.21094-4.64355-4.21094-3.63574,0-4.17578,1.90723-4.57129,3.38282h-1.79981c.21582-1.9795,1.43946-5.03907,6.40723-5.03907,4.103,0,6.40674,1.72754,6.40674,5.6875Zm-1.76367-5.75879h-3.52735c-3.9956,0-6.47949,1.04395-6.47949,4.13965,0,2.26758,1.62012,3.81543,4.13965,3.81543,5.14746,0,5.86719-3.41992,5.86719-7.30762Z"/><path class="cls-2" d="M314.85791,237.90479h3.34766v-5.61524h1.7998v5.61524h4.2832v1.69238h-4.2832v11.69824c0,2.01563.43164,3.168,2.15918,3.168a6.78239,6.78239,0,0,0,1.87207-.2168v1.584a6.31731,6.31731,0,0,1-2.23144.32422c-2.30372,0-3.59961-1.15137-3.59961-4.03125V239.59717h-3.34766Z"/><path class="cls-2" d="M327.96045,229.37451h1.7998v3.49121h-1.7998Zm0,8.53028h1.7998v17.998h-1.7998Z"/><path class="cls-2" d="M350.24365,246.86768c0,5.0039-2.77246,9.46679-8.13574,9.46679-4.85937,0-7.88281-3.99511-7.88281-9.43066,0-5.14746,2.84375-9.43067,8.06347-9.43067C347.07568,237.47314,350.24365,241.21631,350.24365,246.86768Zm-14.11035.03613c0,4.2832,2.30371,7.73926,6.11914,7.73926,3.8877,0,6.083-3.20411,6.083-7.73926,0-4.24707-2.16016-7.73926-6.15527-7.73926C338.07666,239.16455,336.1333,242.58447,336.1333,246.90381Z"/><path class="cls-2" d="M354.7085,242.44092c0-1.584,0-3.09571-.03516-4.53613H356.437c.07129.57617.10742,2.916.07129,3.41992a5.87924,5.87924,0,0,1,5.97559-3.85157c3.2041,0,6.04687,1.79981,6.04687,6.76758v11.66211H366.731v-11.375c0-3.20312-1.33106-5.291-4.46289-5.291-4.28321,0-5.75977,3.56347-5.75977,7.4873v9.17871h-1.7998Z"/><path class="cls-2" d="M374.32861,250.93506c.61231,2.33984,2.26856,3.74414,5.11133,3.74414,3.2041,0,4.5-1.47559,4.5-3.49219,0-2.05176-.86426-3.05957-4.89551-4.03125-4.64355-1.11523-5.79492-2.51953-5.79492-4.89551,0-2.48339,1.8711-4.78711,5.93848-4.78711,4.06836,0,6.01172,2.4834,6.2998,5.03907H383.688a4.24233,4.24233,0,0,0-4.57129-3.38282c-3.13184,0-4.03125,1.54688-4.03125,2.98731,0,1.65527.86328,2.4834,4.42676,3.34766,5.07519,1.22363,6.335,2.87988,6.335,5.5791,0,3.27539-2.66309,5.291-6.44238,5.291-4.10352,0-6.40723-2.15918-6.91114-5.39941Z"/><path class="cls-2" d="M399.67139,242.80029c0-3.02343-.03516-4.31933-.03516-4.8955h1.76367c.03614.57617.07129,1.72851.07129,4.03222a6.81777,6.81777,0,0,1,6.26367-4.46387v1.94336c-3.74316.252-6.26367,2.84375-6.26367,7.12793v9.3584h-1.7998Z"/><path class="cls-2" d="M411.44385,247.11963c.03613,4.64355,2.376,7.52344,5.83105,7.52344a5.06889,5.06889,0,0,0,5.1836-3.38379h1.83593a6.90074,6.90074,0,0,1-7.09179,5.07519c-5.47071,0-7.59473-4.71484-7.59473-9.28613,0-5.14746,2.55566-9.5752,7.81152-9.5752,5.543,0,7.30664,4.78711,7.30664,8.1709,0,.50391,0,1.00782-.03613,1.47559Zm11.41015-1.583c-.03613-3.56445-1.97949-6.37207-5.50683-6.37207-3.708,0-5.39942,2.5918-5.7959,6.37207Z"/><path class="cls-2" d="M441.4292,252.84326c-.86426,2.05176-2.55566,3.49121-6.15527,3.49121-4.13965,0-7.415-3.41894-7.415-9.21484,0-6.22656,3.67187-9.64649,7.88281-9.64649,3.67187,0,5.25586,1.79981,5.6875,3.13184-.03613-.792.03613-1.76367.07226-2.70019H443.229c-.03613,2.124-.03613,3.34765-.03613,5.0039v20.19287H441.4292Zm-11.66211-5.831c0,3.92285,1.87109,7.63086,5.83105,7.63086,4.4629,0,5.90332-2.98731,5.90332-7.84668,0-4.752-1.22363-7.59571-5.75976-7.59571C431.89014,239.20068,429.76709,242.47607,429.76709,247.01221Z"/><path class="cls-2" d="M462.561,250.648c0,1.76367.03613,4.57129.03613,5.25488h-1.72852a29.173,29.173,0,0,1-.10742-3.13183c-.75586,2.124-2.5918,3.56347-5.79492,3.56347-2.5918,0-5.90332-1.00781-5.90332-6.51465v-11.915h1.76367v11.48242c0,2.62793.82715,5.18359,4.3916,5.18359,4.03125,0,5.543-2.26758,5.543-7.415v-9.251H462.561Z"/><path class="cls-2" d="M468.46631,229.37451h1.7998v3.49121h-1.7998Zm0,8.53028h1.7998v17.998h-1.7998Z"/><path class="cls-2" d="M476.16943,242.80029c0-3.02343-.03515-4.31933-.03515-4.8955H477.898c.03613.57617.07129,1.72851.07129,4.03222a6.81775,6.81775,0,0,1,6.26367-4.46387v1.94336c-3.74316.252-6.26367,2.84375-6.26367,7.12793v9.3584h-1.79981Z"/><path class="cls-2" d="M487.94189,247.11963c.03614,4.64355,2.376,7.52344,5.83106,7.52344a5.06887,5.06887,0,0,0,5.18359-3.38379h1.83594a6.90075,6.90075,0,0,1-7.0918,5.07519c-5.4707,0-7.59472-4.71484-7.59472-9.28613,0-5.14746,2.55566-9.5752,7.81152-9.5752,5.543,0,7.30664,4.78711,7.30664,8.1709,0,.50391,0,1.00782-.03613,1.47559Zm11.41016-1.583c-.03613-3.56445-1.97949-6.37207-5.50684-6.37207-3.708,0-5.39941,2.5918-5.79589,6.37207Z"/><path class="cls-2" d="M42.397,281.10449h3.34766v-5.61523h1.7998v5.61523h4.28321v1.69239H47.54443v11.69824c0,2.01562.43164,3.168,2.15967,3.168a6.77725,6.77725,0,0,0,1.87158-.2168v1.584a6.31874,6.31874,0,0,1-2.23144.32422c-2.30371,0-3.59961-1.15136-3.59961-4.03125V282.79688H42.397Z"/><path class="cls-2" d="M57.19238,272.57422v11.55371a6.27814,6.27814,0,0,1,5.939-3.45508c2.55566,0,6.08349,1.2959,6.08349,6.9834v11.44629H67.415V288.01563c0-3.56348-1.61963-5.57911-4.60742-5.57911-3.56348,0-5.61524,2.19629-5.61524,6.62305v10.043h-1.7998V272.57422Z"/><path class="cls-2" d="M75.51611,290.31934c.03614,4.64355,2.37549,7.52343,5.83106,7.52343a5.06841,5.06841,0,0,0,5.18359-3.38379h1.83545a6.89992,6.89992,0,0,1-7.09082,5.0752c-5.47119,0-7.59521-4.71484-7.59521-9.28613,0-5.14746,2.55566-9.5752,7.811-9.5752,5.54346,0,7.30713,4.78711,7.30713,8.1709,0,.50391,0,1.00781-.03613,1.47559Zm11.41065-1.584c-.03613-3.56347-1.98-6.37109-5.50733-6.37109-3.70752,0-5.39941,2.59179-5.79541,6.37109Z"/><path class="cls-2" d="M115.79785,293.81152c-.86377,3.167-2.95166,5.72266-6.98291,5.72266-4.49951,0-7.70312-3.34766-7.70312-9.3584,0-4.93164,2.62793-9.50293,7.91894-9.50293a6.43456,6.43456,0,0,1,6.76709,5.75977H113.9624c-.54-2.08789-1.90771-4.06836-4.96728-4.06836-3.81592,0-5.97559,3.24023-5.97559,7.73926,0,4.2832,2.01611,7.73925,5.79541,7.73925,2.62744,0,4.21143-1.332,5.14746-4.03125Z"/><path class="cls-2" d="M119.97559,299.10254V272.57422h1.7998v26.52832Z"/><path class="cls-2" d="M128.0752,290.31934c.03613,4.64355,2.37548,7.52343,5.83105,7.52343a5.06841,5.06841,0,0,0,5.18359-3.38379h1.83545a6.89992,6.89992,0,0,1-7.09082,5.0752c-5.47119,0-7.59521-4.71484-7.59521-9.28613,0-5.14746,2.55566-9.5752,7.811-9.5752,5.54346,0,7.30713,4.78711,7.30713,8.1709,0,.50391,0,1.00781-.03613,1.47559Zm11.41064-1.584c-.03613-3.56347-1.98-6.37109-5.50732-6.37109-3.70752,0-5.39942,2.59179-5.79541,6.37109Z"/><path class="cls-2" d="M158.09717,295.68262a20.58822,20.58822,0,0,0,.25195,3.41992h-1.72754a11.81159,11.81159,0,0,1-.32373-2.77149c-.6123,1.332-2.1958,3.20313-5.90332,3.20313-4.17578,0-5.97558-2.69922-5.97558-5.39941,0-3.959,3.05957-5.75879,8.459-5.75879h3.41992V286.54c0-1.79981-.54-4.21094-4.64355-4.21094-3.63575,0-4.17578,1.90723-4.57129,3.38281H145.2832c.21582-1.97949,1.43946-5.03906,6.40723-5.03906,4.103,0,6.40674,1.72754,6.40674,5.6875Zm-1.76367-5.75879h-3.52735c-3.9956,0-6.47949,1.04394-6.47949,4.13965,0,2.26757,1.62012,3.81543,4.13965,3.81543,5.14746,0,5.86719-3.41993,5.86719-7.30762Z"/><path class="cls-2" d="M164.03906,286c0-3.02344-.03613-4.31934-.03613-4.89551h1.76367c.03613.57617.07227,1.72852.07227,4.03223a6.81759,6.81759,0,0,1,6.26318-4.46387v1.94336c-3.74365.25195-6.26318,2.84375-6.26318,7.12793v9.3584h-1.79981Z"/><path class="cls-2" d="M175.415,272.57422h1.7998v3.49121H175.415Zm0,8.53027h1.7998v17.998H175.415Z"/><path class="cls-2" d="M183.11865,285.64063c0-1.584,0-3.09571-.03613-4.53614h1.76367c.07227.57617.1084,2.916.07227,3.41992a5.8781,5.8781,0,0,1,5.97509-3.85156c3.20362,0,6.04737,1.79981,6.04737,6.76758v11.66211h-1.79981v-11.375c0-3.20313-1.332-5.291-4.46338-5.291-4.28369,0-5.75927,3.56348-5.75927,7.48731v9.17871h-1.79981Z"/><path class="cls-2" d="M216.59619,297.87891c0,5.75879-2.55566,8.78222-7.7749,8.78222-4.6792,0-6.62305-2.627-7.05518-5.36328h1.83594c.648,2.48438,2.69971,3.67188,5.2915,3.67188,4.6792,0,5.9751-3.02344,5.9751-7.59473v-1.87207c-.97168,2.33984-2.73584,3.59961-6.01123,3.59961-4.21142,0-7.45117-3.41992-7.45117-8.999,0-6.04688,3.45557-9.43067,7.70313-9.43067,3.67138,0,5.25537,1.72754,5.75927,3.168.03614-1.04394.07178-2.30371.10791-2.73633h1.6919c0,.64844-.07227,3.49219-.07227,5.21973ZM203.314,290.03125c0,4.28418,2.26807,7.37988,5.72364,7.37988,4.499,0,5.86719-2.98828,5.86719-7.667,0-4.752-1.43995-7.37988-5.75928-7.37988C205.00586,282.36426,203.314,285.92773,203.314,290.03125Z"/><path class="cls-2" d="M246.43945,290.06738c0,5.00391-2.77148,9.4668-8.13476,9.4668-4.85938,0-7.8833-3.99512-7.8833-9.43066,0-5.14747,2.84375-9.43067,8.063-9.43067C243.272,280.67285,246.43945,284.416,246.43945,290.06738Zm-14.11035.03614c0,4.2832,2.30371,7.73925,6.11914,7.73925,3.8877,0,6.0835-3.2041,6.0835-7.73925,0-4.24707-2.15967-7.73926-6.15528-7.73926C234.273,282.36426,232.3291,285.78418,232.3291,290.10352Z"/><path class="cls-2" d="M251.66064,299.10254V282.79688h-3.0957v-1.69239h3.0957v-2.55566c0-3.02344.86426-6.335,4.89551-6.335a6.74075,6.74075,0,0,1,1.76367.252v1.72754a8.96245,8.96245,0,0,0-1.94384-.21582c-2.12354,0-2.91553,1.51172-2.91553,4.64355v2.4834h3.92383v1.69239h-3.92383v16.30566Z"/><path class="cls-2" d="M270.05615,299.10254V282.79688h-3.0957v-1.69239h3.0957v-2.55566c0-3.02344.86426-6.335,4.89551-6.335a6.74075,6.74075,0,0,1,1.76367.252v1.72754a8.96261,8.96261,0,0,0-1.94385-.21582c-2.12353,0-2.91552,1.51172-2.91552,4.64355v2.4834h3.92383v1.69239H271.856v16.30566Z"/><path class="cls-2" d="M293.20215,290.06738c0,5.00391-2.77149,9.4668-8.13477,9.4668-4.85937,0-7.8833-3.99512-7.8833-9.43066,0-5.14747,2.84375-9.43067,8.063-9.43067C290.03467,280.67285,293.20215,284.416,293.20215,290.06738Zm-14.11035.03614c0,4.2832,2.30371,7.73925,6.11914,7.73925,3.88769,0,6.08349-3.2041,6.08349-7.73925,0-4.24707-2.15966-7.73926-6.15527-7.73926C281.03564,282.36426,279.0918,285.78418,279.0918,290.10352Z"/><path class="cls-2" d="M297.668,286c0-3.02344-.03613-4.31934-.03613-4.89551h1.76367c.03613.57617.07226,1.72852.07226,4.03223a6.81762,6.81762,0,0,1,6.26319-4.46387v1.94336c-3.74366.25195-6.26319,2.84375-6.26319,7.12793v9.3584H297.668Z"/><path class="cls-2" d="M309.43994,290.31934c.03613,4.64355,2.37549,7.52343,5.83106,7.52343a5.06887,5.06887,0,0,0,5.18359-3.38379h1.83594a6.90055,6.90055,0,0,1-7.09131,5.0752c-5.47119,0-7.59522-4.71484-7.59522-9.28613,0-5.14746,2.55567-9.5752,7.811-9.5752,5.54346,0,7.30713,4.78711,7.30713,8.1709,0,.50391,0,1.00781-.03613,1.47559Zm11.41016-1.584c-.03614-3.56347-1.97949-6.37109-5.50684-6.37109-3.70752,0-5.39941,2.59179-5.79541,6.37109Z"/><path class="cls-2" d="M327.54736,294.13477c.61231,2.33984,2.26856,3.74414,5.11133,3.74414,3.2041,0,4.5-1.47559,4.5-3.49219,0-2.05176-.86426-3.05957-4.89551-4.03125-4.64355-1.11524-5.79492-2.51953-5.79492-4.89551,0-2.4834,1.8711-4.78711,5.93848-4.78711,4.06836,0,6.01172,2.4834,6.2998,5.03906h-1.7998a4.24233,4.24233,0,0,0-4.57129-3.38281c-3.13184,0-4.03125,1.54688-4.03125,2.98731,0,1.65527.86328,2.48339,4.42676,3.34765,5.07519,1.22364,6.335,2.87989,6.335,5.5791,0,3.27539-2.66309,5.291-6.44238,5.291-4.10352,0-6.40723-2.15918-6.91114-5.39941Z"/><path class="cls-2" d="M340.72314,281.10449h3.34766v-5.61523h1.79981v5.61523h4.2832v1.69239h-4.2832v11.69824c0,2.01562.43164,3.168,2.15918,3.168a6.78286,6.78286,0,0,0,1.87207-.2168v1.584a6.31714,6.31714,0,0,1-2.23145.32422c-2.30371,0-3.59961-1.15136-3.59961-4.03125V282.79688h-3.34766Z"/><path class="cls-2" d="M354.438,294.13477c.6123,2.33984,2.26855,3.74414,5.11133,3.74414,3.2041,0,4.5-1.47559,4.5-3.49219,0-2.05176-.86426-3.05957-4.89551-4.03125-4.64356-1.11524-5.79492-2.51953-5.79492-4.89551,0-2.4834,1.87109-4.78711,5.93847-4.78711,4.06836,0,6.01172,2.4834,6.29981,5.03906h-1.79981a4.24233,4.24233,0,0,0-4.57129-3.38281c-3.13183,0-4.03125,1.54688-4.03125,2.98731,0,1.65527.86329,2.48339,4.42676,3.34765,5.0752,1.22364,6.335,2.87989,6.335,5.5791,0,3.27539-2.66308,5.291-6.44238,5.291-4.10352,0-6.40723-2.15918-6.91113-5.39941Z"/><path class="cls-2" d="M368.11865,303.20605a22.89823,22.89823,0,0,0,2.51953-8.71093H372.438a22.5358,22.5358,0,0,1-2.69922,8.71093Z"/><path class="cls-2" d="M386.478,281.10449c2.66406,9.28711,4.21191,14.61426,4.5,16.19824h.03613c.28711-1.43945,2.08691-7.09082,4.89453-16.19824H397.853c3.34765,11.123,4.35547,14.32617,4.67968,15.73047h.03516c.50488-1.97949,1.332-4.67969,4.64356-15.73047h1.9082l-5.6875,17.998h-1.97949c-1.94434-6.37109-4.28321-14.18262-4.64356-15.83789H396.773c-.35938,1.76367-2.41113,8.207-4.751,15.83789h-2.16015l-5.291-17.998Z"/><path class="cls-2" d="M414.66455,272.57422v11.55371a6.27941,6.27941,0,0,1,5.93945-3.45508c2.55567,0,6.083,1.2959,6.083,6.9834v11.44629h-1.7998V288.01563c0-3.56348-1.61914-5.57911-4.60742-5.57911-3.56348,0-5.61524,2.19629-5.61524,6.62305v10.043h-1.7998V272.57422Z"/><path class="cls-2" d="M432.59229,272.57422h1.7998v3.49121h-1.7998Zm0,8.53027h1.7998v17.998h-1.7998Z"/><path class="cls-2" d="M453.54346,293.81152c-.86426,3.167-2.95215,5.72266-6.9834,5.72266-4.499,0-7.70313-3.34766-7.70313-9.3584,0-4.93164,2.62793-9.50293,7.91895-9.50293a6.43578,6.43578,0,0,1,6.76758,5.75977h-1.83594c-.54-2.08789-1.9082-4.06836-4.96777-4.06836-3.81543,0-5.97461,3.24023-5.97461,7.73926,0,4.2832,2.01562,7.73925,5.79492,7.73925,2.62793,0,4.21191-1.332,5.14746-4.03125Z"/><path class="cls-2" d="M459.52,272.57422v11.55371a6.27941,6.27941,0,0,1,5.93945-3.45508c2.55567,0,6.083,1.2959,6.083,6.9834v11.44629h-1.7998V288.01563c0-3.56348-1.61914-5.57911-4.60743-5.57911-3.56347,0-5.61523,2.19629-5.61523,6.62305v10.043h-1.79981V272.57422Z"/><path class="cls-2" d="M76.165,329.19922c0-3.02344-.03613-4.31934-.03613-4.89551h1.76367c.03613.57617.07226,1.72852.07226,4.03223a6.81762,6.81762,0,0,1,6.26319-4.46387v1.94336c-3.74365.252-6.26319,2.84375-6.26319,7.12793v9.3584H76.165Z"/><path class="cls-2" d="M87.937,333.51855c.03613,4.64356,2.37549,7.52344,5.83106,7.52344a5.06841,5.06841,0,0,0,5.18359-3.38379h1.83545a6.89992,6.89992,0,0,1-7.09082,5.0752c-5.47119,0-7.59522-4.71485-7.59522-9.28613,0-5.14747,2.55567-9.5752,7.811-9.5752,5.54346,0,7.30713,4.78711,7.30713,8.1709,0,.50391,0,1.00781-.03613,1.47558Zm11.41065-1.584c-.03614-3.56348-1.98-6.37109-5.50733-6.37109-3.70752,0-5.39941,2.59179-5.79541,6.37109Z"/><path class="cls-2" d="M119.68652,315.77344v21.34472c0,1.72852,0,3.38379.03614,5.1836h-1.72754c-.07227-.43164-.1084-2.124-.1084-3.02344-.8999,2.19531-2.91553,3.45508-6.04688,3.45508-4.67968,0-7.4873-3.81543-7.4873-9.21485,0-5.543,3.05957-9.64648,7.95508-9.64648,3.59961,0,5.03955,1.54785,5.5791,2.69922V315.77344Zm-13.42627,17.67383c0,4.93066,2.55567,7.59472,5.65137,7.59472,4.75147,0,6.04736-3.27539,6.04736-8.1709,0-4.64355-1.11572-7.30761-5.72314-7.30761C108.67188,325.56348,106.26025,328.40723,106.26025,333.44727Z"/><path class="cls-2" d="M139.0542,337.04688c0,1.76367.03564,4.57128.03564,5.25488H137.3623a28.99942,28.99942,0,0,1-.10791-3.13184c-.75585,2.124-2.59179,3.56348-5.79541,3.56348-2.59179,0-5.90332-1.00781-5.90332-6.51465v-11.915h1.76368v11.48242c0,2.62793.82812,5.1836,4.3916,5.1836,4.03174,0,5.54345-2.26758,5.54345-7.415v-9.251h1.79981Z"/><path class="cls-2" d="M158.20605,337.01074c-.86376,3.167-2.95166,5.72266-6.98291,5.72266-4.49951,0-7.70312-3.34766-7.70312-9.3584,0-4.93164,2.62793-9.50293,7.91894-9.50293a6.43456,6.43456,0,0,1,6.76709,5.75977h-1.83544c-.54-2.08789-1.90772-4.06836-4.96729-4.06836-3.81592,0-5.97559,3.24023-5.97559,7.73925,0,4.28321,2.01612,7.73926,5.79541,7.73926,2.62745,0,4.21143-1.332,5.14747-4.03125Z"/><path class="cls-2" d="M162.959,333.51855c.03614,4.64356,2.37549,7.52344,5.83106,7.52344a5.06841,5.06841,0,0,0,5.18359-3.38379h1.83545a6.89992,6.89992,0,0,1-7.09082,5.0752c-5.47119,0-7.59521-4.71485-7.59521-9.28613,0-5.14747,2.55566-9.5752,7.811-9.5752,5.54346,0,7.30713,4.78711,7.30713,8.1709,0,.50391,0,1.00781-.03613,1.47558Zm11.41065-1.584c-.03613-3.56348-1.98-6.37109-5.50733-6.37109-3.70751,0-5.39941,2.59179-5.79541,6.37109Z"/><path class="cls-2" d="M181.06689,337.334c.61182,2.33985,2.26758,3.74415,5.11133,3.74415,3.20362,0,4.49951-1.47559,4.49951-3.49219,0-2.05176-.86377-3.05957-4.8955-4.03125-4.64356-1.11524-5.79541-2.51953-5.79541-4.89551,0-2.4834,1.87207-4.78711,5.93945-4.78711s6.01123,2.4834,6.29932,5.03906h-1.79981a4.24233,4.24233,0,0,0-4.57129-3.38281c-3.13183,0-4.03174,1.54688-4.03174,2.98731,0,1.65527.86377,2.48339,4.42725,3.34765,5.07568,1.22363,6.33545,2.87988,6.33545,5.5791,0,3.27539-2.66357,5.291-6.44336,5.291-4.10352,0-6.40723-2.15918-6.91113-5.39942Z"/><path class="cls-2" d="M206.41016,315.77344H208.21v11.55371c.86377-1.79883,2.62744-3.45508,6.15527-3.45508,4.24756,0,7.37891,3.49121,7.37891,9.03516,0,5.68652-2.80762,9.82617-7.84717,9.82617-3.02343,0-4.751-1.22363-5.687-3.27539,0,1.15234-.03613,2.33984-.07226,2.84375H206.374c.03614-2.05176.03614-4.10352.03614-6.15528Zm13.42627,17.16992c0-4.5-2.23194-7.37988-5.65137-7.37988-4.49951,0-6.083,3.05957-6.083,7.77539,0,4.24707,1.40381,7.70312,5.86719,7.70312C217.60449,341.042,219.83643,338.01855,219.83643,332.94336Z"/><path class="cls-2" d="M226.35352,315.77344h1.7998v3.49121h-1.7998Zm0,8.53027h1.7998v17.998h-1.7998Z"/><path class="cls-2" d="M248.63525,333.2666c0,5.00391-2.77148,9.4668-8.13476,9.4668-4.85938,0-7.8833-3.99512-7.8833-9.43067,0-5.14746,2.84375-9.43066,8.063-9.43066C245.46777,323.87207,248.63525,327.61523,248.63525,333.2666Zm-14.11035.03613c0,4.28321,2.30371,7.73926,6.11914,7.73926,3.8877,0,6.0835-3.2041,6.0835-7.73926,0-4.24707-2.15967-7.73925-6.15527-7.73925C236.46875,325.56348,234.5249,328.9834,234.5249,333.30273Z"/><path class="cls-2" d="M267.21094,315.77344v21.34472c0,1.72852,0,3.38379.03613,5.1836h-1.72754c-.07226-.43164-.1084-2.124-.1084-3.02344-.8999,2.19531-2.91552,3.45508-6.04687,3.45508-4.67969,0-7.48731-3.81543-7.48731-9.21485,0-5.543,3.05957-9.64648,7.95508-9.64648,3.59961,0,5.03955,1.54785,5.5791,2.69922V315.77344Zm-13.42627,17.67383c0,4.93066,2.55566,7.59472,5.65137,7.59472,4.75146,0,6.04736-3.27539,6.04736-8.1709,0-4.64355-1.11572-7.30761-5.72315-7.30761C256.19629,325.56348,253.78467,328.40723,253.78467,333.44727Z"/><path class="cls-2" d="M273.11621,315.77344H274.916v3.49121h-1.79981Zm0,8.53027H274.916v17.998h-1.79981Z"/><path class="cls-2" d="M280.53174,324.30371c2.91553,8.24317,4.93115,13.8584,5.61523,16.16211h.03565c.396-1.332,2.41211-6.69531,5.90332-16.16211h1.90771l-6.80273,17.998h-2.16016l-6.40722-17.998Z"/><path class="cls-2" d="M297.91943,333.51855c.03614,4.64356,2.37549,7.52344,5.83106,7.52344a5.06841,5.06841,0,0,0,5.18359-3.38379h1.83545a6.89992,6.89992,0,0,1-7.09082,5.0752c-5.47119,0-7.59521-4.71485-7.59521-9.28613,0-5.14747,2.55566-9.5752,7.811-9.5752,5.54346,0,7.30713,4.78711,7.30713,8.1709,0,.50391,0,1.00781-.03613,1.47558Zm11.41065-1.584c-.03613-3.56348-1.98-6.37109-5.50733-6.37109-3.70752,0-5.39941,2.59179-5.79541,6.37109Z"/><path class="cls-2" d="M315.5957,329.19922c0-3.02344-.03613-4.31934-.03613-4.89551h1.76416c.03613.57617.07129,1.72852.07129,4.03223a6.81775,6.81775,0,0,1,6.26367-4.46387v1.94336c-3.74316.252-6.26367,2.84375-6.26367,7.12793v9.3584H315.5957Z"/><path class="cls-2" d="M327.40283,337.334c.61231,2.33985,2.26856,3.74415,5.11133,3.74415,3.2041,0,4.5-1.47559,4.5-3.49219,0-2.05176-.86426-3.05957-4.89551-4.03125-4.64355-1.11524-5.79492-2.51953-5.79492-4.89551,0-2.4834,1.87109-4.78711,5.93848-4.78711,4.06836,0,6.01172,2.4834,6.2998,5.03906h-1.7998a4.24233,4.24233,0,0,0-4.57129-3.38281c-3.13184,0-4.03125,1.54688-4.03125,2.98731,0,1.65527.86328,2.48339,4.42676,3.34765,5.07519,1.22363,6.335,2.87988,6.335,5.5791,0,3.27539-2.66309,5.291-6.44239,5.291-4.10351,0-6.40722-2.15918-6.91113-5.39942Z"/><path class="cls-2" d="M343.38623,315.77344H345.186v3.49121h-1.79981Zm0,8.53027H345.186v17.998h-1.79981Z"/><path class="cls-2" d="M348.64209,324.30371h3.34766v-5.61523h1.7998v5.61523h4.2832v1.69238h-4.2832v11.69825c0,2.01562.43164,3.168,2.15918,3.168a6.78275,6.78275,0,0,0,1.87207-.21679v1.584a6.31712,6.31712,0,0,1-2.23144.32422c-2.30372,0-3.59961-1.15137-3.59961-4.03125V325.99609h-3.34766Z"/><path class="cls-2" d="M362.35693,324.30371c3.63575,10.29492,5.21973,14.543,5.832,16.48633h.03516c.7207-2.19629,2.16016-6.37109,5.65137-16.48633h1.87207L368.98,343.3457c-1.90723,5.32715-3.20312,6.51465-6.44238,6.51465a11.96014,11.96014,0,0,1-1.65625-.10742v-1.7998a11.80628,11.80628,0,0,0,1.62011.10839c2.5918,0,3.41895-1.26074,4.751-4.96777l-6.875-18.79Z"/><path class="cls-2" d="M400.91064,338.88184a20.64316,20.64316,0,0,0,.252,3.41992h-1.72754a11.85707,11.85707,0,0,1-.32422-2.77149c-.61133,1.332-2.19531,3.20313-5.90332,3.20313-4.17481,0-5.97461-2.69922-5.97461-5.39942,0-3.959,3.05957-5.75878,8.459-5.75878h3.41895v-1.83594c0-1.79981-.54-4.21094-4.64355-4.21094-3.63477,0-4.17481,1.90723-4.57129,3.38281h-1.79981c.21582-1.97949,1.44043-5.03906,6.40723-5.03906,4.10351,0,6.40722,1.72754,6.40722,5.6875Zm-1.76367-5.75879h-3.52734c-3.99512,0-6.47949,1.04394-6.47949,4.13965,0,2.26757,1.62011,3.81543,4.13965,3.81543,5.14746,0,5.86718-3.41993,5.86718-7.30762Z"/><path class="cls-2" d="M406.85205,328.83984c0-1.584,0-3.0957-.03516-4.53613h1.76368c.07129.57617.10742,2.916.07129,3.41992a5.87924,5.87924,0,0,1,5.97558-3.85156c3.2041,0,6.04688,1.79981,6.04688,6.76758v11.66211h-1.79883v-11.375c0-3.20313-1.332-5.291-4.46387-5.291-4.2832,0-5.75976,3.56348-5.75976,7.48731v9.17871h-1.79981Z"/><path class="cls-2" d="M440.47412,315.77344v21.34472c0,1.72852,0,3.38379.03613,5.1836h-1.72754c-.07226-.43164-.10839-2.124-.10839-3.02344-.89942,2.19531-2.915,3.45508-6.04688,3.45508-4.67969,0-7.4873-3.81543-7.4873-9.21485,0-5.543,3.05957-9.64648,7.95507-9.64648,3.59961,0,5.03907,1.54785,5.57911,2.69922V315.77344Zm-13.42578,17.67383c0,4.93066,2.55566,7.59472,5.65137,7.59472,4.751,0,6.04687-3.27539,6.04687-8.1709,0-4.64355-1.11621-7.30761-5.72363-7.30761C429.45947,325.56348,427.04834,328.40723,427.04834,333.44727Z"/><path class="cls-2" d="M78.03369,380.21094c-.86377,3.167-2.95117,5.72265-6.98291,5.72265-4.49951,0-7.70312-3.34765-7.70312-9.35839,0-4.93165,2.62793-9.50293,7.91894-9.50293a6.43453,6.43453,0,0,1,6.76709,5.75878H76.19824c-.54-2.08691-1.90771-4.06738-4.96728-4.06738-3.81592,0-5.97559,3.24024-5.97559,7.73926,0,4.2832,2.01611,7.73926,5.79541,7.73926,2.62744,0,4.21143-1.332,5.14746-4.03125Z"/><path class="cls-2" d="M94.70166,382.082a20.58812,20.58812,0,0,0,.25195,3.41992H93.22607a11.81156,11.81156,0,0,1-.32373-2.77148c-.6123,1.332-2.1958,3.20312-5.90332,3.20312-4.17578,0-5.97558-2.69921-5.97558-5.39941,0-3.959,3.05957-5.75879,8.459-5.75879h3.41992v-1.83594c0-1.7998-.54-4.21093-4.64355-4.21093-3.63574,0-4.17578,1.90722-4.57129,3.38281H81.8877c.21582-1.97949,1.43945-5.03906,6.40722-5.03906,4.103,0,6.40674,1.72753,6.40674,5.6875ZM92.938,376.32324H89.41064c-3.9956,0-6.47949,1.04395-6.47949,4.13965,0,2.26758,1.62012,3.81543,4.13965,3.81543,5.14746,0,5.86719-3.41992,5.86719-7.30762Z"/><path class="cls-2" d="M113.88965,380.24707c0,1.76367.03564,4.57129.03564,5.25488h-1.72754a28.99919,28.99919,0,0,1-.10791-3.13183c-.75586,2.124-2.59179,3.56347-5.79541,3.56347-2.59179,0-5.90332-1.00781-5.90332-6.51464v-11.915h1.76368v11.48242c0,2.62793.82812,5.18359,4.3916,5.18359,4.03174,0,5.54345-2.26758,5.54345-7.415v-9.251h1.79981Z"/><path class="cls-2" d="M119.5791,380.53418c.61182,2.33984,2.26758,3.74414,5.11133,3.74414,3.20361,0,4.49951-1.47559,4.49951-3.49219,0-2.05175-.86377-3.05957-4.89551-4.03125-4.64355-1.11523-5.79541-2.51953-5.79541-4.8955,0-2.4834,1.87207-4.78711,5.93946-4.78711s6.01123,2.48339,6.29931,5.03906H128.938a4.24233,4.24233,0,0,0-4.57129-3.38281c-3.13184,0-4.03174,1.54687-4.03174,2.9873,0,1.65527.86377,2.4834,4.42725,3.34766,5.07568,1.22363,6.33545,2.87988,6.33545,5.5791,0,3.27539-2.66358,5.291-6.44336,5.291-4.10352,0-6.40723-2.15918-6.91114-5.39941Z"/><path class="cls-2" d="M135.9585,376.71875c.03613,4.64355,2.37548,7.52344,5.83105,7.52344a5.06841,5.06841,0,0,0,5.18359-3.38379h1.83545a6.89992,6.89992,0,0,1-7.09082,5.07519c-5.47119,0-7.59521-4.71484-7.59521-9.28613,0-5.14746,2.55566-9.57519,7.811-9.57519,5.54346,0,7.30713,4.78711,7.30713,8.17089,0,.50391,0,1.00782-.03613,1.47559Zm11.41064-1.583c-.03613-3.56445-1.98-6.37207-5.50732-6.37207-3.70752,0-5.39942,2.5918-5.79541,6.37207Z"/><path class="cls-2" d="M154.06641,380.53418c.61181,2.33984,2.26757,3.74414,5.11132,3.74414,3.20362,0,4.49952-1.47559,4.49952-3.49219,0-2.05175-.86377-3.05957-4.89551-4.03125-4.64356-1.11523-5.79541-2.51953-5.79541-4.8955,0-2.4834,1.87207-4.78711,5.93945-4.78711s6.01123,2.48339,6.29932,5.03906h-1.79981a4.24233,4.24233,0,0,0-4.57129-3.38281c-3.13183,0-4.03173,1.54687-4.03173,2.9873,0,1.65527.86377,2.4834,4.42724,3.34766,5.07569,1.22363,6.33545,2.87988,6.33545,5.5791,0,3.27539-2.66357,5.291-6.44336,5.291-4.10351,0-6.40722-2.15918-6.91113-5.39941Z"/><path class="cls-2" d="M178.94189,367.50391c2.91553,8.24316,4.93116,13.85839,5.61524,16.16211h.03564c.396-1.332,2.41211-6.69532,5.90332-16.16211h1.90772l-6.80274,17.998h-2.16015l-6.40723-17.998Z"/><path class="cls-2" d="M207.95605,382.082a20.5174,20.5174,0,0,0,.25245,3.41992h-1.728a11.81156,11.81156,0,0,1-.32373-2.77148c-.61231,1.332-2.1958,3.20312-5.90332,3.20312-4.17578,0-5.97559-2.69921-5.97559-5.39941,0-3.959,3.05957-5.75879,8.459-5.75879h3.41992v-1.83594c0-1.7998-.54-4.21093-4.64356-4.21093-3.63574,0-4.17578,1.90722-4.57129,3.38281h-1.7998c.21582-1.97949,1.43945-5.03906,6.40723-5.03906,4.103,0,6.40673,1.72753,6.40673,5.6875Zm-1.76367-5.75879H202.665c-3.99561,0-6.47949,1.04395-6.47949,4.13965,0,2.26758,1.62011,3.81543,4.13965,3.81543,5.14746,0,5.86718-3.41992,5.86718-7.30762Z"/><path class="cls-2" d="M213.898,372.39941c0-3.02343-.03613-4.31933-.03613-4.8955h1.76367c.03613.57617.07226,1.72851.07226,4.03222a6.81761,6.81761,0,0,1,6.26319-4.46386v1.94336c-3.74365.252-6.26319,2.84375-6.26319,7.12792v9.3584H213.898Z"/><path class="cls-2" d="M225.27344,358.97363h1.7998v3.49121h-1.7998Zm0,8.53028h1.7998v17.998h-1.7998Z"/><path class="cls-2" d="M247.55566,376.4668c0,5.0039-2.77148,9.46679-8.13476,9.46679-4.85938,0-7.8833-3.99511-7.8833-9.43066,0-5.14746,2.84375-9.43066,8.063-9.43066C244.38818,367.07227,247.55566,370.81543,247.55566,376.4668Zm-14.11035.03613c0,4.2832,2.30371,7.73926,6.11914,7.73926,3.8877,0,6.0835-3.2041,6.0835-7.73926,0-4.24707-2.15967-7.73926-6.15527-7.73926C235.38916,368.76367,233.44531,372.18359,233.44531,376.50293Z"/><path class="cls-2" d="M265.4834,380.24707c0,1.76367.03564,4.57129.03564,5.25488H263.7915a28.99919,28.99919,0,0,1-.10791-3.13183c-.75586,2.124-2.59179,3.56347-5.79541,3.56347-2.59179,0-5.90332-1.00781-5.90332-6.51464v-11.915h1.76368v11.48242c0,2.62793.82812,5.18359,4.3916,5.18359,4.03174,0,5.54345-2.26758,5.54345-7.415v-9.251h1.79981Z"/><path class="cls-2" d="M271.17285,380.53418c.61182,2.33984,2.26758,3.74414,5.11133,3.74414,3.20361,0,4.49951-1.47559,4.49951-3.49219,0-2.05175-.86377-3.05957-4.89551-4.03125-4.64355-1.11523-5.79541-2.51953-5.79541-4.8955,0-2.4834,1.87207-4.78711,5.93946-4.78711s6.01123,2.48339,6.29931,5.03906h-1.7998a4.24233,4.24233,0,0,0-4.57129-3.38281c-3.13184,0-4.03174,1.54687-4.03174,2.9873,0,1.65527.86377,2.4834,4.42725,3.34766,5.07568,1.22363,6.33545,2.87988,6.33545,5.5791,0,3.27539-2.66358,5.291-6.44336,5.291-4.10352,0-6.40723-2.15918-6.91114-5.39941Z"/><path class="cls-2" d="M298.31592,358.97363v11.55469a6.27717,6.27717,0,0,1,5.939-3.45605c2.55616,0,6.0835,1.29589,6.0835,6.98339V385.502h-1.79981V374.415c0-3.56348-1.61962-5.5791-4.60742-5.5791-3.56347,0-5.61523,2.19629-5.61523,6.623v10.043h-1.79981V358.97363Z"/><path class="cls-2" d="M316.63965,376.71875c.03613,4.64355,2.37549,7.52344,5.83154,7.52344a5.06751,5.06751,0,0,0,5.18262-3.38379h1.83594a6.89951,6.89951,0,0,1-7.09082,5.07519c-5.4712,0-7.59522-4.71484-7.59522-9.28613,0-5.14746,2.55615-9.57519,7.811-9.57519,5.543,0,7.30761,4.78711,7.30761,8.17089,0,.50391,0,1.00782-.03613,1.47559Zm11.41064-1.583c-.03613-3.56445-1.97949-6.37207-5.50781-6.37207-3.707,0-5.39941,2.5918-5.79492,6.37207Z"/><path class="cls-2" d="M346.66162,382.082a20.64337,20.64337,0,0,0,.25195,3.41992H345.186a11.85646,11.85646,0,0,1-.32422-2.77148c-.61133,1.332-2.19532,3.20312-5.90332,3.20312-4.17481,0-5.97461-2.69921-5.97461-5.39941,0-3.959,3.05957-5.75879,8.459-5.75879h3.41895v-1.83594c0-1.7998-.54-4.21093-4.64356-4.21093-3.63476,0-4.1748,1.90722-4.57129,3.38281h-1.7998c.21582-1.97949,1.44043-5.03906,6.40722-5.03906,4.10352,0,6.40723,1.72753,6.40723,5.6875Zm-1.76367-5.75879h-3.52734c-3.99512,0-6.4795,1.04395-6.4795,4.13965,0,2.26758,1.62012,3.81543,4.13965,3.81543,5.14746,0,5.86719-3.41992,5.86719-7.30762Z"/><path class="cls-2" d="M352.603,385.502V358.97363h1.7998V385.502Z"/><path class="cls-2" d="M357.85889,367.50391h3.34765v-5.61524h1.79981v5.61524h4.2832v1.69238h-4.2832v11.69824c0,2.01563.43164,3.168,2.15918,3.168a6.78239,6.78239,0,0,0,1.87207-.2168v1.584a6.31737,6.31737,0,0,1-2.23145.32422c-2.30371,0-3.59961-1.15137-3.59961-4.03125V369.19629h-3.34765Z"/><path class="cls-2" d="M372.65381,358.97363v11.55469a6.27951,6.27951,0,0,1,5.93945-3.45605c2.55567,0,6.083,1.29589,6.083,6.98339V385.502h-1.79883V374.415c0-3.56348-1.62012-5.5791-4.60742-5.5791-3.56445,0-5.61621,2.19629-5.61621,6.623v10.043H370.854V358.97363Z"/><path class="cls-2" d="M412.28857,382.082a20.64306,20.64306,0,0,0,.252,3.41992H410.813a11.857,11.857,0,0,1-.32422-2.77148c-.61133,1.332-2.19531,3.20312-5.90332,3.20312-4.17481,0-5.97461-2.69921-5.97461-5.39941,0-3.959,3.05957-5.75879,8.459-5.75879h3.41895v-1.83594c0-1.7998-.54-4.21093-4.64356-4.21093-3.63476,0-4.1748,1.90722-4.57128,3.38281h-1.79981c.21582-1.97949,1.44043-5.03906,6.40723-5.03906,4.10351,0,6.40722,1.72753,6.40722,5.6875Zm-1.76367-5.75879h-3.52734c-3.99512,0-6.47949,1.04395-6.47949,4.13965,0,2.26758,1.62011,3.81543,4.13964,3.81543,5.14747,0,5.86719-3.41992,5.86719-7.30762Z"/><path class="cls-2" d="M418.229,372.04c0-1.584,0-3.0957-.03515-4.53613h1.76367c.07129.57617.10742,2.916.07129,3.41992a5.87922,5.87922,0,0,1,5.97558-3.85156c3.20411,0,6.04688,1.7998,6.04688,6.76757V385.502h-1.79883V374.127c0-3.20312-1.332-5.291-4.46387-5.291-4.2832,0-5.75976,3.56347-5.75976,7.4873V385.502H418.229Z"/><path class="cls-2" d="M451.85107,358.97363v21.34473c0,1.72754,0,3.38379.03614,5.18359h-1.72754c-.07227-.43164-.1084-2.124-.1084-3.02343-.89941,2.19531-2.915,3.45507-6.04688,3.45507-4.67968,0-7.4873-3.81543-7.4873-9.21484,0-5.543,3.05957-9.64648,7.95508-9.64648,3.59961,0,5.03906,1.54785,5.5791,2.69921V358.97363Zm-13.42578,17.67383c0,4.93067,2.55567,7.59473,5.65137,7.59473,4.751,0,6.04688-3.27539,6.04688-8.1709,0-4.64356-1.11622-7.30762-5.72364-7.30762C440.83643,368.76367,438.42529,371.60742,438.42529,376.64746Z"/><path class="cls-2" d="M103.77539,419.919c.03613,4.64355,2.37549,7.52343,5.83106,7.52343a5.06842,5.06842,0,0,0,5.18359-3.38379h1.83545a6.89993,6.89993,0,0,1-7.09082,5.0752c-5.47119,0-7.59522-4.71484-7.59522-9.28613,0-5.14746,2.55567-9.5752,7.811-9.5752,5.54346,0,7.30713,4.78711,7.30713,8.1709,0,.50391,0,1.00781-.03614,1.47559Zm11.41065-1.584c-.03614-3.56348-1.98-6.37109-5.50733-6.37109-3.70752,0-5.39941,2.59179-5.79541,6.37109Z"/><path class="cls-2" d="M121.45117,415.24023c0-1.584,0-3.0957-.03613-4.53613h1.76367c.07227.57617.1084,2.916.07227,3.41992a5.87809,5.87809,0,0,1,5.97509-3.85156c3.20362,0,6.04737,1.79981,6.04737,6.76758v11.66211h-1.79981v-11.375c0-3.20313-1.332-5.291-4.46338-5.291-4.28369,0-5.75927,3.56348-5.75927,7.48731v9.17871h-1.79981Z"/><path class="cls-2" d="M140.35156,410.7041c2.91553,8.24317,4.93115,13.8584,5.61524,16.16211h.03564c.396-1.332,2.41211-6.69531,5.90332-16.16211h1.90772l-6.80274,17.99805h-2.16015l-6.40674-17.99805Z"/><path class="cls-2" d="M157.45068,402.17383h1.79981V405.665h-1.79981Zm0,8.53027h1.79981v17.99805h-1.79981Z"/><path class="cls-2" d="M165.1543,415.59961c0-3.02344-.03614-4.31934-.03614-4.89551h1.76368c.03613.57617.07226,1.72852.07226,4.03223a6.81762,6.81762,0,0,1,6.26319-4.46387v1.94336c-3.74366.25195-6.26319,2.84375-6.26319,7.12793v9.3584h-1.7998Z"/><path class="cls-2" d="M191.1084,419.667c0,5.00391-2.77149,9.4668-8.13477,9.4668-4.85937,0-7.8833-3.99512-7.8833-9.43066,0-5.14747,2.84375-9.43067,8.063-9.43067C187.94092,410.27246,191.1084,414.01563,191.1084,419.667Zm-14.11035.03614c0,4.2832,2.30371,7.73925,6.11914,7.73925,3.88769,0,6.08349-3.2041,6.08349-7.73925,0-4.24708-2.15966-7.73926-6.15527-7.73926C178.94189,411.96387,176.99805,415.38379,176.99805,419.70313Z"/><path class="cls-2" d="M195.57373,415.24023c0-1.584,0-3.0957-.03613-4.53613h1.76367c.07227.57617.1084,2.916.07227,3.41992a5.87809,5.87809,0,0,1,5.97509-3.85156c3.20362,0,6.04737,1.79981,6.04737,6.76758v11.66211h-1.79981v-11.375c0-3.20313-1.332-5.291-4.46338-5.291-4.28369,0-5.75927,3.56348-5.75927,7.48731v9.17871h-1.79981Z"/><path class="cls-2" d="M215.30176,415.34766c0-1.54786,0-3.23926-.03613-4.64356h1.76367c.03613.61231.1084,2.16016.07226,3.2041a5.6293,5.6293,0,0,1,5.39942-3.63574,5.10851,5.10851,0,0,1,5.21923,3.56348,6.12428,6.12428,0,0,1,5.86719-3.56348c2.77149,0,5.65137,1.584,5.65137,6.58692v11.84277H237.439v-11.627c0-2.41114-.86376-5.03907-4.21142-5.03907-3.4917,0-5.0752,2.80762-5.0752,6.29883v10.36719h-1.76416V417.11133c0-2.627-.792-5.0752-4.10351-5.0752-3.49121,0-5.18311,3.09571-5.18311,6.76758v9.89844h-1.7998Z"/><path class="cls-2" d="M245.5415,419.919c.03614,4.64355,2.37549,7.52343,5.83106,7.52343a5.06841,5.06841,0,0,0,5.18359-3.38379h1.83545a6.89992,6.89992,0,0,1-7.09082,5.0752c-5.47119,0-7.59521-4.71484-7.59521-9.28613,0-5.14746,2.55566-9.5752,7.811-9.5752,5.54346,0,7.30713,4.78711,7.30713,8.1709,0,.50391,0,1.00781-.03613,1.47559Zm11.41065-1.584c-.03613-3.56348-1.98-6.37109-5.50733-6.37109-3.70752,0-5.39941,2.59179-5.79541,6.37109Z"/><path class="cls-2" d="M263.21729,415.24023c0-1.584,0-3.0957-.03614-4.53613h1.76367c.07227.57617.1084,2.916.07227,3.41992a5.87811,5.87811,0,0,1,5.9751-3.85156c3.20361,0,6.04736,1.79981,6.04736,6.76758v11.66211h-1.7998v-11.375c0-3.20313-1.332-5.291-4.46338-5.291-4.28369,0-5.75928,3.56348-5.75928,7.48731v9.17871h-1.7998Z"/><path class="cls-2" d="M280.1377,410.7041h3.34765v-5.61523h1.79981v5.61523h4.2832v1.69238h-4.2832v11.69825c0,2.01562.43164,3.168,2.15966,3.168a6.77736,6.77736,0,0,0,1.87159-.2168v1.584a6.31883,6.31883,0,0,1-2.23145.32422c-2.30371,0-3.59961-1.15137-3.59961-4.03125V412.39648H280.1377Z"/><path class="cls-2" d="M305.58691,425.28223a20.51751,20.51751,0,0,0,.25245,3.41992h-1.728a11.81159,11.81159,0,0,1-.32373-2.77149c-.61231,1.332-2.1958,3.20313-5.90332,3.20313-4.17578,0-5.97559-2.69922-5.97559-5.39941,0-3.959,3.05957-5.75879,8.459-5.75879h3.41992v-1.83594c0-1.79981-.54-4.21094-4.64356-4.21094-3.63574,0-4.17578,1.90723-4.57129,3.38281H292.773c.21582-1.97949,1.43945-5.03906,6.40723-5.03906,4.103,0,6.40673,1.72754,6.40673,5.6875Zm-1.76367-5.75879H300.2959c-3.99561,0-6.47949,1.04394-6.47949,4.13965,0,2.26757,1.62011,3.81543,4.13964,3.81543,5.14747,0,5.86719-3.41993,5.86719-7.30762Z"/><path class="cls-2" d="M311.52832,428.70215V402.17383h1.79981v26.52832Z"/><path class="cls-2" d="M328.59131,402.17383h1.7998V405.665h-1.7998Zm0,8.53027h1.7998v17.99805h-1.7998Z"/><path class="cls-2" d="M336.11572,423.73438c.61231,2.33984,2.26856,3.74414,5.11133,3.74414,3.2041,0,4.5-1.47559,4.5-3.49219,0-2.05176-.86426-3.05957-4.89551-4.03125-4.64355-1.11524-5.79492-2.51953-5.79492-4.89551,0-2.4834,1.87109-4.78711,5.93848-4.78711,4.06836,0,6.01172,2.4834,6.2998,5.03906h-1.7998a4.24233,4.24233,0,0,0-4.57129-3.38281c-3.13184,0-4.03125,1.54688-4.03125,2.98731,0,1.65527.86328,2.48339,4.42676,3.34765,5.07519,1.22363,6.335,2.87988,6.335,5.5791,0,3.27539-2.66309,5.291-6.44239,5.291-4.10351,0-6.40722-2.15918-6.91113-5.39941Z"/><path class="cls-2" d="M352.53076,423.73438c.61231,2.33984,2.26856,3.74414,5.11231,3.74414,3.20312,0,4.499-1.47559,4.499-3.49219,0-2.05176-.86426-3.05957-4.89551-4.03125-4.64355-1.11524-5.79492-2.51953-5.79492-4.89551,0-2.4834,1.87109-4.78711,5.93848-4.78711,4.06836,0,6.01172,2.4834,6.2998,5.03906h-1.7998a4.24233,4.24233,0,0,0-4.57129-3.38281c-3.13184,0-4.03125,1.54688-4.03125,2.98731,0,1.65527.86328,2.48339,4.42676,3.34765,5.07519,1.22363,6.335,2.87988,6.335,5.5791,0,3.27539-2.66309,5.291-6.44239,5.291-4.10351,0-6.40722-2.15918-6.91113-5.39941Z"/><path class="cls-2" d="M381.54541,423.44727c0,1.76367.03613,4.57128.03613,5.25488H379.853a29.1731,29.1731,0,0,1-.10742-3.13184c-.75586,2.124-2.5918,3.56348-5.79493,3.56348-2.59179,0-5.90332-1.00781-5.90332-6.51465v-11.915H369.811v11.48242c0,2.62793.82714,5.1836,4.3916,5.1836,4.03125,0,5.543-2.26758,5.543-7.415v-9.251h1.7998Z"/><path class="cls-2" d="M387.84619,419.919c.03613,4.64355,2.376,7.52343,5.83106,7.52343a5.06887,5.06887,0,0,0,5.18359-3.38379h1.83594a6.90075,6.90075,0,0,1-7.0918,5.0752c-5.4707,0-7.59473-4.71484-7.59473-9.28613,0-5.14746,2.55567-9.5752,7.81153-9.5752,5.543,0,7.30664,4.78711,7.30664,8.1709,0,.50391,0,1.00781-.03613,1.47559Zm11.41016-1.584c-.03614-3.56348-1.97949-6.37109-5.50684-6.37109-3.708,0-5.39941,2.59179-5.7959,6.37109Z"/><path class="cls-2" d="M405.95361,423.73438c.61231,2.33984,2.26856,3.74414,5.11133,3.74414,3.2041,0,4.5-1.47559,4.5-3.49219,0-2.05176-.86426-3.05957-4.89551-4.03125-4.64355-1.11524-5.79492-2.51953-5.79492-4.89551,0-2.4834,1.8711-4.78711,5.93848-4.78711,4.06836,0,6.01172,2.4834,6.2998,5.03906H415.313a4.24233,4.24233,0,0,0-4.57129-3.38281c-3.13184,0-4.03125,1.54688-4.03125,2.98731,0,1.65527.86328,2.48339,4.42676,3.34765,5.07519,1.22363,6.335,2.87988,6.335,5.5791,0,3.27539-2.66309,5.291-6.44238,5.291-4.10352,0-6.40723-2.15918-6.91114-5.39941Z"/><path class="cls-2" d="M421.61377,428.70215v-4.64356h1.7998v4.64356Z"/><rect class="cls-3" x="257.88399" y="134.83601" width="20.05651" height="39.32648"/><polygon class="cls-4" points="98.218 174.241 247.109 154.657 211.951 70.891 98.218 174.241"/><rect class="cls-3" x="234.04985" y="103.13431" width="6.44932" height="20.05582" transform="translate(-24.83642 93.09382) rotate(-21.11937)"/><polyline class="cls-5" points="263.547 123.825 267.48 127.521 268.581 122.252 272.513 125.948 273.536 120.678 277.547 124.375 278.57 119.027 282.502 122.723 283.604 117.454 287.536 121.15 288.637 115.881 292.57 119.577 293.592 114.229 297.604 117.926 298.626 112.656 302.559 116.353 303.66 111.083 307.593 114.779 308.694 109.431 312.626 113.128 313.649 107.858 317.582 111.555 318.683 106.285 322.615 109.982 323.717 104.633 327.649 108.33 328.75 103.06 332.683 106.757 333.705 101.487 337.717 105.184 338.739 99.835 342.672 103.532 343.773 98.262 347.706 101.959"/><polyline class="cls-6" points="263.547 123.825 267.48 127.521 268.581 122.252 272.513 125.948 273.536 120.678 277.547 124.375 278.57 119.027 282.502 122.723 283.604 117.454 287.536 121.15 288.637 115.881 292.57 119.577 293.592 114.229 297.604 117.926 298.626 112.656 302.559 116.353 303.66 111.083 307.593 114.779 308.694 109.431 312.626 113.128 313.649 107.858 317.582 111.555 318.683 106.285 322.615 109.982 323.717 104.633 327.649 108.33 328.75 103.06 332.683 106.757 333.705 101.487 337.717 105.184 338.739 99.835 342.672 103.532 343.773 98.262 347.706 101.959"/><polygon class="cls-5" points="265.513 123.982 259.693 109.431 340.155 84.105 347.627 101.487 265.513 123.982"/><polygon class="cls-7" points="340.784 81.509 349.515 106.914 358.402 102.746 352.11 78.992 340.784 81.509"/><polygon class="cls-1" points="268.895 132.398 258.749 100.622 250.884 103.218 259.3 128.386 268.895 132.398"/></svg>