<svg id="Layer_1" data-name="Layer 1" xmlns="http://www.w3.org/2000/svg" viewBox="0 0 516.1 516.0011"><defs><style>.cls-1{fill:#2e3192;}.cls-2{fill:#fff;}.cls-3{fill:#6a3217;}.cls-4{fill:#f1d2b5;}</style></defs><title>chocolate1</title><path class="cls-1" d="M258,516C115.5,516,0,400.5,0,258A257.961,257.961,0,0,1,75.6,75.6c100.8-100.8,264.1-100.8,364.9,0s100.8,264.1,0,364.9A256.49776,256.49776,0,0,1,258,516Z"/><path class="cls-2" d="M258,.5C400.3.6,515.5,116,515.4,258.2a257.624,257.624,0,0,1-157.2,237C227.1,550.5,76.1,489,20.8,357.9-34.4,227,26.9,76,157.7,20.6A258.09883,258.09883,0,0,1,258,.5m0-1C115.2-.5-.5,115.2-.5,258S115.2,516.5,258,516.5,516.5,400.8,516.5,258,400.8-.5,258-.5Z"/><path class="cls-2" d="M98.30176,276.00879h8.35156c6.91113,0,11.69824,4.82422,11.69824,12.38281,0,7.52344-4.67968,12.81445-11.73437,12.81445H98.30176Zm1.94433,23.39746h6.083c6.65918,0,9.93457-4.67969,9.93457-10.90625,0-5.54395-2.95117-10.69141-9.93457-10.69141h-6.083Z"/><path class="cls-2" d="M123.71777,292.42285c.03614,4.64356,2.376,7.52344,5.83106,7.52344a5.068,5.068,0,0,0,5.18359-3.38379h1.83594a6.90034,6.90034,0,0,1-7.09082,5.0752c-5.47168,0-7.5957-4.71485-7.5957-9.28614,0-5.14746,2.55566-9.57519,7.81152-9.57519,5.543,0,7.30664,4.78711,7.30664,8.1709,0,.5039,0,1.00781-.03613,1.47558Zm11.41114-1.583c-.03614-3.56445-1.98047-6.37207-5.50782-6.37207-3.707,0-5.39941,2.5918-5.79492,6.37207Z"/><path class="cls-2" d="M141.39453,287.85156c0-1.54785,0-3.23926-.03613-4.64355h1.76367c.03613.6123.1084,2.16015.07227,3.2041a5.62879,5.62879,0,0,1,5.39941-3.63574,5.10793,5.10793,0,0,1,5.21875,3.56347,6.12528,6.12528,0,0,1,5.86719-3.56347c2.77148,0,5.65136,1.584,5.65136,6.58691v11.84277h-1.7998v-11.627c0-2.41113-.86328-5.03906-4.21094-5.03906-3.49218,0-5.07519,2.80762-5.07519,6.2998v10.36621h-1.76465V289.61523c0-2.627-.792-5.07519-4.10352-5.07519-3.49121,0-5.18261,3.0957-5.18261,6.76758v9.89843h-1.79981Z"/><path class="cls-2" d="M183.36816,297.78613a20.64306,20.64306,0,0,0,.252,3.41992h-1.72754a11.82158,11.82158,0,0,1-.32324-2.77148c-.61231,1.332-2.19629,3.20313-5.90332,3.20313-4.17579,0-5.97559-2.69922-5.97559-5.39942,0-3.959,3.05957-5.75879,8.459-5.75879h3.41993v-1.83594c0-1.7998-.54-4.21093-4.64356-4.21093-3.63574,0-4.17578,1.90722-4.57129,3.38281h-1.7998c.21582-1.97949,1.43945-5.03906,6.40722-5.03906,4.10254,0,6.40625,1.72754,6.40625,5.6875Zm-1.76367-5.75879h-3.52734c-3.99512,0-6.47949,1.04395-6.47949,4.13965,0,2.26758,1.62011,3.81543,4.13964,3.81543,5.14747,0,5.86719-3.41992,5.86719-7.30762Z"/><path class="cls-2" d="M189.30957,287.74414c0-1.584,0-3.0957-.03613-4.53613h1.76367c.07227.57617.1084,2.916.07227,3.41992a5.87832,5.87832,0,0,1,5.97558-3.85156c3.20313,0,6.04688,1.7998,6.04688,6.76758v11.6621H201.332v-11.375c0-3.20312-1.332-5.291-4.46289-5.291-4.28418,0-5.75976,3.56348-5.75976,7.4873v9.17871h-1.79981Z"/><path class="cls-2" d="M222.93164,274.67773v21.34473c0,1.72754,0,3.38379.03613,5.18359h-1.72754c-.07226-.43164-.10839-2.124-.10839-3.02343-.89942,2.19531-2.915,3.45508-6.04688,3.45508-4.67969,0-7.4873-3.81543-7.4873-9.21485,0-5.543,3.05957-9.64648,7.95507-9.64648,3.59961,0,5.04,1.54785,5.57911,2.69922V274.67773Zm-13.42578,17.67383c0,4.93067,2.55566,7.59473,5.65137,7.59473,4.751,0,6.04687-3.27539,6.04687-8.1709,0-4.64355-1.11523-7.30762-5.72265-7.30762C211.917,284.46777,209.50586,287.31152,209.50586,292.35156Z"/><path class="cls-2" d="M238.665,301.20605V284.90039h-3.0957V283.208h3.0957v-2.55567c0-3.02343.86426-6.335,4.89551-6.335a6.74032,6.74032,0,0,1,1.76367.252v1.72754a8.967,8.967,0,0,0-1.94434-.21583c-2.123,0-2.915,1.51172-2.915,4.64356v2.4834h3.92383v1.69238h-3.92383v16.30566Z"/><path class="cls-2" d="M261.81055,292.1709c0,5.0039-2.77149,9.4668-8.13477,9.4668-4.85937,0-7.88281-3.99512-7.88281-9.43067,0-5.14746,2.84375-9.43066,8.0625-9.43066C258.64355,282.77637,261.81055,286.51953,261.81055,292.1709Zm-14.11035.03613c0,4.2832,2.30371,7.73926,6.11914,7.73926,3.88769,0,6.084-3.2041,6.084-7.73926,0-4.24707-2.16016-7.73926-6.15527-7.73926C249.64453,284.46777,247.7002,287.8877,247.7002,292.207Z"/><path class="cls-2" d="M266.27637,288.10352c0-3.02344-.03614-4.31934-.03614-4.89551h1.76368c.03613.57617.07226,1.72851.07226,4.03222a6.81747,6.81747,0,0,1,6.2627-4.46386v1.94336c-3.74317.25195-6.2627,2.84375-6.2627,7.12793v9.35839h-1.7998Z"/><path class="cls-2" d="M300.5459,295.915c-.86426,3.167-2.95215,5.72266-6.9834,5.72266-4.499,0-7.70312-3.34766-7.70312-9.3584,0-4.93164,2.62792-9.50293,7.91894-9.50293a6.43505,6.43505,0,0,1,6.76758,5.75879H298.71c-.54-2.08692-1.90723-4.06739-4.9668-4.06739-3.8164,0-5.97558,3.24024-5.97558,7.73926,0,4.2832,2.01562,7.73926,5.79492,7.73926,2.62793,0,4.21191-1.332,5.14746-4.03125Z"/><path class="cls-2" d="M306.52344,274.67773v11.55469a6.27692,6.27692,0,0,1,5.93847-3.45605c2.55567,0,6.083,1.2959,6.083,6.9834v11.44628h-1.79883V290.11914c0-3.56348-1.62011-5.5791-4.60742-5.5791-3.56347,0-5.61523,2.19629-5.61523,6.62305v10.043h-1.79981V274.67773Z"/><path class="cls-2" d="M339.0293,292.1709c0,5.0039-2.77246,9.4668-8.13575,9.4668-4.85937,0-7.88281-3.99512-7.88281-9.43067,0-5.14746,2.84375-9.43066,8.06348-9.43066C335.86133,282.77637,339.0293,286.51953,339.0293,292.1709ZM324.919,292.207c0,4.2832,2.30371,7.73926,6.11914,7.73926,3.88769,0,6.083-3.2041,6.083-7.73926,0-4.24707-2.16015-7.73926-6.15527-7.73926C326.8623,284.46777,324.919,287.8877,324.919,292.207Z"/><path class="cls-2" d="M356.957,295.915c-.86426,3.167-2.95215,5.72266-6.9834,5.72266-4.499,0-7.70312-3.34766-7.70312-9.3584,0-4.93164,2.62793-9.50293,7.91894-9.50293a6.43575,6.43575,0,0,1,6.76758,5.75879h-1.83594c-.54-2.08692-1.9082-4.06739-4.96777-4.06739-3.81543,0-5.97461,3.24024-5.97461,7.73926,0,4.2832,2.01563,7.73926,5.79492,7.73926,2.62793,0,4.21192-1.332,5.14746-4.03125Z"/><path class="cls-2" d="M375.89258,292.1709c0,5.0039-2.77246,9.4668-8.13574,9.4668-4.85938,0-7.88282-3.99512-7.88282-9.43067,0-5.14746,2.84375-9.43066,8.06348-9.43066C372.72461,282.77637,375.89258,286.51953,375.89258,292.1709Zm-14.11035.03613c0,4.2832,2.30371,7.73926,6.11914,7.73926,3.88769,0,6.083-3.2041,6.083-7.73926,0-4.24707-2.16016-7.73926-6.15528-7.73926C363.72559,284.46777,361.78223,287.8877,361.78223,292.207Z"/><path class="cls-2" d="M380.35742,301.20605V274.67773h1.79981v26.52832Z"/><path class="cls-2" d="M400.15625,297.78613a20.64337,20.64337,0,0,0,.252,3.41992h-1.72754a11.85726,11.85726,0,0,1-.32421-2.77148c-.61133,1.332-2.19532,3.20313-5.90332,3.20313-4.17481,0-5.97461-2.69922-5.97461-5.39942,0-3.959,3.05957-5.75879,8.459-5.75879h3.41895v-1.83594c0-1.7998-.54-4.21093-4.64356-4.21093-3.63476,0-4.1748,1.90722-4.57129,3.38281h-1.7998c.21582-1.97949,1.44043-5.03906,6.40722-5.03906,4.10352,0,6.40723,1.72754,6.40723,5.6875Zm-1.76367-5.75879h-3.52735c-3.99511,0-6.47949,1.04395-6.47949,4.13965,0,2.26758,1.62012,3.81543,4.13965,3.81543,5.14746,0,5.86719-3.41992,5.86719-7.30762Z"/><path class="cls-2" d="M403.21777,283.208h3.34766v-5.61524h1.7998V283.208h4.28321v1.69238h-4.28321v11.69824c0,2.01563.43165,3.168,2.15918,3.168a6.78239,6.78239,0,0,0,1.87207-.2168v1.584a6.31728,6.31728,0,0,1-2.23144.32422c-2.30371,0-3.59961-1.15137-3.59961-4.03125V284.90039h-3.34766Z"/><path class="cls-2" d="M416.502,292.42285c.03614,4.64356,2.376,7.52344,5.83106,7.52344a5.06887,5.06887,0,0,0,5.18359-3.38379h1.83594a6.90075,6.90075,0,0,1-7.0918,5.0752c-5.4707,0-7.59472-4.71485-7.59472-9.28614,0-5.14746,2.55566-9.57519,7.81152-9.57519,5.543,0,7.30664,4.78711,7.30664,8.1709,0,.5039,0,1.00781-.03613,1.47558Zm11.41016-1.583c-.03613-3.56445-1.97949-6.37207-5.50684-6.37207-3.708,0-5.39941,2.5918-5.79589,6.37207Z"/><path class="cls-3" d="M200.227,166.83752s9.81918,39.2767,57.5123,33.66574c0,0,58.915,7.01369,57.51231-33.66574,0,0,15.43013-67.33147-57.51231-74.34517C257.73926,92.49235,191.81053,95.29783,200.227,166.83752Z"/><path class="cls-4" d="M248.90868,119.37826c-2.3123-1.61047-2.61669-3.37215-1.93123-5.78535l.68819-2.42282,5.80544-1.42877c1.9692.11787,4.44019,1.90449,5.7538,3.27755,4.34743,4.54413,2.66857,9.89129-1.862,13.43895-6.67911,5.23005-18.63658,8.02308-24.281-.393-4.71267-7.02682-1.69-18.63866,5.06934-23.12039,5.77226-3.82729,13.52129-4.80366,20.2912-4.73682,7.92958.07829,16.025,2.235,21.88459,7.808,6.14943,5.84863,8.38773,14.43924,4.57282,22.19415-6.29665,12.79978-23.50207,20.97015-37.19858,21.531-17.44352.71422-30.55016-11.17624-39.16537-25.19659-1.00906-1.64215-3.605-.13692-2.59041,1.51416,11.77074,19.15565,31.04117,31.73674,53.916,24.52021,17.48682-5.51672,39.9769-24.5392,25.16574-43.79436-6.655-8.65175-17.7312-11.81481-28.27092-11.563-8.75193.2091-19.69343,2.14523-25.12836,9.80322-5.2003,7.32738-5.414,20.2054,2.12069,26.01137,8.12539,6.26114,19.82288,3.12252,26.83931-3.31513,7.46557-6.84976,4.11477-17.77261-5.44665-20.60139-9.81227-2.903-16.48439,8.76386-7.74672,14.84944,1.58784,1.10589,3.089-1.49355,1.51415-2.59041Z"/><path class="cls-4" d="M199.8282,161.09147c22.93316,8.9596,48.61581,15.26942,72.82291,7.399A61.61247,61.61247,0,0,0,312.57826,127.601c.54547-1.856-2.34876-2.6488-2.89284-.79751A58.74463,58.74463,0,0,1,268.41365,166.616c-22.8172,6.10068-46.4094-.06512-67.78793-8.41735-1.79908-.70287-2.57887,2.19689-.79752,2.89284Z"/></svg>