<svg id="Layer_1" data-name="Layer 1" xmlns="http://www.w3.org/2000/svg" viewBox="0 0 516.1 516.0011"><defs><style>.cls-1{fill:#2e3192;}.cls-2{fill:#fff;}.cls-3{fill:#e3acce;}.cls-4{fill:#231f20;}.cls-5{fill:#330;}</style></defs><title>chocolate3</title><path class="cls-1" d="M258,516C115.5,516,0,400.5,0,258A257.961,257.961,0,0,1,75.6,75.6c100.8-100.8,264.1-100.8,364.9,0s100.8,264.1,0,364.9A256.49776,256.49776,0,0,1,258,516Z"/><path class="cls-2" d="M258,.5C400.3.6,515.5,116,515.4,258.2a257.624,257.624,0,0,1-157.2,237C227.1,550.5,76.1,489,20.8,357.9-34.4,227,26.9,76,157.7,20.6A258.09883,258.09883,0,0,1,258,.5m0-1C115.2-.5-.5,115.2-.5,258S115.2,516.5,258,516.5,516.5,400.8,516.5,258,400.8-.5,258-.5Z"/><path class="cls-2" d="M171.57715,282.01074c0-4.93066.03613-9.64648.144-12.166h-.10791c-1.00781,3.38379-6.11914,15.80175-9.32275,23.75683h-1.90821c-2.41162-6.15527-7.70263-19.97754-8.85449-23.793h-.07226c.18017,2.87989.25195,8.74707.25195,13.06641v10.72656h-1.94385V268.4043h2.916c3.45556,8.63965,7.811,19.94238,8.74658,22.78515h.07227c.57568-1.835,5.61523-14.39746,9.14257-22.78515H173.521v25.19726h-1.94385Z"/><path class="cls-2" d="M180.00342,267.07227h1.7998v3.49218h-1.7998Zm0,8.53125h1.7998v17.998h-1.7998Z"/><path class="cls-2" d="M187.707,293.60156V267.07227h1.79981v26.52929Z"/><path class="cls-2" d="M197.21045,284.89063c1.65576-1.76368,6.69531-6.875,9.10693-9.28711h2.30371l-7.12744,7.16308,8.02735,10.835h-2.23194l-7.09082-9.68261-2.98779,2.87988v6.80273h-1.79981V267.07227h1.79981Z"/><path class="cls-2" d="M223.4541,290.9375v9.86328h-1.7998V280.03125c0-1.47559,0-3.05957-.03614-4.42773h1.76368c.07226.68457.07226,1.76367.07226,3.24023a6.61136,6.61136,0,0,1,6.335-3.67187c4.24756,0,7.19922,3.56347,7.19922,8.96289,0,6.47949-3.45557,9.89843-7.811,9.89843C226.00977,294.0332,224.354,292.62988,223.4541,290.9375Zm11.62647-6.73047c0-4.17578-2.01563-7.30762-5.57911-7.30762-4.35546,0-6.15527,2.73633-6.15527,7.63086,0,4.82422,1.40381,7.81153,5.90332,7.81153C232.99268,292.3418,235.08057,289.17383,235.08057,284.207Z"/><path class="cls-2" d="M256.28418,284.56641c0,5.0039-2.77148,9.46679-8.13477,9.46679-4.85937,0-7.8833-3.99511-7.8833-9.43066,0-5.14746,2.84375-9.43066,8.063-9.43066C253.1167,275.17188,256.28418,278.915,256.28418,284.56641Zm-14.11035.03613c0,4.2832,2.30371,7.73926,6.11914,7.73926,3.88769,0,6.08349-3.2041,6.08349-7.73926,0-4.24707-2.15966-7.73926-6.15527-7.73926C244.11768,276.86328,242.17383,280.2832,242.17383,284.60254Z"/><path class="cls-2" d="M260.67822,275.60352c2.66358,9.28711,4.21143,14.61425,4.499,16.19824h.03613c.28808-1.43946,2.08789-7.09082,4.89551-16.19824h1.94384c3.34766,11.123,4.35547,14.32617,4.6792,15.73046h.03614c.5039-1.97949,1.332-4.67968,4.64355-15.73046h1.90772l-5.6875,17.998h-1.9795c-1.94384-6.37109-4.28369-14.18261-4.64355-15.83789h-.03613c-.35987,1.76367-2.41162,8.207-4.75147,15.83789h-2.15967l-5.291-17.998Z"/><path class="cls-2" d="M300.92432,267.07227V288.418c0,1.72851,0,3.38379.03613,5.18359h-1.72754c-.07227-.43164-.1084-2.124-.1084-3.02343-.8999,2.19531-2.91553,3.45507-6.04687,3.45507-4.67969,0-7.48731-3.81543-7.48731-9.21484,0-5.543,3.05957-9.64648,7.95508-9.64648,3.59961,0,5.03955,1.54785,5.5791,2.69921V267.07227Zm-13.42627,17.6748c0,4.93066,2.55566,7.59473,5.65136,7.59473,4.75147,0,6.04737-3.27539,6.04737-8.1709,0-4.64356-1.11573-7.30762-5.72315-7.30762C289.90967,276.86328,287.49805,279.707,287.49805,284.74707Z"/><path class="cls-2" d="M307.22559,284.81836c.03613,4.64355,2.37548,7.52344,5.83105,7.52344a5.06729,5.06729,0,0,0,5.18311-3.38379h1.83593a6.89951,6.89951,0,0,1-7.09082,5.07519c-5.47119,0-7.59521-4.71484-7.59521-9.28613,0-5.14746,2.55566-9.57519,7.811-9.57519,5.543,0,7.30762,4.7871,7.30762,8.17089,0,.50391,0,1.00782-.03613,1.47559Zm11.41064-1.584c-.03613-3.56348-1.98-6.3711-5.50732-6.3711-3.70752,0-5.39942,2.5918-5.79541,6.3711Z"/><path class="cls-2" d="M324.90088,280.499c0-3.02343-.03516-4.31933-.03516-4.8955h1.76367c.03614.57617.07129,1.72851.07129,4.03222a6.81775,6.81775,0,0,1,6.26368-4.46386v1.94335c-3.74317.252-6.26368,2.84375-6.26368,7.12793v9.3584h-1.7998Z"/><path class="cls-2" d="M345.92432,267.07227h1.7998v3.49218h-1.7998Zm0,8.53125h1.7998v17.998h-1.7998Z"/><path class="cls-2" d="M353.62842,280.13965c0-1.584,0-3.0957-.03516-4.53613h1.76367c.07129.57617.10743,2.916.07129,3.41992a5.87924,5.87924,0,0,1,5.97559-3.85156c3.2041,0,6.04687,1.7998,6.04687,6.76757v11.66211h-1.7998v-11.375c0-3.20312-1.33106-5.291-4.46289-5.291-4.2832,0-5.75977,3.56347-5.75977,7.4873v9.17871h-1.7998Z"/><path class="cls-2" d="M86.56738,323.44727c0-1.54786,0-3.23926-.03613-4.64356h1.76367c.03613.61231.1084,2.16016.07227,3.2041a5.6293,5.6293,0,0,1,5.39941-3.63574,5.10853,5.10853,0,0,1,5.21924,3.56348,6.12427,6.12427,0,0,1,5.86719-3.56348c2.77148,0,5.65136,1.584,5.65136,6.58691v11.84278h-1.7998v-11.627c0-2.41113-.86377-5.03906-4.21143-5.03906-3.4917,0-5.07519,2.80762-5.07519,6.29981v10.36621H97.65381V325.21094c0-2.627-.792-5.0752-4.10352-5.0752-3.49121,0-5.1831,3.09571-5.1831,6.76758v9.89844H86.56738Z"/><path class="cls-2" d="M116.41113,310.27344h1.79981v3.49121h-1.79981Zm0,8.53027h1.79981v17.998h-1.79981Z"/><path class="cls-2" d="M124.11475,336.80176V310.27344h1.7998v26.52832Z"/><path class="cls-2" d="M133.61816,328.09082c1.65577-1.76367,6.69532-6.875,9.10694-9.28711h2.30371l-7.12744,7.16309,8.02734,10.835h-2.23193l-7.09082-9.68262-2.9878,2.87988v6.80274h-1.7998V310.27344h1.7998Z"/><path class="cls-2" d="M171.30811,331.51074c-.86377,3.167-2.95118,5.72266-6.98291,5.72266-4.49952,0-7.70313-3.34766-7.70313-9.3584,0-4.93164,2.62793-9.50293,7.91895-9.50293a6.43455,6.43455,0,0,1,6.76709,5.75879h-1.83545c-.54-2.08691-1.90772-4.06738-4.96729-4.06738-3.81592,0-5.97558,3.24023-5.97558,7.73925,0,4.28321,2.01611,7.73926,5.79541,7.73926,2.62744,0,4.21142-1.332,5.14746-4.03125Z"/><path class="cls-2" d="M177.28564,310.27344v11.55469a6.27718,6.27718,0,0,1,5.939-3.45606c2.55615,0,6.0835,1.2959,6.0835,6.9834v11.44629H187.5083V325.71484c0-3.56347-1.61963-5.5791-4.60742-5.5791-3.56348,0-5.61524,2.19629-5.61524,6.623v10.043h-1.7998V310.27344Z"/><path class="cls-2" d="M209.7915,327.7666c0,5.00391-2.77148,9.4668-8.13476,9.4668-4.85938,0-7.8833-3.99512-7.8833-9.43067,0-5.14746,2.84375-9.43066,8.063-9.43066C206.624,318.37207,209.7915,322.11523,209.7915,327.7666Zm-14.11035.03613c0,4.28321,2.30371,7.73926,6.11914,7.73926,3.8877,0,6.0835-3.2041,6.0835-7.73926,0-4.24707-2.15967-7.73925-6.15527-7.73925C197.625,320.06348,195.68115,323.4834,195.68115,327.80273Z"/><path class="cls-2" d="M227.71924,331.51074c-.86377,3.167-2.95117,5.72266-6.98291,5.72266-4.49951,0-7.70313-3.34766-7.70313-9.3584,0-4.93164,2.62793-9.50293,7.91895-9.50293a6.43454,6.43454,0,0,1,6.76709,5.75879h-1.83545c-.54-2.08691-1.90772-4.06738-4.96729-4.06738-3.81591,0-5.97558,3.24023-5.97558,7.73925,0,4.28321,2.01611,7.73926,5.79541,7.73926,2.62744,0,4.21142-1.332,5.14746-4.03125Z"/><path class="cls-2" d="M246.6543,327.7666c0,5.00391-2.77149,9.4668-8.13477,9.4668-4.85937,0-7.8833-3.99512-7.8833-9.43067,0-5.14746,2.84375-9.43066,8.063-9.43066C243.48682,318.37207,246.6543,322.11523,246.6543,327.7666Zm-14.11035.03613c0,4.28321,2.30371,7.73926,6.11914,7.73926,3.88769,0,6.08349-3.2041,6.08349-7.73926,0-4.24707-2.15967-7.73925-6.15527-7.73925C234.48779,320.06348,232.544,323.4834,232.544,327.80273Z"/><path class="cls-2" d="M251.12012,336.80176V310.27344h1.7998v26.52832Z"/><path class="cls-2" d="M270.91846,333.38184a20.58822,20.58822,0,0,0,.252,3.41992h-1.72754a11.81159,11.81159,0,0,1-.32373-2.77149c-.6123,1.332-2.1958,3.20313-5.90332,3.20313-4.17578,0-5.97559-2.69922-5.97559-5.39942,0-3.959,3.05957-5.75878,8.459-5.75878h3.41992v-1.83594c0-1.79981-.54-4.21094-4.64355-4.21094-3.63575,0-4.17579,1.90723-4.57129,3.38281h-1.79981c.21582-1.97949,1.43946-5.03906,6.40723-5.03906,4.103,0,6.40674,1.72754,6.40674,5.6875Zm-1.76367-5.75879h-3.52735c-3.9956,0-6.47949,1.04394-6.47949,4.13965,0,2.26757,1.62012,3.81543,4.13965,3.81543,5.14746,0,5.86719-3.41993,5.86719-7.30762Z"/><path class="cls-2" d="M273.98047,318.80371h3.34766v-5.61523h1.7998v5.61523h4.2832v1.69238h-4.2832v11.69825c0,2.01562.43164,3.168,2.15967,3.168a6.77723,6.77723,0,0,0,1.87158-.21679v1.584a6.31883,6.31883,0,0,1-2.23145.32422c-2.30371,0-3.5996-1.15137-3.5996-4.03125V320.49609h-3.34766Z"/><path class="cls-2" d="M287.26416,328.01855c.03613,4.64356,2.37549,7.52344,5.83105,7.52344a5.06843,5.06843,0,0,0,5.1836-3.38379h1.83545a6.89993,6.89993,0,0,1-7.09082,5.0752c-5.47119,0-7.59522-4.71485-7.59522-9.28613,0-5.14747,2.55567-9.5752,7.811-9.5752,5.54345,0,7.30713,4.78711,7.30713,8.1709,0,.50391,0,1.00781-.03614,1.47558Zm11.41064-1.583c-.03613-3.56446-1.98-6.37207-5.50732-6.37207-3.70752,0-5.39941,2.59179-5.79541,6.37207Z"/><path class="cls-2" d="M305.37158,331.834c.61182,2.33985,2.26758,3.74415,5.11133,3.74415,3.20361,0,4.49951-1.47559,4.49951-3.49219,0-2.05176-.86377-3.05957-4.89551-4.03125-4.64355-1.11524-5.79541-2.51953-5.79541-4.89551,0-2.4834,1.87207-4.78711,5.93946-4.78711s6.01123,2.4834,6.29931,5.03906h-1.7998a4.24233,4.24233,0,0,0-4.57129-3.38281c-3.13184,0-4.03174,1.54688-4.03174,2.98731,0,1.65527.86377,2.48339,4.42725,3.34765,5.07568,1.22363,6.33545,2.87988,6.33545,5.5791,0,3.27539-2.66358,5.291-6.44336,5.291-4.10352,0-6.40723-2.15918-6.91114-5.39942Z"/><path class="cls-2" d="M343.96143,331.51074c-.86426,3.167-2.95215,5.72266-6.9834,5.72266-4.499,0-7.70313-3.34766-7.70313-9.3584,0-4.93164,2.62793-9.50293,7.91895-9.50293a6.43575,6.43575,0,0,1,6.76758,5.75879h-1.83594c-.54-2.08691-1.9082-4.06738-4.96778-4.06738-3.81542,0-5.9746,3.24023-5.9746,7.73925,0,4.28321,2.01562,7.73926,5.79492,7.73926,2.62793,0,4.21191-1.332,5.14746-4.03125Z"/><path class="cls-2" d="M360.62842,333.38184a20.64348,20.64348,0,0,0,.252,3.41992h-1.72754a11.85765,11.85765,0,0,1-.32422-2.77149c-.61132,1.332-2.19531,3.20313-5.90332,3.20313-4.1748,0-5.97461-2.69922-5.97461-5.39942,0-3.959,3.05957-5.75878,8.459-5.75878h3.41894v-1.83594c0-1.79981-.54-4.21094-4.64355-4.21094-3.63477,0-4.17481,1.90723-4.57129,3.38281H347.814c.21583-1.97949,1.44043-5.03906,6.40723-5.03906,4.10352,0,6.40723,1.72754,6.40723,5.6875Zm-1.76367-5.75879H355.3374c-3.99511,0-6.47949,1.04394-6.47949,4.13965,0,2.26757,1.62012,3.81543,4.13965,3.81543,5.14746,0,5.86719-3.41993,5.86719-7.30762Z"/><path class="cls-2" d="M379.81689,331.54688c0,1.76367.03614,4.57128.03614,5.25488h-1.72852a29.17323,29.17323,0,0,1-.10742-3.13184c-.75586,2.124-2.5918,3.56348-5.79492,3.56348-2.5918,0-5.90332-1.00781-5.90332-6.51465v-11.915h1.76367v11.48242c0,2.62793.82715,5.1836,4.3916,5.1836,4.03125,0,5.543-2.26758,5.543-7.415v-9.251h1.7998Z"/><path class="cls-2" d="M385.50635,331.834c.6123,2.33985,2.26855,3.74415,5.11133,3.74415,3.2041,0,4.5-1.47559,4.5-3.49219,0-2.05176-.86426-3.05957-4.89551-4.03125-4.64356-1.11524-5.79492-2.51953-5.79492-4.89551,0-2.4834,1.87109-4.78711,5.93847-4.78711,4.06836,0,6.01172,2.4834,6.29981,5.03906h-1.79981a4.24233,4.24233,0,0,0-4.57129-3.38281c-3.13183,0-4.03125,1.54688-4.03125,2.98731,0,1.65527.86328,2.48339,4.42676,3.34765,5.0752,1.22363,6.335,2.87988,6.335,5.5791,0,3.27539-2.66308,5.291-6.44238,5.291-4.10352,0-6.40723-2.15918-6.91113-5.39942Z"/><path class="cls-2" d="M401.88623,328.01855c.03613,4.64356,2.376,7.52344,5.83106,7.52344a5.06888,5.06888,0,0,0,5.18359-3.38379h1.83594a6.90075,6.90075,0,0,1-7.0918,5.0752c-5.4707,0-7.59473-4.71485-7.59473-9.28613,0-5.14747,2.55567-9.5752,7.81153-9.5752,5.543,0,7.30664,4.78711,7.30664,8.1709,0,.50391,0,1.00781-.03614,1.47558Zm11.41016-1.583c-.03614-3.56446-1.9795-6.37207-5.50684-6.37207-3.708,0-5.39941,2.59179-5.79492,6.37207Z"/><path class="cls-2" d="M419.99268,331.834c.6123,2.33985,2.26855,3.74415,5.11132,3.74415,3.20411,0,4.5-1.47559,4.5-3.49219,0-2.05176-.86425-3.05957-4.8955-4.03125-4.64356-1.11524-5.79493-2.51953-5.79493-4.89551,0-2.4834,1.8711-4.78711,5.93848-4.78711,4.06836,0,6.01172,2.4834,6.29981,5.03906h-1.79981a4.24233,4.24233,0,0,0-4.57129-3.38281c-3.13183,0-4.03125,1.54688-4.03125,2.98731,0,1.65527.86328,2.48339,4.42676,3.34765,5.07519,1.22363,6.335,2.87988,6.335,5.5791,0,3.27539-2.66309,5.291-6.44238,5.291-4.10352,0-6.40723-2.15918-6.91114-5.39942Z"/><path class="cls-2" d="M74.32568,378.77832c0,5.75879-2.55615,8.78223-7.77539,8.78223-4.6792,0-6.623-2.627-7.05517-5.36328h1.83593c.648,2.48437,2.69971,3.67187,5.29151,3.67187,4.6792,0,5.9751-3.02344,5.9751-7.59473v-1.87207c-.97168,2.33985-2.73584,3.59961-6.01123,3.59961-4.21143,0-7.45118-3.41992-7.45118-8.999,0-6.04688,3.45557-9.43066,7.70313-9.43066,3.67139,0,5.25537,1.72753,5.75928,3.168.03613-1.04394.07177-2.30371.10791-2.73632h1.69189c0,.64843-.07178,3.49218-.07178,5.21972ZM61.043,370.93066c0,4.28418,2.26807,7.37989,5.72363,7.37989,4.499,0,5.86719-2.98828,5.86719-7.667,0-4.752-1.43994-7.37988-5.75928-7.37988C62.73486,363.26367,61.043,366.82715,61.043,370.93066Z"/><path class="cls-2" d="M80.231,366.89941c0-3.02343-.03614-4.31933-.03614-4.8955H81.9585c.03613.57617.07226,1.72851.07226,4.03222a6.81761,6.81761,0,0,1,6.26319-4.46386v1.94336c-3.74366.252-6.26319,2.84375-6.26319,7.12792v9.3584H80.231Z"/><path class="cls-2" d="M92.00244,371.21875c.03613,4.64355,2.37549,7.52344,5.83106,7.52344a5.06842,5.06842,0,0,0,5.18359-3.38379h1.83545a6.89992,6.89992,0,0,1-7.09082,5.07519c-5.47119,0-7.59522-4.71484-7.59522-9.28613,0-5.14746,2.55567-9.57519,7.811-9.57519,5.54346,0,7.30713,4.78711,7.30713,8.17089,0,.50391,0,1.00782-.03613,1.47559Zm11.41065-1.584c-.03614-3.56348-1.98-6.3711-5.50733-6.3711-3.70752,0-5.39941,2.5918-5.79541,6.3711Z"/><path class="cls-2" d="M110.25439,371.21875c.03614,4.64355,2.37549,7.52344,5.83106,7.52344a5.06842,5.06842,0,0,0,5.18359-3.38379h1.83545a6.89992,6.89992,0,0,1-7.09082,5.07519c-5.47119,0-7.59521-4.71484-7.59521-9.28613,0-5.14746,2.55566-9.57519,7.811-9.57519,5.54346,0,7.30713,4.78711,7.30713,8.17089,0,.50391,0,1.00782-.03613,1.47559Zm11.41065-1.584c-.03613-3.56348-1.98-6.3711-5.50733-6.3711-3.70751,0-5.39941,2.5918-5.79541,6.3711Z"/><path class="cls-2" d="M127.93018,366.54c0-1.584,0-3.0957-.03614-4.53613h1.76367c.07227.57617.1084,2.916.07227,3.41992a5.8781,5.8781,0,0,1,5.9751-3.85156c3.20361,0,6.04736,1.7998,6.04736,6.76757V380.002h-1.7998V368.627c0-3.20312-1.332-5.291-4.46338-5.291-4.28369,0-5.75928,3.56347-5.75928,7.4873V380.002h-1.7998Z"/><path class="cls-2" d="M149.45752,353.47363v11.55371a6.27811,6.27811,0,0,1,5.939-3.45507c2.55616,0,6.0835,1.29589,6.0835,6.98339V380.002h-1.7998V368.915c0-3.56348-1.61963-5.5791-4.60743-5.5791-3.56347,0-5.61523,2.19629-5.61523,6.623v10.043h-1.79981V353.47363Z"/><path class="cls-2" d="M181.96338,370.9668c0,5.0039-2.77149,9.46679-8.13477,9.46679-4.85937,0-7.8833-3.99511-7.8833-9.43066,0-5.14746,2.84375-9.43066,8.063-9.43066C178.7959,361.57227,181.96338,365.31543,181.96338,370.9668Zm-14.11035.03613c0,4.2832,2.30371,7.73926,6.11914,7.73926,3.88769,0,6.08349-3.2041,6.08349-7.73926,0-4.24707-2.15966-7.73926-6.15527-7.73926C169.79688,363.26367,167.853,366.68359,167.853,371.00293Z"/><path class="cls-2" d="M199.8916,374.74707c0,1.76367.03565,4.57129.03565,5.25488h-1.72754a28.99647,28.99647,0,0,1-.10791-3.13183c-.75586,2.124-2.5918,3.56347-5.79541,3.56347-2.5918,0-5.90332-1.00781-5.90332-6.51464v-11.915h1.76367v11.48242c0,2.62793.82812,5.18359,4.3916,5.18359,4.03174,0,5.54346-2.26758,5.54346-7.415v-9.251h1.7998Z"/><path class="cls-2" d="M205.58105,375.03418c.61182,2.33984,2.26758,3.74414,5.11133,3.74414,3.20362,0,4.49951-1.47559,4.49951-3.49219,0-2.05175-.86376-3.05957-4.8955-4.03125-4.64356-1.11523-5.79541-2.51953-5.79541-4.8955,0-2.4834,1.87207-4.78711,5.93945-4.78711s6.01123,2.48339,6.29932,5.03906h-1.79981a4.24233,4.24233,0,0,0-4.57129-3.38281c-3.13183,0-4.03174,1.54687-4.03174,2.9873,0,1.65527.86377,2.4834,4.42725,3.34766,5.07568,1.22363,6.33545,2.87988,6.33545,5.5791,0,3.27539-2.66357,5.291-6.44336,5.291-4.10352,0-6.40723-2.15918-6.91113-5.39941Z"/><path class="cls-2" d="M221.96045,371.21875c.03613,4.64355,2.37549,7.52344,5.83105,7.52344a5.06844,5.06844,0,0,0,5.1836-3.38379h1.83545a6.89992,6.89992,0,0,1-7.09082,5.07519c-5.47119,0-7.59522-4.71484-7.59522-9.28613,0-5.14746,2.55567-9.57519,7.811-9.57519,5.54345,0,7.30713,4.78711,7.30713,8.17089,0,.50391,0,1.00782-.03614,1.47559Zm11.41064-1.584c-.03613-3.56348-1.98-6.3711-5.50732-6.3711-3.70752,0-5.39941,2.5918-5.79541,6.3711Z"/><path class="cls-2" d="M262.74658,378.77832c0,5.75879-2.55615,8.78223-7.77539,8.78223-4.6792,0-6.62305-2.627-7.05517-5.36328H249.752c.648,2.48437,2.69971,3.67187,5.29151,3.67187,4.6792,0,5.97509-3.02344,5.97509-7.59473v-1.87207c-.97167,2.33985-2.73584,3.59961-6.01123,3.59961-4.21142,0-7.45117-3.41992-7.45117-8.999,0-6.04688,3.45557-9.43066,7.70313-9.43066,3.67138,0,5.25537,1.72753,5.75927,3.168.03614-1.04394.07178-2.30371.10791-2.73632h1.6919c0,.64843-.07178,3.49218-.07178,5.21972Zm-13.28271-7.84766c0,4.28418,2.26806,7.37989,5.72363,7.37989,4.499,0,5.86719-2.98828,5.86719-7.667,0-4.752-1.43994-7.37988-5.75928-7.37988C251.15576,363.26367,249.46387,366.82715,249.46387,370.93066Z"/><path class="cls-2" d="M280.67432,376.582a20.58812,20.58812,0,0,0,.25195,3.41992h-1.72754a11.81156,11.81156,0,0,1-.32373-2.77148c-.6123,1.332-2.1958,3.20312-5.90332,3.20312-4.17578,0-5.97559-2.69921-5.97559-5.39941,0-3.959,3.05957-5.75879,8.459-5.75879H278.875v-1.83594c0-1.7998-.54-4.21093-4.64355-4.21093-3.63575,0-4.17579,1.90722-4.57129,3.38281h-1.79981c.21582-1.97949,1.43945-5.03906,6.40723-5.03906,4.103,0,6.40674,1.72753,6.40674,5.6875Zm-1.76368-5.75879H275.3833c-3.9956,0-6.47949,1.04395-6.47949,4.13965,0,2.26758,1.62012,3.81543,4.13965,3.81543,5.14746,0,5.86718-3.41992,5.86718-7.30762Z"/><path class="cls-2" d="M286.43652,375.03418c.61182,2.33984,2.26758,3.74414,5.11133,3.74414,3.20361,0,4.49951-1.47559,4.49951-3.49219,0-2.05175-.86377-3.05957-4.8955-4.03125-4.64356-1.11523-5.79541-2.51953-5.79541-4.8955,0-2.4834,1.87207-4.78711,5.93945-4.78711s6.01123,2.48339,6.29931,5.03906h-1.7998a4.24233,4.24233,0,0,0-4.57129-3.38281c-3.13183,0-4.03174,1.54687-4.03174,2.9873,0,1.65527.86377,2.4834,4.42725,3.34766,5.07568,1.22363,6.33545,2.87988,6.33545,5.5791,0,3.27539-2.66358,5.291-6.44336,5.291-4.10352,0-6.40723-2.15918-6.91113-5.39941Z"/><path class="cls-2" d="M312.17578,371.21875c.03613,4.64355,2.37549,7.52344,5.83154,7.52344a5.0675,5.0675,0,0,0,5.18262-3.38379h1.83594a6.89951,6.89951,0,0,1-7.09082,5.07519c-5.47119,0-7.59522-4.71484-7.59522-9.28613,0-5.14746,2.55567-9.57519,7.811-9.57519,5.543,0,7.30762,4.78711,7.30762,8.17089,0,.50391,0,1.00782-.03614,1.47559Zm11.41065-1.584c-.03614-3.56348-1.9795-6.3711-5.50782-6.3711-3.707,0-5.39892,2.5918-5.79492,6.3711Z"/><path class="cls-2" d="M329.85107,366.64746c0-1.54785,0-3.23926-.03515-4.64355h1.76367c.03613.6123.10742,2.16015.07129,3.2041a5.62978,5.62978,0,0,1,5.39941-3.63574,5.10834,5.10834,0,0,1,5.21973,3.56347,6.12325,6.12325,0,0,1,5.86719-3.56347c2.77148,0,5.65136,1.584,5.65136,6.58691V380.002h-1.7998V368.375c0-2.41113-.86426-5.03906-4.21191-5.03906-3.49122,0-5.0752,2.80761-5.0752,6.29883V380.002H340.938V368.41113c0-2.627-.792-5.07519-4.10352-5.07519-3.49121,0-5.18359,3.0957-5.18359,6.76758V380.002h-1.79981Z"/><path class="cls-2" d="M359.69482,353.47363h1.79981v3.49121h-1.79981Zm0,8.53028h1.79981v17.998h-1.79981Z"/><path class="cls-2" d="M367.21924,375.03418c.6123,2.33984,2.26855,3.74414,5.11133,3.74414,3.2041,0,4.5-1.47559,4.5-3.49219,0-2.05175-.86426-3.05957-4.89551-4.03125-4.64356-1.11523-5.79492-2.51953-5.79492-4.8955,0-2.4834,1.87109-4.78711,5.93847-4.78711,4.06836,0,6.01172,2.48339,6.29981,5.03906h-1.79981a4.24233,4.24233,0,0,0-4.57129-3.38281c-3.13183,0-4.03125,1.54687-4.03125,2.9873,0,1.65527.86329,2.4834,4.42676,3.34766,5.0752,1.22363,6.335,2.87988,6.335,5.5791,0,3.27539-2.66308,5.291-6.44238,5.291-4.10352,0-6.40723-2.15918-6.91113-5.39941Z"/><path class="cls-2" d="M383.63428,375.03418c.6123,2.33984,2.26855,3.74414,5.1123,3.74414,3.20313,0,4.499-1.47559,4.499-3.49219,0-2.05175-.86426-3.05957-4.89551-4.03125-4.64356-1.11523-5.79492-2.51953-5.79492-4.8955,0-2.4834,1.87109-4.78711,5.93847-4.78711,4.06836,0,6.01172,2.48339,6.29981,5.03906h-1.79981a4.24233,4.24233,0,0,0-4.57129-3.38281c-3.13183,0-4.03125,1.54687-4.03125,2.9873,0,1.65527.86328,2.4834,4.42676,3.34766,5.0752,1.22363,6.335,2.87988,6.335,5.5791,0,3.27539-2.66308,5.291-6.44238,5.291-4.10352,0-6.40723-2.15918-6.91113-5.39941Z"/><path class="cls-2" d="M399.61768,353.47363h1.7998v3.49121h-1.7998Zm0,8.53028h1.7998v17.998h-1.7998Z"/><path class="cls-2" d="M421.90088,370.9668c0,5.0039-2.77246,9.46679-8.13574,9.46679-4.85938,0-7.88282-3.99511-7.88282-9.43066,0-5.14746,2.84375-9.43066,8.06348-9.43066C418.73291,361.57227,421.90088,365.31543,421.90088,370.9668Zm-14.11035.03613c0,4.2832,2.30371,7.73926,6.11914,7.73926,3.88769,0,6.083-3.2041,6.083-7.73926,0-4.24707-2.16016-7.73926-6.15528-7.73926C409.73389,363.26367,407.79053,366.68359,407.79053,371.00293Z"/><path class="cls-2" d="M426.36475,366.54c0-1.584,0-3.0957-.03516-4.53613h1.76367c.07129.57617.10742,2.916.07129,3.41992a5.87924,5.87924,0,0,1,5.97559-3.85156c3.2041,0,6.04687,1.7998,6.04687,6.76757V380.002h-1.7998V368.627c0-3.20312-1.33106-5.291-4.46289-5.291-4.28321,0-5.75977,3.56347-5.75977,7.4873V380.002h-1.7998Z"/><path class="cls-2" d="M445.98486,375.03418c.61231,2.33984,2.26856,3.74414,5.11133,3.74414,3.2041,0,4.5-1.47559,4.5-3.49219,0-2.05175-.86426-3.05957-4.89551-4.03125-4.64355-1.11523-5.79492-2.51953-5.79492-4.8955,0-2.4834,1.8711-4.78711,5.93848-4.78711,4.06836,0,6.01172,2.48339,6.2998,5.03906h-1.7998a4.24233,4.24233,0,0,0-4.57129-3.38281c-3.13184,0-4.03125,1.54687-4.03125,2.9873,0,1.65527.86328,2.4834,4.42676,3.34766,5.07519,1.22363,6.335,2.87988,6.335,5.5791,0,3.27539-2.66309,5.291-6.44238,5.291-4.10352,0-6.40723-2.15918-6.91114-5.39941Z"/><path class="cls-2" d="M179.40967,423.20117V406.89551H176.314v-1.69238h3.09571v-2.55567c0-3.02344.86426-6.335,4.89551-6.335a6.74081,6.74081,0,0,1,1.76367.252V398.292a8.96323,8.96323,0,0,0-1.94385-.21582c-2.12354,0-2.91553,1.51172-2.91553,4.64356v2.4834h3.92383v1.69238h-3.92383v16.30566Z"/><path class="cls-2" d="M188.15723,410.09863c0-3.02343-.03614-4.31933-.03614-4.8955h1.76368c.03613.57617.07226,1.72851.07226,4.03222a6.81763,6.81763,0,0,1,6.26318-4.46387v1.94336c-3.74365.252-6.26318,2.84375-6.26318,7.12793v9.3584h-1.7998Z"/><path class="cls-2" d="M214.11133,414.166c0,5.0039-2.77149,9.46679-8.13477,9.46679-4.85937,0-7.8833-3.99511-7.8833-9.43066,0-5.14746,2.84375-9.43067,8.063-9.43067C210.94385,404.77148,214.11133,408.51465,214.11133,414.166Zm-14.11035.03613c0,4.2832,2.30371,7.73926,6.11914,7.73926,3.88769,0,6.08349-3.20411,6.08349-7.73926,0-4.24707-2.15966-7.73926-6.15527-7.73926C201.94482,406.46289,200.001,409.88281,200.001,414.20215Z"/><path class="cls-2" d="M218.57666,409.84668c0-1.54785,0-3.23926-.03613-4.64355h1.76367c.03613.6123.1084,2.16015.07226,3.2041a5.62931,5.62931,0,0,1,5.39942-3.63575,5.10853,5.10853,0,0,1,5.21924,3.56348,6.12426,6.12426,0,0,1,5.86718-3.56348c2.77149,0,5.65137,1.584,5.65137,6.58692v11.84277h-1.7998V411.57422c0-2.41113-.86377-5.03906-4.21143-5.03906-3.4917,0-5.07519,2.80761-5.07519,6.29882v10.36719h-1.76416V411.61035c0-2.62695-.79151-5.07519-4.10352-5.07519-3.49121,0-5.18311,3.0957-5.18311,6.76757v9.89844h-1.7998Z"/><path class="cls-2" d="M271.02637,417.91016c-.86377,3.167-2.95166,5.72265-6.98291,5.72265-4.49951,0-7.70313-3.34765-7.70313-9.3584,0-4.93164,2.62793-9.50293,7.91895-9.50293a6.43457,6.43457,0,0,1,6.76709,5.75977h-1.83545c-.54-2.08789-1.90772-4.06836-4.96729-4.06836-3.81592,0-5.97558,3.24024-5.97558,7.73926,0,4.2832,2.01611,7.73926,5.79541,7.73926,2.62744,0,4.21142-1.332,5.14746-4.03125Z"/><path class="cls-2" d="M289.96191,414.166c0,5.0039-2.77148,9.46679-8.13476,9.46679-4.85938,0-7.8833-3.99511-7.8833-9.43066,0-5.14746,2.84375-9.43067,8.063-9.43067C286.79443,404.77148,289.96191,408.51465,289.96191,414.166Zm-14.11035.03613c0,4.2832,2.30371,7.73926,6.11914,7.73926,3.8877,0,6.0835-3.20411,6.0835-7.73926,0-4.24707-2.15967-7.73926-6.15527-7.73926C277.79541,406.46289,275.85156,409.88281,275.85156,414.20215Z"/><path class="cls-2" d="M294.356,405.20313c2.66357,9.2871,4.21142,14.61425,4.499,16.19824h.03613c.28809-1.43946,2.08789-7.09082,4.89551-16.19824h1.94385c3.34766,11.123,4.35547,14.32617,4.6792,15.73046h.03613c.50391-1.97949,1.332-4.67968,4.64356-15.73046h1.90771l-5.6875,17.998h-1.97949c-1.94385-6.37109-4.28369-14.18262-4.64356-15.83789h-.03613c-.35986,1.76367-2.41162,8.207-4.75146,15.83789h-2.15967l-5.291-17.998Z"/><path class="cls-2" d="M321.03076,418.2334c.61231,2.33984,2.26856,3.74414,5.11231,3.74414,3.20312,0,4.499-1.47559,4.499-3.49219,0-2.05176-.86426-3.05957-4.89551-4.03125-4.64355-1.11523-5.79492-2.51953-5.79492-4.89551,0-2.48339,1.87109-4.78711,5.93848-4.78711,4.06836,0,6.01172,2.4834,6.2998,5.03907h-1.7998a4.24233,4.24233,0,0,0-4.57129-3.38282c-3.13184,0-4.03125,1.54688-4.03125,2.98731,0,1.65527.86328,2.4834,4.42676,3.34766,5.07519,1.22363,6.335,2.87988,6.335,5.5791,0,3.27539-2.66309,5.291-6.44239,5.291-4.10351,0-6.40722-2.15918-6.91113-5.39941Z"/><path class="cls-2" d="M336.69092,423.20117v-4.64355h1.7998v4.64355Z"/><path class="cls-3" d="M263.62549,187.41757a63.95679,63.95679,0,0,1,24.19146-12.042,17.937,17.937,0,0,1,8.15183-.51643c3.57028.79368,6.81256,3.409,9.51019,6.684a76.26756,76.26756,0,0,1,7.10825,11.11167l.35177-.11861c-2.69372,2.01141-4.59646,5.86324-4.94592,10.01216-.17432,2.06967.01373,4.19263-.32166,6.22537a10.0093,10.0093,0,0,1-2.3554,5.11072,2.37585,2.37585,0,0,1-1.65515.94132c-1.20664-.03289-1.96839-1.72191-2.49665-3.19614l-1.85061-5.16452a1.37962,1.37962,0,0,0-.483-.77608.77951.77951,0,0,0-.63723.04909l-2.45069.91328-1.3843,8.58931a4.04092,4.04092,0,0,1-1.0665,2.61475,1.44122,1.44122,0,0,1-1.93244-.54585,7.11756,7.11756,0,0,1-1.04232-2.45554,55.88962,55.88962,0,0,1-1.64231-8.40869l-3.16388-.4a25.61114,25.61114,0,0,1-3.12219,9.882,2.49542,2.49542,0,0,1-.878,1.02769c-1.15979.584-2.075-1.45286-2.28626-3.10862a26.71835,26.71835,0,0,1-.1473-5.23612,4.43594,4.43594,0,0,0-.17151-2.1441,2.20524,2.20524,0,0,0-.92172-.91629c-2.41654-1.472-5.2641-1.68161-7.38645-3.83374a17.66572,17.66572,0,0,1-2.92926-4.77843l-5.02386-10.48494"/><path class="cls-3" d="M263.941,187.95724c7.34777-5.6264,15.72222-10.23978,24.85315-12.16112,12.20236-2.56765,18.1015,8.03428,23.25347,17.17414a.63231.63231,0,0,0,.70581.28721l.35178-.1186-.60809-1.04462a15.44847,15.44847,0,0,0-5.129,10.4541c-.13266,1.29665-.04074,2.60768-.12741,3.90634-.07025,1.05248-.6984,6.59165-2.36655,6.98783-3.38052.80284-4.35388-6.22115-5.50375-8.06891a.62141.62141,0,0,0-.53967-.30956,11.94222,11.94222,0,0,0-3.25406.9847.62752.62752,0,0,0-.43653.43652c-.19812,1.22933-.40213,7.81528-1.38433,8.58931l-2.83588-.38663-.42807-1.64288c-.74039-1.62227-.98831-5.06657-1.1919-6.59965a.654.654,0,0,0-.625-.625l-3.16388-.4a.62107.62107,0,0,0-.60266.45885c-.19973,1.40138-.9183,7.75606-2.28479,8.25792-3.80459,1.39726-2.87323-4.29772-2.92129-5.52684-.07074-1.80875.05838-2.4-1.40277-3.60007a11.71086,11.71086,0,0,0-2.66669-1.23289C272.331,202.353,270.615,201.095,268.846,197.9306c-2.11493-3.783-3.78895-7.88457-5.66178-11.7932-.34747-.72516-1.42563-.09179-1.07934.63091,2.41821,5.04683,4.5079,13.03372,9.29361,16.41661,3.45413,2.44163,6.86087,2.6517,7.01327,8.04942.04086,1.44718-.0257,4.24,1.15836,5.4483,2.53408,2.58606,4.02987-1.47827,4.87378-3.62379.85308-2.16895,1.237-8.12965,3.85617-4.73218,1.56765,2.03356.65973,6.35629,2.20987,8.72933,1.35907,2.08055,2.90139,1.89442,4.10986-.14185.7475-1.25957.65811-3.47238.89511-4.943l.55374-3.43572q.58557-2.90064,2.16245-.96032c2.44143,1.13493,1.79965,4.75586,3.4852,6.635,2.27349,2.53468,4.44863.17857,5.63592-2.29446a15.46379,15.46379,0,0,0,1.1655-6.2408c.22851-4.9.91858-9.2963,4.86328-12.69675a.6294.6294,0,0,0-.60809-1.04462c.26107-.088-6.62494-10.65721-7.88865-12.02728-2.80429-3.04034-6.30835-5.54967-10.54092-5.912-10.69638-.91561-22.96622,6.7065-31.03323,12.88363-.63007.48247-.00815,1.56868.63089,1.07935Z"/><path class="cls-4" d="M262.23779,190.5171c3.16821,6.30637,5.96823,13.62145,12.87058,16.66879,1.59573.7045,2.19079.38964,2.58319,1.86094.37146,1.39283-.30094,3.4147-.06638,4.91311.22485,1.43639.819,3.8262,2.40729,4.42539,4.2073,1.58714,5.0466-5.9724,5.73611-8.12813.5726-1.79019.62845-1.91062,1.32181-.32675.49219,1.1243.00333,3.58223.371,4.97638.48648,1.84469,1.53794,4.28923,3.71439,4.57774,5.18268.68706,3.699-6.64165,4.63455-9.12032,1.51248-4.007,3.94785,3.79775,5.10928,5.06972,1.035,1.13349,2.37738,1.9296,3.95249,1.40907,1.87771-.62051,2.2774-2.53669,2.5881-4.2512.87711-4.8405.53607-10.44464,3.49161-14.67419,1.13913-1.63016,2.74558-2.2865,2.42349-4.39388-.3569-2.33492-4.47159-6.11128-5.92291-7.83968-5.30832-6.3218-9.42337-9.35505-17.865-8.0792-9.79025,1.47967-17.75372,6.62608-26.3364,11.28686-1.4143.768-.15377,2.9274,1.26178,2.15868,6.43207-3.49289,13.15427-8.21019,20.28693-10.01769,3.03406-.76886,6.97183-1.7315,10.08463-1.40983,4.64746.48024,7.37875,3.81411,10.19323,7.10592,1.415,1.655,3.749,3.78,4.55262,5.67751.89257,2.10751,1.31286.48678.10766,2.99655-.937,1.95128-2.25815,3.51335-2.92142,5.66261a56.05312,56.05312,0,0,0-1.57519,9.31174l-.37943,2.66125q-3.01671.50673-3.53112-1.96435c-.90427-1.1613-1.353-3.18965-1.91846-4.52264a1.20861,1.20861,0,0,0-1.07935-.6191c-1.74322.10939-4.08679.231-4.9671,2.0208-.44711.909-.01868,2.19409.01257,3.10116a12.95757,12.95757,0,0,1-.30313,3.73325q-4.70887.78555-3.55377-3.92252c-.0455-2.13238.62491-2.9105-1.12967-4.05688-.93753-.61257-3.4057-.999-4.37341-.15865-1.85166,1.608.27621,7.72283-2.27213,8.45206-2.5737.7365-1.29968-7.67606-1.7221-8.31625a4.49919,4.49919,0,0,0-1.124-.957c-1.61557-1.35276-4.40246-1.56536-6.21328-3.10817-4.00006-3.408-5.98816-8.88234-8.29038-13.465-.72238-1.43788-2.87973-.17348-2.15869,1.2618Z"/><path class="cls-2" d="M178.443,249.58154a12.54311,12.54311,0,0,1-5.89024-.03876q.405-5.88189.34655-11.784a103.87748,103.87748,0,0,0-3.60177-27.49689,33.09051,33.09051,0,0,0-1.94881-5.37378,29.55051,29.55051,0,0,0-3.25563-5.0993,50.63083,50.63083,0,0,0-16.94829-14.11141l.41518.1418c-5.99973-4.62759-8.61424-12.33575-11.2002-19.5012-3.11236-8.62415-6.6486-17.14893-11.51846-24.89817-3.15555-5.02134-7.36379-10.01742-13.14284-11.14814-7.8768-1.54115-16.02926,4.622-23.68257,2.189a4.90408,4.90408,0,0,1-1.54406-.74816,4.4645,4.4645,0,0,1-1.49716-2.72431c-.611-3.17318.92388-6.323,2.41216-9.18456l5.26121-10.11586-.36127.727A12.05586,12.05586,0,0,0,85.976,97.6166a14.22546,14.22546,0,0,1-3.10395-1.635,2.73349,2.73349,0,0,1-.945-3.14147c.61836-1.2175,2.24893-1.37389,3.60311-1.35944q8.08065.08624,16.14437.704c2.888-3.39217,6.31257-6.51086,10.50535-7.95047s9.27636-.88273,12.39658,2.29248c1.20126,1.22243,2.08517,2.782,3.49188,3.75526a11.09888,11.09888,0,0,0,3.93552,1.44172l9.01208,2.05311a7.65015,7.65015,0,0,1,3.283,1.3128,19.98242,19.98242,0,0,1,2.23454,2.89534c2.41794,2.91337,6.73206,3.03712,10.49316,2.924q28.9062-.86929,57.81107-1.78431l-.19818-.50327a160.95236,160.95236,0,0,0,18.21268,1.51341c7.35632.19194,14.71536-.121,22.06761-.43386l17.9125-.76223c11.23087-.47791,22.4665-.95613,33.66352-1.95746,3.45489-.309,6.96451-.6652,10.368.00969s6.75424,2.5571,8.33713,5.6757l.54251-.19856c1.955,1.21525,2.81674,3.5913,3.54458,5.791a41.35874,41.35874,0,0,1,1.97174,7.50756,41.44433,41.44433,0,0,1,.06067,7.65693l-2.1622,40.14962a82.13457,82.13457,0,0,0,.00626,13.34942l.385.10456c.153.07524.04623-.29108-.0904-.18857s-.07019.31914.00934.47116c3.29477,6.29845,8.05664,11.89912,10.06937,18.72691,1.346,4.56606,1.37344,9.40737,1.3902,14.17168l.03091,8.7998a44.62106,44.62106,0,0,0-5.58923-6.072q.75054,5.19234,1.20959,10.42207a21.0156,21.0156,0,0,1-.02154,5.43858,22.18377,22.18377,0,0,1-1.92484,5.364l-7.197,15.66848-.063.18275c-1.56833,1.22331-3.79455.94473-5.71792.46445a2.51956,2.51956,0,0,1-1.51355-.79929,2.6783,2.6783,0,0,1-.10428-2.18321l3.05917-12.65967c1.04935-4.34244,2.10562-8.74541,2.00907-13.21437s-1.48267-9.08786-4.67377-12.18346c-1.32361,1.94332-1.5954,4.40424-2.42661,6.60874-.91165,2.4178-2.49279,4.51225-3.648,6.8213-1.8602,3.7182-2.573,7.89339-3.7207,11.89507a55.34443,55.34443,0,0,1-6.59644,14.59131,7.10036,7.10036,0,0,1-1.594,1.91032c-1.575,1.18913-3.77618.95683-5.67615.44626l5.37128-20.36014c1.17328-4.44734,2.33722-9.22972.7937-13.56l.00964-.5017c2.07325-.10052,3.69434-1.93829,4.4484-3.89242s.88983-4.09287,1.46118-6.10929a14.53445,14.53445,0,0,1,3.3729-5.96368c.43646-.46445.9414-1.0022.85974-1.63734a2.0111,2.0111,0,0,0-.54444-.982c-5.30807-6.31666-12.21277-12.11766-20.39679-12.64467-5.40927-.34834-10.6643,1.65827-15.72046,3.63184l-19.04214,7.43278-.00586-.44462c-3.438,2.16351-7.50815,3.05836-11.52966,3.54394a125.1788,125.1788,0,0,1-20.71878.25484,225.60612,225.60612,0,0,1-28.70365-2.65021l-.22874-.15474c-1.65795,8.02-3.28211,16.565-.4032,24.22423.62161,1.65378,1.4451,3.23316,1.92387,4.93477,1.35231,4.80621-.1802,9.90488-1.70181,14.65912l-2.59457,8.1067-.10012.04723a8.19023,8.19023,0,0,1-5.56076-.50711.997.997,0,0,1-.4857-.38252,1.09943,1.09943,0,0,1,.01894-.80721,46.79175,46.79175,0,0,0,1.03056-20.75539c-.627-3.54031-1.66112-6.99351-2.4061-10.51042-.80818-3.81527-1.27391-7.69488-1.73861-11.56823l-.32923.4981a3.56063,3.56063,0,0,0-1.56181,2.41253c-3.822,13.15872-1.28123,27.4319-4.20731,40.82315"/><path class="cls-2" d="M178.11068,248.3762c-5.995,1.03758-3.96575-4.52344-3.95474-8.652.01-3.74833-.11062-7.49928-.41592-11.23568a90.06484,90.06484,0,0,0-3.64585-19.93155c-3.39248-10.6628-12.69732-18.83414-22.31846-23.95883l-.9632,2.28468.41516.1418a1.25866,1.25866,0,0,0,1.21619-2.08923c-7.72914-6.45667-9.89333-16.84653-13.4763-25.81492-3.336-8.35017-7.16887-17.27589-13.27027-24.01268-5.08192-5.61112-11.2369-7.18164-18.52034-5.55554-2.003.4472-3.96953,1.04235-5.97014,1.49939a16.58552,16.58552,0,0,1-4.83838.72852c-1.87563-.17473-5.703-2.49822-6.28062-4.37532-.73533-2.38961,2.16592-6.55392,3.2552-8.65622q2.18565-4.2183,4.38434-8.42987l-2.15867-1.26181-.36126.727,2.32933.6309a13.53187,13.53187,0,0,0-4.62913-12.3572c-.9702-.80262-2.54832-1.18845-3.37454-2.00391l-1.06045-.50456q-.13208-3.68067,2.85311-2.7927c3.33757-.5685,7.3878.222,10.76558.43,3.13891.19329,3.45408.68243,5.4499-1.23652,2.9097-2.79765,5.62478-5.58973,9.68426-6.71288,5.28208-1.46138,8.69355.44635,12.13595,4.14463a10.4899,10.4899,0,0,0,4.93842,3.213c3.3695,1.064,7.05453,1.21845,10.38376,2.38744,3.00442,1.05494,3.93267,3.3047,6.20974,5.04886,4.72835,3.62176,12.7054,2.05089,18.10735,1.88726q24.919-.75483,49.837-1.54363a1.26017,1.26017,0,0,0,1.20536-1.5823l-.19818-.50327-1.53765,1.53765c17.51317,2.36148,34.96675,1.36445,52.55428.61605,9.2572-.39393,18.518-.74708,27.76614-1.32381,8.66416-.54031,23.96079-4.74781,29.494,4.17856a1.269,1.269,0,0,0,1.41162.57445c2.38034-.87123,4.66757,14.56437,4.684,15.716.0907,6.34842-.62915,12.79139-.97052,19.13059-.67734,12.57722-2.42758,25.63312-1.33224,38.204a1.29536,1.29536,0,0,0,.91769,1.20534l.385.10455a1.27843,1.27843,0,0,0,1.41165-.57444l.06342-.10451a1.2647,1.2647,0,0,0-.44843-1.71024l-.15381-.08406a1.26217,1.26217,0,0,0-1.88089,1.07935c.04468,2.25751,2.376,4.94276,3.5152,6.77389a70.44833,70.44833,0,0,1,5.52509,9.85114c3.33166,7.96025,2.42984,17.09138,2.45953,25.54452l2.13388-.88388a55.27011,55.27011,0,0,0-5.58923-6.072,1.26175,1.26175,0,0,0-2.08923,1.21618,92.66985,92.66985,0,0,1,1.29934,11.90682c.0318,4.50122-1.67,7.83189-3.50946,11.83653-1.5993,3.48184-3.208,6.95955-4.798,10.44565q-.49485,1.00563-.92569,2.03953l-4.24323-.22584c-1.69415-1.08.0058-4.551.34778-5.96616,2.69431-11.14972,7.878-25.06607-1.01956-34.75236a1.2605,1.2605,0,0,0-1.96323.253c-1.66055,2.98024-2.16089,6.37-3.77185,9.38932a51.01832,51.01832,0,0,0-4.046,8.47279c-1.9273,6.01457-4.86316,25.87746-14.43243,23.83643l.873,1.53764c1.79029-6.78618,3.62827-13.56178,5.37131-20.36023a46.26135,46.26135,0,0,0,1.4603-7.1562,43.58212,43.58212,0,0,0-.48038-6.63764,9.79493,9.79493,0,0,0,2.85132-1.67634c1.34293-1.587,1.76633-3.54546,2.21963-5.51525.84-3.65,2.19056-5.71461,4.02558-8.86741a3.72548,3.72548,0,0,0,.86911-2.4762c-.3292-3.21117-6.50916-7.48523-8.84946-9.2274a25.70078,25.70078,0,0,0-11.77765-5.15756c-6.12027-.82035-11.95807,1.349-17.57217,3.517-6.35611,2.45464-12.69489,4.95525-19.04215,7.43279l1.58231,1.20535-.00586-.44462a1.26267,1.26267,0,0,0-1.88089-1.07935c-8.76607,4.946-19.99522,4.1154-29.73274,3.712-4.47179-.18525-8.94527-.40517-13.40949-.72806-2.55711-.185-5.11261-.40035-7.66145-.67829-2.32311-.25334-7.09074.05773-9.11536-1.31184a1.25763,1.25763,0,0,0-1.83624.747c-1.439,7.03368-2.91148,14.40566-1.37434,21.55617,1.00811,4.68958,3.6373,8.41254,3.30738,13.43192-.28878,4.39381-2.082,8.72949-3.41146,12.88337l-.77838,2.432q-3.7909,2.63826-3.79462-1.0524c-.15189-1.229.77293-3.88435.938-5.1506a47.33173,47.33173,0,0,0,.174-10.78945c-.85309-8.59468-3.58222-16.92526-4.62279-25.53756a1.26193,1.26193,0,0,0-2.32935-.63089c-3.23808,4.8992-3.76748,10.78453-4.17753,16.70112-.63365,9.14319-.23294,18.29607-2.04682,27.33126-.31538,1.571,2.09379,2.24322,2.41071.66459,1.50156-7.47953,1.59828-15.02891,1.87154-22.62658.25149-6.99271.15983-14.846,4.10078-20.8086l-2.32934-.6309c1.30241,10.77946,5.38836,21.62079,4.79615,32.5155a74.45911,74.45911,0,0,1-1.41673,9.14188c-.143.80134-.56754,1.82246-.11354,2.61477.98688,1.72228,4.34328,1.93079,6.05638,1.70569,2.98482-.39221,2.80061-2.492,3.67218-5.21522,1.50092-4.68956,3.39928-9.49239,3.53156-14.47161.14015-5.27534-2.89359-9.60072-3.65412-14.715-.93132-6.26276.34725-12.55657,1.601-18.68491l-1.83624.747c2.8099,1.90079,9.923,1.62923,13.24676,1.938,6.05248.56233,12.12905.8677,18.20133,1.12147,10.1985.42624,21.79513,1.13721,30.99452-4.05334l-1.88089-1.07935.00586.44463a1.25929,1.25929,0,0,0,1.5823,1.20535c6.34726-2.47755,12.68686-4.97587,19.04215-7.43278,6.77573-2.61945,13.77731-5.057,20.949-2.322a28.74832,28.74832,0,0,1,8.51761,5.38783,29.459,29.459,0,0,1,3.36966,3.2903l1.05084,1.15813q1.61911,1.86477-.19668,3.07937c-.62885,1.45272-1.77167,2.614-2.3577,4.15194-1.32718,3.48289-.74292,9.42038-5.4779,10.44137a1.26645,1.26645,0,0,0-.9177,1.20535c-.0357,1.857.7479,3.61243.72687,5.52251-.03744,3.40384-1.1152,6.7919-1.97388,10.05786q-2.43373,9.25669-4.883,18.50931a1.264,1.264,0,0,0,.873,1.53764c8.53327,1.82007,11.43866-6.79916,13.99357-13.58386,2.0411-5.42036,2.68481-11.34628,5.37307-16.51552a69.36844,69.36844,0,0,0,3.28025-6.13931c.88671-2.22085,1.24432-4.48685,2.4266-6.60873l-1.96323.253c7.94239,8.6464,2.99213,21.49648.59516,31.41573-1.272,5.264-3.16571,10.81671,4.50421,10.397,2.77057-.15161,3.62036-1.10066,4.66779-3.41388,2.107-4.65341,4.32412-9.259,6.39733-13.92753,3.25443-7.32842,1.94626-14.43723.86283-22.18787l-2.08924,1.21619a55.2702,55.2702,0,0,1,5.58924,6.072c.69839.88158,2.13739.11722,2.13388-.88388-.02683-7.6392.72406-15.87848-1.46576-23.30378a40.97824,40.97824,0,0,0-4.25519-9.15752c-1.4422-2.4395-5.72311-6.89076-5.77887-9.70825l-1.88089,1.07934.15381.08406-.44843-1.71023a2.21375,2.21375,0,0,0,1.71531-1.26946q-.12132-1.90416-.11588-3.81216c-.00857-2.22939.11176-4.45743.22492-6.68305.243-4.77969.51364-9.55816.771-14.33711.48044-8.92116,1.03024-17.84177,1.44147-26.76641.29529-6.40861-.15454-14.10644-3.865-19.65645-.97708-1.46147-2.422-1.72334-3.29425-2.50435.27328.2447-.8158-1.50065-1.076-1.85095a9.824,9.824,0,0,0-3.30231-2.29513c-6.70724-3.37242-15.34637-1.255-22.44665-.75865-9.23828.64578-18.49256,1.02159-27.74417,1.4154-18.6478.79378-37.29349,2.14753-55.87023-.35736-.821-.11071-1.932.53632-1.53764,1.53765l.19818.50327,1.20535-1.5823c-18.60507.58845-37.21014,1.21358-55.81753,1.7243-1.61855.04443-3.25939.1554-4.87979.06054-4.10978-.24058-5.1081-1.67921-7.93909-4.31278a9.87978,9.87978,0,0,0-4.853-2.77526c-3.876-1.053-8.35753-1.19915-11.875-3.19313-2.81167-1.59388-4.23617-4.55988-7.27025-5.96156-4.80777-2.22109-10.27478-1.06206-14.59935,1.68537-2.61264,1.65983-4.72781,4.98934-7.7203,5.70188-3.45407.82244-8.95591-.51485-12.5576-.54763-3.07239-.02794-8.48408.58322-6.42218,5.13983.85762,1.89528,2.77307,2.36107,4.44152,3.2997a11.20363,11.20363,0,0,1,5.69166,11.71884c-.16148,1.23732,1.80192,1.69221,2.32934.6309l.36127-.727c.71166-1.43205-1.41243-2.69664-2.15868-1.2618-2.578,4.95687-12.4742,18.11311-5.9807,23.53956,7.1017,5.93471,18.64128-3.0925,26.48439-.9389,11.43318,3.13937,17.33828,20.017,21.15651,29.83561,3.4598,8.89684,5.81575,18.83487,13.44722,25.20995l1.21619-2.08923-.41518-.14179a1.25552,1.25552,0,0,0-.96319,2.28468c10.01017,5.33193,18.7615,13.553,21.82229,24.73111,3.3835,12.35657,3.75852,25.33565,2.96652,38.05491a1.25336,1.25336,0,0,0,.9177,1.20535,17.72722,17.72722,0,0,0,6.55485.03876c1.58225-.27384.9115-2.68349-.66459-2.41071Z"/><path class="cls-4" d="M181.5204,245.5858c1.16865-8.6225.377-17.27727.99747-25.92725a36.9046,36.9046,0,0,1,3.4048-13.95535c1.33108-2.66084,3.0146-5.75632,6.093-6.54607,2.39383-.61412,5.2156-.17457,7.67767-.21432,2.41065-.03893,2.418-3.789,0-3.75-4.06515.06562-8.97-.70084-12.36207,2.0809-3.72733,3.05665-5.95461,8.63389-7.15662,13.17364-2.94936,11.13924-.73785,22.83477-2.27033,34.14154-.31983,2.35987,3.29291,3.38106,3.61605.99691Z"/><path class="cls-4" d="M81.22376,98.98969c7.83775,2.22059,12.03665,9.54906,7.54288,16.9527-2.60794,4.29665-7.08467,8.793-5.58844,14.30472,1.28383,4.72931,6.82881,6.469,11.2446,6.30788,7.99463-.29173,14.08477-6.96147,21.788-1.29627,9.96867,7.3313,12.78782,21.01,17.61059,31.707,1.35022,2.99482,2.95882,5.83215,4.17362,8.88937a37.00736,37.00736,0,0,0,3.52537,7.61169c3.09978,4.48223,9.09528,7.03345,13.41852,10.17748,7.325,5.327,10.33907,12.16055,12.95747,20.63695,3.085,9.98678,4.52628,20.34028,2.96447,30.73765-.35462,2.3608,3.25821,3.37908,3.616.9969a68.179,68.179,0,0,0-.67219-23.83253c-1.49741-7.40575-3.61759-16.09856-7.685-22.56654-3.11151-4.94791-7.97188-8.39345-12.74565-11.59485-3.04074-2.03919-6.891-3.92511-9.00679-7.01114-2.04175-2.978-2.79277-6.74-4.34482-9.97356-5.29913-11.04028-8.59157-24.32214-16.49029-33.88434-3.47961-4.2124-8.6683-8.61076-14.45929-8.34969-3.5544.16024-6.65876,1.92633-9.94858,3.04377a16.19921,16.19921,0,0,1-5.41922.98877c-3.75181-.03278-8.05016-2.83363-6.61327-7.03444,2.34711-6.86186,8.79764-10.83039,7.1164-18.91969-1.261-6.0674-6.27794-9.8902-11.98749-11.50783-2.32591-.659-3.31875,2.95822-.9969,3.61605Z"/><path class="cls-4" d="M198.771,198.77238c16.44374,4.68726,35.49012,7.60162,52.33063,3.28089,8.26325-2.12009,15.8978-6.02384,23.79639-9.14759,8.29629-3.28106,18.1994-6.87388,26.59009-2.07586,2.09835,1.1999,3.98962-2.03893,1.8927-3.238-14.40323-8.23618-31.71055,3.10522-45.214,8.23173-18.69532,7.09754-39.54453,4.70719-58.39885-.66719-2.325-.66273-3.31752,2.95456-.99691,3.616Z"/><path class="cls-4" d="M301.85568,191.30812c1.43,1.43806,1.8782,3.13868,3.119,4.618.40829.48682,3.46084,2.67983,3.57333,2.7681a65.38893,65.38893,0,0,1,7.80182,6.857c5.82346,6.302,6.25525,13.685,5.54681,21.90287a63.51867,63.51867,0,0,1-2.24539,12.10892c-.72384,2.51584-3.46933,6.35382-2.90863,8.91142,1.18073,5.38562,7.126,2.6949,10.55814,3.12659a1.87094,1.87094,0,0,0,1.808-1.37656c1.75186-8.04226,7.928-13.95332,8.95657-22.317.53425-4.34413-.508-8.38861-.95452-12.68191-.48612-4.674-.49265-9.3834-.91263-14.06269-.32648-3.63754-.704-7.11335-2.47733-10.361a45.1641,45.1641,0,0,0-6.44726-8.35391c-3.16608-3.50237-6.70941-6.92136-7.68357-11.73143-.92266-4.5558.02216-9.44058.28916-14.02094.14053-2.41081-3.61-2.40269-3.75,0-.42758,7.33579-1.82392,14.87731,2.55252,21.35082,4.70743,6.9631,12.3229,11.67454,13.47858,20.55316.63717,4.89531.634,9.83617,1.036,14.751.33978,4.15368,1.48779,8.3293,1.30368,12.4909-.39032,8.82321-7.18369,15.01483-9.00724,23.38613l1.808-1.37656c-1.86554-.23463-5.88309,1.12914-6.2731-.91051-.12952-.67736,1.51739-4.04385,1.74517-4.75329.52115-1.62316.96808-3.27161,1.35251-4.93242a61.7093,61.7093,0,0,0,1.45578-21.48821c-.69024-5.254-3.44476-9.63162-7.08441-13.38566a90.31283,90.31283,0,0,0-7.297-6.33837c-2.66632-2.22074-4.29425-4.97457-6.69229-7.38609-1.704-1.71364-4.356.93768-2.65164,2.65166Z"/><path class="cls-4" d="M319.361,157.31886c2.40591-6.24789,4.794-12.55689,5.54495-19.2569.80011-7.13865.16333-14.50551.00092-21.67009-.05463-2.40935-3.80481-2.41807-3.75,0,.14944,6.59272.67517,13.3124.16589,19.89557-.53992,6.97922-3.08551,13.5623-5.57779,20.03452-.86786,2.25375,2.75638,3.22937,3.616.9969Z"/><path class="cls-4" d="M320.598,139.07069c1.64041,6.22214.505,13.38123.30212,19.75888l-.62127,19.53345c-.07679,2.4138,3.67331,2.41118,3.75,0l.68341-21.48679c.19683-6.18947,1.09884-12.74489-.4982-18.80244-.61469-2.3315-4.23285-1.34271-3.616.9969Z"/><path class="cls-4" d="M333.0896,209.15266a45.581,45.581,0,0,0,6.2503,11.55237c1.02912,1.37549,3.545,1.08595,3.494-.94634-.19174-7.63821.27536-15.67732-1.18045-23.21011-1.39914-7.2395-6.45566-12.10683-9.52029-18.54469-3.83735-8.06113-.74674-19.43332-.223-28.05388q.813-13.381.94965-26.78719c.02856-2.41384-3.72144-2.41536-3.75,0-.10568,8.936-.4061,17.86678-.94965,26.78719-.48819,8.01173-2.77151,17.27573-1.00979,25.18751,1.616,7.25719,7.79446,12.25524,10.08,19.20551,2.57605,7.83369,1.64893,17.26672,1.85349,25.41568l3.494-.94635a41.997,41.997,0,0,1-5.87229-10.65659c-.83575-2.24109-4.46182-1.27107-3.61606.99691Z"/><path class="cls-4" d="M333.11126,122.8563c.5098-9.03479-1.47558-19.03965-9.61731-24.30725-3.93591-2.54651-8.39224-2.86975-12.95889-2.65719-6.50039.30256-12.99493.83558-19.49338,1.19307q-19.38281,1.06623-38.78878,1.63272c-6.56325.19169-13.13419.406-19.7007.412-6.14508.00563-12.8651-1.665-18.89231-.866-2.35772.31257-2.38879,4.06669,0,3.75,4.86332-.64473,10.10279.71814,15.02825.82936,5.53117.12491,11.06947-.05181,16.59884-.18772q16.91822-.41584,33.82435-1.21152c10.74578-.50574,21.48361-1.42035,32.23022-1.83831,13.79218-.5364,18.70477,11.10969,18.01971,23.25081-.136,2.41114,3.61438,2.4034,3.75,0Z"/><path class="cls-4" d="M213.8614,98.19655q-32.89285-.565-65.73158,1.67825l1.875,1.875c.60879-5.098-3.4854-8.10073-8.087-8.95424-3.42666-.63558-7.1972-.02147-10.27624-1.98779-2.60391-1.66291-4.289-4.50441-6.64136-6.46267-7.71938-6.42607-20.81532.231-24.08134,8.68062-.87066,2.25249,2.7537,3.22789,3.61605.99691,1.64685-4.26059,6.27147-6.828,10.48379-8.05,5.96089-1.72921,8.2079,2.14417,11.88386,5.69175a14.21872,14.21872,0,0,0,6.88126,3.97866c3.79059.89017,13.27276-.608,12.47091,6.1067a1.88069,1.88069,0,0,0,1.875,1.875q32.82119-2.2428,65.73159-1.67825c2.414.04147,2.41444-3.70853,0-3.75Z"/><path class="cls-4" d="M101.71687,91.42884c-3.01841.53227-6.56458-.81247-9.60853-1.10818a19.92282,19.92282,0,0,0-8.367.63291c-3.06321,1.06941-5.10826,3.54037-3.42894,6.71469,1.129,2.134,4.367.24124,3.238-1.8927-1.30008-2.45746,10.91647-1.383,11.70291-1.25513,2.55733.41581,4.875.98037,7.46039.52446,2.37245-.41836,1.367-4.03289-.9969-3.616Z"/><path class="cls-4" d="M183.63948,204.6437a54.49926,54.49926,0,0,0,1.45758,15.88477c1.63867,6.0964,3.73031,11.55873,2.61,17.99045-.42334,2.43043-1.02293,4.8361-1.54646,7.24682-.23406,1.07781-1.2623,3.59317-.64212,4.794,1.15315,2.23277,5.77618.90616,7.52534.445,3.16019-.83327,2.48908-2.6782,3.13716-5.68729,1.019-4.73119,3.89049-8.86189,4.18277-13.78229a17.97819,17.97819,0,0,0-.80282-6.5706c-.84749-2.59821-3.00065-4.77147-3.67978-7.36586-1.53217-5.853.68583-14.17821,1.87088-19.90971.32464-1.57018-2.08463-2.24161-2.41071-.6646-1.36594,6.60638-4.18407,16.74307-1.12082,23.10587,2.71009,5.62922,4.71623,9.42,2.68071,15.83012-.6927,2.18143-1.81788,4.20488-2.51134,6.38728-.37146,1.16907-.40754,3.44295-.97792,4.47451-.24041.43478-4.799,3.761-5.74192,2.35836-.16965-.25233,1.46809-5.35724,1.61276-6.02644.83694-3.87141,1.65771-7.57719,1.2121-11.55783-.45191-4.03671-1.94846-7.8333-2.98717-11.73235a52.47749,52.47749,0,0,1-1.36827-15.22015,1.25077,1.25077,0,0,0-2.5,0Z"/><path class="cls-4" d="M171.45907,244.915l-.18449,2.70391a5.26057,5.26057,0,0,0,.02943,2.38412c.64429,1.42493,2.81354.92684,4.02184.901,1.29872-.02781,3.23248.33037,4.13264-.85511.95078-1.25216,1.17748-3.48,1.60178-4.97666a1.25107,1.25107,0,0,0-2.41071-.66459l-.64581,2.278-.287,1.01242c-.05435.19174-.4294.93472-.02286.65528-.39146.26908-1.87331.04012-2.368.05071l-1.48.03169-.592.01268q-.50323.02319-.17657-.00625l.61909,1.07933a26.28884,26.28884,0,0,1,.26271-4.60643c.10958-1.6059-2.39088-1.59911-2.5,0Z"/><path class="cls-4" d="M300.15313,216.07994c2.29172,7.3574.40531,12.81914-2.56866,19.55821-2.2421,5.08073-1.66422,10.66089-3.59766,15.80527-.46887,1.24751.71256,2.26333,1.808,2.37344,3.62576.36447,7.84839.67912,9.45965-3.03862,1.86255-4.29747,5.48816-7.92366,6.44663-12.5825.50784-2.46848.52792-4.93564,1.30771-7.36492a60.94493,60.94493,0,0,1,4.30716-9.18059c2.44668-4.73605,4.40963-9.44955,4.37371-14.86155-.016-2.41216-3.76605-2.41753-3.75,0,.06464,9.73271-7.70388,16.8734-9.32733,26.18876-.75222,4.31627-1.53146,7.30536-4.01806,10.96636-.93909,1.38257-1.55451,2.96074-2.45633,4.33029-.97562,1.48164.2807,1.072-1.84607,1.73688a11.5661,11.5661,0,0,1-4.4971.05589l1.808,2.37344a37.52339,37.52339,0,0,0,1.71765-8.71844c.56354-4.30438,2.32932-7.37247,3.91352-11.30824a25.36949,25.36949,0,0,0,.53515-17.33058c-.71536-2.29665-4.33661-1.31641-3.616.99688Z"/><path class="cls-4" d="M221.59213,114.55831a22.9932,22.9932,0,0,1-5.11469-6.25135c-1.01365-1.72849-1.6694-4.78557-3.59739-5.55034-1.94348-.77093-6.08515.26666-8.28288.13391-2.98435-.18026-5.95359-.5609-8.94382-.65342-5.30734-.16422-10.5999.54826-15.90621.74329a122.27484,122.27484,0,0,1-18.10116-.90548c-1.98805-.22291-5.33624-1.16918-5.72273,1.736-.27207,2.04512,2.29881,3.66182,3.23123,5.21753,1.17347,1.95791,1.11853,4.37852,1.22755,6.6586s.54108,4.7854,2.3132,6.22448a11.11569,11.11569,0,0,0,2.167,1.22754,25.20721,25.20721,0,0,1,9.15575,7.67067c1.44052,1.963,2.61126,4.15431,4.37983,5.82778s4.38428,2.76052,6.65931,1.893c2.1954-.83716,3.42865-3.18851,5.42381-4.42946,2.04449-1.27165,4.63789-1.22941,7.01453-.84379s4.7375,1.07426,7.14213.95245a21.45367,21.45367,0,0,0,7.29949-2.17558c4.1506-1.799,8.41943-3.67871,11.5466-6.94748,1.56381-1.63465,2.85215-3.913,2.20947-6.082C225.11033,117.03769,223.17762,115.86006,221.59213,114.55831Z"/><path class="cls-4" d="M222.03407,114.11631c-3.07571-2.77264-4.52524-5.79285-6.47276-9.26142a5.01,5.01,0,0,0-3.47052-2.92936c-2.37517-.54235-5.08553.35357-7.49362.33994-4.47736-.02537-8.86063-.78452-13.36373-.61268-8.44079.3221-16.62149.99782-25.07527.25142-2.49371-.22017-10.171-2.66413-10.8376,1.74053-.20938,1.38343.59631,2.36116,1.34273,3.39305a13.42983,13.42983,0,0,1,3.03683,7.26915,28.98192,28.98192,0,0,0,.43018,4.30785,7.03737,7.03737,0,0,0,3.29516,4.50917c3.36766,2.12385,6.612,3.81459,9.22225,6.94035,3.034,3.63321,5.9371,10.52547,11.87733,9.21732,3.33649-.73476,4.87454-4.19063,8.16735-5.13806,4.24824-1.22234,8.38148,1.06126,12.70193.60193,6.00978-.63894,13.70381-4.5094,17.98979-8.697,4.61733-4.51133,3.25388-8.29622-1.35007-11.93222-.62466-.49332-1.51509.38539-.88388.88388,1.88152,1.48594,2.75928,2.00171,3.37642,4.42589.94283,3.70337-1.96081,6.04354-4.81944,7.97507a47.57657,47.57657,0,0,1-8.08556,4.09328,21.39035,21.39035,0,0,1-6.984,2.09025c-2.41849.14832-4.63246-.62147-6.976-.93013a12.83764,12.83764,0,0,0-6.135.26222c-4.39513,1.61046-5.96485,8.50676-12.68681,3.2788-2.257-1.75542-3.47962-4.832-5.30814-7.01514a25.945,25.945,0,0,0-6.37912-5.48247c-2.5594-1.56152-4.65752-1.84464-5.81683-5.41545-.5409-1.666-.26625-3.64273-.46988-5.36042-.24784-2.09047-1.07523-3.29869-1.89188-5.15279a8.63805,8.63805,0,0,0-.99606-1.10245l.70279-4.29205c.51446-.468,2.99159.32281,3.86692.42256a123.36808,123.36808,0,0,0,22.50235.49211,101.38681,101.38681,0,0,1,11.49938-.38433c3.44589.15537,6.862.74944,10.3111.507a18.09585,18.09585,0,0,1,3.91209-.31793c3.61262.653,3.54962,2.32735,4.68074,4.57a24.89555,24.89555,0,0,0,5.697,7.33605C221.74634,115.53762,222.6331,114.65631,222.03407,114.11631Z"/><path class="cls-4" d="M261.96087,100.78868c1.36777-.05677,2.07154,1.83632,1.49472,3.07784s-1.856,1.96522-2.97863,2.7487a10.70521,10.70521,0,0,0-3.5325,3.81134,6.04831,6.04831,0,0,0-.308,5.07206c.92673,2.11628,3.16489,3.27612,5.18985,4.38834q2.42487,1.33188,4.72888,2.86947c3.40754,2.27427,6.83573,5.27465,7.41578,9.33015.6217,4.34684-2.2089,8.37506-3.12491,12.66954a14.84136,14.84136,0,0,0,.11584,6.6661,8.06281,8.06281,0,0,0,3.5249,5.25719c2.21067,1.22739,5.02765.76131,7.26114-.424a39.03513,39.03513,0,0,0,6.01743-4.59335c1.96188-1.59511,4.2121-3.03287,6.73306-3.22833,1.27033-.0985,2.54233.12543,3.81626.14873a10.72923,10.72923,0,0,0,7.41833-2.67919,16.80393,16.80393,0,0,0,3.9848-6.88672,73.399,73.399,0,0,0,2.78241-9.79638,12.82959,12.82959,0,0,0,.35349-4.53223,9.89135,9.89135,0,0,0-3.49155-5.73313,48.01779,48.01779,0,0,0-5.63956-3.8808c-5.79242-3.77616-9.56045-8.62631-14.043-13.70572-3.87213-4.38772-13.3981.54044-18.90118-.70054a15.38308,15.38308,0,0,0-4.21771-.77817c-1.71634.10229-3.33374,1.10958-5.04471.93954"/><path class="cls-4" d="M261.79474,101.39131c.82519.26132-2.39557,5.18083-3.28687,6.029a9.84475,9.84475,0,0,0-2.103,2.69072,6.783,6.783,0,0,0-.37094,5.55366c2.369,5.623,11.16135,6.7919,14.84766,11.53073,6.15549,7.913-2.79431,15.73558-.52219,24.39288,1.0904,4.15472,4.15891,7.06576,8.67072,6.28448,2.66278-.46109,4.81064-2.15948,6.85489-3.8043a37.06237,37.06237,0,0,1,4.68747-3.636c3.17962-1.80791,6.01-.89943,9.35772-1.30976,5.69577-.6981,8.52735-4.9382,10.39042-9.94009,1.819-4.88355,4.88507-12.29821,2.19052-17.36991-1.24668-2.34651-3.43128-3.97574-5.57926-5.43547a62.99455,62.99455,0,0,1-10.27994-8.1094c-4.53622-4.688-6.8366-9.8918-13.95571-9.28732-3.09488.26278-6.13987,1.21394-9.2529,1.24852-1.94254.0216-3.51645-.65672-5.38019-.8598-2.30243-.25089-4.223.63462-6.547.83478-.79544.06851-.8027,1.31914,0,1.25,6.42-.55293,12.3884.04873,18.86182-.91651,4.90783-.7318,7.66681-.08576,11.05426,3.7893a78.76565,78.76565,0,0,0,7.84106,8.16874c3.00159,2.573,6.76236,4.23282,9.6471,6.9011,4.53976,4.19909,3.23733,9.38907,1.75622,14.60378-1.48675,5.2346-3.381,11.93819-9.32419,13.58266-3.73712,1.034-7.148-.4027-10.73709,1.42117-3.363,1.709-5.71649,5.29637-9.18267,6.71139-9.74787,3.97947-11.32587-7.29179-9.02161-13.97354,1.93133-5.60043,3.61139-10.47989-.64554-15.43058-2.16418-2.51687-5.19919-4.38376-8.02-6.05327-2.97934-1.76334-7.80923-3.39112-6.67844-8.43979.64774-2.892,2.96848-3.766,4.86847-5.44859,1.994-1.76585,3.81357-5.037.19162-6.18394-.76867-.24343-1.09765.963-.3323,1.20535Z"/><path class="cls-4" d="M144.82832,98.37162h1.87685l-.00516.12832-1.68271.19941.11519-.0068a5.89159,5.89159,0,0,0-4.87184,1.89448,2.49,2.49,0,0,1-.8534.79843,3.44445,3.44445,0,0,1-2.00123-.14437c-1.80551-.36879-3.95055.57794-4.31882,2.12809-.44565,1.87594,1.57256,3.51236,1.98154,5.39434a3.60413,3.60413,0,0,1-1.33486,3.51281,5.21363,5.21363,0,0,1-4.18252.9691c-1.47643-.29515-2.74208-1.20777-4.25159-1.33185a6.75854,6.75854,0,0,0-4.02875,1.2591,17.5197,17.5197,0,0,1-3.64466,2.06268,13.65253,13.65253,0,0,1-4.57216.42923l-3.27346-.0625c-1.7158-.03276-3.60209-.12226-4.84877-1.127a2.74469,2.74469,0,0,1-.596-3.70059c.91011-1.29223,2.76506-1.79471,4.39347-2.38356a21.805,21.805,0,0,0,4.00383-1.923,4.39525,4.39525,0,0,0,2.31324-2.60788c.23195-1.3739-.89791-2.96274.10228-4.05851a3.30606,3.30606,0,0,1,1.1279-.70337,26.33966,26.33966,0,0,1,5.449-1.71975c1.40025-.281,2.97177-.52482,3.82875-1.50907a4.11148,4.11148,0,0,0,.63518-3.12256l-.31177-4.40138.0022-.04278a1.59256,1.59256,0,0,0,.17186-1.121l.16441-.06658a6.12949,6.12949,0,0,0,1.80553,2.01555c2.51671,2.09727,5.43919,4.33871,8.95907,4.27217.98839-.01868,1.96111-.22519,2.9491-.25553,3.54561-.10886,6.929,2.404,7.28542,5.411"/><path class="cls-4" d="M144.82832,98.99662l.189-.92227c-.77791.09217-.81922,1.29821,0,1.25l.11518-.0068c.79729-.04692.809-1.27916,0-1.25a11.06254,11.06254,0,0,0-4.35626,1.21354,51.97239,51.97239,0,0,1-5.57789,1.509c-3.14392.949-2.28893,2.57095-2.29509,4.98708a5.80657,5.80657,0,0,0,.62332,1.13024l-5.232,5.28643c-.33749.06607-2.53222-.88545-2.99473-.90528-2.25606-.09673-3.61038,1.13762-5.51078,2.10575-2.38951,1.2173-7.08359,2.55629-10.00827,1.58277q-3.98589.4943-2.13067-5.54435l1.24548-.43914c-.33173.2671,3.22067-1.44519,2.87591-1.26074,1.35947-.72735,2.954-1.55889,3.59171-3.0457,1.01729-2.37183-1.19371-3.327,2.39257-5.52288,2.72644-1.66938,7.57875-.47946,8.91859-4.08422.59433-1.599-1.08942-5.77406-.17146-6.73462-.32552.34062,2.26283,2.19048,2.30754,2.22534a15.0985,15.0985,0,0,0,6.53187,3.329c4.36312.75531,9.54589-1.72526,11.2705,4.82455a.62553.62553,0,0,0,1.20535-.3323,7.46358,7.46358,0,0,0-5.505-5.5441c-1.80508-.48979-3.50778-.00044-5.33215-.07019-3.848-.1471-8.02983-2.88-10.22493-5.97817a.63842.63842,0,0,0-.70582-.28722c-1.85726.75215-.21555,4.94763-.48555,6.23444-1.236,5.89045-7.91562,3.30718-11.01857,6.8886-1.60105,1.84794-.12668.77759-.41948,1.56621-1.14759,3.09068-1.23494,4.659-4.27468,6.01925-1.57834.70629-3.75714,1.1055-5.11648,2.27688a3.45671,3.45671,0,0,0-.11888,5.517c2.51174,2.17821,8.78511,1.6906,11.695,1.155,2.08567-.38387,3.39534-1.63224,5.275-2.45743,4.95866-2.177,5.59271.71634,9.62478.21148,2.69062-.33689,4.86928-2.41623,4.47132-5.24337-.50611-3.59543-3.72243-1.94773,2.74528-6.59108.824-.59156,8.47389-2.83561,6.70464-2.77182v-1.25l-.11519.00679v1.25l1.68271-.1994a.644.644,0,0,0,.625-.625l.00515-.12832a.63246.63246,0,0,0-.625-.625h-1.87684a.62537.62537,0,0,0,0,1.25Z"/><path class="cls-4" d="M165.849,105.91831c3.88077-1.25512,7.56-.79113,11.54208-.658a51.00331,51.00331,0,0,0,9.61223-.95378c8.03609-1.21552,16.69927-.13095,24.80092.08839,3.21866.08714,3.21648-4.91292,0-5-8.03474-.21753-16.53921-1.23974-24.52621-.16357a66.91887,66.91887,0,0,1-12.39011.89892,28.47374,28.47374,0,0,0-10.36809.9666c-3.049.9861-1.74475,5.81556,1.3292,4.8214Z"/><path class="cls-4" d="M204.48768,197.44931a90.473,90.473,0,0,0,29.89772,4.50006c2.202-.04158,4.403-.16384,6.59383-.38977a70.138,70.138,0,0,0,28.528-9.43775l.02295-.0215-2.94006-6.64485a15.39556,15.39556,0,0,0-3.00791-4.97661c-2.93558-2.86073-7.54666-2.92-11.62515-2.51066s-8.45371,1.05317-12.06914-.87816c-3.48276-1.86047-5.52019-5.768-9.02234-7.59168a20.68391,20.68391,0,0,0-6.32414-1.64338,81.44847,81.44847,0,0,1-12.97768-3.22924c-4.975-1.68246-10.19041-3.88015-15.296-2.64982a12.067,12.067,0,0,0-6.9009,4.63959,7.1953,7.1953,0,0,0-1.534,5.051c.28345,2.04912,1.78026,3.71976,3.39256,5.01579a21.77485,21.77485,0,0,0,8.6937,4.2246,9.21458,9.21458,0,0,1,3.62082,1.2746c1.59128,1.21081,1.96423,3.41232,2.20326,5.39753.43482,3.61136.68057,7.71022-1.74171,10.42382"/><path class="cls-4" d="M203.98919,199.25731a91.87135,91.87135,0,0,0,36.99,4.17727,71.71635,71.71635,0,0,0,16.11766-3.52527c4.25171-1.47137,10.43-3.36251,13.75912-6.48315a1.93367,1.93367,0,0,0,.29319-2.27219c-2.11634-4.78312-3.75849-11.25361-8.80167-13.81184-4.76785-2.41853-10.009-.95418-15.0482-.83766-4.71375.109-7.31658-1.31966-10.58945-4.54988a20.69232,20.69232,0,0,0-5.34582-4.26426c-3.10015-1.51986-6.75255-1.64227-10.0837-2.34759a103.04981,103.04981,0,0,1-11.72572-3.38963c-5.26186-1.78284-10.91106-3.339-16.2318-.89562-3.76748,1.73007-7.44087,5.54067-7.37134,9.94058.079,4.99837,5.0931,8.39275,9.18009,10.2316,3.07837,1.38506,7.15121,1.36672,8.50918,5.03972,1.18741,3.21169.69019,8.11977-1.25836,10.78714-1.42521,1.951,1.82715,3.824,3.238,1.89269,3.48971-4.77706,3.77287-15.96181-2.25-18.99975-2.19917-1.10925-4.83116-1.2012-7.08926-2.28538-3.88706-1.86629-8.39211-6.70242-4.69455-10.81848,5.503-6.12583,13.96882-2.191,20.38812-.1162,5.75686,1.86072,13.25784,1.83646,18.42579,4.866,4.07877,2.39107,6.30713,6.77846,11.10236,8.11192,4.61072,1.28215,9.26511-.12675,13.92809-.03645,7.9884.15468,9.72976,7.15962,12.48016,13.37578l.29318-2.27217c-3.47278,3.25526-10.2236,4.996-14.64807,6.33653a68.624,68.624,0,0,1-15.8698,2.83755,90.50327,90.50327,0,0,1-32.70039-4.30734c-2.30579-.73114-3.29263,2.88808-.9969,3.61605Z"/><path class="cls-4" d="M301.41452,191.1553c4.10479,2.75848,7.6907,6.93533,11.19754,10.39626,3.09961,3.059,6.82458,6.09309,7.85,10.50546.54609,2.3497,4.16266,1.35509,3.616-.9969-1.06869-4.59851-4.36679-7.736-7.606-10.96212-4.13739-4.12072-8.31036-8.91836-13.165-12.18072-2.00855-1.34976-3.88764,1.89738-1.8927,3.238Z"/><path class="cls-4" d="M171.768,249.50868a15.01872,15.01872,0,0,0-2.33891,4.82179c.89014.60358,2.06612.46216,3.12651.64162.81139.13731,1.57544.47168,2.37326.67341a3.35053,3.35053,0,0,0,2.40707-.13433c1.085-.59006,1.44021-1.949,1.68946-3.15866l.67343-3.26812"/><path class="cls-4" d="M171.22835,249.19323a17.38353,17.38353,0,0,0-2.40192,4.97109.63079.63079,0,0,0,.28721.70581c1.40719.70033,2.96407.6103,4.46753,1.01717,1.30079.352,2.609.85954,3.92092.22651,2.28915-1.10457,2.36073-4.7344,2.79941-6.86329.16178-.78515-1.04285-1.1209-1.20536-.33231-.37,1.79578-.50953,5.94279-2.93567,6.25818a8.37163,8.37163,0,0,1-2.83778-.67223c-1.17659-.29243-2.46724-.16052-3.57816-.71339l.28724.70582a16.254,16.254,0,0,1,2.27589-4.67248c.46109-.66138-.622-1.28684-1.07935-.63091Z"/><path class="cls-4" d="M295.02475,252.0496c-2.35172,2.12526-3.70829,5.108-5.00165,8.00183-.084.188-.15784.43592-.00757.57669a.50511.50511,0,0,0,.311.0987,103.77707,103.77707,0,0,0,12.90261.571c.45255-.01758.99567-.10022,1.17655-.51544a1.25784,1.25784,0,0,0-.01734-.78567,43.8506,43.8506,0,0,1-1.15472-8.56377"/><path class="cls-4" d="M294.58282,251.60766a18.26426,18.26426,0,0,0-3.22638,4.25641c-.57077,1.02426-2.08758,3.08016-2.02765,4.32729.09488,1.97375,3.432,1.37048,4.7566,1.4693,2.3262.17355,4.6578.30813,6.99142.30362.97925-.0019,2.41809.23458,3.28448-.33307.79-.51761.6843-.87342.6298-1.80057-.16385-2.78769-.99723-5.56242-1.13239-8.39761-.03818-.80085-1.28839-.80547-1.25,0,.10507,2.20448.664,4.42776.7301,6.613q.77271,1.69428-1.18582,2.65784-.80712.01716-1.61426.00638c-1.25622-.00882-2.51113-.05466-3.76556-.12174-1.076-.05755-2.15079-.13556-3.22513-.2182q-1.07437-.0845-2.14813-.17648a.93108.93108,0,0,1-.046-1.5663c.49158-2.17665,2.60074-4.65562,4.11288-6.13594.57581-.56369-.30835-1.44731-.88388-.8839Z"/><path class="cls-4" d="M318.96069,248.847a27.804,27.804,0,0,0-5.10928,9.20621q6.16131.22137,12.32837.04785a.76361.76361,0,0,0,.93911-.72l1.00278-4.59709c.25934-1.189.47083-2.58121-.33346-3.49442"/><path class="cls-4" d="M318.51867,248.4051a31.02372,31.02372,0,0,0-5.27,9.482.63087.63087,0,0,0,.60266.79115c2.98806.09865,5.97644.14507,8.96615.11313,1.25235-.01337,3.46124.45906,4.52921-.46091.98987-.85272,1.15213-4.1416,1.37759-5.38034a5.13218,5.13218,0,0,0-.39648-3.976c-.42026-.68435-1.50189-.05716-1.07935.63091.95947,1.56241.12821,3.665-.23093,5.31135-.47393,2.17269-.17538,2.55339-2.51882,2.5989-3.55.06892-7.09885.03013-10.6474-.087l.60269.79115a29.19192,29.19192,0,0,1,4.94851-8.93042c.50153-.61995-.37762-1.5097-.88388-.88388Z"/><path class="cls-4" d="M185.96533,248.3563a24.58929,24.58929,0,0,0-4.33785,8.06531q5.231.19394,10.467.04192a.84727.84727,0,0,0,.61559-.18624.90413.90413,0,0,0,.18176-.44456l.85136-4.02739c.22019-1.0416.39975-2.26131-.28311-3.06136"/><path class="cls-4" d="M185.52337,247.91441a27.5272,27.5272,0,0,0-4.49856,8.3411.63106.63106,0,0,0,.60267.79115c2.53689.08642,5.074.12707,7.6124.0991,1.09349-.012,2.98547.38636,3.91208-.42648.88277-.77438.99757-3.6375,1.19386-4.74774a4.70326,4.70326,0,0,0-.34613-3.54295.62546.62546,0,0,0-1.07933.6309c.8033,1.34981.09467,3.17311-.20558,4.59345-.39293,1.85874-.06918,2.18031-2.04753,2.22-3.014.06038-6.02705.02638-9.03978-.07624l.60268.79116a25.74128,25.74128,0,0,1,4.1771-7.78951c.49082-.626-.38778-1.51669-.88389-.88389Z"/><path class="cls-5" d="M349.446,130.16062c4.12561-6.11077,9.58054-12.92947,16.94534-12.58067a18.36017,18.36017,0,0,0,4.13782.14823c3.39212-.61676,5.3682-4.50837,8.71079-5.3535,4.047-1.02324,7.80252,2.80569,11.97445,2.94851,2.449.08383,4.79621-1.12113,7.24656-1.099a7.29814,7.29814,0,0,1,4.60858,12.90261c5.68075-1.1169,12.17416-2.058,16.74347,1.49724,3.95321,3.07584,5.09713,8.75111,4.09979,13.65968s-3.75479,9.25046-6.45972,13.46614l-7.03039,10.95708a23.19226,23.19226,0,0,1-5.0893,6.20725,11.868,11.868,0,0,1-13.37976.44555,9.28131,9.28131,0,0,0-3.36737-1.84205c-2.99866-.49579-4.94946,2.91462-7.31976,4.81709-5.53626,4.44353-14.26456-.01148-17.42115-6.37s-2.85086-13.8088-4.20132-20.7781-5.56558-14.48258-12.6029-15.41574"/><path class="cls-5" d="M351.6047,131.42241c3.01953-4.40776,6.85971-9.99881,12.46707-11.12487,4.666-.937,7.44764.5281,11.59064-2.54368,3.3266-2.46647,4.80441-3.58412,8.91223-1.89718a22.49039,22.49039,0,0,0,5.26355,1.7941c2.6948.39428,4.86331-.64766,7.503-.77056,4.87708-.227,7.75306,4.65729,3.96051,8.47877-1.85592,1.87008.07032,4.62777,2.43238,4.17846,6.80267-1.294,15.83148-2.14422,17.738,6.55822,1.6052,7.32695-3.45855,14.15039-7.18209,19.95764-3.62177,5.64853-7.8624,16.31374-15.57773,16.65018-5.18088.22592-8.46457-5.53609-13.73575-2.93917-2.39731,1.18108-3.65439,3.89573-5.98023,5.10491-2.92968,1.52315-6.31115.44559-8.85006-1.34953-6.14264-4.34308-6.43058-12.67482-7.269-19.45067-1.15979-9.37267-4.52215-20.63645-15.17153-22.70885-3.14353-.61174-4.48957,4.20638-1.3292,4.8214,9.65518,1.87893,10.91052,13.17941,11.882,21.17051.80283,6.60416,1.86554,13.61057,6.85852,18.46149,3.91483,3.80344,10.06928,6.20883,15.339,3.89,3.1586-1.38986,5.26077-5.95963,9.1673-4.93262,1.37.36016,2.75781,1.76956,4.21792,2.2385a15.04052,15.04052,0,0,0,4.871.694c7.351-.16683,11.26815-5.69705,14.87335-11.3001,4.64123-7.21322,10.998-14.8531,12.73782-23.45512,1.155-5.71039-.08029-12.23192-4.7427-16.092-5.38978-4.46232-12.84482-3.34443-19.17585-2.14016l2.43238,4.17846c4.24713-4.27951,4.5285-11.17662-.47181-15.056-2.60876-2.02393-5.5737-2.34079-8.75088-1.76744-2.79239.50392-4.73258.87028-7.48966-.119-1.86022-.66748-3.59173-1.6854-5.5578-2.04513-3.07739-.56307-5.492.412-7.91964,2.21168-2.08655,1.54686-3.42414,3.06087-6.18033,3.1398a32.73543,32.73543,0,0,0-5.08154.05594c-7.29975,1.307-12.17075,7.8512-16.0983,13.58442-1.82309,2.66126,2.508,5.16486,4.31735,2.5236Z"/></svg>