<svg id="Layer_1" data-name="Layer 1" xmlns="http://www.w3.org/2000/svg" viewBox="0 0 516.1 516.0011"><defs><style>.cls-1{fill:#93278f;}.cls-2{fill:#fff;}.cls-3{fill:#3b2314;stroke:#3b2314;}.cls-3,.cls-4,.cls-5{stroke-miterlimit:10;stroke-width:3px;}.cls-4{fill:#57320d;stroke:#57320d;}.cls-5{fill:#0000b9;stroke:#0000b9;}</style></defs><title>chocolate4</title><path class="cls-1" d="M258,516C115.5,516,0,400.5,0,258A257.961,257.961,0,0,1,75.6,75.6c100.8-100.8,264.1-100.8,364.9,0s100.8,264.1,0,364.9A256.49776,256.49776,0,0,1,258,516Z"/><path class="cls-2" d="M40.70313,270.2041h-8.459v-1.7998H51.17773v1.7998H42.68311v23.39746h-1.98Z"/><path class="cls-2" d="M51.07227,280.499c0-3.02343-.03614-4.31933-.03614-4.8955H52.7998c.03614.57617.07227,1.72851.07227,4.03222a6.81761,6.81761,0,0,1,6.26318-4.46386v1.94335c-3.74365.252-6.26318,2.84375-6.26318,7.12793v9.3584h-1.7998Z"/><path class="cls-2" d="M74.47021,290.18164a20.5878,20.5878,0,0,0,.252,3.41992H72.99463a11.81156,11.81156,0,0,1-.32373-2.77148c-.61231,1.332-2.1958,3.20312-5.90332,3.20312-4.17578,0-5.97559-2.69922-5.97559-5.39941,0-3.959,3.05957-5.75879,8.459-5.75879H72.6709v-1.83594c0-1.7998-.54-4.21093-4.64356-4.21093-3.63574,0-4.17578,1.90722-4.57129,3.38281h-1.7998c.21582-1.97949,1.43945-5.03906,6.40723-5.03906,4.103,0,6.40673,1.72753,6.40673,5.6875Zm-1.76367-5.75879H69.1792c-3.99561,0-6.47949,1.04395-6.47949,4.13965,0,2.26758,1.62011,3.81543,4.13965,3.81543,5.14746,0,5.86718-3.41992,5.86718-7.30762Z"/><path class="cls-2" d="M80.41162,280.13965c0-1.584,0-3.0957-.03613-4.53613h1.76367c.07227.57617.1084,2.916.07227,3.41992a5.87808,5.87808,0,0,1,5.97509-3.85156c3.20362,0,6.04737,1.7998,6.04737,6.76757v11.66211H92.43408v-11.375c0-3.20312-1.332-5.291-4.46338-5.291-4.28369,0-5.75927,3.56347-5.75927,7.4873v9.17871H80.41162Z"/><path class="cls-2" d="M100.03174,288.63379c.61181,2.33984,2.26758,3.74414,5.11133,3.74414,3.20361,0,4.49951-1.47559,4.49951-3.49219,0-2.05176-.86377-3.05957-4.89551-4.03125-4.64355-1.11523-5.79541-2.51953-5.79541-4.89551,0-2.48339,1.87207-4.7871,5.93945-4.7871s6.01123,2.48339,6.29932,5.03906h-1.7998a4.24233,4.24233,0,0,0-4.57129-3.38281c-3.13184,0-4.03174,1.54687-4.03174,2.9873,0,1.65527.86377,2.4834,4.42724,3.34766,5.07569,1.22363,6.33545,2.87988,6.33545,5.5791,0,3.27539-2.66357,5.291-6.44336,5.291-4.10351,0-6.40722-2.15918-6.91113-5.39941Z"/><path class="cls-2" d="M117.56348,290.9375v9.86328h-1.79981V280.03125c0-1.47559,0-3.05957-.03613-4.42773h1.76367c.07227.68457.07227,1.76367.07227,3.24023a6.61136,6.61136,0,0,1,6.335-3.67187c4.24756,0,7.19922,3.56347,7.19922,8.96289,0,6.47949-3.45557,9.89843-7.811,9.89843C120.11914,294.0332,118.46338,292.62988,117.56348,290.9375Zm11.62646-6.73047c0-4.17578-2.01562-7.30762-5.5791-7.30762-4.35547,0-6.15527,2.73633-6.15527,7.63086,0,4.82422,1.40381,7.81153,5.90332,7.81153C127.10205,292.3418,129.18994,289.17383,129.18994,284.207Z"/><path class="cls-2" d="M150.39355,284.56641c0,5.0039-2.77148,9.46679-8.13476,9.46679-4.85938,0-7.8833-3.99511-7.8833-9.43066,0-5.14746,2.84375-9.43066,8.063-9.43066C147.22607,275.17188,150.39355,278.915,150.39355,284.56641Zm-14.11035.03613c0,4.2832,2.30371,7.73926,6.11914,7.73926,3.8877,0,6.0835-3.2041,6.0835-7.73926,0-4.24707-2.15967-7.73926-6.15527-7.73926C138.22705,276.86328,136.2832,280.2832,136.2832,284.60254Z"/><path class="cls-2" d="M154.85889,280.499c0-3.02343-.03614-4.31933-.03614-4.8955h1.76368c.03613.57617.07226,1.72851.07226,4.03222a6.81761,6.81761,0,0,1,6.26319-4.46386v1.94335c-3.74366.252-6.26319,2.84375-6.26319,7.12793v9.3584h-1.7998Z"/><path class="cls-2" d="M164.93848,275.60352h3.34765v-5.61524h1.79981v5.61524h4.2832v1.69238h-4.2832v11.69824c0,2.01563.43164,3.168,2.15967,3.168a6.777,6.777,0,0,0,1.87158-.2168v1.584a6.31906,6.31906,0,0,1-2.23145.32422c-2.30371,0-3.59961-1.15137-3.59961-4.03125V277.2959h-3.34765Z"/><path class="cls-2" d="M190.38818,290.18164a20.5878,20.5878,0,0,0,.252,3.41992H188.9126a11.81041,11.81041,0,0,1-.32373-2.77148c-.61231,1.332-2.1958,3.20312-5.90332,3.20312-4.17578,0-5.97559-2.69922-5.97559-5.39941,0-3.959,3.05957-5.75879,8.459-5.75879h3.41992v-1.83594c0-1.7998-.54-4.21093-4.64356-4.21093-3.63574,0-4.17578,1.90722-4.57129,3.38281h-1.7998c.21582-1.97949,1.43945-5.03906,6.40723-5.03906,4.103,0,6.40673,1.72753,6.40673,5.6875Zm-1.76367-5.75879h-3.52734c-3.99561,0-6.47949,1.04395-6.47949,4.13965,0,2.26758,1.62011,3.81543,4.13964,3.81543,5.14747,0,5.86719-3.41992,5.86719-7.30762Z"/><path class="cls-2" d="M193.4502,275.60352h3.34765v-5.61524h1.79981v5.61524h4.2832v1.69238h-4.2832v11.69824c0,2.01563.43164,3.168,2.15966,3.168a6.777,6.777,0,0,0,1.87159-.2168v1.584a6.31906,6.31906,0,0,1-2.23145.32422c-2.30371,0-3.59961-1.15137-3.59961-4.03125V277.2959H193.4502Z"/><path class="cls-2" d="M206.55371,267.07227h1.79981v3.49218h-1.79981Zm0,8.53125h1.79981v17.998h-1.79981Z"/><path class="cls-2" d="M228.835,284.56641c0,5.0039-2.77148,9.46679-8.13476,9.46679-4.85938,0-7.88331-3.99511-7.88331-9.43066,0-5.14746,2.84375-9.43066,8.063-9.43066C225.66748,275.17188,228.835,278.915,228.835,284.56641Zm-14.11035.03613c0,4.2832,2.30371,7.73926,6.11914,7.73926,3.8877,0,6.0835-3.2041,6.0835-7.73926,0-4.24707-2.15967-7.73926-6.15528-7.73926C216.66846,276.86328,214.72461,280.2832,214.72461,284.60254Z"/><path class="cls-2" d="M233.30078,280.13965c0-1.584,0-3.0957-.03613-4.53613h1.76367c.07227.57617.1084,2.916.07227,3.41992a5.87808,5.87808,0,0,1,5.97509-3.85156c3.20362,0,6.04737,1.7998,6.04737,6.76757v11.66211h-1.79981v-11.375c0-3.20312-1.332-5.291-4.46338-5.291-4.28369,0-5.75927,3.56347-5.75927,7.4873v9.17871h-1.79981Z"/><path class="cls-2" d="M274.73438,290.18164a20.51772,20.51772,0,0,0,.25244,3.41992h-1.728a11.81156,11.81156,0,0,1-.32373-2.77148c-.61231,1.332-2.1958,3.20312-5.90332,3.20312-4.17578,0-5.97559-2.69922-5.97559-5.39941,0-3.959,3.05957-5.75879,8.459-5.75879h3.41992v-1.83594c0-1.7998-.54-4.21093-4.64356-4.21093-3.63574,0-4.17578,1.90722-4.57129,3.38281h-1.7998c.21582-1.97949,1.43945-5.03906,6.40723-5.03906,4.103,0,6.40674,1.72753,6.40674,5.6875Zm-1.76368-5.75879h-3.52734c-3.99561,0-6.47949,1.04395-6.47949,4.13965,0,2.26758,1.62011,3.81543,4.13965,3.81543,5.14746,0,5.86718-3.41992,5.86718-7.30762Z"/><path class="cls-2" d="M280.67578,280.13965c0-1.584,0-3.0957-.03613-4.53613h1.76367c.07227.57617.1084,2.916.07227,3.41992a5.87808,5.87808,0,0,1,5.97509-3.85156c3.20362,0,6.04737,1.7998,6.04737,6.76757v11.66211h-1.79981v-11.375c0-3.20312-1.332-5.291-4.46338-5.291-4.28369,0-5.75927,3.56347-5.75927,7.4873v9.17871h-1.79981Z"/><path class="cls-2" d="M314.29785,267.07227V288.418c0,1.72851,0,3.38379.03613,5.18359h-1.72753c-.07227-.43164-.1084-2.124-.1084-3.02343-.89991,2.19531-2.91553,3.45507-6.04688,3.45507-4.67969,0-7.4873-3.81543-7.4873-9.21484,0-5.543,3.05957-9.64648,7.95508-9.64648,3.5996,0,5.03955,1.54785,5.5791,2.69921V267.07227Zm-13.42627,17.6748c0,4.93066,2.55567,7.59473,5.65137,7.59473,4.75146,0,6.04736-3.27539,6.04736-8.1709,0-4.64356-1.11572-7.30762-5.72314-7.30762C303.2832,276.86328,300.87158,279.707,300.87158,284.74707Z"/><path class="cls-2" d="M331.36279,290.9375v9.86328H329.563V280.03125c0-1.47559,0-3.05957-.03516-4.42773h1.76367c.07129.68457.07129,1.76367.07129,3.24023a6.61236,6.61236,0,0,1,6.33594-3.67187c4.24707,0,7.19922,3.56347,7.19922,8.96289,0,6.47949-3.45606,9.89843-7.81152,9.89843C333.91846,294.0332,332.26318,292.62988,331.36279,290.9375Zm11.627-6.73047c0-4.17578-2.01563-7.30762-5.57911-7.30762-4.35546,0-6.15527,2.73633-6.15527,7.63086,0,4.82422,1.40332,7.81153,5.90332,7.81153C340.90186,292.3418,342.98975,289.17383,342.98975,284.207Z"/><path class="cls-2" d="M361.74463,290.18164a20.64337,20.64337,0,0,0,.252,3.41992H360.269a11.85762,11.85762,0,0,1-.32422-2.77148c-.61132,1.332-2.19531,3.20312-5.90332,3.20312-4.1748,0-5.97461-2.69922-5.97461-5.39941,0-3.959,3.05957-5.75879,8.459-5.75879h3.41894v-1.83594c0-1.7998-.54-4.21093-4.64355-4.21093-3.63477,0-4.17481,1.90722-4.57129,3.38281h-1.7998c.21582-1.97949,1.44043-5.03906,6.40722-5.03906,4.10352,0,6.40723,1.72753,6.40723,5.6875Zm-1.76367-5.75879h-3.52735c-3.99511,0-6.47949,1.04395-6.47949,4.13965,0,2.26758,1.62012,3.81543,4.13965,3.81543,5.14746,0,5.86719-3.41992,5.86719-7.30762Z"/><path class="cls-2" d="M380.93311,288.31055c-.86426,3.167-2.95215,5.72265-6.9834,5.72265-4.499,0-7.70313-3.34765-7.70313-9.3584,0-4.93164,2.62793-9.50292,7.91895-9.50292a6.43577,6.43577,0,0,1,6.76758,5.75976h-1.83594c-.54-2.08789-1.90821-4.06836-4.96778-4.06836-3.81543,0-5.9746,3.24024-5.9746,7.73926,0,4.2832,2.01562,7.73926,5.79492,7.73926,2.62793,0,4.21191-1.332,5.14746-4.03125Z"/><path class="cls-2" d="M386.90967,284.89063c1.65625-1.76368,6.69531-6.875,9.10742-9.28711h2.30371l-7.127,7.16308,8.02636,10.835h-2.23144L389.898,283.919l-2.98828,2.87988v6.80273h-1.79981V267.07227h1.79981Z"/><path class="cls-2" d="M414.88037,290.18164a20.64337,20.64337,0,0,0,.25195,3.41992h-1.72753a11.85646,11.85646,0,0,1-.32422-2.77148c-.61133,1.332-2.19532,3.20312-5.90332,3.20312-4.17481,0-5.97461-2.69922-5.97461-5.39941,0-3.959,3.05957-5.75879,8.459-5.75879h3.41895v-1.83594c0-1.7998-.54-4.21093-4.64356-4.21093-3.63476,0-4.1748,1.90722-4.57129,3.38281h-1.7998c.21582-1.97949,1.44043-5.03906,6.40722-5.03906,4.10352,0,6.40723,1.72753,6.40723,5.6875Zm-1.76367-5.75879h-3.52734c-3.99512,0-6.4795,1.04395-6.4795,4.13965,0,2.26758,1.62012,3.81543,4.13965,3.81543,5.14746,0,5.86719-3.41992,5.86719-7.30762Z"/><path class="cls-2" d="M434.57275,292.37793c0,5.75879-2.55566,8.78223-7.77539,8.78223-4.67968,0-6.623-2.627-7.05468-5.36328h1.83593c.64746,2.48437,2.69922,3.67187,5.291,3.67187,4.67969,0,5.97461-3.02344,5.97461-7.59473V290.002c-.97168,2.33985-2.73535,3.59961-6.01074,3.59961-4.21192,0-7.45118-3.41992-7.45118-8.999,0-6.04688,3.45606-9.43066,7.70313-9.43066,3.67187,0,5.25488,1.72753,5.75879,3.168.03613-1.04394.07226-2.30371.1084-2.73632h1.6914c0,.64843-.07129,3.49218-.07129,5.21972Zm-13.28222-7.84766c0,4.28418,2.26758,7.37989,5.72265,7.37989,4.5,0,5.86719-2.98828,5.86719-7.667,0-4.75195-1.43945-7.37988-5.75879-7.37988C422.98193,276.86328,421.29053,280.42676,421.29053,284.53027Z"/><path class="cls-2" d="M440.47705,267.07227h1.79981v3.49218h-1.79981Zm0,8.53125h1.79981v17.998h-1.79981Z"/><path class="cls-2" d="M448.18115,280.13965c0-1.584,0-3.0957-.03515-4.53613h1.76367c.07129.57617.10742,2.916.07129,3.41992a5.87922,5.87922,0,0,1,5.97558-3.85156c3.2041,0,6.04688,1.7998,6.04688,6.76757v11.66211h-1.79981v-11.375c0-3.20312-1.33105-5.291-4.46289-5.291-4.2832,0-5.75976,3.56347-5.75976,7.4873v9.17871h-1.79981Z"/><path class="cls-2" d="M481.65967,292.37793c0,5.75879-2.55567,8.78223-7.77539,8.78223-4.67969,0-6.623-2.627-7.05469-5.36328h1.83594c.64746,2.48437,2.69922,3.67187,5.291,3.67187,4.67969,0,5.97559-3.02344,5.97559-7.59473V290.002c-.97266,2.33985-2.73633,3.59961-6.01172,3.59961-4.21191,0-7.45117-3.41992-7.45117-8.999,0-6.04688,3.45605-9.43066,7.70312-9.43066,3.67188,0,5.25489,1.72753,5.75977,3.168.03516-1.04394.07129-2.30371.10742-2.73632H481.731c0,.64843-.07129,3.49218-.07129,5.21972Zm-13.28223-7.84766c0,4.28418,2.26758,7.37989,5.72266,7.37989,4.5,0,5.86719-2.98828,5.86719-7.667,0-4.75195-1.43946-7.37988-5.75879-7.37988C470.06885,276.86328,468.37744,280.42676,468.37744,284.53027Z"/><path class="cls-2" d="M92.82959,331.51074c-.86377,3.167-2.95117,5.72266-6.98291,5.72266-4.49951,0-7.70313-3.34766-7.70313-9.3584,0-4.93164,2.62793-9.50293,7.91895-9.50293a6.43454,6.43454,0,0,1,6.76709,5.75879H90.99414c-.54-2.08691-1.90771-4.06738-4.96728-4.06738-3.81592,0-5.97559,3.24023-5.97559,7.73925,0,4.28321,2.01611,7.73926,5.79541,7.73926,2.62744,0,4.21143-1.332,5.14746-4.03125Z"/><path class="cls-2" d="M111.76514,327.7666c0,5.00391-2.77149,9.4668-8.13477,9.4668-4.85937,0-7.8833-3.99512-7.8833-9.43067,0-5.14746,2.84375-9.43066,8.063-9.43066C108.59766,318.37207,111.76514,322.11523,111.76514,327.7666Zm-14.11035.03613c0,4.28321,2.30371,7.73926,6.11914,7.73926,3.88769,0,6.08349-3.2041,6.08349-7.73926,0-4.24707-2.15967-7.73925-6.15527-7.73925C99.59863,320.06348,97.65479,323.4834,97.65479,327.80273Z"/><path class="cls-2" d="M116.23047,323.33984c0-1.584,0-3.0957-.03613-4.53613H117.958c.07226.57617.1084,2.916.07226,3.41992a5.87812,5.87812,0,0,1,5.9751-3.85156c3.20361,0,6.04736,1.79981,6.04736,6.76758v11.66211h-1.7998v-11.375c0-3.20313-1.332-5.291-4.46338-5.291-4.28369,0-5.75928,3.56348-5.75928,7.48731v9.17871h-1.7998Z"/><path class="cls-2" d="M135.85059,331.834c.61181,2.33985,2.26757,3.74415,5.11132,3.74415,3.20362,0,4.49952-1.47559,4.49952-3.49219,0-2.05176-.86377-3.05957-4.89551-4.03125-4.64356-1.11524-5.79541-2.51953-5.79541-4.89551,0-2.4834,1.87207-4.78711,5.93945-4.78711s6.01123,2.4834,6.29932,5.03906h-1.79981a4.24233,4.24233,0,0,0-4.57129-3.38281c-3.13183,0-4.03173,1.54688-4.03173,2.98731,0,1.65527.86376,2.48339,4.42724,3.34765,5.07569,1.22363,6.33545,2.87988,6.33545,5.5791,0,3.27539-2.66357,5.291-6.44336,5.291-4.10351,0-6.40723-2.15918-6.91113-5.39942Z"/><path class="cls-2" d="M164.86475,331.54688c0,1.76367.03564,4.57128.03564,5.25488h-1.72754a28.9967,28.9967,0,0,1-.10791-3.13184c-.75586,2.124-2.5918,3.56348-5.79541,3.56348-2.5918,0-5.90332-1.00781-5.90332-6.51465v-11.915h1.76367v11.48242c0,2.62793.82813,5.1836,4.3916,5.1836,4.03174,0,5.54346-2.26758,5.54346-7.415v-9.251h1.79981Z"/><path class="cls-2" d="M170.77,323.44727c0-1.54786,0-3.23926-.03613-4.64356h1.76367c.03613.61231.1084,2.16016.07226,3.2041a5.62931,5.62931,0,0,1,5.39942-3.63574,5.10853,5.10853,0,0,1,5.21924,3.56348,6.12426,6.12426,0,0,1,5.86718-3.56348c2.77149,0,5.65137,1.584,5.65137,6.58691v11.84278h-1.7998v-11.627c0-2.41113-.86377-5.03906-4.21143-5.03906-3.4917,0-5.07519,2.80762-5.07519,6.29981v10.36621h-1.76416V325.21094c0-2.627-.79151-5.0752-4.10352-5.0752-3.49121,0-5.18311,3.09571-5.18311,6.76758v9.89844H170.77Z"/><path class="cls-2" d="M201.00977,328.01855c.03613,4.64356,2.37548,7.52344,5.83105,7.52344a5.06841,5.06841,0,0,0,5.18359-3.38379h1.83545a6.89992,6.89992,0,0,1-7.09082,5.0752c-5.47119,0-7.59521-4.71485-7.59521-9.28613,0-5.14747,2.55566-9.5752,7.811-9.5752,5.54346,0,7.30713,4.78711,7.30713,8.1709,0,.50391,0,1.00781-.03613,1.47558Zm11.41064-1.583c-.03613-3.56446-1.98-6.37207-5.50732-6.37207-3.70752,0-5.39942,2.59179-5.79541,6.37207Z"/><path class="cls-2" d="M228.04541,323.69922c0-3.02344-.03613-4.31934-.03613-4.89551H229.773c.03613.57617.07226,1.72852.07226,4.03223a6.81762,6.81762,0,0,1,6.26319-4.46387v1.94336c-3.74365.252-6.26319,2.84375-6.26319,7.12793v9.3584h-1.7998Z"/><path class="cls-2" d="M239.81738,328.01855c.03614,4.64356,2.37549,7.52344,5.83106,7.52344a5.06841,5.06841,0,0,0,5.18359-3.38379h1.83545a6.89992,6.89992,0,0,1-7.09082,5.0752c-5.47119,0-7.59521-4.71485-7.59521-9.28613,0-5.14747,2.55566-9.5752,7.811-9.5752,5.54346,0,7.30713,4.78711,7.30713,8.1709,0,.50391,0,1.00781-.03613,1.47558Zm11.41065-1.583c-.03614-3.56446-1.98-6.37207-5.50733-6.37207-3.70752,0-5.39941,2.59179-5.79541,6.37207Z"/><path class="cls-2" d="M257.92529,331.834c.61182,2.33985,2.26758,3.74415,5.11133,3.74415,3.20361,0,4.49951-1.47559,4.49951-3.49219,0-2.05176-.86377-3.05957-4.8955-4.03125-4.64356-1.11524-5.79542-2.51953-5.79542-4.89551,0-2.4834,1.87208-4.78711,5.93946-4.78711s6.01123,2.4834,6.29931,5.03906h-1.7998a4.24233,4.24233,0,0,0-4.57129-3.38281c-3.13184,0-4.03174,1.54688-4.03174,2.98731,0,1.65527.86377,2.48339,4.42725,3.34765,5.07568,1.22363,6.33545,2.87988,6.33545,5.5791,0,3.27539-2.66358,5.291-6.44336,5.291-4.10352,0-6.40723-2.15918-6.91113-5.39942Z"/><path class="cls-2" d="M288.48682,327.7666c0,5.00391-2.77149,9.4668-8.13477,9.4668-4.85937,0-7.8833-3.99512-7.8833-9.43067,0-5.14746,2.84375-9.43066,8.063-9.43066C285.31934,318.37207,288.48682,322.11523,288.48682,327.7666Zm-14.11036.03613c0,4.28321,2.30372,7.73926,6.11915,7.73926,3.88769,0,6.08349-3.2041,6.08349-7.73926,0-4.24707-2.15967-7.73925-6.15527-7.73925C276.32031,320.06348,274.37646,323.4834,274.37646,327.80273Z"/><path class="cls-2" d="M306.41455,331.54688c0,1.76367.03565,4.57128.03565,5.25488h-1.72754a28.9967,28.9967,0,0,1-.10791-3.13184c-.75586,2.124-2.5918,3.56348-5.79541,3.56348-2.5918,0-5.90332-1.00781-5.90332-6.51465v-11.915h1.76367v11.48242c0,2.62793.82812,5.1836,4.3916,5.1836,4.03174,0,5.54346-2.26758,5.54346-7.415v-9.251h1.7998Z"/><path class="cls-2" d="M312.32031,323.69922c0-3.02344-.03613-4.31934-.03613-4.89551h1.76367c.03613.57617.07227,1.72852.07227,4.03223a6.8171,6.8171,0,0,1,6.26318-4.46387v1.94336c-3.74365.252-6.26318,2.84375-6.26318,7.12793v9.3584h-1.79981Z"/><path class="cls-2" d="M336.94287,331.51074c-.86426,3.167-2.95215,5.72266-6.9834,5.72266-4.499,0-7.70312-3.34766-7.70312-9.3584,0-4.93164,2.62793-9.50293,7.91894-9.50293a6.43575,6.43575,0,0,1,6.76758,5.75879h-1.83594c-.54-2.08691-1.9082-4.06738-4.96777-4.06738-3.81543,0-5.97461,3.24023-5.97461,7.73925,0,4.28321,2.01563,7.73926,5.79492,7.73926,2.62793,0,4.21192-1.332,5.14746-4.03125Z"/><path class="cls-2" d="M341.69482,328.01855c.03614,4.64356,2.376,7.52344,5.83106,7.52344a5.06886,5.06886,0,0,0,5.18359-3.38379h1.83594a6.90075,6.90075,0,0,1-7.0918,5.0752c-5.4707,0-7.59472-4.71485-7.59472-9.28613,0-5.14747,2.55566-9.5752,7.81152-9.5752,5.543,0,7.30664,4.78711,7.30664,8.1709,0,.50391,0,1.00781-.03613,1.47558Zm11.41016-1.583c-.03613-3.56446-1.97949-6.37207-5.50684-6.37207-3.708,0-5.39941,2.59179-5.79492,6.37207Z"/><path class="cls-2" d="M359.80225,331.834c.6123,2.33985,2.26855,3.74415,5.1123,3.74415,3.20313,0,4.499-1.47559,4.499-3.49219,0-2.05176-.86425-3.05957-4.8955-4.03125-4.64356-1.11524-5.79493-2.51953-5.79493-4.89551,0-2.4834,1.8711-4.78711,5.93848-4.78711,4.06836,0,6.01172,2.4834,6.29981,5.03906h-1.79981a4.24233,4.24233,0,0,0-4.57129-3.38281c-3.13183,0-4.03125,1.54688-4.03125,2.98731,0,1.65527.86328,2.48339,4.42676,3.34765,5.0752,1.22363,6.335,2.87988,6.335,5.5791,0,3.27539-2.66309,5.291-6.44238,5.291-4.10352,0-6.40723-2.15918-6.91113-5.39942Z"/><path class="cls-2" d="M397.49268,333.38184a20.64348,20.64348,0,0,0,.25195,3.41992h-1.72754a11.85765,11.85765,0,0,1-.32422-2.77149c-.61133,1.332-2.19531,3.20313-5.90332,3.20313-4.1748,0-5.97461-2.69922-5.97461-5.39942,0-3.959,3.05957-5.75878,8.459-5.75878h3.41894v-1.83594c0-1.79981-.54-4.21094-4.64355-4.21094-3.63477,0-4.17481,1.90723-4.57129,3.38281h-1.79981c.21582-1.97949,1.44043-5.03906,6.40723-5.03906,4.10351,0,6.40723,1.72754,6.40723,5.6875Zm-1.76368-5.75879h-3.52734c-3.99512,0-6.47949,1.04394-6.47949,4.13965,0,2.26757,1.62012,3.81543,4.13965,3.81543,5.14746,0,5.86718-3.41993,5.86718-7.30762Z"/><path class="cls-2" d="M403.43408,323.33984c0-1.584,0-3.0957-.03515-4.53613h1.76367c.07129.57617.10742,2.916.07129,3.41992a5.87924,5.87924,0,0,1,5.97558-3.85156c3.2041,0,6.04688,1.79981,6.04688,6.76758v11.66211h-1.79883v-11.375c0-3.20313-1.332-5.291-4.46387-5.291-4.2832,0-5.75976,3.56348-5.75976,7.48731v9.17871h-1.79981Z"/><path class="cls-2" d="M437.05615,310.27344v21.34472c0,1.72754,0,3.38379.03614,5.1836h-1.72754c-.07227-.43164-.1084-2.124-.1084-3.02344-.89942,2.19531-2.915,3.45508-6.04688,3.45508-4.67968,0-7.4873-3.81543-7.4873-9.21485,0-5.543,3.05957-9.64648,7.95508-9.64648,3.59961,0,5.03906,1.54785,5.5791,2.69922V310.27344Zm-13.42578,17.67383c0,4.93066,2.55567,7.59472,5.65137,7.59472,4.751,0,6.04687-3.27539,6.04687-8.1709,0-4.64355-1.11621-7.30761-5.72363-7.30761C426.0415,320.06348,423.63037,322.90723,423.63037,327.94727Z"/><path class="cls-2" d="M183.709,374.71094c-.86377,3.167-2.95166,5.72265-6.98291,5.72265-4.49951,0-7.70312-3.34765-7.70312-9.35839,0-4.93165,2.62793-9.50293,7.91894-9.50293A6.43456,6.43456,0,0,1,183.709,367.332h-1.83544c-.54-2.08789-1.90772-4.06836-4.96729-4.06836-3.81592,0-5.97559,3.24024-5.97559,7.73926,0,4.2832,2.01612,7.73926,5.79541,7.73926,2.62745,0,4.21143-1.332,5.14747-4.03125Z"/><path class="cls-2" d="M187.88672,366.89941c0-3.02343-.03613-4.31933-.03613-4.8955h1.76367c.03613.57617.07226,1.72851.07226,4.03222a6.81761,6.81761,0,0,1,6.26319-4.46386v1.94336c-3.74366.252-6.26319,2.84375-6.26319,7.12792v9.3584h-1.7998Z"/><path class="cls-2" d="M199.65869,371.21875c.03613,4.64355,2.37549,7.52344,5.83106,7.52344a5.06842,5.06842,0,0,0,5.18359-3.38379h1.83545a6.89992,6.89992,0,0,1-7.09082,5.07519c-5.47119,0-7.59522-4.71484-7.59522-9.28613,0-5.14746,2.55567-9.57519,7.811-9.57519,5.54346,0,7.30713,4.78711,7.30713,8.17089,0,.50391,0,1.00782-.03613,1.47559Zm11.41065-1.584c-.03614-3.56348-1.98-6.3711-5.50733-6.3711-3.70752,0-5.39941,2.5918-5.79541,6.3711Z"/><path class="cls-2" d="M229.68066,376.582a20.5174,20.5174,0,0,0,.25245,3.41992h-1.728a11.81156,11.81156,0,0,1-.32373-2.77148c-.61231,1.332-2.1958,3.20312-5.90332,3.20312-4.17578,0-5.97559-2.69921-5.97559-5.39941,0-3.959,3.05957-5.75879,8.459-5.75879h3.41992v-1.83594c0-1.7998-.54-4.21093-4.64356-4.21093-3.63574,0-4.17578,1.90722-4.57129,3.38281h-1.7998c.21582-1.97949,1.43945-5.03906,6.40723-5.03906,4.103,0,6.40673,1.72753,6.40673,5.6875Zm-1.76367-5.75879h-3.52734c-3.99561,0-6.47949,1.04395-6.47949,4.13965,0,2.26758,1.62011,3.81543,4.13964,3.81543,5.14747,0,5.86719-3.41992,5.86719-7.30762Z"/><path class="cls-2" d="M232.74268,362.00391h3.34765v-5.61524h1.79981v5.61524h4.2832v1.69238h-4.2832v11.69824c0,2.01563.43164,3.168,2.15966,3.168a6.777,6.777,0,0,0,1.87159-.2168v1.584a6.31906,6.31906,0,0,1-2.23145.32422c-2.30371,0-3.59961-1.15137-3.59961-4.03125V363.69629h-3.34765Z"/><path class="cls-2" d="M246.02637,371.21875c.03613,4.64355,2.37549,7.52344,5.83105,7.52344a5.06844,5.06844,0,0,0,5.1836-3.38379h1.83544a6.89991,6.89991,0,0,1-7.09082,5.07519c-5.47119,0-7.59521-4.71484-7.59521-9.28613,0-5.14746,2.55566-9.57519,7.811-9.57519,5.54346,0,7.30713,4.78711,7.30713,8.17089,0,.50391,0,1.00782-.03613,1.47559Zm11.41064-1.584c-.03613-3.56348-1.98-6.3711-5.50732-6.3711-3.70752,0-5.39942,2.5918-5.79541,6.3711Z"/><path class="cls-2" d="M273.09814,362.00391c2.66358,9.28711,4.21143,14.61425,4.499,16.19824h.03613c.28809-1.43945,2.08789-7.09082,4.89551-16.19824h1.94385c3.34765,11.123,4.35547,14.32617,4.6792,15.73047h.03613c.5039-1.9795,1.332-4.67969,4.64355-15.73047h1.90772l-5.6875,17.998h-1.97949c-1.94385-6.37109-4.2837-14.18261-4.64356-15.83789h-.03613c-.35987,1.76367-2.41162,8.207-4.75147,15.83789h-2.15966l-5.291-17.998Z"/><path class="cls-2" d="M311.544,376.582a20.51772,20.51772,0,0,0,.25244,3.41992h-1.728a11.81156,11.81156,0,0,1-.32373-2.77148c-.61231,1.332-2.1958,3.20312-5.90332,3.20312-4.17578,0-5.97559-2.69921-5.97559-5.39941,0-3.959,3.05957-5.75879,8.459-5.75879h3.41992v-1.83594c0-1.7998-.54-4.21093-4.64356-4.21093-3.63574,0-4.17578,1.90722-4.57128,3.38281H298.73c.21582-1.97949,1.43945-5.03906,6.40723-5.03906,4.103,0,6.40674,1.72753,6.40674,5.6875Zm-1.76368-5.75879h-3.52734c-3.99561,0-6.47949,1.04395-6.47949,4.13965,0,2.26758,1.62011,3.81543,4.13965,3.81543,5.14746,0,5.86718-3.41992,5.86718-7.30762Z"/><path class="cls-2" d="M317.30615,375.03418c.61231,2.33984,2.26758,3.74414,5.11133,3.74414,3.20313,0,4.499-1.47559,4.499-3.49219,0-2.05175-.86328-3.05957-4.89453-4.03125-4.64355-1.11523-5.7959-2.51953-5.7959-4.8955,0-2.4834,1.87207-4.78711,5.93946-4.78711s6.01074,2.48339,6.29883,5.03906h-1.79981a4.24158,4.24158,0,0,0-4.57129-3.38281c-3.13183,0-4.03125,1.54687-4.03125,2.9873,0,1.65527.86426,2.4834,4.42774,3.34766,5.07519,1.22363,6.335,2.87988,6.335,5.5791,0,3.27539-2.66407,5.291-6.44336,5.291-4.10352,0-6.40723-2.15918-6.91114-5.39941Z"/><path class="cls-2" d="M330.48193,362.00391h3.34766v-5.61524h1.7998v5.61524h4.28321v1.69238h-4.28321v11.69824c0,2.01563.43165,3.168,2.15918,3.168a6.78239,6.78239,0,0,0,1.87207-.2168v1.584a6.31728,6.31728,0,0,1-2.23144.32422c-2.30371,0-3.59961-1.15137-3.59961-4.03125V363.69629h-3.34766Z"/><path class="cls-2" d="M343.76514,371.21875c.03613,4.64355,2.376,7.52344,5.83105,7.52344a5.06889,5.06889,0,0,0,5.1836-3.38379h1.83593a6.90073,6.90073,0,0,1-7.09179,5.07519c-5.47071,0-7.59473-4.71484-7.59473-9.28613,0-5.14746,2.55566-9.57519,7.81152-9.57519,5.543,0,7.30664,4.78711,7.30664,8.17089,0,.50391,0,1.00782-.03613,1.47559Zm11.41015-1.584c-.03613-3.56348-1.97949-6.3711-5.50683-6.3711-3.708,0-5.39942,2.5918-5.79492,6.3711Z"/><rect class="cls-3" x="198.39268" y="54.80978" width="92.57708" height="165.50484" transform="translate(153.36127 -127.8675) rotate(41.66932)"/><rect class="cls-4" x="215.12617" y="103.07189" width="11.15091" height="22.82286" transform="translate(131.95076 -117.76422) rotate(41.66932)"/><rect class="cls-4" x="230.80453" y="118.71652" width="11.17178" height="22.86556" transform="translate(146.33533 -124.23103) rotate(41.66932)"/><rect class="cls-4" x="193.68741" y="127.04881" width="11.17178" height="22.86556" transform="translate(142.48404 -97.44632) rotate(41.66932)"/><rect class="cls-4" x="209.79314" y="142.32464" width="11.17178" height="22.86556" transform="translate(156.71472 -104.28903) rotate(41.66932)"/><rect class="cls-4" x="172.29559" y="151.08436" width="11.17178" height="22.86556" transform="translate(153.05136 -77.14326) rotate(41.66932)"/><rect class="cls-4" x="188.86895" y="165.83477" width="11.17178" height="22.86556" transform="translate(167.05104 -84.42979) rotate(41.66932)"/><rect class="cls-4" x="255.65631" y="57.61261" width="11.15091" height="22.82286" transform="translate(111.9824 -156.21135) rotate(41.66932)"/><rect class="cls-4" x="235.48074" y="80.02991" width="11.15091" height="22.82286" transform="matrix(0.74699, 0.66483, -0.66483, 0.74699, 121.78157, -137.12631)"/><rect class="cls-4" x="271.96815" y="72.62891" width="11.17178" height="22.86556" transform="translate(126.10951 -163.25828) rotate(41.66932)"/><rect class="cls-4" x="251.75483" y="95.08815" width="11.17178" height="22.86556" transform="translate(135.92702 -144.13753) rotate(41.66932)"/><rect class="cls-4" x="248.75212" y="132.21438" width="11.15091" height="22.82286" transform="translate(159.83313 -132.74656) rotate(41.66932)"/><rect class="cls-4" x="264.43049" y="147.85902" width="11.17178" height="22.86556" transform="translate(174.21771 -139.21337) rotate(41.66932)"/><rect class="cls-4" x="227.31336" y="156.1913" width="11.17178" height="22.86556" transform="translate(170.36642 -112.42866) rotate(41.66932)"/><rect class="cls-4" x="243.41909" y="171.46713" width="11.17178" height="22.86556" transform="translate(184.5971 -119.27137) rotate(41.66932)"/><rect class="cls-4" x="205.92154" y="180.22685" width="11.17178" height="22.86556" transform="translate(180.93373 -92.1256) rotate(41.66932)"/><rect class="cls-4" x="222.4949" y="194.97726" width="11.17178" height="22.86556" transform="translate(194.93341 -99.41213) rotate(41.66932)"/><rect class="cls-4" x="289.28227" y="86.7551" width="11.15091" height="22.82286" transform="matrix(0.74699, 0.66483, -0.66483, 0.74699, 139.86477, -171.19369)"/><rect class="cls-4" x="269.10669" y="109.17241" width="11.15091" height="22.82286" transform="translate(149.66394 -152.10865) rotate(41.66932)"/><rect class="cls-4" x="305.5941" y="101.7714" width="11.17178" height="22.86556" transform="translate(153.99189 -178.24062) rotate(41.66932)"/><rect class="cls-4" x="285.38078" y="124.23065" width="11.17178" height="22.86556" transform="translate(163.80939 -159.11987) rotate(41.66932)"/><path class="cls-5" d="M228.08079,86.58963l-72.99318,82.01413,69.15456,61.54805,50.44-56.67367S235.7627,132.20735,228.08079,86.58963Z"/><path class="cls-5" d="M244.68121,131.41135s-32.37222-83.4282-20.507-88.28214l16.882-4.3146Z"/><path class="cls-5" d="M244.68121,131.41135l74.4143,33.6055-12.94382,26.64278S274.62647,183.82831,244.68121,131.41135Z"/></svg>