<svg id="Layer_1" data-name="Layer 1" xmlns="http://www.w3.org/2000/svg" viewBox="0 0 517 517"><defs><style>.cls-1{fill:#2e3192;}.cls-2,.cls-3{fill:#fff;}.cls-3{stroke:#fff;}.cls-3,.cls-4,.cls-5,.cls-6,.cls-7{stroke-miterlimit:10;}.cls-4{fill:#006838;stroke:#006838;}.cls-4,.cls-7{stroke-width:3px;}.cls-5{fill:#c3996b;stroke:#c3996b;}.cls-6{fill:#603813;stroke:#603813;}.cls-7{fill:none;stroke:#3b2314;stroke-linecap:round;}</style></defs><title>coffee1</title><path class="cls-1" d="M260.5,516.5c-142.5,0-258-115.5-258-258A257.961,257.961,0,0,1,78.1,76.1C178.9-24.7,342.2-24.7,443,76.1S543.8,340.2,443,441A256.49775,256.49775,0,0,1,260.5,516.5Z"/><path class="cls-2" d="M134.98682,265.39941H142.644c6.33692,0,10.72657,4.42286,10.72657,11.35352,0,6.89844-4.29053,11.75-10.75977,11.75h-7.624Zm1.78222,21.45313h5.57813c6.10547,0,9.10888-4.29,9.10888-10,0-5.083-2.70605-9.80274-9.10888-9.80274H136.769Z"/><path class="cls-2" d="M158.28467,280.4502c.0332,4.25683,2.17822,6.89746,5.34668,6.89746a4.64689,4.64689,0,0,0,4.75293-3.10254h1.6831a6.32707,6.32707,0,0,1-6.502,4.65429c-5.0166,0-6.96387-4.32421-6.96387-8.51562,0-4.71973,2.34326-8.7793,7.16211-8.7793,5.08252,0,6.69971,4.38965,6.69971,7.49219,0,.46191,0,.92383-.03272,1.35352Zm10.4624-1.45215c-.03271-3.26758-1.81494-5.84278-5.04932-5.84278-3.3999,0-4.95068,2.377-5.314,5.84278Z"/><path class="cls-2" d="M174.48779,276.25781c0-1.41894,0-2.96972-.0332-4.25683h1.61719c.0332.56054.09912,1.97949.06592,2.93652a5.16267,5.16267,0,0,1,4.95068-3.333,4.68476,4.68476,0,0,1,4.78613,3.26758,5.61424,5.61424,0,0,1,5.3794-3.26758c2.5415,0,5.18213,1.45215,5.18213,6.04v10.8584h-1.6504V277.84277c0-2.21191-.792-4.62109-3.86181-4.62109-3.20117,0-4.65332,2.57422-4.65332,5.77637v9.50488h-1.61719V277.875c0-2.40918-.72656-4.65332-3.76269-4.65332-3.20167,0-4.75293,2.83887-4.75293,6.20508v9.07617h-1.64991Z"/><path class="cls-2" d="M212.96729,285.36719a18.9172,18.9172,0,0,0,.231,3.13574h-1.584a10.85512,10.85512,0,0,1-.29688-2.541c-.561,1.22071-2.01367,2.9375-5.41308,2.9375-3.82862,0-5.47852-2.47558-5.47852-4.95117,0-3.63086,2.80518-5.28027,7.75586-5.28027h3.13574v-1.68359c0-1.6504-.49511-3.86133-4.25781-3.86133-3.3335,0-3.82861,1.749-4.19141,3.10254h-1.65039c.19825-1.81543,1.32032-4.6211,5.875-4.6211,3.76221,0,5.87452,1.584,5.87452,5.21485Zm-1.61719-5.28028h-3.23438c-3.66357,0-5.94092.957-5.94092,3.79493,0,2.08007,1.48536,3.499,3.79541,3.499,4.71973,0,5.37989-3.13574,5.37989-6.7002Z"/><path class="cls-2" d="M218.41064,276.15918c0-1.45215,0-2.83887-.0332-4.1582h1.61719c.06592.52734.09912,2.67285.06592,3.13476a5.3909,5.3909,0,0,1,5.479-3.53125c2.9375,0,5.54492,1.65039,5.54492,6.20508v10.69336h-1.65039V278.07324c0-2.9375-1.22119-4.85156-4.09277-4.85156-3.92725,0-5.28076,3.26758-5.28076,6.86523v8.416h-1.64991Z"/><path class="cls-2" d="M249.23389,264.17871V283.75c0,1.584,0,3.10254.03271,4.75293h-1.584c-.06592-.39648-.09912-1.94727-.09912-2.77246-.8252,2.01367-2.67334,3.16894-5.54493,3.16894-4.29052,0-6.86474-3.499-6.86474-8.44921,0-5.083,2.80517-8.84571,7.29394-8.84571,3.30078,0,4.62061,1.41895,5.11573,2.47559v-9.90137Zm-12.311,16.20508c0,4.52148,2.34375,6.96387,5.18213,6.96387,4.35645,0,5.54443-3.00293,5.54443-7.49219,0-4.25781-1.02295-6.7002-5.24755-6.7002C239.13428,273.15527,236.92285,275.7627,236.92285,280.38379Z"/><path class="cls-2" d="M263.65234,288.50293V273.55176h-2.83789V272.001h2.83789v-2.34375c0-2.77246.793-5.8086,4.48829-5.8086a6.16557,6.16557,0,0,1,1.61718.23047v1.585a8.13624,8.13624,0,0,0-1.78125-.19824c-1.94726,0-2.67383,1.38574-2.67383,4.25781V272.001h3.59766v1.55078h-3.59766v14.95117Z"/><path class="cls-2" d="M284.87305,280.21875c0,4.58789-2.541,8.68066-7.459,8.68066-4.45508,0-7.22851-3.66406-7.22851-8.64746,0-4.71972,2.60742-8.64746,7.39355-8.64746C281.96875,271.60449,284.87305,275.03711,284.87305,280.21875Zm-12.9375.0332c0,3.92774,2.11133,7.09571,5.61035,7.09571,3.56445,0,5.57812-2.9375,5.57812-7.09571,0-3.89453-1.98047-7.09668-5.64355-7.09668C273.7168,273.15527,271.93555,276.291,271.93555,280.252Z"/><path class="cls-2" d="M288.96289,276.48926c0-2.77246-.0332-3.96094-.0332-4.48828h1.61719c.0332.52734.0664,1.584.0664,3.69629a6.25239,6.25239,0,0,1,5.74317-4.09278v1.78223c-3.43262.23144-5.74317,2.60742-5.74317,6.53516v8.58105h-1.65039Z"/><path class="cls-2" d="M320.38086,283.65137c-.793,2.90429-2.707,5.248-6.40332,5.248-4.126,0-7.06348-3.07031-7.06348-8.582,0-4.52148,2.41016-8.71289,7.26172-8.71289a5.90168,5.90168,0,0,1,6.20508,5.28028h-1.68359a4.459,4.459,0,0,0-4.55469-3.7295c-3.49805,0-5.47852,2.97071-5.47852,7.09668,0,3.92774,1.84766,7.09571,5.31348,7.09571,2.40918,0,3.86133-1.22071,4.71973-3.69629Z"/><path class="cls-2" d="M337.73828,280.21875c0,4.58789-2.541,8.68066-7.459,8.68066-4.45606,0-7.22852-3.66406-7.22852-8.64746,0-4.71972,2.60742-8.64746,7.39356-8.64746C334.834,271.60449,337.73828,275.03711,337.73828,280.21875Zm-12.9375.0332c0,3.92774,2.11231,7.09571,5.61035,7.09571,3.56446,0,5.57813-2.9375,5.57813-7.09571,0-3.89453-1.98047-7.09668-5.64356-7.09668C326.583,273.15527,324.80078,276.291,324.80078,280.252Z"/><path class="cls-2" d="M344.1709,273.55176v14.95117h-1.65039V273.55176h-2.83887V272.001h2.83887v-2.27735c0-2.83886.627-5.875,4.32324-5.875a3.62087,3.62087,0,0,1,1.48535.23047v1.55176a5.26057,5.26057,0,0,0-1.584-.23145c-1.84864,0-2.57422,1.22168-2.57422,4.05957v2.542h6.63379v-2.27735c0-2.83886.69238-5.875,4.32324-5.875a3.62087,3.62087,0,0,1,1.48535.23047v1.55176a5.26057,5.26057,0,0,0-1.584-.23145c-1.84864,0-2.57422,1.22168-2.57422,4.05957v2.542h3.498v1.55078h-3.498v14.95117h-1.65039V273.55176Z"/><path class="cls-2" d="M359.02051,280.4502c.0332,4.25683,2.17871,6.89746,5.34668,6.89746a4.64644,4.64644,0,0,0,4.75293-3.10254h1.68359a6.32749,6.32749,0,0,1-6.502,4.65429c-5.01758,0-6.96485-4.32421-6.96485-8.51562,0-4.71973,2.34375-8.7793,7.16211-8.7793,5.083,0,6.7002,4.38965,6.7002,7.49219,0,.46191,0,.92383-.0332,1.35352Zm10.46289-1.45215c-.0332-3.26758-1.81543-5.84278-5.04981-5.84278-3.39941,0-4.95117,2.377-5.31445,5.84278Z"/><path class="cls-2" d="M375.751,280.4502c.0332,4.25683,2.17871,6.89746,5.34668,6.89746a4.64644,4.64644,0,0,0,4.75293-3.10254h1.68359a6.32749,6.32749,0,0,1-6.50195,4.65429c-5.01758,0-6.96485-4.32421-6.96485-8.51562,0-4.71973,2.34375-8.7793,7.16211-8.7793,5.083,0,6.7002,4.38965,6.7002,7.49219,0,.46191,0,.92383-.03321,1.35352Zm10.46289-1.45215c-.03321-3.26758-1.81543-5.84278-5.04981-5.84278-3.39941,0-4.95117,2.377-5.31445,5.84278Z"/><path class="cls-3" d="M208.54269,77.97148l9.104,123.065s36.02039,14.71079,75.031,0L293.91206,76.2868Z"/><path class="cls-4" d="M210.9708,114.99483l3.20558,43.33208s40.75085,13.60936,78.53143-.72787l.42158-42.60421S252.49988,121.21345,210.9708,114.99483Z"/><polyline class="cls-5" points="198 78.563 198 66.976 205.966 66.976 205.966 49.595 297.213 49.595 297.213 64.079 304.455 64.079 304.455 78.563"/><ellipse class="cls-6" cx="270.60387" cy="139.58015" rx="11.61745" ry="8.32062" transform="translate(19.31506 311.51913) rotate(-61.66618)"/><path class="cls-7" d="M265.8883,149.16274s-3.6289-7.16285,5.26948-9.77267,3.69269-9.93569,3.69269-9.93569"/><ellipse class="cls-6" cx="240.72542" cy="144.39891" rx="8.32062" ry="11.61745" transform="translate(15.03889 311.32812) rotate(-67.44591)"/><path class="cls-7" d="M230.71667,140.67231s6.761-4.33177,10.25365,4.25855,10.25705,2.67335,10.25705,2.67335"/></svg>