<svg id="Layer_1" data-name="Layer 1" xmlns="http://www.w3.org/2000/svg" viewBox="0 0 516.1 516.0011"><defs><style>.cls-1{fill:#93278f;}.cls-2,.cls-3{fill:#fff;}.cls-3,.cls-4{stroke:#fff;stroke-miterlimit:10;}.cls-3{stroke-width:5px;}.cls-4{fill:#814827;stroke-width:6px;}</style></defs><title>coffee4</title><path class="cls-1" d="M258,516C115.5,516,0,400.5,0,258A257.961,257.961,0,0,1,75.6,75.6c100.8-100.8,264.1-100.8,364.9,0s100.8,264.1,0,364.9A256.49776,256.49776,0,0,1,258,516Z"/><path class="cls-2" d="M258,.5C400.3.6,515.5,116,515.4,258.2a257.624,257.624,0,0,1-157.2,237C227.1,550.5,76.1,489,20.8,357.9-34.4,227,26.9,76,157.7,20.6A258.09883,258.09883,0,0,1,258,.5m0-1C115.2-.5-.5,115.2-.5,258S115.2,516.5,258,516.5,516.5,400.8,516.5,258,400.8-.5,258-.5Z"/><path class="cls-2" d="M116.915,251.23828c.75586,3.34766,2.9873,5.32813,7.12695,5.32813,4.60742,0,6.3711-2.30371,6.3711-5.04,0-2.84375-1.25977-4.60742-6.80274-5.97461-5.32812-1.332-7.63183-3.05957-7.63183-6.69531,0-3.31153,2.41211-6.40723,7.81152-6.40723,5.543,0,7.88281,3.3833,8.207,6.44336h-2.01562c-.57618-2.7002-2.33985-4.64356-6.29981-4.64356-3.63476,0-5.61523,1.69141-5.61523,4.499,0,2.77148,1.65625,3.85156,6.2998,5.0039,7.09082,1.76368,8.13477,4.60743,8.13477,7.63086,0,3.707-2.7002,6.91114-8.53125,6.91114-6.29883,0-8.60254-3.67188-9.07032-7.05567Z"/><path class="cls-2" d="M137.291,231.47705h1.7998v3.4917H137.291Zm0,8.53076h1.7998v17.998H137.291Z"/><path class="cls-2" d="M144.99414,244.544c0-1.584,0-3.09571-.03613-4.53614h1.76367c.07227.57617.1084,2.916.07227,3.41992a5.87833,5.87833,0,0,1,5.97558-3.85156c3.20313,0,6.04688,1.79981,6.04688,6.76758v11.66211H157.0166v-11.375c0-3.20313-1.332-5.291-4.46289-5.291-4.28418,0-5.75976,3.56348-5.75976,7.48731v9.17871h-1.79981Z"/><path class="cls-2" d="M178.47168,256.78223c0,5.75879-2.55566,8.78222-7.77441,8.78222-4.67969,0-6.62305-2.627-7.05567-5.36328h1.83594c.64844,2.48438,2.70019,3.67188,5.292,3.67188,4.67871,0,5.97461-3.02344,5.97461-7.59473v-1.87207c-.97168,2.33984-2.73535,3.59961-6.01074,3.59961-4.21192,0-7.45117-3.41992-7.45117-8.999,0-6.04688,3.45507-9.43067,7.70312-9.43067,3.6709,0,5.25488,1.72754,5.75879,3.168.03613-1.04394.07227-2.30371.1084-2.73633H178.544c0,.64844-.07227,3.49219-.07227,5.21973Zm-13.28223-7.84766c0,4.28418,2.26856,7.37988,5.72364,7.37988,4.499,0,5.86718-2.98828,5.86718-7.667,0-4.75195-1.43945-7.37988-5.75879-7.37988C166.88184,241.26758,165.18945,244.83105,165.18945,248.93457Z"/><path class="cls-2" d="M184.37793,258.00586V231.47705h1.7998v26.52881Z"/><path class="cls-2" d="M192.47656,249.22266c.03614,4.64355,2.376,7.52343,5.83106,7.52343a5.068,5.068,0,0,0,5.18359-3.38379h1.83594a6.90034,6.90034,0,0,1-7.09082,5.0752c-5.47168,0-7.5957-4.71484-7.5957-9.28613,0-5.14746,2.55566-9.5752,7.81152-9.5752,5.543,0,7.30664,4.78711,7.30664,8.1709,0,.50391,0,1.00781-.03613,1.47559Zm11.41114-1.584c-.03614-3.56347-1.98047-6.37109-5.50782-6.37109-3.707,0-5.39941,2.5918-5.79492,6.37109Z"/><path class="cls-2" d="M219.0791,247.92676v1.76367h-9.07031v-1.76367Z"/><path class="cls-2" d="M224.19238,253.03809c.61231,2.33984,2.26758,3.74414,5.11133,3.74414,3.2041,0,4.5-1.47559,4.5-3.49219,0-2.05176-.86426-3.05957-4.89551-4.03125-4.64355-1.11524-5.7959-2.51953-5.7959-4.89551,0-2.4834,1.87208-4.78711,5.93946-4.78711s6.01172,2.4834,6.2998,5.03906h-1.7998a4.24233,4.24233,0,0,0-4.57129-3.38281c-3.13184,0-4.03223,1.54688-4.03223,2.98731,0,1.65527.86426,2.4834,4.42774,3.34765,5.07519,1.22364,6.335,2.87989,6.335,5.5791,0,3.2754-2.66309,5.291-6.44336,5.291-4.10352,0-6.40723-2.15918-6.91113-5.39941Z"/><path class="cls-2" d="M240.57227,249.22266c.03613,4.64355,2.375,7.52343,5.83105,7.52343a5.06886,5.06886,0,0,0,5.18359-3.38379h1.835a6.89952,6.89952,0,0,1-7.09083,5.0752c-5.4707,0-7.59472-4.71484-7.59472-9.28613,0-5.14746,2.55566-9.5752,7.81055-9.5752,5.54394,0,7.30761,4.78711,7.30761,8.1709,0,.50391,0,1.00781-.03613,1.47559Zm11.41015-1.584c-.03613-3.56347-1.97949-6.37109-5.50683-6.37109-3.708,0-5.39942,2.5918-5.7959,6.37109Z"/><path class="cls-2" d="M258.24805,244.90332c0-3.02344-.03614-4.31934-.03614-4.89551h1.76368c.03613.57617.07226,1.72852.07226,4.03223a6.81748,6.81748,0,0,1,6.2627-4.46387v1.94336c-3.74317.25195-6.2627,2.84375-6.2627,7.12793v9.3584h-1.7998Z"/><path class="cls-2" d="M270.63184,240.00781c2.915,8.24317,4.93066,13.8584,5.61523,16.16211h.03516c.39648-1.332,2.41211-6.69531,5.90332-16.16211h1.9082l-6.80273,17.998h-2.16016l-6.40723-17.998Z"/><path class="cls-2" d="M288.01953,249.22266c.03613,4.64355,2.375,7.52343,5.83106,7.52343a5.06887,5.06887,0,0,0,5.18359-3.38379h1.835a6.89951,6.89951,0,0,1-7.09082,5.0752c-5.4707,0-7.59473-4.71484-7.59473-9.28613,0-5.14746,2.55567-9.5752,7.81055-9.5752,5.54395,0,7.30762,4.78711,7.30762,8.1709,0,.50391,0,1.00781-.03613,1.47559Zm11.41016-1.584c-.03614-3.56347-1.97949-6.37109-5.50684-6.37109-3.708,0-5.39941,2.5918-5.7959,6.37109Z"/><path class="cls-2" d="M328.30078,252.71484c-.86328,3.167-2.95117,5.72266-6.98242,5.72266-4.5,0-7.70313-3.34766-7.70313-9.3584,0-4.93164,2.62793-9.50293,7.91895-9.50293a6.43475,6.43475,0,0,1,6.7666,5.75977h-1.83594c-.53906-2.08789-1.90722-4.06836-4.96679-4.06836-3.81543,0-5.97559,3.24023-5.97559,7.73926,0,4.2832,2.01563,7.73925,5.7959,7.73925,2.627,0,4.21094-1.332,5.14648-4.03125Z"/><path class="cls-2" d="M347.23633,248.9707c0,5.00391-2.77246,9.4668-8.13574,9.4668-4.85938,0-7.88282-3.99512-7.88282-9.43066,0-5.14746,2.84375-9.43067,8.06348-9.43067C344.06836,239.57617,347.23633,243.31934,347.23633,248.9707Zm-14.11035.03614c0,4.2832,2.30371,7.73925,6.11914,7.73925,3.88769,0,6.083-3.2041,6.083-7.73925,0-4.24707-2.16016-7.73926-6.15528-7.73926C335.06934,241.26758,333.126,244.6875,333.126,249.00684Z"/><path class="cls-2" d="M354.25781,241.7002v16.30566H352.458V241.7002H349.3623v-1.69239H352.458v-2.4834c0-3.0957.68359-6.40722,4.71484-6.40722a3.93624,3.93624,0,0,1,1.62012.25195v1.6919a5.731,5.731,0,0,0-1.72754-.252c-2.01563,0-2.80762,1.33155-2.80762,4.42725v2.77148h7.23438v-2.4834c0-3.0957.75586-6.40722,4.71582-6.40722a3.93888,3.93888,0,0,1,1.62012.25195v1.6919a5.73723,5.73723,0,0,0-1.72852-.252c-2.01563,0-2.80762,1.33155-2.80762,4.42725v2.77148h3.81543v1.69239H363.292v16.30566h-1.7998V241.7002Z"/><path class="cls-2" d="M370.457,249.22266c.03613,4.64355,2.376,7.52343,5.83106,7.52343a5.06887,5.06887,0,0,0,5.18359-3.38379h1.83594a6.90075,6.90075,0,0,1-7.0918,5.0752c-5.4707,0-7.59473-4.71484-7.59473-9.28613,0-5.14746,2.55567-9.5752,7.81153-9.5752,5.543,0,7.30664,4.78711,7.30664,8.1709,0,.50391,0,1.00781-.03613,1.47559Zm11.41016-1.584c-.03614-3.56347-1.97949-6.37109-5.50684-6.37109-3.708,0-5.39941,2.5918-5.7959,6.37109Z"/><path class="cls-2" d="M388.709,249.22266c.03614,4.64355,2.376,7.52343,5.83106,7.52343a5.06886,5.06886,0,0,0,5.18359-3.38379h1.83594a6.90075,6.90075,0,0,1-7.0918,5.0752c-5.4707,0-7.59472-4.71484-7.59472-9.28613,0-5.14746,2.55566-9.5752,7.81152-9.5752,5.543,0,7.30664,4.78711,7.30664,8.1709,0,.50391,0,1.00781-.03613,1.47559Zm11.41016-1.584c-.03613-3.56347-1.97949-6.37109-5.50684-6.37109-3.708,0-5.39941,2.5918-5.79589,6.37109Z"/><path class="cls-2" d="M128.29,298.542v9.86328h-1.79981V287.63574c0-1.47558,0-3.05957-.03613-4.42773h1.76367c.07227.68457.07227,1.76367.07227,3.24023a6.61187,6.61187,0,0,1,6.335-3.67187c4.24805,0,7.19922,3.56347,7.19922,8.96289,0,6.47949-3.45508,9.89844-7.81055,9.89844C130.8457,301.6377,129.19043,300.23438,128.29,298.542Zm11.62695-6.73047c0-4.17578-2.01562-7.30761-5.5791-7.30761-4.35547,0-6.15527,2.73632-6.15527,7.63086,0,4.82421,1.40332,7.81152,5.90332,7.81152C137.8291,299.94629,139.917,296.77832,139.917,291.81152Z"/><path class="cls-2" d="M146.32617,288.10352c0-3.02344-.03613-4.31934-.03613-4.89551h1.76367c.03613.57617.07227,1.72851.07227,4.03222a6.81773,6.81773,0,0,1,6.26367-4.46386v1.94336c-3.74414.25195-6.26367,2.84375-6.26367,7.12793v9.35839h-1.79981Z"/><path class="cls-2" d="M172.28027,292.1709c0,5.0039-2.77148,9.4668-8.13476,9.4668-4.85938,0-7.88379-3.99512-7.88379-9.43067,0-5.14746,2.84375-9.43066,8.06348-9.43066C169.1123,282.77637,172.28027,286.51953,172.28027,292.1709Zm-14.11035.03613c0,4.2832,2.30371,7.73926,6.11914,7.73926,3.8877,0,6.083-3.2041,6.083-7.73926,0-4.24707-2.15918-7.73926-6.15527-7.73926C160.11328,284.46777,158.16992,287.8877,158.16992,292.207Z"/><path class="cls-2" d="M190.85547,274.67773v21.34473c0,1.72754,0,3.38379.03613,5.18359h-1.72754c-.07226-.43164-.1084-2.124-.1084-3.02343-.89941,2.19531-2.915,3.45508-6.04687,3.45508-4.67969,0-7.48731-3.81543-7.48731-9.21485,0-5.543,3.05957-9.64648,7.95508-9.64648,3.59961,0,5.04,1.54785,5.5791,2.69922V274.67773Zm-13.42578,17.67383c0,4.93067,2.55566,7.59473,5.65136,7.59473,4.751,0,6.04688-3.27539,6.04688-8.1709,0-4.64355-1.11523-7.30762-5.72266-7.30762C179.84082,284.46777,177.42969,287.31152,177.42969,292.35156Z"/><path class="cls-2" d="M210.22363,295.95117c0,1.76367.03614,4.57129.03614,5.25488h-1.72754a28.82208,28.82208,0,0,1-.1084-3.13183c-.75586,2.124-2.5918,3.56348-5.79492,3.56348-2.5918,0-5.90332-1.00782-5.90332-6.51465V283.208h1.76367v11.48242c0,2.62793.82812,5.18359,4.3916,5.18359,4.03125,0,5.543-2.26757,5.543-7.415v-9.251h1.7998Z"/><path class="cls-2" d="M229.375,295.915c-.86328,3.167-2.95117,5.72266-6.98242,5.72266-4.5,0-7.70313-3.34766-7.70313-9.3584,0-4.93164,2.62793-9.50293,7.91895-9.50293a6.434,6.434,0,0,1,6.7666,5.75879H227.54c-.54-2.08692-1.9082-4.06739-4.96777-4.06739-3.81543,0-5.97559,3.24024-5.97559,7.73926,0,4.2832,2.0166,7.73926,5.7959,7.73926,2.62695,0,4.21094-1.332,5.14746-4.03125Z"/><path class="cls-2" d="M234.12793,292.42285c.03613,4.64356,2.376,7.52344,5.83105,7.52344a5.068,5.068,0,0,0,5.1836-3.38379h1.83594a6.90035,6.90035,0,0,1-7.09082,5.0752c-5.47168,0-7.59571-4.71485-7.59571-9.28614,0-5.14746,2.55567-9.57519,7.81153-9.57519,5.543,0,7.30664,4.78711,7.30664,8.1709,0,.5039,0,1.00781-.03614,1.47558Zm11.41113-1.583c-.03613-3.56445-1.98047-6.37207-5.50781-6.37207-3.707,0-5.39941,2.5918-5.79492,6.37207Z"/><path class="cls-2" d="M264.9082,301.20605v-21.417a16.10772,16.10772,0,0,1-5.32812,2.77149v-1.69239a19.64227,19.64227,0,0,0,5.65137-3.52734h1.54785v23.86523Z"/><path class="cls-2" d="M288.125,289.18359c0,5.43555-1.40332,12.45411-7.73828,12.45411-6.15527,0-7.70313-6.44336-7.70313-12.27442,0-5.79492,1.65528-12.27441,7.81055-12.27441C286.68555,277.08887,288.125,283.56836,288.125,289.18359Zm-13.42578.21582c0,4.60743.97168,10.51075,5.6875,10.51075,4.82324,0,5.75879-5.65137,5.75879-10.72657,0-4.53515-.93555-10.36718-5.61524-10.36718C275.63477,278.81641,274.69922,284.14453,274.69922,289.39941Z"/><path class="cls-2" d="M292.73535,283.208c2.98731,4.42773,4.2832,6.40722,5.00293,7.4873h.03613c.86426-1.22363,2.66407-3.81543,5.25586-7.4873H305.082l-6.26367,8.71094,6.37109,9.2871h-2.15918c-2.59179-3.85156-4.46386-6.58691-5.32714-7.84667H297.667c-.68457,1.04394-2.30371,3.49121-5.25586,7.84667h-2.08789l6.37207-9.14257-6.084-8.85547Z"/><path class="cls-2" d="M317.71777,287.85156c0-1.54785,0-3.23926-.03515-4.64355h1.76367c.03613.6123.10742,2.16015.07129,3.2041a5.62978,5.62978,0,0,1,5.39941-3.63574,5.10834,5.10834,0,0,1,5.21973,3.56347,6.12325,6.12325,0,0,1,5.86719-3.56347c2.77148,0,5.65136,1.584,5.65136,6.58691v11.84277h-1.7998v-11.627c0-2.41113-.86426-5.03906-4.21192-5.03906-3.49121,0-5.07519,2.80762-5.07519,6.2998v10.36621h-1.76367V289.61523c0-2.627-.792-5.07519-4.10352-5.07519-3.49121,0-5.18359,3.0957-5.18359,6.76758v9.89843h-1.79981Z"/><path class="cls-2" d="M362.14063,292.1709c0,5.0039-2.77247,9.4668-8.13575,9.4668-4.85937,0-7.88281-3.99512-7.88281-9.43067,0-5.14746,2.84375-9.43066,8.06348-9.43066C358.97266,282.77637,362.14063,286.51953,362.14063,292.1709Zm-14.11036.03613c0,4.2832,2.30371,7.73926,6.11914,7.73926,3.8877,0,6.083-3.2041,6.083-7.73926,0-4.24707-2.16015-7.73926-6.15527-7.73926C349.97363,284.46777,348.03027,287.8877,348.03027,292.207Z"/><path class="cls-2" d="M366.60547,288.10352c0-3.02344-.03516-4.31934-.03516-4.89551H368.334c.03614.57617.07129,1.72851.07129,4.03222a6.81775,6.81775,0,0,1,6.26368-4.46386v1.94336c-3.74317.25195-6.26368,2.84375-6.26368,7.12793v9.35839h-1.7998Z"/><path class="cls-2" d="M378.37793,292.42285c.03613,4.64356,2.376,7.52344,5.83105,7.52344a5.06888,5.06888,0,0,0,5.1836-3.38379h1.83594a6.90075,6.90075,0,0,1-7.0918,5.0752c-5.4707,0-7.59473-4.71485-7.59473-9.28614,0-5.14746,2.55567-9.57519,7.81153-9.57519,5.543,0,7.30664,4.78711,7.30664,8.1709,0,.5039,0,1.00781-.03614,1.47558Zm11.41016-1.583c-.03614-3.56445-1.9795-6.37207-5.50684-6.37207-3.708,0-5.39941,2.5918-5.79492,6.37207Z"/><path class="cls-2" d="M164.70313,326.4082c2.66406,9.28711,4.21191,14.61426,4.499,16.19825h.03613c.28809-1.43946,2.08789-7.09082,4.89551-16.19825h1.94434c3.34765,11.123,4.35546,14.32618,4.67871,15.73047h.03613c.50391-1.97949,1.332-4.67969,4.64355-15.73047h1.90821l-5.6875,17.998h-1.9795c-1.94433-6.37109-4.28418-14.18262-4.64355-15.83789h-.03613c-.36035,1.76367-2.41211,8.207-4.752,15.83789h-2.15918l-5.291-17.998Z"/><path class="cls-2" d="M203.14941,340.98633a20.533,20.533,0,0,0,.252,3.41992h-1.72754a11.801,11.801,0,0,1-.32422-2.77148c-.61231,1.332-2.19531,3.20312-5.90332,3.20312-4.17578,0-5.97559-2.69922-5.97559-5.39941,0-3.959,3.05957-5.75879,8.459-5.75879h3.41992v-1.83594c0-1.7998-.54-4.21094-4.64356-4.21094-3.63574,0-4.17578,1.90723-4.57128,3.38282H190.335c.21582-1.9795,1.43945-5.03907,6.40723-5.03907,4.10351,0,6.40722,1.72754,6.40722,5.6875Zm-1.76367-5.75879H197.8584c-3.9961,0-6.47949,1.04394-6.47949,4.13965,0,2.26758,1.62011,3.81543,4.13964,3.81543,5.14747,0,5.86719-3.41992,5.86719-7.30762Z"/><path class="cls-2" d="M208.91113,339.43848c.61231,2.33984,2.26758,3.74414,5.11133,3.74414,3.2041,0,4.5-1.47559,4.5-3.49219,0-2.05176-.86426-3.05957-4.89551-4.03125-4.64355-1.11523-5.7959-2.51953-5.7959-4.89551,0-2.4834,1.87208-4.78711,5.93946-4.78711s6.01172,2.4834,6.2998,5.03907h-1.7998a4.24233,4.24233,0,0,0-4.57129-3.38282c-3.13184,0-4.03223,1.54688-4.03223,2.98731,0,1.65527.86426,2.4834,4.42774,3.34765,5.07519,1.22364,6.335,2.87989,6.335,5.57911,0,3.27539-2.66309,5.291-6.44336,5.291-4.10352,0-6.40723-2.15918-6.91113-5.39941Z"/><path class="cls-2" d="M222.08789,326.4082h3.34766V320.793h1.7998v5.61523h4.2832v1.69239h-4.2832v11.69824c0,2.01562.43164,3.168,2.15918,3.168a6.78277,6.78277,0,0,0,1.87207-.2168v1.584a6.32043,6.32043,0,0,1-2.23144.32422c-2.30371,0-3.59961-1.15136-3.59961-4.03125V328.10059h-3.34766Z"/><path class="cls-2" d="M235.37109,335.62305c.03614,4.64355,2.375,7.52343,5.83106,7.52343a5.06887,5.06887,0,0,0,5.18359-3.38378h1.835a6.89951,6.89951,0,0,1-7.09082,5.07519c-5.4707,0-7.59472-4.71484-7.59472-9.28613,0-5.14746,2.55566-9.5752,7.81054-9.5752,5.54395,0,7.30762,4.78711,7.30762,8.1709,0,.50391,0,1.00781-.03613,1.47559Zm11.41016-1.584c-.03613-3.56347-1.97949-6.37109-5.50684-6.37109-3.708,0-5.39941,2.5918-5.79589,6.37109Z"/><path class="cls-2" d="M259.707,326.4082h3.34766V320.793h1.7998v5.61523h4.28321v1.69239h-4.28321v11.69824c0,2.01562.43164,3.168,2.15918,3.168a6.78277,6.78277,0,0,0,1.87207-.2168v1.584a6.32043,6.32043,0,0,1-2.23144.32422c-2.30371,0-3.59961-1.15136-3.59961-4.03125V328.10059H259.707Z"/><path class="cls-2" d="M274.502,317.87793v11.55371a6.27839,6.27839,0,0,1,5.93946-3.45508c2.55566,0,6.083,1.2959,6.083,6.9834v11.44629h-1.7998V333.31934c0-3.56348-1.61914-5.57911-4.60742-5.57911-3.56348,0-5.61524,2.19629-5.61524,6.623v10.043h-1.7998V317.87793Z"/><path class="cls-2" d="M304.56055,340.98633a20.53326,20.53326,0,0,0,.252,3.41992H303.085a11.801,11.801,0,0,1-.32422-2.77148c-.6123,1.332-2.19531,3.20312-5.90332,3.20312-4.17578,0-5.97558-2.69922-5.97558-5.39941,0-3.959,3.05957-5.75879,8.459-5.75879h3.41992v-1.83594c0-1.7998-.54-4.21094-4.64355-4.21094-3.63574,0-4.17578,1.90723-4.57129,3.38282h-1.79981c.21582-1.9795,1.43946-5.03907,6.40723-5.03907,4.10352,0,6.40723,1.72754,6.40723,5.6875Zm-1.76367-5.75879h-3.52735c-3.99609,0-6.47949,1.04394-6.47949,4.13965,0,2.26758,1.62012,3.81543,4.13965,3.81543,5.14746,0,5.86719-3.41992,5.86719-7.30762Z"/><path class="cls-2" d="M310.502,330.94434c0-1.584,0-3.09571-.03613-4.53614h1.76367c.07227.57618.1084,2.916.07227,3.41993a5.87787,5.87787,0,0,1,5.97461-3.85157c3.2041,0,6.04687,1.79981,6.04687,6.76758v11.66211h-1.7998v-11.375c0-3.20312-1.33106-5.291-4.46289-5.291-4.28321,0-5.75879,3.56348-5.75879,7.48731v9.17871H310.502Z"/><path class="cls-2" d="M351.93555,340.98633a20.64348,20.64348,0,0,0,.252,3.41992H350.46a11.85762,11.85762,0,0,1-.32422-2.77148c-.61133,1.332-2.19531,3.20312-5.90332,3.20312-4.1748,0-5.97461-2.69922-5.97461-5.39941,0-3.959,3.05957-5.75879,8.459-5.75879h3.41894v-1.83594c0-1.7998-.54-4.21094-4.64355-4.21094-3.63477,0-4.17481,1.90723-4.57129,3.38282h-1.79981c.21582-1.9795,1.44043-5.03907,6.40723-5.03907,4.10352,0,6.40723,1.72754,6.40723,5.6875Zm-1.76367-5.75879h-3.52735c-3.99512,0-6.47949,1.04394-6.47949,4.13965,0,2.26758,1.62012,3.81543,4.13965,3.81543,5.14746,0,5.86719-3.41992,5.86719-7.30762Z"/><path class="cls-2" d="M148.32129,361.07715v21.34473c0,1.72851,0,3.38378.03613,5.18359h-1.72754c-.07226-.43164-.1084-2.124-.1084-3.02344-.89941,2.19531-2.915,3.45508-6.04687,3.45508-4.67969,0-7.48731-3.81543-7.48731-9.21484,0-5.543,3.05958-9.64649,7.95508-9.64649,3.59961,0,5.04,1.54785,5.5791,2.69922V361.07715ZM134.89551,378.751c0,4.93066,2.55566,7.59472,5.65137,7.59472,4.751,0,6.04687-3.27539,6.04687-8.1709,0-4.64355-1.11523-7.30761-5.72266-7.30761C137.30664,370.86719,134.89551,373.71094,134.89551,378.751Z"/><path class="cls-2" d="M154.22754,374.50293c0-3.02344-.03613-4.31934-.03613-4.89551h1.76367c.03613.57617.07226,1.72852.07226,4.03223a6.81748,6.81748,0,0,1,6.2627-4.46387v1.94336c-3.74316.25195-6.2627,2.84375-6.2627,7.12793v9.3584h-1.7998Z"/><path class="cls-2" d="M165.60254,361.07715h1.7998v3.49121h-1.7998Zm0,8.53027h1.7998v17.99805h-1.7998Z"/><path class="cls-2" d="M175.10645,384.94141v9.86328h-1.79981V374.03516c0-1.47559,0-3.05957-.03613-4.42774h1.76367c.07227.68457.07227,1.76367.07227,3.24024a6.61087,6.61087,0,0,1,6.335-3.67188c4.24707,0,7.19922,3.56348,7.19922,8.96289,0,6.47949-3.45606,9.89844-7.81153,9.89844C177.66211,388.03711,176.00586,386.63379,175.10645,384.94141Zm11.626-6.73047c0-4.17578-2.01562-7.30762-5.5791-7.30762-4.35547,0-6.15527,2.73633-6.15527,7.63086,0,4.82422,1.40429,7.81152,5.90332,7.81152C184.64453,386.3457,186.73242,383.17773,186.73242,378.21094Z"/><path class="cls-2" d="M215.74805,382.31445c-.86328,3.167-2.95117,5.72266-6.98242,5.72266-4.5,0-7.70313-3.34766-7.70313-9.3584,0-4.93164,2.62793-9.50293,7.91895-9.50293a6.43407,6.43407,0,0,1,6.7666,5.75977h-1.835c-.54-2.08789-1.90821-4.06836-4.96778-4.06836-3.81543,0-5.97558,3.24023-5.97558,7.73926,0,4.2832,2.0166,7.73925,5.7959,7.73925,2.627,0,4.21093-1.332,5.14746-4.03125Z"/><path class="cls-2" d="M234.68359,378.57031c0,5.00391-2.77148,9.4668-8.13476,9.4668-4.85938,0-7.88379-3.99512-7.88379-9.43066,0-5.14747,2.84375-9.43067,8.06348-9.43067C231.51563,369.17578,234.68359,372.919,234.68359,378.57031Zm-14.11035.03614c0,4.2832,2.30371,7.73925,6.11914,7.73925,3.8877,0,6.083-3.2041,6.083-7.73925,0-4.24707-2.15918-7.73926-6.15527-7.73926C222.5166,370.86719,220.57324,374.28711,220.57324,378.60645Z"/><path class="cls-2" d="M241.70508,371.2998v16.30567h-1.79981V371.2998h-3.0957v-1.69238h3.0957V367.124c0-3.0957.6836-6.40722,4.71485-6.40722a3.93619,3.93619,0,0,1,1.62011.252v1.69141a5.74635,5.74635,0,0,0-1.72753-.252c-2.01563,0-2.80762,1.332-2.80762,4.42774v2.77148h7.23535V367.124c0-3.0957.75586-6.40722,4.71484-6.40722a3.93624,3.93624,0,0,1,1.62012.252v1.69141a5.74641,5.74641,0,0,0-1.72754-.252c-2.0166,0-2.80762,1.332-2.80762,4.42774v2.77148h3.81543v1.69238h-3.81543v16.30567h-1.7998V371.2998Z"/><path class="cls-2" d="M257.90527,378.82227c.03614,4.64355,2.375,7.52343,5.83106,7.52343a5.06887,5.06887,0,0,0,5.18359-3.38379h1.835a6.8995,6.8995,0,0,1-7.09082,5.0752c-5.4707,0-7.59472-4.71484-7.59472-9.28613,0-5.14746,2.55566-9.5752,7.81054-9.5752,5.54395,0,7.30762,4.78711,7.30762,8.1709,0,.50391,0,1.00781-.03613,1.47559Zm11.41016-1.584c-.03613-3.56348-1.97949-6.37109-5.50684-6.37109-3.708,0-5.39941,2.59179-5.79589,6.37109Z"/><path class="cls-2" d="M276.15625,378.82227c.03613,4.64355,2.376,7.52343,5.83105,7.52343a5.068,5.068,0,0,0,5.1836-3.38379h1.83594a6.90035,6.90035,0,0,1-7.09082,5.0752c-5.47168,0-7.59571-4.71484-7.59571-9.28613,0-5.14746,2.55567-9.5752,7.81153-9.5752,5.543,0,7.30664,4.78711,7.30664,8.1709,0,.50391,0,1.00781-.03614,1.47559Zm11.41113-1.584c-.03613-3.56348-1.98047-6.37109-5.50781-6.37109-3.707,0-5.39941,2.59179-5.79492,6.37109Z"/><path class="cls-2" d="M303.19238,374.251c0-1.54785,0-3.23926-.03613-4.64356h1.76367c.03613.61231.1084,2.16016.07227,3.2041a5.6288,5.6288,0,0,1,5.39941-3.63574,5.10793,5.10793,0,0,1,5.21875,3.56348,6.12427,6.12427,0,0,1,5.86719-3.56348c2.77148,0,5.65137,1.584,5.65137,6.58692v11.84277H325.3291v-11.627c0-2.41114-.86426-5.03907-4.21191-5.03907-3.49121,0-5.07422,2.80762-5.07422,6.29883v10.36719h-1.76465V376.01465c0-2.627-.792-5.0752-4.10352-5.0752-3.49121,0-5.18261,3.09571-5.18261,6.76758v9.89844h-1.79981Z"/><path class="cls-2" d="M345.166,384.18555a20.64348,20.64348,0,0,0,.252,3.41992h-1.72754a11.85765,11.85765,0,0,1-.32422-2.77149c-.61133,1.332-2.19531,3.20313-5.90332,3.20313-4.1748,0-5.97461-2.69922-5.97461-5.39941,0-3.959,3.05957-5.75879,8.459-5.75879h3.41894V375.043c0-1.79981-.54-4.21094-4.64355-4.21094-3.63477,0-4.17481,1.90723-4.57129,3.38281h-1.79981c.21582-1.97949,1.44043-5.03906,6.40723-5.03906,4.10351,0,6.40723,1.72754,6.40723,5.6875Zm-1.76368-5.75879H339.875c-3.99512,0-6.47949,1.04394-6.47949,4.13965,0,2.26757,1.62012,3.81543,4.13965,3.81543,5.14746,0,5.86718-3.41993,5.86718-7.30762Z"/><path class="cls-2" d="M352.90723,378.89453c1.65625-1.76367,6.69531-6.875,9.10742-9.28711h2.30371l-7.12695,7.16309,8.02636,10.835h-2.23144l-7.09082-9.68262-2.98828,2.87988v6.80274h-1.79981V361.07715h1.79981Z"/><path class="cls-2" d="M368.13574,378.82227c.03614,4.64355,2.376,7.52343,5.83106,7.52343a5.06887,5.06887,0,0,0,5.18359-3.38379h1.83594a6.90075,6.90075,0,0,1-7.0918,5.0752c-5.4707,0-7.59473-4.71484-7.59473-9.28613,0-5.14746,2.55567-9.5752,7.81153-9.5752,5.543,0,7.30664,4.78711,7.30664,8.1709,0,.50391,0,1.00781-.03613,1.47559Zm11.41016-1.584c-.03613-3.56348-1.97949-6.37109-5.50684-6.37109-3.708,0-5.39941,2.59179-5.79492,6.37109Z"/><path class="cls-2" d="M385.81152,374.50293c0-3.02344-.03515-4.31934-.03515-4.89551H387.54c.03613.57617.07129,1.72852.07129,4.03223a6.81774,6.81774,0,0,1,6.26367-4.46387v1.94336c-3.74316.25195-6.26367,2.84375-6.26367,7.12793v9.3584h-1.79981Z"/><path class="cls-3" d="M263.14936,125.559c-17.20821.47249-37.58275-3.11126-59.44809-15.32367,0,0-11.55158,90.48995,55.80094,80.32254"/><path class="cls-3" d="M243.63219,125.559c20.33972.47249,44.422-3.11126,70.26635-15.32367,0,0,13.65372,90.48995-65.9555,80.32254"/><ellipse class="cls-4" cx="258.86847" cy="108.20183" rx="55.92075" ry="17.2846"/><path class="cls-2" d="M318.10005,134.10333c5.13641-5.38642,10.46863-7.6006,16.30093-2.00343,4.0126,3.85084,8.7634,9.19216,8.5685,15.12453-.22055,6.71331-6.28689,7.545-11.78324,7.5009A141.30033,141.30033,0,0,1,308.27,152.4676c-7.49388-1.29846-10.71239,10.17324-3.16515,11.481,11.02836,1.91088,23.97582,4.45731,35.07183,1.84051,9.99328-2.35674,15.70963-11.51911,14.50139-21.53948-1.16369-9.65094-8.7076-19.302-16.6892-24.56642-9.81025-6.4706-20.91817-1.74815-28.30782,6.00118-5.28773,5.54511,3.11829,13.97771,8.419,8.419Z"/></svg>