<svg id="Layer_1" data-name="Layer 1" xmlns="http://www.w3.org/2000/svg" viewBox="0 0 517 517"><defs><style>.cls-1{fill:#2e3192;}.cls-2{fill:#fff;}.cls-3{fill:#27b8cf;}.cls-4{fill:#766f41;}.cls-5{fill:#9cb66f;}.cls-6{fill:#9bb56e;}</style></defs><title>coffee3</title><path class="cls-1" d="M260.5,516.5c-142.5,0-258-115.5-258-258A257.961,257.961,0,0,1,78.1,76.1C178.9-24.7,342.2-24.7,443,76.1S543.8,340.2,443,441A256.49775,256.49775,0,0,1,260.5,516.5Z"/><path class="cls-2" d="M90.0918,265.39941h8.25146c4.22461,0,7.12891,2.34375,7.12891,6.43653,0,4.1582-2.87158,6.60058-7.36035,6.60058H91.90723v10.06641H90.0918Zm1.81543,11.38672h6.36963c3.73,0,5.28076-1.98047,5.28076-4.88476,0-3.10254-2.0459-4.85157-5.14844-4.85157h-6.502Z"/><path class="cls-2" d="M109.03418,276.48926c0-2.77246-.0332-3.96094-.0332-4.48828h1.61718c.03321.52734.06592,1.584.06592,3.69629a6.2524,6.2524,0,0,1,5.74317-4.09278v1.78223c-3.43262.23144-5.74317,2.60742-5.74317,6.53516v8.58105h-1.6499Z"/><path class="cls-2" d="M132.8291,280.21875c0,4.58789-2.5415,8.68066-7.459,8.68066-4.45557,0-7.228-3.66406-7.228-8.64746,0-4.71972,2.60742-8.64746,7.39307-8.64746C129.9248,271.60449,132.8291,275.03711,132.8291,280.21875Zm-12.938.0332c0,3.92774,2.11231,7.09571,5.61084,7.09571,3.56446,0,5.57813-2.9375,5.57813-7.09571,0-3.89453-1.98047-7.09668-5.644-7.09668C121.67334,273.15527,119.89111,276.291,119.89111,280.252Z"/><path class="cls-2" d="M149.26221,283.65137c-.792,2.90429-2.70655,5.248-6.40283,5.248-4.12549,0-7.063-3.07031-7.063-8.582,0-4.52148,2.40918-8.71289,7.26123-8.71289a5.90048,5.90048,0,0,1,6.20459,5.28028H147.5791a4.4594,4.4594,0,0,0-4.55469-3.7295c-3.49853,0-5.479,2.97071-5.479,7.09668,0,3.92774,1.84863,7.09571,5.314,7.09571,2.40917,0,3.86132-1.22071,4.71972-3.69629Z"/><path class="cls-2" d="M153.61621,280.4502c.0332,4.25683,2.17822,6.89746,5.34668,6.89746a4.64689,4.64689,0,0,0,4.75293-3.10254h1.68311a6.32709,6.32709,0,0,1-6.502,4.65429c-5.0166,0-6.96386-4.32421-6.96386-8.51562,0-4.71973,2.34326-8.7793,7.1621-8.7793,5.08252,0,6.69971,4.38965,6.69971,7.49219,0,.46191,0,.92383-.03271,1.35352Zm10.4624-1.45215c-.03271-3.26758-1.81494-5.84278-5.04931-5.84278-3.39991,0-4.95069,2.377-5.314,5.84278Z"/><path class="cls-2" d="M170.21484,283.94824a4.37029,4.37029,0,0,0,4.68653,3.43262c2.9375,0,4.12549-1.35352,4.12549-3.20117,0-1.88184-.792-2.80567-4.48877-3.69727-4.25733-1.02246-5.31348-2.30957-5.31348-4.48828,0-2.27734,1.71631-4.38965,5.4458-4.38965s5.51172,2.27735,5.77588,4.6211H178.7959a3.88962,3.88962,0,0,0-4.19141-3.10254c-2.87158,0-3.69678,1.41894-3.69678,2.73925,0,1.51758.792,2.27735,4.05958,3.06934,4.6538,1.12207,5.80908,2.64063,5.80908,5.11524,0,3.0039-2.44239,4.85253-5.90821,4.85253-3.7622,0-5.87451-1.98046-6.33691-4.95117Z"/><path class="cls-2" d="M185.26221,283.94824a4.37027,4.37027,0,0,0,4.68652,3.43262c2.9375,0,4.12549-1.35352,4.12549-3.20117,0-1.88184-.792-2.80567-4.48877-3.69727-4.25732-1.02246-5.31348-2.30957-5.31348-4.48828,0-2.27734,1.71631-4.38965,5.4458-4.38965s5.51172,2.27735,5.77588,4.6211h-1.65039a3.88961,3.88961,0,0,0-4.1914-3.10254c-2.87159,0-3.69678,1.41894-3.69678,2.73925,0,1.51758.792,2.27735,4.05957,3.06934,4.65381,1.12207,5.80908,2.64063,5.80908,5.11524,0,3.0039-2.44238,4.85253-5.9082,4.85253-3.76221,0-5.87451-1.98046-6.33692-4.95117Z"/><path class="cls-2" d="M199.91357,264.17871h1.64991v3.20117h-1.64991Zm0,7.82227h1.64991v16.50195h-1.64991Z"/><path class="cls-2" d="M206.97559,276.15918c0-1.45215,0-2.83887-.03321-4.1582h1.61719c.06592.52734.09912,2.67285.06592,3.13476a5.3909,5.3909,0,0,1,5.479-3.53125c2.9375,0,5.54492,1.65039,5.54492,6.20508v10.69336H217.999V278.07324c0-2.9375-1.22119-4.85156-4.09277-4.85156-3.92725,0-5.28076,3.26758-5.28076,6.86523v8.416h-1.6499Z"/><path class="cls-2" d="M237.667,287.38086c0,5.28027-2.34375,8.05273-7.12939,8.05273-4.29053,0-6.07276-2.40918-6.46875-4.917h1.6831c.59424,2.27735,2.47559,3.36621,4.85157,3.36621,4.291,0,5.479-2.77246,5.479-6.96386v-1.7168c-.89111,2.14551-2.5083,3.30078-5.51172,3.30078-3.86182,0-6.832-3.13574-6.832-8.251,0-5.54492,3.16846-8.64746,7.063-8.64746,3.3667,0,4.81885,1.584,5.28076,2.9043.0332-.957.06592-2.11231.09912-2.50781h1.55127c0,.59375-.06592,3.20117-.06592,4.78515Zm-12.1792-7.19531c0,3.92773,2.07959,6.7666,5.24805,6.7666,4.12549,0,5.37988-2.74024,5.37988-7.03027,0-4.35645-1.32031-6.76661-5.28076-6.76661C227.03906,273.15527,225.48779,276.42285,225.48779,280.18555Z"/><path class="cls-2" d="M263.80273,283.65137c-.793,2.90429-2.707,5.248-6.40332,5.248-4.12548,0-7.063-3.07031-7.063-8.582,0-4.52148,2.40918-8.71289,7.26123-8.71289a5.901,5.901,0,0,1,6.20507,5.28028h-1.68359a4.45977,4.45977,0,0,0-4.55469-3.7295c-3.49853,0-5.479,2.97071-5.479,7.09668,0,3.92774,1.84863,7.09571,5.314,7.09571,2.40918,0,3.86133-1.22071,4.71973-3.69629Z"/><path class="cls-2" d="M281.16016,280.21875c0,4.58789-2.542,8.68066-7.459,8.68066-4.45605,0-7.22851-3.66406-7.22851-8.64746,0-4.71972,2.60742-8.64746,7.39257-8.64746C278.25586,271.60449,281.16016,275.03711,281.16016,280.21875Zm-12.93848.0332c0,3.92774,2.1123,7.09571,5.61035,7.09571,3.56445,0,5.57813-2.9375,5.57813-7.09571,0-3.89453-1.98047-7.09668-5.64356-7.09668C270.00391,273.15527,268.22168,276.291,268.22168,280.252Z"/><path class="cls-2" d="M287.59277,273.55176v14.95117h-1.65039V273.55176h-2.83886V272.001h2.83886v-2.27735c0-2.83886.62793-5.875,4.32325-5.875a3.62294,3.62294,0,0,1,1.48632.23047v1.55176a5.27126,5.27126,0,0,0-1.585-.23145c-1.84863,0-2.57422,1.22168-2.57422,4.05957v2.542h6.63379v-2.27735c0-2.83886.69336-5.875,4.32422-5.875a3.61622,3.61622,0,0,1,1.48438.23047v1.55176a5.25177,5.25177,0,0,0-1.584-.23145c-1.84765,0-2.57422,1.22168-2.57422,4.05957v2.542h3.498v1.55078h-3.498v14.95117h-1.65039V273.55176Z"/><path class="cls-2" d="M302.44238,280.4502c.03321,4.25683,2.17871,6.89746,5.34668,6.89746a4.64734,4.64734,0,0,0,4.75293-3.10254h1.68262a6.32582,6.32582,0,0,1-6.50195,4.65429c-5.01563,0-6.96289-4.32421-6.96289-8.51562,0-4.71973,2.34277-8.7793,7.16211-8.7793,5.082,0,6.69921,4.38965,6.69921,7.49219,0,.46191,0,.92383-.0332,1.35352Zm10.46192-1.45215c-.03223-3.26758-1.81446-5.84278-5.04883-5.84278-3.40039,0-4.95117,2.377-5.31445,5.84278Z"/><path class="cls-2" d="M319.17285,280.4502c.0332,4.25683,2.17871,6.89746,5.34668,6.89746a4.64644,4.64644,0,0,0,4.75293-3.10254h1.68359a6.32748,6.32748,0,0,1-6.502,4.65429c-5.01758,0-6.96484-4.32421-6.96484-8.51562,0-4.71973,2.34375-8.7793,7.16211-8.7793,5.083,0,6.70019,4.38965,6.70019,7.49219,0,.46191,0,.92383-.0332,1.35352Zm10.46289-1.45215c-.0332-3.26758-1.81543-5.84278-5.0498-5.84278-3.39942,0-4.95117,2.377-5.31446,5.84278Z"/><path class="cls-2" d="M343.95508,264.17871h1.65039v10.59473c.792-1.65039,2.40918-3.16895,5.64355-3.16895,3.89453,0,6.76661,3.20117,6.76661,8.28418,0,5.21485-2.57422,9.01074-7.19532,9.01074-2.77246,0-4.35644-1.123-5.21484-3.0039,0,1.05664-.0332,2.14551-.06543,2.60742h-1.61719c.03223-1.88086.03223-3.7627.03223-5.64355Zm12.31152,15.74317c0-4.126-2.04687-6.76661-5.18262-6.76661-4.125,0-5.57714,2.80567-5.57714,7.12989,0,3.89453,1.28711,7.0625,5.37988,7.0625C354.21973,287.34766,356.2666,284.5752,356.2666,279.92188Z"/><path class="cls-2" d="M362.666,280.4502c.0332,4.25683,2.17871,6.89746,5.34668,6.89746a4.64644,4.64644,0,0,0,4.75293-3.10254h1.68359a6.32749,6.32749,0,0,1-6.502,4.65429c-5.01758,0-6.96485-4.32421-6.96485-8.51562,0-4.71973,2.34375-8.7793,7.16211-8.7793,5.083,0,6.7002,4.38965,6.7002,7.49219,0,.46191,0,.92383-.03321,1.35352Zm10.46289-1.45215c-.03321-3.26758-1.81543-5.84278-5.04981-5.84278-3.39941,0-4.95117,2.377-5.31347,5.84278Z"/><path class="cls-2" d="M390.19043,285.36719a18.9325,18.9325,0,0,0,.23047,3.13574h-1.584a10.82763,10.82763,0,0,1-.29687-2.541c-.56152,1.22071-2.01367,2.9375-5.41309,2.9375-3.82812,0-5.47851-2.47558-5.47851-4.95117,0-3.63086,2.80566-5.28027,7.75586-5.28027H388.54v-1.68359c0-1.6504-.49512-3.86133-4.25781-3.86133-3.333,0-3.82813,1.749-4.19141,3.10254h-1.65039c.19824-1.81543,1.32031-4.6211,5.875-4.6211,3.7627,0,5.875,1.584,5.875,5.21485Zm-1.61719-5.28028h-3.23437c-3.66407,0-5.94141.957-5.94141,3.79493,0,2.08007,1.48535,3.499,3.7959,3.499,4.71973,0,5.37988-3.13574,5.37988-6.7002Z"/><path class="cls-2" d="M395.63281,276.15918c0-1.45215,0-2.83887-.03222-4.1582h1.61718c.06543.52734.09864,2.67285.06543,3.13476a5.39068,5.39068,0,0,1,5.47852-3.53125c2.9375,0,5.54492,1.65039,5.54492,6.20508v10.69336h-1.65039V278.07324c0-2.9375-1.2207-4.85156-4.0918-4.85156-3.92773,0-5.28125,3.26758-5.28125,6.86523v8.416h-1.65039Z"/><path class="cls-2" d="M413.61719,283.94824a4.37168,4.37168,0,0,0,4.6875,3.43262c2.93652,0,4.125-1.35352,4.125-3.20117,0-1.88184-.792-2.80567-4.48828-3.69727-4.25782-1.02246-5.31446-2.30957-5.31446-4.48828,0-2.27734,1.7168-4.38965,5.44629-4.38965s5.51172,2.27735,5.77539,4.6211h-1.64941a3.89113,3.89113,0,0,0-4.19238-3.10254c-2.8711,0-3.69629,1.41894-3.69629,2.73925,0,1.51758.792,2.27735,4.05957,3.06934,4.65332,1.12207,5.80859,2.64063,5.80859,5.11524,0,3.0039-2.44238,4.85253-5.90723,4.85253-3.76269,0-5.875-1.98046-6.33691-4.95117Z"/><path class="cls-2" d="M96.54346,316.08984c0-2.77246-.03321-3.96093-.03321-4.48828h1.61719c.0332.52735.06592,1.584.06592,3.69629a6.25238,6.25238,0,0,1,5.74316-4.09277v1.78222c-3.43261.23145-5.74316,2.60743-5.74316,6.53516v8.58106h-1.6499Z"/><path class="cls-2" d="M107.334,320.05078c.03321,4.25684,2.17823,6.89746,5.34668,6.89746a4.64687,4.64687,0,0,0,4.75293-3.10254h1.68311a6.32707,6.32707,0,0,1-6.50195,4.6543c-5.01661,0-6.96387-4.32422-6.96387-8.51562,0-4.71973,2.34326-8.7793,7.16211-8.7793,5.08252,0,6.69971,4.38965,6.69971,7.49219,0,.46191,0,.92382-.03272,1.35351Zm10.46241-1.45312c-.03272-3.26661-1.81494-5.8418-5.04932-5.8418-3.3999,0-4.95068,2.377-5.314,5.8418Z"/><path class="cls-2" d="M123.93311,323.54883a4.37027,4.37027,0,0,0,4.68652,3.43262c2.9375,0,4.12549-1.35352,4.12549-3.20118,0-1.88183-.792-2.80566-4.48877-3.69726-4.25733-1.02246-5.31348-2.30957-5.31348-4.48828,0-2.27735,1.71631-4.38965,5.4458-4.38965s5.51172,2.27734,5.77588,4.62109h-1.65039a3.88961,3.88961,0,0,0-4.19141-3.10254c-2.87158,0-3.69677,1.41895-3.69677,2.73926,0,1.51758.792,2.27734,4.05957,3.06934,4.65381,1.12207,5.80908,2.64062,5.80908,5.11523,0,3.00391-2.44238,4.85254-5.9082,4.85254-3.76221,0-5.87452-1.98047-6.33692-4.95117Z"/><path class="cls-2" d="M150.53271,323.28516c0,1.61718.03272,4.1914.03272,4.81836h-1.584a26.53464,26.53464,0,0,1-.09913-2.8711c-.69287,1.94727-2.37646,3.26758-5.314,3.26758-2.376,0-5.4126-.9248-5.4126-5.97461V311.60156H139.773v10.52832c0,2.40918.75928,4.75293,4.02685,4.75293,3.69629,0,5.08252-2.08008,5.08252-6.7998v-8.48145h1.65039Z"/><path class="cls-2" d="M155.94238,328.10352V303.7793h1.64991v24.32422Z"/><path class="cls-2" d="M160.75928,311.60156h3.06933v-5.14941H165.479v5.14941h3.92774v1.55078H165.479v10.72657c0,1.84863.396,2.90429,1.98047,2.90429a6.24023,6.24023,0,0,0,1.71631-.19824v1.45215a5.78866,5.78866,0,0,1-2.04639.29785c-2.1123,0-3.30078-1.05664-3.30078-3.69726V313.15234h-3.06933Z"/><path class="cls-2" d="M173.33252,323.54883a4.37027,4.37027,0,0,0,4.68652,3.43262c2.9375,0,4.12549-1.35352,4.12549-3.20118,0-1.88183-.792-2.80566-4.48877-3.69726-4.25732-1.02246-5.31347-2.30957-5.31347-4.48828,0-2.27735,1.7163-4.38965,5.4458-4.38965s5.51171,2.27734,5.77587,4.62109h-1.65039a3.88961,3.88961,0,0,0-4.1914-3.10254c-2.87158,0-3.69678,1.41895-3.69678,2.73926,0,1.51758.792,2.27734,4.05957,3.06934,4.65381,1.12207,5.80908,2.64062,5.80908,5.11523,0,3.00391-2.44238,4.85254-5.9082,4.85254-3.76221,0-5.87451-1.98047-6.33691-4.95117Z"/><path class="cls-2" d="M196.56348,303.7793h1.6499v3.20117h-1.6499Zm0,7.82226h1.6499v16.502h-1.6499Z"/><path class="cls-2" d="M203.62549,315.75977c0-1.45215,0-2.83887-.0332-4.15821h1.61718c.06592.52735.09912,2.67285.06592,3.13477a5.39089,5.39089,0,0,1,5.479-3.53125c2.9375,0,5.54493,1.65039,5.54493,6.20508v10.69336h-1.65039V317.67383c0-2.9375-1.2212-4.85156-4.09278-4.85156-3.92724,0-5.28076,3.26757-5.28076,6.86523v8.416h-1.6499Z"/><path class="cls-2" d="M242.43408,323.252c-.792,2.9043-2.70654,5.248-6.40283,5.248-4.12549,0-7.063-3.07031-7.063-8.582,0-4.52149,2.40918-8.71289,7.26123-8.71289a5.90048,5.90048,0,0,1,6.20459,5.28125H240.751a4.45934,4.45934,0,0,0-4.55469-3.73047c-3.49854,0-5.479,2.9707-5.479,7.09668,0,3.92773,1.84863,7.0957,5.314,7.0957,2.40918,0,3.86133-1.2207,4.71973-3.69629Z"/><path class="cls-2" d="M259.792,319.81934c0,4.58789-2.5415,8.68066-7.459,8.68066-4.45557,0-7.228-3.66406-7.228-8.64746,0-4.71973,2.60742-8.64746,7.39307-8.64746C256.8877,311.20508,259.792,314.6377,259.792,319.81934Zm-12.938.0332c0,3.92773,2.11231,7.0957,5.61084,7.0957,3.56446,0,5.57813-2.9375,5.57813-7.0957,0-3.89453-1.98047-7.09668-5.644-7.09668C248.63623,312.75586,246.854,315.8916,246.854,319.85254Z"/><path class="cls-2" d="M263.88184,315.75977c0-1.45215,0-2.83887-.03321-4.15821h1.61719c.06543.52735.09863,2.67285.06543,3.13477a5.392,5.392,0,0,1,5.47949-3.53125c2.9375,0,5.54492,1.65039,5.54492,6.20508v10.69336h-1.65039V317.67383c0-2.9375-1.22168-4.85156-4.09277-4.85156-3.92773,0-5.28125,3.26757-5.28125,6.86523v8.416h-1.64941Z"/><path class="cls-2" d="M279.39063,311.60156h3.07031v-5.14941h1.65039v5.14941h3.92773v1.55078h-3.92773v10.72657c0,1.84863.39551,2.90429,1.98047,2.90429a6.241,6.241,0,0,0,1.71582-.19824v1.45215a5.78765,5.78765,0,0,1-2.0459.29785c-2.11328,0-3.30078-1.05664-3.30078-3.69726V313.15234h-3.07031Z"/><path class="cls-2" d="M302.72363,324.96777a18.7916,18.7916,0,0,0,.23145,3.13575h-1.584a10.77159,10.77159,0,0,1-.29687-2.541c-.56152,1.2207-2.01367,2.9375-5.41406,2.9375-3.82813,0-5.47852-2.47559-5.47852-4.95117,0-3.63086,2.80566-5.28028,7.75586-5.28028h3.13672V316.585c0-1.65039-.49609-3.86133-4.25781-3.86133-3.334,0-3.82911,1.749-4.19141,3.10254h-1.65039c.19727-1.81543,1.32031-4.62109,5.875-4.62109,3.76172,0,5.874,1.584,5.874,5.21484Zm-1.61718-5.28027h-3.23438c-3.66309,0-5.94043.957-5.94043,3.79492,0,2.08008,1.48438,3.499,3.79492,3.499,4.71973,0,5.37989-3.13575,5.37989-6.7002Z"/><path class="cls-2" d="M308.168,315.8584c0-1.41895,0-2.96973-.0332-4.25684H309.752c.03321.56055.09864,1.97949.06543,2.93653a5.16337,5.16337,0,0,1,4.95117-3.333,4.68435,4.68435,0,0,1,4.78516,3.26758,5.61549,5.61549,0,0,1,5.37988-3.26758c2.542,0,5.18164,1.45215,5.18164,6.04v10.8584h-1.65039V317.44336c0-2.21191-.792-4.62109-3.86132-4.62109-3.20118,0-4.65332,2.57421-4.65332,5.77539v9.50586H318.333V317.47559c0-2.40918-.72656-4.65332-3.7627-4.65332-3.20117,0-4.75293,2.83886-4.75293,6.20507v9.07618H308.168Z"/><path class="cls-2" d="M335.52344,303.7793h1.65039v3.20117h-1.65039Zm0,7.82226h1.65039v16.502h-1.65039Z"/><path class="cls-2" d="M342.585,315.75977c0-1.45215,0-2.83887-.03223-4.15821h1.61719c.06543.52735.09863,2.67285.06543,3.13477a5.39066,5.39066,0,0,1,5.47852-3.53125c2.9375,0,5.54492,1.65039,5.54492,6.20508v10.69336h-1.64941V317.67383c0-2.9375-1.22168-4.85156-4.09278-4.85156-3.92773,0-5.28125,3.26757-5.28125,6.86523v8.416H342.585Z"/><path class="cls-2" d="M371.792,324.96777a18.93265,18.93265,0,0,0,.23047,3.13575h-1.584a10.82693,10.82693,0,0,1-.29688-2.541c-.56152,1.2207-2.01367,2.9375-5.41308,2.9375-3.82813,0-5.47852-2.47559-5.47852-4.95117,0-3.63086,2.80566-5.28028,7.75586-5.28028h3.13574V316.585c0-1.65039-.49512-3.86133-4.25781-3.86133-3.333,0-3.82813,1.749-4.19141,3.10254H360.042c.19824-1.81543,1.32031-4.62109,5.875-4.62109,3.7627,0,5.875,1.584,5.875,5.21484Zm-1.61719-5.28027h-3.23437c-3.66406,0-5.94141.957-5.94141,3.79492,0,2.08008,1.48536,3.499,3.7959,3.499,4.71973,0,5.37988-3.13575,5.37988-6.7002Z"/><path class="cls-2" d="M374.5957,311.60156H377.665v-5.14941h1.65039v5.14941h3.92676v1.55078h-3.92676v10.72657c0,1.84863.39551,2.90429,1.97949,2.90429a6.24367,6.24367,0,0,0,1.7168-.19824v1.45215a5.78977,5.78977,0,0,1-2.04688.29785c-2.1123,0-3.2998-1.05664-3.2998-3.69726V313.15234H374.5957Z"/><path class="cls-2" d="M386.77246,320.05078c.0332,4.25684,2.17871,6.89746,5.34668,6.89746a4.64642,4.64642,0,0,0,4.75293-3.10254h1.68359a6.32749,6.32749,0,0,1-6.50195,4.6543c-5.01758,0-6.96484-4.32422-6.96484-8.51562,0-4.71973,2.34375-8.7793,7.16211-8.7793,5.083,0,6.70019,4.38965,6.70019,7.49219,0,.46191,0,.92382-.0332,1.35351Zm10.46289-1.45312c-.0332-3.26661-1.81543-5.8418-5.0498-5.8418-3.39942,0-4.95117,2.377-5.31446,5.8418Z"/><path class="cls-2" d="M415.87988,303.7793v19.57129c0,1.585,0,3.10254.03321,4.75293h-1.585c-.06543-.39649-.09864-1.94727-.09864-2.77247-.82519,2.01368-2.67285,3.16895-5.54492,3.16895-4.29,0-6.86523-3.499-6.86523-8.44922,0-5.083,2.80566-8.8457,7.29492-8.8457,3.2998,0,4.62012,1.41894,5.11523,2.47558V303.7793Zm-12.31054,16.20508c0,4.52148,2.34277,6.96386,5.18164,6.96386,4.35644,0,5.54492-3.00293,5.54492-7.49219,0-4.25781-1.02344-6.70019-5.24805-6.70019C405.78027,312.75586,403.56934,315.36328,403.56934,319.98438Z"/><path class="cls-2" d="M116.54053,355.68945c0-2.77246-.03321-3.96093-.03321-4.48828h1.61719c.0332.52735.06592,1.584.06592,3.69629a6.25238,6.25238,0,0,1,5.74316-4.09277v1.78222c-3.43261.23145-5.74316,2.60743-5.74316,6.53516v8.58106h-1.6499Z"/><path class="cls-2" d="M126.96826,343.37891h1.6499v3.20117h-1.6499Zm0,7.82226h1.6499v16.502h-1.6499Z"/><path class="cls-2" d="M133.76563,351.20117c2.67333,7.55762,4.52148,12.70606,5.14892,14.81836h.03272c.36328-1.2207,2.21142-6.13867,5.41308-14.81836h1.749l-6.2378,16.502h-1.98047l-5.87451-16.502Z"/><path class="cls-2" d="M149.70459,359.65039c.0332,4.25684,2.17822,6.89746,5.34668,6.89746a4.64688,4.64688,0,0,0,4.75293-3.10254h1.6831a6.32707,6.32707,0,0,1-6.50195,4.6543c-5.0166,0-6.96387-4.32422-6.96387-8.51563,0-4.71972,2.34327-8.77929,7.16211-8.77929,5.08252,0,6.69971,4.38965,6.69971,7.49219,0,.46191,0,.92382-.03271,1.35351Zm10.4624-1.45312c-.03271-3.26661-1.81494-5.8418-5.04931-5.8418-3.39991,0-4.95069,2.37695-5.314,5.8418Z"/><path class="cls-2" d="M165.90771,355.68945c0-2.77246-.0332-3.96093-.0332-4.48828h1.61719c.0332.52735.06592,1.584.06592,3.69629a6.25238,6.25238,0,0,1,5.74316-4.09277v1.78222c-3.43262.23145-5.74316,2.60743-5.74316,6.53516v8.58106h-1.64991Z"/><path class="cls-2" d="M176.731,363.14844a4.37026,4.37026,0,0,0,4.68652,3.43261c2.9375,0,4.12549-1.35351,4.12549-3.20117,0-1.88183-.792-2.80566-4.48877-3.69726-4.25732-1.02246-5.31348-2.30957-5.31348-4.48828,0-2.27735,1.71631-4.38965,5.4458-4.38965s5.51172,2.27734,5.77588,4.62109H185.312a3.88961,3.88961,0,0,0-4.1914-3.10254c-2.87159,0-3.69678,1.41895-3.69678,2.73926,0,1.51758.792,2.27734,4.05957,3.06934,4.65381,1.12207,5.80908,2.64062,5.80908,5.11523,0,3.00391-2.44238,4.85254-5.9082,4.85254-3.76221,0-5.87451-1.98047-6.33692-4.95117Z"/><path class="cls-2" d="M211.28271,364.56738a18.91714,18.91714,0,0,0,.231,3.13575h-1.584a10.8553,10.8553,0,0,1-.29688-2.541c-.561,1.2207-2.01367,2.9375-5.41308,2.9375-3.82862,0-5.47852-2.47559-5.47852-4.95117,0-3.63086,2.80518-5.28028,7.75586-5.28028h3.13574v-1.68359c0-1.65039-.49511-3.86133-4.25781-3.86133-3.3335,0-3.82861,1.749-4.19141,3.10254H199.5332c.19825-1.81543,1.32032-4.62109,5.875-4.62109,3.76221,0,5.87451,1.584,5.87451,5.21484Zm-1.61718-5.28027h-3.23438c-3.66357,0-5.94092.957-5.94092,3.79492,0,2.08008,1.48536,3.499,3.79541,3.499,4.71973,0,5.37989-3.13574,5.37989-6.70019Z"/><path class="cls-2" d="M216.72656,355.35938c0-1.45215,0-2.83887-.0332-4.15821h1.61719c.06591.52735.09912,2.67285.06591,3.13477a5.3909,5.3909,0,0,1,5.479-3.53125c2.9375,0,5.54492,1.65039,5.54492,6.20508v10.69336H227.75V357.27344c0-2.9375-1.22119-4.85156-4.09277-4.85156-3.92725,0-5.28077,3.26757-5.28077,6.86523v8.416h-1.6499Z"/><path class="cls-2" d="M247.5498,343.37891V362.9502c0,1.585,0,3.10253.03272,4.75293h-1.584c-.06592-.39649-.09913-1.94727-.09913-2.77247-.82519,2.01368-2.67334,3.16895-5.54492,3.16895-4.29053,0-6.86474-3.499-6.86474-8.44922,0-5.083,2.80517-8.8457,7.29394-8.8457,3.30078,0,4.62061,1.41894,5.11572,2.47558v-9.90136Zm-12.311,16.20507c0,4.52149,2.34375,6.96387,5.18213,6.96387,4.35644,0,5.54443-3.00293,5.54443-7.49219,0-4.25781-1.02295-6.70019-5.24756-6.70019C237.4502,352.35547,235.23877,354.96289,235.23877,359.584Z"/><path class="cls-2" d="M261.57227,351.20117c2.44238,8.51465,3.86132,13.39942,4.126,14.85156h.03223c.26465-1.32031,1.915-6.502,4.48926-14.85156H272.002c3.06934,10.19824,3.99414,13.13574,4.291,14.42285h.0332c.46094-1.81543,1.22071-4.291,4.25684-14.42285h1.749l-5.21484,16.502h-1.81446c-1.7832-5.8418-3.92773-13.00391-4.25781-14.52247h-.0332c-.33008,1.61719-2.21094,7.52539-4.35645,14.52247H264.6748l-4.85156-16.502Z"/><path class="cls-2" d="M296.81836,364.56738a18.93276,18.93276,0,0,0,.23047,3.13575h-1.584a10.88454,10.88454,0,0,1-.29687-2.541c-.56055,1.2207-2.01367,2.9375-5.41309,2.9375-3.8291,0-5.47851-2.47559-5.47851-4.95117,0-3.63086,2.80566-5.28028,7.75586-5.28028H295.168v-1.68359c0-1.65039-.49512-3.86133-4.25781-3.86133-3.334,0-3.82813,1.749-4.19141,3.10254h-1.65039c.19824-1.81543,1.32031-4.62109,5.875-4.62109,3.76172,0,5.875,1.584,5.875,5.21484Zm-1.61719-5.28027H291.9668c-3.66407,0-5.94141.957-5.94141,3.79492,0,2.08008,1.48535,3.499,3.79492,3.499,4.72071,0,5.38086-3.13574,5.38086-6.70019Z"/><path class="cls-2" d="M299.62109,351.20117h3.06934v-5.14941h1.65039v5.14941h3.92773V352.752h-3.92773v10.72657c0,1.84863.39551,2.90429,1.98047,2.90429a6.23258,6.23258,0,0,0,1.71582-.19824v1.45215a5.78427,5.78427,0,0,1-2.0459.29785c-2.1123,0-3.30078-1.05664-3.30078-3.69727V352.752h-3.06934Z"/><path class="cls-2" d="M311.79785,359.65039c.0332,4.25684,2.17871,6.89746,5.34668,6.89746a4.64642,4.64642,0,0,0,4.75293-3.10254h1.68359a6.32748,6.32748,0,0,1-6.502,4.6543c-5.0166,0-6.96387-4.32422-6.96387-8.51563,0-4.71972,2.34278-8.77929,7.16114-8.77929,5.083,0,6.70019,4.38965,6.70019,7.49219,0,.46191,0,.92382-.0332,1.35351Zm10.46289-1.45312c-.0332-3.26661-1.81543-5.8418-5.0498-5.8418-3.40039,0-4.95117,2.37695-5.31446,5.8418Z"/><path class="cls-2" d="M328.001,355.68945c0-2.77246-.03223-3.96093-.03223-4.48828h1.61719c.03222.52735.06543,1.584.06543,3.69629a6.25137,6.25137,0,0,1,5.74316-4.09277v1.78222c-3.43262.23145-5.74316,2.60743-5.74316,6.53516v8.58106H328.001Z"/><path class="cls-2" d="M339.2207,351.20117c2.44239,8.51465,3.86133,13.39942,4.126,14.85156h.0332c.26367-1.32031,1.91407-6.502,4.48828-14.85156h1.78223c3.06934,10.19824,3.99316,13.13574,4.291,14.42285h.03222c.46192-1.81543,1.22168-4.291,4.25782-14.42285h1.749l-5.21484,16.502h-1.81446c-1.78222-5.8418-3.92773-13.00391-4.25781-14.52247h-.0332c-.33008,1.61719-2.21094,7.52539-4.35645,14.52247h-1.98047l-4.85156-16.502Z"/><path class="cls-2" d="M374.4668,364.56738a18.93162,18.93162,0,0,0,.23047,3.13575h-1.584a10.82781,10.82781,0,0,1-.29687-2.541c-.56153,1.2207-2.01368,2.9375-5.41309,2.9375-3.82812,0-5.47852-2.47559-5.47852-4.95117,0-3.63086,2.80567-5.28028,7.75586-5.28028h3.13575v-1.68359c0-1.65039-.49512-3.86133-4.25782-3.86133-3.333,0-3.82812,1.749-4.1914,3.10254H362.7168c.19824-1.81543,1.32031-4.62109,5.875-4.62109,3.76269,0,5.875,1.584,5.875,5.21484Zm-1.61719-5.28027h-3.23438c-3.66406,0-5.9414.957-5.9414,3.79492,0,2.08008,1.48535,3.499,3.7959,3.499,4.71972,0,5.37988-3.13574,5.37988-6.70019Z"/><path class="cls-2" d="M379.31543,351.20117c3.333,9.43848,4.78613,13.334,5.34668,15.11621h.0332c.66016-2.01367,1.98047-5.84277,5.18164-15.11621h1.71582l-6.2041,17.459c-1.75,4.88476-2.9375,5.97363-5.9082,5.97363a10.95236,10.95236,0,0,1-1.51856-.09863v-1.65039a10.79941,10.79941,0,0,0,1.48536.09961c2.377,0,3.13574-1.15528,4.35644-4.55469L377.5,351.20117Z"/><path class="cls-2" d="M395.2207,363.14844a4.37168,4.37168,0,0,0,4.6875,3.43261c2.93653,0,4.125-1.35351,4.125-3.20117,0-1.88183-.792-2.80566-4.48828-3.69726-4.25781-1.02246-5.31445-2.30957-5.31445-4.48828,0-2.27735,1.7168-4.38965,5.44629-4.38965s5.51172,2.27734,5.77539,4.62109h-1.64942a3.89112,3.89112,0,0,0-4.19238-3.10254c-2.87109,0-3.69629,1.41895-3.69629,2.73926,0,1.51758.792,2.27734,4.05957,3.06934,4.65332,1.12207,5.8086,2.64062,5.8086,5.11523,0,3.00391-2.44239,4.85254-5.90723,4.85254-3.7627,0-5.875-1.98047-6.33691-4.95117Z"/><path class="cls-3" d="M272.39259,194.42173s-4.94434-19.14463,49.08023-37.24024,37.76475-64.51478,37.76475-64.51478S302.06593,62.50736,352.94344,57h-20.4559s-34.35544,5.52193-40.3873,14.56245,4.88741,25.82485,4.88741,25.82485,13.20819,8.65442-37.93157,15.73531-78.356,6.03187-91.10455,23.603-26.91029,60.224-26.91029,60.224Z"/><path class="cls-4" d="M199.28987,168.77482a12.783,12.783,0,0,1-3.90031-6.95409,7.98681,7.98681,0,0,1,2.487-7.34317c2.206-1.83,5.348-2.02565,8.18759-1.63559s5.62262,1.27714,8.4888,1.29648a14.31777,14.31777,0,0,0,10.74074-4.84569,16.4516,16.4516,0,0,1,3.16544-3.35787,10.43924,10.43924,0,0,1,5.08846-1.19557l13.0301-.79671c4.55321-.2784,9.32738-.51754,13.46144,1.41087,3.31926,1.54833,6.43871,4.50239,10.04294,3.851,1.76462-.31891,3.24063-1.4759,4.8353-2.296s3.64571-1.27365,5.10142-.22651a4.71463,4.71463,0,0,1,1.48615,2.09644c2.29765,5.57283-.38649,11.84758-3.15546,17.20187a5.60337,5.60337,0,0,1-1.854,2.38069c-2.00261,1.209-4.44405-.38243-6.704-.98646-7.60638-2.033-13.70126,7.43839-21.541,8.166-5.37907.49922-11.098-3.20568-15.92206-.77418-2.37453,1.19685-3.96452,3.69967-6.4652,4.60379-2.22792.8055-4.69755.17033-6.94569-.57688a73.55631,73.55631,0,0,1-20.622-10.73372"/><path class="cls-5" d="M314.7398,117.72411a8.3754,8.3754,0,0,1,4.15343-16.11706,6.53726,6.53726,0,0,0,2.1455.15348c1.53758-.30136,2.38141-2.08611,2.26732-3.64878a14.01285,14.01285,0,0,0-1.5339-4.41542c-1.26686-2.9152-1.85811-6.3026-.70819-9.26587s4.42729-5.21889,7.50761-4.43473c4.3466,1.10652,5.67037,6.86709,9.50468,9.19419,3.2142,1.95075,7.35492,1.04258,11.01973,1.88263a4.50876,4.50876,0,0,1,3.85829,3.64284c1.23681,4.29607-.08,9.02422,1.20592,13.30583.54443,1.8127,1.5399,3.4788,1.94392,5.32786.87529,4.006-1.2184,8.1613-4.16888,11.00891a20.07517,20.07517,0,0,1-10.87225,5.3659c-10.52708,1.58322-20.77041-5.65963-26.15093-14.84527"/><path class="cls-6" d="M316.00159,115.56544c-3.95129-1.9371-5.73769-6.988-1.84461-10.1066,2.70914-2.17019,4.756-.5858,7.54635-1.28762,3.344-.84107,4.46648-4.46437,3.85861-7.484-.63424-3.15069-2.88379-5.80093-2.607-9.18528.241-2.946,2.4454-5.80367,5.567-4.56078,1.575.6271,2.2158,1.68789,3.20344,2.96862,2.89273,3.75122,5.26919,6.33775,10.2189,6.98631,2.77158.36317,7.01691-.45272,8.59924,2.48393,1.41059,2.6179.32574,7.29235.653,10.18822.29059,2.57165,1.33532,4.6615,2.09925,7.08783,1.18484,3.76319-.41854,7.26789-3.12833,9.93418-10.99192,10.81545-26.44376,1.80675-33.09674-8.9734-1.68686-2.73331-6.01367-.225-4.31735,2.5236,6.30536,10.21688,17.9241,18.66225,30.4861,15.70522,5.79086-1.36314,11.36617-5.19943,14.03721-10.60008,3.29576-6.6638-.88688-11.50315-1.23706-18.1832-.27782-5.29984.57651-12.073-5.59789-14.18018-3.51034-1.198-7.85274.068-11.10369-1.85093-2.63092-1.553-3.82253-4.94885-6.00466-7.0235a8.57333,8.57333,0,0,0-12.07709-.11939c-4.30263,4.02866-3.68271,10.06561-1.64282,15.06977,2.29422,5.62806-2.45977,3.49377-5.95116,4.97248a11.23153,11.23153,0,0,0-5.87219,5.64854c-2.46634,5.52548.4771,11.74909,5.68788,14.30364,2.87853,1.41118,5.41568-2.89953,2.52359-4.31735Z"/></svg>