<svg id="Layer_1" data-name="Layer 1" xmlns="http://www.w3.org/2000/svg" viewBox="0 0 516.1 516.0011"><defs><style>.cls-1{fill:#93278f;}.cls-2{fill:#fff;}.cls-3{fill:#ed9e27;}.cls-4{fill:#f3ca27;}</style></defs><title>coffee2</title><path class="cls-1" d="M258,516C115.5,516,0,400.5,0,258A257.961,257.961,0,0,1,75.6,75.6c100.8-100.8,264.1-100.8,364.9,0s100.8,264.1,0,364.9A256.49776,256.49776,0,0,1,258,516Z"/><path class="cls-2" d="M258,.5C400.3.6,515.5,116,515.4,258.2a257.624,257.624,0,0,1-157.2,237C227.1,550.5,76.1,489,20.8,357.9-34.4,227,26.9,76,157.7,20.6A258.09883,258.09883,0,0,1,258,.5m0-1C115.2-.5-.5,115.2-.5,258S115.2,516.5,258,516.5,516.5,400.8,516.5,258,400.8-.5,258-.5Z"/><path class="cls-2" d="M129.13574,274.23242c.75586,3.34766,2.9878,5.32813,7.127,5.32813,4.60742,0,6.37158-2.30371,6.37158-5.04,0-2.84375-1.26026-4.60742-6.80323-5.97461-5.32763-1.332-7.63134-3.05957-7.63134-6.69531,0-3.31153,2.41162-6.40723,7.811-6.40723,5.54346,0,7.8833,3.38281,8.207,6.44336h-2.01562c-.57617-2.7002-2.33985-4.64356-6.29932-4.64356-3.63525,0-5.61523,1.69141-5.61523,4.499,0,2.77148,1.65576,3.85156,6.29931,5.0039,7.09082,1.76368,8.13477,4.60743,8.13477,7.63086,0,3.707-2.69971,6.91114-8.53076,6.91114-6.29932,0-8.603-3.67188-9.0708-7.05567Z"/><path class="cls-2" d="M162.75781,275.74512c0,1.76367.03565,4.57129.03565,5.25488h-1.72754a28.99657,28.99657,0,0,1-.10791-3.13184c-.75586,2.124-2.5918,3.56348-5.79541,3.56348-2.5918,0-5.90332-1.00781-5.90332-6.51465V263.002H151.023v11.48243c0,2.62792.82812,5.18359,4.3916,5.18359,4.03174,0,5.54346-2.26758,5.54346-7.415v-9.251h1.7998Z"/><path class="cls-2" d="M168.66357,267.53809c0-1.584,0-3.09571-.03613-4.53614h1.76367c.07227.57618.1084,2.916.07227,3.41993a5.8781,5.8781,0,0,1,5.9751-3.85157c3.20361,0,6.04736,1.79981,6.04736,6.76758V281H180.686V269.625c0-3.20312-1.332-5.291-4.46338-5.291-4.2837,0-5.75928,3.56348-5.75928,7.48731V281h-1.79981Z"/><path class="cls-2" d="M211.501,279.77637c0,5.75879-2.55567,8.78222-7.77491,8.78222-4.67919,0-6.623-2.62695-7.05517-5.36328h1.83594c.64795,2.48438,2.6997,3.67188,5.2915,3.67188,4.6792,0,5.9751-3.02344,5.9751-7.59473v-1.87207C208.80176,279.74023,207.0376,281,203.76221,281c-4.21143,0-7.45117-3.41992-7.45117-8.999,0-6.04688,3.45556-9.43067,7.70312-9.43067,3.67139,0,5.25537,1.72754,5.75928,3.168.03613-1.04394.07177-2.30371.10791-2.73633h1.69189c0,.64844-.07226,3.49219-.07226,5.21973Zm-13.28223-7.84766c0,4.28418,2.26807,7.37988,5.72363,7.37988,4.499,0,5.86719-2.98828,5.86719-7.667,0-4.75195-1.43994-7.37988-5.75928-7.37988C199.91064,264.26172,198.21875,267.8252,198.21875,271.92871Z"/><path class="cls-2" d="M217.40674,267.89746c0-3.02344-.03613-4.31933-.03613-4.89551h1.76367c.03613.57618.07226,1.72852.07226,4.03223a6.81762,6.81762,0,0,1,6.26319-4.46387v1.94336c-3.74366.252-6.26319,2.84375-6.26319,7.12793V281h-1.7998Z"/><path class="cls-2" d="M243.36035,271.96484c0,5.00391-2.77148,9.4668-8.13476,9.4668-4.85938,0-7.8833-3.99512-7.8833-9.43066,0-5.14746,2.84375-9.43067,8.063-9.43067C240.19287,262.57031,243.36035,266.31348,243.36035,271.96484ZM229.25,272.001c0,4.2832,2.30371,7.73925,6.11914,7.73925,3.8877,0,6.0835-3.2041,6.0835-7.73925,0-4.24707-2.15967-7.73926-6.15528-7.73926C231.19385,264.26172,229.25,267.68164,229.25,272.001Z"/><path class="cls-2" d="M247.75439,263.002c2.66358,9.28711,4.21143,14.61426,4.49952,16.19825h.03564c.28809-1.43946,2.08789-7.09082,4.89551-16.19825h1.94385c3.34765,11.123,4.35547,14.32618,4.6792,15.73047h.03613c.5039-1.97949,1.332-4.67969,4.64355-15.73047h1.90772L264.708,281h-1.97949c-1.94385-6.37109-4.2837-14.18262-4.64356-15.83789h-.03613c-.35987,1.76367-2.41162,8.207-4.75147,15.83789H251.1377l-5.291-17.998Z"/><path class="cls-2" d="M273.74609,267.53809c0-1.584,0-3.09571-.03613-4.53614h1.76367c.07227.57618.1084,2.916.07227,3.41993a5.8781,5.8781,0,0,1,5.9751-3.85157c3.20361,0,6.04736,1.79981,6.04736,6.76758V281h-1.79981V269.625c0-3.20312-1.332-5.291-4.46337-5.291-4.2837,0-5.75928,3.56348-5.75928,7.48731V281h-1.79981Z"/><path class="cls-2" d="M316.07959,275.709c-.86377,3.167-2.95166,5.72266-6.98291,5.72266-4.49951,0-7.70313-3.34766-7.70313-9.3584,0-4.93164,2.62793-9.50293,7.91895-9.50293a6.43456,6.43456,0,0,1,6.76709,5.75977h-1.83545c-.54-2.08789-1.90771-4.06836-4.96728-4.06836-3.81592,0-5.97559,3.24023-5.97559,7.73926,0,4.2832,2.01611,7.73925,5.79541,7.73925,2.62744,0,4.21143-1.332,5.14746-4.03125Z"/><path class="cls-2" d="M335.01563,271.96484c0,5.00391-2.77247,9.4668-8.13575,9.4668-4.85937,0-7.88281-3.99512-7.88281-9.43066,0-5.14746,2.84375-9.43067,8.06348-9.43067C331.84766,262.57031,335.01563,266.31348,335.01563,271.96484Zm-14.11036.03614c0,4.2832,2.30371,7.73925,6.11914,7.73925,3.8877,0,6.083-3.2041,6.083-7.73925,0-4.24707-2.16015-7.73926-6.15527-7.73926C322.84863,264.26172,320.90527,267.68164,320.90527,272.001Z"/><path class="cls-2" d="M342.03613,264.69434V281h-1.7998V264.69434h-3.0957V263.002h3.0957v-2.4834c0-3.0957.68359-6.40722,4.71484-6.40722a3.93624,3.93624,0,0,1,1.62012.25195v1.6919a5.731,5.731,0,0,0-1.72754-.252c-2.01562,0-2.80762,1.33155-2.80762,4.42725V263.002h7.23438v-2.4834c0-3.0957.75586-6.40722,4.71582-6.40722a3.93888,3.93888,0,0,1,1.62012.25195v1.6919a5.73723,5.73723,0,0,0-1.72852-.252c-2.01563,0-2.80762,1.33155-2.80762,4.42725V263.002h3.81543v1.69239h-3.81543V281h-1.7998V264.69434Z"/><path class="cls-2" d="M358.23633,272.2168c.03613,4.64355,2.376,7.52343,5.83105,7.52343a5.06889,5.06889,0,0,0,5.1836-3.38378h1.83593a6.90074,6.90074,0,0,1-7.09179,5.07519c-5.47071,0-7.59473-4.71484-7.59473-9.28613,0-5.14746,2.55566-9.5752,7.81152-9.5752,5.543,0,7.30664,4.78711,7.30664,8.1709,0,.50391,0,1.00781-.03613,1.47559Zm11.41015-1.584c-.03613-3.56347-1.97949-6.37109-5.50683-6.37109-3.708,0-5.39942,2.5918-5.7959,6.37109Z"/><path class="cls-2" d="M376.48828,272.2168c.03613,4.64355,2.376,7.52343,5.83106,7.52343a5.06887,5.06887,0,0,0,5.18359-3.38378h1.83594a6.90076,6.90076,0,0,1-7.0918,5.07519c-5.4707,0-7.59473-4.71484-7.59473-9.28613,0-5.14746,2.55567-9.5752,7.81153-9.5752,5.543,0,7.30664,4.78711,7.30664,8.1709,0,.50391,0,1.00781-.03613,1.47559Zm11.41016-1.584c-.03614-3.56347-1.97949-6.37109-5.50684-6.37109-3.708,0-5.39941,2.5918-5.7959,6.37109Z"/><path class="cls-2" d="M94.23242,318.90918c-.86377,3.167-2.95117,5.72266-6.98291,5.72266-4.49951,0-7.70312-3.34766-7.70312-9.3584,0-4.93164,2.62793-9.50293,7.91894-9.50293a6.43454,6.43454,0,0,1,6.76709,5.75879H92.397c-.54-2.08692-1.90771-4.06739-4.96728-4.06739-3.81592,0-5.97559,3.24024-5.97559,7.73926,0,4.28321,2.01611,7.73926,5.79541,7.73926,2.62744,0,4.21143-1.332,5.14746-4.03125Z"/><path class="cls-2" d="M98.41016,311.09766c0-3.02344-.03614-4.31934-.03614-4.89551h1.76368c.03613.57617.07226,1.72851.07226,4.03223a6.8176,6.8176,0,0,1,6.26318-4.46387v1.94336c-3.74365.252-6.26318,2.84375-6.26318,7.12793v9.3584h-1.7998Z"/><path class="cls-2" d="M110.18164,315.417c.03613,4.64356,2.37549,7.52344,5.83106,7.52344a5.06842,5.06842,0,0,0,5.18359-3.38379h1.83545a6.89993,6.89993,0,0,1-7.09082,5.0752c-5.47119,0-7.59522-4.71485-7.59522-9.28614,0-5.14746,2.55567-9.57519,7.811-9.57519,5.54346,0,7.30713,4.78711,7.30713,8.1709,0,.5039,0,1.00781-.03614,1.47558Zm11.41065-1.583c-.03614-3.56445-1.98-6.37207-5.50733-6.37207-3.70752,0-5.39941,2.5918-5.79541,6.37207Z"/><path class="cls-2" d="M140.2041,320.78027a20.58837,20.58837,0,0,0,.25195,3.41993h-1.72753a11.81062,11.81062,0,0,1-.32373-2.77149c-.61231,1.332-2.19581,3.20313-5.90333,3.20313-4.17578,0-5.97558-2.69922-5.97558-5.39942,0-3.959,3.05957-5.75879,8.459-5.75879h3.41993V311.6377c0-1.79981-.54-4.21094-4.64356-4.21094-3.63574,0-4.17578,1.90722-4.57129,3.38281h-1.7998c.21582-1.97949,1.43945-5.03906,6.40722-5.03906,4.103,0,6.40674,1.72754,6.40674,5.6875Zm-1.76367-5.75879h-3.52734c-3.99561,0-6.4795,1.04395-6.4795,4.13965,0,2.26758,1.62012,3.81543,4.13965,3.81543,5.14746,0,5.86719-3.41992,5.86719-7.30761Z"/><path class="cls-2" d="M143.2666,306.20215h3.34766v-5.61524h1.7998v5.61524h4.28321v1.69238h-4.28321v11.69824c0,2.01563.43164,3.168,2.15967,3.168a6.77723,6.77723,0,0,0,1.87158-.21679v1.584a6.319,6.319,0,0,1-2.23144.32422c-2.30371,0-3.59961-1.15137-3.59961-4.03125V307.89453H143.2666Z"/><path class="cls-2" d="M156.5498,315.417c.03614,4.64356,2.37549,7.52344,5.83106,7.52344a5.06841,5.06841,0,0,0,5.18359-3.38379h1.83545a6.89992,6.89992,0,0,1-7.09082,5.0752c-5.47119,0-7.59521-4.71485-7.59521-9.28614,0-5.14746,2.55566-9.57519,7.811-9.57519,5.54346,0,7.30713,4.78711,7.30713,8.1709,0,.5039,0,1.00781-.03613,1.47558Zm11.41065-1.583c-.03613-3.56445-1.98-6.37207-5.50732-6.37207-3.70752,0-5.39942,2.5918-5.79542,6.37207Z"/><path class="cls-2" d="M174.65723,319.23242c.61181,2.33985,2.26757,3.74414,5.11132,3.74414,3.20362,0,4.49952-1.47558,4.49952-3.49218,0-2.05176-.86377-3.05958-4.89551-4.03125-4.64356-1.11524-5.79541-2.51954-5.79541-4.89551,0-2.4834,1.87207-4.78711,5.93945-4.78711s6.01123,2.4834,6.29932,5.03906h-1.79981a4.24233,4.24233,0,0,0-4.57129-3.38281c-3.13183,0-4.03173,1.54687-4.03173,2.9873,0,1.65528.86377,2.4834,4.42724,3.34766,5.07569,1.22363,6.33545,2.87988,6.33545,5.5791,0,3.27539-2.66357,5.291-6.44336,5.291-4.10351,0-6.40722-2.15918-6.91113-5.39942Z"/><path class="cls-2" d="M212.34668,320.78027a20.58837,20.58837,0,0,0,.252,3.41993h-1.72754a11.81177,11.81177,0,0,1-.32373-2.77149c-.6123,1.332-2.1958,3.20313-5.90332,3.20313-4.17578,0-5.97558-2.69922-5.97558-5.39942,0-3.959,3.05957-5.75879,8.459-5.75879h3.41992V311.6377c0-1.79981-.54-4.21094-4.64355-4.21094-3.63574,0-4.17578,1.90722-4.57129,3.38281h-1.79981c.21583-1.97949,1.43946-5.03906,6.40723-5.03906,4.103,0,6.40674,1.72754,6.40674,5.6875Zm-1.76367-5.75879h-3.52735c-3.9956,0-6.47949,1.04395-6.47949,4.13965,0,2.26758,1.62012,3.81543,4.13965,3.81543,5.14746,0,5.86719-3.41992,5.86719-7.30761Z"/><path class="cls-2" d="M227.64844,310.8457c0-1.54785,0-3.23925-.03614-4.64355H229.376c.03613.6123.1084,2.16015.07226,3.2041a5.6293,5.6293,0,0,1,5.39942-3.63574,5.1085,5.1085,0,0,1,5.21923,3.56347,6.12428,6.12428,0,0,1,5.86719-3.56347c2.77149,0,5.65137,1.584,5.65137,6.58691V324.2002h-1.79981v-11.627c0-2.41113-.86376-5.03906-4.21142-5.03906-3.4917,0-5.0752,2.80762-5.0752,6.2998V324.2002h-1.76416V312.60938c0-2.627-.7915-5.0752-4.10351-5.0752-3.49121,0-5.18311,3.0957-5.18311,6.76758v9.89844h-1.7998Z"/><path class="cls-2" d="M272.07031,315.165c0,5.00391-2.77148,9.4668-8.13476,9.4668-4.85938,0-7.8833-3.99512-7.8833-9.43067,0-5.14746,2.84375-9.43066,8.063-9.43066C268.90283,305.77051,272.07031,309.51367,272.07031,315.165Zm-14.11035.03613c0,4.28321,2.30371,7.73926,6.11914,7.73926,3.8877,0,6.0835-3.2041,6.0835-7.73926,0-4.24707-2.15967-7.73926-6.15528-7.73926C259.90381,307.46191,257.96,310.88184,257.96,315.20117Z"/><path class="cls-2" d="M276.53564,310.73828c0-1.584,0-3.0957-.03613-4.53613h1.76367c.07227.57617.1084,2.916.07227,3.41992a5.8781,5.8781,0,0,1,5.9751-3.85156c3.20361,0,6.04736,1.7998,6.04736,6.76758V324.2002h-1.7998v-11.375c0-3.20313-1.332-5.291-4.46338-5.291-4.28369,0-5.75928,3.56348-5.75928,7.4873v9.17872h-1.79981Z"/><path class="cls-2" d="M310.84131,315.165c0,5.00391-2.77149,9.4668-8.13477,9.4668-4.85937,0-7.8833-3.99512-7.8833-9.43067,0-5.14746,2.84375-9.43066,8.063-9.43066C307.67383,305.77051,310.84131,309.51367,310.84131,315.165Zm-14.11035.03613c0,4.28321,2.30371,7.73926,6.11914,7.73926,3.88769,0,6.08349-3.2041,6.08349-7.73926,0-4.24707-2.15966-7.73926-6.15527-7.73926C298.6748,307.46191,296.731,310.88184,296.731,315.20117Z"/><path class="cls-2" d="M328.76953,318.90918c-.86426,3.167-2.95215,5.72266-6.9834,5.72266-4.499,0-7.70312-3.34766-7.70312-9.3584,0-4.93164,2.62793-9.50293,7.91894-9.50293a6.43575,6.43575,0,0,1,6.76758,5.75879h-1.83594c-.54-2.08692-1.9082-4.06739-4.96777-4.06739-3.81543,0-5.9751,3.24024-5.9751,7.73926,0,4.28321,2.01612,7.73926,5.79541,7.73926,2.62793,0,4.21192-1.332,5.14746-4.03125Z"/><path class="cls-2" d="M346.22949,318.94531c0,1.76367.03614,4.57129.03614,5.25489h-1.72852a29.17323,29.17323,0,0,1-.10742-3.13184c-.75586,2.124-2.5918,3.56348-5.79492,3.56348-2.5918,0-5.90332-1.00782-5.90332-6.51465v-11.915h1.76367v11.48242c0,2.62793.82715,5.18359,4.3916,5.18359,4.03125,0,5.543-2.26757,5.543-7.415v-9.251h1.7998Z"/><path class="cls-2" d="M352.13477,324.2002V297.67188h1.7998V324.2002Z"/><path class="cls-2" d="M357.39063,306.20215h3.34765v-5.61524h1.79981v5.61524h4.2832v1.69238h-4.2832v11.69824c0,2.01563.43164,3.168,2.15918,3.168a6.78284,6.78284,0,0,0,1.87207-.21679v1.584a6.31737,6.31737,0,0,1-2.23145.32422c-2.30371,0-3.59961-1.15137-3.59961-4.03125V307.89453h-3.34765Z"/><path class="cls-2" d="M383.45215,318.94531c0,1.76367.03613,4.57129.03613,5.25489h-1.72851a29.17236,29.17236,0,0,1-.10743-3.13184c-.75586,2.124-2.59179,3.56348-5.79492,3.56348-2.59179,0-5.90332-1.00782-5.90332-6.51465v-11.915h1.76367v11.48242c0,2.62793.82715,5.18359,4.39161,5.18359,4.03125,0,5.543-2.26757,5.543-7.415v-9.251h1.79981Z"/><path class="cls-2" d="M389.35742,311.09766c0-3.02344-.03515-4.31934-.03515-4.89551h1.76367c.03613.57617.07129,1.72851.07129,4.03223a6.81772,6.81772,0,0,1,6.26367-4.46387v1.94336c-3.74317.252-6.26367,2.84375-6.26367,7.12793v9.3584h-1.79981Z"/><path class="cls-2" d="M401.12988,315.417c.03614,4.64356,2.376,7.52344,5.83106,7.52344a5.06887,5.06887,0,0,0,5.18359-3.38379h1.83594a6.90075,6.90075,0,0,1-7.0918,5.0752c-5.4707,0-7.59472-4.71485-7.59472-9.28614,0-5.14746,2.55566-9.57519,7.81152-9.57519,5.543,0,7.30664,4.78711,7.30664,8.1709,0,.5039,0,1.00781-.03613,1.47558ZM412.54,313.834c-.03613-3.56445-1.97949-6.37207-5.50684-6.37207-3.708,0-5.39941,2.5918-5.79492,6.37207Z"/><path class="cls-2" d="M436.44434,314.12109v1.76368H427.374v-1.76368Z"/><path class="cls-2" d="M87.4502,358.61719c.03613,4.64355,2.37548,7.52344,5.83105,7.52344a5.06842,5.06842,0,0,0,5.18359-3.38379h1.83545a6.89993,6.89993,0,0,1-7.09082,5.07519c-5.47119,0-7.59521-4.71484-7.59521-9.28613,0-5.14746,2.55566-9.5752,7.811-9.5752,5.54346,0,7.30713,4.78711,7.30713,8.1709,0,.50391,0,1.00781-.03613,1.47559Zm11.41064-1.584c-.03613-3.56347-1.98-6.37109-5.50732-6.37109-3.70752,0-5.39942,2.5918-5.79541,6.37109Z"/><path class="cls-2" d="M105.27,367.40039V340.87207h1.7998v26.52832Z"/><path class="cls-2" d="M112.97363,340.87207h1.79981v3.49121h-1.79981Zm0,8.53027h1.79981v17.99805h-1.79981Z"/><path class="cls-2" d="M120.67725,354.0459c0-1.54785,0-3.23926-.03614-4.64356h1.76368c.03613.61231.10839,2.16016.07226,3.20411a5.62929,5.62929,0,0,1,5.39941-3.63575,5.10851,5.10851,0,0,1,5.21924,3.56348,6.12428,6.12428,0,0,1,5.86719-3.56348c2.77149,0,5.65137,1.584,5.65137,6.58692v11.84277h-1.79981v-11.627c0-2.41114-.86377-5.03906-4.21142-5.03906-3.4917,0-5.0752,2.80761-5.0752,6.29882v10.36719h-1.76416V355.80957c0-2.627-.792-5.07519-4.10351-5.07519-3.49121,0-5.18311,3.0957-5.18311,6.76757v9.89844h-1.7998Z"/><path class="cls-2" d="M150.521,340.87207h1.7998v3.49121H150.521Zm0,8.53027h1.7998v17.99805H150.521Z"/><path class="cls-2" d="M158.22461,353.93848c0-1.584,0-3.09571-.03613-4.53614h1.76367c.07226.57618.1084,2.916.07226,3.41993a5.87811,5.87811,0,0,1,5.9751-3.85157c3.20362,0,6.04737,1.79981,6.04737,6.76758v11.66211h-1.79981v-11.375c0-3.20312-1.332-5.291-4.46338-5.291-4.28369,0-5.75928,3.56347-5.75928,7.4873v9.17871h-1.7998Z"/><path class="cls-2" d="M190.08252,363.98047a20.51782,20.51782,0,0,0,.25244,3.41992h-1.728a11.81156,11.81156,0,0,1-.32373-2.77148c-.6123,1.332-2.1958,3.20312-5.90332,3.20312-4.17578,0-5.97558-2.69922-5.97558-5.39941,0-3.959,3.05957-5.75879,8.459-5.75879h3.41992v-1.83594c0-1.7998-.54-4.21094-4.64355-4.21094-3.63574,0-4.17578,1.90723-4.57129,3.38282h-1.79981c.21583-1.9795,1.43946-5.03907,6.40723-5.03907,4.103,0,6.40674,1.72754,6.40674,5.6875Zm-1.76367-5.75879H184.7915c-3.9956,0-6.47949,1.04395-6.47949,4.13965,0,2.26758,1.62012,3.81543,4.13965,3.81543,5.14746,0,5.86719-3.41992,5.86719-7.30762Z"/><path class="cls-2" d="M193.145,349.40234h3.34766v-5.61523h1.7998v5.61523h4.2832v1.69239h-4.2832V362.793c0,2.01562.43164,3.168,2.15967,3.168a6.77725,6.77725,0,0,0,1.87158-.2168v1.584a6.319,6.319,0,0,1-2.23144.32421c-2.30372,0-3.59961-1.15136-3.59961-4.03125V351.09473H193.145Z"/><path class="cls-2" d="M206.24805,340.87207h1.7998v3.49121h-1.7998Zm0,8.53027h1.7998v17.99805h-1.7998Z"/><path class="cls-2" d="M213.95166,353.93848c0-1.584,0-3.09571-.03613-4.53614h1.76367c.07226.57618.1084,2.916.07226,3.41993a5.87811,5.87811,0,0,1,5.9751-3.85157c3.20362,0,6.04737,1.79981,6.04737,6.76758v11.66211h-1.79981v-11.375c0-3.20312-1.332-5.291-4.46338-5.291-4.28369,0-5.75928,3.56347-5.75928,7.4873v9.17871h-1.7998Z"/><path class="cls-2" d="M247.42969,366.17676c0,5.75879-2.55615,8.78222-7.77539,8.78222-4.6792,0-6.62305-2.627-7.05518-5.36328h1.83594c.648,2.48438,2.69971,3.67188,5.2915,3.67188,4.6792,0,5.9751-3.02344,5.9751-7.59473v-1.87207c-.97168,2.33985-2.73584,3.59961-6.01123,3.59961-4.21143,0-7.45117-3.41992-7.45117-8.999,0-6.04688,3.45556-9.43067,7.70312-9.43067,3.67139,0,5.25537,1.72754,5.75928,3.168.03613-1.04394.07178-2.30371.10791-2.73633h1.69189c0,.64844-.07177,3.49219-.07177,5.21973ZM234.147,358.3291c0,4.28418,2.26807,7.37988,5.72364,7.37988,4.499,0,5.86718-2.98828,5.86718-7.667,0-4.752-1.43994-7.37988-5.75927-7.37988C235.83887,350.66211,234.147,354.22559,234.147,358.3291Z"/><path class="cls-2" d="M262.69482,340.87207h1.79981v11.55371c.86377-1.79883,2.62744-3.45508,6.15527-3.45508,4.24756,0,7.37891,3.49121,7.37891,9.03516,0,5.68652-2.80762,9.82617-7.84717,9.82617-3.02344,0-4.751-1.22363-5.687-3.27539,0,1.15234-.03613,2.33984-.07227,2.84375h-1.76367c.03613-2.05176.03613-4.10351.03613-6.15527ZM276.12109,358.042c0-4.5-2.23193-7.37988-5.65136-7.37988-4.49952,0-6.083,3.05957-6.083,7.77539,0,4.24707,1.40381,7.70313,5.86719,7.70313C273.88916,366.14063,276.12109,363.11719,276.12109,358.042Z"/><path class="cls-2" d="M282.63818,340.87207H284.438v3.49121h-1.79981Zm0,8.53027H284.438v17.99805h-1.79981Z"/><path class="cls-2" d="M304.91992,358.36523c0,5.00391-2.77148,9.4668-8.13476,9.4668-4.85938,0-7.8833-3.99512-7.8833-9.43066,0-5.14746,2.84375-9.43067,8.063-9.43067C301.75244,348.9707,304.91992,352.71387,304.91992,358.36523Zm-14.11035.03614c0,4.2832,2.30371,7.73926,6.11914,7.73926,3.8877,0,6.0835-3.20411,6.0835-7.73926,0-4.24707-2.15967-7.73926-6.15528-7.73926C292.75342,350.66211,290.80957,354.082,290.80957,358.40137Z"/><path class="cls-2" d="M323.49609,340.87207V362.2168c0,1.72851,0,3.38379.03614,5.18359h-1.72852c-.07129-.43164-.10742-2.124-.10742-3.02344-.90039,2.19532-2.916,3.45508-6.04736,3.45508-4.67969,0-7.48731-3.81543-7.48731-9.21484,0-5.543,3.05957-9.64649,7.95508-9.64649,3.59912,0,5.03955,1.54785,5.57959,2.69922V340.87207ZM310.06934,358.5459c0,4.93066,2.55566,7.59473,5.65136,7.59473,4.752,0,6.04688-3.2754,6.04688-8.1709,0-4.64356-1.11524-7.30762-5.72266-7.30762C312.481,350.66211,310.06934,353.50586,310.06934,358.5459Z"/><path class="cls-2" d="M329.40039,340.87207h1.79981v3.49121h-1.79981Zm0,8.53027h1.79981v17.99805h-1.79981Z"/><path class="cls-2" d="M336.81641,349.40234c2.916,8.24317,4.93164,13.8584,5.61523,16.16211h.03613c.39649-1.332,2.41211-6.69531,5.90332-16.16211h1.90821l-6.80371,17.99805h-2.15918l-6.40723-17.99805Z"/><path class="cls-2" d="M354.2041,358.61719c.03613,4.64355,2.376,7.52344,5.83106,7.52344a5.06888,5.06888,0,0,0,5.18359-3.38379h1.83594a6.90075,6.90075,0,0,1-7.0918,5.07519c-5.4707,0-7.59473-4.71484-7.59473-9.28613,0-5.14746,2.55567-9.5752,7.81153-9.5752,5.543,0,7.30664,4.78711,7.30664,8.1709,0,.50391,0,1.00781-.03613,1.47559Zm11.41016-1.584c-.03613-3.56347-1.97949-6.37109-5.50684-6.37109-3.708,0-5.39941,2.5918-5.79492,6.37109Z"/><path class="cls-2" d="M371.87988,354.29785c0-3.02344-.03515-4.31933-.03515-4.89551h1.76367c.03613.57618.07129,1.72852.07129,4.03223a6.81775,6.81775,0,0,1,6.26367-4.46387v1.94336c-3.74316.252-6.26367,2.84375-6.26367,7.12793v9.3584h-1.79981Z"/><path class="cls-2" d="M383.6875,362.43262c.6123,2.33984,2.26855,3.74414,5.11133,3.74414,3.2041,0,4.5-1.47559,4.5-3.49219,0-2.05176-.86426-3.05957-4.89551-4.03125-4.64355-1.11523-5.79492-2.51953-5.79492-4.89551,0-2.4834,1.87109-4.78711,5.93848-4.78711,4.06835,0,6.01171,2.4834,6.2998,5.03907h-1.7998a4.24233,4.24233,0,0,0-4.57129-3.38282c-3.13184,0-4.03125,1.54688-4.03125,2.98731,0,1.65527.86328,2.4834,4.42675,3.34765,5.0752,1.22364,6.335,2.87989,6.335,5.57911,0,3.27539-2.66308,5.291-6.44238,5.291-4.10351,0-6.40722-2.15918-6.91113-5.39941Z"/><path class="cls-2" d="M399.6709,340.87207h1.7998v3.49121h-1.7998Zm0,8.53027h1.7998v17.99805h-1.7998Z"/><path class="cls-2" d="M404.92676,349.40234h3.34765v-5.61523h1.79981v5.61523h4.2832v1.69239h-4.2832V362.793c0,2.01562.43164,3.168,2.15918,3.168a6.78277,6.78277,0,0,0,1.87207-.2168v1.584a6.31737,6.31737,0,0,1-2.23145.32421c-2.30371,0-3.59961-1.15136-3.59961-4.03125V351.09473h-3.34765Z"/><path class="cls-2" d="M418.6416,349.40234c3.63574,10.29493,5.21973,14.543,5.832,16.48633h.03516c.7207-2.19629,2.16016-6.37109,5.65137-16.48633h1.87207l-6.76758,19.042c-1.90723,5.32714-3.20313,6.51464-6.44238,6.51464a11.96014,11.96014,0,0,1-1.65625-.10742v-1.7998a11.80615,11.80615,0,0,0,1.62011.1084c2.5918,0,3.41895-1.26075,4.751-4.96778l-6.875-18.79Z"/><path class="cls-2" d="M148.77246,407.17969a20.58822,20.58822,0,0,0,.25195,3.41992h-1.72753a11.81077,11.81077,0,0,1-.32374-2.77148c-.6123,1.332-2.1958,3.20312-5.90332,3.20312-4.17578,0-5.97558-2.69922-5.97558-5.39941,0-3.959,3.05957-5.75879,8.459-5.75879h3.41992v-1.83594c0-1.79981-.54-4.21094-4.64355-4.21094-3.63574,0-4.17578,1.90723-4.57129,3.38281h-1.7998c.21582-1.97949,1.43945-5.03906,6.40722-5.03906,4.103,0,6.40674,1.72754,6.40674,5.6875Zm-1.76367-5.75879h-3.52734c-3.99561,0-6.4795,1.04394-6.4795,4.13965,0,2.26758,1.62012,3.81543,4.13965,3.81543,5.14746,0,5.86719-3.41993,5.86719-7.30762Z"/><path class="cls-2" d="M154.71436,397.1377c0-1.584,0-3.09571-.03614-4.53614h1.76367c.07227.57617.1084,2.916.07227,3.41992a5.87811,5.87811,0,0,1,5.9751-3.85156c3.20361,0,6.04736,1.79981,6.04736,6.76758v11.66211h-1.7998v-11.375c0-3.20313-1.332-5.291-4.46338-5.291-4.28369,0-5.75928,3.56348-5.75928,7.48731v9.17871h-1.7998Z"/><path class="cls-2" d="M188.33594,384.07129V405.416c0,1.72851,0,3.38378.03613,5.18359h-1.72754c-.07226-.43164-.1084-2.124-.1084-3.02344-.8999,2.19531-2.91552,3.45508-6.04687,3.45508-4.67969,0-7.48731-3.81543-7.48731-9.21484,0-5.543,3.05957-9.64649,7.95508-9.64649,3.59961,0,5.03955,1.54785,5.5791,2.69922V384.07129Zm-13.42627,17.67383c0,4.93066,2.55566,7.59472,5.65137,7.59472,4.75146,0,6.04736-3.27539,6.04736-8.17089,0-4.64356-1.11572-7.30762-5.72315-7.30762C177.32129,393.86133,174.90967,396.70508,174.90967,401.74512Z"/><path class="cls-2" d="M216.84717,405.30859c-.86377,3.167-2.95166,5.72266-6.98291,5.72266-4.49951,0-7.70313-3.34766-7.70313-9.3584,0-4.93164,2.62793-9.50293,7.91895-9.50293a6.43456,6.43456,0,0,1,6.76709,5.75977h-1.83545c-.54-2.08789-1.90772-4.06836-4.96729-4.06836-3.81591,0-5.97558,3.24023-5.97558,7.73926,0,4.2832,2.01611,7.73925,5.79541,7.73925,2.62744,0,4.21142-1.332,5.14746-4.03125Z"/><path class="cls-2" d="M235.78271,401.56445c0,5.00391-2.77148,9.4668-8.13476,9.4668-4.85938,0-7.8833-3.99512-7.8833-9.43066,0-5.14746,2.84375-9.43067,8.063-9.43067C232.61523,392.16992,235.78271,395.91309,235.78271,401.56445Zm-14.11035.03614c0,4.2832,2.30371,7.73925,6.11914,7.73925,3.8877,0,6.0835-3.2041,6.0835-7.73925,0-4.24707-2.15967-7.73926-6.15527-7.73926C223.61621,393.86133,221.67236,397.28125,221.67236,401.60059Z"/><path class="cls-2" d="M240.24805,397.1377c0-1.584,0-3.09571-.03614-4.53614h1.76368c.07226.57617.10839,2.916.07226,3.41992a5.87811,5.87811,0,0,1,5.9751-3.85156c3.20361,0,6.04736,1.79981,6.04736,6.76758v11.66211h-1.7998v-11.375c0-3.20313-1.332-5.291-4.46338-5.291-4.28369,0-5.75928,3.56348-5.75928,7.48731v9.17871h-1.7998Z"/><path class="cls-2" d="M257.16846,392.60156h3.34765v-5.61523h1.79981v5.61523h4.2832V394.294h-4.2832v11.69824c0,2.01562.43164,3.168,2.15967,3.168a6.77729,6.77729,0,0,0,1.87158-.2168v1.584a6.31883,6.31883,0,0,1-2.23145.32422c-2.30371,0-3.59961-1.15136-3.59961-4.03125V394.294h-3.34765Z"/><path class="cls-2" d="M269.94824,397.49707c0-3.02344-.03613-4.31934-.03613-4.89551h1.76367c.03613.57617.07227,1.72852.07227,4.03223a6.81759,6.81759,0,0,1,6.26318-4.46387v1.94336c-3.74365.252-6.26318,2.84375-6.26318,7.12793v9.3584h-1.79981Z"/><path class="cls-2" d="M281.32373,384.07129h1.79981v3.49121h-1.79981Zm0,8.53027h1.79981v17.998h-1.79981Z"/><path class="cls-2" d="M289.02734,384.07129h1.79981V395.625c.86377-1.79883,2.62744-3.45508,6.15527-3.45508,4.24756,0,7.37891,3.49121,7.37891,9.03516,0,5.68652-2.80762,9.82617-7.84717,9.82617-3.02344,0-4.751-1.22363-5.687-3.27539,0,1.15234-.03613,2.33984-.07227,2.84375h-1.76367c.03613-2.05176.03613-4.10352.03613-6.15527Zm13.42627,17.16992c0-4.5-2.23193-7.37988-5.65136-7.37988-4.49952,0-6.083,3.05957-6.083,7.77539,0,4.24707,1.40381,7.70312,5.86719,7.70312C300.22168,409.33984,302.45361,406.31641,302.45361,401.24121Z"/><path class="cls-2" d="M322.28906,405.34473c0,1.76367.03614,4.57129.03614,5.25488h-1.72754a28.82218,28.82218,0,0,1-.1084-3.13184c-.75586,2.124-2.59082,3.56348-5.79492,3.56348-2.5918,0-5.90332-1.00781-5.90332-6.51465v-11.915h1.76367V404.084c0,2.62793.82812,5.1836,4.3916,5.1836,4.03125,0,5.543-2.26758,5.543-7.415v-9.251h1.7998Z"/><path class="cls-2" d="M325.92676,392.60156h3.34765v-5.61523h1.79981v5.61523h4.2832V394.294h-4.2832v11.69824c0,2.01562.43164,3.168,2.15918,3.168a6.78277,6.78277,0,0,0,1.87207-.2168v1.584a6.31714,6.31714,0,0,1-2.23145.32422c-2.30371,0-3.59961-1.15136-3.59961-4.03125V394.294h-3.34765Z"/><path class="cls-2" d="M339.0293,384.07129h1.7998v3.49121h-1.7998Zm0,8.53027h1.7998v17.998h-1.7998Z"/><path class="cls-2" d="M346.7334,397.1377c0-1.584,0-3.09571-.03516-4.53614h1.76367c.07129.57617.10743,2.916.07129,3.41992a5.87926,5.87926,0,0,1,5.97559-3.85156c3.2041,0,6.04687,1.79981,6.04687,6.76758v11.66211h-1.7998v-11.375c0-3.20313-1.33106-5.291-4.46289-5.291-4.2832,0-5.75977,3.56348-5.75977,7.48731v9.17871h-1.7998Z"/><path class="cls-2" d="M380.21191,409.376c0,5.75879-2.55566,8.78222-7.77539,8.78222-4.67968,0-6.623-2.627-7.05468-5.36328h1.83593c.64746,2.48438,2.69922,3.67188,5.291,3.67188,4.67969,0,5.97559-3.02344,5.97559-7.59473V407c-.97266,2.33984-2.73633,3.59961-6.01172,3.59961-4.21192,0-7.45118-3.41992-7.45118-8.999,0-6.04688,3.45606-9.43067,7.70313-9.43067,3.67187,0,5.25488,1.72754,5.75977,3.168.03515-1.04394.07128-2.30371.10742-2.73633h1.6914c0,.64844-.07129,3.49219-.07129,5.21973Zm-13.28222-7.84766c0,4.28418,2.26758,7.37988,5.72265,7.37988,4.5,0,5.86719-2.98828,5.86719-7.667,0-4.752-1.43945-7.37988-5.75879-7.37988C368.62109,393.86133,366.92969,397.4248,366.92969,401.52832Z"/><path class="cls-2" d="M145.17432,435.80176H148.522v-5.61524h1.79981v5.61524h4.2832v1.69238h-4.2832v11.69824c0,2.01563.43164,3.168,2.15967,3.168a6.777,6.777,0,0,0,1.87158-.2168v1.584a6.31906,6.31906,0,0,1-2.23145.32422c-2.30371,0-3.59961-1.15137-3.59961-4.03125V437.49414h-3.34765Z"/><path class="cls-2" d="M172.63965,444.76465c0,5.0039-2.77149,9.4668-8.13477,9.4668-4.85937,0-7.8833-3.99512-7.8833-9.43067,0-5.14746,2.84375-9.43066,8.063-9.43066C169.47217,435.37012,172.63965,439.11328,172.63965,444.76465Zm-14.11035.03613c0,4.2832,2.30371,7.73926,6.11914,7.73926,3.88769,0,6.08349-3.2041,6.08349-7.73926,0-4.24707-2.15966-7.73926-6.15527-7.73926C160.47314,437.06152,158.5293,440.48145,158.5293,444.80078Z"/><path class="cls-2" d="M200.35938,427.27148v21.34473c0,1.72754,0,3.38379.03613,5.18359H198.668c-.07227-.43164-.1084-2.124-.1084-3.02343-.8999,2.19531-2.91553,3.45508-6.04687,3.45508-4.67969,0-7.48731-3.81543-7.48731-9.21485,0-5.543,3.05957-9.64648,7.95508-9.64648,3.59961,0,5.03955,1.54785,5.5791,2.69922V427.27148Zm-13.42627,17.67383c0,4.93067,2.55566,7.59473,5.65136,7.59473,4.75147,0,6.04737-3.27539,6.04737-8.1709,0-4.64355-1.11573-7.30762-5.72315-7.30762C189.34473,437.06152,186.93311,439.90527,186.93311,444.94531Z"/><path class="cls-2" d="M206.66064,445.0166c.03614,4.64356,2.37549,7.52344,5.83106,7.52344a5.06841,5.06841,0,0,0,5.18359-3.38379h1.83545a6.89992,6.89992,0,0,1-7.09082,5.0752c-5.47119,0-7.59521-4.71485-7.59521-9.28614,0-5.14746,2.55566-9.57519,7.811-9.57519,5.54346,0,7.30713,4.78711,7.30713,8.1709,0,.5039,0,1.00781-.03613,1.47558Zm11.41065-1.583c-.03613-3.56445-1.98-6.37207-5.50733-6.37207-3.70751,0-5.39941,2.5918-5.79541,6.37207Z"/><path class="cls-2" d="M225.272,453.7998V437.49414h-3.0957v-1.69238h3.0957v-2.55567c0-3.02343.86426-6.335,4.89551-6.335a6.74032,6.74032,0,0,1,1.76367.252v1.72754a8.96262,8.96262,0,0,0-1.94385-.21583c-2.12353,0-2.91552,1.51172-2.91552,4.64356v2.4834h3.92383v1.69238h-3.92383V453.7998Z"/><path class="cls-2" d="M248.418,444.76465c0,5.0039-2.77149,9.4668-8.13477,9.4668-4.85937,0-7.8833-3.99512-7.8833-9.43067,0-5.14746,2.84375-9.43066,8.063-9.43066C245.25049,435.37012,248.418,439.11328,248.418,444.76465Zm-14.11035.03613c0,4.2832,2.30371,7.73926,6.11914,7.73926,3.88769,0,6.08349-3.2041,6.08349-7.73926,0-4.24707-2.15966-7.73926-6.15527-7.73926C236.25146,437.06152,234.30762,440.48145,234.30762,444.80078Z"/><path class="cls-2" d="M252.8833,440.69727c0-3.02344-.03613-4.31934-.03613-4.89551h1.76367c.03613.57617.07227,1.72851.07227,4.03222a6.81759,6.81759,0,0,1,6.26318-4.46386v1.94336c-3.74365.25195-6.26318,2.84375-6.26318,7.12793v9.35839H252.8833Z"/><path class="cls-2" d="M264.65527,445.0166c.03614,4.64356,2.37549,7.52344,5.83106,7.52344a5.06841,5.06841,0,0,0,5.18359-3.38379h1.83545a6.89992,6.89992,0,0,1-7.09082,5.0752c-5.47119,0-7.59521-4.71485-7.59521-9.28614,0-5.14746,2.55566-9.57519,7.811-9.57519,5.54346,0,7.30713,4.78711,7.30713,8.1709,0,.5039,0,1.00781-.03613,1.47558Zm11.41065-1.583c-.03613-3.56445-1.98-6.37207-5.50733-6.37207-3.70752,0-5.39941,2.5918-5.79541,6.37207Z"/><path class="cls-2" d="M282.76318,448.832c.61182,2.33985,2.26758,3.74414,5.11133,3.74414,3.20362,0,4.49951-1.47558,4.49951-3.49219,0-2.05175-.86377-3.05957-4.8955-4.03125-4.64356-1.11523-5.79541-2.51953-5.79541-4.8955,0-2.4834,1.87207-4.78711,5.93945-4.78711s6.01123,2.4834,6.29932,5.03906h-1.79981a4.24233,4.24233,0,0,0-4.57129-3.38281c-3.13183,0-4.03174,1.54687-4.03174,2.9873,0,1.65528.86377,2.4834,4.42725,3.34766,5.07568,1.22363,6.33545,2.87988,6.33545,5.5791,0,3.27539-2.66358,5.291-6.44336,5.291-4.10352,0-6.40723-2.15918-6.91113-5.39942Z"/><path class="cls-2" d="M295.939,435.80176h3.34766v-5.61524h1.79981v5.61524h4.2832v1.69238h-4.2832v11.69824c0,2.01563.43164,3.168,2.15966,3.168a6.777,6.777,0,0,0,1.87159-.2168v1.584a6.31906,6.31906,0,0,1-2.23145.32422c-2.30371,0-3.59961-1.15137-3.59961-4.03125V437.49414H295.939Z"/><path class="cls-2" d="M321.38867,450.37988a20.64192,20.64192,0,0,0,.252,3.41992h-1.72754a11.85646,11.85646,0,0,1-.32422-2.77148c-.61133,1.332-2.19532,3.20313-5.90283,3.20313-4.17579,0-5.97559-2.69922-5.97559-5.39942,0-3.959,3.05957-5.75879,8.459-5.75879h3.41944V441.2373c0-1.7998-.54-4.21093-4.64307-4.21093-3.63574,0-4.17578,1.90722-4.57129,3.38281h-1.7998c.21582-1.97949,1.43945-5.03906,6.40722-5.03906,4.103,0,6.40674,1.72754,6.40674,5.6875Zm-1.76367-5.75879h-3.52734c-3.99561,0-6.4795,1.04395-6.4795,4.13965,0,2.26758,1.62012,3.81543,4.13965,3.81543,5.14746,0,5.86719-3.41992,5.86719-7.30762Z"/><path class="cls-2" d="M324.45117,435.80176h3.34766v-5.61524h1.7998v5.61524h4.28321v1.69238h-4.28321v11.69824c0,2.01563.43164,3.168,2.15918,3.168a6.78239,6.78239,0,0,0,1.87207-.2168v1.584a6.31731,6.31731,0,0,1-2.23144.32422c-2.30371,0-3.59961-1.15137-3.59961-4.03125V437.49414h-3.34766Z"/><path class="cls-2" d="M337.55371,427.27148h1.79981v3.49122h-1.79981Zm0,8.53028h1.79981v17.998h-1.79981Z"/><path class="cls-2" d="M359.83594,444.76465c0,5.0039-2.77246,9.4668-8.13574,9.4668-4.85938,0-7.88282-3.99512-7.88282-9.43067,0-5.14746,2.84375-9.43066,8.06348-9.43066C356.668,435.37012,359.83594,439.11328,359.83594,444.76465Zm-14.11035.03613c0,4.2832,2.30371,7.73926,6.11914,7.73926,3.88769,0,6.083-3.2041,6.083-7.73926,0-4.24707-2.16015-7.73926-6.15527-7.73926C347.669,437.06152,345.72559,440.48145,345.72559,444.80078Z"/><path class="cls-2" d="M364.30078,440.33789c0-1.584,0-3.0957-.03515-4.53613h1.76367c.07129.57617.10742,2.916.07129,3.41992a5.87922,5.87922,0,0,1,5.97558-3.85156c3.2041,0,6.04688,1.7998,6.04688,6.76758v11.6621h-1.79883v-11.375c0-3.20312-1.332-5.291-4.46387-5.291-4.2832,0-5.75976,3.56348-5.75976,7.4873v9.17871h-1.79981Z"/><polygon class="cls-3" points="254.908 23.405 232.788 61.718 277.028 61.718 254.908 23.405"/><polygon class="cls-3" points="257.908 250.28 280.028 211.966 235.788 211.966 257.908 250.28"/><polygon class="cls-3" points="313.15 79.517 310.968 35.331 273.792 59.313 313.15 79.517"/><polygon class="cls-3" points="196.43 39.625 198.612 83.811 235.788 59.828 196.43 39.625"/><polygon class="cls-3" points="334.494 117.75 356.614 79.437 312.374 79.437 334.494 117.75"/><polygon class="cls-3" points="182.654 120.604 204.774 82.291 160.534 82.291 182.654 120.604"/><polygon class="cls-3" points="335.087 153.071 371.269 127.613 331.13 109.008 335.087 153.071"/><polygon class="cls-3" points="314.96 191.776 359.101 188.81 334.463 152.066 314.96 191.776"/><polygon class="cls-3" points="280.028 212.832 320.92 229.715 315.095 185.86 280.028 212.832"/><polygon class="cls-3" points="182.576 159.566 143.22 139.359 180.398 115.379 182.576 159.566"/><polygon class="cls-3" points="207.866 195.113 163.739 198.285 183.056 158.484 207.866 195.113"/><polygon class="cls-3" points="243.236 215.317 205.074 237.696 204.774 193.456 243.236 215.317"/><circle class="cls-4" cx="257.95467" cy="136.5" r="79.07604"/></svg>