<svg id="Layer_1" data-name="Layer 1" xmlns="http://www.w3.org/2000/svg" viewBox="0 0 340.08027 215.85393"><defs><style>.cls-1{fill:#27b9d0;}.cls-2{fill:#756f41;}.cls-3{fill:#9cb66e;}</style></defs><title>contaminated river</title><path class="cls-1" d="M202.5923,211.95506s-7.626-29.52809,75.69983-57.43821,58.2472-99.50561,58.2472-99.50561S248.35955,8.49438,326.83146,0H295.2809s-52.98877,8.51685-62.29214,22.46067,7.5382,39.83146,7.5382,39.83146,20.37192,13.34832-58.50449,24.26967S61.16854,95.86517,41.50562,122.96629,0,215.85393,0,215.85393Z"/><path class="cls-2" d="M89.8409,172.39805a19.7161,19.7161,0,0,1-6.01571-10.72577c-.65588-4.11855.626-8.66315,3.83579-11.32589,3.40244-2.82258,8.24861-3.12429,12.6283-2.52267s8.67214,1.96981,13.09285,1.99965a22.08339,22.08339,0,0,0,16.5662-7.47385c1.56485-1.7971,2.87778-3.89055,4.88228-5.17908,2.28691-1.47008,5.13468-1.67809,7.84827-1.844l20.09723-1.22881c7.02274-.4294,14.38626-.79824,20.76251,2.17607,5.11953,2.3881,9.93087,6.94435,15.48993,5.93968,2.72169-.49189,4.99824-2.2764,7.45781-3.54133s5.623-1.96442,7.86827-.34935a7.27176,7.27176,0,0,1,2.29221,3.23348c3.54381,8.59537-.59611,18.27335-4.8669,26.53164a8.64238,8.64238,0,0,1-2.85952,3.6719c-3.08876,1.86469-6.85436-.58984-10.34-1.52148-11.73185-3.13569-21.1324,11.47274-33.22411,12.595-8.29652.77-17.11723-4.94434-24.5577-1.19407-3.6624,1.846-6.11475,5.70626-9.97172,7.10074-3.43628,1.24238-7.24537.26272-10.71283-.88975a113.4506,113.4506,0,0,1-31.80676-16.55537"/><path class="cls-3" d="M267.90733,93.659a12.918,12.918,0,0,1,6.40612-24.85846,10.08247,10.08247,0,0,0,3.30916.23671c2.37152-.4648,3.673-3.21754,3.49705-5.62776s-1.40267-4.59381-2.36585-6.81021c-1.954-4.49631-2.86589-9.72093-1.09228-14.29139s6.8285-8.04945,11.5795-6.84c6.70406,1.70666,8.74581,10.59159,14.65972,14.18084,4.95749,3.00878,11.344,1.608,16.9965,2.90371a6.95414,6.95414,0,0,1,5.95091,5.6186c1.90761,6.62612-.12344,13.91868,1.86,20.52251.83972,2.79585,2.37511,5.36558,2.99824,8.21753,1.35,6.17873-1.87922,12.58774-6.43,16.9798a30.9632,30.9632,0,0,1-16.769,8.27619c-16.23665,2.44191-32.03565-8.72923-40.3344-22.89688"/><path class="cls-3" d="M269.16913,91.50033c-8.01086-3.61579-9.64506-14.57441-1.33839-19.05355,5.267-2.84011,12.2906,1.69707,15.14617-5.34852,2.54424-6.27743-3.41713-12.225-3.733-18.43013-.21759-4.27362,1.48042-8.97328,5.85409-10.46421,4.3487-1.48242,7.24705,1.74937,9.60955,4.91268,3.375,4.519,6.33306,8.88174,12.11062,10.37709,3.31844.85888,6.75156.6931,10.13531,1.01647,2.82963.27042,4.74057.47408,6.45991,2.76839,1.82179,2.431,1.78545,5.62473,1.83368,8.55741a77.86217,77.86217,0,0,0,.35643,10.16917c.65918,4.45182,3.41519,8.34333,3.80182,12.78734.8111,9.32283-8.19145,16.84314-16.19241,19.63447-17.27375,6.02638-34.24474-6.15906-42.88118-20.41853-1.66482-2.74875-5.99031-.23859-4.31736,2.52359,9.022,14.896,25.71987,27.2142,43.937,23.90743,8.8111-1.5994,17.471-7.02235,21.8608-14.96631A19.44331,19.44331,0,0,0,334.40571,88.127c-.62028-6.029-4.02871-10.80473-4.14934-17.08275-.16019-8.33662.782-18.95789-9.4736-21.04839-5.03177-1.02568-11.06114.25824-15.62022-2.50577-3.72816-2.26025-5.60905-6.67278-8.42243-9.84875-4.80644-5.4259-12.1758-6.60992-17.78224-1.48121-6.75561,6.18-4.99627,15.56275-1.76373,23.029a14.21151,14.21151,0,0,1,1.29366,3.464c.51395,3.80669-1.412,3.507-4.17436,3.64747-2.38525.12131-4.23219-.04549-6.5722.771a16.20167,16.20167,0,0,0-8.92692,7.54738c-4.1656,7.85037-.00253,17.66294,7.8312,21.19879,2.90974,1.31335,5.455-2.99424,2.5236-4.31735Z"/></svg>