<svg id="Layer_1" data-name="Layer 1" xmlns="http://www.w3.org/2000/svg" viewBox="0 0 366.39756 164.54503"><defs><style>.cls-1{fill:#939598;}.cls-2{fill:#fbf7c1;stroke:#fbf7c1;}.cls-2,.cls-3,.cls-4{stroke-miterlimit:10;}.cls-3{fill:#f9ed32;stroke:#f9ed32;}.cls-4{fill:#58595b;stroke:#58595b;}</style></defs><title>cooked fish</title><path class="cls-1" d="M0,56.54208s155.46926-127.21968,298.86463,0c0,0,47.81256-26.668,56.69486-22.73342s-27.84091,48.96428-27.84091,48.96428,41.96938,22.29623,38.47193,31.477S299.739,99.38582,299.739,99.38582,78.42258,161.02834,0,56.54208Z"/><circle class="cls-2" cx="205.73901" cy="121.22308" r="42.82195"/><path class="cls-3" d="M192.94387,88.6229s15.35416-5.51175,25.59027,0l-12.60375,27.95244Z"/><path class="cls-4" d="M122.5798,21.5676s9.07991,29.50971,0,75.63231C122.5798,97.19991,113.95388,65.94147,122.5798,21.5676Z"/><path class="cls-4" d="M143.56145,21.5676s9.07991,29.50971,0,75.63231C143.56145,97.19991,134.93553,65.94147,143.56145,21.5676Z"/><path class="cls-4" d="M162.54979,20.90645s9.07992,29.50972,0,75.63231C162.54979,96.53876,153.92387,65.28032,162.54979,20.90645Z"/><path class="cls-3" d="M170.72829,116.41394s2.90377-16.053,12.79514-22.16182l17.90564,24.8914Z"/><path class="cls-3" d="M183.61911,148.4879s-12.4504-10.54122-12.79513-22.16182l30.5094-3.061Z"/><path class="cls-3" d="M218.53414,152.43886s-15.35416,5.51174-25.59027,0l12.60377-27.95244Z"/><path class="cls-3" d="M240.60342,126.16035s-2.90377,16.053-12.79514,22.16182l-17.90564-24.8914Z"/><path class="cls-3" d="M227.71261,94.08639s12.45039,10.54123,12.79512,22.16183l-30.50941,3.061Z"/></svg>