<svg id="Layer_1" data-name="Layer 1" xmlns="http://www.w3.org/2000/svg" viewBox="0 0 223.78935 228.49497"><defs><style>.cls-1{fill:#f6accc;}.cls-2{fill:#ee2f52;}.cls-3{fill:#8dc03f;}.cls-4{fill:#7bac41;}</style></defs><title>coral</title><path class="cls-1" d="M124.8635,26.549c.87076-1.72845,3.28919-1.84833,5.18545-1.46111a12.09383,12.09383,0,0,1,5.17929,2.21341,2.28487,2.28487,0,0,1,1.03233,1.64952l-.063-.02268c.05185-1.19945-1.32636-1.88158-2.47575-2.22838-2.09685-.63269-4.4194-1.183-6.418-.28707a6.51089,6.51089,0,0,0-3.42527,5.576,17.81556,17.81556,0,0,0,1.23308,6.71757c2.59735,7.9049,5.90308,15.79337,11.53419,21.91907,1.83842,1.99989,3.99511,3.94174,4.63892,6.58084-2.43232-.16125-4.71455-1.20117-7.10562-1.67545s-5.207-.22632-6.75867,1.65371c-2.198,2.66312-.58674,6.68323,1.38927,9.51494a47.48635,47.48635,0,0,0,16.59377,14.69739c4.51039,2.39535,9.81983,4.45278,11.93265,9.10222a18.812,18.812,0,0,1,1.18324,7.33666l.20643,7.68357a16.818,16.818,0,0,0-4.76012-3.00271,5.69889,5.69889,0,0,0-5.383.60134c-1.796,1.43648-2.1037,4.021-2.0937,6.32073a44.63575,44.63575,0,0,0,.84982,8.47347l.0465-.27551a6.01222,6.01222,0,0,1,1.723,8.577,3.1667,3.1667,0,0,0-.29843-3.8428,9.25421,9.25421,0,0,0-3.43636-2.29538l-5.87021-2.74977a4.42565,4.42565,0,0,0-2.50721-.6115c-1.65593.26774-2.41584,2.22733-2.54214,3.9-.59579,7.89079,5.73072,14.652,12.51314,18.72853-2.93178-1.84969-7.11909.62836-7.99462,3.98248s.67813,6.89316,2.78977,9.64229a24.92993,24.92993,0,0,0,23.68591,9.14435,200.547,200.547,0,0,0-10.775,31.88368c-2.52174-2.66334-2.73-6.67613-3.64871-10.227-2.88086-11.13422-13.368-18.56451-23.86262-23.26915,1.24574-4.07684,2.50592-8.301,1.99123-12.53271-.74053-6.08853-4.967-11.07324-8.67379-15.95975s-7.21459-10.72242-6.174-16.76691c.88753-5.15561,4.91739-9.2458,6.36272-14.27364a3.363,3.363,0,0,0,.11909-1.936,3.55816,3.55816,0,0,0-1.39654-1.6229,28.641,28.641,0,0,0-7.78652-4.127,5.75465,5.75465,0,0,1-2.73882-1.491,4.99472,4.99472,0,0,1-.8184-2.98285c-.38471-8.32069,1.123-17.05345-2.13982-24.71737-1.20789-2.83712-3.23156-5.5462-6.15161-6.537s-6.73544.41869-7.49751,3.40658a9.07737,9.07737,0,0,0,.31867,4.31376l1.67945,7.015c-1.11654-2.91337-5.38571-3.54051-7.92365-1.7258s-3.5169,5.17094-3.52448,8.29092A18.70672,18.70672,0,0,0,90.218,103.65572a48.76146,48.76146,0,0,1-11.97808,3.47976l.84493.24833a9.5848,9.5848,0,0,1-4.55692.76894c-3.9669-.30814-7.46441-3.05234-11.44036-3.20433l-.79586.16555A245.90027,245.90027,0,0,0,65.532,68.79334c.04073-2.76487.0058-5.65539-1.27467-8.10622-1.03454-1.98009-2.77954-3.47167-4.35762-5.053a39.84078,39.84078,0,0,1-8.28706-12.16447c-1.41443-3.23921-2.19269-7.5096.40421-9.90736,2.56169-2.36525,6.86567-1.24463,9.461,1.0837s4.19436,5.57006,6.60486,8.08921l-.035-15.22457a21.63969,21.63969,0,0,1,.82066-7.30766,7.33613,7.33613,0,0,1,5.0529-4.94286c3.52991-.72331,6.927,2.3503,7.92318,5.8131s.24873,7.15544-.42658,10.69484-1.25633,7.30016.03635,10.66355a13.09,13.09,0,0,1,5.58738-4.98828,3.452,3.452,0,0,1,1.58955-.4134,3.1812,3.1812,0,0,1,1.92117.96318c3.51486,3.23548,3.25415,9.03243,1.09469,13.29381s-5.78089,7.57066-8.62374,11.41a36.84582,36.84582,0,0,0-5.54772,32.11531l-.11494-.87095q.37943,6.09766,1.24146,12.15247l12.262-2.96015c2.40764,1.93885,3.26329,5.2927,3.06392,8.37752S92.642,117.54179,91.81358,120.52a55.13677,55.13677,0,0,0-1.97734,16.72941,7.70818,7.70818,0,0,0,1.31109,4.74223,11.6806,11.6806,0,0,0,2.739,2.036c6.96044,4.58408,8.35993,14.38046,6.75174,22.55819s-5.48658,15.82747-6.57827,24.09a58.31421,58.31421,0,0,0-.1722,11.25849,24.3505,24.3505,0,0,0,1.56535,8.24346c2.572,5.92242,8.9898,9.12559,15.13218,11.11592a91.02706,91.02706,0,0,0,40.13468,3.31786c3.60811-.48865,7.37691-1.26173,10.12718-3.64778,3.25422-2.82326,4.42712-7.312,5.22469-11.54571,1.6644-8.83521,2.45808-17.92414,5.67262-26.32044,6.75142-17.63458,23.32712-30.11789,30.04782-47.7642,3.68673-9.6801,4.13978-20.24166,4.60582-30.58957.20034-4.44833.41974-8.95005,1.7122-13.2112s3.79028-8.32423,7.61652-10.60189l.426-.59627a58.79233,58.79233,0,0,0,1.93545-37.5118c-.54946-1.93638-1.37518-4.04886-3.20723-4.88258-1.93043-.87848-4.29832.09136-5.67919,1.70117a14.88788,14.88788,0,0,0-2.58687,5.75615L201.39007,31.094A6.63532,6.63532,0,0,0,199.25,27.66742a4.238,4.238,0,0,0-2.6495-.62911c-3.335.22045-5.91684,3.37706-6.45632,6.67547s.53609,6.648,1.92117,9.68973c-2.61874-2.36895-7.15544-1.42771-9.35919,1.33149s-2.40846,6.68875-1.48578,10.09733,2.82194,6.45359,4.542,9.53762a103.37051,103.37051,0,0,1,8.06214,18.50457l-.32212.7827c-2.41372-1.21865-5.46168-.55609-7.625,1.06606a15.94109,15.94109,0,0,0-4.66914,6.52251c-2.609-1.2389-2.2496-5.27368-4.32343-7.284-2.062-1.99878-5.439-1.16556-8.15763-.24042a1.84733,1.84733,0,0,1-1.31057.10736c-.54409-.23786-.71891-.91048-.81958-1.4957a71.289,71.289,0,0,1,8.4184-47.24412c1.05519-1.83006,2.22822-3.99662,1.38337-5.93279-.77921-1.78576-3.07712-2.505-4.97378-2.05909a10.56117,10.56117,0,0,0-4.82548,3.15778,41.38179,41.38179,0,0,0-5.32419,6.589,127.00139,127.00139,0,0,0-4.93285-26.7614c-.565-1.89535-1.24187-3.88157-2.754-5.15638-1.70327-1.436-4.0871-1.66108-6.309-1.82308a10.86529,10.86529,0,0,0-5.25921.4842c-3.01571,1.354-4.11884,5.03946-4.52717,8.31988a46.97822,46.97822,0,0,0,1.55718,19.038,1.8261,1.8261,0,0,1-1.78387-1.43619"/><path class="cls-1" d="M126.63127,28.31679c1.26678-1.56211,6.54242-.6504,7.2186,1.29865l3.07529-3.0753-.063-.02267,1.7461,1.74609c-1.39586-3.97073-6.48221-5.37642-10.41794-4.68365-4.955.87218-7.17051,5.83625-6.74265,10.44894.54993,5.92866,3.50114,12.27546,6.13978,17.563a48.62406,48.62406,0,0,0,4.9629,8.00813c2.04866,2.65911,5.20393,5.048,6.3237,8.27081l3.0753-3.07529c-5.29043-.7733-12.59-4.45365-16.68757,1.12715-3.64641,4.96633.50474,11.16219,3.69759,15.10093a51.79188,51.79188,0,0,0,16.42925,13.179c3.17834,1.6633,7.12534,3.18775,9.13637,6.35227,2.51846,3.963,1.58031,10.4784,1.70083,14.9644l4.26776-1.76777c-3.76185-2.96512-9.24063-6.23658-13.67866-2.40137-4.548,3.9302-2.78482,12.18908-1.88681,17.22657.42336,2.37489,4.4166,2.39858,4.82139,0l.0465-.27551-3.6725,1.49408q2.71284,2.40576.82607,5.15651l4.56938,1.92639c2.05848-5.03476-2.38425-7.76894-6.35125-9.64888-3.71333-1.75974-8.88579-5.2269-11.97956-.60679-2.47487,3.69586-1.12132,9.25871.69769,12.92233,2.55239,5.14069,7.03989,8.95061,11.81941,11.9565l2.5236-4.31735a8.08942,8.08942,0,0,0-10,2.305c-3.08479,3.76027-2.14107,8.95947.12714,12.86485,5.57043,9.59115,17.18333,13.72449,27.7567,12.16867l-2.82327-3.6725a215.83064,215.83064,0,0,0-11.02705,32.48088l4.17846-1.10317c-2.622-3.29178-2.45851-8.12542-3.92485-11.945a30.28426,30.28426,0,0,0-5.1709-8.59711c-5.02479-5.98342-11.90283-10.11725-18.92154-13.34492l1.1489,2.82328c1.90428-6.314,3.218-12.52168.59279-18.83425-2.68445-6.45495-8.06611-11.1305-11.28308-17.25635-2.6386-5.02449-2.78855-9.36272-.21149-14.3751,1.301-2.53038,2.924-4.89294,3.9025-7.58508,2.17682-5.98933-2.123-8.63446-7.24825-10.99675-1.86791-.86093-3.86-1.0695-4.77823-3.3099-.56237-1.37218-.06663-3.972-.05218-5.39121a100.02713,100.02713,0,0,0-.20875-11.65158c-.57042-5.35067-2.17508-11.54308-6.73046-14.94181-3.419-2.5509-8.24488-2.88959-11.55553.077-4.51485,4.0456-1.31506,11.20605-.1546,16.05324l4.56938-1.92639c-3.67409-6.4982-12.29343-4.21806-14.94332,1.91407-3.417,7.90732.678,17.37583,6.979,22.48375L89.5534,101.245a56.04741,56.04741,0,0,1-11.97807,3.47976c-2.54665.44428-2.20691,4.17276,0,4.82139l.84492.24834v-4.8214c-6.11584,2.09194-10.81316-3.51371-16.79314-2.26984l3.07529,3.0753c1.25486-7.81,2.21158-15.65978,2.76365-23.55205.47385-6.774,2.19118-15.82622-.79806-22.204-1.15821-2.47115-3.13774-4.21368-5.00054-6.15621A39.03138,39.03138,0,0,1,54.46084,43.7011c-.746-1.56112-1.82428-3.73208-1.65036-5.5007.49543-5.0381,4.71183-3.47915,6.89954-1.78667,2.64192,2.04385,4.397,5.59,6.60486,8.08921,1.46444,1.65765,4.27255.30923,4.26777-1.76777q-.01533-6.66072-.03066-13.3215c-.00317-3.966-.16279-14.30794,6.40114-10.87559,4.87919,2.55138,2.39461,10.18545,1.73239,14.35063a22.6206,22.6206,0,0,0,.35791,10.20746,2.53362,2.53362,0,0,0,4.56937.5972c1.382-1.98046,2.49632-3.57177,4.845-2.90648,2.11973.60043,2.2682,2.10194,2.28068,4.122a14.03761,14.03761,0,0,1-2.88186,7.83234c-3.17649,4.66842-7.33054,8.39226-9.95083,13.47259a40.13161,40.13161,0,0,0-2.841,29.263c.72688,2.60918,5.29019,2.21118,4.9107-.6646l-.11494-.87095c-.40771-3.08962-5.22314-3.28557-5,0,.29151,4.2921.74846,8.55537,1.33076,12.81707.187,1.36876,1.90536,2.02853,3.07529,1.7461l12.262-2.96015-2.43236-.64293c5.65768,5.50321-.44171,16.318-1.29579,22.97524-.66228,5.16216-1.91268,12.68679,2.40187,16.66143,2.24471,2.06786,4.64357,3.08948,6.22386,5.88362a20.2446,20.2446,0,0,1,2.31008,9.49626c.187,7.72889-3.20287,15.00377-5.33425,22.27886-3.32688,11.35569-4.90951,28.12216,5.63768,36.179,10.54083,8.052,26.91539,9.7317,39.71382,9.60279,6.49239-.0654,14.032-.18519,20.06335-2.87373,5.39139-2.40326,7.943-7.38213,9.22141-12.89352,1.72328-7.42942,2.28517-15.07871,4.22561-22.469a62.53936,62.53936,0,0,1,9.74846-20.01616c7.42776-10.61606,16.66174-20.1555,21.62431-32.30846,2.82117-6.90884,4.00639-14.28461,4.62991-21.68554.64945-7.70873-.103-16.09213,2.25424-23.5349a18.86221,18.86221,0,0,1,2.891-5.75616c1.23063-1.62552,3.00257-2.49225,4.27807-3.99555,1.60807-1.89526,2.16292-4.88032,2.815-7.20743A61.5686,61.5686,0,0,0,222.316,51.3298c-.58012-4.81068-1.24341-13.76612-6.7705-15.80036-6.25139-2.30083-9.88466,4.314-11.34136,9.20341h4.8214c-1.93431-5.29543-3.42329-11.17173-5.98825-16.19059a6.92962,6.92962,0,0,0-8.31419-3.6998c-9.02466,2.47134-7.58774,13.343-4.81644,19.82285l3.42048-3.42048c-7.72075-5.34329-15.42485,2.67369-15.10121,10.57773.20785,5.07622,3.00721,9.49571,5.37773,13.80919a106.22422,106.22422,0,0,1,4.70608,9.6069c.68352,1.60829,3.40563,6.23848,2.78192,7.754l3.0753-1.7461c-7.02251-2.561-12.322,2.83145-15.11738,8.73747l3.42048-.89688c-2.73671-1.88792-1.99-6.30942-5.45487-8.06a8.48715,8.48715,0,0,0-4.693-.69031c-.92006.08318-1.95807.54034-2.85459.53172l-.45989.8-.40063-2.67539a69.52123,69.52123,0,0,1,3.5376-31.75575c1.69279-4.76693,4.6882-8.95579,6.37359-13.66047,1.05105-2.934.72527-5.96569-1.94547-7.863-6.98237-4.96043-14.15279,5.01446-17.45614,9.8682l4.65867,1.2618a132.80862,132.80862,0,0,0-4.51541-25.68044c-1.82473-6.37712-4.32838-9.87064-11.30749-10.50344-16.703-1.51449-14.248,20.26816-11.31282,30.94969l3.07529-3.0753-.28978-.28728c-1.68983-2.7312-6.01681-.22317-4.31736,2.52359a4.95725,4.95725,0,0,0,3.27795,2.58508c1.83754.64784,3.553-1.337,3.07529-3.07529a46.88035,46.88035,0,0,1-1.76867-14.88978c.10424-2.03033.09468-4.66049,1.02821-6.536,1.48483-2.98319,6.04119-4.26223,9.23558-2.888,4.72269,2.03163,5.48182,9.952,6.44773,14.46419a128.60991,128.60991,0,0,1,2.37148,16.41307,2.523,2.523,0,0,0,4.65868,1.2618,31.38378,31.38378,0,0,1,4.93328-6.083,8.21276,8.21276,0,0,1,4.2285-2.55405q2.70384,1.98726.26094,4.35858a104.7644,104.7644,0,0,0-4.64869,9.70939,74.08562,74.08562,0,0,0-5.03164,23.66481,71.74737,71.74737,0,0,0,.43068,11.79173c.264,2.23442.19215,5.75712,2.54771,6.99436,3.63376,1.90861,6.70565-3.43709,9.91068,1.50044,1.48479,2.28741,1.4276,4.22414,3.88095,5.91658a2.51027,2.51027,0,0,0,3.42048-.89688c1.80152-3.80619,4.56127-8.23006,9.47082-6.43966,1.37719.50223,2.59641-.58249,3.07529-1.7461.97026-2.35753-.66628-5.10376-1.51512-7.30977-1.28738-3.34572-2.72774-6.63533-4.33269-9.84071-1.87866-3.752-4.46777-7.36764-5.8968-11.32775-1.53039-4.241-.295-15.07753,6.6351-10.28141,2.30429,1.59473,4.28607-1.39654,3.42048-3.42047-1.16032-2.71305-2.38467-6.02032-1.37363-8.98813,1.40125-4.11323,4.35035-4.15511,6.45557-.501,2.25488,3.91391,3.345,9.15736,4.89818,13.40946a2.523,2.523,0,0,0,4.8214,0c.58911-1.97736,2.00066-8.257,6.28322-3.74606.76938.8104.98532,3.49548,1.21441,4.54232a55.14881,55.14881,0,0,1,1.25088,11.404c.04263,5.99732-.26343,16.81306-4.53558,21.33291-3.80911,4.03-6.59553,7.28664-7.97547,12.88144-1.64138,6.65483-1.34,13.71552-1.79485,20.509-.49235,7.35339-1.42734,14.761-4.08674,21.68311-2.48191,6.46013-6.433,12.25633-10.54363,17.77493-7.4914,10.05722-15.98457,19.61513-20.1158,31.67749-2.1409,6.251-3.069,12.81392-4.14052,19.30822-1.33,8.06077-2.19268,16.09189-11.42175,18.25191-14.40913,3.37239-33.14205,1.70277-46.549-4.58451-6.67839-3.13188-9.6645-7.7748-10.22311-15.16255-.65243-8.62853,1.08813-16.23939,3.74063-24.37082,3.307-10.13776,6.35878-22.44144-.79365-31.77913-1.51387-1.97641-3.4297-2.90949-5.15832-4.52738-3.39042-3.17325-1.86589-10.47638-1.18117-14.57326,1.13591-6.79643,5.27048-14.16065,2.55913-21.0748-1.55663-3.96954-3.605-5.30845-7.45535-4.37894l-10.16144,2.453,3.07529,1.7461c-.52169-3.81812-.89106-7.64364-1.15215-11.48787h-5l.11494.87095,4.91069-.66459a34.80564,34.80564,0,0,1,2.70514-26.12439c3.36925-6.16492,9.48412-10.61738,12.00678-17.269,1.77216-4.6727,1.72592-10.9535-2.27808-14.529-4.70966-4.20563-10.25369.97374-13.02454,4.94448l4.56937.59719c-2.073-7.12,2.49558-14.21015.39024-21.35839-1.23347-4.188-5.1026-7.95523-9.67735-7.69846-4.32585.2428-7.25489,3.77627-8.35819,7.71581-1.91488,6.83744-.65307,15.26748-.63687,22.30924l4.26777-1.76776c-4.202-4.75636-8.45129-13.05864-16.30416-10.97178-6.81645,1.81143-6.30877,9.574-4.09231,14.73579a41.07663,41.07663,0,0,0,6.45387,10.24765c1.82726,2.157,4.13771,3.90323,5.58684,6.34558,1.60264,2.70107,1.56879,5.363,1.51941,8.429A243.5282,243.5282,0,0,1,59.881,104.44937a2.53925,2.53925,0,0,0,3.07529,3.0753c2.59736-.54027,6.27776,1.99691,8.72232,2.62416a13.34286,13.34286,0,0,0,8.07083-.35432,2.52234,2.52234,0,0,0,0-4.8214l-.84493-.24833v4.82139a56.04676,56.04676,0,0,0,11.97808-3.47976c1.52725-.63267,2.73887-2.85246,1.10316-4.17846a17.14611,17.14611,0,0,1-6.26082-9.45314,13.95574,13.95574,0,0,1-.24837-5.60829c.48065-2.46745,4.14724-7.6519,6.62066-3.27727,1.41986,2.51124,5.22136.79693,4.56938-1.92639-.53055-2.21606-2.57-6.96818-2.06162-9.23319.49053-2.18552,3.277-2.98749,5.08532-2.15369a8.16861,8.16861,0,0,1,3.1555,3.33149c3.16464,5.30265,2.7629,12.103,2.67922,18.04057-.056,3.9705-1.116,9.75565,2.35679,12.62242,1.22543,1.01157,2.95469,1.40327,4.39139,2.01453a17.46072,17.46072,0,0,1,4.40633,2.306c2.00084,1.68177,1.43986,2.499.34194,4.77659-1.89668,3.93451-4.6072,7.47386-5.21628,11.91235-.63656,4.6387.89665,9.11129,3.18739,13.0954,2.54167,4.42051,6.13511,8.10955,8.77722,12.46242,3.86571,6.36876,3.051,12.17442.98129,19.03695a2.518,2.518,0,0,0,1.1489,2.82327c7.27385,3.345,14.65922,7.65817,19.29315,14.39736,3.9895,5.802,3.357,13.24018,7.7122,18.70784,1.19226,1.49681,3.75463.58113,4.17846-1.10316a207.92927,207.92927,0,0,1,10.523-31.28648,2.54114,2.54114,0,0,0-2.82327-3.6725,22.75912,22.75912,0,0,1-15.77741-3.43327,19.819,19.819,0,0,1-5.95059-5.7859,11.55475,11.55475,0,0,1-1.60682-3.48377c-.41507-1.91663.44064-7.22574,4.25656-5.49681,2.88421,1.30679,5.30192-2.57,2.5236-4.31735-4.3524-2.73727-8.90874-6.488-10.61419-11.55246a12.50291,12.50291,0,0,1-.69292-3.55149c-.0596-2.208.60112-2.44242,2.78728-1.90828,1.409.34425,7.94615,3.035,6.98854,5.37723-1.09656,2.682,3.15652,4.27835,4.56938,1.92639,2.6118-4.34783,1.37062-9.06732-2.61983-11.99746a2.51033,2.51033,0,0,0-3.6725,1.49408l-.04649.27551h4.82139c-.41127-2.30707-1.24839-5.44752-.76052-7.80887,1.03892-5.02851,4.92024-4.5547,7.96907-2.15159,1.5813,1.24639,4.33138.59984,4.26777-1.76777-.13869-5.162.61435-11.48409-1.731-16.282-2.08792-4.2713-6.25717-6.60942-10.31408-8.70845a51.25749,51.25749,0,0,1-14.59925-10.62048c-1.77291-1.92155-5.18377-5.2139-5.42951-7.96872-.63035-7.06636,8.59871-2.74208,11.46817-2.32266,1.7109.25008,3.77036-1.07481,3.0753-3.07529-1.10229-3.17254-3.09638-5.21267-5.28185-7.684a46.97927,46.97927,0,0,1-7.58295-12.04687c-1.55665-3.47079-5.88754-11.67819-4.32437-15.52515,2.35441-5.79418,5.5509-2.23952,7.53261-1.09556.606.34982.79575.89733,1.557,1.17158a2.51544,2.51544,0,0,0,3.07529-3.0753c-1.87225-5.39667-11.70814-8.274-15.57552-3.505-2.0094,2.47786,1.50733,6.03658,3.53553,3.53554Z"/><path class="cls-2" d="M65.01132,104.7852a235.842,235.842,0,0,0,2.68741-25.09848c.32708-6.45212.87971-13.57827-3.31066-18.99543-2.22894-2.88149-5.42432-4.749-7.96663-7.309A23.07567,23.07567,0,0,1,50.04076,41.931c-.607-2.94763-.66736-6.72176,2.33553-8.64375,2.56918-1.64439,6.19533-.93168,8.5965.5632,3.5048,2.182,5.53954,6.13707,7.45866,9.64235a1.25554,1.25554,0,0,0,2.28469-.96319c-2.36725-7.363-5.888-21.23092,3.26235-25.92707q1.59555-1.50157,3.57426-.03413,3.06934-.29657,2.74236,2.5395c.81029,1.94649.71191,5.06626.83459,7.26472a66.78758,66.78758,0,0,1-.91788,14.90593,1.26873,1.26873,0,0,0,1.83625,1.41164c2.19476-1.03808,3.66507-3.492,5.78363-4.39577,7.33682-3.12977,5.72131,8.85921,4.34854,11.83163-2.64713,5.73175-8.27066,9.406-11.73154,14.59329-3.43759,5.15242-3.69857,11.06585-3.65084,17.07759.065,8.18587.56251,16.35426,1.37792,24.4982.15877,1.58579,2.66042,1.60219,2.5,0-1.00653-10.05272-2.18584-20.71076-1.23864-30.80733.98067-10.45341,9.53031-14.48433,14.23195-22.80594,2.58488-4.57509,4.04562-11.65-.28966-15.73634-4.93732-4.65377-8.32616,1.56779-12.59316,3.586l1.83625,1.41164a68.61835,68.61835,0,0,0,.388-21.6113c-.65241-4.39982-1.36422-8.86839-6.8516-7.43675-13.42813,3.50336-10.97169,20.60041-7.8535,30.29909l2.28469-.96319C67.26852,36.164,62.65707,29.04729,54.71119,29.9821c-7.24191.852-8.42222,8.18179-6.6944,14.113A25.62631,25.62631,0,0,0,53.58,54.03418c3.67519,4.0668,9.15558,6.60893,10.94511,12.15005,1.82288,5.64442.79684,12.47938.3777,18.28547-.47534,6.58476-1.26552,13.13133-2.3022,19.6509-.25027,1.57393,2.15835,2.25161,2.4107.6646Z"/><path class="cls-2" d="M93.999,124.95789c1.0164-5.58143,3.23731-15.17211-.376-20.23582-1.04242-1.46085-2.77324-2.2915-4.00687-3.56008a17.07213,17.07213,0,0,1-3.48576-5.87062,28.20555,28.20555,0,0,1-1.67024-6.0393q-1.57128-5.05319,3.22726-7.4157a4.69949,4.69949,0,0,1,4.829,1.45987c.70727.70094,2.25342.23889,2.13389-.88389-.47172-4.43107-3.2262-16.617,4.89382-15.53348,5.1582.68826,8.18107,6.62713,8.97262,11.113,1.40677,7.9726-1.80217,16.31558.28326,24.18842a4.663,4.663,0,0,0,3.34158,3.72174c.87059.27859,1.87654.036,2.74142.22554,4.5966,1.00731,4.66315,5.31154,3.03206,8.64368a31.53273,31.53273,0,0,0-3.39778,17.50056,20.18038,20.18038,0,0,0,2.7886,8.21073c2.029,3.26312,5.00168,5.28467,6.41519,9.0181,1.20517,3.18315,2.57709,5.998,4,9.08216,2.63136,5.70352-.65158,8.481-2.7155,13.30247-2.926,6.83543-1.45542,15.75742-1.37211,22.98768l.342,29.67778a1.25075,1.25075,0,0,0,2.5,0l-.31917-27.69926c-.09265-8.0408-1.93559-18.39675,2.04062-25.69661,2.737-5.0248,4.32127-8.32053,1.68287-13.83386-1.63828-3.42341-2.87847-6.94886-4.44369-10.38156-1.40356-3.07814-4.21938-4.88431-5.97149-7.71869-4.09981-6.63228-2.93344-15.2164.08746-22.01821,1.742-3.92228,4.85845-8.31166.69148-11.96453-1.69659-1.48728-3.33625-1.145-5.36049-1.61044-5.512-1.26749-4.24679-7.995-3.9394-12.63275.43624-6.58174,1.30648-13.87806-2.18393-19.86378-2.52334-4.32728-8.31343-8.48487-13.55909-6.5075-6.03233,2.27389-3.53784,13.209-3.05028,17.78876l2.13388-.88388c-5.62037-5.57013-13.13816-.47426-12.47351,6.71.4203,4.54307,2.1295,9.97507,5.05933,13.57a17.85892,17.85892,0,0,0,2.34135,2.32493c2.4349,2.08216,3.05564,4.07259,3.3932,7.24408.44675,4.19743-.26961,8.81562-1.01626,12.91576-.28644,1.573,2.12243,2.2476,2.4107.6646Z"/><path class="cls-2" d="M91.742,124.02728c-2.91172,5.258-7.95448,19.723.31466,22.90974,3.69326,1.42328,6.57781,1.237,7.92853,5.76065a22.57181,22.57181,0,0,1,.40031,8.36836c-.61515,7.25848-2.26967,14.38633-3.82854,21.48581-2.11883,9.6497-6.864,22.79841-.01674,31.52135,6.58991,8.395,18.71472,11.90576,28.92377,12.29837,1.60892.06188,1.60625-2.43822,0-2.5-10.15473-.39052-26.49623-4.80219-29.50986-16.24313-1.571-5.96406.61155-13.098,1.83795-18.98134,1.13315-5.436,2.43923-10.83608,3.46755-16.29385,1.29909-6.89488,3.71129-16.25746.14243-22.85155-1.63865-3.02769-3.70816-3.22-6.57684-4.48724-7.667-3.387-3.94264-14.27533-.92454-19.72537.78-1.40862-1.37826-2.67109-2.15868-1.2618Z"/><path class="cls-2" d="M63.61284,106.91127a65.59294,65.59294,0,0,0,15.48162,2.68529c1.60777.08548,1.60307-2.41477,0-2.5a62.76906,62.76906,0,0,1-14.817-2.596,1.25108,1.25108,0,0,0-.6646,2.4107Z"/><path class="cls-2" d="M170.44908,171.28152a33.24689,33.24689,0,0,1-23.33126-5.71611c-2.27768-1.60258-7.98635-5.92491-8.48159-9.013-1.28327-8.00186,11.33647-4.12115,14.7763-2.96268,1.32387.44586,2.25647-1.68406.9632-2.28469-5.71217-2.6529-11.78363-5.41256-15.87387-10.38909a17.94926,17.94926,0,0,1-2.789-4.70048,10.26571,10.26571,0,0,1-.86415-2.65479l4.2543-4.49148c2.77648-.6211,8.469,4.34143,10.16908,5.91759a1.2556,1.2556,0,0,0,1.96322-1.51478,34.45087,34.45087,0,0,1-3.7245-10.7314c-.20974-1.31747-1.03267-4.79668-.34177-5.98318l7.43994-2.66654a12.14744,12.14744,0,0,1,1.96479,2.53831c3.87268,5.93888,6.74341,12.915,9.32967,19.48a151.40188,151.40188,0,0,1,6.04548,18.84552c1.19306,4.78634,1.19163,8.28079-1.73025,12.50614a8.8147,8.8147,0,0,0-2.02879,5.3621,1.25076,1.25076,0,0,0,2.5,0c.07528-4.20312,4.73531-6.89258,4.87063-11.40185.14808-4.93447-1.95441-10.28261-3.38695-14.93139a150.68645,150.68645,0,0,0-12.36588-29.27326c-2.42429-4.32143-9.0597-11.2077-13.70939-5.00953-4.39052,5.8527.06174,17.02391,2.97835,22.52684l1.96322-1.51478c-3.81165-3.53383-18.71952-12.71822-18.88138-1.53533-.16441,11.36012,12.26956,17.746,20.95545,21.78l.9632-2.28469c-4.27583-1.44-13.14507-3.95757-17.13578-.551-3.13294,2.67437-.777,6.99727,1.1207,9.58557,7.35694,10.03416,20.18109,15.05677,32.387,13.56791,1.57672-.19233,1.596-2.69468,0-2.5Z"/><path class="cls-2" d="M160.77778,118.49368c.93294-9.137-.39508-22.43738-10.11212-26.34258-5.96718-2.39816-11.12086-4.67276-15.66418-9.43152a26.59614,26.59614,0,0,1-6.12014-9.15195c-1.0792-3.11088-1.71568-7.804,3.91853-8.49265,2.06846-.2528,4.90818,1.19694,6.62752,2.0034,1.04413.48976,2.44646-.57053,1.71023-1.71024-4.96166-7.68079-11.4518-15.61951-14.43879-24.3527-1.29305-3.78055-2.75727-11.78609.18319-15.3806,2.93519-3.58807,8.69766,2.79231,11.68656,3.75789.99122.32022,1.68088-.662,1.53764-1.53765-.84775-5.18251-2.30649-10.64839-2.25871-15.91235C137.921,3.8441,145.48675-.1299,152.13338,4.65322c9.24031,6.64962,6.71144,21.59844,10.04132,31.23477a1.264,1.264,0,0,0,2.08923.55158c2.28111-2.36609,4.506-4.80761,6.85283-7.10812,1.8635-1.8267,4.47384-3.76012,5.5428.13089.393,1.43066-.32878,3.092-.73467,4.46106-1.79987,6.0712-4.96749,11.65863-7.30881,17.52376-4.9167,12.31664-3.51009,24.50928-1.61584,37.31235a415.78183,415.78183,0,0,0,8.25367,41.7079c3.304,13.01127,5.83608,27.98989-3.16437,39.39663-.986,1.24966.77136,3.03057,1.76776,1.76777,8.74249-11.07981,7.75817-25.238,4.69643-38.243-3.996-16.97336-7.61869-33.71117-9.976-51.01721-1.28575-9.4393-1.72264-18.7365,1.5343-27.84766,2.58523-7.23209,6.97348-14.05583,8.711-21.58858.6946-3.01129.70724-7.86666-3.151-8.68125-4.91355-1.0374-10.47026,7.61126-13.17593,10.41773l2.08923.55159C160.80034,24.26983,163.53,1.88007,147.14968.08657c-16.32235-1.78717-10.92726,19.42763-9.45415,28.43311l1.53765-1.53765c-3.89877-1.25952-7.3003-6.92308-12.03517-4.897-3.45943,1.48032-4.05429,6.45032-4.26425,9.66935C122.08354,44.79005,132.33184,56.34,138.979,66.62994l1.71023-1.71024c-4.59676-2.15611-11.6769-4.34491-14.39276,1.687-2.20078,4.88794,1.23123,10.69336,4.06715,14.48082a36.8197,36.8197,0,0,0,15.59654,12.0203c2.02886.82276,4.42333,1.27414,6.2565,2.50731,2.638,1.7746,3.75741,4.91748,4.68,7.78123a36.63064,36.63064,0,0,1,1.38115,15.09729c-.16327,1.599,2.3379,1.58764,2.5,0Z"/><path class="cls-2" d="M170.298,85.34746q4.90076-2.61588,6.718.88794a14.70652,14.70652,0,0,1,1.44068,2.27873c.90391,1.50829,1.71952,3.07733,2.577,4.612a1.26171,1.26171,0,0,0,2.15868,0c1.58433-2.67976,5.91033-12.3075,10.35334-7.5608,1.10181,1.17712,2.867-.59345,1.76777-1.76776-6.01062-6.42147-11.69458,3.69411-14.27979,8.06676h2.15868c-1.9189-3.43416-3.89108-8.84853-7.87715-10.46658a5.3735,5.3735,0,0,0-7.176,2.68789c-.6267,1.46277,1.52628,2.73786,2.15868,1.2618Z"/><path class="cls-2" d="M189.97389,129.42967a61.32059,61.32059,0,0,0,6.36606-43.23312,59.9089,59.9089,0,0,0-8.78854-20.33763c-2.75285-4.13384-6.21728-8.3534-6.52764-13.53151-.1727-2.88137.59441-6.45742,3.34166-8.04274,2.85132-1.64538,6.96951-.65612,7.92846,2.77127l2.28468-.9632c-1.31218-2.92888-2.62148-5.85753-2.893-9.07973-.39285-4.66247,3.98652-12.95139,9.68073-7.6581,4.09846,3.8099,2.83645,10.90826,4.87367,15.84036a1.26962,1.26962,0,0,0,2.08923.55158c1.75287-1.632,2.58359-3.93286,4.23167-5.58008,6.69213-6.68867,7.91148,9.17642,8.11943,11.73537.68514,8.43132.17633,18.15679-3.43315,25.92848-1.7524,3.77315-4.89724,6.59248-6.89047,10.22886a32.29372,32.29372,0,0,0-3.19207,9.07417c-1.49287,7.275-1.27852,14.76432-2.31387,22.09989C202.54786,135.54986,194.5,148.55728,185.2434,161.7809,177.5572,172.76112,169.895,184.116,167.951,197.67507c-.72011,5.02279-.70248,10.1421-1.74891,15.11984-1.24422,5.91853-4.93586,8.62791-10.43993,10.62058a44.284,44.284,0,0,1-29.52849.00727c-1.52569-.52151-2.18079,1.89243-.6646,2.41069a46.83282,46.83282,0,0,0,25.93953,1.45c6.79734-1.60119,14.39515-4.34246,16.584-11.62382,2.75146-9.15307,1.59358-18.87876,4.96293-27.985,3.13253-8.46618,8.32628-16.01075,13.45862-23.364,10.61921-15.21443,19.37009-29.65433,21.26538-48.55113.93585-9.3308.32948-19.54007,5.53131-27.78613,2.37836-3.77025,5.46012-6.65772,7.01259-10.92555A55.26363,55.26363,0,0,0,223.082,63.59267a65.90486,65.90486,0,0,0-.33852-15.60293c-.499-3.53491-.91332-8.1923-3.66636-10.83678-5.68536-5.46118-9.30126,3.83345-12.51561,6.82613l2.08924.55158c-2.346-5.6796-1.62-21.87093-12.39766-19.09521-10.3617,2.66857-6.85559,15.17279-3.83314,21.91908.58708,1.31041,2.65841.37255,2.28468-.9632-1.51091-5.40018-8.587-7.01974-12.76071-3.42123-6.69442,5.77181-2.37843,15.48846,1.53665,21.36059,6.32168,9.48171,10.77763,19.16521,11.65047,30.68986a58.41715,58.41715,0,0,1-7.31578,33.14731,1.25094,1.25094,0,0,0,2.15868,1.2618Z"/><path class="cls-2" d="M164.82655,171.87852c-3.36058,3.64943-4.1004,9.21129-5.49286,13.8214l-5.75678,19.05944,2.28468-.2986c-2.31876-3.21843-2.24364-7.70609-3.26574-11.45583a43.9141,43.9141,0,0,0-4.32766-10.91414c-3.79787-6.33666-11.90593-6.30149-17.30866-10.81423-1.22672-1.02464-3.00442.73483-1.76776,1.76777,5.407,4.51628,14.337,5.19047,17.63134,11.6382a49.39472,49.39472,0,0,1,4.2064,12.55941c.623,3.05946.79979,5.88005,2.67341,8.48062a1.26835,1.26835,0,0,0,2.28468-.2986l4.66026-15.42907c1.48053-4.9017,2.40474-12.50247,5.94646-16.3486,1.0884-1.182-.67508-2.95438-1.76777-1.76777Z"/><path class="cls-3" d="M1.98185,207.55556A18.8674,18.8674,0,0,0,6.985,208.514l57.56572,5.70855c3.54169.35121,7.14293.70009,10.63738.025,6.08839-1.17614,11.21114-5.35657,15.12282-10.16807,12.441-15.30284,14.33593-36.34888,15.71189-56.02279.16525-2.36283.30461-4.86146-.7732-6.97063-1.52181-2.978-5.20384-4.37486-8.53164-4.04284s-6.34642,2.07742-9.04788,4.04887l.77929-.65214c-3.77086-11.287-.60769-23.61011-1.30942-35.48965-.229-3.877-1.49092-8.47893-5.21552-9.57929-3.3183-.98033-6.59811,1.4257-9.217,3.687-2.37275,2.04879-4.80087,4.18789-6.16332,7.01122l-.04526-1.08591Q65.15637,91.6241,64.92473,78.18412a38.6483,38.6483,0,0,0-.79917-8.87984,12.052,12.052,0,0,0-4.78492-7.2991c-3.191-2.0536-7.27784-1.85666-11.06293-1.58744l-.76456.01969c1.18734-5.14669,2.382-10.37447,2.112-15.64943S47.42242,34.09074,43.336,30.74417c-5.93676-4.86195-15.85176-3.65631-20.45033,2.48671-3.66994,4.9025-3.81123,11.50614-3.80145,17.6301l.05724,35.82633-.12273-.16989c-4.18239-1.26575-8.80165,1.136-11.346,4.68861s-3.42452,8.011-3.98323,12.3449c-1.24383,9.648-1.21136,19.40956-1.17689,29.13738l.27,76.18851"/><path class="cls-4" d="M81.10051,212.675c10.906-7.18054,17.78255-18.47935,21.51021-30.81794a123.2447,123.2447,0,0,0,4.13736-22.248c.65079-5.92532,2.69092-14.07584.27249-19.84114-4.20982-10.03582-18.42726-4.53919-22.04633,3.12558-1.86027,3.93984-.65179,8.40009,3.518,10.10515,5.38116,2.20042,12.62123-.77144,17.85066-1.99288,2.34909-.54867,1.3547-4.16531-.9969-3.616-4.10488.95877-9.11658,2.98122-13.37279,2.54728-9.11618-.92944-.63612-10.04814,3.7723-11.39514,12.50524-3.821,7.71911,17.45684,6.93238,23.82606-2.197,17.78678-7.6851,36.67618-23.47,47.06907-2.00722,1.32156-.13079,4.57029,1.8927,3.238Z"/><path class="cls-4" d="M80.82809,211.99932a357.616,357.616,0,0,0,7.78785-54.02325c1.17072-17.81437,1.98745-36.89254-.76871-54.60159-.76614-4.92269-3.159-9.92638-8.79225-10.12747-5.50067-.19635-11.70991,4.94843-14.18186,9.49323-2.71287,4.98771-.08283,9.304,4.716,11.38836,6.0619,2.63293,13.00867,1.62732,18.55934-1.69814,2.06809-1.239.18466-4.48259-1.8927-3.238a17.41612,17.41612,0,0,1-8.913,2.69155,16.36519,16.36519,0,0,1-3.93236-.433c-3.09548-.75034-3.60726-1.0606-4.30228-4.44561-.72211-3.517-.23748-3.954,2.266-6.21611a19.371,19.371,0,0,1,3.23368-2.37369c3.82065-2.20658,7.84059-.98672,9.11087,3.35553,1.59049,5.43682,1.28635,11.92909,1.54177,17.56011q.41612,9.17391.3459,18.36114a350.4165,350.4165,0,0,1-8.39434,73.31c-.52186,2.35135,3.09256,3.3556,3.61605.99689Z"/><path class="cls-4" d="M53.59205,207.99179q4.13186-27.42886,8.26371-54.85773c2.61456-17.35824,5.31112-34.75994,6.09281-52.31878.3815-8.56962.60143-17.42078-.58628-25.93871-.83453-5.985-2.97737-11.9582-8.19469-15.46334a12.30492,12.30492,0,0,0-14.64887.25082c-3.47736,2.56231-8.87509,7.82927-7.736,12.67215,1.34,5.69733,9.79892,6.346,14.42313,5.76456,6.61841-.83211,12.00531-4.895,13.9881-11.31788.71347-2.31116-2.90522-3.29949-3.61605-.9969a12.02594,12.02594,0,0,1-8.00838,8.01708,16.775,16.775,0,0,1-6.30957.66571,17.3484,17.3484,0,0,1-4.24164-.81918l-2.094-4.501c.03306-2.1629,5.49005-6.498,7.24679-7.41464,4.025-2.10021,8.51716-.24941,11.35141,2.91968,5.31129,5.93879,4.7585,15.96037,4.87686,23.40168a234.81611,234.81611,0,0,1-.90739,23.54641c-2.70466,31.92905-8.74479,63.72053-13.51593,95.3932-.35563,2.36081,3.25721,3.379,3.61605.9969Z"/><path class="cls-4" d="M34.92947,208.34992a459.76842,459.76842,0,0,1,.36071-70.06178c1.98812-22.61863,7.07565-44.93862,6.13261-67.75641-.09938-2.40454-3.8499-2.41712-3.75,0,.943,22.81562-4.14456,45.13861-6.13261,67.75641a459.7864,459.7864,0,0,0-.36071,70.06178c.15908,2.39547,3.91026,2.41322,3.75,0Z"/><path class="cls-4" d="M21.4299,200.73728a406.13513,406.13513,0,0,1-1.71157-55.29292c.68183-17.74347,3.2356-35.21363,2.10246-52.99954-.5519-8.66277-1.476-17.29886-1.92878-25.96842-.45636-8.73822-1.41878-19.36411,1.55342-27.74419,3.17113-8.941,15.0434-13.12938,21.87875-5.39087,5.56559,6.301,3.78091,19.27092,1.409,26.46466-.75744,2.29723,2.86263,3.28193,3.616.9969,3.40448-10.32545,4.62225-27.30994-6.6039-33.37517-10.62482-5.74034-22.25312,1.99353-24.599,12.93877-3.40908,15.906-.42069,33.18519.72846,49.19147,1.233,17.17477-.8144,33.829-1.68483,50.9482a405.5275,405.5275,0,0,0,1.48993,60.23111c.2337,2.37978,3.98608,2.404,3.75,0Z"/><path class="cls-4" d="M79.68222,208.75941c-5.26994,5.94688-15.45019,3.60386-22.43344,3.12122l-27.08387-1.87188L16.623,209.07281l-5.80369-.40112-3.86912-.26741q-3.04386-.22171-2.20084-2.97751c-1.069-3.67993-.15531-9.01-.22153-12.85143l-.23856-13.84c-.30716-17.81958-1.19694-35.74341-.70276-53.56156.25225-9.09489,1.29428-18.21562,4.1418-26.89282a29.1185,29.1185,0,0,1,2.0219-5.07674c.9946-1.78346,4.42592-6.14568,7.03056-4.27165l1.58139,4.665a5.69536,5.69536,0,0,1-3.89789,2.856c-2.64993.72849-5.627.03853-8.23735-.45853-2.35832-.44907-3.36866,3.16442-.99689,3.616,5.73908,1.09282,13.01224,1.854,16.37015-4.12079,2.49413-4.43788.194-9.72775-4.97794-10.36242-5.86935-.72026-9.51255,4.2787-11.43727,9.12863C1.66859,103.117.36959,112.8961-.06042,122.3634c-.93938,20.68165.34519,41.60937.70189,62.30337l.2556,14.82857c.05193,3.01225-.9628,8.19692.87214,10.87986,1.49966,2.1927,4.81973,1.75411,7.11551,1.91278l16.44378,1.1365,34.82213,2.40671c7.5337.52068,16.59979,1.88053,22.18324-4.42013,1.5956-1.80056-1.04715-4.46226-2.65165-2.65165Z"/><path class="cls-4" d="M50.03932,205.52982a18.412,18.412,0,0,0-1.72351,7.01948c-.10245,2.413,3.64776,2.40817,3.75,0a13.58941,13.58941,0,0,1,1.21152-5.12678,1.93257,1.93257,0,0,0-.67266-2.56536,1.88871,1.88871,0,0,0-2.56535.67266Z"/><path class="cls-4" d="M31.26447,208.23862l.14372,2.50862a1.875,1.875,0,0,0,3.75,0l-.14372-2.50862a1.875,1.875,0,1,0-3.75,0Z"/><path class="cls-4" d="M17.62253,200.32641l.47292,10.42182c.109,2.40328,3.85966,2.4167,3.75,0l-.47292-10.42182c-.109-2.40328-3.85966-2.4167-3.75,0Z"/></svg>