<svg id="Layer_1" data-name="Layer 1" xmlns="http://www.w3.org/2000/svg" viewBox="0 0 456.62289 310.1524"><defs><style>.cls-1{fill:#e4adcf;}.cls-2{fill:#e3adcf;}.cls-3{fill:#fff;}.cls-4{fill:#231f20;}</style></defs><title>cow</title><path class="cls-1" d="M319.79884,193.49016a129.159,129.159,0,0,1,41.63452-15.25463c4.63044-.83432,9.38637-1.414,14.02962-.65422,6.1446,1.00544,11.72472,4.31844,16.36742,8.46723s8.45318,9.1288,12.2336,14.07607l.60541-.15025a16.91706,16.91706,0,0,0-8.51211,12.68323c-.3,2.62183.0236,5.31116-.55355,7.88621A11.59227,11.59227,0,0,1,391.55,227.018a4.60107,4.60107,0,0,1-2.8486,1.19244c-2.07664-.04165-3.38765-2.18129-4.29681-4.0488l-3.185-6.54233a1.33706,1.33706,0,0,0-1.92788-.92092l-4.21771,1.15693-2.38247,10.88079c-.27944,1.27618-.67551,2.71129-1.83547,3.31232a3.02022,3.02022,0,0,1-3.3258-.69147,8.002,8.002,0,0,1-1.79387-3.11062,54.6226,54.6226,0,0,1-2.82645-10.652l-5.44515-.50675a26.85971,26.85971,0,0,1-5.3734,12.51831,3.68717,3.68717,0,0,1-1.51114,1.30187c-1.99606.73985-3.5712-1.84045-3.93472-3.93794a24.99015,24.99015,0,0,1-.25354-6.633,4.22257,4.22257,0,0,0-.29519-2.7161,3.49515,3.49515,0,0,0-1.5863-1.16075c-4.159-1.86467-9.05976-2.13024-12.71236-4.85651a22.54874,22.54874,0,0,1-5.04139-6.05322l-8.64628-13.28215"/><path class="cls-2" d="M320.11429,194.02983a128.13942,128.13942,0,0,1,43.22705-15.49044c8.34526-1.30945,16.02451-.47843,23.23225,4.23314,6.90626,4.51449,12.00217,11.19923,16.95074,17.66753a.65622.65622,0,0,0,.70582.28722l.60541-.15024-.4816-1.14235a18.44424,18.44424,0,0,0-7.08286,7.41718c-1.99862,3.95827-1.45579,7.81721-2.1023,12.04221-.2866,1.873-.68043,3.99507-2.053,5.43631q-1.11165,2.62035-4.21792.92229-3.21168,1.16627-3.95362-1.40652c-1.52192-1.806-1.62653-4.87474-3.23385-6.60557-2.01683-2.17182-4.03725-.7465-6.80254.012a.62123.62123,0,0,0-.43652.43653l-1.19124,5.44039-.79416,3.62693q.21921,3.30151-3.272,1.56858c-3.778-.32181-3.36558-1.29451-4.30659-4.61437a63.48586,63.48586,0,0,1-1.39475-6.28249.63565.63565,0,0,0-.60268-.45885l-5.44515-.50675a.6242.6242,0,0,0-.60267.45886,28.493,28.493,0,0,1-2.81095,8.52471c-1.28081,2.40568-1.05149,2.74189-4.1979,1.98455q-3.23471.52077-2.76789-2.198a16.498,16.498,0,0,1-.17106-3.235c.033-2.9174.53831-4.58865-2.163-6.10894-5.06769-2.85206-10.54806-2.15975-14.785-6.903-4.42142-4.94971-7.70051-11.47895-11.31613-17.03316-.43725-.67169-1.51994-.04593-1.07934.6309,2.8815,4.42647,5.71668,8.88741,8.64628,13.28215,1.81725,2.72608,3.64047,5.40087,6.52664,7.10063,3.10673,1.82964,7.223,1.68118,10.18956,3.52842,4.638,2.888,1.76186,7.9813,3.52976,12.07657,2.2915,5.30813,5.78186,2.31922,7.90843-1.1656,1.33539-2.18831,2.63327-8.83795,4.90837-9.52418,4.11678-1.24173,4.982,8.60377,6.08336,11.09337,1.23091,2.78235,4.32622,5.71693,6.96183,2.5467,2.4968-3.00326,1.25-8.33477,2.95457-11.68667,2.0642-4.059,5.19492-1.2692,6.99281,1.371,1.15977,1.70311,1.57125,3.86981,2.89965,5.49111,3.4094,4.16111,7.79382.952,9.884-2.93034,1.6386-3.0436,1.37222-6.20362,1.60888-9.52934a16.8613,16.8613,0,0,1,8.31992-13.7233.6279.6279,0,0,0-.4816-1.14234c-.81142.20137-5.65291-6.875-6.34047-7.67357a57.61212,57.61212,0,0,0-8.41469-8.18718,30.89235,30.89235,0,0,0-20.42424-6.8634c-17.25158.7036-35.00612,7.86521-49.84047,16.303a.62547.62547,0,0,0,.6309,1.07934Z"/><path class="cls-3" d="M170.57311,289.11372a22.24038,22.24038,0,0,1-10.3382-.0673q.71083-10.21618.60827-20.46733c-.16185-16.10715-1.85531-32.28237-6.32161-47.75876a57.08891,57.08891,0,0,0-3.4204-9.3336,51.2611,51.2611,0,0,0-5.71409-8.85687,88.655,88.655,0,0,0-29.74654-24.50979l.72868.24629c-10.53033-8.03756-15.1192-21.42571-19.65787-33.87121-5.46262-14.9791-11.66922-29.78559-20.21646-43.2451C70.95646,92.5286,63.57043,83.851,53.4274,81.88708c-13.82486-2.67679-28.13354,8.02785-41.56614,3.80208a8.64563,8.64563,0,0,1-2.71-1.29946,7.733,7.733,0,0,1-2.62781-4.7319C5.451,74.14637,8.145,68.67551,10.7571,63.70533q4.61708-8.785,9.23414-17.57L19.35717,47.398A20.87627,20.87627,0,0,0,8.28092,25.16909c-1.85112-.89194-3.87086-1.5225-5.44784-2.83982S.23616,18.701,1.1744,16.87292c1.08531-2.11464,3.94718-2.38627,6.324-2.36117q14.18268.14978,28.33557,1.22282C40.90269,9.84279,46.91336,4.426,54.27226,1.92558S70.55354.39238,76.02993,5.90733c2.10838,2.12322,3.65976,4.832,6.12873,6.52244A19.60958,19.60958,0,0,0,89.066,14.93388l15.81744,3.566a13.50714,13.50714,0,0,1,5.76208,2.28017c1.6475,1.3537,2.5517,3.39506,3.92192,5.02885,4.24381,5.06017,11.81567,5.27511,18.41694,5.07865q50.73435-1.50987,101.46632-3.09913l-.34784-.87411a285.40412,285.40412,0,0,0,31.96573,2.62861c12.91134.33336,25.82746-.21016,38.73167-.75356l31.4389-1.32391c19.71167-.83007,39.43173-1.66067,59.08406-3.39986,6.06384-.53664,12.22367-1.15539,18.19728.01682s11.85461,4.44138,14.6328,9.858l.95216-.34487c3.43121,2.11074,4.94374,6.23766,6.22123,10.05819a71.23946,71.23946,0,0,1,3.46066,13.03972,71.23713,71.23713,0,0,1,.10649,13.29917l-3.795,69.735c-.42049,7.72666-.84,15.49518.011,23.18634l.67579.1816c.26856.13068.08115-.50556-.15866-.32753s-.12322.55429.01636.81834c5.78281,10.93963,14.14052,20.66733,17.67313,32.52638,2.36242,7.93068,2.4106,16.33944,2.44,24.61446l.05424,15.2842a77.8121,77.8121,0,0,0-9.80985-10.54632q1.31736,9.01847,2.123,18.10186a36.125,36.125,0,0,1-.03781,9.44618,38.27029,38.27029,0,0,1-3.37835,9.31663L432.076,289.544l-.1105.31742c-2.75264,2.12477-6.66,1.6409-10.03573.8067a4.43689,4.43689,0,0,1-2.65649-1.38825c-.77042-1.0581-.49352-2.52049-.183-3.792l5.36928-21.98831c1.84174-7.54228,3.69563-15.18972,3.52617-22.95176s-2.60227-15.7845-8.20312-21.16116c-2.32309,3.37531-2.80014,7.6496-4.25905,11.47857-1.60005,4.19942-4.37518,7.83726-6.40273,11.84779-3.2649,6.45806-4.516,13.70984-6.53034,20.66028a95.64618,95.64618,0,0,1-11.57766,25.34332,12.36354,12.36354,0,0,1-2.79764,3.318c-2.76423,2.06538-6.62772,1.6619-9.96244.77509l9.42742-35.36325c2.05925-7.72449,4.10213-16.0309,1.393-23.55215l.01694-.87138c3.63882-.1746,6.484-3.36657,7.80755-6.76066s1.56178-7.1088,2.56457-10.61107a25.17783,25.17783,0,0,1,5.91987-10.35819c.766-.80668,1.6523-1.7407,1.509-2.84387a3.483,3.483,0,0,0-.95555-1.70568c-9.31636-10.97126-21.43509-21.0469-35.79913-21.96226-9.494-.605-18.71732,2.8802-27.59152,6.30806L309.1233,197.99909l-.01031-.77227c-6.03406,3.75777-13.17782,5.312-20.23611,6.15542-12.051,1.44-24.24.991-36.36429.44259-16.85743-.76249-33.75258-1.7181-50.3788-4.60308l-.40149-.26877c-2.90991,13.9298-5.76053,28.77131-.70767,42.07452,1.091,2.87242,2.53635,5.61561,3.37667,8.57111,2.37348,8.34781-.31629,17.20355-2.98693,25.4611l-4.55384,14.08036-.17573.082a14.51358,14.51358,0,0,1-9.75988-.88078,1.7471,1.7471,0,0,1-.85249-.6644,1.89117,1.89117,0,0,1,.03322-1.402,80.45357,80.45357,0,0,0,1.8088-36.04957c-1.10043-6.14911-2.9155-12.1469-4.223-18.25533-1.41847-6.62667-2.23589-13.36509-3.05151-20.09262l-.57783.86516c-1.56411.72389-2.25581,2.53649-2.7412,4.19024-6.70815,22.85512-2.24875,47.64588-7.38439,70.90488"/><path class="cls-3" d="M170.407,288.511a18.77262,18.77262,0,0,1-5.87532.51359c-2.96731-.52072-3.17012-1.37356-3.44011-3.69493-.34122-2.9337.288-6.34619.34378-9.303.117-6.20033.0214-12.40874-.33913-18.60013a169.55757,169.55757,0,0,0-5.46882-34.98356c-5.53987-20.20463-21.41813-35.39523-39.67137-44.86258l-.4816,1.14235.72868.24628c.56863.19219,1.099-.652.60809-1.04461-13.42216-10.73314-17.35811-28.67334-23.41743-43.92356-5.95538-14.98861-12.90613-31.44758-24.1543-43.31457C64.7975,86,59.30336,82.21163,52.82454,81.16251c-6.93841-1.12354-13.831.88707-20.49325,2.603C23.61,86.0118,4.9813,89.90008,7.16346,74.80932c.74615-5.16,3.58958-9.754,5.98014-14.30254l7.3873-14.056-1.07933-.6309-.63407,1.26265,1.14234.4816a21.898,21.898,0,0,0-4.65449-17.59674A21.07679,21.07679,0,0,0,7.89116,24.312a17.87038,17.87038,0,0,1-2.804-1.29571c-2.61871-1.86483-3.17068-6.80045.06193-7.692,2.43257-.67089,5.53482-.14985,8.02175-.09073q7.56243.17975,15.1156.61944c4.10089.23873,6.75772,1.62494,9.542-1.425C44.33557,7.3,52.82531.93354,62.94644,1.25747A18.89906,18.89906,0,0,1,76.60259,7.45226c2.53685,2.73564,4.34274,5.464,7.93278,6.87555,3.595,1.41343,7.64232,1.94772,11.39447,2.79363q3.515.79245,7.03,1.58489c1.073.24414,2.22589.44347,3.28956.75981,3.30557.9831,4.73384,2.82844,6.81924,5.37356,4.10642,5.01166,9.17925,6.51055,15.58071,6.69885,10.6851.31429,21.50548-.53839,32.18906-.86093q36.8068-1.1112,73.61234-2.2642a.63.63,0,0,0,.60267-.79115c-.2428-.61015,1.14433.10812,1.85607.29186a46.39152,46.39152,0,0,0,6.56154.77126q5.63177.59463,11.28409.96549c8.27965.54592,16.57588.69022,24.87147.58242,16.91176-.21977,33.8215-1.1831,50.71783-1.89462,17.07662-.7191,34.15976-1.38392,51.21212-2.56753,14.34834-.99592,37.218-6.93209,46.05714,8.48471a.63165.63165,0,0,0,.70582.28723c3.52406-1.27642,6.41246,9.25217,7.20146,11.6845a53.62679,53.62679,0,0,1,3.00616,16.15189c.11826,11.1379-1.0626,22.39408-1.66779,33.5147l-1.78905,32.87507c-.61776,11.3517-1.6884,22.79419-.58536,34.1447a.64885.64885,0,0,0,.45885.60267l.67579.1816a.6399.6399,0,0,0,.70582-.28722l.11131-.18152a.63193.63193,0,0,0-.22422-.85512l-.27-.146a.635.635,0,0,0-.91812.37352c-.37259,1.04731.39168,1.852.88319,2.7845,1.57655,2.99094,3.45424,5.843,5.2598,8.69742,3.58775,5.672,7.28678,11.31327,9.85878,17.53912,5.70409,13.80747,4.10769,29.76329,4.1596,44.38848l1.067-.44194a88.40758,88.40758,0,0,0-9.80986-10.54632.63088.63088,0,0,0-1.04462.60809c.98409,6.87292,1.954,13.83517,2.311,20.77579.39758,7.72932-2.74376,13.88923-5.90965,20.70995L433.51,284.97632c-1.02724,2.21314-1.34564,3.83235-3.20275,5.03886-1.599,1.03884-4.91086,1.06516-6.737.37975-2.94087-1.10382-3.58488-3.70034-3.42994-6.57326.159-2.9478,1.53516-6.28677,2.2372-9.1618q1.11861-4.5809,2.23721-9.16179A139.81612,139.81612,0,0,0,428.28563,247.31c1.09444-10.23447-.67584-20.76388-8.06114-28.36529a.63184.63184,0,0,0-.98161.12649c-2.204,3.64082-2.8065,7.70548-4.32206,11.62787-2.03834,5.27542-5.69673,9.73541-7.81721,14.98859-4.01736,9.95242-5.42431,20.62762-9.91389,30.46569-2.10056,4.603-4.63627,10.93138-8.34909,14.46341-1.936,1.84172-8.708,4.36354-9.48908.49788-.46773-2.31486,1.877-7.041,2.48089-9.30612,2.8745-10.78256,6.4918-21.63721,8.4347-32.63255a34.83031,34.83031,0,0,0,.2926-12.18033,32.301,32.301,0,0,1-.85311-3.537,18.44856,18.44856,0,0,0,2.11856-.48574,9.31552,9.31552,0,0,0,3.42188-2.68405c2.61712-3.09565,3.1921-7.08259,4.00136-10.91814a31.54094,31.54094,0,0,1,2.38322-7.6101c1.28452-2.597,3.4815-4.47831,4.9559-6.87632,1.144-1.86059,1.04637-2.70221-.11237-4.45626-2.21506-3.353-5.78817-6.45447-8.75648-9.11833-6.13453-5.50533-13.30257-10.236-21.39924-12.20212-10.48555-2.54622-20.7728.41925-30.59671,4.099-6.39817,2.39656-12.75312,4.9145-19.12644,7.37634l-9.28377,3.58607c-1.3098.50594-7.57862,2.75331-7.57455,3.05786a.631.631,0,0,0-.94045-.53967c-15.21808,8.93425-35.47826,7.38141-52.45431,6.68047-9.06043-.3741-18.12444-.80987-27.16565-1.51766-4.52815-.35448-9.05158-.77587-13.56242-1.3087q-3.7815-.44668-7.54972-.99793c-1.61663-.23895-4.6554-.21808-6.01769-1.13a.629.629,0,0,0-.91812.37352c-2.63916,12.69741-5.40338,26.25111-1.81078,39.05039.99131,3.53168,2.72475,6.72162,3.91065,10.177a28.87144,28.87144,0,0,1,.96721,14.18266c-1.193,7.34249-3.94977,14.44291-6.23117,21.49693-.87638,2.70977-.82773,4.69521-4.57272,5.3667-1.95438.35043-5.9682-.44-6.68449-2.61946-.35025-1.06566,1.09024-4.24738,1.31289-5.29948q.56526-2.671.94725-5.37679a81.13922,81.13922,0,0,0,.34681-20.13518c-.70879-6.54669-2.41186-12.88-3.963-19.26142a210.79787,210.79787,0,0,1-4.08742-24.4908.631.631,0,0,0-1.16467-.31545c-1.02845,1.53985-2.07962,1.99882-2.9059,3.8048-1.17257,2.56286-1.66118,5.75121-2.21015,8.48959a134.39787,134.39787,0,0,0-2.20473,19.19352c-.805,14.924-.35616,29.91491-3.44564,44.62167-.16487.78482,1.0398,1.12033,1.20534.3323,2.73051-12.998,2.76226-26.23266,3.24725-39.4484a164.60973,164.60973,0,0,1,1.91122-21.68053,65.84878,65.84878,0,0,1,2.22592-9.776c.742-2.21719,2.06777-3.127,3.256-4.9061l-1.16467-.31545a255.942,255.942,0,0,0,5.48729,30.28111c2.69951,11.01617,3.825,22.0773,2.22938,33.35417a88.35913,88.35913,0,0,1-1.75041,8.83974c-.19234.77831-.841,1.98105-.6299,2.80454.62072,2.42091,4.05426,2.8651,6.21087,3.07609,1.267.124,4.64677.36628,5.74034-.651.76318-.70994.962-2.75315,1.29919-3.79588q1.42308-4.40012,2.84615-8.80022c2.83847-8.78928,6.1231-18.28708,3.55616-27.55345-1.374-4.95983-4.01609-9.40485-5.09856-14.48335a57.48586,57.48586,0,0,1-.6719-17.39512c.479-5.075.75573-11.92529,2.7386-16.68906.61388-1.4748-1.79367-1.34595,1.91512-.71609,2.61234.44365,5.2394.81458,7.86627,1.16061,10.94234,1.44143,21.95908,2.20172,32.97718,2.76843,12.14211.62452,24.36616,1.34341,36.5186.60435a96.10752,96.10752,0,0,0,15.90786-2.07087,44.80439,44.80439,0,0,0,7.782-2.514,9.52945,9.52945,0,0,0,1.62994-.74752l1.44776-.75458q.55329-1.70181.48149-.59614a.62972.62972,0,0,0,.79115.60267c11.97444-4.62539,23.9251-9.31892,35.92757-13.871,11.40444-4.3253,23.20043-7.54594,35.09654-3.07191a51.27521,51.27521,0,0,1,14.74876,8.995c3.49,2.93743,11.65659,8.82713,9.87782,14.19721-.47479,1.4334-2.88257,3.55453-3.68,4.94989a26.49692,26.49692,0,0,0-2.40055,5.6841c-1.83747,6.26346-1.60976,15.67048-9.9356,16.9352a.62829.62829,0,0,0-.45885.60268c-.07544,3.88178,1.51264,7.65578,1.14759,11.71891-.49757,5.538-2.101,10.90951-3.52762,16.26092l-8.435,31.6408a.63307.63307,0,0,0,.43652.76883c6.25974,1.48106,10.41312.37929,13.93431-5.118a95.12845,95.12845,0,0,0,10.67035-23.081c2.94619-9.49945,4.76585-18.63589,9.89757-27.31345a44.32741,44.32741,0,0,0,4.49167-9.80283c.56152-1.8376.84484-4.11388,1.8863-5.76428,1.19356-1.89141.72756-1.69349,2.35789-.25253a13.356,13.356,0,0,1,2.49659,3.77272c9.70945,18.38709-1.97788,40.858-5.33368,59.46867-.93514,5.18616,2.42174,6.27294,7.1846,6.61054,7.576.537,8.12417-4.6165,10.89092-10.57727,3.96107-8.53388,9.46129-17.4018,11.77274-26.56128,2.3179-9.185-.40995-20.25972-1.73226-29.49479l-1.04461.60809a88.4075,88.4075,0,0,1,9.80985,10.54632c.34856.44168,1.06872.058,1.06694-.44194-.04656-13.12055,1.27867-27.32214-2.51654-40.06481a67.663,67.663,0,0,0-7.176-15.31363c-1.74342-2.90737-3.60173-5.74353-5.40429-8.614-1.83257-2.9183-4.676-6.35414-5.725-9.61684-.84313-2.62242-.36409-6.36371-.37288-9.13374-.01228-3.87259.17832-7.74207.37848-11.60825.41164-7.95074.86445-15.89956,1.29707-23.84918l2.43962-44.82964c.65336-12.0059.13043-23.7384-5.48025-34.71468-.75071-1.46862-1.91237-3.55132-3.38006-4.43565,1.1019.66393-2.67214-1.16494-2.03266-.66563-1.59-1.24149-2.596-3.60285-4.27931-4.96664a22.05616,22.05616,0,0,0-5.09716-3.03983c-11.889-5.18369-27.05921-1.338-39.49841-.5035-14.76359.99049-29.549,1.6039-44.33166,2.22649-33.67831,1.41841-67.43966,3.98553-100.98768-.57019-.40921-.05557-.96781.26877-.76882.76883.42229,1.06121-.51884-.01072-1.039.14525-1.40862.4224-3.48206.10889-4.97373.15546q-4.47636.13976-8.95275.27889-8.95277.27826-17.9056.55405-17.4083.53626-34.81689,1.06315c-11.41326.34545-22.83823.87192-34.25571,1.01948-4.95644.06405-10.436-.06316-14.55885-3.15819-3.52072-2.643-4.55324-6.69552-8.83372-8.39428-9.19139-3.64772-21.80119-1.933-28.763-9.85535-5.31911-6.053-11.01179-9.509-19.3947-8.7966C52.37292.741,45.66077,5.03126,40.2227,10.18822c-1.93641,1.83631-3.4591,4.34791-6.2748,4.78243-2.28822.35312-5.21683-.34727-7.54958-.47373-5.66322-.307-11.33749-.52218-17.009-.58609C5.01155,13.86149-3.46092,15.6638,1.523,21.8734c2.80334,3.49276,8.15226,4.16377,11.42336,7.37485a20.55,20.55,0,0,1,5.80813,17.98358c-.10274.642.79745,1.1684,1.14235.4816l.63406-1.26265c.35907-.715-.7032-1.34657-1.07933-.6309-3.85175,7.3288-8.1841,14.5782-11.50326,22.16593-1.86664,4.26723-3.3515,9.47563-1.339,13.97173,4.5275,10.11475,22.38988,3.89112,29.93823,2.00927,7.65741-1.909,15.35616-3.00416,22.70972.59066C65.80835,87.76,70.758,93.76108,74.73655,99.70061,83.65,113.00749,89.94632,127.96844,95.475,142.93377c4.801,12.99563,9.23068,26.90108,20.45229,35.87453l.6081-1.04462-.72868-.24628a.62775.62775,0,0,0-.4816,1.14234c18.36555,9.5256,33.90623,24.67029,39.33638,45.0129,5.66533,21.2237,6.38743,43.55345,4.94844,65.37378a.6272.6272,0,0,0,.45885.60267,26.69557,26.69557,0,0,0,10.6705.0673c.78919-.15126.455-1.35625-.3323-1.20535Z"/><path class="cls-4" d="M179.50411,281.75162c2.27209-16.04125.19944-32.2683,2.02693-48.32967.99933-8.78286,3.31623-17.41281,8.09384-24.933,3.0634-4.82191,5.96-7.81452,11.821-8.35929,3.7311-.3468,7.50078-.00509,11.241-.104a1.25076,1.25076,0,0,0,0-2.5c-6.435.17016-14.97279-1.43713-20.26025,3.25985-6.362,5.65152-10.03664,15.36782-11.88673,23.44374-4.27551,18.66333-.77763,38.01536-3.44647,56.85771-.22288,1.57358,2.18564,2.25357,2.4107.6646Z"/><path class="cls-4" d="M9.32135,28.07288c12.26619,3.26629,21.035,14.15261,16.63152,27.09371-3.05122,8.96705-13.383,15.89012-12.27168,26.27441,1.07315,10.0277,13.33348,11.99367,21.39326,10.89544,6.111-.83269,11.40673-4.3434,17.35894-5.81629,7.83357-1.93843,14.33483,1.20231,20.198,6.26095,15.88537,13.70555,20.50832,36.08315,28.9359,54.3938,2.27292,4.93838,4.92887,9.60247,6.88813,14.69247,1.77718,4.617,3.41624,9.46434,6.46463,13.43071,2.87629,3.74247,7.39963,6.19418,11.27137,8.77619a177.946,177.946,0,0,1,14.90417,10.50851c11.62788,9.61121,16.06892,23.41879,20.039,37.5475,4.5543,16.20773,6.47219,32.98629,3.83655,49.69666-.24825,1.57393,2.16036,2.25178,2.41069.66459a113.62383,113.62383,0,0,0-1.62076-42.20626,170.78679,170.78679,0,0,0-5.504-19.26076c-2.10619-6.08431-4.12632-12.58557-7.775-17.95849-5.95651-8.77143-15.16234-14.5971-23.83266-20.3563-5.3033-3.52268-10.8622-6.65611-13.95957-12.43975-2.74972-5.13445-4.16793-10.85891-6.75792-16.06882-5.17219-10.40418-9.37086-21.04084-13.78686-31.78316-3.76244-9.15245-7.986-18.29433-14.39088-25.9326-6.0107-7.16821-14.88861-14.37475-24.79647-13.02882-6.72761.91391-12.46623,4.95967-19.04516,6.23759-7.12954,1.38488-19.85923.08958-19.80727-9.65208.03685-6.9092,5.77092-12.96057,9.3766-18.38639a24.21877,24.21877,0,0,0,4.13914-14.81961C28.91248,35.86215,20.056,28.34368,9.986,25.66218a1.25107,1.25107,0,0,0-.6646,2.4107Z"/><path class="cls-4" d="M211.625,199.803c28.61687,8.24555,62.10687,13.28194,91.29206,5.0421,14.44043-4.077,27.79821-11.07078,41.7932-16.35318,13.88427-5.24061,30.42061-10.38689,44.16733-2.15913a1.25093,1.25093,0,0,0,1.2618-2.15867c-11.83967-7.08634-25.55589-4.839-38.08183-.88357-14.26042,4.50319-27.54425,11.51083-41.61566,16.51321-31.25079,11.10964-66.91572,6.58893-98.15231-2.41145a1.25106,1.25106,0,0,0-.66459,2.41069Z"/><path class="cls-4" d="M389.91036,187.46512c2.48812,2.346,3.32446,5.39968,5.36784,7.94776,1.433,1.787,4.2613,3.28655,6.02924,4.66983a124.26406,124.26406,0,0,1,12.536,10.84007c4.10993,4.21071,7.79121,9.03559,9.73606,14.65026,2.12579,6.13705,1.97393,13.08369,1.7622,19.50087a112.81831,112.81831,0,0,1-2.54955,20.46185q-1.02819,4.68436-2.45964,9.26673c-1.0673,3.402-2.92515,6.7653-3.82044,10.17658-2.48438,9.46612,11.50407,4.94861,15.46,5.629a1.27129,1.27129,0,0,0,1.53764-.87305c1.50033-7.60944,5.67547-13.98633,9.42208-20.64283a46.66854,46.66854,0,0,0,5.97549-17.56621c.93285-7.83843-1.15666-15.34926-1.84659-23.11348-.72368-8.14385-.752-16.33616-1.58894-24.47138-.6943-6.74872-1.90342-12.33227-5.71533-18.04055-3.407-5.10192-7.69792-9.51194-11.78067-14.06225-5.61094-6.25351-10.45177-12.39667-11.30644-21.05109-.70467-7.13546.505-14.37244.8852-21.49374.08584-1.60775-2.41442-1.603-2.5,0-.71117,13.32068-3.18028,26.25624,5.512,37.61133,3.622,4.73155,7.82889,8.95287,11.72558,13.44976,5.74591,6.63094,9.43565,12.87369,10.47512,21.70412.91968,7.81271,1.00948,15.6902,1.57293,23.53018.54131,7.53192,2.64626,15.16606,2.33134,22.70749-.34738,8.31894-3.52616,15.43434-7.62279,22.533-3.362,5.82574-6.63433,11.57007-7.94962,18.241l1.53764-.87305c-3.13343-.53889-12.37012,2.43667-13.67063-1.106-.64554-1.75845,1.82478-5.96181,2.38961-7.52459q1.62326-4.49126,2.83024-9.1181a113.44172,113.44172,0,0,0,3.47271-36.573c-.70152-9.78486-5.27528-17.79092-12.04741-24.72072a120.43511,120.43511,0,0,0-11.934-10.368c-2.49645-1.95938-5.41287-3.71836-7.1927-6.38978-1.61588-2.42534-2.64333-4.66032-4.80639-6.69985-1.1701-1.10328-2.9413.66125-1.76777,1.76777Z"/><path class="cls-4" d="M416.73347,129.84057c4.1904-10.86648,8.36256-21.86323,9.5663-33.532,1.23779-11.99891.18055-24.34475-.09227-36.37948a1.25076,1.25076,0,0,0-2.5,0c.25962,11.45246,1.15272,23.11168.25709,34.54655-.94693,12.08986-5.31742,23.48639-9.64181,34.70035-.57929,1.50218,1.8369,2.15253,2.41069.6646Z"/><path class="cls-4" d="M422.675,98.43473c3.07691,10.63739.94724,23.31737.59849,34.28239L422.19631,166.584c-.05119,1.60921,2.44887,1.60746,2.5,0l1.14051-35.859c.33918-10.6642,2.25457-22.56354-.75115-32.95482a1.25107,1.25107,0,0,0-2.4107.6646Z"/><path class="cls-4" d="M444.17365,219.04869a73.01091,73.01091,0,0,0,10.55774,19.40986c.69.90716,2.36353.73133,2.32933-.63089-.35-13.94167.91127-29.15349-2.71029-42.74932-3.17271-11.91078-12.8553-20.23745-16.94523-31.65185-2.48856-6.94523-1.58492-14.2305-.95632-21.40668q1.0259-11.71189,1.7571-23.44682,1.45329-23.47043,1.689-46.99085a1.25075,1.25075,0,0,0-2.5,0q-.26075,23.51332-1.689,46.99085-.69632,11.24525-1.67229,22.47078c-.58194,6.69676-1.52662,13.5666.09775,20.19214,2.881,11.751,12.78688,20.00591,16.80226,31.24652,2.47973,6.94173,2.81726,14.37857,3.03147,21.67726.23152,7.88818.39751,15.77888.59555,23.668l2.32934-.6309a70.85287,70.85287,0,0,1-10.30572-18.81267c-.54591-1.49991-2.96278-.85228-2.41069.6646Z"/><path class="cls-4" d="M440.32764,71.0546c.80938-12.6717-1.1545-26.1916-10.288-35.719-10.20031-10.64028-23.71888-8.88282-37.20426-8.02113q-51.50414,3.291-103.112,4.53108c-9.36.2249-18.73533.51741-28.09751.27145-4.4843-.11781-8.96718-.368-13.42931-.83584-4.01245-.42069-7.79961-1.24766-11.805-.52984-1.58107.28335-.91114,2.69309.6646,2.4107,4.83139-.86586,10.121.5866,14.96856.96986,4.47429.35376,8.96267.505,13.44988.55385,9.71928.10576,19.44709-.21086,29.16241-.46271q29.481-.76425,58.93964-2.19863,14.728-.71714,29.44726-1.60166c9.41518-.56579,19.32268-2.17729,28.73061-1.31136,20.94608,1.92794,27.20813,24.173,26.0731,41.94326-.10261,1.6065,2.39779,1.60032,2.5,0Z"/><path class="cls-4" d="M237.07064,30.59114q-56.60234-1.0041-113.12676,2.88834l1.20535,1.5823c1.70264-8.62764-6.40725-13.08274-13.79223-14.0199-5.83708-.74072-11.91915-.22845-17.04951-3.61169-3.85283-2.54077-6.54792-6.51045-9.82217-9.68879-6.69327-6.4972-13.90067-6.56965-22.3255-3.13729C54.59462,7.68625,47.42335,12.212,44.59834,20.24054c-.53506,1.52064,1.87937,2.17463,2.4107.6646C49.77475,13.04507,57.70043,8.72576,65.15285,6.11043c9.653-3.38759,14.85791.37437,21.09372,7.155,4.06319,4.41822,8.05317,8.06537,14.15006,9.213,7.02989,1.3233,24.73057-.18519,22.3419,11.91868a1.26456,1.26456,0,0,0,1.20535,1.5823q56.47736-3.89124,113.12676-2.88834a1.25076,1.25076,0,0,0,0-2.5Z"/><path class="cls-4" d="M44.59082,18.873c-4.71054.98629-10.03022-.93864-14.73247-1.56578A41.69361,41.69361,0,0,0,17.09872,17.213c-4.46232.78678-11.68069,3.85763-8.16429,9.49419.84975,1.36211,3.01354.1085,2.15868-1.2618l3.22578-4.97961a18.47475,18.47475,0,0,1,2.57888-.66341A31.44251,31.44251,0,0,1,21.823,19.271a54.13967,54.13967,0,0,1,10.391.90273c4.33966.69254,8.66014,2.02735,13.04136,1.11,1.57376-.32952.90776-2.73992-.6646-2.4107Z"/><path class="cls-4" d="M185.95877,211.81414c-.26711,9.02928.00417,17.8685,2.34834,26.63077,2.40338,8.98359,6.13912,17.80172,5.31278,27.29711-.40823,4.691-1.66811,9.31981-2.66553,13.91269-.5516,2.54-2.851,7.71635-2.01367,10.24687a2.44569,2.44569,0,0,0,2.15962,1.98593c1.79221.43707,4.627-.4919,6.443-.72028a25.39019,25.39019,0,0,0,4.55917-.61185c1.85815-.60256,2.4105-1.33284,2.82561-3.21441.91728-4.15771,1.193-7.919,2.719-11.94854,2.99945-7.92017,6.27764-14.88576,5.03935-23.56411-1.177-8.24873-7.70362-14.06084-7.77387-22.39888-.084-9.97074,1.5178-20.10162,3.564-29.82435.33033-1.56959-2.079-2.24056-2.4107-.6646a170.85033,170.85033,0,0,0-3.285,22.8944c-.43974,6.09469-1.13575,11.98581,1.98428,17.45191,4.38584,7.68372,7.16424,14.84192,4.84935,23.84624a80.66057,80.66057,0,0,1-3.71963,9.94934c-1.37164,3.40124-1.83914,6.86876-2.97518,10.28679-.83344,2.50761-1.42672,4.27492-4.45159,5.18175-.69215.2075-6.13672,1.19959-6.474.81416-1.35968-1.554,1.34062-8.90671,1.75348-10.80785,1.44937-6.674,3.01561-13.17761,2.24182-20.04942-.80218-7.12388-3.42445-13.84558-5.27173-20.7275-2.29661-8.55585-2.51934-17.16715-2.259-25.96617a1.25077,1.25077,0,0,0-2.5,0Z"/><path class="cls-4" d="M164.99579,281.12265l-.31751,4.65353c-.0712,1.04345-.549,2.78089-.027,3.75594,1.01615,1.89807,4.41935,1.03248,6.09808.99653,1.95-.04176,5.12845.612,6.47515-1.20771a10.5,10.5,0,0,0,1.16646-3.37565l1.35846-4.79165a1.25107,1.25107,0,0,0-2.4107-.6646l-1.11146,3.92044c-.28179.99393-.44779,2.98722-1.40244,3.5319-.80154.45732-3.1282.067-4.07547.08727-.97668.02092-3.49778.53867-4.32483-.05747l.6191,1.07934c-.29335-2.53064.27825-5.37961.45212-7.92787.10958-1.60588-2.39089-1.5991-2.5,0Z"/><path class="cls-4" d="M387.48859,230.97082c3.95747,12.04106,1.43368,22.44656-3.85733,33.52311-4.35608,9.11932-3.00844,19.19562-6.75514,28.39-.34.83426.49824,1.50042,1.20535,1.5823,3.44251.39862,8.76409,1.0085,12.02837-.67511,2.00487-1.034,2.04426-2.47522,2.74752-4.49731,2.6469-7.6106,9.503-12.79093,10.84225-21.005.78835-4.83507,1.06386-9.41281,2.82915-14.04376a124.24943,124.24943,0,0,1,6.48991-13.41273c4.18891-7.9662,7.88349-16.14674,7.652-25.32661a1.25076,1.25076,0,0,0-2.5,0c.42684,16.92453-13.24088,29.23186-16.1042,45.31451-.67581,3.79589-.53228,7.67017-2.03925,11.28518-1.3035,3.1269-3.36769,5.80679-5.26707,8.58483a56.20878,56.20878,0,0,0-4.31345,7.939c-1.33619,2.80708-1.43121,3.15069-5.13438,3.51852a33.55491,33.55491,0,0,1-7.23082-.1815l1.20535,1.5823c1.95884-4.807,2.33594-9.79121,2.93085-14.89493.82169-7.04911,3.663-12.4954,6.46275-18.89722a41.014,41.014,0,0,0,1.21887-29.45015c-.50006-1.5215-2.91506-.87-2.4107.6646Z"/><path class="cls-4" d="M250.37554,56.77339A39.57191,39.57191,0,0,1,241.573,46.01455c-1.74456-2.9748-2.87312-8.23616-6.19128-9.55237-3.34481-1.32679-10.47279.45894-14.25519.23047-5.1362-.31024-10.24638-.96534-15.39269-1.12457-9.13416-.28262-18.24287.94358-27.37523,1.27923a210.43661,210.43661,0,0,1-31.15286-1.55838c-3.42153-.38363-9.18391-2.01219-9.84907,2.9878-.46823,3.51973,3.95634,6.30216,5.56107,8.9796,2.0196,3.36963,1.925,7.53561,2.11267,11.4597.18763,3.92438.93122,8.23591,3.98112,10.71261a19.12988,19.12988,0,0,0,3.72952,2.11265,43.3823,43.3823,0,0,1,15.75742,13.20154c2.4792,3.37836,4.49411,7.14972,7.53788,10.02985s7.5455,4.751,11.46093,3.25791c3.77839-1.44078,5.90084-5.48753,9.33459-7.62328,3.51866-2.18857,7.982-2.11587,12.07229-1.45222s8.15345,1.84887,12.29192,1.63922c4.389-.22234,8.53052-1.99659,12.5627-3.74427,7.14337-3.09618,14.49021-6.3312,19.87217-11.9569,2.69139-2.81328,4.90867-6.73447,3.8026-10.4674C256.43052,61.04058,253.10425,59.01381,250.37554,56.77339Z"/><path class="cls-4" d="M250.81748,56.33145a39.33759,39.33759,0,0,1-10.18437-13.75879c-1.31215-2.919-2.62792-6.09759-5.99615-6.983-3.98193-1.0467-8.48311.45124-12.49928.49609-6.77286.07564-13.519-1.24041-20.31708-1.17843-14.41022.13139-28.51134,1.92638-42.95925.85991-5.20455-.38417-10.38481-1.28422-15.58195-1.61032-2.5013-.15694-5.15744.15751-6.22573,2.76254-1.1177,2.7255.60795,5.11,2.28856,7.09116,2.64663,3.1199,4.28673,5.37016,4.78879,9.60859.32435,2.73807.13649,5.51413.569,8.24412.70824,4.47023,2.47528,7.4389,6.43449,9.58964,5.60623,3.04544,10.74512,6.32361,14.93827,11.23077,5.12453,5.99715,10.20023,18.433,20.26656,16.32584,3.84654-.80518,6.02193-4.05581,8.807-6.503,6.73323-5.91631,14.80307-2.10167,22.51852-1.40452,5.90329.53341,11.08161-1.41769,16.40936-3.7124,5.6561-2.43614,11.386-4.958,16.28949-8.74528,3.53249-2.72837,7.569-6.64873,7.94577-11.40395.41043-5.17938-3.89359-8.04147-7.492-10.909-.62292-.4964-1.51309.38247-.88388.88388,4.75508,3.78931,9.37884,7.91865,5.439,14.43165-2.8443,4.70194-8.05719,7.9232-12.80353,10.42882a105.90662,105.90662,0,0,1-14.345,6.34069c-6.33569,2.21013-11.83845,1.18988-18.27793.09131-7.67488-1.30932-12.641.10341-18.09584,5.52661-11.14935,11.08465-18.58845-4.84737-24.89359-12.23454a43.85122,43.85122,0,0,0-8.40081-7.56389c-4.91369-3.39852-10.77725-4.68688-12.38486-11.225-1.03361-4.20368-.17149-8.6817-1.38138-12.86171a13.03578,13.03578,0,0,0-1.961-4.1056c-.99489-1.38155-3.64636-3.16355-4.05525-4.785l.84881-2.87321q-.39072-3.59686,2.62549-3.02991a13.23851,13.23851,0,0,1,2.9205.277c1.32637.1618,2.6474.34862,3.9767.49415,5.81679.63681,11.66014,1.11692,17.50862,1.32632,11.13007.3985,22.10724-.97183,33.21138-1.25733,6.49271-.16694,12.87156.56133,19.33665.99115,4.01041.26662,7.84629-.52657,11.83833-.57877,6.67361-.08726,7.36495,4.93584,9.99345,9.722a40.03921,40.03921,0,0,0,8.90029,10.88533C250.53916,57.73952,251.427,56.85909,250.81748,56.33145Z"/><path class="cls-4" d="M319.85185,33.07534c2.354-.0977,3.56518,3.16041,2.57249,5.29709S319.23,41.75467,317.298,43.10307a18.42437,18.42437,0,0,0-6.07958,6.55945,10.40937,10.40937,0,0,0-.53,8.72922c1.59495,3.64221,5.44689,5.63835,8.93192,7.55253q4.17329,2.29221,8.13862,4.93847c5.86449,3.91411,11.76458,9.07789,12.76284,16.05757,1.07,7.4811-3.80161,14.41382-5.37807,21.8048a25.54218,25.54218,0,0,0,.19938,11.47266c.90585,3.62462,2.80006,7.23427,6.06648,9.04784,3.80461,2.11238,8.6528,1.31021,12.49672-.72976s6.97971-5.16011,10.35622-7.90536,7.24922-5.2197,11.58789-5.55609c2.18626-.16951,4.37544.21585,6.5679.256a18.46536,18.46536,0,0,0,12.76728-4.611c3.39362-3.121,5.29356-7.51532,6.858-11.85232a126.32393,126.32393,0,0,0,4.78866-16.86,22.07969,22.07969,0,0,0,.60834-7.80016c-.58841-3.88723-3.05494-7.2728-6.00911-9.86695s-6.41247-4.532-9.70593-6.679c-9.969-6.49894-16.45394-14.84624-24.16861-23.58812-6.66411-7.55145-23.0587.93012-32.5297-1.20565-2.41058-.54361-4.79212-1.48628-7.25885-1.33927-2.95392.17605-5.73751,1.90962-8.68217,1.617"/><path class="cls-4" d="M319.6857,33.678l.6198,6.45236a40.283,40.283,0,0,1-3.323,2.433,31.22235,31.22235,0,0,0-2.49818,1.96725,16.99021,16.99021,0,0,0-3.80562,4.81642,10.64261,10.64261,0,0,0,.60862,11.22971c2.73184,3.69859,7.49506,5.5198,11.32387,7.79816,6.09773,3.62849,12.96063,7.90388,16.01218,14.58975,3.03358,6.64651.17617,13.0419-2.13954,19.36789-1.97474,5.39451-3.15291,10.68713-2.09122,16.43531,1.70834,9.24934,8.923,14.86844,18.19528,11.07433,4.16868-1.70577,7.44836-4.89412,10.8598-7.72559,3.2158-2.6691,6.74045-5.41726,10.96376-6.21683,3.67047-.69491,7.40143.38146,11.09431-.13052,10.12588-1.40383,14.66338-9.537,17.7242-18.39018,3.13844-9.07764,8.25888-21.44083,1.78557-30.11757-2.82551-3.78728-6.917-6.2888-10.84086-8.78067A82.52436,82.52436,0,0,1,378.0962,45.06024c-3.75576-4.00792-7.23938-9.84158-11.79467-12.90956-3.64243-2.45317-8.53645-2.04039-12.65248-1.51987-5.08807.64344-10.20038,2.111-15.35957,1.965-3.00775-.08512-5.72875-1.31823-8.6852-1.62209-3.65541-.3757-6.88391,1.53139-10.518,1.54619a.62537.62537,0,0,0,0,1.25,27.66525,27.66525,0,0,0,5.9389-1.07683c3.87018-.83011,7.11015.42,10.87645.9662a33.92233,33.92233,0,0,0,10.01747-.53573c4.214-.65365,8.46386-1.66935,12.7489-1.62308,6.34393.06852,9.07879,3.74088,12.966,8.20046a112.98736,112.98736,0,0,0,24.04878,21.213c5.34637,3.48626,10.91433,7.92977,11.27213,14.85351.31216,6.04039-2.27075,13.0976-4.10082,18.78242-1.76619,5.48637-3.69782,11.72617-8.11038,15.72756-5.79521,5.25522-11.94445,3.59442-18.89324,4.172-10.74109.89273-15.95183,12.49383-25.94993,14.9618-9.58286,2.36546-14.26945-5.93371-14.657-14.09223-.29485-6.20749,2.18878-11.57593,4.18433-17.27631,3.09533-8.842,1.80224-16.39856-5.15488-22.90419-4.2194-3.94558-9.33816-6.911-14.33719-9.73387-2.84119-1.60439-6.19443-3.178-8.00892-6.03658-2.94512-4.63976-.57337-9.99925,2.8992-13.42906,2.50849-2.47762,7.8454-4.45157,8.50569-8.45478a4.1397,4.1397,0,0,0-3.31378-5.01151c-.78695-.12659-1.12567,1.07773-.3323,1.20535Z"/><path class="cls-4" d="M118.26186,28.91551H121.492l-.00887.22084-2.896.34317.19825-.01167a10.13957,10.13957,0,0,0-8.38464,3.26047,4.28532,4.28532,0,0,1-1.46873,1.37411c-1.05145.45885-2.29537-.01382-3.4442-.24847-3.10736-.63468-6.79906.99467-7.43284,3.66256-.767,3.22856,2.70643,6.0449,3.41028,9.28387a6.20285,6.20285,0,0,1-2.29733,6.04569,8.97287,8.97287,0,0,1-7.19829,1.66785c-2.541-.508-4.71922-2.0786-7.31715-2.29217a11.6317,11.6317,0,0,0-6.93364,2.167c-2.0305,1.26989-3.92837,2.76473-6.27264,3.55a23.49691,23.49691,0,0,1-7.86887.73873l-5.63377-.10756c-2.953-.05638-6.19933-.21042-8.34492-1.93962a4.72377,4.72377,0,0,1-1.02582-6.36889c1.56632-2.224,4.75877-3.08876,7.56133-4.1022a37.5268,37.5268,0,0,0,6.89075-3.30951c1.83545-1.12883,3.65895-2.5795,3.9812-4.48827.39918-2.36451-1.54533-5.099.176-6.98486A5.69049,5.69049,0,0,1,69.12327,30.166a45.33109,45.33109,0,0,1,9.378-2.95975c2.40987-.48356,5.11454-.90324,6.58943-2.59717,1.29939-1.49235,1.22453-3.51942,1.09316-5.37407l-.53656-7.575.00378-.0736a2.74073,2.74073,0,0,0,.29578-1.92935l.28295-.11459a10.54933,10.54933,0,0,0,3.1074,3.46885c4.33137,3.60949,9.36108,7.4671,15.41894,7.35258,1.701-.03216,3.37514-.38757,5.07551-.43978,6.10214-.18735,11.9251,4.13744,12.5385,9.3125"/><path class="cls-4" d="M118.26186,29.54051c1.75858,0,2.74171-.97233.32525-.686-.77791.09218-.81922,1.29823,0,1.25l.19825-.01167a.62539.62539,0,0,0,0-1.25,11.85306,11.85306,0,0,0-7.03018,1.88159c-2.25768,1.56033-2.07227,2.30795-6.10124,2.52684a25.22265,25.22265,0,0,0-2.97083-.0293c-3.4936.58074-5.97828,3.25528-5.12053,6.81786a14.52906,14.52906,0,0,0,1.43934,2.99829,16.46293,16.46293,0,0,1,.986,1.71468c1.1708,3.27791,1.02208,4.2983-1.39681,6.6948-3.11465,3.08582-5.28387,2.90323-9.38047,1.49887a18.21414,18.21414,0,0,0-4.4751-1.33856c-6.64371-.517-11.26821,6.0827-17.95291,6.44493a73.57563,73.57563,0,0,1-11.74086-.28969,9.27082,9.27082,0,0,1-2.81611-.47675L50.922,48.97424l2.52047-1.1927c1.43691-.59045,2.93893-1.01626,4.37748-1.60668,3.95424-1.62294,9.788-4.02863,9.84328-9.021.03386-3.05616-1.45832-2.855,1.27359-5.334a12.565,12.565,0,0,1,5.72364-3.01126c2.92233-.865,6.40286-.98421,9.10433-2.46951A5.57027,5.57027,0,0,0,86.77653,22.224c.62774-3.21914-1.5495-7.59006-.50419-10.564.73824-2.10034.0248-.49921.31869-.39456,1.37919.49109,3.52032,3.2187,4.73808,4.15586a28.99231,28.99231,0,0,0,7.78579,4.56781c3.71716,1.32949,6.87634.58859,10.7168.56,5.45921-.04064,10.84039,3.28881,11.93582,8.85365.15523.78856,1.36028.45474,1.20535-.3323-1.041-5.28817-5.64384-8.89109-10.88523-9.62113-4.039-.56257-7.85008.84228-11.899-.39515-4.84-1.47919-10.721-5.52342-13.41912-9.82717a.633.633,0,0,0-.70581-.28722l-.283.11459a.64844.64844,0,0,0-.45885.60267c.10306,3.29423.9086,7.84468.30434,10.99018-1.25088,6.51148-10.40345,6.36087-15.17012,8.28714-1.67556.67712-3.65906,1.30858-4.3967,3.13467a6.66564,6.66564,0,0,0-.08614,2.62038c-.05257,3.60523-.04532,5.51073-3.26385,7.62052-4.10222,2.68907-13.43562,3.45064-15.286,8.83595-1.70364,4.95817,3.45368,7.4254,7.43794,7.89412,6.87436.80872,14.69885,1.16388,20.76293-2.5396,4.65893-2.84532,7.88946-4.2172,13.25406-2.34859,3.12426,1.08825,6.11592,1.74049,9.22911.10383,4.06185-2.13537,4.84434-6.2591,2.95981-10.13375-1.36887-2.81444-4.51367-5.71739-.48372-8.82714,3.05218-2.35526,5.51533.65545,8.34846-.56734.45485-.19631.8154-.54115,1.26156-.786a10.73845,10.73845,0,0,1,2.81507-2.56776,10.041,10.041,0,0,1,5.77674-1.28081v-1.25l-.19825.01167v1.25l2.896-.34317a.644.644,0,0,0,.625-.625l.00887-.22084a.63246.63246,0,0,0-.625-.625h-3.23012a.62537.62537,0,0,0,0,1.25Z"/><path class="cls-4" d="M153.9601,40.1654c6.68552-2.34043,13.42535-1.4474,20.34441-1.1868,6.39085.2407,12.209-1.15146,18.491-1.94081,13.25178-1.6651,27.4066.08064,40.73465.44148,3.21865.08714,3.21647-4.91292,0-5C219.982,32.11248,205.6,30.33576,192.131,32.08871c-6.99716.91066-13.40588,2.14057-20.51986,1.75032-6.46519-.35467-12.78065-.66535-18.98025,1.505-3.01739,1.05632-1.71911,5.88853,1.32919,4.8214Z"/><path class="cls-4" d="M220.938,199.43228a155.7076,155.7076,0,0,0,51.45521,7.74479c3.78979-.07156,7.57778-.282,11.34825-.6708a120.71062,120.71062,0,0,0,49.09792-16.24274l.03948-.037-5.06-11.43606c-1.35857-3.07052-2.77206-6.22159-5.17674-8.565-5.05226-4.92345-12.98812-5.02546-20.00733-4.321s-14.54918,1.81257-20.7715-1.51135c-5.994-3.20194-9.50048-9.92694-15.52781-13.06559-3.34033-1.73943-7.16713-2.22224-10.88412-2.82835a140.17649,140.17649,0,0,1-22.33511-5.55765c-8.56213-2.8956-17.53812-6.67789-26.3251-4.56046a20.76786,20.76786,0,0,0-11.87673,7.98493c-1.81195,2.51962-3.0654,5.61884-2.64015,8.69306.48783,3.52661,3.0639,6.40186,5.83873,8.6324a37.47561,37.47561,0,0,0,14.96222,7.2707c2.16358.50108,4.46419.84883,6.23158,2.19364,2.73866,2.08385,3.38052,5.87275,3.7919,9.28939.74835,6.2153,1.17129,13.2696-2.99755,17.9398"/><path class="cls-4" d="M220.77188,200.035a155.15692,155.15692,0,0,0,62.0263,7.18618,121.2057,121.2057,0,0,0,27.36121-5.8521,122.423,122.423,0,0,0,12.24259-4.89668c3.419-1.58648,8.16609-3.22354,10.91885-5.80389a.64454.64454,0,0,0,.09773-.75739c-2.98558-6.74773-5.40015-16.27606-11.38221-21.04911-4.61625-3.68326-10.88584-4.125-16.55394-3.81169-9.26371.512-18.87394,2.9696-26.737-3.57278-5.10284-4.24576-8.6392-9.79755-15.21209-11.968-3.75887-1.24119-7.8241-1.54181-11.69708-2.283a140.222,140.222,0,0,1-14.8994-3.70741c-8.08562-2.48943-16.22639-6.44783-24.85559-6.37979-10.2454.08078-26.10593,10.70919-18.71745,22.411,4.07576,6.45517,12.43545,10.218,19.54533,12.0145,3.57443.9032,7.1625,2.04632,8.56374,5.902a27.3361,27.3361,0,0,1,1.16587,6.42607c.5937,5.56872.665,11.43049-2.97947,16.05013-.493.62486.38573,1.51532.88388.88388,4.79647-6.07986,4.40292-15.26262,2.49983-22.43911-.75755-2.85671-2.1334-5.25932-4.83572-6.61132-2.02566-1.01346-4.43927-1.222-6.59092-1.83259a37.35636,37.35636,0,0,1-9.06356-3.91505c-7.20817-4.33771-12.78354-11.06791-7.12666-19.20851,4.18158-6.01755,11.23255-8.79344,18.42356-8.37831,6.01206.34707,11.74707,2.5816,17.38271,4.51323a150.48724,150.48724,0,0,0,18.38813,5.10274c5.5944,1.15421,11.97068,1.29193,17.027,4.17163,4.64731,2.64677,7.65586,7.28825,11.7784,10.58493,7.52667,6.01885,16.72032,4.28176,25.6239,3.58594,4.94815-.38669,10.42383-.42691,14.93,1.957,6.06749,3.20989,8.23186,10.59548,10.82949,16.46639,1.423,3.21607,2.64654,4.431-.29785,6.6311-2.18107,1.62976-5.27936,2.79654-7.74031,3.938a119.63061,119.63061,0,0,1-17.74873,6.57952c-27.03465,7.65-56.37978,5.40508-82.91817-3.14293-.76748-.2472-1.09615.95932-.3323,1.20535Z"/><path class="cls-4" d="M388.751,186.89306c3.68679,1.922,6.927,5.94461,9.94754,8.80307q4.47342,4.23341,8.86556,8.55146c5.7743,5.67726,13.1188,11.51367,14.8771,19.79968.33378,1.57295,2.74425.9073,2.41069-.6646-1.74424-8.21977-8.44845-13.9128-14.17068-19.57224Q405.29164,198.48,399.777,193.27819c-3.00957-2.83885-6.06993-6.61788-9.76424-8.5438-1.425-.74289-2.69051,1.41385-1.2618,2.15867Z"/><path class="cls-4" d="M164.62618,289.02861a25.84825,25.84825,0,0,0-4.02536,8.29849c1.532,1.03878,3.55586.79541,5.38086,1.10425,1.39643.23632,2.71139.81177,4.08446,1.159a5.76653,5.76653,0,0,0,4.14269-.23122c1.86726-1.01552,2.47865-3.35439,2.90763-5.43618l1.159-5.62456"/><path class="cls-4" d="M164.08651,288.71316a29.51686,29.51686,0,0,0-4.08836,8.44779.63081.63081,0,0,0,.28722.70582c2.377,1.183,5.039,1.01807,7.58115,1.70516,2.13169.57614,4.3603,1.48656,6.50846.38984,3.69258-1.88519,3.78665-8.02012,4.50316-11.49726.16178-.78513-1.04285-1.1209-1.20535-.3323-.4465,2.16682-.79529,4.38741-1.35715,6.52789-.557,2.12189-1.22245,4.27-4.12982,4.57355a11.12353,11.12353,0,0,1-3.987-.86707c-1.51022-.43974-6.01725-.582-6.659-1.98247-.57789-1.26121,2.89447-5.99077,3.626-7.04005.46109-.66138-.622-1.28685-1.07934-.6309Z"/><path class="cls-4" d="M376.75612,293.40164c-4.04738,3.65767-6.3821,8.79105-8.608,13.77151-.14463.32359-.27167.7502-.013.99253a.86909.86909,0,0,0,.53527.16985,178.59889,178.59889,0,0,0,22.20593.98277c.77887-.03027,1.71357-.17249,2.02491-.88707a2.16517,2.16517,0,0,0-.02984-1.35216,75.46856,75.46856,0,0,1-1.98731-14.73859"/><path class="cls-4" d="M376.31418,292.9597a30.9754,30.9754,0,0,0-5.48229,7.23424c-.85912,1.54172-3.73136,5.44578-3.44424,7.3398.42685,2.81562,5.724,1.807,7.75173,1.95828,4.0035.29868,8.01631.53029,12.0325.52255,1.36511-.00262,4.17137.51574,5.33409-.44125,1.257-1.03461,1.03132-.86994.968-2.6604-.16963-4.79807-1.73216-9.68861-1.965-14.57244-.03817-.80085-1.28839-.80548-1.25,0,.1796,3.76761,1.08791,7.5273,1.24046,11.26139q1.39161,3.2602-2.47542,5.1447-1.38907.02953-2.7782.011c-2.162-.01516-4.32176-.094-6.48068-.20951-1.85186-.099-3.70163-.23331-5.5506-.37554q-1.849-.14546-3.697-.30372-2.05043-1.57683-.46837-3.37377c.78954-3.74711,4.57243-8.12917,7.14887-10.65142.5758-.56368-.30836-1.4473-.88388-.88388Z"/><path class="cls-4" d="M417.95083,287.88989a47.85211,47.85211,0,0,0-8.79325,15.84428q10.60386.381,21.21762.08235a1.31433,1.31433,0,0,0,1.61629-1.23919l1.72583-7.91179c.44635-2.04622.81032-4.44234-.57391-6.014"/><path class="cls-4" d="M417.50889,287.448a52.76612,52.76612,0,0,0-8.954,16.12007.63085.63085,0,0,0,.60268.79115c5.1426.16977,10.28571.24964,15.43113.1947,1.84363-.01969,5.94853.86229,7.47629-.66127,1.59687-1.59248,1.85993-6.88462,2.255-9.06091.4365-2.40458.67857-4.35347-.63691-6.49561-.42026-.68436-1.50187-.05717-1.07934.63089,1.68407,2.74237.43508,5.88-.17943,8.69713-.254,1.16437-.30388,3.975-1.03549,4.74708-2.05888,2.17277-8.85816.91841-11.62309.90767-2.14374-.00832-4.64809.30371-6.75148-.0936-2.85137-.5386-3.26787.09251-1.529-3.81262a49.91185,49.91185,0,0,1,6.9075-11.0808c.50152-.62-.37762-1.5097-.88388-.88388Z"/><path class="cls-4" d="M189.06034,287.04541a42.319,42.319,0,0,0-7.46559,13.88072q9.00284.33378,18.01407.07215a1.45809,1.45809,0,0,0,1.05944-.32052,1.55605,1.55605,0,0,0,.31281-.76511l1.46525-6.93129c.379-1.79264.688-3.89181-.48725-5.26871"/><path class="cls-4" d="M188.6184,286.60346A46.73617,46.73617,0,0,0,180.99207,300.76a.63108.63108,0,0,0,.60268.79115c4.36608.14873,8.73262.21871,13.10125.17057,1.607-.0177,5.08358.72786,6.4142-.602,1.40675-1.40594,1.601-6.05514,1.93879-7.97219.37328-2.1186.58011-3.85094-.55025-5.75031a.62547.62547,0,0,0-1.07934.6309c1.41644,2.38006.35461,5.11654-.16185,7.55963-.21265,1.0059-.24669,3.50306-.87915,4.15877-1.73078,1.79442-7.44821.74766-9.77717.73833a34.11984,34.11984,0,0,1-5.73211-.082c-2.02152-.37017-2.10676.2822-1.70529-2.03724.627-3.62265,4.17071-8.11319,6.33845-10.87823.49081-.626-.38777-1.51669-.88388-.88389Z"/><path class="cls-4" d="M319.34638,196.317c5.16882,7.63842,9.76641,15.75224,18.43442,19.84937,1.91992.90749,4.37676,1.1612,6.17412,2.13454,1.78653.96749,1.27062-.933,2.0685,2.17279.13656.53158-.22741,1.34078-.21234,1.89383.0801,2.94151-.15178,7.08089,2.81446,8.91938,2.39627,1.48521,4.57121.18939,6.25894-1.69235a13.32125,13.32125,0,0,0,2.2703-4.031c.47112-1.19615.49478-2.71509,1.00553-3.8313.8497-1.85695-1.23461-2.3542,2.20446-2.1246,3.35137.22375,1.58258,2.237,1.89452,4.97806a13.29944,13.29944,0,0,0,1.15317,4.41174c1.27218,2.57567,3.66361,4.693,6.70212,4.07343a6.72432,6.72432,0,0,0,4.51788-4.12235,11.92529,11.92529,0,0,0,.95587-4.43766c.07106-1.801-.60472-2.89644.46655-4.31829,1.58036-2.09755,3.523-1.23614,4.79318.39123,2.358,3.02121,3.19327,7.3564,7.0886,8.9547a5.21054,5.21054,0,0,0,6.49356-1.759c2.249-3.24671,1.87-8.84974,2.76354-12.606a22.84642,22.84642,0,0,1,3.18194-7.77805c1.242-1.80177,3.96071-2.89567,4.96687-4.67421,1.35187-2.38964-.77-3.82362-2.47049-5.50347A143.93222,143.93222,0,0,0,389.98159,185.708c-9.25353-7.16347-18.80437-6.25644-29.86559-4.673-13.62439,1.95034-26.38534,8.44807-39.05063,13.55426-1.4733.594-.82973,3.01316.6646,2.4107,8.76469-3.53361,17.46941-7.3941,26.38576-10.5292a72.185,72.185,0,0,1,15.21136-3.35c4.8359-.60236,10.10968-1.52086,14.9534-.54068,5.18232,1.0487,9.30774,4.26685,13.24259,7.61412q2.4785,2.10838,4.87681,4.30915c1.45312,1.33337,5.33764,3.99831,6.0171,5.79282.63451,1.67579.99105.48743-.89618,2.19634a20.773,20.773,0,0,0-2.84331,3.025,26.21871,26.21871,0,0,0-4.25884,10.69222c-.3979,1.99448-.64717,4.0133-1.00481,6.01443-.11727.65614-.21513,2.71889-.619,3.13661l-2.80531.33842q-2.56041,1.5462-3.518-.62546c-2.27685-2.02009-2.63-6.99961-5.30072-8.43009-1.4268-.76422-5.38856.15145-6.70613.92548-1.89628,1.114-1.66762,2.21784-1.51813,4.28241.15678,2.16516.39426,6.39785-1.77,7.88865-5.38311,3.708-6.575-5.14732-6.53047-7.84871.032-1.94219.70072-3.05526-1.04784-4.19352-1.11506-.72588-4.95361-1.35172-6.35594-.66876-1.97887.96376-1.37152,3.935-1.76364,5.602a10.01677,10.01677,0,0,1-1.047,2.82432q-1.02538,3.71526-5.912,1.14008l-.28513-2.66822c-.04389-1.77375,1.09092-4.15354.33705-5.84254-.88379-1.98007-2.68375-1.87446-4.70745-2.38541-11.05927-2.79225-16.38522-11.816-22.35911-20.64414-.89673-1.32519-3.06365-.07557-2.15867,1.26179Z"/></svg>