<svg id="Layer_1" data-name="Layer 1" xmlns="http://www.w3.org/2000/svg" viewBox="0 0 223.78935 228.49497"><defs><style>.cls-1{fill:#726658;}.cls-2{fill:#594a42;}</style></defs><title>dead coral</title><path class="cls-1" d="M125.73147,27.232c.87075-1.72845,3.28918-1.84833,5.18544-1.4611a12.09369,12.09369,0,0,1,5.17929,2.2134,2.28481,2.28481,0,0,1,1.03233,1.64952l-.063-.02268c.05184-1.19945-1.32637-1.88157-2.47576-2.22838-2.09685-.63268-4.4194-1.183-6.418-.28707a6.51091,6.51091,0,0,0-3.42527,5.576,17.81576,17.81576,0,0,0,1.23308,6.71757c2.59735,7.9049,5.90308,15.79338,11.53419,21.91907,1.83842,1.99989,3.99511,3.94174,4.63892,6.58085-2.43232-.16126-4.71454-1.20118-7.10562-1.67546s-5.207-.22632-6.75867,1.65371c-2.198,2.66312-.58674,6.68323,1.38927,9.51495a47.48636,47.48636,0,0,0,16.59378,14.69738c4.51038,2.39535,9.81983,4.45278,11.93264,9.10222a18.812,18.812,0,0,1,1.18324,7.33666l.20643,7.68357a16.818,16.818,0,0,0-4.76012-3.00271,5.69887,5.69887,0,0,0-5.383.60134c-1.796,1.43648-2.10371,4.021-2.09371,6.32074a44.63493,44.63493,0,0,0,.84983,8.47346l.04649-.27551a6.01222,6.01222,0,0,1,1.72295,8.577,3.16669,3.16669,0,0,0-.29843-3.84279,9.254,9.254,0,0,0-3.43636-2.29538l-5.87021-2.74977a4.42556,4.42556,0,0,0-2.50721-.61151c-1.65593.26774-2.41584,2.22733-2.54214,3.9-.59579,7.89079,5.73073,14.652,12.51314,18.72853-2.93178-1.84969-7.11909.62836-7.99462,3.98248s.67814,6.89316,2.78977,9.64229a24.92994,24.92994,0,0,0,23.68591,9.14435,200.5473,200.5473,0,0,0-10.775,31.88368c-2.52174-2.66334-2.73-6.67613-3.64871-10.227-2.88086-11.13422-13.368-18.56451-23.86261-23.26915,1.24574-4.07684,2.50592-8.301,1.99122-12.53271-.74053-6.08853-4.967-11.07324-8.67379-15.95975s-7.21458-10.72242-6.174-16.7669c.88753-5.15562,4.91739-9.24581,6.36272-14.27365a3.36287,3.36287,0,0,0,.11909-1.936,3.55816,3.55816,0,0,0-1.39654-1.6229,28.64131,28.64131,0,0,0-7.78652-4.127,5.75465,5.75465,0,0,1-2.73882-1.491,4.99479,4.99479,0,0,1-.8184-2.98285c-.38471-8.32069,1.123-17.05345-2.13982-24.71736-1.20789-2.83712-3.23156-5.54621-6.1516-6.53695s-6.73545.41869-7.49751,3.40658a9.07734,9.07734,0,0,0,.31866,4.31375l1.67945,7.015c-1.11653-2.91337-5.38571-3.54051-7.92365-1.7258s-3.51689,5.17094-3.52448,8.29092A18.70672,18.70672,0,0,0,91.086,104.33865a48.76151,48.76151,0,0,1-11.97807,3.47976l.84492.24833a9.58468,9.58468,0,0,1-4.55692.76894c-3.9669-.30814-7.46441-3.05233-11.44036-3.20433l-.79586.16555a245.8988,245.8988,0,0,0,3.24027-36.32063c.04072-2.76487.00579-5.65539-1.27468-8.10621-1.03454-1.9801-2.77954-3.47168-4.35762-5.053a39.84058,39.84058,0,0,1-8.287-12.16447c-1.41444-3.23921-2.1927-7.5096.4042-9.90736,2.56169-2.36525,6.86567-1.24463,9.461,1.0837s4.19436,5.57006,6.60486,8.08921l-.035-15.22457a21.63985,21.63985,0,0,1,.82066-7.30765,7.33613,7.33613,0,0,1,5.0529-4.94287c3.52991-.72331,6.927,2.35031,7.92318,5.81311s.24873,7.15543-.42658,10.69483-1.25633,7.30016.03635,10.66355a13.08994,13.08994,0,0,1,5.58738-4.98827,3.452,3.452,0,0,1,1.58956-.41341,3.18126,3.18126,0,0,1,1.92116.96318c3.51486,3.23548,3.25415,9.03243,1.09469,13.29381s-5.78089,7.57066-8.62374,11.41a36.84584,36.84584,0,0,0-5.54772,32.11532l-.11494-.871q.37944,6.09766,1.24146,12.15247l12.262-2.96015c2.40764,1.93885,3.26329,5.2927,3.06392,8.37752s-1.28589,6.03067-2.11434,9.00884A55.13708,55.13708,0,0,0,90.7042,137.9323a7.70824,7.70824,0,0,0,1.31109,4.74223,11.68045,11.68045,0,0,0,2.739,2.036c6.96043,4.58408,8.35992,14.38046,6.75173,22.55819s-5.48658,15.82747-6.57827,24.09a58.31432,58.31432,0,0,0-.1722,11.2585,24.35026,24.35026,0,0,0,1.56536,8.24345c2.572,5.92243,8.98979,9.12559,15.13218,11.11592a91.02716,91.02716,0,0,0,40.13467,3.31787c3.60811-.48866,7.37691-1.26174,10.12718-3.64779,3.25422-2.82326,4.42712-7.312,5.22469-11.54571,1.6644-8.83521,2.45808-17.92413,5.67262-26.32044,6.75142-17.63457,23.32712-30.11789,30.04782-47.7642,3.68673-9.6801,4.13978-20.24166,4.60582-30.58956.20035-4.44834.41974-8.95006,1.7122-13.2112s3.79029-8.32424,7.61652-10.6019l.426-.59627a58.79223,58.79223,0,0,0,1.93545-37.51179c-.54946-1.93639-1.37517-4.04887-3.20723-4.88258-1.93043-.87849-4.29831.09136-5.67919,1.70116a14.88788,14.88788,0,0,0-2.58687,5.75615L202.258,31.777a6.63532,6.63532,0,0,0-2.14012-3.42661,4.238,4.238,0,0,0-2.6495-.62911c-3.335.22045-5.91684,3.37706-6.45632,6.67548s.53609,6.648,1.92117,9.68972c-2.61874-2.369-7.15543-1.42771-9.35919,1.33149s-2.40846,6.68876-1.48578,10.09733,2.82195,6.45359,4.542,9.53762a103.37113,103.37113,0,0,1,8.06214,18.50457l-.32212.7827c-2.41372-1.21865-5.46168-.55609-7.625,1.06606a15.941,15.941,0,0,0-4.66915,6.52251c-2.609-1.2389-2.2496-5.27368-4.32343-7.284-2.062-1.99878-5.439-1.16555-8.15763-.24042a1.84727,1.84727,0,0,1-1.31057.10736c-.54409-.23786-.71891-.91048-.81958-1.4957a71.289,71.289,0,0,1,8.4184-47.24412c1.05519-1.83,2.22822-3.99661,1.38338-5.93279-.77921-1.78576-3.07712-2.50495-4.97378-2.05909a10.5612,10.5612,0,0,0-4.82549,3.15778,41.38118,41.38118,0,0,0-5.32418,6.589,127.002,127.002,0,0,0-4.93286-26.7614c-.565-1.89534-1.24186-3.88157-2.754-5.15638-1.70327-1.436-4.0871-1.66108-6.309-1.82308a10.86541,10.86541,0,0,0-5.25921.4842c-3.01571,1.354-4.11884,5.03946-4.52716,8.31988a46.978,46.978,0,0,0,1.55717,19.038,1.8261,1.8261,0,0,1-1.78387-1.43619"/><path class="cls-2" d="M127.49923,28.99972c1.26678-1.5621,6.54242-.6504,7.2186,1.29865l3.0753-3.0753-.063-.02267,1.74609,1.7461c-1.39586-3.97073-6.4822-5.37642-10.41794-4.68366-4.955.87218-7.17051,5.83625-6.74265,10.449.54993,5.92865,3.50114,12.27545,6.13979,17.563a48.624,48.624,0,0,0,4.96289,8.00813c2.04866,2.65911,5.20393,5.048,6.3237,8.27081l3.0753-3.07529c-5.29043-.7733-12.59-4.45365-16.68757,1.12716-3.64641,4.96632.50474,11.16218,3.69759,15.10093a51.792,51.792,0,0,0,16.42925,13.179c3.17834,1.6633,7.12534,3.18775,9.13638,6.35227,2.51845,3.963,1.5803,10.47841,1.70082,14.9644l4.26777-1.76776c-3.76186-2.96513-9.24063-6.23658-13.67867-2.40138-4.548,3.9302-2.78482,12.18908-1.88681,17.22657.42336,2.3749,4.4166,2.39858,4.82139,0l.0465-.27551-3.6725,1.49408q2.71284,2.40576.82607,5.15651l4.56938,1.9264c2.05848-5.03477-2.38425-7.76895-6.35124-9.64889-3.71334-1.75973-8.8858-5.2269-11.97957-.60679-2.47487,3.69586-1.12132,9.25871.69769,12.92233,2.55239,5.1407,7.0399,8.95061,11.81942,11.9565l2.52359-4.31735a8.08942,8.08942,0,0,0-10,2.305c-3.08479,3.76027-2.14107,8.95947.12714,12.86486,5.57044,9.59114,17.18333,13.72449,27.75671,12.16866l-2.82328-3.6725a215.83064,215.83064,0,0,0-11.02705,32.48088l4.17847-1.10317c-2.622-3.29178-2.45852-8.12542-3.92486-11.945a30.2844,30.2844,0,0,0-5.1709-8.59711c-5.02479-5.98342-11.90282-10.11724-18.92154-13.34492l1.1489,2.82328c1.90429-6.314,3.218-12.52168.59279-18.83425-2.68445-6.45495-8.06611-11.13049-11.28308-17.25635-2.6386-5.02449-2.78855-9.36272-.21149-14.3751,1.301-2.53037,2.924-4.89294,3.9025-7.58508,2.17682-5.98933-2.123-8.63445-7.24824-10.99675-1.86792-.86093-3.86-1.0695-4.77824-3.3099-.56237-1.37218-.06662-3.972-.05218-5.39121a100.02692,100.02692,0,0,0-.20875-11.65157c-.57042-5.35068-2.17508-11.54308-6.73046-14.94182-3.419-2.5509-8.24488-2.88959-11.55553.077-4.51485,4.0456-1.31506,11.20605-.1546,16.05325l4.56938-1.9264c-3.67408-6.4982-12.29343-4.21806-14.94332,1.91407-3.417,7.90732.678,17.37583,6.979,22.48376l1.10317-4.17847a56.0465,56.0465,0,0,1-11.97807,3.47976c-2.54664.44428-2.20691,4.17276,0,4.8214l.84493.24833V105.656c-6.11585,2.09194-10.81317-3.51371-16.79315-2.26984l3.0753,3.0753c1.25485-7.81,2.21157-15.65977,2.76364-23.552.47385-6.774,2.19118-15.82622-.79805-22.204-1.15822-2.47114-3.13775-4.21368-5.00055-6.1562A39.03183,39.03183,0,0,1,55.3288,44.384c-.746-1.56112-1.82428-3.73208-1.65036-5.5007.49543-5.0381,4.71184-3.47914,6.89955-1.78667,2.64191,2.04385,4.397,5.59,6.60486,8.08921,1.46443,1.65765,4.27254.30923,4.26776-1.76777q-.01533-6.66072-.03065-13.3215c-.00318-3.966-.1628-14.30794,6.40113-10.87559,4.87919,2.55139,2.39461,10.18545,1.73239,14.35063a22.62074,22.62074,0,0,0,.35791,10.20746,2.53362,2.53362,0,0,0,4.56937.5972c1.382-1.98046,2.49633-3.57177,4.845-2.90648,2.11973.60044,2.2682,2.10194,2.28069,4.122a14.0377,14.0377,0,0,1-2.88187,7.83234c-3.17648,4.66843-7.33053,8.39226-9.95083,13.47259a40.13163,40.13163,0,0,0-2.841,29.263c.72688,2.60917,5.29019,2.21117,4.9107-.6646l-.11494-.871c-.40771-3.08962-5.22314-3.28557-5,0,.29151,4.2921.74846,8.55537,1.33076,12.81707.187,1.36876,1.90536,2.02853,3.0753,1.7461l12.262-2.96015-2.43237-.64293c5.65768,5.50321-.44171,16.318-1.29579,22.97524-.66228,5.16216-1.91268,12.68679,2.40187,16.66143,2.24471,2.06787,4.64358,3.08949,6.22387,5.88362a20.24474,20.24474,0,0,1,2.31007,9.49626c.187,7.72889-3.20287,15.00377-5.33425,22.27886-3.32688,11.35569-4.90951,28.12216,5.63768,36.179,10.54084,8.052,26.91539,9.7317,39.71382,9.60279,6.49239-.0654,14.032-.18519,20.06335-2.87372,5.39139-2.40327,7.943-7.38214,9.22141-12.89353,1.72328-7.42941,2.28517-15.07871,4.22561-22.469a62.53946,62.53946,0,0,1,9.74846-20.01616c7.42776-10.61606,16.66174-20.15549,21.62431-32.30846,2.82117-6.90884,4.00639-14.28461,4.62991-21.68553.64945-7.70874-.103-16.09214,2.25424-23.5349a18.862,18.862,0,0,1,2.891-5.75617c1.23062-1.62552,3.00256-2.49224,4.27807-3.99554,1.60807-1.89527,2.16291-4.88033,2.815-7.20744a61.56878,61.56878,0,0,0,1.81116-23.90833c-.58013-4.81068-1.24342-13.76612-6.77051-15.80036-6.25139-2.30082-9.88466,4.314-11.34135,9.20341h4.82139c-1.93431-5.29543-3.42329-11.17172-5.98825-16.19058a6.92963,6.92963,0,0,0-8.31419-3.69981c-9.02466,2.47135-7.58774,13.343-4.81644,19.82285l3.42048-3.42048c-7.72075-5.34329-15.42485,2.67369-15.10121,10.57773.20785,5.07622,3.00721,9.49571,5.37773,13.80919a106.22552,106.22552,0,0,1,4.70608,9.6069c.68353,1.60829,3.40563,6.23848,2.78192,7.754l3.0753-1.7461c-7.02251-2.561-12.322,2.83144-15.11737,8.73746L183.338,89.77c-2.73671-1.88792-1.99-6.30941-5.45487-8.06a8.48715,8.48715,0,0,0-4.693-.6903c-.92006.08317-1.95806.54033-2.85458.53171l-.4599.8L169.475,79.676a69.52123,69.52123,0,0,1,3.5376-31.75575c1.69279-4.76693,4.6882-8.95579,6.37359-13.66047,1.051-2.934.72528-5.96569-1.94547-7.863-6.98236-4.96043-14.15278,5.01447-17.45614,9.86821l4.65868,1.26179a132.8094,132.8094,0,0,0-4.51542-25.68044c-1.82473-6.37712-4.32838-9.87064-11.30749-10.50344-16.703-1.51449-14.248,20.26816-11.31282,30.94969l3.0753-3.0753-.28979-.28728c-1.68983-2.7312-6.01681-.22317-4.31735,2.52359a4.95725,4.95725,0,0,0,3.27794,2.58509c1.83754.64784,3.553-1.337,3.0753-3.0753a46.88,46.88,0,0,1-1.76868-14.88977c.10424-2.03034.09469-4.6605,1.02821-6.536,1.48483-2.98318,6.04119-4.26223,9.23559-2.888,4.72268,2.03162,5.48181,9.952,6.44773,14.46418a128.61347,128.61347,0,0,1,2.37148,16.41307,2.523,2.523,0,0,0,4.65867,1.2618,31.38415,31.38415,0,0,1,4.93328-6.083,8.21276,8.21276,0,0,1,4.2285-2.554q2.70386,1.98725.261,4.35857a104.76192,104.76192,0,0,0-4.6487,9.70939,74.08568,74.08568,0,0,0-5.03164,23.66481A71.74737,71.74737,0,0,0,164.475,79.676c.264,2.23442.19215,5.75712,2.54772,6.99436,3.63375,1.90861,6.70565-3.43709,9.91067,1.50044,1.48479,2.28741,1.42761,4.22414,3.881,5.91658a2.51026,2.51026,0,0,0,3.42048-.89688c1.80152-3.80619,4.56127-8.23006,9.47082-6.43966,1.3772.50223,2.59641-.58249,3.0753-1.7461.97025-2.35752-.66629-5.10375-1.51513-7.30977-1.28738-3.34572-2.72773-6.63533-4.33269-9.84071-1.87866-3.752-4.46777-7.36764-5.8968-11.32775-1.53039-4.241-.295-15.07753,6.6351-10.2814,2.30429,1.59473,4.28607-1.39655,3.42048-3.42048-1.16032-2.71305-2.38467-6.02032-1.37363-8.98813,1.40125-4.11323,4.35035-4.15511,6.45557-.501,2.25488,3.91391,3.345,9.15736,4.89819,13.40946a2.523,2.523,0,0,0,4.82139,0c.58911-1.97736,2.00066-8.257,6.28322-3.74606.76938.8104.98532,3.49549,1.21442,4.54232a55.14888,55.14888,0,0,1,1.25087,11.404c.04263,5.99732-.26343,16.81306-4.53558,21.33291-3.80911,4.03-6.59553,7.28664-7.97546,12.88144-1.64139,6.65483-1.34,13.71552-1.79485,20.509-.49236,7.35339-1.42735,14.761-4.08674,21.68311-2.48192,6.46014-6.433,12.25633-10.54364,17.77494-7.4914,10.05721-15.98456,19.61513-20.11579,31.67748-2.1409,6.251-3.069,12.81392-4.14053,19.30822-1.33,8.06077-2.19268,16.09189-11.42175,18.25191-14.40913,3.37239-33.142,1.70278-46.549-4.58451-6.67839-3.13187-9.6645-7.7748-10.22311-15.16254-.65243-8.62854,1.08813-16.2394,3.74063-24.37083,3.307-10.13776,6.35879-22.44144-.79364-31.77913-1.51388-1.9764-3.42971-2.90948-5.15833-4.52738-3.39042-3.17325-1.86589-10.47638-1.18117-14.57326,1.13591-6.79643,5.27048-14.16065,2.55914-21.0748-1.55664-3.96953-3.605-5.30845-7.45536-4.37894l-10.16144,2.453,3.0753,1.7461c-.52169-3.81812-.89107-7.64364-1.15216-11.48787h-5l.11494.871,4.91069-.6646a34.80565,34.80565,0,0,1,2.70514-26.12439c3.36926-6.16492,9.48412-10.61738,12.00678-17.269,1.77216-4.6727,1.72592-10.9535-2.27807-14.529-4.70967-4.20563-10.2537.97374-13.02455,4.94448l4.56937.5972c-2.073-7.12,2.49558-14.21015.39024-21.35839-1.23347-4.188-5.1026-7.95524-9.67735-7.69847-4.32585.2428-7.25489,3.77627-8.35819,7.71581-1.91488,6.83744-.65307,15.26748-.63687,22.30924l4.26777-1.76776C66.51643,36.894,62.26709,28.5917,54.41422,30.67856c-6.81645,1.81143-6.30877,9.574-4.09231,14.73579A41.07691,41.07691,0,0,0,56.77579,55.662c1.82725,2.157,4.1377,3.90322,5.58684,6.34558,1.60263,2.70106,1.56878,5.363,1.5194,8.429A243.52673,243.52673,0,0,1,60.749,105.1323a2.53925,2.53925,0,0,0,3.0753,3.0753c2.59736-.54027,6.27775,1.99691,8.72232,2.62416a13.34283,13.34283,0,0,0,8.07082-.35432,2.52234,2.52234,0,0,0,0-4.8214l-.84492-.24833v4.8214a56.048,56.048,0,0,0,11.97807-3.47976c1.52725-.63268,2.73887-2.85247,1.10317-4.17847a17.146,17.146,0,0,1-6.26083-9.45314,13.95592,13.95592,0,0,1-.24837-5.60829c.48065-2.46745,4.14725-7.6519,6.62067-3.27726,1.41985,2.51124,5.22136.79692,4.56937-1.9264-.53054-2.21606-2.57-6.96818-2.06162-9.23319.49053-2.18552,3.277-2.98749,5.08532-2.15369a8.16867,8.16867,0,0,1,3.1555,3.33149c3.16464,5.30266,2.7629,12.103,2.67922,18.04058-.056,3.97049-1.116,9.75564,2.35679,12.62241,1.22543,1.01158,2.9547,1.40328,4.39139,2.01454a17.46037,17.46037,0,0,1,4.40633,2.306c2.00084,1.68177,1.43986,2.499.34194,4.7766-1.89668,3.9345-4.6072,7.47385-5.21628,11.91235-.63656,4.6387.89665,9.11128,3.18739,13.09539,2.54167,4.42051,6.13511,8.10956,8.77722,12.46243,3.86572,6.36875,3.051,12.17441.98129,19.03694a2.518,2.518,0,0,0,1.1489,2.82328c7.27385,3.345,14.65922,7.65816,19.29315,14.39735,3.9895,5.802,3.357,13.24018,7.7122,18.70785,1.19227,1.4968,3.75463.58112,4.17847-1.10317a207.9281,207.9281,0,0,1,10.523-31.28648,2.54114,2.54114,0,0,0-2.82327-3.6725,22.75912,22.75912,0,0,1-15.77741-3.43327,19.81889,19.81889,0,0,1-5.95059-5.7859,11.55475,11.55475,0,0,1-1.60682-3.48377c-.41506-1.91662.44065-7.22574,4.25657-5.49681,2.8842,1.30679,5.30191-2.57,2.52359-4.31735-4.3524-2.73727-8.90874-6.488-10.61419-11.55246a12.50248,12.50248,0,0,1-.69291-3.55148c-.0596-2.208.60111-2.44242,2.78727-1.90828,1.409.34425,7.94616,3.035,6.98854,5.37722-1.09656,2.68205,3.15653,4.27835,4.56938,1.92639,2.6118-4.34783,1.37062-9.06732-2.61983-11.99745a2.51032,2.51032,0,0,0-3.6725,1.49407l-.04649.27551h4.82139c-.41126-2.30707-1.24839-5.44752-.76052-7.80886,1.03892-5.02851,4.92024-4.55471,7.96907-2.1516,1.5813,1.24639,4.33138.59984,4.26777-1.76777-.13869-5.162.61435-11.48409-1.731-16.282-2.08791-4.2713-6.25717-6.60942-10.31408-8.70844A51.25771,51.25771,0,0,1,135.4495,80.59116c-1.77291-1.92155-5.18377-5.2139-5.42951-7.96871-.63035-7.06637,8.59871-2.74209,11.46817-2.32267,1.7109.25008,3.77036-1.0748,3.0753-3.07529-1.10229-3.17254-3.09637-5.21266-5.28185-7.684a46.9792,46.9792,0,0,1-7.583-12.04687c-1.55665-3.47079-5.88754-11.67819-4.32437-15.52515,2.35441-5.79418,5.5509-2.23952,7.53261-1.09556.606.34983.79575.89734,1.557,1.17158a2.51545,2.51545,0,0,0,3.0753-3.0753c-1.87226-5.39667-11.70815-8.274-15.57553-3.505-2.0094,2.47786,1.50733,6.03658,3.53553,3.53554Z"/><path class="cls-1" d="M64.67393,105.13583A223.89468,223.89468,0,0,0,67.478,76.5393c.14973-4.46683.09613-9.20477-2.2309-13.02051-2.14612-3.5191-5.88763-5.6949-8.84156-8.56964a24.22208,24.22208,0,0,1-6.70215-12.00294c-.63268-2.83573-.67237-6.0444,1.05447-8.381,2.56842-3.47534,8.07842-3.44757,11.71381-1.11118s5.8439,6.29368,7.9071,10.09079c-1.77238-5.38516-3.3423-11.04952-2.52529-16.65966S72.48007,15.73,78.035,14.59705a3.47524,3.47524,0,0,1,2.54743.241,4.031,4.031,0,0,1,1.42464,2.7419,64.353,64.353,0,0,1,.278,24.71384c3.33984-1.15887,5.42571-5.89406,8.87632-5.12548a4.58207,4.58207,0,0,1,2.20206,1.344c4.25974,4.33531,2.24344,11.80832-1.49066,16.60382s-8.93709,8.6-11.28926,14.20423c-1.59707,3.80518-1.69784,8.051-1.67655,12.17768q.06585,12.76383,1.3867,25.48"/><path class="cls-2" d="M65.87928,105.46813a235.84167,235.84167,0,0,0,2.68741-25.09848c.32708-6.45211.87971-13.57827-3.31066-18.99543-2.22894-2.88149-5.42432-4.749-7.96663-7.309a23.07574,23.07574,0,0,1-6.38068-11.45136c-.607-2.94763-.66736-6.72175,2.33553-8.64374,2.56918-1.6444,6.19533-.93169,8.5965.5632,3.5048,2.182,5.53954,6.13706,7.45866,9.64235a1.25555,1.25555,0,0,0,2.28469-.9632c-2.36724-7.363-5.888-21.23092,3.26235-25.92707q1.59555-1.50157,3.57426-.03413,3.06934-.29657,2.74236,2.5395c.8103,1.9465.71191,5.06626.83459,7.26473a66.78753,66.78753,0,0,1-.91788,14.90592A1.26873,1.26873,0,0,0,82.916,43.37311c2.19476-1.03808,3.66507-3.492,5.78363-4.39577C96.03648,35.84757,94.421,47.83655,93.0482,50.809c-2.64713,5.73175-8.27066,9.406-11.73154,14.5933-3.43759,5.15242-3.69857,11.06584-3.65084,17.07758.065,8.18588.56251,16.35426,1.37792,24.4982.15878,1.58579,2.66042,1.6022,2.5,0C80.53721,96.92533,79.3579,86.26729,80.3051,76.17072c.98068-10.45341,9.53031-14.48433,14.23195-22.80594,2.58488-4.57509,4.04563-11.65-.28965-15.73634-4.93733-4.65377-8.32617,1.56779-12.59317,3.586l1.83625,1.41164a68.61829,68.61829,0,0,0,.388-21.61129c-.65242-4.39983-1.36423-8.8684-6.85161-7.43676-13.42813,3.50337-10.97169,20.60041-7.8535,30.2991l2.28469-.9632C68.13648,36.847,63.525,29.73022,55.57915,30.665c-7.24191.852-8.42222,8.18178-6.6944,14.113a25.62644,25.62644,0,0,0,5.56322,9.9391c3.6752,4.0668,9.15558,6.60893,10.94511,12.15005,1.82289,5.64442.79684,12.47938.37771,18.28547-.47535,6.58476-1.26553,13.13133-2.3022,19.6509-.25027,1.57393,2.15834,2.25161,2.41069.6646Z"/><path class="cls-1" d="M93.66163,125.30852a57.011,57.011,0,0,0,.95874-15.14819,7.81475,7.81475,0,0,0-1.01328-3.87145,12.90182,12.90182,0,0,0-2.89685-2.55184c-3.53919-2.83948-5.144-7.41657-6.22538-11.82327-.66083-2.69285-1.14883-5.7041.242-8.10278,1.88161-3.245,7.19675-3.6437,9.5414-.7157a80.9524,80.9524,0,0,1-.54038-11.2863c.03565-1.61775.19517-3.40734,1.37237-4.51757a4.73442,4.73442,0,0,1,2.80665-1.10936c4.82172-.48836,9.32783,3.13976,11.30939,7.56253s1.94947,9.46242,1.61593,14.29731-.9286,9.74068.0411,14.48907a4.43841,4.43841,0,0,0,.63291,1.71344c1.37543,1.93505,4.39153.98677,6.7071,1.51054a5.11412,5.11412,0,0,1,3.7827,5.58626,11.10153,11.10153,0,0,1-1.47447,3.47858c-4.77744,8.71569-6.20421,20.52569.40546,27.94858a32.13088,32.13088,0,0,1,3.5324,3.97993c1.20636,1.91919,1.55719,4.23947,2.389,6.34817,1.49377,3.78666,4.61694,7.22385,4.227,11.27577-.30824,3.20284-2.7572,5.73534-4.05959,8.67761-1.45915,3.29642-1.44278,7.03028-1.40124,10.635l.47876,41.5489"/><path class="cls-2" d="M94.867,125.64082c1.0164-5.58143,3.23731-15.17211-.376-20.23582-1.04242-1.46085-2.77324-2.29149-4.00686-3.56008a17.07216,17.07216,0,0,1-3.48577-5.87062A28.20539,28.20539,0,0,1,85.3281,89.935q-1.57128-5.05319,3.22726-7.4157a4.69951,4.69951,0,0,1,4.82905,1.45987c.70726.70094,2.25341.23889,2.13388-.88388-.47172-4.43108-3.2262-16.617,4.89382-15.53349,5.1582.68826,8.18107,6.62713,8.97262,11.11305,1.40677,7.9726-1.80216,16.31558.28327,24.18842a4.663,4.663,0,0,0,3.34157,3.72174c.87059.27859,1.87654.036,2.74142.22555,4.5966,1.0073,4.66315,5.31153,3.03207,8.64367a31.53267,31.53267,0,0,0-3.39779,17.50057,20.18053,20.18053,0,0,0,2.7886,8.21073c2.029,3.26311,5.00168,5.28466,6.41519,9.01809,1.20517,3.18316,2.57709,5.998,4,9.08216,2.63136,5.70352-.65157,8.481-2.71549,13.30247-2.926,6.83544-1.45543,15.75742-1.37212,22.98768l.342,29.67779a1.25075,1.25075,0,0,0,2.5,0l-.31918-27.69927c-.09265-8.0408-1.93558-18.39675,2.04062-25.69661,2.737-5.0248,4.32127-8.32053,1.68287-13.83386-1.63827-3.42341-2.87847-6.94886-4.44369-10.38156-1.40356-3.07814-4.21938-4.88431-5.97148-7.71869-4.09982-6.63228-2.93345-15.2164.08745-22.01821,1.742-3.92228,4.85845-8.31165.69148-11.96453-1.69659-1.48728-3.33625-1.145-5.36049-1.61043-5.512-1.26749-4.24679-7.995-3.9394-12.63276.43624-6.58173,1.30649-13.87806-2.18393-19.86378-2.52334-4.32728-8.31343-8.48486-13.55909-6.5075-6.03233,2.27389-3.53784,13.209-3.05028,17.78877l2.13388-.88389c-5.62037-5.57013-13.13816-.47426-12.47351,6.71.4203,4.54307,2.1295,9.97507,5.05933,13.57a17.85954,17.85954,0,0,0,2.34135,2.32493c2.43491,2.08216,3.05564,4.07259,3.3932,7.24408.44676,4.19743-.2696,8.81562-1.01626,12.91576-.28644,1.573,2.12243,2.2476,2.4107.6646Z"/><path class="cls-1" d="M93.68934,125.34111a26.67339,26.67339,0,0,0-3.65107,15.5718c.13745,1.79166.55656,3.7417,1.97807,4.84091,1.518,1.17382,3.6609.99458,5.46592,1.64575,4.566,1.64719,5.47647,7.66332,5.16244,12.50713-.87724,13.53133-5.32923,26.57726-7.12641,40.01736a22.576,22.576,0,0,0,.09849,8.7196c1.26985,4.824,5.266,8.464,9.53362,11.04673A42.6051,42.6051,0,0,0,126.332,225.8045"/><path class="cls-2" d="M92.61,124.71021c-2.91172,5.258-7.95448,19.723.31466,22.90974,3.69326,1.42328,6.57781,1.237,7.92853,5.76065a22.57181,22.57181,0,0,1,.40031,8.36836c-.61514,7.25848-2.26967,14.38634-3.82854,21.48581-2.11883,9.6497-6.864,22.79841-.01673,31.52135,6.5899,8.395,18.71472,11.90576,28.92376,12.29838,1.60892.06187,1.60625-2.43823,0-2.5-10.15473-.39053-26.49623-4.80219-29.50986-16.24314-1.571-5.96405.61155-13.098,1.83795-18.98133,1.13315-5.436,2.43924-10.83609,3.46755-16.29385,1.29909-6.89489,3.7113-16.25747.14243-22.85156-1.63865-3.02769-3.70816-3.22-6.57683-4.48724-7.66705-3.387-3.94265-14.27533-.92455-19.72537.78005-1.40862-1.37825-2.67108-2.15868-1.2618Z"/><path class="cls-1" d="M64.8131,106.38885a59.99506,59.99506,0,0,0,15.14932,2.64064"/><path class="cls-2" d="M64.4808,107.5942a65.59294,65.59294,0,0,0,15.48162,2.68529c1.60777.08548,1.60307-2.41477,0-2.5a62.76906,62.76906,0,0,1-14.817-2.596,1.25108,1.25108,0,0,0-.6646,2.4107Z"/><path class="cls-1" d="M171.317,173.21445a33.83421,33.83421,0,0,1-32.26424-14.28966c-1.33054-1.98243-2.34889-4.8957-.61259-6.53448a5.11643,5.11643,0,0,1,3.15036-1.07,30.32687,30.32687,0,0,1,13.02223,1.747c-4.52162-2.09324-9.10012-4.22192-12.933-7.40551s-6.899-7.59813-7.39159-12.55636a4.82369,4.82369,0,0,1,1.06921-4.06711c1.27074-1.18036,3.27644-.96156,4.9459-.49155a24.94223,24.94223,0,0,1,10.72067,6.23906,33.376,33.376,0,0,1-4.27407-16.04c-.01665-2.144.29229-4.53071,1.93287-5.91111,1.80788-1.52118,4.64763-1.18075,6.59116.1628a15.32854,15.32854,0,0,1,4.3224,5.53275,156.15063,156.15063,0,0,1,14.85577,38.52343c.65638,2.73827,1.21788,5.72232.052,8.28548-1.29857,2.855-4.64526,5.0626-4.19626,8.16669"/><path class="cls-2" d="M171.317,171.96445a33.24694,33.24694,0,0,1-23.33126-5.7161c-2.27768-1.60259-7.98635-5.92492-8.48159-9.013-1.28327-8.00186,11.33647-4.12115,14.77631-2.96268,1.32386.44586,2.25646-1.684.96319-2.28468-5.71216-2.65291-11.78363-5.41257-15.87387-10.3891a17.949,17.949,0,0,1-2.789-4.70048,10.265,10.265,0,0,1-.86415-2.65479l4.25429-4.49148c2.77649-.6211,8.469,4.34143,10.16908,5.9176a1.2556,1.2556,0,0,0,1.96322-1.51479,34.4509,34.4509,0,0,1-3.7245-10.73139c-.20974-1.31748-1.03267-4.79669-.34177-5.98319l7.43994-2.66653a12.14717,12.14717,0,0,1,1.9648,2.5383c3.87267,5.93888,6.7434,12.915,9.32966,19.48a151.40241,151.40241,0,0,1,6.04548,18.84552c1.19307,4.78634,1.19163,8.28079-1.73025,12.50614a8.81478,8.81478,0,0,0-2.02879,5.3621,1.25076,1.25076,0,0,0,2.5,0c.07528-4.20312,4.73531-6.89258,4.87063-11.40184.14808-4.93448-1.95441-10.28261-3.387-14.9314a150.68645,150.68645,0,0,0-12.36588-29.27326c-2.42429-4.32143-9.05969-11.2077-13.70938-5.00953-4.39053,5.8527.06173,17.02391,2.97834,22.52684l1.96322-1.51478c-3.81164-3.53383-18.71952-12.71822-18.88137-1.53533-.16442,11.36012,12.26956,17.746,20.95545,21.78l.9632-2.28468c-4.27584-1.44-13.14508-3.95758-17.13579-.551-3.13293,2.67438-.777,6.99727,1.1207,9.58557,7.35694,10.03416,20.18109,15.05677,32.387,13.56791,1.57672-.19233,1.596-2.69468,0-2.5Z"/><path class="cls-1" d="M160.39574,119.17661a35.95469,35.95469,0,0,0-2.64214-18.67851,12.20029,12.20029,0,0,0-2.92377-4.46153c-1.74791-1.53391-4.09265-2.13974-6.28282-2.92156a35.41109,35.41109,0,0,1-18.84436-15.96666c-1.99188-3.57925-3.08745-8.66.03344-11.313,3.02828-2.57432,7.62633-.9131,11.19016.84665l-7.85508-12.15986c-3.2101-4.96933-6.48454-10.09341-7.63963-15.89554a23.63468,23.63468,0,0,1,.31784-10.56946c.42509-1.6199,1.14865-3.33946,2.6489-4.08379,1.936-.96052,4.262.11844,5.959,1.45663s3.29234,3.01654,5.41154,3.44036l-1.69229-10.34537c-.77949-4.76521-1.36421-10.25636,1.85247-13.85745,3.67713-4.11658,10.802-3.29509,14.864.44233s5.67438,9.42283,6.47483,14.88423.99361,11.09471,2.98019,16.24457l7.47582-7.75432c1.22117-1.26666,2.75025-2.64207,4.48393-2.342,2.7881.48267,3.02621,4.41475,2.27793,7.1436-2.58414,9.4239-8.33294,17.80617-10.40412,27.35593-1.88587,8.69538-.59292,17.72748.70577,26.52973,1.71595,11.63033,3.43585,23.28106,6.23592,34.699,2.05051,8.36139,4.68849,16.64946,5.32767,25.23484s-.96617,17.73846-6.50955,24.32544"/><path class="cls-2" d="M161.64574,119.17661c.93294-9.137-.39508-22.43738-10.11212-26.34258-5.96718-2.39816-11.12086-4.67276-15.66418-9.43152a26.59619,26.59619,0,0,1-6.12014-9.152c-1.0792-3.11088-1.71568-7.804,3.91853-8.49265,2.06846-.2528,4.90818,1.197,6.62752,2.0034,1.04414.48976,2.44647-.57053,1.71023-1.71023-4.96166-7.6808-11.4518-15.61952-14.43878-24.35271-1.293-3.78055-2.75727-11.78608.18318-15.38059,2.93519-3.58807,8.69766,2.7923,11.68656,3.75788.99122.32022,1.68088-.662,1.53765-1.53765-.84775-5.18251-2.30649-10.64838-2.25872-15.91235C138.789,4.527,146.35471.553,153.00134,5.33615c9.24032,6.64962,6.71144,21.59844,10.04132,31.23477a1.264,1.264,0,0,0,2.08923.55158c2.28111-2.36609,4.506-4.80761,6.85284-7.10812,1.86349-1.8267,4.47384-3.76012,5.54279.13089.393,1.43067-.32878,3.092-.73466,4.46106-1.79988,6.0712-4.9675,11.65863-7.30881,17.52377-4.91671,12.31663-3.51009,24.50927-1.61585,37.31234a415.78463,415.78463,0,0,0,8.25367,41.7079c3.304,13.01128,5.83608,27.98989-3.16437,39.39663-.986,1.24966.77136,3.03057,1.76777,1.76777,8.74248-11.07981,7.75816-25.238,4.69642-38.243-3.996-16.97336-7.61869-33.71117-9.976-51.01721C168.16,73.61519,167.72307,64.318,170.98,55.20683c2.58523-7.23209,6.97349-14.05583,8.711-21.58858.69459-3.01128.70723-7.86666-3.151-8.68124-4.91355-1.03741-10.47026,7.61125-13.17593,10.41773l2.08923.55158C161.6683,24.95276,164.398,2.563,148.01764.7695c-16.32235-1.78716-10.92726,19.42764-9.45415,28.43311l1.53765-1.53765c-3.89877-1.25952-7.3003-6.92308-12.03516-4.897-3.45944,1.48032-4.0543,6.45032-4.26426,9.66936C122.9515,45.473,133.1998,57.023,139.84691,67.31287l1.71023-1.71023c-4.59675-2.15612-11.6769-4.34492-14.39276,1.687-2.20078,4.88794,1.23124,10.69337,4.06715,14.48082a36.81967,36.81967,0,0,0,15.59655,12.0203c2.02885.82277,4.42332,1.27414,6.2565,2.50732,2.638,1.7746,3.75741,4.91747,4.68,7.78122a36.63065,36.63065,0,0,1,1.38114,15.09729c-.16327,1.599,2.3379,1.58764,2.5,0Z"/><path class="cls-1" d="M170.08666,85.3995c.469-2.31561,3.64022-3.1479,5.76434-2.11345s3.40061,3.21763,4.55306,5.28011l2.57705,4.612,2.1674-3.666c1.12111-1.89625,2.32067-3.87262,4.22054-4.9876s4.71575-.99912,5.92863.83979"/><path class="cls-2" d="M171.166,86.03039q4.90076-2.61588,6.718.88794a14.70652,14.70652,0,0,1,1.44068,2.27873c.90392,1.50829,1.71952,3.07733,2.577,4.612a1.26171,1.26171,0,0,0,2.15868,0c1.58433-2.67976,5.91033-12.3075,10.35335-7.5608,1.1018,1.17712,2.86694-.59345,1.76776-1.76776-6.01062-6.42147-11.69458,3.69411-14.27979,8.06676h2.15868c-1.9189-3.43416-3.89108-8.84853-7.87715-10.46658a5.37349,5.37349,0,0,0-7.176,2.6879c-.62671,1.46276,1.52627,2.73785,2.15867,1.26179Z"/><path class="cls-1" d="M189.76251,129.4817c10.744-18.47669,10.14553-42.975-1.48785-60.905-2.44335-3.76585-5.35843-7.31786-6.831-11.5585s-1.12846-9.52772,2.2521-12.48126,9.97268-1.56468,10.67148,2.86965c-1.845-4.06544-3.73448-8.42042-3.07106-12.83537s5.04942-8.55895,9.30933-7.22287c3.29643,1.0339,4.98782,4.70087,5.59469,8.10192s.55939,7.01,2.11315,10.09564c3.13873-2.48986,4.23817-8.25761,8.23889-8.04475,2.82979.15056,4.27321,3.42333,4.89376,6.18835a65.29581,65.29581,0,0,1-.44774,30.33412,25.74738,25.74738,0,0,1-2.46929,6.56822c-1.40593,2.4319-3.42326,4.44994-5.00781,6.76941-5.65829,8.28259-5.1544,19.0973-6.12363,29.08119A75.77923,75.77923,0,0,1,201.61,139.46361c-8.76819,20.06543-27.49233,35.70469-31.28347,57.27155-1.04524,5.94616-.87526,12.07829-2.23324,17.9609a13.765,13.765,0,0,1-2.0134,4.98491,14.35941,14.35941,0,0,1-5.94879,4.331,44.58545,44.58545,0,0,1-33.36173,1.29906"/><path class="cls-2" d="M190.84185,130.1126a61.32059,61.32059,0,0,0,6.36606-43.23312,59.90857,59.90857,0,0,0-8.78854-20.33762c-2.75285-4.13384-6.21728-8.35341-6.52764-13.53152-.1727-2.88137.59442-6.45741,3.34167-8.04274,2.85131-1.64538,6.9695-.65611,7.92845,2.77127l2.28469-.96319c-1.31219-2.92889-2.62149-5.85754-2.893-9.07974-.39284-4.66247,3.98652-12.95139,9.68073-7.6581,4.09846,3.8099,2.83645,10.90826,4.87367,15.84036a1.26962,1.26962,0,0,0,2.08923.55158c1.75287-1.632,2.58359-3.93286,4.23167-5.58008,6.69213-6.68867,7.91148,9.17642,8.11943,11.73537.68514,8.43132.17633,18.1568-3.43315,25.92848-1.75239,3.77315-4.89723,6.59248-6.89047,10.22886a32.29383,32.29383,0,0,0-3.19207,9.07417c-1.49287,7.275-1.27852,14.76432-2.31387,22.09989-2.30291,16.31632-10.35078,29.32374-19.60737,42.54736-7.6862,10.98023-15.34844,22.33513-17.29236,35.89417-.7201,5.0228-.70247,10.1421-1.74891,15.11985-1.24422,5.91852-4.93585,8.6279-10.43993,10.62057a44.284,44.284,0,0,1-29.52849.00727c-1.52569-.52151-2.18079,1.89243-.6646,2.4107a46.83291,46.83291,0,0,0,25.93953,1.45c6.79734-1.60119,14.39515-4.34246,16.584-11.62382,2.75146-9.15307,1.59358-18.87876,4.96293-27.985,3.13253-8.46618,8.32628-16.01075,13.45863-23.364,10.6192-15.21443,19.37008-29.65433,21.26537-48.55113.93585-9.3308.32948-19.54007,5.53131-27.78613,2.37836-3.77024,5.46012-6.65771,7.01259-10.92555a55.26309,55.26309,0,0,0,2.75852-13.45515,65.90493,65.90493,0,0,0-.33852-15.60294c-.499-3.5349-.91332-8.1923-3.66636-10.83678-5.68536-5.46118-9.30126,3.83345-12.5156,6.82613l2.08923.55158c-2.346-5.6796-1.62-21.87093-12.39766-19.09521-10.36169,2.66858-6.85559,15.17279-3.83314,21.91908.58708,1.31041,2.65841.37255,2.28469-.96319-1.51092-5.40019-8.587-7.01975-12.76071-3.42124-6.69443,5.77182-2.37844,15.48846,1.53665,21.36059,6.32167,9.48171,10.77762,19.16521,11.65046,30.68986a58.41722,58.41722,0,0,1-7.31577,33.14731,1.25093,1.25093,0,0,0,2.15867,1.2618Z"/><path class="cls-1" d="M166.57839,173.44534c-1.50272,1.2491-2.13918,3.23086-2.70419,5.10148l-8.224,27.22777c-1.54424-1.68427-1.84458-4.12181-2.21713-6.37628a53.93432,53.93432,0,0,0-4.32852-13.98639,13.85894,13.85894,0,0,0-3.37069-4.92354c-2.133-1.78992-5.01043-2.322-7.61961-3.29457a22.44,22.44,0,0,1-7.17066-4.35043"/><path class="cls-2" d="M165.69451,172.56145c-3.36058,3.64943-4.1004,9.21129-5.49286,13.8214l-5.75678,19.05944,2.28469-.2986c-2.31877-3.21843-2.24365-7.70609-3.26575-11.45583a43.9141,43.9141,0,0,0-4.32766-10.91414c-3.79787-6.33665-11.90593-6.30149-17.30866-10.81422-1.22672-1.02465-3.00442.73482-1.76776,1.76776,5.407,4.51629,14.337,5.19047,17.63134,11.6382a49.39485,49.39485,0,0,1,4.2064,12.55941c.623,3.05946.79979,5.88005,2.67341,8.48062a1.26835,1.26835,0,0,0,2.28469-.2986l4.66025-15.42907c1.48053-4.9017,2.40474-12.50247,5.94646-16.3486,1.0884-1.182-.67508-2.95438-1.76777-1.76777Z"/><path class="cls-1" d="M15.54476,216.78006a18.86756,18.86756,0,0,0,5.00319.95843L78.11368,223.447c3.54169.35121,7.14293.7001,10.63738.02505,6.08839-1.17614,11.21114-5.35657,15.12282-10.16806,12.441-15.30285,14.33593-36.34889,15.71188-56.02279.16525-2.36284.30462-4.86147-.7732-6.97064-1.5218-2.978-5.20383-4.37486-8.53164-4.04284s-6.34641,2.07742-9.04787,4.04887l.77929-.65214c-3.77086-11.287-.60769-23.61011-1.30942-35.48965-.229-3.877-1.49092-8.47893-5.21552-9.57929-3.31831-.98033-6.59811,1.4257-9.217,3.687-2.37275,2.04879-4.80087,4.18789-6.16333,7.01122l-.04525-1.08591q-1.34253-13.35929-1.57418-26.79926a38.64779,38.64779,0,0,0-.79916-8.87984,12.05192,12.05192,0,0,0-4.78493-7.2991c-3.19094-2.0536-7.27783-1.85666-11.06293-1.58744l-.76455.01969c1.18734-5.14669,2.382-10.37447,2.112-15.64943S60.98534,43.31524,56.899,39.96867c-5.93676-4.86195-15.85176-3.65631-20.45033,2.48671-3.66994,4.9025-3.81123,11.50614-3.80145,17.6301l.05724,35.82633-.12273-.16989c-4.18239-1.26574-8.80165,1.136-11.346,4.68861s-3.42452,8.011-3.98324,12.34491c-1.24382,9.648-1.21135,19.40955-1.17688,29.13737l.27,76.18851"/><path class="cls-2" d="M94.8657,222.20261c10.906-7.18054,17.78254-18.47935,21.51021-30.81794a123.24365,123.24365,0,0,0,4.13735-22.248c.65079-5.92532,2.69093-14.07584.2725-19.84114-4.20982-10.03581-18.42726-4.53918-22.04633,3.12558-1.86028,3.93985-.65179,8.40009,3.518,10.10515,5.38115,2.20042,12.62123-.77144,17.85066-1.99288,2.34908-.54867,1.3547-4.1653-.9969-3.616-4.10488.95877-9.11658,2.98122-13.37279,2.54728-9.11618-.92944-.63612-10.04814,3.7723-11.39514,12.50524-3.821,7.7191,17.45684,6.93238,23.82606-2.197,17.78678-7.6851,36.67618-23.47,47.06907-2.00723,1.32157-.1308,4.57029,1.8927,3.238Z"/><path class="cls-2" d="M94.59328,221.527a357.61767,357.61767,0,0,0,7.78785-54.02325c1.17071-17.81438,1.98745-36.89255-.76871-54.60159-.76615-4.9227-3.159-9.92639-8.79225-10.12748-5.50067-.19635-11.70991,4.94843-14.18187,9.49323-2.71286,4.98772-.08282,9.304,4.716,11.38836,6.0619,2.63293,13.00866,1.62732,18.55933-1.69814,2.0681-1.239.18467-4.48259-1.89269-3.238a17.41616,17.41616,0,0,1-8.913,2.69155,16.3646,16.3646,0,0,1-3.93235-.433c-3.09549-.75033-3.60726-1.06059-4.30228-4.44561-.72211-3.517-.23748-3.954,2.266-6.2161a19.37093,19.37093,0,0,1,3.23368-2.3737c3.82066-2.20657,7.8406-.98672,9.11088,3.35553,1.59049,5.43682,1.28635,11.92909,1.54176,17.56011q.41613,9.17391.34591,18.36114a350.41643,350.41643,0,0,1-8.39434,73.31c-.52186,2.35135,3.09255,3.3556,3.616.9969Z"/><path class="cls-2" d="M67.35724,217.51942q4.13186-27.42886,8.26371-54.85773c2.61456-17.35824,5.31112-34.75994,6.09281-52.31878.3815-8.56962.60143-17.42078-.58628-25.93871-.83454-5.985-2.97737-11.9582-8.19469-15.46334a12.30492,12.30492,0,0,0-14.64887.25082c-3.47737,2.56231-8.8751,7.82927-7.736,12.67215,1.34,5.69733,9.79892,6.346,14.42313,5.76457,6.6184-.83212,12.0053-4.895,13.9881-11.31789.71347-2.31116-2.90522-3.29949-3.61605-.9969a12.02594,12.02594,0,0,1-8.00839,8.01708,16.775,16.775,0,0,1-6.30956.66572,17.3487,17.3487,0,0,1-4.24164-.81919l-2.094-4.501c.03306-2.1629,5.49-6.498,7.24679-7.41463,4.025-2.10022,8.51716-.24942,11.35141,2.91967C78.59894,80.12,78.04614,90.1416,78.1645,97.58291a234.81314,234.81314,0,0,1-.90739,23.54641c-2.70465,31.929-8.74478,63.72054-13.51592,95.3932-.35563,2.36081,3.25721,3.379,3.61605.9969Z"/><path class="cls-2" d="M48.69466,217.87755a459.76829,459.76829,0,0,1,.36071-70.06177c1.98812-22.61864,7.07565-44.93863,6.13261-67.75642-.09938-2.40454-3.8499-2.41712-3.75,0,.94295,22.81563-4.14456,45.13861-6.13261,67.75642a459.78627,459.78627,0,0,0-.36071,70.06177c.15908,2.39547,3.91026,2.41323,3.75,0Z"/><path class="cls-2" d="M35.19509,210.26491A406.13352,406.13352,0,0,1,33.48352,154.972c.68183-17.74347,3.2356-35.21363,2.10246-52.99954-.5519-8.66277-1.476-17.29886-1.92878-25.96842-.45636-8.73822-1.41878-19.36411,1.55342-27.74419,3.17113-8.941,15.0434-13.12938,21.87875-5.39086,5.56559,6.301,3.7809,19.27091,1.409,26.46466-.75744,2.29722,2.86263,3.28192,3.616.9969,3.40448-10.32546,4.62225-27.30995-6.6039-33.37518C44.8857,31.215,33.25739,38.94889,30.91153,49.89413c-3.40909,15.906-.42069,33.18519.72846,49.19147,1.233,17.17477-.8144,33.829-1.68484,50.94821a405.526,405.526,0,0,0,1.48994,60.2311c.2337,2.37979,3.98608,2.404,3.75,0Z"/><path class="cls-2" d="M93.4474,218.287c-5.26993,5.94688-15.45018,3.60386-22.43343,3.12122L43.9301,219.53638l-13.54194-.93594-5.80369-.40112-3.86912-.26741q-3.04387-.22171-2.20085-2.97751c-1.069-3.67993-.1553-9.01-.22152-12.85143l-.23856-13.84c-.30716-17.81958-1.19694-35.74341-.70276-53.56156.25225-9.09489,1.29428-18.21562,4.14179-26.89282a29.11734,29.11734,0,0,1,2.02191-5.07673c.9946-1.78347,4.42592-6.14569,7.03056-4.27166l1.58139,4.665a5.69535,5.69535,0,0,1-3.89789,2.856c-2.64994.72849-5.627.03853-8.23735-.45853-2.35832-.44907-3.36866,3.16442-.9969,3.616,5.73909,1.09282,13.01224,1.854,16.37016-4.12079,2.49413-4.43788.194-9.72775-4.97794-10.36241-5.86936-.72027-9.51255,4.27869-11.43727,9.12862-3.51634,8.86055-4.81534,18.6396-5.24535,28.1069-.93938,20.68165.34518,41.60937.70189,62.30337l.2556,14.82857c.05192,3.01225-.9628,8.19692.87214,10.87986,1.49966,2.1927,4.81973,1.75411,7.11551,1.91279l16.44378,1.13649,34.82212,2.40671c7.53371.52069,16.59979,1.88053,22.18324-4.42013,1.5956-1.80056-1.04714-4.46226-2.65165-2.65165Z"/><path class="cls-2" d="M63.80451,215.05745a18.412,18.412,0,0,0-1.72352,7.01948c-.10244,2.413,3.64776,2.40817,3.75,0a13.58942,13.58942,0,0,1,1.21153-5.12678,1.93257,1.93257,0,0,0-.67266-2.56536,1.88871,1.88871,0,0,0-2.56535.67266Z"/><path class="cls-2" d="M45.02966,217.76625l.14372,2.50862a1.875,1.875,0,0,0,3.75,0l-.14372-2.50862a1.875,1.875,0,0,0-3.75,0Z"/><path class="cls-2" d="M31.38772,209.854l.47291,10.42182c.10906,2.40328,3.85967,2.4167,3.75,0L35.13772,209.854c-.10906-2.40328-3.85967-2.4167-3.75,0Z"/></svg>