<svg id="Layer_1" data-name="Layer 1" xmlns="http://www.w3.org/2000/svg" viewBox="0 0 413.32333 282.33857"><defs><style>.cls-1{fill:#a97c50;stroke:#a97c50;stroke-width:4px;}.cls-1,.cls-2,.cls-3,.cls-6,.cls-7{stroke-miterlimit:10;}.cls-2{fill:#9b8579;stroke:#9b8579;}.cls-2,.cls-3,.cls-6,.cls-7{stroke-width:7px;}.cls-3{fill:#603913;stroke:#603913;}.cls-4{fill:#fff;}.cls-5{fill:#6d6e71;}.cls-6,.cls-7{fill:none;}.cls-6{stroke:#6d6e71;}.cls-7{stroke:#3c2415;}</style></defs><title>dead palm</title><path class="cls-1" d="M294.071,96.32407c-1.59443,65.41314-15.76709,106.91908-15.76709,106.91908H247.12068s16.88875-46.35251,23.46606-106.33123"/><path class="cls-2" d="M119.00964,172.63947s23.759,69.20908,85.9345,62.08515c0,0-56.29142-38.8-67.38072-81.89829S119.00964,172.63947,119.00964,172.63947Z"/><path class="cls-1" d="M245.71259,96.75571c-34.46792,8.08756-72.17619,21.08547-105.06058,41.97173l-5.98226-16.928a499.51175,499.51175,0,0,1,102.66363-46.9901"/><path class="cls-2" d="M129.283,138.6426C97.89428,87.53013,47.16963,41.59206,47.16963,41.59206c-22.838,97.723,83.67672,101.47445,83.67672,101.47445"/><path class="cls-2" d="M116.42282,136.85056s-40.24458,13.278-108.20256-23.51417c0,0,44.54829,87.48932,92.02188,65.76294,0,0,44.21187-13.033,30.19628-27.64089Z"/><path class="cls-2" d="M70.40367,179.89961s-31.30486,42.72662,6.32493,95.18611c0,0,27.63293-69.86637,19.26753-89.53637s7.95694,72.13762,46.11691,81.27841c0,0-24.52016-86.78936-28.2602-96.07373"/><circle class="cls-3" cx="143.34716" cy="150.9659" r="17.08606"/><circle class="cls-3" cx="123.35749" cy="121.87527" r="17.08606"/><path class="cls-4" d="M239.39626,109.18391a1.25075,1.25075,0,0,0,0-2.5,1.25075,1.25075,0,0,0,0,2.5Z"/><path class="cls-4" d="M245.71259,79.72633a1.25075,1.25075,0,0,0,0-2.5,1.25075,1.25075,0,0,0,0,2.5Z"/><polyline class="cls-5" points="262.472 74.266 268.174 78.746 270.231 71.793 275.934 76.272 277.996 69.318 283.7 73.797 285.758 66.844 291.462 71.323 293.524 64.368 299.227 68.848 301.287 61.894 306.993 66.373 309.053 59.419 314.759 63.897 316.82 56.943 322.526 61.422 324.587 54.467 330.293 58.946 332.355 51.991 338.06 56.47 340.117 49.517 345.823 53.996 347.883 47.042 353.59 51.52 355.651 44.566 361.358 49.044 363.422 42.089 369.13 46.567 371.195 39.611 376.902 44.089 378.966 37.134 384.675 41.612 386.746 34.654 392.462 39.13"/><polyline class="cls-6" points="262.472 74.266 268.174 78.746 270.231 71.793 275.934 76.272 277.996 69.318 283.7 73.797 285.758 66.844 291.462 71.323 293.524 64.368 299.227 68.848 301.287 61.894 306.993 66.373 309.053 59.419 314.759 63.897 316.82 56.943 322.526 61.422 324.587 54.467 330.293 58.946 332.355 51.991 338.06 56.47 340.117 49.517 345.823 53.996 347.883 47.042 353.59 51.52 355.651 44.566 361.358 49.044 363.422 42.089 369.13 46.567 371.195 39.611 376.902 44.089 378.966 37.134 384.675 41.612 386.746 34.654 392.462 39.13"/><polygon class="cls-5" points="265.283 73.86 256.264 51.263 380.873 12.053 392.479 38.961 265.283 73.86"/><polygon class="cls-7" points="381.893 8.127 395.428 47.44 409.193 40.986 399.454 4.158 381.893 8.127"/><polygon class="cls-4" points="270.596 86.858 254.846 37.733 242.596 41.733 255.721 80.733 270.596 86.858"/></svg>