<svg id="Layer_1" data-name="Layer 1" xmlns="http://www.w3.org/2000/svg" viewBox="0 0 346.18406 312.8379"><defs><style>.cls-1{fill:#1b75bc;}.cls-2{fill:#00a79d;}.cls-3{fill:#231f20;}.cls-4{fill:#2b3990;}.cls-5{fill:#a7a9ac;}</style></defs><title>fish net</title><path class="cls-1" d="M346.18406,203.50181s-32.34978-26.26391-61.99152.23919c0,0-9.93879-5.49331-11.778-4.67006s5.814,10.13405,5.814,10.13405-8.68759,4.65835-7.95479,6.55987,13.77171-3.13636,13.77171-3.13636S330.001,225.23747,346.18406,203.50181Z"/><path class="cls-2" d="M13.2411,211.61265S32.08673,174.4489,69.95372,186.579c0,0,6.83913-9.06544,8.85422-9.0628s-1.18172,11.62349-1.18172,11.62349,9.8317.71548,9.937,2.75058-13.85492,2.74553-13.85492,2.74553S36.87463,224.8711,13.2411,211.61265Z"/><path class="cls-3" d="M157.4671,35.94272a15.31978,15.31978,0,0,1,4.68283-3.677c.71674-.36571.08492-1.44458-.6309-1.07934a16.23155,16.23155,0,0,0-4.93581,3.87242c-.523.60637.35736,1.49433.88388.88388Z"/><path class="cls-3" d="M160.33683,38.9659l1.83832-4.33552c.31042-.73209-.766-1.36988-1.07934-.6309L159.25749,38.335c-.31041.73208.766,1.36987,1.07934.6309Z"/><path class="cls-3" d="M193.0195,5.063c-.52848,4.46377-1.99436,8.95618-3.01792,13.33156-.18306.78252,1.02189,1.11651,1.20535.3323C192.2561,14.242,193.72744,9.64145,194.2695,5.063c.09438-.79725-1.15642-.79045-1.25,0Z"/><path class="cls-3" d="M195.23922,6.14088c.79484,5.48313-2.97049,12.11377-5.85738,16.50763-.443.67426.63894,1.30118,1.07933.6309,3.11321-4.73831,6.83377-11.60463,5.9834-17.47083-.115-.79307-1.3196-.45583-1.20535.3323Z"/><path class="cls-3" d="M223.82181,64.70487a14.133,14.133,0,0,0,1.3842,3.20351.62547.62547,0,0,0,1.07934-.6309,12.74812,12.74812,0,0,1-1.25819-2.90491.62554.62554,0,0,0-1.20535.3323Z"/><path class="cls-3" d="M245.51412,72.96811a.62537.62537,0,0,0,0-1.25.62537.62537,0,0,0,0,1.25Z"/><path class="cls-3" d="M256.85228,76.87255a15.4811,15.4811,0,0,0-3.87456-3.58924c-.67713-.43867-1.30441.643-.6309,1.07934a13.72634,13.72634,0,0,1,3.42612,3.1408c.48392.62851,1.57027.00671,1.07934-.6309Z"/><path class="cls-3" d="M316.66772,202.92841l1.79707,2.93923c.419.68527,1.50052.058,1.07934-.63089l-1.79707-2.93924c-.419-.68526-1.50051-.058-1.07934.6309Z"/><path class="cls-3" d="M279.19774,261.30869q.65445,1.75357,1.45062,3.44756c.34185.72753,1.41981.09369,1.07934-.6309q-.7274-1.548-1.32461-3.149c-.27877-.74694-1.48746-.42361-1.20535.3323Z"/><path class="cls-3" d="M269.085,276.10452a1.61068,1.61068,0,0,1,1.08678.83186c.38756.70516,1.46741.07519,1.07934-.6309a2.8422,2.8422,0,0,0-1.83382-1.40631c-.78129-.19078-1.11464,1.01432-.3323,1.20535Z"/><path class="cls-3" d="M249.79527,290.64655c1.35052.12574,3.02629-.89177,4.22715-.04.65739.46628,1.28244-.61721.6309-1.07934-1.53088-1.08583-3.20469.02329-4.85805-.13064-.8006-.07454-.79551,1.17593,0,1.25Z"/><path class="cls-3" d="M280.47411,260.16421a24.1595,24.1595,0,0,0,.4529,2.99327c.17057.78574,1.37587.45323,1.20535-.3323a21.455,21.455,0,0,1-.40825-2.661c-.07054-.795-1.3212-.80241-1.25,0Z"/><path class="cls-3" d="M101.76307,287.82784a9.17034,9.17034,0,0,1,1.63357,3.36373.62554.62554,0,0,0,1.20535-.3323,10.67646,10.67646,0,0,0-1.955-3.91531c-.494-.63381-1.37286.25646-.88388.88388Z"/><path class="cls-3" d="M62.992,247.85965a19.6436,19.6436,0,0,1,.99,4.619c.0706.795,1.32126.80241,1.25,0a21.01962,21.01962,0,0,0-1.03465-4.95125c-.258-.75719-1.46581-.43211-1.20535.3323Z"/><path class="cls-3" d="M47.56192,176.11349a5.8908,5.8908,0,0,0-2.10726-2.76c-.65252-.47239-1.27708.61153-.6309,1.07934a4.4061,4.4061,0,0,1,1.53281,2.013c.28.74629,1.48873.42307,1.20535-.3323Z"/><path class="cls-2" d="M153.2169,240.50733s32.24821-26.38854,61.992,0c0,0,9.91751-5.53162,11.75993-4.71548s-5.7749,10.15641-5.7749,10.15641,8.70549,4.6248,7.98,6.52912-13.7837-3.08319-13.7837-3.08319S169.4837,262.18038,153.2169,240.50733Z"/><path class="cls-2" d="M67.15034,145.08453s37.50868-18.1494,60.28615,14.44253c0,0,10.93334-3.06888,12.53491-1.846s-7.98217,8.53153-7.98217,8.53153,7.38849,6.52569,6.23934,8.2086-12.68612-6.2096-12.68612-6.2096S77.92027,169.951,67.15034,145.08453Z"/><path class="cls-4" d="M67.49854,252.17414s37.50868-18.1494,60.28615,14.44253c0,0,10.93334-3.06888,12.53491-1.846s-7.98217,8.53153-7.98217,8.53153,7.38849,6.52569,6.23934,8.2086-12.68611-6.2096-12.68611-6.2096S78.26847,277.04057,67.49854,252.17414Z"/><path class="cls-2" d="M202.40248,172.30761s18.84562-37.16374,56.71261-25.03368c0,0,6.83914-9.06544,8.85422-9.06281s-1.18172,11.6235-1.18172,11.6235,9.83171.71547,9.937,2.75058-13.85491,2.74553-13.85491,2.74553S226.036,185.56607,202.40248,172.30761Z"/><path class="cls-2" d="M116.019,197.22813s27.41086-31.38385,61.1288-10.309c0,0,8.85953-7.10384,10.812-6.60545S183.9543,191.289,183.9543,191.289s9.35337,3.1127,8.9547,5.11116-14.1045-.74809-14.1045-.74809S135.66345,215.8943,116.019,197.22813Z"/><path class="cls-2" d="M245.24347,271.6158s4.84151-41.38673,44.5674-43.09006c0,0,3.28494-10.87038,5.17678-11.56428s2.90793,11.31575,2.90793,11.31575,9.47322-2.72625,10.27536-.85293-12.05251,7.36435-12.05251,7.36435S272.00278,275.89013,245.24347,271.6158Z"/><path class="cls-2" d="M148.12085,283.23269s32.2167-26.427,61.992-.074c0,0,9.91091-5.54344,11.75429-4.7295s-5.76278,10.16329-5.76278,10.16329,8.711,4.61441,7.98782,6.5196-13.78737-3.06675-13.78737-3.06675S164.4135,304.88633,148.12085,283.23269Z"/><path class="cls-2" d="M119.18342,108.09856s37.50868-18.1494,60.28615,14.44253c0,0,10.93334-3.06888,12.53492-1.846s-7.98218,8.53154-7.98218,8.53154,7.38849,6.52569,6.23934,8.2086-12.68611-6.2096-12.68611-6.2096S129.95335,132.965,119.18342,108.09856Z"/><path class="cls-2" d="M203.06307,199.207s37.50868-18.1494,60.28615,14.44253c0,0,10.93334-3.06888,12.53491-1.846s-7.98217,8.53154-7.98217,8.53154,7.38849,6.52569,6.23934,8.2086-12.68611-6.2096-12.68611-6.2096S213.833,224.07341,203.06307,199.207Z"/><path class="cls-2" d="M57.417,193.95728s40.20977-10.93051,56.59474,25.299c0,0,11.31153-1.00266,12.66046.49432s-9.417,6.91541-9.417,6.91541,6.06017,7.77487,4.62072,9.21734-11.32539-8.43992-11.32539-8.43992S63.42278,220.38191,57.417,193.95728Z"/><path class="cls-4" d="M207.97559,99.40613s37.50867-18.14941,60.28614,14.44252c0,0,10.93334-3.06888,12.53492-1.846s-7.98217,8.53154-7.98217,8.53154,7.38849,6.52569,6.23933,8.2086-12.68611-6.2096-12.68611-6.2096S218.74551,124.27255,207.97559,99.40613Z"/><path class="cls-4" d="M169.15034,204.08453s37.50868-18.1494,60.28615,14.44253c0,0,10.93334-3.06888,12.53491-1.846s-7.98217,8.53153-7.98217,8.53153,7.38849,6.52569,6.23934,8.2086-12.68612-6.2096-12.68612-6.2096S179.92027,228.951,169.15034,204.08453Z"/><path class="cls-5" d="M99.00265,279.16382s37.50868-18.1494,60.28615,14.44253c0,0,10.93334-3.06888,12.53491-1.846s-7.98217,8.53154-7.98217,8.53154,7.38849,6.52569,6.23934,8.2086-12.68611-6.2096-12.68611-6.2096S109.77258,304.03024,99.00265,279.16382Z"/><path class="cls-5" d="M129.38163,169.07914s-35.20373-22.29348-61.53669,7.49952c0,0-10.51387-4.29121-12.244-3.25817s6.96116,9.38319,6.96116,9.38319-8.08207,5.644-7.13156,7.44656S68.74,185.4222,68.74,185.4222,115.85621,192.56091,129.38163,169.07914Z"/><path class="cls-5" d="M105.05579,235.42684s37.50868-18.1494,60.28615,14.44253c0,0,10.93334-3.06888,12.53492-1.846s-7.98218,8.53153-7.98218,8.53153,7.38849,6.52569,6.23934,8.20861-12.68611-6.20961-12.68611-6.20961S115.82572,260.29327,105.05579,235.42684Z"/><path class="cls-5" d="M240.22445,177.883s37.50867-18.1494,60.28614,14.44253c0,0,10.93334-3.06888,12.53492-1.846s-7.98217,8.53153-7.98217,8.53153,7.38848,6.52569,6.23933,8.2086-12.68611-6.2096-12.68611-6.2096S250.99437,202.74946,240.22445,177.883Z"/><path class="cls-5" d="M134.426,157.64126s30.17194-28.73944,61.81636-4.66295c0,0,9.47334-6.26193,11.37193-5.58669s-4.99459,10.562-4.99459,10.562,9.0287,3.95688,8.44854,5.91038-13.97657-2.03767-13.97657-2.03767S152.277,178.02936,134.426,157.64126Z"/><path class="cls-4" d="M77.11526,109.89729s37.50867-18.1494,60.28614,14.44253c0,0,10.93334-3.06888,12.53492-1.846s-7.98217,8.53153-7.98217,8.53153,7.38849,6.52569,6.23933,8.2086-12.68611-6.2096-12.68611-6.2096S87.88518,134.76372,77.11526,109.89729Z"/><path class="cls-5" d="M156.42061,89.03471s37.50868-18.14941,60.28615,14.44252c0,0,10.93334-3.06888,12.53491-1.846s-7.98217,8.53154-7.98217,8.53154,7.38849,6.52569,6.23934,8.2086-12.68611-6.2096-12.68611-6.2096S167.19054,113.90113,156.42061,89.03471Z"/><path class="cls-1" d="M179.097,259.19876s37.50867-18.14941,60.28614,14.44253c0,0,10.93334-3.06888,12.53492-1.846s-7.98217,8.53154-7.98217,8.53154,7.38848,6.52569,6.23933,8.2086-12.68611-6.2096-12.68611-6.2096S189.867,284.06518,179.097,259.19876Z"/><path class="cls-1" d="M271.7062,138.64458s37.50867-18.14941,60.28614,14.44253c0,0,10.93334-3.06888,12.53492-1.846s-7.98217,8.53154-7.98217,8.53154,7.38849,6.52569,6.23933,8.2086-12.68611-6.2096-12.68611-6.2096S282.47612,163.511,271.7062,138.64458Z"/><path class="cls-5" d="M82.68265,67.79253s37.50867-18.1494,60.28615,14.44253c0,0,10.93334-3.06888,12.53491-1.846s-7.98217,8.53154-7.98217,8.53154,7.38849,6.52569,6.23933,8.2086-12.68611-6.2096-12.68611-6.2096S93.45257,92.659,82.68265,67.79253Z"/><path class="cls-1" d="M0,135.97563s37.50868-18.14941,60.28615,14.44252c0,0,10.93334-3.06888,12.53491-1.846s-7.98217,8.53153-7.98217,8.53153,7.38849,6.52569,6.23934,8.20861-12.68612-6.2096-12.68612-6.2096S10.76992,160.84205,0,135.97563Z"/><path class="cls-1" d="M122.89551,223.76057s-37.50868-18.14941-60.28615,14.44252c0,0-10.93334-3.06888-12.53491-1.846s7.98217,8.53153,7.98217,8.53153-7.38849,6.52569-6.23934,8.20861,12.68611-6.2096,12.68611-6.2096S112.12558,248.627,122.89551,223.76057Z"/><path class="cls-5" d="M262.93642,122.62987s-37.50867-18.1494-60.28614,14.44253c0,0-10.93334-3.06888-12.53492-1.846s7.98217,8.53153,7.98217,8.53153-7.38849,6.52569-6.23933,8.2086,12.68611-6.2096,12.68611-6.2096S252.1665,147.49629,262.93642,122.62987Z"/><path class="cls-1" d="M181.16364,201.13709s-32.34979-26.26391-61.99153.23919c0,0-9.93878-5.49331-11.778-4.67007s5.814,10.13406,5.814,10.13406-8.68758,4.65835-7.95478,6.55986,13.7717-3.13635,13.7717-3.13635S164.98058,222.87275,181.16364,201.13709Z"/><path class="cls-1" d="M263.56162,55.80922s-37.50868-18.14941-60.28615,14.44252c0,0-10.93334-3.06888-12.53491-1.846s7.98217,8.53154,7.98217,8.53154-7.38849,6.52568-6.23934,8.2086,12.68611-6.2096,12.68611-6.2096S252.79169,80.67564,263.56162,55.80922Z"/><path class="cls-3" d="M167.73355,3.68141C124.05009,43.46658,72.218,83.20125,51.29177,140.61332c-10.06393,27.61085-10.76316,57.01075-.72982,84.73821,9.11868,25.19976,25.487,51.24389,49.19154,64.90653,12.81042,7.38357,27.37086,12.67042,41.42068,17.1464a108.64629,108.64629,0,0,0,45.17043,4.82342c15.57665-1.68036,30.70273-6.12258,45.49521-11.12735,12.99122-4.39536,25.39525-9.3782,35.48-18.97163,10.24469-9.7456,18.92546-21.55459,27.44026-32.804,8.91839-11.78264,17.22666-24.17219,23.203-37.73489,11.34687-25.75075,12.2648-55.09254,1.11771-81.10938a100.58885,100.58885,0,0,0-53.92689-52.77718c-26.00465-10.79621-65.1436-15.55957-73.93015-47.66423A31.613,31.613,0,0,1,193.20484,7.1397c.36267-.716-.71537-1.34947-1.07934-.6309-11.46864,22.64184,6.68815,44.90548,26.13805,54.98288,12.28918,6.36727,25.75433,9.79874,38.73059,14.42383,14.007,4.99248,26.84623,11.9651,37.7519,22.174a98.61507,98.61507,0,0,1,30.93917,77.385c-1.731,30.25539-18.46188,56.05673-36.63867,79.22529-8.2911,10.568-16.51417,21.96309-27.0301,30.44638-12.17976,9.82552-28.2428,14.326-42.99661,18.76447-14.78431,4.44765-30.08433,7.84244-45.59671,7.755-16.42561-.09257-31.80071-5.03716-46.98505-10.84846C112.60138,295.5217,98.75678,289.87568,87.48985,279.98c-10.89312-9.56732-19.44448-21.79759-26.39227-34.445-14.58189-26.544-20.41029-56.66825-13.89248-86.46842,7.12317-32.56793,26.06633-60.96037,48.25261-85.2646,22.61717-24.77625,48.38917-46.67672,73.15973-69.23676.596-.54285-.29-1.42481-.88389-.88389Z"/><path class="cls-3" d="M196.34859,5.74049c-5.532-6.21495-19.078-7.71091-25.90448-2.86733-8.47962,6.01649-9.58548,20.40111-8.42742,29.69515.43934,3.5259.83066,9.07389,4.95591,10.26137,4.71208,1.35641,9.53914-3.58637,12.97127-6.04294,9.02528-6.45989,14.37351-19.665,15.48917-30.50663.08226-.79942-1.16833-.79367-1.25,0a53.7951,53.7951,0,0,1-9.60073,24.6961c-2.57813,3.52714-7.753,6.92213-11.54126,9.16579-4.14064,2.45234-7.50333.11844-9.24813-4.4072-.87265-2.26348-.78866-5.14595-.85516-7.56375-.20836-7.57481,1.121-18.13042,7.22723-23.47932C176.29392-.67708,190.199.70852,195.4647,6.62437c.536.60212,1.41742-.28448.88389-.88388Z"/><path class="cls-3" d="M166.70894,43.21735c5.74162,8.30309.56588,17.997,1.39946,27.1242.31593,3.45925,1.48219,6.71816.58213,10.22528-.65348,2.54634-2.22051,4.75388-3.32551,7.10334a44.37425,44.37425,0,0,0-3.40244,11.47565c-1.54652,8.99374-1.8313,17.848-5.58724,26.30891-1.52889,3.44409-3.41379,6.90651-3.77128,10.72713-.38629,4.12822,1.80081,7.80205.78514,11.92244-.99288,4.02789-2.503,7.573-2.82594,11.78735-.418,5.45485-.47836,10.68229-1.88147,16.02625-2.18637,8.32712-3.38327,15.71813-2.94424,24.40738.4999,9.89385,1.75672,19.77255-1.41338,29.38517-1.252,3.79653-2.91887,7.40831-3.29529,11.43583-.395,4.22678.42066,8.46524,1.18336,12.60254.14563.79,1.35055.45538,1.20535-.3323-1.07789-5.84706-1.82076-11.28593-.12414-17.09186,1.28139-4.385,3.17073-8.41646,3.87184-12.978,1.35528-8.81758-.11964-17.72209-.32161-26.56352a55.94328,55.94328,0,0,1,1.63111-15.48529c1.046-4.04234,2.36166-7.97894,2.81138-12.15051.58848-5.45861.14124-10.99634,1.75789-16.31568.97686-3.21421,2.31335-5.76724,1.84832-9.20031-.4112-3.03574-1.4396-5.46883-.84913-8.65886a33.86522,33.86522,0,0,1,2.724-7.39476,56.97962,56.97962,0,0,0,3.93374-11.14864c2.02007-9.37336,1.60741-19.28318,5.7434-28.12806,1.403-3.00037,3.36625-5.758,3.79591-9.12306.60259-4.71954-1.26741-9.42852-.85747-14.22045.65873-7.7,3.18946-15.45287-1.59453-22.37111-.45451-.65728-1.53842-.033-1.07933.6309Z"/><path class="cls-3" d="M142.56155,253.72479c.36667,5.26363.73186,10.64282,2.50155,15.65838a34.88035,34.88035,0,0,0,3.013,6.12686,35.207,35.207,0,0,1,3.58206,9.596c2.6581,10.24829,9.42948,18.52974,17.11635,25.53226.59362.54077,1.48012-.34074.88389-.88388-8.06572-7.34764-14.52436-15.74512-17.14717-26.49262-1.10121-4.51243-3.39808-7.8558-5.31845-12.01882-2.53193-5.48876-2.96641-11.5636-3.38122-17.51818-.0556-.798-1.306-.80417-1.25,0Z"/><path class="cls-3" d="M176.413,41.20973c4.50463,16.73274,8.45047,33.70628,12.09959,50.646,3.9734,18.44511,5.50726,37.16532,6.01868,55.99767q.36791,13.54752.36069,27.10964a99.3949,99.3949,0,0,1-3.56425,25.81607,17.731,17.731,0,0,0-.412,8.3927c.465,2.232,1.36508,4.33759,1.53172,6.64319.19951,2.76033-.40028,5.502-.74565,8.22422-.95747,7.54673,2.13224,14.04827,2.08757,21.54869-.12613,21.17954-.164,42.23047.59831,63.41044.02887.802,1.279.80585,1.25,0-.68162-18.93712-1.36482-37.89277-.80551-56.84261.11737-3.97648.48526-8.031-.04425-11.99325-.53447-3.99942-2.21508-7.66691-2.23753-11.753-.0217-3.94914,1.24535-7.79991,1.1586-11.759-.10616-4.8454-2.55491-8.99616-1.56328-13.97216,1.52536-7.65419,3.69127-14.39728,3.9355-22.32026.27305-8.85814.00024-17.76542-.16687-26.62433-.33918-17.98071-1.26782-36.01387-4.49989-53.73525-3.61445-19.818-8.56012-39.67184-13.79605-59.121a.62553.62553,0,0,0-1.20535.3323Z"/><path class="cls-3" d="M159.22066,39.06844c.55193,8.45738-7.51882,13.63012-10.96865,20.57555-1.6937,3.40988-1.88514,7.10967-2.658,10.77437-1.17374,5.56548-4.813,8.813-8.42483,12.85695-5.45661,6.10946-6.79667,14.34906-8.97459,22.0127-2.97126,10.4552-6.008,20.8944-8.90795,31.36961a93.56327,93.56327,0,0,0-2.84773,13.27369,52.79319,52.79319,0,0,1-4.80331,16.73384c-3.85116,8.35329-5.177,17.41382-6.39717,26.45558q-2.02476,15.00388-2.71924,30.1468c-.44707,9.7622-.31842,18.47881,3.4483,27.62342,7.36,17.86811,14.42072,38.53946,28.701,52.16369.582.5553,1.46733-.32724.88388-.88388-13.31791-12.706-19.49647-31.18433-26.68414-47.68226-1.98241-4.55024-3.99375-9.11685-4.82076-14.0428-.94568-5.63279-.53816-11.50453-.27833-17.17817q.72933-15.9256,2.93911-31.73908a139.57428,139.57428,0,0,1,2.54318-14.33545c1.30089-5.22664,3.6861-9.84561,5.76309-14.76963,3.342-7.923,3.18151-17.14013,5.47742-25.43345,2.8119-10.15722,5.75627-20.27956,8.63733-30.41739,1.27329-4.48043,2.38015-9.05367,3.86257-13.46949,1.70823-5.08847,4.63212-8.37718,8.16751-12.21043a21.03707,21.03707,0,0,0,5.47929-9.34089c1.26845-5.0479,1.40155-9.66115,4.38559-14.15112,3.8638-5.81372,9.94266-10.72779,9.4464-18.33216-.05212-.79865-1.30251-.80449-1.25,0Z"/><path class="cls-3" d="M102.99935,287.38325C85.618,256.24719,75.29279,219.9058,80.00043,184.1002c2.41034-18.33268,9.739-35.0677,16.62359-52.06253,7.12991-17.60046,14.06874-35.07394,24.27786-51.17164,10.686-16.84966,23.7094-32.05812,37.91506-46.02624.57452-.56491-.30953-1.44863-.88389-.88388a269.70437,269.70437,0,0,0-34.35834,40.56572C112.97366,90.13925,105.44742,106.949,98.38737,124.377c-7.29869,18.0171-15.7947,35.959-18.98936,55.27527a145.202,145.202,0,0,0,1.109,51.1399,192.94779,192.94779,0,0,0,21.413,57.22195c.39216.7025,1.47224.07292,1.07934-.6309Z"/><path class="cls-3" d="M159.986,33.50744h.7191a.62537.62537,0,0,0,0-1.25h-.7191a.62537.62537,0,0,0,0,1.25Z"/><path class="cls-3" d="M64.47042,249.36381q-2.45448-26.55082-2.68055-53.235c-.06054-8.851-.33483-17.88811.93988-26.66943,1.23889-8.5345,4.61945-16.4484,7.80128-24.4018,6.39-15.97269,11.63445-33.43361,20.83916-48.03979,4.47519-7.10131,9.49605-13.88717,14.29073-20.77395,5.0065-7.191,9.91565-14.46048,16.06587-20.74367,13.42471-13.715,28.28379-26.22028,42.42384-39.19329.59406-.545-.29175-1.42714-.88388-.88388-13.1266,12.04319-26.5012,23.86808-39.37184,36.18447-12.04828,11.52945-20.97474,26.18983-30.3512,39.87127-9.61745,14.03308-15.019,30.25232-21.29729,45.9458-3.23862,8.09534-6.94265,16.17-9.25983,24.59192-2.17552,7.90707-2.35735,16.08945-2.43472,24.23853a621.50925,621.50925,0,0,0,2.66855,63.10881c.07343.79432,1.32414.802,1.25,0Z"/><path class="cls-3" d="M182.73617,37.098c7.20988,8.65364,14.06505,17.358,18.30493,27.894,3.82875,9.51439,6.7253,19.4713,9.80613,29.24641q4.90131,15.5513,9.39436,31.22727c1.37673,4.80338,2.8312,9.60506,3.97079,14.47156,1.319,5.63263,1.33887,10.962,1.287,16.68428-.0394,4.34979,1.16138,7.38512,2.1281,11.4975,1.06493,4.5302-1.84247,8.30963-.70525,12.89363.88063,3.54969,3.01188,6.65849,3.97263,10.17822,1.426,5.2242-1.69191,8.48667-2.73406,13.22443-.59083,2.686.38162,4.46562,1.66355,6.75627,2.85268,5.09735.36243,9.35371.00806,14.61591-.25933,3.85112,1.61,6.41271,2.71236,9.94763,1.69057,5.42117-2.25241,9.01793-3.80549,13.79106-1.29343,3.97517.61283,6.30566,1.76934,9.95663,2.23507,7.05586-4.0745,9.68706-6.9319,14.9658-4.08439,7.54551-.91217,16.75856,1.8723,24.14834.281.74574,1.4898.4226,1.20535-.3323-1.71932-4.563-3.39966-9.27812-3.68576-14.18853-.35948-6.17,2.2062-9.99072,6.03763-14.46555,1.6993-1.98466,3.39255-4.10667,3.51215-6.81908a9.6296,9.6296,0,0,0-.79664-3.8062c-1.4779-4.108-3.02278-5.95335-1.261-10.29039,1.20988-2.97835,3.384-5.62886,3.80691-8.90106.53161-4.113-2.364-7.28418-2.99931-11.16586-.73755-4.50606,1.72885-8.68354,1.40724-13.17154a9.87763,9.87763,0,0,0-.73317-3.10047c-1.7212-4.16988-3.60831-5.6245-1.47329-10.63354,1.1469-2.6908,2.41342-5.09834,2.16887-8.118-.30051-3.7108-2.35032-6.982-3.65339-10.3811a13.09615,13.09615,0,0,1-1.031-7.35175c.33676-1.69932,1.37224-3.24548,1.42451-5.01762a12.34632,12.34632,0,0,0-1.0943-4.47761,28.18364,28.18364,0,0,1-1.53446-9.7548c.18567-20.50038-7.76616-40.5633-13.83472-59.97019-3.51385-11.237-6.74243-22.78969-11.3458-33.64062-4.269-10.06283-11.00969-18.4679-17.94884-26.7966-.51545-.61867-1.39558.26972-.88389.88388Z"/><path class="cls-3" d="M46.36813,176.6918c6.40358,13.78087,7.90026,29.50729,15.99241,42.5474,7.9672,12.83878,19.16976,24.212,29.00544,35.63471,9.30483,10.80622,19.28736,21.36158,31.68063,28.65277a129.83261,129.83261,0,0,0,19.85513,9.094c7.74551,2.94482,15.62859,6.05341,23.902,7.09718,8.98942,1.1341,18.02148-.17586,26.91473,1.97625,3.7363.90415,7.35147,1.95355,11.227,1.88082,5.26028-.09871,10.12776-1.58259,15.33287-.03344a.62554.62554,0,0,0,.3323-1.20535c-7.06921-2.10394-14.29868.7909-21.50811-.60878-7.4764-1.45151-14.08846-2.71416-21.79292-2.77188-16.56086-.12407-32.46055-5.91731-47.25787-13.109-13.6064-6.61286-24.53613-16.82553-34.48373-28.05114C85.45164,246.3792,74.82221,234.7463,65.93882,222.343c-9.94553-13.88631-11.43144-31.08874-18.49135-46.28208-.33866-.72883-1.41651-.09472-1.07934.6309Z"/><path class="cls-3" d="M54.47239,135.06268c4.6546,17.121,5.83978,35.27789,12.8243,51.729,3.82679,9.01351,9.65685,16.83149,15.442,24.657,5.60507,7.58189,11.11976,15.24393,16.90494,22.69021a133.364,133.364,0,0,0,41.52219,35.41059c7.80587,4.36312,15.8405,9.28337,24.3568,12.11735,9.05385,3.01286,19.13166,3.88818,28.53164,5.36141,4.176.65451,7.80961.88089,11.819-.57315,2.94972-1.06976,5.48493-2.32051,8.68587-1.54438a50.092,50.092,0,0,1,6.91623,2.76343,51.39723,51.39723,0,0,0,28.97717,2.75921c.79-.14576.45537-1.35068-.3323-1.20535-10.58828,1.95372-20.63334.46388-30.47771-3.6988-2.55427-1.08007-5.206-2.35735-8.05178-2.26193-4.07463.13663-7.30452,2.99146-11.45594,3.14821-4.88259.18436-10.11576-1.3145-14.93037-2.11031-4.46822-.73855-8.96864-1.379-13.40361-2.30164-9.14554-1.90264-17.23353-6.61124-25.37735-11.00032-16.3475-8.81043-30.73068-19.05156-42.54446-33.52891-6.004-7.35772-11.52584-15.11368-17.1702-22.74707-5.527-7.4747-11.40138-14.84776-15.74385-23.10206-9.25-17.58273-10.15237-38.00728-15.28722-56.89481a.62553.62553,0,0,0-1.20535.3323Z"/><path class="cls-3" d="M72.05021,101.94467c2.21426,20.13765,4.41387,41.03339,10.15613,60.51668,5.55182,18.83712,18.33654,35.3641,30.16583,50.76183,10.88452,14.16795,23.6248,27.32891,39.70645,35.53559a70.80072,70.80072,0,0,0,22.45438,7.23342c5.18633.71507,10.49114.72119,15.61153,1.88839,5.41015,1.23326,10.00764,4.0217,14.83936,6.597a34.9937,34.9937,0,0,0,12.775,4.41737c5.63089.60738,11.26987-.38508,16.89057-.63033a68.09231,68.09231,0,0,1,34.46411,7.82553c.71273.37088,1.34553-.70747.6309-1.07934a70.16767,70.16767,0,0,0-23.091-7.45448c-10.14878-1.36265-20.47181,1.59578-30.48058-.125-8.751-1.50455-15.52551-7.98112-23.99076-10.33679-8.79707-2.448-18.1074-1.781-26.93022-4.37138-18.10486-5.31566-33.06853-17.84115-45.16163-31.93154a286.1527,286.1527,0,0,1-18.14169-24.17148C96.05414,188.07,89.8607,179.59248,86.03894,169.8614c-3.90776-9.95008-5.83667-20.54185-7.61662-31.03912q-3.11307-18.35934-5.12211-36.87761c-.087-.79094-1.33794-.7998-1.25,0Z"/><path class="cls-3" d="M85.79206,85.1634c1.68925,11.89859,1.32283,23.961,2.8916,35.86878A125.98244,125.98244,0,0,0,94.983,147.0219a130.51139,130.51139,0,0,0,27.77483,45.39175A144.32288,144.32288,0,0,0,143.794,210.363a131.94441,131.94441,0,0,1,22.0756,20.28368c4.84415,5.46707,10.07354,11.13865,16.96487,13.99221,9.20585,3.812,18.30517.19642,27.71591-.28277,12.16931-.61965,20.60058,8.7495,32.15008,10.61053,12.10362,1.95032,25.80652-1.73372,36.057,6.79618.61415.51107,1.50311-.36859.88389-.88388-6.36935-5.30022-14.38009-6.26794-22.40522-6.43159-5.3168-.10842-10.7223.11358-15.95709-1.00517-5.65266-1.208-10.3852-4.24529-15.46574-6.816-8.0329-4.06458-15.371-3.71883-24.05575-2.36257-5.59011.873-11.21582,1.65106-16.7204-.144a32.445,32.445,0,0,1-12.01118-7.7257c-6.06329-5.7472-10.92789-12.63427-17.13657-18.23952-7.65855-6.91421-16.67045-12.123-24.39005-18.98563a128.28388,128.28388,0,0,1-33.056-46.63323A126.12931,126.12931,0,0,1,90.12622,122.418c-1.80544-12.462-1.35849-25.11732-3.12881-37.5869-.11262-.79321-1.31724-.45577-1.20535.3323Z"/><path class="cls-3" d="M108.51682,60.09971c-2.62518,12.374-5.27229,24.93586-5.19775,37.64818.07137,12.17075,3.70649,22.66283,7.98093,33.898a98.4096,98.4096,0,0,1,4.60967,17.06308c.9414,4.98551,2.15385,9.88626,5.33585,13.961,6.11293,7.82785,16.26985,10.8208,23.46308,17.39954,4.00633,3.66409,7.08092,8.19246,10.95517,11.98278A43.23444,43.23444,0,0,0,182.20509,204.194c6.52788.52633,13.222-.84337,19.65361.76152,4.90174,1.22313,8.99105,4.2839,13.6998,5.983,4.61546,1.66548,9.00507,1.36,13.65946.05135,5.13075-1.4426,10.28159-4.14366,15.734-3.96754,5.83936.18863,9.65164,4.36163,14.11078,7.51939,3.07124,2.17491,6.48356,3.73081,10.285,2.65244,6.79444-1.92738,12.93027-12.75035,19.59073-3.15439,2.716,3.913,4.40682,7.21271,9.04918,9.16343a16.78481,16.78481,0,0,0,12.05711.36891c.75889-.25425.43349-1.46191-.3323-1.20535a15.60118,15.60118,0,0,1-15.417-2.926c-3.08365-2.75394-4.0125-7.89335-7.79878-9.8727-8.85895-4.63117-14.68283,10.35225-24.17482,5.566-7.26986-3.66575-11.13779-10.37218-20.22148-9.178-4.06231.53405-7.86459,2.17893-11.75031,3.383-6.81777,2.1126-12.17831,1.63876-18.575-1.47312-3.98553-1.93889-7.65968-3.97214-12.12188-4.61336-5.24822-.75417-10.55413.03065-15.82407-.20677-12.24218-.55151-22.82124-6.5455-30.76245-15.64639-3.26266-3.73911-6.33588-7.57247-10.32516-10.58064-3.5075-2.64488-7.38218-4.73207-11.08953-7.07217-4.25553-2.6861-8.41-5.7326-10.9979-10.15885-3.19058-5.45708-3.43293-11.98525-4.84619-18.00131-3.0848-13.13147-10.00072-24.51882-11.02671-38.23816-1.08142-14.46043,1.957-28.85084,4.941-42.91631.16646-.78466-1.03823-1.12-1.20535-.3323Z"/><path class="cls-3" d="M115.88367,53.77038l1.37838,36.35882c.3354,8.84719-1.13039,20.30863,3.36507,28.35,2.52548,4.51753,5.24093,8.19033,6.9793,13.17865a55.979,55.979,0,0,0,5.88429,12.55572,49.897,49.897,0,0,0,17.77746,16.40763c8.42636,4.57653,17.94689,5.64558,26.96568,8.5254,9.60459,3.06688,16.86644,11.3837,26.73734,13.38824,9.4945,1.92811,18.63036-2.0441,27.55208-4.68138,6.41526-1.89636,12.729-2.69,18.96369.22489,4.02986,1.884,7.48949,3.91973,12.10824,3.60425,10.98572-.75039,18.01529-10.7779,27.88739-14.28726,10.79393-3.837,21.9128,3.12715,32.7814-.4047.76181-.24756.43584-1.455-.3323-1.20535-9.31858,3.02816-18.49021-1.78024-27.91287-.72719-8.614.96267-14.78892,7.35413-21.91671,11.57057-5.06627,2.99695-10.81483,4.918-16.6067,2.95786-4.15609-1.40658-7.399-4.04077-11.85773-4.65434-9.27055-1.27571-18.21469,3.795-27.024,5.78836-5.75161,1.30149-11.62388,1.62887-17.19188-.58442-4.43821-1.76421-8.1322-4.79314-12.15042-7.30216-7.85477-4.90459-16.77867-6.33331-25.56734-8.74683a50.45059,50.45059,0,0,1-24.62848-14.67308,47.20668,47.20668,0,0,1-7.48814-11.0632c-2.05079-4.24339-3.01636-8.92682-5.13782-13.12681-2.753-5.45028-6.3862-9.05554-7.088-15.48692-.63586-5.82686-.5531-11.78849-.775-17.64263l-1.45288-38.32416c-.03039-.80184-1.28054-.8058-1.25,0Z"/><path class="cls-3" d="M124.61478,42.4686c-4.50661,5.07315-.61616,12.903,1.09468,18.40035q4.43232,14.24217,9.68441,28.21162c5.70639,15.18,10.7207,30.22459,26.73708,36.98007,16.5348,6.97414,34.81835,5.92446,49.2435,17.88591,6.05613,5.02179,11.68354,9.75355,19.77518,10.80365,7.78761,1.01064,15.71467-1.02588,22.92236-3.83345,9.80419-3.819,19.09459-9.18784,29.56851-11.02695,11.76153-2.06521,23.81047-.06083,35.62767.32292.8046.02613.80368-1.2239,0-1.25-8.81941-.2864-17.6299-1.40821-26.4623-1.17461a65.216,65.216,0,0,0-23.30023,5.13743c-15.26047,6.24717-33.34357,16.90749-49.31515,6.4341-6.28754-4.12307-11.18162-9.771-18.05337-13.06372-6.4926-3.111-13.57888-4.62825-20.58085-6.11018-7.6624-1.6217-15.46381-3.24707-22.45312-6.93042-8.26505-4.35566-13.08112-11.37049-16.6773-19.76833-3.96959-9.26984-7.43642-18.78662-10.71689-28.31931q-2.34853-6.82461-4.50648-13.71272C125.67,56.5628,121.458,47.90117,125.49867,43.35248c.53265-.59961-.34831-1.48678-.88389-.88388Z"/><path class="cls-3" d="M133.874,35.20042c3.49853,14.42285,7.34675,29.18074,15.82731,41.59522,7.38376,10.80892,17.96492,17.889,29.95667,22.83989,7.18183,2.96506,15.17655-.28,22.0247,3.295,5.78582,3.02036,9.66247,8.45631,15.77231,11.11275,12.10415,5.26266,25.43175,2.54929,37.74741-.29337,4.961-1.14508,10.05863-2.27292,15.18137-2.07291,4.74911.18543,8.85653,1.84166,13.301,3.26637a20.98736,20.98736,0,0,0,9.94564,1.187c4.25948-.69263,8.05316-2.863,12.37429-3.3957.78807-.09714.79781-1.34834,0-1.25-3.85638.47539-7.24385,2.14317-10.98036,3.06468-5.717,1.40994-10.51918-.79938-15.843-2.49127-7.84542-2.49326-15.507-1.50338-23.41019.27678-8.59987,1.93708-17.13686,4.00429-26.0267,3.32634a34.68749,34.68749,0,0,1-14.49945-4.10355c-3.61813-2.04613-6.44872-5.05151-9.724-7.55135a18.24478,18.24478,0,0,0-8.5288-3.95574c-4.61954-.67969-9.19513.6807-13.80355-.47661-8.36517-2.10073-18.07234-8.0832-24.28824-13.87275-14.19176-13.21835-19.40575-32.6305-23.82111-50.833-.18954-.78139-1.39523-.4505-1.20535.3323Z"/><path class="cls-3" d="M147.41135,22.98448c1.88423,11.5382,7.39821,21.7466,14.47874,30.92953,6.612,8.5753,14.48373,18.18611,24.12386,23.46534a22.999,22.999,0,0,0,13.80424,2.91622c6.61682-.72332,12.94918-3.41478,18.9511.87269,10.59408,7.56786,16.10638-6.38464,25.87322-7.91654.7924-.12428.456-1.329-.3323-1.20535-3.78719.594-6.60344,2.72485-9.47319,5.14179-3.36251,2.83194-7.08751,6.049-11.78527,4.69829-2.62207-.7539-4.257-2.65806-6.74322-3.66866-3.54622-1.44145-7.448-.75616-11.08568-.09948-6.73554,1.2159-12.37181,1.55935-18.578-1.8183-9.42838-5.13129-17.24066-14.70134-23.71423-23.08682-7.0014-9.06918-12.451-19.15295-14.31393-30.561-.12932-.79194-1.33406-.45592-1.20534.3323Z"/><path class="cls-3" d="M223.82181,64.70487c6.417,16.13561,13.71517,32.19342,18.91971,48.76995,5.07787,16.17312,4.50527,33.33261,8.96037,49.61446,4.42417,16.16884,14.37556,30.23741,19.8772,46.05064a158.5539,158.5539,0,0,1,8.7052,52.066.62537.62537,0,0,0,1.25,0,159.466,159.466,0,0,0-8.15579-50.66122c-5.34141-15.92324-15.17378-30.01015-19.9781-46.05825-4.84266-16.17614-4.11931-33.41009-8.924-49.61775C239.37526,97.6613,231.6536,81.0348,225.02716,64.37257c-.29373-.73858-1.50315-.41652-1.20535.3323Z"/><path class="cls-3" d="M255.68368,77.63951c8.98672,7.08418,13.25435,20.44389,17.09886,30.7878,4.09445,11.01638,7.51036,22.27468,11.759,33.23512,3.95549,10.20424,9.02344,19.772,14.24494,29.37147,5.85547,10.76493,11.28513,21.95245,18.06971,32.16952.443.66709,1.526.04182,1.07934-.6309C310.977,192.09345,305.4178,180.61,299.41218,169.56905a246.72571,246.72571,0,0,1-15.57044-33.31242c-4.02944-11.03662-7.45906-22.28932-11.79031-33.21606-3.62965-9.15675-7.50939-19.99871-15.48387-26.28494-.625-.49269-1.51549.386-.88388.88388Z"/></svg>