<svg id="Layer_1" data-name="Layer 1" xmlns="http://www.w3.org/2000/svg" viewBox="0 0 517 517"><defs><style>.cls-1{fill:#929497;}.cls-2{fill:#fff;}.cls-3{fill:#231f20;}.cls-4{fill:#58595b;}.cls-5{fill:#93278f;}.cls-6{fill:#bbbdbf;}.cls-7{fill:#bcbdbf;}</style></defs><title>fish 2</title><path class="cls-1" d="M118.27373,329.34074s155.46926-127.21967,298.86463,0c0,0,47.81255-26.668,56.69485-22.73341s-27.8409,48.96427-27.8409,48.96427,41.96937,22.29624,38.47193,31.477-66.45152-14.86416-66.45152-14.86416S196.6963,433.827,118.27373,329.34074Z"/><circle class="cls-2" cx="172.61968" cy="320.56714" r="10.95413"/><circle class="cls-3" cx="172.61968" cy="320.56714" r="6.26966"/><path class="cls-4" d="M219.77936,340.56529a11.40245,11.40245,0,0,1,5.35165,4.94409,4.63925,4.63925,0,0,1-.1677,5.28073,6.93213,6.93213,0,0,0-.96189,1.88788.62553.62553,0,0,0,1.20535.3323c.385-1.4222,1.65163-2.26413,1.95313-3.72555a6.24553,6.24553,0,0,0-.60963-3.71043,12.42174,12.42174,0,0,0-6.14-6.08836c-.72229-.345-1.35722.73238-.6309,1.07934Z"/><path class="cls-4" d="M219.84945,340.3009c11.29144-2.29658,21.74854-6.97763,32.19966-11.68432,7.06377-3.18119,36.04887-18.66184,38.3752-4.31024,1.08709,6.7064-4.57847,11.77217-9.05336,15.88972A144.00113,144.00113,0,0,1,265.769,352.75228c-5.98572,4.13415-11.31521,4.433-18.27125,3.56543-7.51624-.93746-15.00641-2.061-22.47625-3.31322-.78688-.13191-1.12515,1.07244-.3323,1.20535,8.20144,1.37486,16.43691,2.653,24.70156,3.59156,7.58623.86151,12.26486-.56279,18.44224-4.9857a137.90211,137.90211,0,0,0,17.411-14.56488c3.60653-3.61742,7.05576-7.97143,6.56449-13.38931-1.27632-14.07588-20.28519-5.76767-27.64019-2.839-14.83764,5.90823-28.862,13.86163-44.6512,17.073-.78771.16021-.45432,1.36534.3323,1.20535Z"/><path class="cls-4" d="M224.0474,343.37016l50.45335-18.71478c.74769-.27734.42424-1.486-.3323-1.20535L223.7151,342.16481c-.74769.27734-.42424,1.486.3323,1.20535Z"/><path class="cls-4" d="M226.27685,345.33757q22.54971-5.988,44.83835-12.88869c.76605-.23718.4392-1.44421-.3323-1.20535q-22.28745,6.90039-44.83835,12.88869a.62553.62553,0,0,0,.3323,1.20535Z"/><path class="cls-4" d="M226.60013,348.04789c6.76507-1.40394,13.6388-2.12949,20.38494-3.647,6.79028-1.52747,13.51732-3.35326,20.26028-5.07436a.62554.62554,0,0,0-.3323-1.20535c-6.74281,1.72106-13.4702,3.54694-20.26028,5.07436-6.74577,1.51746-13.62008,2.24314-20.38494,3.647-.78715.16336-.454,1.36853.3323,1.20535Z"/><path class="cls-4" d="M226.04,351.26115c5.57209.0083,11.07691.63857,16.64375.06337,5.707-.58967,11.317-1.75068,17.07193-1.86365a.62538.62538,0,0,0,0-1.25c-5.767.1132-11.34941,1.27915-17.07193,1.86365-5.56757.56868-11.0708-.05506-16.64375-.06337a.62537.62537,0,0,0,0,1.25Z"/><path class="cls-5" d="M258.5,516.5058c-142.5,0-258-115.5-258-258a257.961,257.961,0,0,1,75.6-182.4c100.8-100.8,264.1-100.8,364.9,0s100.8,264.1,0,364.9A256.49776,256.49776,0,0,1,258.5,516.5058Z"/><path class="cls-2" d="M258.5,1.0058c142.3.1,257.5,115.5,257.4,257.7a257.624,257.624,0,0,1-157.2,237c-131.1,55.3-282.1-6.2-337.4-137.3-55.2-130.9,6.1-281.9,136.9-337.3a258.099,258.099,0,0,1,100.3-20.1m0-1c-142.8,0-258.5,115.7-258.5,258.5s115.7,258.5,258.5,258.5,258.5-115.7,258.5-258.5S401.3.0058,258.5.0058Z"/><path class="cls-2" d="M92.77734,222.8042h12.74854c6.52734,0,11.01514,3.6206,11.01514,9.94385,0,6.42529-4.43653,10.19922-11.37207,10.19922H95.582v15.55322H92.77734ZM95.582,240.39746h9.8418c5.76269,0,8.15918-3.06006,8.15918-7.54736,0-4.79346-3.16162-7.4961-7.95508-7.4961H95.582Z"/><path class="cls-2" d="M141.07227,251.05518c0,2.499.05127,6.47656.05127,7.44531h-2.44776a40.97867,40.97867,0,0,1-.15283-4.43653c-1.07129,3.00879-3.67188,5.04834-8.21045,5.04834-3.67139,0-8.36328-1.42773-8.36328-9.23V233.00293h2.499v16.26758c0,3.72265,1.17285,7.34326,6.22119,7.34326,5.71143,0,7.85352-3.21289,7.85352-10.50488v-13.106h2.54932Z"/><path class="cls-2" d="M149.13232,251.46338c.8667,3.31445,3.21241,5.30322,7.24122,5.30322,4.53857,0,6.37451-2.09082,6.37451-4.94629,0-2.90674-1.22412-4.33447-6.93555-5.71142-6.57812-1.58106-8.21-3.56983-8.21-6.93555,0-3.51855,2.65137-6.78223,8.41406-6.78223,5.76221,0,8.51611,3.51856,8.92383,7.13916h-2.54932c-.459-2.1416-2.14209-4.79345-6.47656-4.79345-4.43652,0-5.71142,2.19287-5.71142,4.23242,0,2.34619,1.22412,3.519,6.27246,4.74267,7.19043,1.73389,8.97509,4.07959,8.97509,7.9043,0,4.64063-3.77392,7.49609-9.12793,7.49609-5.81347,0-9.07714-3.05957-9.791-7.64892Z"/><path class="cls-2" d="M173.918,220.91748v16.36914a8.893,8.893,0,0,1,8.41406-4.89551c3.62061,0,8.61817,1.83594,8.61817,9.89307v16.21631h-2.54981V242.794c0-5.04834-2.29492-7.9043-6.52734-7.9043-5.04834,0-7.95508,3.11084-7.95508,9.3833v14.22754h-2.54981v-37.583Z"/><path class="cls-2" d="M199.31543,220.91748h2.5498v4.94629h-2.5498Zm0,12.08545h2.5498v25.49756h-2.5498Z"/><path class="cls-2" d="M210.229,239.42822c0-2.24365,0-4.38525-.05127-6.42529h2.499c.102.81592.15283,4.13086.102,4.84473,1.12158-2.60108,3.2124-5.45655,8.46484-5.45655,4.53858,0,8.56739,2.54981,8.56739,9.58692v16.52246h-2.54981V242.38623c0-4.53857-1.88672-7.49658-6.32324-7.49658-6.06836,0-8.15918,5.04883-8.15918,10.60693v13.00391H210.229Z"/><path class="cls-2" d="M257.65625,256.7666c0,8.15918-3.62061,12.44238-11.01465,12.44238-6.62939,0-9.3833-3.72265-9.99512-7.59765h2.60059c.918,3.51855,3.82471,5.20117,7.49609,5.20117,6.6294,0,8.46534-4.2832,8.46534-10.75977v-2.65185c-1.377,3.31494-3.87549,5.09961-8.51612,5.09961-5.96631,0-10.55615-4.84473-10.55615-12.74854,0-8.56738,4.89551-13.36084,10.91309-13.36084,5.20166,0,7.44531,2.44776,8.15918,4.48731.05078-1.47852.10205-3.26367.15283-3.87549h2.397c0,.918-.10205,4.94678-.10205,7.39453Zm-18.81689-11.1167c0,6.06836,3.2124,10.45362,8.10791,10.45362,6.37451,0,8.312-4.23243,8.312-10.86182,0-6.73145-2.03955-10.45361-8.15918-10.45361C241.23584,234.78809,238.83936,239.83643,238.83936,245.6499Z"/><path class="cls-2" d="M278.61914,233.00293c4.13086,11.67773,6.98633,19.6333,7.95508,22.897h.05078c.56152-1.88672,3.417-9.48535,8.36328-22.897h2.70313l-9.63868,25.49756h-3.05957L275.916,233.00293Z"/><path class="cls-2" d="M319.72363,253.65576a29.23337,29.23337,0,0,0,.35645,4.84473h-2.44727a16.72339,16.72339,0,0,1-.459-3.92676c-.86719,1.88672-3.11133,4.53857-8.36328,4.53857-5.915,0-8.46485-3.8247-8.46485-7.64892,0-5.60938,4.334-8.15918,11.9834-8.15918h4.84473v-2.60107c0-2.54981-.76563-5.96631-6.57813-5.96631-5.15136,0-5.916,2.70263-6.47656,4.79345h-2.5498c.30566-2.80468,2.04-7.13916,9.07714-7.13916,5.81348,0,9.07715,2.44776,9.07715,8.05713Zm-2.499-8.15918h-4.99707c-5.66113,0-9.17969,1.479-9.17969,5.86475,0,3.2124,2.29492,5.40527,5.86426,5.40527,7.293,0,8.3125-4.84424,8.3125-10.352Z"/><path class="cls-2" d="M328.14063,239.93848c0-4.28369-.05176-6.11963-.05176-6.93555h2.499c.05078.81592.10254,2.44775.10254,5.71143a9.65893,9.65893,0,0,1,8.87305-6.32325V235.145c-5.30371.35693-8.87305,4.02832-8.87305,10.09668v13.25879h-2.5498Z"/><path class="cls-2" d="M344.25586,220.91748h2.5498v4.94629h-2.5498Zm0,12.08545h2.5498v25.49756h-2.5498Z"/><path class="cls-2" d="M375.82227,245.70068c0,7.08838-3.92676,13.41162-11.52539,13.41162-6.88379,0-11.168-5.66015-11.168-13.36035,0-7.29248,4.02929-13.36084,11.42285-13.36084C371.335,232.39111,375.82227,237.69482,375.82227,245.70068ZM355.832,245.752c0,6.06836,3.26367,10.96387,8.669,10.96387,5.50781,0,8.61816-4.53857,8.61816-10.96387,0-6.01757-3.05957-10.96386-8.71973-10.96386C358.58594,234.78809,355.832,239.63232,355.832,245.752Z"/><path class="cls-2" d="M401.21973,251.05518c0,2.499.05078,6.47656.05078,7.44531h-2.44727a40.80479,40.80479,0,0,1-.15332-4.43653c-1.07129,3.00879-3.67187,5.04834-8.21,5.04834-3.67187,0-8.36328-1.42773-8.36328-9.23V233.00293h2.499v16.26758c0,3.72265,1.17285,7.34326,6.22071,7.34326,5.71191,0,7.85351-3.21289,7.85351-10.50488v-13.106h2.54981Z"/><path class="cls-2" d="M409.2793,251.46338c.86718,3.31445,3.21289,5.30322,7.24121,5.30322,4.53906,0,6.375-2.09082,6.375-4.94629,0-2.90674-1.22461-4.33447-6.93555-5.71142-6.57812-1.58106-8.21-3.56983-8.21-6.93555,0-3.51855,2.65137-6.78223,8.41406-6.78223,5.76172,0,8.51563,3.51856,8.92383,7.13916h-2.5498c-.459-2.1416-2.14161-4.79345-6.47657-4.79345-4.43652,0-5.71093,2.19287-5.71093,4.23242,0,2.34619,1.22363,3.519,6.27246,4.74267,7.19043,1.73389,8.97461,4.07959,8.97461,7.9043,0,4.64063-3.77344,7.49609-9.12793,7.49609-5.81348,0-9.07715-3.05957-9.791-7.64892Z"/><path class="cls-2" d="M137.98975,319.7002V296.59961H133.604v-2.39648h4.38575V290.582c0-4.2832,1.22363-8.97461,6.93505-8.97461a9.52737,9.52737,0,0,1,2.499.35645v2.44824a12.6566,12.6566,0,0,0-2.75391-.30566c-3.00879,0-4.13086,2.1416-4.13086,6.57812v3.51856h5.5586v2.39648h-5.5586V319.7002Z"/><path class="cls-2" d="M150.78955,282.11719h2.54981v4.94629h-2.54981Zm0,12.08594h2.54981V319.7002h-2.54981Z"/><path class="cls-2" d="M161.44824,312.66309c.8667,3.31445,3.2124,5.30371,7.24121,5.30371,4.53858,0,6.37451-2.09082,6.37451-4.94629,0-2.90723-1.22412-4.335-6.93554-5.71192-6.57813-1.58105-8.21-3.56933-8.21-6.93554,0-3.51856,2.65185-6.78223,8.41406-6.78223s8.51611,3.51856,8.92432,7.13965H174.707c-.459-2.1416-2.14209-4.794-6.47656-4.794-4.43652,0-5.71143,2.19336-5.71143,4.23243,0,2.34668,1.22412,3.51953,6.27246,4.74316,7.19043,1.7334,8.9751,4.0791,8.9751,7.9043,0,4.64062-3.77344,7.49609-9.12793,7.49609-5.81347,0-9.07715-3.05957-9.791-7.64941Z"/><path class="cls-2" d="M186.23389,282.11719v16.36914a8.89374,8.89374,0,0,1,8.41406-4.89551c3.6206,0,8.61816,1.83594,8.61816,9.89356V319.7002h-2.5498V303.99414c0-5.04883-2.29492-7.9043-6.52735-7.9043-5.04833,0-7.95507,3.11036-7.95507,9.38282V319.7002h-2.54981v-37.583Z"/><path class="cls-2" d="M224.89111,312.66309c.8667,3.31445,3.21241,5.30371,7.24121,5.30371,4.53858,0,6.37452-2.09082,6.37452-4.94629,0-2.90723-1.22413-4.335-6.93555-5.71192-6.57813-1.58105-8.21-3.56933-8.21-6.93554,0-3.51856,2.65137-6.78223,8.41406-6.78223,5.76221,0,8.51611,3.51856,8.92383,7.13965H238.1499c-.459-2.1416-2.14209-4.794-6.47656-4.794-4.43652,0-5.71143,2.19336-5.71143,4.23243,0,2.34668,1.22413,3.51953,6.27247,4.74316,7.19042,1.7334,8.97509,4.0791,8.97509,7.9043,0,4.64062-3.77392,7.49609-9.12793,7.49609-5.81347,0-9.07715-3.05957-9.791-7.64941Z"/><path class="cls-2" d="M249.72754,315.92676v13.97265h-2.54981V300.47559c0-2.09082,0-4.335-.05127-6.27246h2.499c.102.96875.102,2.499.102,4.58984,1.58057-3.06055,4.38525-5.20215,8.9751-5.20215,6.01709,0,10.19873,5.04883,10.19873,12.69824,0,9.17871-4.89551,14.02344-11.06592,14.02344C253.34814,320.3125,251.00244,318.32324,249.72754,315.92676Zm16.47168-9.53613c0-5.915-2.85547-10.35157-7.90479-10.35157-6.17041,0-8.72021,3.875-8.72021,10.81055,0,6.833,1.98926,11.06641,8.36328,11.06641C263.24121,317.916,266.19922,313.42773,266.19922,306.39063Z"/><path class="cls-2" d="M276.14551,307.25781c.05078,6.57813,3.36621,10.65821,8.26172,10.65821,4.793,0,6.4248-2.70313,7.34277-4.79395h2.60059c-1.07032,3.36523-3.77344,7.19043-10.0459,7.19043-7.751,0-10.75977-6.68066-10.75977-13.15723,0-7.292,3.62012-13.56445,11.06543-13.56445,7.85352,0,10.35254,6.78223,10.35254,11.57617,0,.71387,0,1.42774-.05078,2.09082Zm16.165-2.24414c-.05078-5.04785-2.80469-9.02539-7.80176-9.02539-5.25293,0-7.64941,3.6709-8.21,9.02539Z"/><path class="cls-2" d="M320.207,312.2041c-1.22363,4.48731-4.18164,8.1084-9.89258,8.1084-6.375,0-10.91308-4.74219-10.91308-13.25879,0-6.98633,3.72265-13.46289,11.21875-13.46289,6.47656,0,9.12793,4.58984,9.58691,8.15918h-2.60058c-.76465-2.957-2.70313-5.76172-7.03711-5.76172-5.40528,0-8.46485,4.58887-8.46485,10.96387,0,6.06836,2.85547,10.96387,8.21,10.96387,3.72266,0,5.96582-1.8877,7.292-5.71192Z"/><path class="cls-2" d="M326.78711,282.11719h2.5498v4.94629h-2.5498Zm0,12.08594h2.5498V319.7002h-2.5498Z"/><path class="cls-2" d="M338.26172,307.25781c.05078,6.57813,3.36523,10.65821,8.26074,10.65821,4.79395,0,6.42578-2.70313,7.34375-4.79395h2.60059c-1.07129,3.36523-3.77442,7.19043-10.0459,7.19043-7.752,0-10.76074-6.68066-10.76074-13.15723,0-7.292,3.62109-13.56445,11.0664-13.56445,7.85352,0,10.35157,6.78223,10.35157,11.57617,0,.71387,0,1.42774-.05079,2.09082Zm16.165-2.24414c-.05078-5.04785-2.80469-9.02539-7.80274-9.02539-5.25195,0-7.64843,3.6709-8.21,9.02539Z"/><path class="cls-2" d="M363.91406,312.66309c.86719,3.31445,3.21289,5.30371,7.24121,5.30371,4.53907,0,6.375-2.09082,6.375-4.94629,0-2.90723-1.22461-4.335-6.93554-5.71192-6.57813-1.58105-8.21-3.56933-8.21-6.93554,0-3.51856,2.65136-6.78223,8.41406-6.78223,5.76172,0,8.51562,3.51856,8.92383,7.13965h-2.54981c-.459-2.1416-2.1416-4.794-6.47656-4.794-4.43652,0-5.71094,2.19336-5.71094,4.23243,0,2.34668,1.22363,3.51953,6.27246,4.74316,7.19043,1.7334,8.97461,4.0791,8.97461,7.9043,0,4.64062-3.77344,7.49609-9.12793,7.49609-5.81347,0-9.07715-3.05957-9.791-7.64941Z"/><path class="cls-2" d="M126.43848,355.40234h4.74267v-7.95507H133.731v7.95507h6.06836v2.39746H133.731v16.57325c0,2.85547.61181,4.4873,3.05957,4.4873a9.645,9.645,0,0,0,2.65185-.30566v2.24316a8.94577,8.94577,0,0,1-3.16211.459c-3.26367,0-5.09912-1.63184-5.09912-5.71094V357.7998h-4.74267Z"/><path class="cls-2" d="M165.34863,368.10059c0,7.08789-3.92675,13.41113-11.5249,13.41113-6.88428,0-11.168-5.66016-11.168-13.36035,0-7.292,4.02881-13.36035,11.42285-13.36035C160.86133,354.791,165.34863,360.09375,165.34863,368.10059Zm-19.98974.05078c0,6.06836,3.26367,10.96386,8.66894,10.96386,5.50733,0,8.61817-4.53808,8.61817-10.96386,0-6.01758-3.05957-10.96387-8.72022-10.96387C148.1123,357.1875,145.35889,362.03223,145.35889,368.15137Z"/><path class="cls-2" d="M185.49512,368.457c.05078,6.5791,3.36572,10.6582,8.26123,10.6582,4.79345,0,6.42529-2.70312,7.34326-4.793h2.60059c-1.07081,3.36523-3.77344,7.18945-10.0459,7.18945-7.75147,0-10.76026-6.67969-10.76026-13.15625,0-7.292,3.62061-13.56445,11.06592-13.56445,7.85352,0,10.352,6.78222,10.352,11.57519,0,.71387,0,1.42871-.05078,2.09082Zm16.165-2.24316c-.05078-5.04883-2.80469-9.02637-7.80225-9.02637-5.25244,0-7.64893,3.67188-8.21,9.02637Z"/><path class="cls-2" d="M210.38281,355.40234c4.23242,6.27246,6.06836,9.07715,7.08838,10.60743h.05078c1.22412-1.73438,3.77393-5.40528,7.44532-10.60743H227.874l-8.873,12.34082,9.02588,13.15723h-3.05957c-3.67139-5.457-6.32325-9.332-7.54737-11.11719h-.05078c-.96875,1.47852-3.26367,4.94629-7.44531,11.11719h-2.95752l9.02588-12.95312L207.374,355.40234Z"/><path class="cls-2" d="M230.32324,355.40234h4.74268v-7.95507h2.5498v7.95507h6.06836v2.39746h-6.06836v16.57325c0,2.85547.61182,4.4873,3.05957,4.4873a9.64506,9.64506,0,0,0,2.65186-.30566v2.24316a8.9458,8.9458,0,0,1-3.16211.459c-3.26367,0-5.09912-1.63184-5.09912-5.71094V357.7998h-4.74268Z"/><path class="cls-2" d="M248.88623,343.31738H251.436v4.94629h-2.54981Zm0,12.085H251.436v25.49805h-2.54981Z"/><path class="cls-2" d="M259.7998,361.82813c0-2.24415,0-4.38575-.05078-6.42579h2.499c.10156.81641.15234,4.13086.10156,4.84473,1.12207-2.60059,3.21289-5.45605,8.46484-5.45605,4.53907,0,8.56739,2.5498,8.56739,9.58691v16.52246H276.832V364.78613c0-4.53906-1.88672-7.49707-6.32324-7.49707-6.06836,0-8.15918,5.04883-8.15918,10.60742v13.00391H259.7998Z"/><path class="cls-2" d="M306.51367,373.4043c-1.22461,4.4873-4.18164,8.10742-9.89355,8.10742-6.374,0-10.91309-4.74219-10.91309-13.25879,0-6.98535,3.72266-13.46191,11.21973-13.46191,6.47558,0,9.12793,4.58886,9.58691,8.15918h-2.60058c-.76563-2.958-2.70313-5.7627-7.03809-5.7627-5.40527,0-8.46484,4.58984-8.46484,10.96387,0,6.06836,2.85547,10.96386,8.21,10.96386,3.72265,0,5.96679-1.88671,7.293-5.71093Z"/><path class="cls-2" d="M309.21777,355.40234h4.74317v-7.95507h2.5498v7.95507h6.06836v2.39746h-6.06836v16.57325c0,2.85547.61133,4.4873,3.05957,4.4873a9.63952,9.63952,0,0,0,2.65137-.30566v2.24316a8.9458,8.9458,0,0,1-3.16211.459c-3.26367,0-5.09863-1.63184-5.09863-5.71094V357.7998h-4.74317Z"/><path class="cls-2" d="M327.78125,343.31738h2.5498v4.94629h-2.5498Zm0,12.085h2.5498v25.49805h-2.5498Z"/><path class="cls-2" d="M359.34766,368.10059c0,7.08789-3.92676,13.41113-11.52539,13.41113-6.88379,0-11.168-5.66016-11.168-13.36035,0-7.292,4.02929-13.36035,11.42285-13.36035C354.86035,354.791,359.34766,360.09375,359.34766,368.10059Zm-19.99024.05078c0,6.06836,3.26367,10.96386,8.66895,10.96386,5.50781,0,8.61816-4.53808,8.61816-10.96386,0-6.01758-3.05957-10.96387-8.71973-10.96387C342.11133,357.1875,339.35742,362.03223,339.35742,368.15137Z"/><path class="cls-2" d="M365.67285,361.82813c0-2.24415,0-4.38575-.05078-6.42579h2.499c.10157.81641.15235,4.13086.10157,4.84473,1.12207-2.60059,3.21289-5.45605,8.46484-5.45605,4.53906,0,8.56738,2.5498,8.56738,9.58691v16.52246h-2.5498V364.78613c0-4.53906-1.88672-7.49707-6.32324-7.49707-6.06836,0-8.15918,5.04883-8.15918,10.60742v13.00391h-2.54981Z"/><path class="cls-6" d="M172.63292,163.08653c-14.39751.40561-28.71608-3.49568-41.62065-9.89293s-24.4751-15.2301-35.09686-24.958l-.48816-1.57194C105.75991,112.899,118.09209,100.329,133.09592,91.8959c3.67495-2.06555,7.49167-3.87336,11.13719-5.99042a150.88667,150.88667,0,0,0,15.38078-10.729l.77965-.16382c7.73738,12.376,13.80134,26.02165,15.85612,40.47189,2.16637,15.235-.17686,30.70952-2.51673,45.91882"/><path class="cls-7" d="M172.63292,160.58653c-14.95992.23614-29.46145-3.80957-42.66578-10.7319a132.95446,132.95446,0,0,1-16.7962-10.55856c-3.085-2.26006-6.07652-4.64376-8.99778-7.1112-1.35483-1.14437-6.23854-4.07758-6.20865-5.77822-.01824,1.0375,2.95987-2.77857,3.33156-3.23746q1.57687-1.94682,3.21209-3.84559,2.9986-3.47755,6.20719-6.7655a112.26869,112.26869,0,0,1,15.22584-13.16331c5.70122-4.041,11.89555-7.05393,17.98179-10.4406a101.58008,101.58008,0,0,0,9.4242-6.01189c2.0502-1.45677,5.315-5.0155,7.711-5.519l-2.82327-1.1489c7.24832,11.74456,13.089,24.43652,15.33842,38.14456,2.52353,15.37844.08852,31.08548-2.25106,46.31976-.48342,3.14784,4.33374,4.50464,4.8214,1.3292,2.39649-15.60488,4.81834-31.47783,2.51673-47.248-2.152-14.74506-8.33446-28.47329-16.10814-41.06909A2.5846,2.5846,0,0,0,159.729,72.602c-2.766.58118-5.12278,3.27971-7.38335,4.92433a108.90038,108.90038,0,0,1-10.94622,7.11054C134.31324,88.5929,127.24625,92.125,120.74047,97.042A124.62181,124.62181,0,0,0,104.30559,112.047q-3.96217,4.29761-7.58951,8.889c-1.56441,1.97051-3.98655,3.94133-3.63625,6.59612.32521,2.46463,2.5651,3.8449,4.28437,5.36q4.545,4.00536,9.32571,7.727a142.082,142.082,0,0,0,19.23038,12.73969c14.36685,7.80408,30.29046,12.48693,46.71263,12.2277,3.21427-.05074,3.224-5.05089,0-5Z"/><path class="cls-6" d="M178.13074,114.10763q11.77413.33716,23.54272-.50379c6.4326-.4602,12.84634-1.18465,19.28715-1.51061,4.47318-.22638,8.95361-.26025,13.43238-.29407l118.00307-.89108"/><path class="cls-7" d="M178.13074,119.10763c14.38629.3519,28.498-1.297,42.82987-2.0144,14.60182-.73094,29.29893-.41388,43.91651-.52427l87.51894-.66088c6.43206-.04857,6.44692-10.04868,0-10l-87.51894.66088c-14.30215.108-28.66835-.16338-42.95776.48137-14.65274.66115-29.08234,2.417-43.78862,2.0573-6.43745-.15747-6.43453,9.8426,0,10Z"/><path class="cls-6" d="M354.46452,109.33016c18.734-16.38673,38.15845-33.17572,61.80655-40.938l.61288-.37412c-2.44146,12.57134-8.8241,23.97386-15.11363,35.12918l-4.7991,8.51185-.13171.00978a367.36382,367.36382,0,0,1,24.73324,45.05387l-1.90142.52292c-15.87927-7.57947-30.31414-17.82175-44.65929-28.01078l-21.08556-14.9766"/><path class="cls-7" d="M355.79035,110.656c9.92714-8.67978,19.897-17.37272,30.76763-24.86875a140.72906,140.72906,0,0,1,15.89837-9.578c4.889-2.49379,10.7574-3.75405,15.374-6.57216l-2.75437-2.11745A90.09538,90.09538,0,0,1,406.85557,89.889c-1.58872,3.1271-3.27933,6.20082-4.98965,9.26264q-1.32951,2.3801-2.67443,4.75155c-.25838.45839-3.71233,5.99159-2.352,5.89061a1.895,1.895,0,0,0-1.619,2.82135,380.56394,380.56394,0,0,1,24.73323,45.05387l1.12056-2.75437c-2.17808.599-4.15557-1.1-6.14414-2.146q-4.424-2.32709-8.71978-4.887c-5.74127-3.4062-11.32311-7.07376-16.82975-10.84528-11.6206-7.959-23.02512-16.24125-34.5078-24.39713-1.97119-1.40009-3.84625,1.85044-1.89269,3.238,12.47089,8.8578,24.83335,17.90068,37.522,26.44577,6.03551,4.06458,12.18421,7.97253,18.54023,11.51921,3.9659,2.213,8.40305,5.96064,13.02883,4.6885a1.90512,1.90512,0,0,0,1.12056-2.75437,380.56391,380.56391,0,0,0-24.73324-45.05388l-1.619,2.82135c2.51453-.18666,3.59518-4.20983,4.63018-6.04554,2.50419-4.44152,5.03962-8.86831,7.41308-13.38172,4.28168-8.14214,7.91957-16.56357,9.8092-25.60011A1.89839,1.89839,0,0,0,415.9376,66.399c-2.35707,1.43884-5.50765,2.08567-8.06839,3.16719q-4.10154,1.73228-8.05518,3.78748a144.576,144.576,0,0,0-16.54115,10.1657c-10.59659,7.4555-20.39119,15.96618-30.13418,24.48494-1.82022,1.5915.841,4.23478,2.65165,2.65165Z"/><path class="cls-6" d="M187.7637,112.72575a235.76245,235.76245,0,0,1,12.85381-40.7281l.22358.35151c-2.06209,1.75574-3.29268,4.27118-4.46673,6.71177-4.27616,8.88923-8.55524,17.785-12.28836,26.9156a12.923,12.923,0,0,0-1.34339,5.7372"/><path class="cls-7" d="M189.57172,113.2242a245.95709,245.95709,0,0,1,12.85381-40.7281l-3.427.4479.22358.35151.29318-2.27217c-5.326,5.29922-7.99881,13.73289-11.10773,20.45853-2.81465,6.089-7.34632,13.41036-7.53992,20.23186-.06851,2.414,3.68155,2.412,3.75,0,.19-6.696,5.017-14.03385,7.80758-20.01647,2.72752-5.84744,5.10881-13.41262,9.74172-18.02227a1.90428,1.90428,0,0,0,.29319-2.27217l-.22358-.35152a1.90294,1.90294,0,0,0-3.427.4479,245.956,245.956,0,0,0-12.85382,40.7281c-.52306,2.3512,3.09137,3.35535,3.61605.9969Z"/><path class="cls-6" d="M188.45436,115.88724a90.55047,90.55047,0,0,0,9.0588,40.6405l1.23432,2.47478A78.416,78.416,0,0,1,182.43785,116.879"/><path class="cls-7" d="M186.57936,115.88724a97.0783,97.0783,0,0,0,10.54911,44.06163l3.238-1.8927A78.65983,78.65983,0,0,1,184.31285,116.879c-.20652-2.38607-3.95841-2.40793-3.75,0a82.09185,82.09185,0,0,0,16.56562,43.06989,1.87655,1.87655,0,0,0,3.238-1.8927,92.77742,92.77742,0,0,1-10.03713-42.16893c.00826-2.41328-3.74173-2.41656-3.75,0Z"/><path class="cls-6" d="M209.10337,110.58568C209.1605,104.334,211.3185,98.316,213.45,92.4386c2.85972-7.88552,5.73922-15.81438,9.88153-23.10825l-.04276.70713c.27314,1.2143-1.203,1.97306-2.19392,2.72624a9.40967,9.40967,0,0,0-2.05051,2.464A225.70641,225.70641,0,0,0,206.70846,96.65c-2.11579,4.18943-4.14209,8.61629-4.18017,13.30953"/><path class="cls-7" d="M210.97837,110.58568c.3075-7.363,2.99561-14.18781,5.51-21.02882A137.81573,137.81573,0,0,1,224.9505,70.2767l-3.494-.94635c-.08743,1.4459-4.12427,5.1034-5.06273,6.54956-2.58766,3.98758-4.99711,8.09974-7.299,12.25775-3.77709,6.82263-7.96926,13.87012-8.44144,21.82182-.14315,2.41062,3.60735,2.40227,3.75,0,.53907-9.0782,6.70234-18.0556,11.23827-25.7073a73.02864,73.02864,0,0,1,7.849-10.93434,5.62053,5.62053,0,0,0,1.716-3.98749c.11333-1.874-2.61926-2.52961-3.494-.94635a144.208,144.208,0,0,0-8.84012,20.176c-2.64369,7.19309-5.32108,14.29345-5.644,22.02572-.10077,2.41308,3.64942,2.40838,3.75,0Z"/><path class="cls-6" d="M209.1578,114.8998a118.35942,118.35942,0,0,0,11.64168,43.67987l-1.72827-.48259c-2.25195-1.39744-3.70654-3.75633-4.979-6.0812a94.50312,94.50312,0,0,1-11.18471-36.77146"/><path class="cls-7" d="M207.2828,114.8998A124.92438,124.92438,0,0,0,219.18047,159.526l2.11746-2.75437c-6.03328-1.68472-9.66133-13.72457-11.49822-18.88984a95.6844,95.6844,0,0,1-5.01718-22.63739c-.23686-2.379-3.9893-2.4035-3.75,0a99.12457,99.12457,0,0,0,7.05725,28.55508c2.474,5.91475,5.38312,14.68153,12.21125,16.5882a1.89844,1.89844,0,0,0,2.11746-2.75437A119.80784,119.80784,0,0,1,211.0328,114.8998c-.181-2.39139-3.93244-2.411-3.75,0Z"/><path class="cls-6" d="M231.16694,108.66926c-.47735-4.08457.98958-8.12,2.46317-11.95926q4.89773-12.76045,10.25578-25.33781l.91268-1.67587-10.922,16.54488c-4.661,7.06061-9.48163,14.59848-9.78627,23.05332"/><path class="cls-7" d="M233.04194,108.66926c-.37036-7.0958,3.38271-14.10348,5.95347-20.55252,2.32151-5.82375,4.423-11.96689,7.42217-17.47407a1.87644,1.87644,0,0,0-3.238-1.8927c-8.0436,12.18469-19.88223,25.37614-20.96421,40.54455-.17177,2.40811,3.579,2.3973,3.75,0,.53123-7.44737,4.16176-13.83077,8.13289-19.97229,4.04948-6.26269,8.21065-12.4556,12.31934-18.67956l-3.238-1.8927c-3.15916,5.80087-5.35751,12.24173-7.8002,18.36987-2.72441,6.83494-6.48065,14.01548-6.08742,21.54942.12532,2.401,3.8761,2.4158,3.75,0Z"/><path class="cls-6" d="M230.36661,114.26066a141.11884,141.11884,0,0,0,13.17859,48.463l-1.95777-2.6847a77.93047,77.93047,0,0,1-18.01128-45.81053"/><path class="cls-7" d="M228.49161,114.26066A148.15154,148.15154,0,0,0,241.92619,163.67l3.238-1.8927c-4.45834-6.11373-9.02395-11.91074-12.33293-18.77826a77.09335,77.09335,0,0,1-7.38013-28.77062c-.148-2.39741-3.899-2.41419-3.75,0a82.09465,82.09465,0,0,0,6.50714,27.6252c3.49384,8.09232,8.57586,14.76509,13.7179,21.81638a1.87652,1.87652,0,0,0,3.238-1.8927,142.80024,142.80024,0,0,1-12.9226-47.51662c-.22128-2.38274-3.97343-2.40589-3.75,0Z"/><path class="cls-6" d="M252.04228,109.95481c.05949-7.37976,3.19756-14.34211,6.2761-21.04935l8.65525-18.8573-.55248.82774a117.75762,117.75762,0,0,0-20.58656,37.6615"/><path class="cls-7" d="M253.91728,109.95481c.28417-7.19746,3.06809-13.63981,6.0201-20.103q4.3101-9.43661,8.65526-18.8573a1.87649,1.87649,0,0,0-3.238-1.8927c-4.03558,6.0462-8.601,11.55871-12.15931,17.95668a124.74951,124.74951,0,0,0-9.16876,20.98046c-.76978,2.293,2.8507,3.27665,3.61605.9969a118.8256,118.8256,0,0,1,9.64088-21.58734c3.35947-5.82822,7.59731-10.89283,11.30915-16.454l-3.238-1.8927c-5.83973,12.72308-14.62227,26.5408-15.18735,40.853-.09528,2.41329,3.65488,2.40907,3.75,0Z"/><path class="cls-6" d="M252.54631,114.27181a233.80081,233.80081,0,0,0,13.91128,46.8851l-1.3844.51275a133.41207,133.41207,0,0,1-19.8266-47.38668"/><path class="cls-7" d="M250.73829,114.77026a242.56371,242.56371,0,0,0,13.91128,46.8851l1.30957-2.30648-1.3844.51276,2.11746.86168a135.723,135.723,0,0,1-19.63759-46.93879c-.49923-2.3597-4.11491-1.36111-3.61605.9969A138.516,138.516,0,0,0,263.45418,162.616a1.91111,1.91111,0,0,0,2.11746.86168l1.3844-.51276a1.89517,1.89517,0,0,0,1.30957-2.30647,242.56456,242.56456,0,0,1-13.91128-46.8851c-.44957-2.3682-4.0645-1.36539-3.616.9969Z"/><path class="cls-6" d="M275.07675,109.28205q3.3311-12.8874,7.5701-25.51709c1.00082-2.98155,2.07987-6.02384,4.10458-8.43047l.19124-.49348c-5.24785,5.65612-8.26094,12.97732-11.09869,20.1522q-2.937,7.42572-5.77728,14.88918"/><path class="cls-7" d="M276.88477,109.7805c1.76226-6.74725,3.67874-13.45052,5.79592-20.09536.89218-2.80014,1.71374-5.67732,2.83321-8.39774.88233-2.14414,2.42123-3.84348,3.23679-5.94794.678-1.74945-1.93567-3.18253-3.13384-1.82427-8.79093,9.96536-12.70445,23.66669-17.35817,35.86875-.86077,2.25694,2.76317,3.23313,3.616.9969,4.4117-11.56747,8.063-24.77019,16.39378-34.214l-3.13385-1.82428c-.68646,1.77133-2.16272,3.38467-2.93214,5.22053-1.241,2.96113-2.1627,6.06887-3.13787,9.12515-2.11985,6.64385-4.0337,13.3483-5.79591,20.09536-.61034,2.33682,3.00571,3.3337,3.616.9969Z"/><path class="cls-6" d="M274.79446,114.90569a265.37036,265.37036,0,0,0,9.67912,41.00316l-.63456-.14454a99.25351,99.25351,0,0,1-14.5753-41.85906"/><path class="cls-7" d="M272.98644,115.40414a277.53479,277.53479,0,0,0,9.67912,41.00316l2.30647-2.30647c-1.091-.24853-3.13874-5.53318-3.76343-6.75228a95.55047,95.55047,0,0,1-4.926-11.37881,100.37792,100.37792,0,0,1-5.14383-22.06449c-.2801-2.36751-4.03344-2.39575-3.75,0a101.675,101.675,0,0,0,11.791,37.61366c1.13915,2.0867,2.23016,5.61364,4.79539,6.198a1.89368,1.89368,0,0,0,2.30647-2.30647,277.53567,277.53567,0,0,1-9.67911-41.00315c-.3737-2.37712-3.9878-1.36785-3.616.99689Z"/><path class="cls-6" d="M298.42505,109.28216c1.18534-5.71492,2.38122-11.46527,4.5599-16.87994a49.213,49.213,0,0,1,4.37042-8.41345l.74455-1.80989a121.04445,121.04445,0,0,0-14.45674,26.12087"/><path class="cls-7" d="M300.23308,109.78061a99.23585,99.23585,0,0,1,4.24735-16.06289c1.51055-3.85918,3.86174-7.23426,5.42752-11.04039.864-2.10023-2.28628-3.03605-3.427-1.44479a129.93614,129.93614,0,0,0-14.64576,26.56876c-.91466,2.23141,2.71168,3.2032,3.616.9969a126.00029,126.00029,0,0,1,14.26773-25.673l-3.427-1.44479c-1.55723,3.78536-3.94512,7.1747-5.42752,11.04038a103.29767,103.29767,0,0,0-4.24735,16.06289c-.49,2.355,3.12395,3.36186,3.616.9969Z"/><path class="cls-6" d="M298.56669,113.93342a74.81737,74.81737,0,0,0,8.78827,41.13434l-.39083-.6103c-4.99345-5.17112-8.2473-11.82184-10.3052-18.70952s-2.9853-14.05521-3.84329-21.19236"/><path class="cls-7" d="M296.69169,113.93342A78.84618,78.84618,0,0,0,305.736,156.0141l3.238-1.89269c-1.31662-2.05595-3.151-3.72944-4.52192-5.76768a46.0061,46.0061,0,0,1-5.21856-10.73311c-2.56134-7.4446-3.59865-15.2835-4.54285-23.065-.287-2.3655-4.04052-2.39435-3.75,0,.98416,8.11086,2.00642,16.30041,4.6768,24.06194a52.95929,52.95929,0,0,0,4.2895,9.51829c1.67681,2.86837,4.06925,5.13036,5.829,7.87829a1.87643,1.87643,0,0,0,3.238-1.89269,75.11717,75.11717,0,0,1-8.53228-40.188c.15481-2.40968-3.59579-2.40034-3.75,0Z"/><path class="cls-6" d="M319.143,110.9756a25.35659,25.35659,0,0,1,1.92367-6.97307l6.69857-17.5418.73989-1.05259a50.00226,50.00226,0,0,0-12.75268,23.55068"/><path class="cls-7" d="M320.95106,111.47405c.6605-4.57239,2.62939-8.82118,4.26817-13.1127,1.463-3.83118,2.53922-8.64129,4.90494-12.00686,1.22941-1.749-1.503-3.81152-2.94483-2.27217a54.13245,54.13245,0,0,0-13.23487,24.37805c-.57329,2.34373,3.042,3.34369,3.616.9969A50.08359,50.08359,0,0,1,329.831,86.734l-2.94483-2.27217c-2.23652,3.18175-3.23475,7.53889-4.61312,11.14847-1.84792,4.83923-4.19352,9.713-4.938,14.86688-.341,2.36055,3.2718,3.38,3.616.9969Z"/><path class="cls-6" d="M319.04748,112.78192c2.83833,12.0808,5.70087,24.23581,10.62668,35.62609l-.87026-.90279L323.061,136.775c-3.93728-7.35654-7.98622-15.17838-7.60213-23.51345"/><path class="cls-7" d="M317.23946,113.28036c2.883,12.26164,5.90434,24.4401,10.81569,36.074L331,147.08218c-3.48526-3.61555-5.70346-9.96914-8.001-14.435-3.16133-6.14488-5.72868-12.37152-5.66514-19.38567.02186-2.41369-3.72812-2.4158-3.75,0-.06381,7.0437,2.254,13.42733,5.35635,19.666,2.6339,5.2967,5.28831,12.53247,9.40814,16.8063,1.59821,1.658,3.71673-.44372,2.94484-2.27217-4.77653-11.31454-7.63478-23.25752-10.43766-35.17819-.55215-2.34827-4.16885-1.35417-3.616.99689Z"/><path class="cls-6" d="M340.52086,108.96666A45.20916,45.20916,0,0,1,347.18242,90.879l-1.15132,1.69122c-2.95014,1.61893-4.4501,4.94763-5.753,8.05034l-3.65519,8.70463"/><path class="cls-7" d="M342.32888,109.46511a46.39929,46.39929,0,0,1,6.47254-17.63981c1.28271-2.07364-1.89335-3.86792-3.238-1.8927-1.50618,2.21248-3.75709,3.565-5.166,6.03373-2.28927,4.0112-3.79892,8.613-5.58244,12.86036-.933,2.222,2.69419,3.19224,3.616.9969,1.72119-4.09894,3.13945-8.602,5.46466-12.40144,1.33619-2.18339,3.45992-3.473,4.90578-5.59685l-3.238-1.8927a49.04347,49.04347,0,0,0-6.85058,18.53561c-.36112,2.36087,3.25174,3.37859,3.61605.9969Z"/><path class="cls-6" d="M341.90268,114.23086a113.9799,113.9799,0,0,0,5.68227,23.83843l.54794-.7588a21.53181,21.53181,0,0,1-3.37852-4.61194,70.50783,70.50783,0,0,1-7.6903-19.08276"/><path class="cls-7" d="M340.09466,114.7293a122.13207,122.13207,0,0,0,5.68227,23.83844,1.90322,1.90322,0,0,0,3.427.4479l.54794-.75881a1.89359,1.89359,0,0,0-.29319-2.27217c-5.594-6.07829-8.59269-15.01591-10.58662-22.86732-.59363-2.33754-4.21129-1.347-3.61605.9969,2.15456,8.48391,5.52352,17.97271,11.551,24.52207l-.29318-2.27217-.54794.75881,3.427.44789a122.13265,122.13265,0,0,1-5.68226-23.83843c-.32069-2.38047-3.93446-1.36669-3.61605.99689Z"/><circle class="cls-5" cx="129.23525" cy="115.74431" r="6.70349"/></svg>