<svg id="Layer_1" data-name="Layer 1" xmlns="http://www.w3.org/2000/svg" viewBox="0 0 517 517.00006"><defs><style>.cls-1{fill:#929497;}.cls-2{fill:#fff;}.cls-3{fill:#231f20;}.cls-4{fill:#58595b;}.cls-5{fill:#93278f;}.cls-6{fill:#716558;}.cls-7{fill:#5a4a42;}.cls-8{fill:#f5abcb;}.cls-9{fill:#ed2f52;}.cls-10{fill:#8cbf3f;}.cls-11{fill:#7bab41;}</style></defs><title>fish 4</title><path class="cls-1" d="M118.27373,329.33493s155.46925-127.21967,298.86464,0c0,0,47.81256-26.668,56.69485-22.7334s-27.84091,48.96426-27.84091,48.96426,41.96936,22.29624,38.47192,31.477-66.45153-14.86416-66.45153-14.86416S196.6963,433.8212,118.27373,329.33493Z"/><circle class="cls-2" cx="172.61969" cy="320.56134" r="10.95412"/><circle class="cls-3" cx="172.61969" cy="320.56134" r="6.26965"/><path class="cls-4" d="M219.77936,340.55948a11.4024,11.4024,0,0,1,5.35165,4.94409,4.63926,4.63926,0,0,1-.16769,5.28073,6.93239,6.93239,0,0,0-.96189,1.88788.62553.62553,0,0,0,1.20536.3323c.385-1.42221,1.65162-2.26413,1.95312-3.72555a6.24549,6.24549,0,0,0-.60963-3.71042,12.42178,12.42178,0,0,0-6.14-6.08835c-.72229-.345-1.35723.73239-.63091,1.07935Z"/><path class="cls-4" d="M219.84946,340.2951c11.29144-2.29657,21.74853-6.97763,32.19966-11.68432,7.06376-3.18119,36.04887-18.66184,38.3752-4.31024,1.08709,6.70639-4.57846,11.77215-9.05335,15.8897a144.00154,144.00154,0,0,1-15.602,12.55625c-5.98572,4.13415-11.31521,4.433-18.27125,3.56543-7.51624-.93747-15.00641-2.061-22.47625-3.31323-.78688-.1319-1.12515,1.07244-.3323,1.20535,8.20145,1.37485,16.4369,2.653,24.70155,3.59155,7.58623.86151,12.26485-.5628,18.44225-4.98569A137.90134,137.90134,0,0,0,285.244,338.245c3.60654-3.61743,7.05575-7.97143,6.56448-13.38931-1.2763-14.07587-20.28518-5.76767-27.6402-2.839-14.83764,5.90824-28.862,13.86164-44.65119,17.073-.78771.16022-.45432,1.36533.3323,1.20535Z"/><path class="cls-4" d="M224.04739,343.36435l50.45334-18.71479c.74768-.27734.42423-1.486-.3323-1.20535L223.7151,342.159c-.74769.27735-.42424,1.486.33231,1.20536Z"/><path class="cls-4" d="M226.27686,345.33175q22.54971-5.988,44.83834-12.8887c.76606-.23718.43921-1.44421-.3323-1.20535q-22.28743,6.90037-44.83835,12.8887a.62553.62553,0,0,0,.33231,1.20535Z"/><path class="cls-4" d="M226.60013,348.04208c6.76507-1.40393,13.63879-2.12948,20.38493-3.647,6.79028-1.52747,13.51732-3.35327,20.26027-5.07437a.62554.62554,0,0,0-.33231-1.20536c-6.74279,1.72107-13.47019,3.54694-20.26028,5.07438-6.74577,1.51745-13.62009,2.24313-20.38493,3.647-.78716.16336-.454,1.36853.3323,1.20535Z"/><path class="cls-4" d="M226.04,351.25534c5.5721.0083,11.07691.63858,16.64376.06338,5.707-.58966,11.317-1.75067,17.07193-1.86364a.62538.62538,0,0,0,0-1.25c-5.767.11319-11.34941,1.27914-17.07193,1.86364-5.56757.5687-11.0708-.055-16.64376-.06338a.62537.62537,0,0,0,0,1.25Z"/><path class="cls-5" d="M258.5,516.5C116,516.5.5,401,.5,258.5A257.961,257.961,0,0,1,76.1,76.1C176.9-24.7,340.2-24.7,441,76.1S541.8,340.2,441,441A256.49789,256.49789,0,0,1,258.5,516.5Z"/><path class="cls-2" d="M258.5,1C400.8,1.1,516,116.5,515.9,258.7a257.624,257.624,0,0,1-157.2,237C227.6,551,76.6,489.5,21.3,358.4-33.9,227.5,27.4,76.5,158.2,21.1A258.09931,258.09931,0,0,1,258.5,1m0-1C115.7,0,0,115.7,0,258.5s115.7,258.5,258.5,258.5,258.5-115.7,258.5-258.5S401.3,0,258.5,0Z"/><path class="cls-2" d="M187.05225,256.77594h2.7534v33.146H208.98l-.50977,2.54981h-21.418Z"/><path class="cls-2" d="M234.88721,279.67193c0,7.08887-3.92676,13.41211-11.52491,13.41211-6.88427,0-11.168-5.66015-11.168-13.36035,0-7.293,4.02879-13.36133,11.42285-13.36133C230.3999,266.36236,234.88721,271.66608,234.88721,279.67193Zm-19.98975.05176c0,6.06836,3.26367,10.96387,8.66895,10.96387,5.50732,0,8.61816-4.53906,8.61816-10.96387,0-6.01758-3.05957-10.96386-8.72021-10.96386C217.65088,268.75983,214.89746,273.60358,214.89746,279.72369Z"/><path class="cls-2" d="M241.72266,285.43463c.8667,3.31445,3.2124,5.30371,7.24121,5.30371,4.53857,0,6.37451-2.09082,6.37451-4.94629,0-2.90722-1.22412-4.335-6.93555-5.71191-6.57812-1.58106-8.21-3.56934-8.21-6.93555,0-3.51855,2.65185-6.78223,8.41406-6.78223s8.51613,3.51856,8.92433,7.13965h-2.54981c-.459-2.1416-2.14209-4.79394-6.47656-4.79394-4.43652,0-5.71142,2.19336-5.71142,4.23242,0,2.34668,1.22412,3.51953,6.27246,4.74316,7.19043,1.7334,8.9751,4.0791,8.9751,7.9043,0,4.64063-3.77344,7.49609-9.12793,7.49609-5.81348,0-9.07715-3.05957-9.791-7.64941Z"/><path class="cls-2" d="M264.97754,285.43463c.86621,3.31445,3.21191,5.30371,7.24121,5.30371,4.53809,0,6.374-2.09082,6.374-4.94629,0-2.90722-1.22363-4.335-6.93554-5.71191-6.57813-1.58106-8.21-3.56934-8.21-6.93555,0-3.51855,2.65235-6.78223,8.41407-6.78223,5.76269,0,8.5166,3.51856,8.9248,7.13965h-2.5498c-.459-2.1416-2.14258-4.79394-6.47657-4.79394-4.43652,0-5.71191,2.19336-5.71191,4.23242,0,2.34668,1.22461,3.51953,6.27246,4.74316,7.19043,1.7334,8.97559,4.0791,8.97559,7.9043,0,4.64063-3.77344,7.49609-9.12793,7.49609-5.81348,0-9.07715-3.05957-9.791-7.64941Z"/><path class="cls-2" d="M321.5332,279.67193c0,7.08887-3.92675,13.41211-11.52539,13.41211-6.88379,0-11.168-5.66015-11.168-13.36035,0-7.293,4.0293-13.36133,11.42285-13.36133C317.0459,266.36236,321.5332,271.66608,321.5332,279.67193Zm-19.99023.05176c0,6.06836,3.26367,10.96387,8.66894,10.96387,5.50782,0,8.61817-4.53906,8.61817-10.96387,0-6.01758-3.05957-10.96386-8.71973-10.96386-5.81347,0-8.56735,4.84375-8.56735,10.96386Z"/><path class="cls-2" d="M328.92969,292.47174V269.37121H324.544v-2.39648h4.38574v-3.62109c0-4.28321,1.22363-8.97461,6.93457-8.97461a9.52376,9.52376,0,0,1,2.499.35693v2.44775a12.68394,12.68394,0,0,0-2.7539-.30566c-3.00879,0-4.13086,2.1416-4.13086,6.57813v3.51855h5.55859v2.39648h-5.55859V292.4718Z"/><path class="cls-2" d="M147.88574,316.08893h2.54981v16.36914c1.22363-2.54981,3.72265-4.89551,8.72021-4.89551,6.01709,0,10.45362,4.94629,10.45362,12.7998,0,8.05762-3.97754,13.92188-11.1167,13.92188-4.28371,0-6.73145-1.73438-8.05713-4.64063,0,1.63184-.05127,3.31446-.10205,4.02832h-2.499c.05127-2.90625.05127-5.81347.05127-8.71972Zm19.021,24.32422c0-6.374-3.16162-10.45313-8.00635-10.45313-6.374,0-8.61816,4.334-8.61816,11.01465,0,6.01758,1.98924,10.91308,8.3125,10.91308,5.15039,0,8.312-4.28417,8.312-11.47454Z"/><path class="cls-2" d="M176.13916,316.08893h2.5498v4.94626h-2.5498Zm0,12.08593h2.5498v25.49707h-2.5498Z"/><path class="cls-2" d="M207.70508,340.87213c0,7.08887-3.92676,13.41211-11.5249,13.41211-6.88428,0-11.168-5.66016-11.168-13.36035,0-7.293,4.02881-13.36133,11.42285-13.36133C203.21777,327.56256,207.70508,332.86627,207.70508,340.87213Zm-19.98975.05176c0,6.06836,3.26367,10.96386,8.66895,10.96386,5.50732,0,8.61816-4.53906,8.61816-10.96386,0-6.01758-3.05957-10.96387-8.72021-10.96387C190.46875,329.96,187.71533,334.80377,187.71533,340.92389Z"/><path class="cls-2" d="M234.021,316.08893v30.24026c0,2.44727,0,4.793.05078,7.34277H231.624c-.102-.61132-.15283-3.00878-.15283-4.2832-1.2749,3.11035-4.13086,4.89551-8.56738,4.89551-6.6294,0-10.60694-5.40527-10.60694-13.05469,0-7.85351,4.335-13.667,11.27-13.667,5.09961,0,7.13916,2.19336,7.9043,3.8252V316.08893ZM215,341.127c0,6.98633,3.62061,10.76074,8.00586,10.76074,6.73144,0,8.56738-4.64062,8.56738-11.57617,0-6.57812-1.58105-10.35156-8.1084-10.35156C218.4165,329.96,215,333.98834,215,341.127Z"/><path class="cls-2" d="M242.38623,316.08893H244.936v4.94626h-2.5498Zm0,12.08593H244.936v25.49707h-2.5498Z"/><path class="cls-2" d="M252.89111,328.17486c4.13086,11.67774,6.98584,19.63282,7.95459,22.89649h.05176c.56055-1.88672,3.416-9.48535,8.36328-22.89649h2.70215l-9.63769,25.49707h-3.05957l-9.07715-25.49707Z"/><path class="cls-2" d="M277.52441,341.22955c.05079,6.57813,3.36524,10.6582,8.26075,10.6582,4.79394,0,6.42578-2.70312,7.34375-4.79394h2.60058c-1.07129,3.36523-3.77344,7.19043-10.0459,7.19043-7.75195,0-10.76074-6.68066-10.76074-13.15723,0-7.292,3.6211-13.56445,11.06641-13.56445,7.85351,0,10.35156,6.78223,10.35156,11.57617,0,.71387,0,1.42774-.05078,2.09082Zm16.165-2.24414c-.05078-5.04785-2.80468-9.02539-7.80273-9.02539-5.252,0-7.64844,3.6709-8.21,9.02539Z"/><path class="cls-2" d="M302.56445,335.11041c0-4.28418-.05078-6.12012-.05078-6.93555h2.499c.05079.81543.10157,2.44727.10157,5.71094a9.65964,9.65964,0,0,1,8.873-6.32324v2.75391c-5.30371.35742-8.873,4.02832-8.873,10.09668v13.25878h-2.54981Z"/><path class="cls-2" d="M319.292,346.63483c.86719,3.31445,3.21289,5.30371,7.24121,5.30371,4.53907,0,6.375-2.09082,6.375-4.94629,0-2.90723-1.22461-4.335-6.93554-5.71192-6.57813-1.58105-8.21-3.56933-8.21-6.93554,0-3.51856,2.65137-6.78223,8.41407-6.78223,5.76172,0,8.51562,3.51855,8.92383,7.13965h-2.54981c-.459-2.1416-2.1416-4.79395-6.47656-4.79395-4.43653,0-5.71094,2.19336-5.71094,4.23242,0,2.34668,1.22363,3.51954,6.27246,4.74317,7.19043,1.7334,8.97461,4.0791,8.97461,7.9043,0,4.64062-3.77344,7.49609-9.12793,7.49609-5.81348,0-9.07715-3.05957-9.791-7.64941Z"/><path class="cls-2" d="M341.93555,316.08893h2.5498v4.94626h-2.5498Zm0,12.08593h2.5498v25.49707h-2.5498Z"/><path class="cls-2" d="M349.38086,328.17486h4.74219v-7.95507h2.5498v7.95507h6.06836v2.39649h-6.06836v16.57324c0,2.85547.61231,4.48731,3.05957,4.48731a9.65176,9.65176,0,0,0,2.65235-.30567v2.24414a8.96815,8.96815,0,0,1-3.16211.459c-3.26368,0-5.09961-1.63184-5.09961-5.71192V330.57135h-4.74219Z"/><path class="cls-2" d="M368.81055,328.17486c5.15039,14.584,7.39453,20.60157,8.26074,23.35547h.05176c1.01953-3.11035,3.05957-9.02636,8.00586-23.35547h2.65136l-9.58691,26.97657c-2.70215,7.54687-4.53809,9.22949-9.12793,9.22949a17.06345,17.06345,0,0,1-2.3457-.15234v-2.54981a16.84662,16.84662,0,0,0,2.29492.15234c3.6709,0,4.84473-1.78418,6.73144-7.03711l-9.74023-26.61914Z"/><path class="cls-6" d="M367.20834,88.546c.56952-1.13048,2.15125-1.2089,3.39148-.95562a7.90968,7.90968,0,0,1,3.38748,1.44764,1.49434,1.49434,0,0,1,.67518,1.07886l-.04117-.01484c.0339-.78448-.8675-1.23062-1.61923-1.45745a6.09378,6.09378,0,0,0-4.19764-.18775,4.25834,4.25834,0,0,0-2.24026,3.6469,11.65225,11.65225,0,0,0,.80649,4.39357c1.69876,5.17012,3.86084,10.32949,7.54382,14.336,1.20239,1.308,2.613,2.578,3.034,4.30413a37.02409,37.02409,0,0,1-4.64737-1.09581c-1.56388-.3102-3.40561-.148-4.42044,1.08159-1.43756,1.74179-.38376,4.3711.90863,6.22316a31.05794,31.05794,0,0,0,10.853,9.61269c2.95,1.56665,6.42258,2.91231,7.80445,5.95322a12.30373,12.30373,0,0,1,.77389,4.79847l.135,5.02538a10.99972,10.99972,0,0,0-3.11331-1.9639,3.72732,3.72732,0,0,0-3.52072.3933c-1.17462.93951-1.37589,2.62988-1.36939,4.134a29.1923,29.1923,0,0,0,.55582,5.542l.03043-.18019a3.93224,3.93224,0,0,1,1.2547,5.4176q-.06111.09792-.12784.1921a2.07116,2.07116,0,0,0-.19519-2.51334,6.05276,6.05276,0,0,0-2.24753-1.50127l-3.83936-1.79846a2.8947,2.8947,0,0,0-1.63983-.4c-1.083.17511-1.58,1.45677-1.66266,2.55076-.38968,5.16091,3.74811,9.583,8.18412,12.24922-1.91751-1.20977-4.65619.411-5.22882,2.60471s.44354,4.50841,1.82461,6.30644a16.3052,16.3052,0,0,0,15.49155,5.98078,131.16525,131.16525,0,0,0-7.04724,20.85328c-1.64933-1.74194-1.78553-4.36645-2.38642-6.68884-1.88418-7.28223-8.74322-12.14194-15.60711-15.219.81475-2.66643,1.639-5.42919,1.30233-8.1969-.48434-3.98215-3.24859-7.24236-5.673-10.43833s-4.71863-7.01289-4.03806-10.96623c.58048-3.372,3.21619-6.04713,4.16147-9.33554a2.1996,2.1996,0,0,0,.07788-1.26624,2.32717,2.32717,0,0,0-.91339-1.06144,18.73253,18.73253,0,0,0-5.09271-2.69925,3.76386,3.76386,0,0,1-1.79129-.97518,3.26666,3.26666,0,0,1-.53528-1.95091c-.25162-5.44206.7345-11.15365-1.39953-16.16616a7.29912,7.29912,0,0,0-4.02341-4.27543c-1.90982-.648-4.40524.27384-4.90366,2.228a5.93709,5.93709,0,0,0,.20844,2.82137l1.09842,4.5881c-.73026-1.90546-3.52249-2.31564-5.18241-1.12874a6.57825,6.57825,0,0,0-2.30514,5.42259,12.235,12.235,0,0,0,4.84659,9.68186,31.89211,31.89211,0,0,1-7.83414,2.27589l.55261.16242a6.26889,6.26889,0,0,1-2.98041.50291c-2.59451-.20154-4.882-1.99635-7.48245-2.09576l-.52054.10827a160.82948,160.82948,0,0,0,2.11927-23.75516,11.00784,11.00784,0,0,0-.83368-5.3018,14.526,14.526,0,0,0-2.85007-3.30489,26.05738,26.05738,0,0,1-5.42008-7.95605c-.92511-2.11858-1.43411-4.91158.26438-6.47982,1.67544-1.547,4.49042-.814,6.18786.70879s2.74326,3.643,4.31986,5.29068l-.02292-9.95749a14.15368,14.15368,0,0,1,.53674-4.77951A4.79815,4.79815,0,0,1,333.89,81.1626c2.30869-.47306,4.53052,1.5372,5.18207,3.802s.16269,4.67993-.279,6.99485-.82168,4.7746.02377,6.97439a8.56147,8.56147,0,0,1,3.65436-3.26253,2.25767,2.25767,0,0,1,1.03964-.27039,2.0806,2.0806,0,0,1,1.25654.63c2.29885,2.11614,2.12832,5.90758.716,8.69468s-3.781,4.95153-5.64026,7.46264a24.09868,24.09868,0,0,0-3.62845,21.00471l-.07516-.56964q.24815,3.98811.812,7.94821l8.01987-1.93606a6.45116,6.45116,0,0,1,2.00393,5.47923,29.394,29.394,0,0,1-1.38287,5.89215,36.06179,36.06179,0,0,0-1.29328,10.94171,5.04165,5.04165,0,0,0,.85752,3.10161,7.63942,7.63942,0,0,0,1.79138,1.33163c4.5524,2.99819,5.46774,9.40541,4.41589,14.754s-3.58844,10.35181-4.30246,15.75585a38.13886,38.13886,0,0,0-.11264,7.36352,15.92665,15.92665,0,0,0,1.02381,5.39156c1.68219,3.8735,5.8797,5.9685,9.89706,7.27026a59.53554,59.53554,0,0,0,26.2497,2.17c2.35986-.3196,4.82479-.82523,6.62359-2.3858,2.12839-1.84653,2.89551-4.78231,3.41718-7.55137,1.08859-5.77858,1.60766-11.72311,3.71011-17.21463,4.41571-11.53373,15.25687-19.69833,19.6525-31.23973,2.41125-6.33117,2.70758-13.23887,3.01239-20.0068a35.08144,35.08144,0,0,1,1.11984-8.64066,11.94923,11.94923,0,0,1,4.98151-6.93406l.27862-.39A38.4525,38.4525,0,0,0,428.181,99.18969c-.35938-1.26648-.89941-2.64813-2.09766-3.19341a3.32542,3.32542,0,0,0-3.71441,1.11263,9.73677,9.73677,0,0,0-1.69193,3.76476l-3.41717-9.355a4.33954,4.33954,0,0,0-1.39972-2.24115,2.77177,2.77177,0,0,0-1.73288-.41147c-2.18122.14419-3.86988,2.20874-4.22269,4.366a11.21572,11.21572,0,0,0,1.25653,6.33748c-1.71277-1.54939-4.67993-.93378-6.12128.87085a7.51378,7.51378,0,0,0-.97174,6.60406,28.41507,28.41507,0,0,0,2.97065,6.238,67.60863,67.60863,0,0,1,5.273,12.10273l-.2107.51192a4.88589,4.88589,0,0,0-4.987.69724,10.42627,10.42627,0,0,0-3.0538,4.266c-1.70642-.81029-1.47134-3.4492-2.8277-4.764-1.3486-1.30729-3.55731-.76232-5.33542-.15725a1.20812,1.20812,0,0,1-.85714.07022c-.35587-.15557-.47022-.59549-.536-.97825A46.626,46.626,0,0,1,400.01,94.1315c.69012-1.19693,1.45734-2.614.90478-3.88028a2.84194,2.84194,0,0,0-3.25305-1.34673,6.90721,6.90721,0,0,0-3.15606,2.0653,27.06362,27.06362,0,0,0-3.48224,4.30947,83.06485,83.06485,0,0,0-3.2265-17.50306,6.74368,6.74368,0,0,0-1.80121-3.37248,10.44767,10.44767,0,0,0-7.5661-.87568c-1.97239.88559-2.69388,3.296-2.961,5.44153a30.7255,30.7255,0,0,0,1.01852,12.45163,1.19435,1.19435,0,0,1-1.16672-.93933"/><path class="cls-7" d="M368.9761,90.3138a4.2974,4.2974,0,0,1,3.27567.46772l3.07529-3.0753c2.04117.73531-.6994-1.086-1.36182-1.34628a9.41056,9.41056,0,0,0-4.461-.61748,6.4474,6.4474,0,0,0-5.39548,6.029c-.4096,3.80483,1.62964,7.95834,3.10874,11.36029A36.55819,36.55819,0,0,0,370.72,109.562c1.44534,2.06636,3.88825,3.89659,4.81775,6.24l3.07529-3.07529c-3.46695-.58072-7.38788-2.49381-10.60126-.10266-3.18915,2.3731-2.532,6.33167-.74557,9.38851A30.70816,30.70816,0,0,0,377.2803,131.88c2.18555,1.39389,4.8881,2.24641,6.86924,3.92253,3.21179,2.71731,2.604,7.13411,2.70611,10.93358l4.26776-1.76778c-2.79156-2.17543-6.59686-4.36357-9.91656-1.76605-3.54767,2.77589-2.33045,8.54347-1.70947,12.30383.39471,2.39032,4.41912,2.38364,4.82138,0l.03039-.18019-4.17847,1.10317.736,2.58012,4.56936,1.92639c1.0629-4.03291-1.50677-5.82114-4.8714-7.43736-2.51156-1.20647-5.66436-3.14052-8.123-.712-5.99832,5.92493,3.31332,15.27193,7.92148,18.2304l1.92639-4.56937c-6.39758-2.39565-9.99259,5.04069-7.63129,10.21883,3.23233,7.08825,11.65467,10.55024,19.054,9.58381l-2.15869-3.76179a146.70411,146.70411,0,0,0-7.29932,21.45042l4.56937-.5972c-1.84076-2.55075-1.846-5.84541-3.06446-8.71017a20.48024,20.48024,0,0,0-3.22717-5.15521c-3.35745-4.00527-7.91058-6.75881-12.59878-8.93932l1.14889,2.82327c1.2767-4.27847,2.10611-8.39633.42651-12.68622-1.80587-4.61253-5.88153-7.80827-7.87066-12.28852-3.05985-6.892,4.33334-9.78745,3.36407-15.8931-.58456-3.68227-4.69864-4.0755-7.16766-5.90888-2.68-1.99-.95935-9.49881-1.458-12.9348-.56073-3.8637-2.04245-8.16419-5.70651-10.10313a6.66976,6.66976,0,0,0-8.07684,1.23438c-2.6236,3.02533-.65284,7.55.1459,10.88617l4.56937-1.9264c-2.74176-4.34575-8.62513-3.6862-11.0268.70507-3.02685,5.53433.06351,12.58656,4.45941,16.30021l1.10318-4.17846a39.20027,39.20027,0,0,1-7.83413,2.27589c-2.53778.462-2.21671,4.16988,0,4.8214l.55261.16241v-4.8214c-3.89,1.15618-7.13675-2.28468-10.9834-1.48457l3.07529,3.0753c.75543-4.75657,1.36673-9.5303,1.74-14.33294.34747-4.47072,1.15341-9.70577.15967-14.14109-.91834-4.09874-4.5217-6.22811-6.79685-9.53975a23.39894,23.39894,0,0,1-1.6478-2.77278c-.499-.99993-1.47256-4.53218.50843-4.90915,1.57132-.299,4.55136,4.72846,5.64557,6.00063,1.449,1.68462,4.27249.29006,4.26776-1.76777-.00611-2.65528-.02072-5.31071-.01834-7.966.00158-1.78727-.63321-10.13389,3.79287-6.25054,1.77414,1.55658-.13751,6.79432-.35434,8.80058a15.663,15.663,0,0,0,.41459,5.882c.56259,2.25331,3.38354,2.24438,4.56936.5972,3.1593-4.38838,3.05481,1.57412,2.09644,3.61573a23.76034,23.76034,0,0,1-3.52658,4.77777,29.69072,29.69072,0,0,0-4.51392,7.002,27.36343,27.36343,0,0,0-1.22751,18.26641c.69989,2.63074,5.28842,2.1977,4.91071-.66459l-.07517-.56965c-.40786-3.09077-5.23044-3.283-5,0,.18683,2.66172.45679,5.304.812,7.94822a2.54771,2.54771,0,0,0,3.16462,2.4107l8.01986-1.93606-2.43237-.64293c3.1879,3.33265-.73981,11.05621-1.17813,15.02479-.35172,3.18441-.97055,7.70937,1.36346,10.38991,1.50794,1.73184,3.43091,2.30557,4.61219,4.53613a13.16109,13.16109,0,0,1,1.21713,7.03991c-.36539,5.54206-3.19074,10.644-4.26642,16.04554-1.46539,7.35837-1.41989,16.78238,5.25595,21.56311,7.28876,5.21967,18.15393,6.33559,26.8504,6.14189,7.88556-.17564,16.215-.94979,18.868-9.552,1.4891-4.82835,1.65856-10.03319,2.83209-14.94476a40.5159,40.5159,0,0,1,6.455-13.85034c5.10981-7.35456,11.5289-13.91213,14.72031-22.43737a53.73352,53.73352,0,0,0,2.81113-15.11735c.39053-5.50108-.52439-13.0865,3.44381-17.52055.93766-1.04773,2.162-1.53447,2.88544-2.73643,1.24738-2.07247,1.80029-5.10095,2.25217-7.44471a41.8647,41.8647,0,0,0,.07434-15.53771c-.65643-3.54917-1.78064-8.61489-6.30814-8.66324-3.97363-.04245-5.81628,3.56593-6.82589,6.869h4.82141c-1.59427-4.3645-2.9635-14.7278-9.62509-13.75372-6.77515.99068-6.70792,8.93-4.71228,13.7788l3.67248-2.82328c-5.03168-3.17807-10.54718.67329-11.1051,6.17866-.379,3.73943,1.391,7.02378,3.13525,10.19865,1.15161,2.09615,2.25522,4.1953,3.215,6.38789.36865.84217,2.32309,4.32531,2.02218,5.05645l3.07529-1.7461c-5.07968-1.53461-8.75354,1.74044-10.8641,6.11212l3.92645-.506c-2.12854-1.768-1.665-4.57859-4.48624-5.81608a6.49892,6.49892,0,0,0-2.61587-.47591q-1.05282.13427-2.09922.31328.67516,3.20461-.06866-1.42237a44.20879,44.20879,0,0,1,4.03857-23.31819c1.73493-3.61185,5.37787-8.87127.18845-11.46584-5.08069-2.54021-9.493,3.58232-11.92041,7.11l4.65869,1.2618a78.68672,78.68672,0,0,0-3.31558-18.16765c-1.3103-3.9129-3.42667-5.871-7.60419-6.32649-11.89917-1.29753-10.56207,13.57006-8.527,21.30068l3.07529-3.07529.32736.20958c-1.68982-2.7312-6.01678-.22316-4.31735,2.52359a4.24112,4.24112,0,0,0,2.6608,2.08822c1.85177.65286,3.53241-1.33883,3.07528-3.07529a31.09959,31.09959,0,0,1-1.16149-8.20207c.00842-1.07352-.19071-3.32853.36416-4.22513l3.76886-2.618q3.25612.86292,3.76236,3.58657c2.13544,4.6038,2.46616,11.02555,2.89148,15.98133A2.52321,2.52321,0,0,0,393.1817,96.541c.58994-.8573,2.05612-3.45633,3.09134-3.80348,2.10654-.70638,1.03375.67966.76389,1.60757-.74067,2.54657-2.36164,5.0122-3.20871,7.56809a49.30344,49.30344,0,0,0-2.46732,16.41549c.05048,2.47048-.37167,8.36277,2.417,9.83927,1.76526.93465,3.48212-.616,5.15561.1859,1.63065.78133,1.8487,3.02,3.35871,4.27422,1.13513.94285,3.16812,1.06477,3.92645-.506.94211-1.95145,2.17337-4.734,5.21756-3.81433a2.569,2.569,0,0,0,3.07529-1.7461c1.025-2.4906-1.38489-6.35342-2.38172-8.6187-.88913-2.02053-1.882-3.98178-2.93259-5.92236a31.17286,31.17286,0,0,1-2.19973-4.34009,4.67555,4.67555,0,0,1-.64109-2.35239q-.81448-2.96646,3.54279-3.6c1.70779,1.07866,4.52191-.75945,3.67249-2.82327a16.50262,16.50262,0,0,1-1.10029-3.10579q2.88927-3.64634,3.40284-.80941c1.213,1.23507,1.79174,4.90518,2.392,6.54852a2.52318,2.52318,0,0,0,4.82142,0c.26263-.8592,1.35965-2.48356,2.68258-1.684.32151.19432.70258,2.88524.80866,3.47821a36.238,36.238,0,0,1,.48114,8.22814c-.20545,3.96839-.81116,8.74568-3.37061,11.62287-5.97534,6.71714-5.3508,14.44626-6.01529,22.98427-.81,10.40782-4.74234,18.24936-10.98431,26.40226-5.01087,6.54487-10.062,12.96926-12.319,21.04487-1.18942,4.25575-1.6673,8.666-2.46561,13.00136-.4432,2.407-.78943,4.9075-2.59106,6.70149-2.27344,2.26381-5.62808,2.38957-8.717,2.64693-8.4643.7052-21.73917.38385-28.436-5.76859-3.7811-3.47374-3.2464-10.84684-2.388-15.42733.8942-4.77158,3.09232-9.19774,4.0015-13.96833,1.33069-6.98246-.33094-12.15259-5.03318-17.16824-6.71255-7.16,4.91825-17.88187-.98132-25.64835-2.64572-3.483-7.96292-.67039-11.4733.177l3.16462,2.4107c-.35523-2.6445-.62516-5.28683-.812-7.94821h-5l.07517.56964,4.9107-.6646a21.97863,21.97863,0,0,1,3.2168-18.79077c2.66406-3.72387,6.33716-6.8037,7.01908-11.58439.46453-3.25676-.5253-7.72911-4.08854-8.91092-3.35171-1.11163-6.31613,1.93184-8.1145,4.42981l4.56937.59719c-1.21268-4.857,1.86081-9.75833.0032-14.56645-1.13592-2.9402-4.00927-5.4524-7.34076-5.0402-8.70208,1.07669-6.33169,14.788-6.31863,20.46983l4.26776-1.76777c-2.84726-3.3103-5.37274-8.10631-10.527-7.49976-5.02118.59089-6.06363,5.57454-4.66891,9.744,1.91028,5.71074,9.04086,10.07887,9.25927,15.88363.29584,7.862-.80026,16.03469-2.02932,23.7735a2.53945,2.53945,0,0,0,3.07528,3.0753c1.3725-.28549,3.8317,1.357,5.149,1.70168a10.348,10.348,0,0,0,5.83444-.21712,2.52134,2.52134,0,0,0,0-4.82139l-.55261-.16242v4.8214a39.20061,39.20061,0,0,0,7.83414-2.27591c1.56488-.63483,2.69723-2.83179,1.10315-4.17847a10.70867,10.70867,0,0,1-3.517-4.78538,7.22486,7.22486,0,0,1-.59732-3.12871q-.36841-2.81283,2.82886-3.03206a2.51174,2.51174,0,0,0,4.56936-1.92639l-.73227-3.05873q-1.35255-2.324,1.36182-1.633c2.98117-.39967,2.95343,2.68109,3.26611,5.01269.49674,3.704-.23694,7.46072.21341,11.14775.20136,1.64842.47333,2.98082,1.77347,4.10957,2.51471,2.18323,7.06711,1.25408,5.32819,5.92774-.96521,2.59418-2.64981,4.383-3.00837,7.25125a13.74458,13.74458,0,0,0,1.558,7.81491c1.46982,2.95444,3.726,5.35286,5.55414,8.07037,2.93261,4.35933,2.88015,8.04427,1.386,13.05158a2.51978,2.51978,0,0,0,1.1489,2.82327c4.40829,2.05031,8.7858,4.542,11.79336,8.46422,2.92322,3.81223,2.55832,8.743,5.30329,12.54671,1.18966,1.64851,3.99984,1.64393,4.56936-.5972a138.51488,138.51488,0,0,1,6.79529-20.256c.63474-1.48912-.041-4.03837-2.15866-3.76179a14.82852,14.82852,0,0,1-9.27246-1.45893,13.72643,13.72643,0,0,1-3.51093-2.68229c-.876-.94161-4.08129-7.3801.03144-5.84,2.75339,1.031,4.21036-3.103,1.92639-4.56937-2.40143-1.54174-4.81149-3.44967-6.11966-6.06425-2.82272-5.64159,4.076-1.89507,3.8476-1.02861-.70981,2.69318,3.181,4.46017,4.56936,1.92639,1.65875-3.02725,1.25662-6.4274-1.51779-8.63927-1.29965-1.03611-3.8313-.9539-4.17847,1.10317l-.03039.18019h4.82138c-.47608-2.883-1.45365-9.35339,3.2691-5.673,1.58408,1.23443,4.33161.60827,4.26776-1.76778-.19021-7.08089-.00488-12.41493-6.71618-16.24736-3.53217-2.017-6.95166-3.67335-9.90573-6.57852-1.17926-1.15974-3.90479-3.34378-4.0145-5.01686-.27942-4.26075,3.87875-1.71141,6.06467-1.34526,1.652.27672,3.85342-1.11353,3.07528-3.0753-1.741-4.38948-5.67672-7.37038-7.80206-11.63294-1.08185-2.16981-2.88385-5.2716-2.996-7.727q-1.12638-2.53749,2.90143-3.749l.3909.506a12.62491,12.62491,0,0,1,1.14434.65776,2.51543,2.51543,0,0,0,3.07529-3.07529c-1.5611-4.49983-8.31-5.80159-11.6326-2.67406-2.348,2.2101,1.19257,5.7409,3.53552,3.53554Z"/><path class="cls-6" d="M327.27423,139.49834a146.43564,146.43564,0,0,0,1.834-18.70331c.09793-2.92147.06286-6.02028-1.45911-8.51593-1.40366-2.30163-3.85074-3.7247-5.78275-5.60489a15.84189,15.84189,0,0,1-4.38348-7.85041c-.41382-1.85469-.43976-3.95328.68967-5.48152,1.67984-2.273,5.2836-2.25485,7.66131-.72676s3.82215,4.11634,5.17157,6.59978c-1.15921-3.5221-2.186-7.22683-1.65164-10.89609s3.026-7.29591,6.65915-8.03692a2.273,2.273,0,0,1,1.66611.15761,2.6364,2.6364,0,0,1,.93176,1.79331,42.0898,42.0898,0,0,1,.18185,16.16387c2.18439-.758,3.54865-3.855,5.80549-3.35227a2.99677,2.99677,0,0,1,1.44024.879c2.786,2.83548,1.46729,7.72311-.975,10.85957s-5.84522,5.62473-7.38364,9.29014a20.20174,20.20174,0,0,0-1.09653,7.9647q.04308,8.34805.907,16.665"/><path class="cls-7" d="M328.47958,139.83063c.79465-5.06755,1.40311-10.1559,1.70429-15.27856.22143-3.76633.72668-8.03359-.8121-11.6094-1.53556-3.56837-5.08136-5.33-7.50254-8.185a11.80673,11.80673,0,0,1-2.77774-4.80188c-.3388-1.75034,1.44306-6.58075,3.25769-7.1615,1.94315-.62187,4.51868,2.36754,5.43161,3.56a27.23248,27.23248,0,0,1,2.1453,3.49185,1.25554,1.25554,0,0,0,2.28466-.9632c-1.50811-4.76426-4.09716-15.17236,3.159-16.06661q2.74552-1.36975,2.36517,1.526a40.4416,40.4416,0,0,1,.48023,5.06046,44.47508,44.47508,0,0,1-.62787,8.66189,1.268,1.268,0,0,0,1.83624,1.41164c1.0246-.54261,2.15061-2.01335,3.12854-2.34433,5.03864-1.70531,3.67722,5.51745,2.20035,7.91531-2.2,3.57184-5.91934,5.93043-7.82263,9.73381-3.63962,7.27313-1.45117,18.18477-.68964,25.922.15613,1.58644,2.65775,1.60261,2.5,0-.68741-6.98422-2.3201-15.90889-.37155-22.77245,1.59274-5.6103,7.46243-8.4303,9.59329-13.759,1.21177-3.03028,1.497-7.63033-1.70092-9.67734-3.351-2.145-5.36588,1.37585-8.09925,2.82335l1.83625,1.41164c.62615-3.85961,3.2211-20.57317-4.15125-19.67476-9.725,1.18511-8.006,14.30343-6.04672,20.493l2.28467-.96318c-2.26383-4.1057-5.51658-9.00566-10.94025-8.2136-3.76431.54973-5.44071,3.80513-5.09262,7.36126.61554,6.28849,4.9816,9.26519,9.01956,13.37265,3.55344,3.6146,2.88977,8.81786,2.6124,13.44735-.29352,4.89891-.85468,9.76551-1.615,14.614-.2468,1.57393,2.1618,2.25191,2.4107.6646Z"/><path class="cls-6" d="M346.23337,152.69208a37.28775,37.28775,0,0,0,.627-9.90754,5.11077,5.11077,0,0,0-.66272-2.53207,8.4386,8.4386,0,0,0-1.89465-1.669c-2.31476-1.85714-3.36435-4.85073-4.07166-7.73289-.43222-1.76123-.75137-3.73071.1583-5.29954a3.9834,3.9834,0,0,1,6.24045-.4681,52.94947,52.94947,0,0,1-.35343-7.3817,4.06984,4.06984,0,0,1,.89759-2.95466,3.09643,3.09643,0,0,1,1.83566-.72558c3.15359-.31939,6.10077,2.05353,7.39679,4.9462s1.275,6.18881,1.05688,9.351-.60733,6.3708.02689,9.47644a2.90309,2.90309,0,0,0,.41394,1.12067c.8996,1.26559,2.87225.64538,4.38672.988a3.34485,3.34485,0,0,1,2.474,3.65364,7.26054,7.26054,0,0,1-.96436,2.27514c-3.12463,5.7004-4.0578,13.42463.2652,18.27949a21.01407,21.01407,0,0,1,2.31033,2.603,24.08844,24.08844,0,0,1,1.56253,4.152c.977,2.47662,3.01969,4.72469,2.76462,7.37482-.2016,2.09478-1.80331,3.75114-2.65515,5.6755a16.6022,16.6022,0,0,0-.91647,6.95571l.31314,27.17466"/><path class="cls-7" d="M347.43872,153.02438c.67041-3.80186,1.936-9.5366-.03567-13.10422a16.24557,16.24557,0,0,0-2.69968-2.90176,12.08812,12.08812,0,0,1-2.88019-5.05556l-.38644-1.44459q-1.88288-4.4328,4.30954-4.55146c.72561.6539,2.25009.27174,2.13388-.88388-.28064-2.79046-2.15113-11.13221,4.32608-9.08075,3.55252,1.12516,4.13092,6.97632,4.10663,9.92766-.02954,3.59084-1.92725,10.44866.51229,13.61637.77518,1.00657,1.755.87329,2.70981,1.41456,2.159,1.22388.82975-1.79411,2.3725,2.156,1.02243,2.61786.55676,2.32315-.38193,4.637a20.02624,20.02624,0,0,0-1.44723,10.44718c.64819,4.16916,3.16342,5.80859,5.21878,9.1445,1.09024,1.76951,1.48938,4.09315,2.4472,5.975,1.93644,3.80442.62415,6.60978-.83819,10.11484-1.91489,4.58974-.99033,10.371-.93466,15.20149l.22366,19.41048a1.25075,1.25075,0,0,0,2.5,0c-.09692-8.41112-.21488-16.8223-.29077-25.23361-.02033-2.251-.2688-4.71066.29983-6.8996.526-2.02484,1.97983-3.61906,2.69864-5.54184a7.22179,7.22179,0,0,0,.11984-5.00258,72.661,72.661,0,0,0-3.306-7.65948c-1.0119-2.20983-2.6134-3.48708-3.93887-5.477-2.42032-3.63363-2.2464-8.15231-.94818-12.17358.68127-2.11032,2.54315-4.24783,2.68567-6.50263a4.68468,4.68468,0,0,0-1.75131-4.04083c-1.54016-1.19053-4.36051-.57464-5.568-2.05372-1.75839-2.1538.24478-10.21083.09293-13.12591a14.61019,14.61019,0,0,0-1.955-7.20172c-1.76413-2.75042-5.724-5.5037-9.14114-4.10337-4.2583,1.745-2.6514,8.68168-2.3125,12.05158l2.13388-.88389c-3.69986-3.33412-8.866-1.02853-8.9567,3.92961a16.80917,16.80917,0,0,0,3.17466,9.4821c1.2561,1.70233,3.25619,3.022,3.87844,5.17382.76822,2.65666-.12255,6.96745-.58239,9.57522-.27744,1.57335,2.13134,2.24875,2.4107.6646Z"/><path class="cls-6" d="M346.25146,152.71339a17.44538,17.44538,0,0,0-2.38793,10.18459,4.28613,4.28613,0,0,0,1.29376,3.16615c.99283.76772,2.39438.6505,3.57492,1.07639,2.98633,1.07731,3.58182,5.01211,3.37643,8.18017-.57376,8.85-3.48553,17.3826-4.661,26.173a14.76557,14.76557,0,0,0,.06442,5.703c.83054,3.15506,3.44419,5.53581,6.23539,7.225a27.86555,27.86555,0,0,0,13.8536,3.99887"/><path class="cls-7" d="M345.17215,152.0825c-1.96252,3.65856-4.90207,11.82813-.64575,15.061,2.26513,1.72049,3.96319-.16146,5.88559,3.6354.90948,1.79627.471,4.51244.28943,6.4336-.49622,5.24919-1.82267,10.39027-2.92112,15.53354-1.30932,6.13083-3.65164,13.579.77189,18.97085,4.47,5.44846,12.3078,7.63272,19.04891,7.95365,1.60828.07655,1.60434-2.42363,0-2.5-7.29888-.34748-19.03567-3.79163-19.149-12.80806-.09638-7.66636,3.0155-15.5241,4.21109-23.05825.65246-4.11154,1.84006-9.90472-1.03534-13.50746-.96182-1.20514-1.91467-1.38481-3.1788-2.01047-3.272-1.6194-3.57059-2.32963-3.25425-5.74694a17.219,17.219,0,0,1,2.136-6.69506c.76041-1.41755-1.39706-2.68162-2.15869-1.26179Z"/><path class="cls-6" d="M327.36526,140.31785a39.23917,39.23917,0,0,0,9.90827,1.7271"/><path class="cls-7" d="M327.033,141.52321a43.40807,43.40807,0,0,0,10.24057,1.77174c1.60776.08548,1.60306-2.41476,0-2.5a40.55327,40.55327,0,0,1-9.576-1.68243,1.25108,1.25108,0,0,0-.66461,2.4107Z"/><path class="cls-6" d="M397.02316,184.0245a22.129,22.129,0,0,1-21.10214-9.346c-.87021-1.29658-1.53625-3.202-.40063-4.27382a3.34629,3.34629,0,0,1,2.06045-.69983,19.8347,19.8347,0,0,1,8.51706,1.14261,37.74012,37.74012,0,0,1-8.45874-4.8435,12.71055,12.71055,0,0,1-4.83441-8.21238,3.15488,3.15488,0,0,1,.69931-2.66005c.83111-.772,2.14291-.6289,3.23483-.3215a16.31321,16.31321,0,0,1,7.01175,4.0806,21.82924,21.82924,0,0,1-2.79541-10.49079c-.01089-1.40226.19116-2.96327,1.26416-3.8661a3.66235,3.66235,0,0,1,4.31088.10648,10.02572,10.02572,0,0,1,2.827,3.61865,102.12849,102.12849,0,0,1,9.71628,25.19588c.42929,1.791.79654,3.74263.034,5.419-.84933,1.86727-3.03817,3.31116-2.74453,5.34136"/><path class="cls-7" d="M397.02316,182.7745a21.50739,21.50739,0,0,1-13.76538-2.86306c-1.63986-.99791-4.694-2.92939-5.47714-4.86422q-1.75689-1.25983.37515-2.582.43213-1.9773,2.02042-1.54234c1.61911-.3311,4.08154.64975,5.58942,1.12993,1.326.42226,2.26129-1.67961.96319-2.28468-3.63922-1.69634-7.41025-3.39786-10.055-6.53441-1.59165-1.88762-3.1196-3.60694-1.34659-5.813q1.153-2.89851,3.82571-.32838a15.03773,15.03773,0,0,1,3.71384,2.6822,1.25572,1.25572,0,0,0,1.96323-1.51478c-1.19516-2.31593-2.73914-5.57865-2.55518-8.29433q-.96209-4.11847,5.22293-2.421l.78025,1.34535c2.96844,3.15794,4.76156,9.73392,6.19958,13.66846,1.40643,3.84817,3.2991,8.32037,3.60034,12.4389.28031,3.83237-2.68573,5.67873-2.96478,9.218-.12647,1.60413,2.37418,1.59589,2.5,0,.19965-2.53239,2.7547-4.06027,3.12128-6.64346.43866-3.09142-.99894-6.78655-1.85788-9.6806-2.12671-7.1655-4.886-15.43718-9.2201-21.60845-1.87716-2.67291-5.607-5.30253-8.51635-2.37977-3.69092,3.708-.40125,11.874,1.53125,15.61868l1.96322-1.51479c-2.5729-2.29548-11.63-8.33613-13.02667-1.65736-1.62692,7.77981,8.42209,13.04307,13.8591,15.57741l.9632-2.28469c-5.15375-1.64122-16.96982-2.2357-11.169,6.24628,4.76529,6.96787,13.56155,10.29161,21.762,9.38612,1.5817-.17465,1.59949-2.6766,0-2.5Z"/><path class="cls-6" d="M389.88019,148.68156a23.51569,23.51569,0,0,0-1.72806-12.2165,7.97932,7.97932,0,0,0-1.91226-2.918,12.15761,12.15761,0,0,0-4.10922-1.91083,23.16026,23.16026,0,0,1-12.325-10.44284c-1.30276-2.341-2.01931-5.664.02188-7.39918,1.98063-1.68371,4.98792-.59721,7.31882.55374l-5.13754-7.953c-2.09955-3.25014-4.24115-6.6015-4.99664-10.39633a15.45824,15.45824,0,0,1,.20788-6.91285,3.91455,3.91455,0,0,1,1.73248-2.671c1.26621-.62822,2.78751.07747,3.89744.9527s2.15332,1.97294,3.53936,2.25013l-1.10681-6.76629c-.50983-3.11664-.89224-6.70807,1.21158-9.06334,2.405-2.69241,7.065-2.15512,9.72165.28931s3.71127,6.16291,4.2348,9.73488.64987,7.2564,1.94916,10.62461l4.88946-5.07164c.79871-.82845,1.79877-1.728,2.93268-1.53173,1.82352.31568,1.97925,2.88742,1.48984,4.67221-1.69012,6.16361-5.45007,11.64595-6.80472,17.89189-1.23343,5.68712-.38778,11.59449.46161,17.35152,1.12232,7.60671,2.24719,15.22675,4.07855,22.69454,1.3411,5.46869,3.06647,10.88942,3.4845,16.5046s-.6319,11.60167-4.25751,15.90982"/><path class="cls-7" d="M391.13019,148.68156c.46036-5.23617-.02573-13.31808-4.887-16.6277-3.07486-2.09338-6.836-2.67982-9.84765-5.07321a20.64039,20.64039,0,0,1-4.73715-5.13286,12.01266,12.01266,0,0,1-1.67432-3.55986q2.57781-5.63442,6.53137-2.86066c1.04273.479,2.45056-.56417,1.71024-1.71024-2.876-4.45218-6.25226-8.8734-8.51148-13.68772a19.10678,19.10678,0,0,1-1.49667-4.36305c-.19836-1.01493-.72907-5.522.20789-6.24826,1.24749-.96693,4.22161-.08079,5.47131.35319.4736.16445,1.83145.92088,2.16031,1.05172.98312.39117,1.67248-.71327,1.53766-1.53765a79.68565,79.68565,0,0,1-1.41294-9.18177c-.26724-6.11176,5.8797-9.03463,10.0073-4.08181,4.187,5.02409,3.04391,12.7545,5.00534,18.74735a1.26323,1.26323,0,0,0,2.08923.55159c.734-.76136,3.93961-5.06533,4.8895-5.07164,3.90149-.02587,1.81314,3.69028,1.233,5.22738-1.4375,3.80886-3.45258,7.38512-4.75391,11.249-2.4772,7.35522-1.45669,14.79745-.34842,22.30686a252.2881,252.2881,0,0,0,5.10752,26.29514c2.33841,9.07043,4.32122,18.84431-1.81647,26.8997-.97482,1.27941,1.19534,2.52614,2.15869,1.2618,5.8483-7.67555,4.90225-17.23271,2.76636-26.09319-2.906-12.05508-5.735-24.20611-6.78589-36.60356a35.37838,35.37838,0,0,1,3.17023-17.94332c1.592-3.62928,4.31848-8.00345,4.26764-12.076-.02363-1.89138-.80326-3.94806-2.95-4.18936-3.42666-.38517-6.77157,4.963-8.70605,6.96948l2.08923.55159c-2.41983-7.39348-.97961-22.82476-12.34335-23.32439-10.54132-.46346-7.07929,13.04714-6.07773,19.16981l1.53763-1.53766c-2.57517-1.02462-5.05072-4.63394-8.2507-3.13981-2.018.94223-2.595,3.54683-2.8462,5.52156-1.1618,9.13323,5.81739,17.02543,10.44227,24.18487l1.71023-1.71023c-2.67349-1.228-6.27032-2.64472-8.83359-.35829-2.59613,2.31572-1.6072,6.24482-.21731,8.914a23.724,23.724,0,0,0,10.024,9.69581c2.70408,1.3929,5.80848,1.98046,7.81595,4.5127,2.46747,3.11246,2.38373,9.011,2.06391,12.64877-.14087,1.60234,2.36,1.59287,2.5,0Z"/><path class="cls-6" d="M396.21844,126.59c.30677-1.51451,2.38086-2.05886,3.77012-1.38228a7.7018,7.7018,0,0,1,2.97787,3.45341l1.68549,3.01644,1.41757-2.39769a8.60121,8.60121,0,0,1,2.76041-3.2621c1.24258-.72924,3.08428-.65345,3.87756.54927"/><path class="cls-7" d="M397.29776,127.22086c1.68057-3.92254,5.93427,4.47813,6.27481,5.08758a1.2617,1.2617,0,0,0,2.15866,0c.882-1.49184,3.58518-7.536,6.09232-4.85755,1.1018,1.17711,2.86694-.59345,1.76776-1.76776-4.19336-4.48-8.16709,2.23156-10.01874,5.3635h2.15866c-1.32171-2.36542-2.65771-5.96274-5.41043-7.04431a3.93507,3.93507,0,0,0-5.18176,1.95673c-.62671,1.46277,1.52627,2.73786,2.15869,1.2618Z"/><path class="cls-6" d="M409.08725,155.42151a38.89515,38.89515,0,0,0-.97311-39.83435c-1.59806-2.463-3.50464-4.78618-4.46778-7.55973s-.73807-6.23152,1.473-8.16325,6.52256-1.02337,6.97959,1.87686c-1.20673-2.659-2.44251-5.50729-2.00861-8.39485s3.30252-5.5979,6.08869-4.72405c2.156.67621,3.26223,3.07456,3.65915,5.299s.36587,4.58481,1.38208,6.603c2.05285-1.62847,2.77194-5.40081,5.38858-5.26159,1.8508.09848,2.79486,2.239,3.20071,4.04744a42.70651,42.70651,0,0,1-.29285,19.83975,16.84094,16.84094,0,0,1-1.615,4.29588c-.91952,1.59056-2.23895,2.91044-3.2753,4.42747-3.70074,5.41715-3.37118,12.49041-4.00509,19.02028a49.5628,49.5628,0,0,1-3.78525,15.05678c-5.73474,13.1236-17.98111,23.35231-20.46066,37.45792-.68366,3.889-.57245,7.89969-1.46064,11.74716a9.00247,9.00247,0,0,1-1.31683,3.26033,9.39172,9.39172,0,0,1-3.89075,2.83266,29.16075,29.16075,0,0,1-21.81991.84964"/><path class="cls-7" d="M410.16656,156.05241a40.73187,40.73187,0,0,0,4.62671-26.41806,39.02447,39.02447,0,0,0-4.406-12.68128c-1.22043-2.18259-2.78269-4.13478-4.04807-6.28573A12.956,12.956,0,0,1,404.514,106.471l-.00058-3.12391q3.566-5.81677,6.38012-1.27376l2.28467-.9632c-.5892-1.33445-1.64715-3.14737-1.71054-4.65962l1.20783-5.56718q5.2484-.76152,5.79428,2.69992c.88369,2.26583.66681,4.931,1.54507,7.27313a1.266,1.266,0,0,0,2.08923.55159c.23523-.23639,1.4878-1.84875,1.70377-2.03261a1.85494,1.85494,0,0,1,2.24185-1.36224q.08107.0198.16007.04679,2.4429-1.30287,2.39438,1.58231c1.65063,2.53672,1.08163,8.3566.902,11.42349-.22238,3.79726-.79867,8.326-2.68386,11.74894-1.432,2.60009-3.5915,4.504-4.813,7.26387-2.21265,4.99955-2.076,10.65931-2.56748,15.99351a49.6,49.6,0,0,1-6.38711,20.53015c-5.45777,9.46807-13.42,17.638-16.81967,28.21288-1.74234,5.41967-.60465,12.03251-2.83237,17.15085-3.66831,8.42811-18.33582,7.18446-25.18317,4.92651-1.53146-.505-2.18792,1.90837-.66461,2.4107,7.38934,2.43668,15.6647,2.46065,22.78314-.97564,6.44654-3.112,6.16385-9.21146,6.85416-15.5629,1.73578-15.9704,14.75769-26.35055,20.84918-40.48221,3.3457-7.76175,3.53388-15.45643,4.48172-23.67532.63831-5.53474,2.768-8.87056,5.704-13.38112a23.58091,23.58091,0,0,0,3.24286-9.30607c.91135-5.4564,2.03119-15.6826-1.97244-20.34186-3.88-4.5154-6.79135,1.68084-9.1611,4.06221l2.08923.55158c-1.54559-4.12167-1.42752-15.0016-8.9285-12.7257-6.80984,2.06619-4.498,10.32981-2.47751,14.90586.56928,1.28931,2.74265.372,2.2847-.9632a5.587,5.587,0,0,0-7.89987-3.21683c-4.3056,2.17942-4.014,7.93764-2.346,11.66909,1.33811,2.99338,3.575,5.50111,5.1702,8.35386a36.40315,36.40315,0,0,1,4.01483,11.32132,38.05873,38.05873,0,0,1-4.23554,25.25442c-.77838,1.40941,1.37986,2.672,2.1587,1.2618Z"/><path class="cls-6" d="M393.92389,184.1755a6.62763,6.62763,0,0,0-1.76865,3.33658L386.7764,205.3202c-1.01-1.10157-1.20642-2.69583-1.45011-4.17035a35.27535,35.27535,0,0,0-2.831-9.14767,9.06422,9.06422,0,0,0-2.20456-3.22018c-1.39508-1.17069-3.277-1.5187-4.98352-2.15479a14.6763,14.6763,0,0,1-4.68991-2.84537"/><path class="cls-7" d="M393.04,183.29162c-2.01917,2.37424-2.54691,5.40055-3.43485,8.34018L385.571,204.98785l2.2847-.2986c-1.51584-2.22813-1.48684-5.23845-2.20849-7.77232a28.61508,28.61508,0,0,0-2.66733-6.72148c-2.57517-4.2981-7.80353-4.28629-11.47873-7.29753-1.23474-1.01169-3.01352.74705-1.76776,1.76776,3.79574,3.11,9.20224,3.54944,11.68256,7.96734,2.31558,4.1245,1.67269,9.48391,4.28112,13.318a1.26725,1.26725,0,0,0,2.2847-.2986l2.95835-9.79444c.98538-3.2624,1.645-8.18507,3.86764-10.79861,1.03665-1.219-.72351-2.99568-1.76776-1.76778Z"/><path class="cls-6" d="M295.14175,212.5182a12.34083,12.34083,0,0,0,3.27228.62686l37.65033,3.73362a24.16647,24.16647,0,0,0,6.95728.01638c3.982-.76924,7.33255-3.5034,9.89093-6.65033,8.13693-10.00868,9.37628-23.77363,10.27621-36.64117a8.641,8.641,0,0,0-.50571-4.55908,5.62234,5.62234,0,0,0-5.58-2.6442,12.43929,12.43929,0,0,0-5.9177,2.64813l.50971-.42651c-2.46628-7.38216-.39746-15.442-.85642-23.21168-.14978-2.53571-.97512-5.54557-3.41116-6.26525-2.17032-.64117-4.31543.93247-6.02829,2.41146a15.1126,15.1126,0,0,0-4.03107,4.58561l-.0296-.71023q-.87808-8.73753-1.02957-17.5278a25.27754,25.27754,0,0,0-.5227-5.80777,7.88248,7.88248,0,0,0-3.12952-4.77391c-2.087-1.34314-4.76-1.21434-7.2356-1.03826l-.5.01287a37.37586,37.37586,0,0,0,1.38132-10.23536c-.17664-3.45-1.44064-6.99643-4.11331-9.18522a9.70557,9.70557,0,0,0-13.37534,1.62641c-2.4003,3.20643-2.4927,7.52548-2.48629,11.5308l.03744,23.43187-.08026-.11112c-2.73544-.82785-5.75662.743-7.42072,3.06655s-2.23977,5.23954-2.60519,8.07406a144.93931,144.93931,0,0,0-.76975,19.057l.17658,49.83038"/><path class="cls-7" d="M347.34827,216.62486c7.67205-5.16873,12.34387-13.10809,14.75616-21.92825a92.53024,92.53024,0,0,0,2.54074-15.286c.40531-4.07275,1.75015-9.654-1.2175-13.09894-4.136-4.80131-12.64666-.86958-14.62237,4.23363a5.29,5.29,0,0,0,2.625,7.00556q.04861.02211.09765.04322c3.60788,1.60852,8.67493-.42054,12.1749-1.238,2.34909-.54868,1.35471-4.16532-.99689-3.61605-1.40411.328-6.465,2.33472-7.685,1.63408l-1.55921-4.14248a6.28348,6.28348,0,0,1,2.84064-1.76624,4.38363,4.38363,0,0,1,5.08655,2.963c.58331,2.02859-.21344,5.03526-.41043,7.1008-.29188,3.06019-.62824,6.12-1.15857,9.14935-1.747,9.9789-5.67029,19.85109-14.36432,25.70834-1.991,1.34133-.11621,4.59144,1.8927,3.238Z"/><path class="cls-7" d="M347.4682,215.79529a236.05869,236.05869,0,0,0,5.30582-38.73175q.54313-10.61176.10412-21.24228c-.19043-4.59413.33527-10.706-1.855-14.94072-3.75006-7.25041-14.46173-1.649-15.83212,4.67155-1.9613,9.04592,12.05106,8.19722,16.76694,5.50878,2.09631-1.19509.20916-4.43627-1.8927-3.238-2.6912,1.53421-13.98731,3.31744-9.4682-3.97318a11.6325,11.6325,0,0,1,2.50476-1.95507l5.11718,2.22259c.66242,1.02756.51145,4.70445.59324,5.9173q.71488,10.60116.43655,21.238a229.64431,229.64431,0,0,1-5.39661,43.52589c-.51831,2.35179,3.096,3.35634,3.61606.9969Z"/><path class="cls-7" d="M329.65472,213.17419c2.53721-16.84294,5.28672-33.67007,7.53229-50.55472a207.16744,207.16744,0,0,0,2.0044-23.56642c.11007-6.12625.63574-13.79773-2.34626-19.41481-2.03164-3.82694-6.2492-6.86332-10.76687-5.8154-3.82627.88755-9.42575,5.99811-8.71359,10.29165.712,4.29248,6.54748,4.967,10.00152,4.60046a11.38035,11.38035,0,0,0,9.87665-7.89711c.78116-2.28894-2.83972-3.27168-3.61606-.9969-1.19888,3.513-4.23,5.219-7.83524,5.236-3.58682.01687-5.28167-2.2186-2.73736-4.818,6.78586-6.93264,11.4241,1.1455,12.0838,7.522.94339,9.11854.17648,18.56662-.81775,27.64294-2.08014,18.98957-5.43634,37.88605-8.28152,56.77346-.35562,2.36081,3.2572,3.379,3.616.99688Z"/><path class="cls-7" d="M317.4718,213.236a318.26129,318.26129,0,0,1,.08981-44.04645c1.15424-15.41931,4.734-30.555,4.15708-46.09223-.08933-2.40577-3.83975-2.41749-3.75,0,.5766,15.52959-2.98822,30.68-4.15708,46.09223a316.16833,316.16833,0,0,0-.08981,44.04645C313.87723,215.63209,317.62836,215.64953,317.4718,213.236Z"/><path class="cls-7" d="M308.64255,208.257a268.479,268.479,0,0,1-1.18082-34.35436c.35538-11.28871,2.12354-22.51521,1.588-33.81892-.49807-10.51416-2.20871-21.04942-1.39187-31.59281.46182-5.96109,4.54779-15.60682,12.46182-10.69155,5.452,3.38612,4.10788,12.98831,2.49,18.11044-.72855,2.30658,2.89059,3.29366,3.616.99689,2.63626-8.34627,2.64792-23.02649-9.04032-23.89857-12.713-.94853-13.5921,13.88552-13.46041,22.90279.10891,7.45838,1.039,14.87177,1.47344,22.312.451,7.72334-.15573,15.23318-.77392,22.924a266.69792,266.69792,0,0,0,.468,47.11014c.23068,2.38052,3.983,2.40448,3.75,0Z"/><path class="cls-7" d="M345.63458,213.04513c-3.22186,3.41692-8.87665,2.22028-13.075,1.93012l-16.6701-1.15215c-5.22882-.36137-10.45719-.77864-15.68952-1.08436-1.86993-.10926-1.79642.21954-2.46219-1.12071-.42419-.8539-.05215-3.02581-.06891-3.99695l-.155-8.99315c-.1828-10.60565-.39707-21.21129-.54749-31.81745a108.10608,108.10608,0,0,1,.64493-16.22366,53.34912,53.34912,0,0,1,1.61059-7.72407,16.06009,16.06009,0,0,1,1.36823-3.79221q.66435-2.25365.61282-.35481.618,2.4474-2.98013.41012c-2.35956-.42683-3.37177,3.18645-.99689,3.616,4.50385.81471,11.74256.84661,12.20566-5.39592.31348-4.22561-4.10013-6.36072-7.715-4.891-5.95825,2.42258-7.13394,12.47406-7.84735,17.879-1.19189,9.02987-.62359,18.23434-.46716,27.30989l.49951,28.9779c.04111,2.38543-.86026,6.5562.96469,8.562,1.66193,1.82666,5.0578,1.2858,7.2948,1.44041l28.43723,1.96543c5.88806.407,13.15451,1.91482,17.68777-2.89292,1.65494-1.75515-.99185-4.412-2.65164-2.65165Z"/><path class="cls-7" d="M326.14548,211.06413a12.86067,12.86067,0,0,0-1.21582,4.91843,1.875,1.875,0,1,0,3.75,0,8.05526,8.05526,0,0,1,.70382-3.02573,1.93,1.93,0,0,0-.67266-2.56535A1.89028,1.89028,0,0,0,326.14548,211.06413Z"/><path class="cls-7" d="M313.7774,213.16321l.094,1.64074a1.875,1.875,0,0,0,3.75,0l-.094-1.64074a1.875,1.875,0,0,0-3.75,0Z"/><path class="cls-7" d="M304.855,207.98828l.3093,6.8163c.109,2.40327,3.85965,2.4167,3.75,0l-.3093-6.8163C308.496,205.585,304.74536,205.57158,304.855,207.98828Z"/><path class="cls-8" d="M184.8465,91.69509c.5363-1.06456,2.02581-1.1384,3.19372-.8999a7.44866,7.44866,0,0,1,3.19,1.36324,1.40724,1.40724,0,0,1,.6358,1.016l-.03877-.014c.03194-.73874-.81691-1.15886-1.52483-1.37246a5.73842,5.73842,0,0,0-3.95286-.17681,4.01008,4.01008,0,0,0-2.10964,3.43425,10.97319,10.97319,0,0,0,.75946,4.13739c1.59972,4.86865,3.63573,9.72718,7.10395,13.5,1.13229,1.23174,2.4606,2.42774,2.85713,4.05316a34.86481,34.86481,0,0,1-4.37637-1.03192c-1.47268-.2921-3.207-.13939-4.16269,1.01853-1.35375,1.64023-.36138,4.11622.85566,5.8603a29.24706,29.24706,0,0,0,10.22016,9.05216c2.778,1.47531,6.04806,2.74249,7.34936,5.60609a11.58616,11.58616,0,0,1,.72878,4.51868l.12713,4.73233a10.35815,10.35815,0,0,0-2.93177-1.84938,3.51,3.51,0,0,0-3.31542.37038c-1.10614.88473-1.29568,2.47654-1.28952,3.893a27.49186,27.49186,0,0,0,.52341,5.21884l.02864-.16969a3.703,3.703,0,0,1,1.18147,5.10182q-.05749.09213-.1203.18077a1.95039,1.95039,0,0,0-.18381-2.36679,5.69965,5.69965,0,0,0-2.11647-1.41374l-3.61548-1.69359a2.72567,2.72567,0,0,0-1.5442-.37663c-1.0199.1649-1.48791,1.37182-1.5657,2.402-.367,4.86,3.52958,9.0242,7.70689,11.535-1.80569-1.13923-4.38467.387-4.92392,2.45284s.41766,4.24551,1.71825,5.93871a15.35445,15.35445,0,0,0,14.58822,5.632,123.51851,123.51851,0,0,0-6.63638,19.63728c-1.55315-1.64036-1.6814-4.11186-2.24725-6.29883-1.77434-6.8576-8.23342-11.43394-14.69709-14.33155.76726-2.51094,1.54342-5.1126,1.22641-7.71894-.4561-3.75-3.05917-6.82-5.34222-9.82966s-4.4435-6.604-3.80261-10.3268c.54663-3.17535,3.02864-5.69454,3.91882-8.79118a2.07114,2.07114,0,0,0,.07335-1.1924,2.19157,2.19157,0,0,0-.86012-.99956,17.64051,17.64051,0,0,0-4.79575-2.54185,3.54414,3.54414,0,0,1-1.68684-.91834,3.07615,3.07615,0,0,1-.50406-1.83714c-.23694-5.12476.69168-10.50329-1.31792-15.22352a6.8734,6.8734,0,0,0-3.7888-4.02613c-1.79846-.61021-4.14838.25787-4.61774,2.09812a5.59074,5.59074,0,0,0,.19626,2.65686l1.03438,4.32056c-.68767-1.79435-3.31708-2.18061-4.88021-1.06292a6.19471,6.19471,0,0,0-2.17074,5.10641,11.52152,11.52152,0,0,0,4.564,9.11731,30.03215,30.03215,0,0,1-7.37733,2.14319l.52039.153a5.903,5.903,0,0,1-2.80663.47359c-2.44322-.18977-4.59737-1.87994-7.04616-1.97356l-.49017.102a151.45128,151.45128,0,0,0,1.9957-22.37,10.36551,10.36551,0,0,0-.78508-4.99264,13.67836,13.67836,0,0,0-2.68387-3.11219,24.53794,24.53794,0,0,1-5.104-7.49214c-.87115-1.995-1.35049-4.62519.249-6.102,1.57776-1.45677,4.22859-.76658,5.827.66745s2.58332,3.43062,4.068,4.98218l-.02158-9.37687a13.32815,13.32815,0,0,1,.50545-4.50082,4.51834,4.51834,0,0,1,3.1121-3.04432c2.17409-.44549,4.26635,1.44757,4.87992,3.58032s.1532,4.40706-.26273,6.587-.77377,4.4962.02239,6.56771a8.06222,8.06222,0,0,1,3.44128-3.0723,2.12605,2.12605,0,0,1,.979-.25462,1.95934,1.95934,0,0,1,1.18325.59323c2.16482,1.99275,2.00424,5.56311.67422,8.18771s-3.56047,4.6628-5.3114,7.02749a22.69349,22.69349,0,0,0-3.417,19.78l-.07078-.53642q.23368,3.75558.76462,7.48475l7.55221-1.82316a6.075,6.075,0,0,1,1.88709,5.15974,27.6803,27.6803,0,0,1-1.30223,5.54859,33.95909,33.95909,0,0,0-1.21785,10.30371,4.74739,4.74739,0,0,0,.80751,2.92074,7.19432,7.19432,0,0,0,1.68693,1.254c4.287,2.82335,5.14891,8.857,4.15842,13.89368s-3.37921,9.74821-4.05158,14.83714a35.91639,35.91639,0,0,0-.10606,6.93414,14.99737,14.99737,0,0,0,.96411,5.07718c1.58411,3.64765,5.53685,5.62049,9.32,6.84633a56.064,56.064,0,0,0,24.7191,2.04349c2.22224-.301,4.54347-.77712,6.23737-2.24669,2.00428-1.73884,2.72668-4.50346,3.21791-7.111,1.02511-5.44164,1.51394-11.03954,3.49379-16.21086,4.15821-10.86121,14.36726-18.54973,18.50657-29.41817,2.27066-5.962,2.5497-12.4669,2.83675-18.84023a33.037,33.037,0,0,1,1.05455-8.13682,11.25255,11.25255,0,0,1,4.691-6.52975l.26241-.36724a36.21055,36.21055,0,0,0,1.192-23.10366c-.33842-1.19263-.847-2.49372-1.97536-3.0072a3.13155,3.13155,0,0,0-3.49783,1.04775,9.16965,9.16965,0,0,0-1.59326,3.54524l-3.21793-8.80954a4.08677,4.08677,0,0,0-1.31811-2.11045,2.61011,2.61011,0,0,0-1.63184-.38747c-2.054.13578-3.64421,2.08-3.97647,4.11145a10.56151,10.56151,0,0,0,1.18324,5.96794c-1.61288-1.45905-4.40706-.87933-5.76436.82007a7.07569,7.07569,0,0,0-.9151,6.219,26.7571,26.7571,0,0,0,2.79743,5.87425,63.6673,63.6673,0,0,1,4.9655,11.397l-.1984.48207a4.601,4.601,0,0,0-4.69624.65657,9.81853,9.81853,0,0,0-2.87575,4.01725c-1.6069-.763-1.38554-3.24808-2.66281-4.48621-1.27-1.23106-3.3499-.71787-5.02432-.14808a1.13774,1.13774,0,0,1-.80718.06612c-.33511-.1465-.44279-.56077-.50479-.92121a43.90716,43.90716,0,0,1,5.18494-29.09783c.64989-1.12715,1.37237-2.46154.852-3.654a2.6762,2.6762,0,0,0-3.06337-1.26821,6.50469,6.50469,0,0,0-2.972,1.94489,25.48782,25.48782,0,0,0-3.27919,4.05816,78.21971,78.21971,0,0,0-3.03811-16.48253,6.35038,6.35038,0,0,0-1.69618-3.17583,9.83843,9.83843,0,0,0-7.12491-.82462c-1.85738.834-2.53681,3.10382-2.78829,5.12424a28.93413,28.93413,0,0,0,.95906,11.72557,1.12469,1.12469,0,0,1-1.09869-.88456"/><path class="cls-8" d="M186.61427,93.46285a2.71025,2.71025,0,0,1,3.09305.97332l2.82327-3.67249c2.11373.76145-.52244-.96814-1.265-1.26043a9.20237,9.20237,0,0,0-3.96345-.63348,6.21726,6.21726,0,0,0-5.51759,5.84332c-.3617,3.53338,1.47963,7.42322,2.83816,10.55693a35.8871,35.8871,0,0,0,3.211,6.01032c1.36768,2.00292,3.82759,3.88038,4.716,6.12024l3.07531-3.0753c-3.32442-.55685-7.05263-2.36536-10.12494-.05918-3.04073,2.28246-2.44912,6.08322-.7249,9.0177a29.183,29.183,0,0,0,9.48245,9.34437c2.05107,1.30814,4.5972,2.107,6.45393,3.68241,2.97263,2.52226,2.39614,6.6549,2.49088,10.18156l3.76179-2.15868c-2.657-2.00488-6.347-3.64953-9.27676-1.0881-3.1088,2.718-1.98554,8.05319-1.40906,11.54417.39473,2.39032,4.41912,2.38364,4.8214,0l.02864-.16967L196.95,155.723l.67025,2.253,4.56939,1.92639c.85521-3.2449-.718-5.05679-3.44918-6.60379-2.63246-1.49109-6.71226-3.798-9.22662-.95923-5.1895,5.85906,3.21107,14.25234,7.68452,17.14336l1.92641-4.56937c-6.32283-2.08633-9.59762,4.82093-7.25,9.97336,3.03824,6.66809,11.03426,9.83551,17.96793,8.96093l-2.15868-3.7618a139.50433,139.50433,0,0,0-6.8884,20.23448l4.56937-.5972c-1.63428-2.2646-1.65852-5.12927-2.67744-7.68367a19.52119,19.52119,0,0,0-3.1233-5.24063c-3.196-3.86246-7.54888-6.50868-12.04046-8.603l1.14889,2.82327c1.26587-4.24216,1.97866-8.19765.2412-12.40894-1.9241-4.66371-6.522-7.92289-7.72363-12.88333-1.26888-5.23791,4.39256-8.3231,3.64547-13.23134-.54614-3.588-4.50993-3.87623-6.85673-5.70491-2.35758-1.83708-.82634-9.20427-1.33145-12.41-.59026-3.746-2.21418-8.028-6.00353-9.59032a6.44846,6.44846,0,0,0-7.15948,1.50559c-2.51876,2.892-.66649,7.1921.09988,10.39323l4.56937-1.9264c-2.749-4.01091-8.09686-3.70879-10.53144.56254-3.02371,5.305-.09408,12.00668,4.118,15.62782l1.10317-4.17846a36.91427,36.91427,0,0,1-7.37734,2.1432c-2.53779.462-2.21672,4.16988,0,4.8214l.52039.153v-4.8214c-3.643,1.08276-6.71822-2.152-10.343-1.398l3.07531,3.07531c.71876-4.53965,1.30542-9.0954,1.6573-13.67943.324-4.2205,1.13875-9.26219.113-13.42559-.92363-3.74865-4.29914-5.774-6.39653-8.80454-1.00113-1.44652-4.19706-5.66559-1.23757-7.01986.91919-.42062,4.37285,4.56942,5.252,5.61325,1.43648,1.70543,4.27248.27527,4.26776-1.76777-.00575-2.50045-.0195-5.001-.01726-7.5015.00145-1.61882-.66195-9.1653,3.30007-5.8125,1.64345,1.39074-.15731,6.38253-.35358,8.21385a14.90553,14.90553,0,0,0,.39562,5.57776c.5722,2.2918,3.35719,2.19709,4.56936.59719q3.79726-.61889,2.20345,2.35225l-.97669,1.84584a44.02675,44.02675,0,0,1-3.27778,4.09449,26.56815,26.56815,0,0,0-3.95374,6.40523,25.991,25.991,0,0,0-1.01509,16.96645c.69357,2.6355,5.288,2.19476,4.91071-.6646l-.07079-.53642c-.408-3.09184-5.23683-3.28076-5,0,.181,2.50673.435,4.99321.76462,7.48475a2.54739,2.54739,0,0,0,3.16459,2.41071l7.55222-1.82317-2.43237-.64292c2.92244,3.25-.87374,11.00683-1.232,14.90988-.3489,3.80121-.46747,7.22314,2.4513,9.90312,3.7725,3.4639,5.05032,6.64674,4.15762,11.8351-.87218,5.06913-3.304,9.72491-4.05157,14.83712-1.11734,7.64043-.25806,15.77678,6.99316,19.847,7.75114,4.35087,18.06734,5.23352,26.76016,4.59269,7.49239-.55232,13.187-2.36979,15.15073-10.25572,1.22445-4.91731,1.46249-10.02036,2.89914-14.9007,1.50575-5.11508,4.38777-9.46835,7.547-13.69769,5.077-6.79669,10.66285-13.2518,12.877-21.64381A66.90381,66.90381,0,0,0,237.44,142.46872c.12556-2.40042.14045-4.81992.50219-7.19971.58953-3.87849,1.9448-5.3847,4.38189-8.1168,5.04551-5.65629,4.39468-17.63774,2.77034-24.47-.73623-3.0966-2.20057-6.839-6.05231-6.6605-3.64057.1687-5.33038,3.59079-6.25553,6.61756h4.8214c-1.53694-4.208-2.84268-14.01007-9.24293-13.05353-6.45255.96437-6.4547,8.50091-4.53933,13.15469l3.6725-2.82328c-4.88026-2.86091-10.14448.51688-10.67692,5.94426-.32276,3.29009,1.07872,6.13214,2.5703,8.96556,1.08511,2.06131,2.24887,4.05812,3.20477,6.18813.12466.27779,2.33775,4.64586,2.11442,5.18856l3.07529-1.7461c-4.84534-1.46383-8.37961,1.64765-10.39525,5.82271l3.92644-.506c-2.05447-1.70647-1.518-4.27466-4.25413-5.49975-1.10087-.49289-6.27594-.00782-4.102,1.11355-1.55708-.8032-.30373-11.00293-.11617-12.34275a41.02015,41.02015,0,0,1,3.49273-11.86342c1.66624-3.51313,5.27122-8.66477.16639-11.17044-4.89352-2.402-9.03924,3.40808-11.38995,6.7624l4.65868,1.26179c-.6861-7.88325-.66974-22.74543-11.12009-23.28112-10.76-.55157-9.33673,13.25611-7.4791,20.31263l3.07529-3.07529.39539.26435c-1.68982-2.7312-6.01682-.22317-4.31736,2.52359a4.15854,4.15854,0,0,0,2.59276,2.03345c1.85179.65286,3.53243-1.33884,3.0753-3.07529a28.75127,28.75127,0,0,1-1.08856-7.68506,22.55449,22.55449,0,0,1,.33774-3.94q3.42291-4.772,6.57974.10492c1.14427,1.75276,1.38637,5.205,1.78725,7.2432a80.45374,80.45374,0,0,1,1.16162,8.57464,2.5235,2.5235,0,0,0,4.65868,1.26181c.3594-.51285,2.23625-3.75547,3.51674-3.57831,1.28326.17753-.466,1.97052-.92789,2.93916a47.53959,47.53959,0,0,0-2.65022,6.84469,46.359,46.359,0,0,0-1.876,15.55918c.12765,2.43148-.16077,7.00758,2.59791,8.19637,1.57993.68084,3.10717-.68661,4.57908.01284,1.37057.65129,1.78564,2.93783,3.11068,4.03842,1.13513.94285,3.16812,1.06476,3.92644-.506.857-1.77521,1.97472-4.363,4.7487-3.52493a2.569,2.569,0,0,0,3.07529-1.7461c1.00249-2.43586-1.29759-6.02033-2.26321-8.226-.94443-2.15725-2.02655-4.228-3.158-6.29149a24.35684,24.35684,0,0,1-1.66206-3.35763c-.25095-.68765-2.26892-8.23393,2.52569-5.42322,1.71425,1.00493,4.53991-.71578,3.6725-2.82328a15.54142,15.54142,0,0,1-1.03613-2.92468q2.48238-3.23349,2.92326-.68472c1.1366,1.11575,1.69951,4.65264,2.25257,6.16668a2.52316,2.52316,0,0,0,4.82139,0c.26767-.87571.43058-2.635,2.24506-1.5858.2889.16706.52344,2.11261.59074,2.45208a34.23322,34.23322,0,0,1,.66663,6.85146c-.019,3.49068-.21414,9.1074-2.3286,12.05735-1.385,1.93227-3.27333,2.95293-4.362,5.41583a26.55112,26.55112,0,0,0-1.77546,9.04982c-.58283,8.63721-.71453,16.94536-5.22269,24.64014-3.59816,6.14152-8.61186,11.29991-12.4147,17.304-4.26169,6.72848-5.50684,13.96312-6.86643,21.688-.79875,4.53838-1.654,8.154-6.69438,9.22237a53.18721,53.18721,0,0,1-25.99316-2.2729c-5.195-1.98955-7.05512-5.33466-7.27164-10.81084-.31667-8.0091,4.12829-14.77934,4.578-22.61766a17.46357,17.46357,0,0,0-1.62981-8.83591c-1.69123-3.28027-5.0599-4.55852-5.37446-8.38634-.60194-7.325,5.696-14.61918-.08141-21.044a2.5068,2.5068,0,0,0-2.43237-.64293l-7.55222,1.82316,3.1646,2.41071c-.32966-2.49155-.58366-4.978-.76462-7.48476h-5l.07079.53643,4.9107-.6646a20.819,20.819,0,0,1,3.683-18.50694c2.45316-3.16082,5.34635-5.91668,5.96126-10.05831.44855-3.02105-.40324-6.72436-3.33072-8.22059-3.44975-1.76316-6.46783,1.33429-8.4324,3.92718l4.56936.5972c-1.14556-4.58832,1.75925-9.2034-.01167-13.75191-1.10444-2.83674-3.84271-5.17556-7.03859-4.81852-8.329.93058-6.10837,14.03673-6.096,19.422l4.26778-1.76777c-2.77137-3.29027-5.52924-8.13175-10.662-7.01007-4.069.88921-5.13734,4.99381-4.1226,8.63586,1.584,5.68543,7.5722,9.03161,8.92873,14.4755.8135,3.26469-.15586,7.731-.41056,11.071-.3157,4.1399-.82948,8.24991-1.4787,12.35024a2.53952,2.53952,0,0,0,3.07531,3.0753c1.23475-.25683,3.57507,1.289,4.77122,1.60245a9.89386,9.89386,0,0,0,5.57175-.20445,2.52135,2.52135,0,0,0,0-4.8214l-.52039-.153v4.8214a36.915,36.915,0,0,0,7.37734-2.14321c1.5771-.63978,2.68263-2.8206,1.10316-4.17846a10.15969,10.15969,0,0,1-3.05479-3.94494,4.472,4.472,0,0,1-.61837-2.24652q-.78861-2.53247,2.23368-3.93978a2.51211,2.51211,0,0,0,4.56936-1.9264c-.11375-.47515-1.37255-3.87574-1.03437-4.32055,2.578-3.39086,4.09161,2.53833,4.33836,3.83468.71477,3.75531-.17694,7.57137.27914,11.32459.19765,1.62637.447,2.88354,1.74227,3.99582,2.31234,1.98573,6.5453,1.185,4.96521,5.38264-1.90052,5.04891-4.10111,8.05391-1.68433,13.5892,1.33588,3.05965,3.553,5.45951,5.423,8.18168,2.92184,4.25332,2.8518,7.53094,1.41618,12.342a2.51994,2.51994,0,0,0,1.14889,2.82327c4.25954,1.98608,8.72316,4.46769,11.47007,8.42384,2.42453,3.49187,2.11908,7.90318,4.57739,11.30966,1.19031,1.64942,3.99852,1.64313,4.56937-.5972a131.26357,131.26357,0,0,1,6.38435-19.04007c.63635-1.49551-.041-4.02891-2.15868-3.76179a14.03414,14.03414,0,0,1-7.763-.95457,11.40583,11.40583,0,0,1-3.20843-2.04009c-.10018-.09071-5.58661-7.6067-1.07569-6.11822,2.78382.91857,4.228-3.08194,1.92641-4.56937a15.62426,15.62426,0,0,1-5.45879-5.20139c-2.97871-5.33886,3.24982-1.94,3.10506-1.39079-.70218,2.66426,3.252,4.51938,4.56938,1.92639,1.527-3.00549,1.20084-6.05836-1.45208-8.31216-1.28214-1.08924-3.83814-.91342-4.17847,1.10316l-.02864.1697h4.82139c-.41906-2.53768-.79168-7.9278,3.34081-4.80953,1.53866,1.161,3.80865-.41441,3.76179-2.15868-.18048-6.71769-.0276-11.78881-6.39679-15.42584-3.31529-1.89316-6.52621-3.44562-9.29861-6.17214-1.10033-1.0821-3.65564-3.13117-3.75764-4.69482-.242-3.70924,3.60618-1.37767,5.54643-1.05267,1.652.27671,3.85341-1.11353,3.07528-3.0753-1.65039-4.16092-5.36119-6.94512-7.35316-10.99453-.80463-1.63569-3.38031-6.05035-3.02257-7.9144l2.67314-2.74023.39092.506c.03168-.00035.95456.58939,1.14194.65689,2.06646.74443,3.93417-1.89743,2.82327-3.67249-2.27113-3.629-7.6644-5.07409-10.94594-1.98526-2.348,2.2101,1.19258,5.7409,3.53554,3.53553Z"/><path class="cls-9" d="M148.44627,140.00868c.72579-4.65,1.2916-9.31493,1.58367-14.01423.22413-3.60634.71687-7.65685-.65456-11.10869-1.56726-3.94478-5.63612-5.58442-7.991-8.93348-1.47236-2.094-5.0362-9.53656,1.21868-10.18371,3.53956-.36622,5.70592,4.13981,7.07214,6.60458a1.25556,1.25556,0,0,0,2.28468-.9632c-1.31094-4.14137-3.48147-11.62112,1.0391-14.82261,4.74148-3.358,4.25764,2.36883,4.42309,4.85207a40.88559,40.88559,0,0,1-.53968,9.2,1.26814,1.26814,0,0,0,1.83624,1.41164c.87753-.46472,2.15826-1.9986,2.96087-2.219,6.704-1.84122,1.81163,7.69753.5298,9.23548-2.02,2.42361-4.50224,4.42974-5.9387,7.2962-3.4539,6.89223-1.37405,17.13486-.65936,24.4473.15507,1.5867,2.65664,1.60278,2.5,0-.64231-6.57189-2.19381-14.95642-.3525-21.42523,1.47791-5.19214,6.85341-7.78916,8.92211-12.65284,1.23781-2.91018,1.5439-6.924-1.139-9.16957-3.23953-2.71147-5.36594.88906-8.085,2.329l1.83625,1.41163c.61421-3.85185,3.13969-19.627-4.15531-18.59616-9.0814,1.28328-7.43454,13.53514-5.58858,19.36669l2.28469-.96321c-2.09383-3.77739-4.91263-8.10157-9.798-7.80677-3.74267.22586-5.65205,3.165-5.47781,6.728.24606,5.03155,3.59956,8.43009,7.02859,11.61608,3.90493,3.62816,4.28328,7.29222,4.05138,12.38108a140.86032,140.86032,0,0,1-1.6024,15.31435c-.24567,1.57394,2.16293,2.252,2.4107.6646Z"/><path class="cls-9" d="M166.29991,152.43312c.647-3.76712,1.75383-8.97487-.09659-12.52817-.79364-1.524-2.69532-2.38388-3.662-3.783a13.12855,13.12855,0,0,1-1.52946-3.561,12.23938,12.23938,0,0,1-.54125-2.47581q-1.06107-3.21294,4.11376-3.0997c.73234.62635,2.252.29067,2.13389-.88388-.1454-1.44571-.27012-2.88659-.31428-4.34-.07282-2.3958-.52442-2.43033,2.13-3.37981q2.83667-2.10181,4.44727,1.46007l1,2.22422a15.82818,15.82818,0,0,1,.54333,4.081c.154,3.906-1.76617,9.701.35529,13.31262a3.3689,3.3689,0,0,0,1.526,1.41283c.46744.22232,1.093.0705,1.52763.296l1.15462.02536,1.47029,3.816c-.0426,1.39253-1.83182,4.17957-2.1719,5.66077a18.42645,18.42645,0,0,0-.46009,5.27578c.22512,3.49579,1.64067,5.7051,3.64833,8.38422a26.429,26.429,0,0,1,3.52753,6.89406c.74049,2.08481,1.48482,4.7455.93578,7.0372-.20966.87515-1.20937,1.95381-1.54277,2.76141-1.74463,4.22594-.9424,9.48711-.8913,13.92136l.21548,18.70048a1.25075,1.25075,0,0,0,2.5,0l-.27218-23.62165c-.02063-2.07318-.24378-4.61724.2781-6.61852.53-2.03224,1.80751-3.32445,2.53394-5.20128a7.07385,7.07385,0,0,0-.06371-5.22665,62.72354,62.72354,0,0,0-3.05531-7.05187c-1.37622-2.77465-3.96683-4.51226-4.897-7.5998-1.1503-3.81823-.06615-7.92823,1.55324-11.41846.73289-1.57958,1.67987-2.86981,1.32336-4.70049a4.58972,4.58972,0,0,0-1.84755-2.76034,5.78381,5.78381,0,0,0-1.65625-.6384c-2.9725-1.15362-3.52908-.8008-3.59682-4.28265-.10273-5.28031,1.59716-11.14607-1.47944-15.945-1.6776-2.61677-5.44356-5.23586-8.69045-3.89762-4.04881,1.66877-2.55594,8.18975-2.23115,11.41914l2.13388-.88389c-3.57418-3.05684-8.47179-1.056-8.55887,3.752a16.44529,16.44529,0,0,0,2.58938,8.41405c.94384,1.46624,2.27964,2.42892,3.15787,3.94888,1.7322,2.99789.91727,7.12547.34876,10.43591-.27024,1.5736,2.1385,2.24961,2.41069.6646Z"/><path class="cls-9" d="M164.03229,151.49c-1.79634,3.40913-4.64275,11.21853-.582,14.28252,1.15907.87455,1.32782.16691,2.506.85925,3.87826,2.27911,3.61819,4.87254,3.2729,8.55971a118.08472,118.08472,0,0,1-2.5596,13.73219c-1.21677,5.65542-3.63162,12.92973.0311,18.11841,4.00152,5.66865,11.98294,7.86937,18.51568,8.20462,1.608.0825,1.6035-2.41773,0-2.5a25.848,25.848,0,0,1-11.66618-3.17548c-5.2728-3.003-6.74829-7.03454-5.84595-12.95238.945-6.19726,2.73894-12.23231,3.64435-18.4382.52-3.56439,1.43761-8.48167-.92755-11.65578a7.00525,7.00525,0,0,0-2.641-2.0234c-2.37533-1.39923-3.79774-.99967-3.70765-4.45606a16.42117,16.42117,0,0,1,2.1186-7.29359c.74944-1.42229-1.40757-2.68726-2.15867-1.2618Z"/><path class="cls-9" d="M146.99435,141.65347a40.96215,40.96215,0,0,0,9.66283,1.671c1.60777.08549,1.60307-2.41477,0-2.5a38.1035,38.1035,0,0,1-8.99823-1.58173,1.25108,1.25108,0,0,0-.6646,2.41071Z"/><path class="cls-9" d="M212.92284,180.35626a20.2363,20.2363,0,0,1-13.07531-2.76462c-1.40435-.86854-5.44407-3.5366-5.717-5.41733-.69895-4.81578,6.60792-2.26942,8.17183-1.7714,1.326.42225,2.2613-1.6796.96319-2.28469-3.109-1.44917-6.41879-2.90185-8.84837-5.40725-1.37817-1.42121-5.25969-6.36342-.92812-7.41036,1.57741-.38125,5.19933,2.76108,6.05132,3.5212a1.25574,1.25574,0,0,0,1.96323-1.51479c-1.01688-2.00018-2.6595-5.28081-2.32476-7.70174q-1.12026-3.86961,4.71108-2.3152.61775,1.01523,1.16447,2.07a89.88289,89.88289,0,0,1,5.44615,12.16374c1.19663,3.29645,2.768,6.97087,3.14783,10.46126.54857,5.041-2.27841,5.75865-2.59709,9.80066-.12648,1.60413,2.37418,1.59589,2.5,0,.20126-2.5528,2.76689-3.96094,2.98515-6.67976.24-2.98961-1.05644-6.24044-1.90236-9.06093-1.98428-6.61606-4.55029-14.33036-8.58548-20.01679-1.83038-2.5794-5.312-5.02351-8.14563-2.241-3.54626,3.48226-.33181,11.29258,1.442,14.78155l1.96323-1.51479c-2.426-2.16441-10.86275-7.83192-12.36919-1.67533-1.80495,7.37652,7.95273,12.51533,13.0648,14.89819l.9632-2.28468c-4.472-1.42411-15.58958-2.415-10.9951,5.44389,4.10751,7.02591,13.22584,10.25581,20.951,9.42015,1.58261-.17119,1.6001-2.67308,0-2.5Z"/><path class="cls-9" d="M207.44637,148.3242c.44148-5.02145-.03962-12.54927-4.63814-15.72108-3.06822-2.11629-6.72554-2.58173-9.714-5.0865a19.61947,19.61947,0,0,1-3.917-4.38006,11.43628,11.43628,0,0,1-1.6466-3.45314q2.11435-5.47419,6.04346-2.61155c1.0414.46968,2.45412-.55869,1.71024-1.71022-2.70815-4.19228-5.88878-8.35583-8.01517-12.88961a17.896,17.896,0,0,1-1.40207-4.09124c-.18332-.94052-.67955-5.17827.19576-5.84516,2.1697-1.65307,5.10717.58219,7.097,1.3739.9831.39116,1.6725-.71328,1.53764-1.53765-.4186-2.559-.958-5.134-1.19888-7.71774a11.07385,11.07385,0,0,1,.01452-3.978l5.50125-3.16709c2.31864.01191,4.14182,2.83261,4.98758,4.59627,2.28809,4.77136,1.72065,10.45548,3.36164,15.46932a1.26324,1.26324,0,0,0,2.08923.55158c.67274-.6978,3.74213-4.78717,4.60439-4.77591,3.45428.04515,1.53352,3.538,1.03932,4.85167-1.35,3.58862-3.25106,6.95385-4.47672,10.593-2.33134,6.92217-1.37083,13.97531-.32809,21.04493a232.39407,232.39407,0,0,0,4.58647,23.90477c2.25915,8.8129,4.47884,18.23384-1.48,26.13214-.96908,1.2845,1.20063,2.53169,2.15868,1.26179,5.68889-7.54051,4.55415-16.85661,2.39543-25.48609-2.80542-11.21463-5.41669-22.75458-6.23041-34.3221-.456-6.4821,1.12586-11.77919,3.71271-17.6308,1.34432-3.04091,3.78207-7.01981,3.35317-10.465-1.03724-8.33146-9.14454,1.09272-11.10273,3.12384l2.08924.55159c-2.29425-7.00975-.87969-21.3476-11.52884-22.01793-10.12413-.63728-6.91614,12.2911-5.95867,18.14437l1.53765-1.53765c-2.45906-.97842-4.76665-4.37432-7.81707-2.95308-1.93775.90284-2.47334,3.37218-2.725,5.26622-1.14128,8.58808,5.50188,16.09079,9.84332,22.81146l1.71024-1.71024c-2.54663-1.14853-5.98537-2.5242-8.40685-.326-2.27522,2.06542-1.66127,5.43115-.495,7.89847a21.96806,21.96806,0,0,0,8.82264,9.21959c2.82642,1.63863,4.94257,1.971,7.19271,4.62835,3.04954,3.60135,3.40576,7.34085,2.99695,11.99058C204.80548,149.92653,207.30632,149.91707,207.44637,148.3242Z"/><path class="cls-9" d="M213.24437,128.15159c1.332-3.109,3.82056,1.32172,4.19585,1.95037.55525.93,1.059,1.89517,1.5872,2.84056a1.26172,1.26172,0,0,0,2.15868,0c.80409-1.36005,3.33078-7.008,5.6226-4.55956,1.10181,1.17711,2.867-.59346,1.76778-1.76777-3.99227-4.26513-7.77851,2.07081-9.549,5.06552h2.15868c-1.25591-2.24765-2.52187-5.64432-5.13851-6.66706a3.77665,3.77665,0,0,0-4.96191,1.87613c-.62671,1.46277,1.52627,2.73786,2.15868,1.2618Z"/><path class="cls-9" d="M225.36279,155.302a38.41263,38.41263,0,0,0,4.47237-24.21243,37.3092,37.3092,0,0,0-3.51814-11.2665c-1.06969-2.14474-2.48081-4.022-3.74045-6.05015a19.647,19.647,0,0,1-2.2114-4.06468q-1.58844-3.03853,1.64679-4.69475,1.83077-4.26156,3.90219-.56049l2.28469-.96319a20.77954,20.77954,0,0,1-1.60346-4.3705q6.03546-7.04675,6.60674-2.03023c.72891,1.92461.55136,4.21751,1.3015,6.21794a1.266,1.266,0,0,0,2.08923.55158c1.84682-1.85586,3.90826-5.72609,6.18364-.77036,1.32722,2.89071.855,7.79856.58144,10.9245-.41675,4.76159-1.42748,8.61243-4.28437,12.44932a21.61229,21.61229,0,0,0-2.81041,4.6056c-1.96577,4.6535-1.84437,9.86158-2.30169,14.79913a46.94057,46.94057,0,0,1-6.21448,19.65515c-4.96538,8.49126-11.94216,15.86191-15.29382,25.24591-2.20423,6.17142-.51351,15.87958-5.68035,20.34842-5.098,4.40929-15.26291,3.248-20.95474,1.37112-1.53146-.505-2.18793,1.90839-.6646,2.41071a29.11556,29.11556,0,0,0,20.46433-.48711c6.77572-2.825,6.78193-8.01091,7.48813-14.62773,1.64-15.36639,13.83621-25.06123,19.67981-38.632,3.12875-7.266,3.33368-14.6111,4.223-22.31421.95951-8.311,7.15622-13.48211,8.477-21.68343.76518-4.75134,1.732-14.65219-1.80121-18.71575-3.86668-4.44712-6.38593,1.16728-8.85944,3.65293l2.08924.55159c-1.49376-3.98346-1.20475-13.78009-8.2195-12.06184-6.75925,1.65566-4.59676,9.77259-2.65465,14.171.56929,1.2893,2.74266.372,2.28468-.96321a5.34833,5.34833,0,0,0-7.54629-3.0728c-4.15457,2.10994-3.793,7.5886-2.18271,11.17788,1.2607,2.81016,3.36376,5.16577,4.85655,7.85109a34.48236,34.48236,0,0,1,3.699,10.34768,35.77566,35.77566,0,0,1-3.94728,23.94794c-.77715,1.41,1.381,2.67268,2.15867,1.26179Z"/><path class="cls-9" d="M209.12039,180.86459c-1.91093,2.247-2.41287,5.10361-3.25328,7.886l-3.79889,12.57726,2.28469-.2986c-1.42284-2.09142-1.39489-4.92285-2.07239-7.30171a27.05182,27.05182,0,0,0-2.51917-6.347c-2.43229-4.0629-7.35063-4.04351-10.82081-6.88677-1.23474-1.01167-3.01352.74706-1.76778,1.76776,3.56393,2.92008,8.667,3.34522,10.99,7.488,2.17849,3.88529,1.574,8.92914,4.03149,12.54144a1.26724,1.26724,0,0,0,2.28468-.2986l2.78585-9.22332c.92352-3.05756,1.54043-7.68753,3.62338-10.1368,1.03667-1.219-.7235-2.99566-1.76778-1.76776Z"/><path class="cls-10" d="M109.16322,203.17772a11.62115,11.62115,0,0,0,3.08149.5903l35.45494,3.51591a22.75645,22.75645,0,0,0,6.5516.01543c3.74986-.7244,6.905-3.29913,9.31421-6.26254,7.66246-9.42508,8.82954-22.38742,9.677-34.50466a8.13742,8.13742,0,0,0-.47621-4.29324,5.29449,5.29449,0,0,0-5.25467-2.49,11.71394,11.71394,0,0,0-5.57262,2.49372l.48-.40166c-2.32248-6.9517-.37427-14.54156-.80647-21.85821-.14105-2.38785-.91828-5.22222-3.21227-5.89992-2.04376-.60379-4.06379.8781-5.67679,2.27084a14.23131,14.23131,0,0,0-3.796,4.31824l-.02786-.66881q-.82689-8.228-.96955-16.50577a23.80371,23.80371,0,0,0-.4922-5.46911,7.42276,7.42276,0,0,0-2.94707-4.49555c-1.96531-1.26482-4.48243-1.14352-6.8137-.97771l-.47089.01213a35.19741,35.19741,0,0,0,1.30077-9.63855,11.87356,11.87356,0,0,0-3.87348-8.64965A9.13965,9.13965,0,0,0,122.038,95.81047c-2.26033,3.01947-2.34735,7.08668-2.34133,10.85845l.03526,22.06558-.07559-.10465c-2.576-.77957-5.421.69969-6.988,2.88774s-2.10917,4.934-2.45329,7.60327a136.48929,136.48929,0,0,0-.72485,17.94582l.16626,46.9248"/><path class="cls-11" d="M158.2562,206.95264c7.31144-4.94886,11.72874-12.49085,13.99911-20.91549a93.57651,93.57651,0,0,0,2.47484-15.60661c.3352-3.55411,1.3-8.2753-1.43949-11.19667-4.18217-4.4599-12.64822-.3747-14.07614,4.86313-2.479,9.09337,10.32924,5.90057,14.41651,4.94592,2.34909-.54867,1.3547-4.16531-.99691-3.616-1.866.43584-5.32623,1.94492-7.20784,1.53489-5.97364-1.30178,3.17586-9.88349,5.819-3.78228.782,1.80527-.08712,5.36406-.2651,7.251-.26664,2.82729-.555,5.65523-1.0242,8.45743-1.61175,9.62646-5.213,19.15494-13.59243,24.82666-1.9876,1.34534-.11318,4.59572,1.89268,3.238Z"/><path class="cls-11" d="M158.41937,206.10609A223.19129,223.19129,0,0,0,163.43065,169.39q.486-9.61826.10881-19.2553c-.17568-4.47152.35318-10.53489-1.78346-14.65933-3.546-6.845-13.84122-1.65228-15.10878,4.42529-1.802,8.63993,11.34445,7.88062,15.94986,5.311,2.10775-1.176.219-4.41623-1.89269-3.238-1.856,1.03557-4.13507,1.87836-6.30276,1.40592-2.26059-.49268-4.68781-4.27654-1.99016-5.45034l6.50407.67833a22.39422,22.39422,0,0,1,.35582,2.87534c.15764,1.59614.24034,3.20263.33219,4.80392q.55153,9.61473.237,19.25409a216.79882,216.79882,0,0,1-5.03725,39.5683c-.51772,2.35187,3.09663,3.35648,3.616.9969Z"/><path class="cls-11" d="M141.64459,203.63783c2.34751-15.58359,4.87578-31.1526,6.98107-46.771a202.71975,202.71975,0,0,0,1.99554-22.663c.12824-5.9098.66119-13.31769-2.21651-18.73217-1.94964-3.66831-5.949-6.49356-10.26252-5.52654-3.4009.76241-7.87528,4.91649-8.293,8.44622-.52611,4.44531,4.50734,5.903,8.05208,5.87886a11.14961,11.14961,0,0,0,10.889-7.60347c.82057-2.27392-2.80176-3.25341-3.616-.9969-1.15321,3.1957-6.21378,6.60678-9.72939,4.57121-2.61685-1.51519-.74218-3.80083.9495-5.093,7.31341-5.58651,9.92885,4.5653,10.31151,9.59028a133.27815,133.27815,0,0,1-.89379,24.58674c-1.96625,17.83252-5.11143,35.57782-7.78348,53.3159-.35563,2.36083,3.25722,3.379,3.616.99691Z"/><path class="cls-11" d="M130.176,203.66694a291.27773,291.27773,0,0,1,.16921-42.49768c1.17545-14.169,4.35361-28.09845,3.83005-42.38505-.08817-2.40591-3.8386-2.41752-3.75,0,.52343,14.28325-2.65481,28.21861-3.83,42.38505a291.30722,291.30722,0,0,0-.16922,42.49768c.15471,2.39626,3.90585,2.41362,3.75,0Z"/><path class="cls-11" d="M121.86153,198.9783a253.27054,253.27054,0,0,1-1.12935-31.773c.30453-10.45563,1.96839-20.87529,1.56107-31.34043-.39743-10.21121-2.14831-20.43344-1.37077-30.66917.41755-5.49679,3.35143-13.63008,10.61542-10.54248,6.14742,2.613,4.8404,12.21281,3.26157,17.33349-.71266,2.31139,2.906,3.29978,3.616.9969,2.4521-7.953,2.50564-21.79373-8.61858-22.64346-11.567-.88356-12.82135,12.21865-12.79683,20.59453.02064,7.05163.88981,14.06282,1.33665,21.09184a156.66879,156.66879,0,0,1-.67218,22.66547,251.37193,251.37193,0,0,0,.447,44.28629c.2303,2.38061,3.98261,2.40452,3.75,0Z"/><path class="cls-11" d="M156.50993,203.40993c-3.43835,3.55683-10.01677,1.93887-14.37367,1.63775L126.584,203.97279l-7.77613-.53744c-1.61808-.11185-4.46972.29034-5.8321-.40308q-2.3403.77337-1.40085-1.91952l-.068-3.94312-.13594-7.88625c-.17-9.86045-.38353-19.72135-.50856-29.58248a93.75357,93.75357,0,0,1,.80575-16.45754,44.621,44.621,0,0,1,1.55621-6.63542,20.46276,20.46276,0,0,1,1.55083-3.862q.78555,2.9765-2.806,1.02675c-2.35958-.42684-3.37178,3.18645-.99689,3.616,4.30121.77807,10.56141.93055,11.56537-4.68827.71961-4.02737-3.31049-6.55549-6.91474-5.38762-5.49343,1.78-6.77951,10.20386-7.57081,14.9336-1.45351,8.68788-.939,17.57216-.788,26.33549l.47577,27.60189c.04419,2.56315-.81893,6.80732.71184,9.04455,1.24383,1.81787,3.49261,1.48258,5.496,1.621l27.21648,1.881c5.92986.40983,13.37038,2.11749,17.99735-2.66892,1.678-1.73585-.97051-4.39075-2.65166-2.65166Z"/><path class="cls-11" d="M138.14014,201.56656a12.248,12.248,0,0,0-1.15984,4.68681,1.875,1.875,0,0,0,3.75,0,7.445,7.445,0,0,1,.64786-2.79411,1.93009,1.93009,0,0,0-.67265-2.56536,1.8903,1.8903,0,0,0-2.56536.67266Z"/><path class="cls-11" d="M126.47832,203.5984l.08851,1.54508a1.875,1.875,0,1,0,3.75,0h0l-.08851-1.54508a1.875,1.875,0,0,0-3.75,0Z"/><path class="cls-11" d="M118.07619,198.7252l.29126,6.41884c.10907,2.40328,3.85968,2.4167,3.75,0l-.29126-6.41884C121.71719,196.32193,117.96653,196.3085,118.07619,198.7252Z"/><polygon class="cls-2" points="266.757 157.944 266.757 145.151 277.835 151.547 266.757 157.944"/><rect class="cls-2" x="252.79144" y="149.48245" width="19.34332" height="4.49632"/></svg>