<svg id="Layer_1" data-name="Layer 1" xmlns="http://www.w3.org/2000/svg" viewBox="0 0 517 517"><defs><style>.cls-1{fill:#929497;}.cls-2{fill:#fff;}.cls-3{fill:#231f20;}.cls-4{fill:#58595b;}.cls-5{fill:#2e3192;}.cls-6{fill:#93278f;}</style></defs><title>fish 1</title><path class="cls-1" d="M118.27373,329.34074s155.46926-127.21967,298.86463,0c0,0,47.81255-26.668,56.69485-22.73341s-27.8409,48.96427-27.8409,48.96427,41.96937,22.29624,38.47193,31.477-66.45152-14.86416-66.45152-14.86416S196.6963,433.827,118.27373,329.34074Z"/><circle class="cls-2" cx="172.61968" cy="320.56714" r="10.95413"/><circle class="cls-3" cx="172.61968" cy="320.56714" r="6.26966"/><path class="cls-4" d="M219.77936,340.56529a11.40245,11.40245,0,0,1,5.35165,4.94409,4.63925,4.63925,0,0,1-.1677,5.28073,6.93213,6.93213,0,0,0-.96189,1.88788.62553.62553,0,0,0,1.20535.3323c.385-1.4222,1.65163-2.26413,1.95313-3.72555a6.24553,6.24553,0,0,0-.60963-3.71043,12.42174,12.42174,0,0,0-6.14-6.08836c-.72229-.345-1.35722.73238-.6309,1.07934Z"/><path class="cls-4" d="M219.84945,340.3009c11.29144-2.29658,21.74854-6.97763,32.19966-11.68432,7.06377-3.18119,36.04887-18.66184,38.3752-4.31024,1.08709,6.7064-4.57847,11.77217-9.05336,15.88972A144.00113,144.00113,0,0,1,265.769,352.75228c-5.98572,4.13415-11.31521,4.433-18.27125,3.56543-7.51624-.93746-15.00641-2.061-22.47625-3.31322-.78688-.13191-1.12515,1.07244-.3323,1.20535,8.20144,1.37486,16.43691,2.653,24.70156,3.59156,7.58623.86151,12.26486-.56279,18.44224-4.9857a137.90211,137.90211,0,0,0,17.411-14.56488c3.60653-3.61742,7.05576-7.97143,6.56449-13.38931-1.27632-14.07588-20.28519-5.76767-27.64019-2.839-14.83764,5.90823-28.862,13.86163-44.6512,17.073-.78771.16021-.45432,1.36534.3323,1.20535Z"/><path class="cls-4" d="M224.0474,343.37016l50.45335-18.71478c.74769-.27734.42424-1.486-.3323-1.20535L223.7151,342.16481c-.74769.27734-.42424,1.486.3323,1.20535Z"/><path class="cls-4" d="M226.27685,345.33757q22.54971-5.988,44.83835-12.88869c.76605-.23718.4392-1.44421-.3323-1.20535q-22.28745,6.90039-44.83835,12.88869a.62553.62553,0,0,0,.3323,1.20535Z"/><path class="cls-4" d="M226.60013,348.04789c6.76507-1.40394,13.6388-2.12949,20.38494-3.647,6.79028-1.52747,13.51732-3.35326,20.26028-5.07436a.62554.62554,0,0,0-.3323-1.20535c-6.74281,1.72106-13.4702,3.54694-20.26028,5.07436-6.74577,1.51746-13.62008,2.24314-20.38494,3.647-.78715.16336-.454,1.36853.3323,1.20535Z"/><path class="cls-4" d="M226.04,351.26115c5.57209.0083,11.07691.63857,16.64375.06337,5.707-.58967,11.317-1.75068,17.07193-1.86365a.62538.62538,0,0,0,0-1.25c-5.767.1132-11.34941,1.27915-17.07193,1.86365-5.56757.56868-11.0708-.05506-16.64375-.06337a.62537.62537,0,0,0,0,1.25Z"/><path class="cls-5" d="M258.5,516.5058c-142.5,0-258-115.5-258-258a257.961,257.961,0,0,1,75.6-182.4c100.8-100.8,264.1-100.8,364.9,0s100.8,264.1,0,364.9A256.49776,256.49776,0,0,1,258.5,516.5058Z"/><path class="cls-2" d="M258.5,1.0058c142.3.1,257.5,115.5,257.4,257.7a257.624,257.624,0,0,1-157.2,237c-131.1,55.3-282.1-6.2-337.4-137.3-55.2-130.9,6.1-281.9,136.9-337.3a258.099,258.099,0,0,1,100.3-20.1m0-1c-142.8,0-258.5,115.7-258.5,258.5s115.7,258.5,258.5,258.5,258.5-115.7,258.5-258.5S401.3.0058,258.5.0058Z"/><polygon class="cls-6" points="293.4 141.706 280.5 101.306 270.5 104.606 281.2 136.606 293.4 141.706"/><path class="cls-2" d="M135.10645,222.8042H146.937c9.791,0,16.57373,6.833,16.57373,17.542,0,10.6582-6.62939,18.1543-16.62451,18.1543H135.10645Zm2.7539,33.14648H146.478c9.43408,0,14.0747-6.62939,14.0747-15.45117,0-7.85351-4.18164-15.14551-14.0747-15.14551h-8.61768Z"/><path class="cls-2" d="M171.1123,246.05762c.05079,6.57861,3.36573,10.6582,8.26124,10.6582,4.79345,0,6.42529-2.70264,7.34326-4.79346h2.60058c-1.0708,3.36524-3.77343,7.18994-10.0459,7.18994-7.75146,0-10.76025-6.68017-10.76025-13.15673,0-7.292,3.62061-13.56446,11.06592-13.56446,7.85351,0,10.35205,6.78223,10.35205,11.57569,0,.71386,0,1.42822-.05078,2.09082Zm16.165-2.24366c-.05078-5.04833-2.80468-9.02587-7.80224-9.02587-5.25244,0-7.64893,3.67138-8.21,9.02587Z"/><path class="cls-2" d="M196.15332,239.58154c0-2.19287,0-4.58984-.05127-6.57861h2.499c.05079.86719.15284,3.06006.10206,4.53857a7.97449,7.97449,0,0,1,7.64892-5.15039c3.56983,0,6.37451,1.78467,7.39453,5.04834a8.67746,8.67746,0,0,1,8.312-5.04834c3.92676,0,8.00635,2.24366,8.00635,9.332v16.77735h-2.5498V242.0293c0-3.417-1.22412-7.13965-5.96631-7.13965-4.94678,0-7.19043,3.978-7.19043,8.92431v14.68653h-2.49854V242.08008c0-3.72266-1.12207-7.19043-5.81347-7.19043-4.94678,0-7.34326,4.38574-7.34326,9.5874v14.02344h-2.54981Z"/><path class="cls-2" d="M255.61768,253.65576a29.164,29.164,0,0,0,.35693,4.84473h-2.44775a16.75083,16.75083,0,0,1-.459-3.92676c-.8667,1.88672-3.11084,4.53857-8.36328,4.53857-5.915,0-8.46484-3.8247-8.46484-7.64892,0-5.60938,4.33447-8.15918,11.98388-8.15918h4.84424v-2.60107c0-2.54981-.76514-5.96631-6.57812-5.96631-5.15088,0-5.91553,2.70263-6.47657,4.79345h-2.5498c.30615-2.80468,2.04-7.13916,9.07715-7.13916,5.81347,0,9.07715,2.44776,9.07715,8.05713Zm-2.49854-8.15918h-4.99756c-5.66064,0-9.1792,1.479-9.1792,5.86475,0,3.2124,2.29492,5.40527,5.86426,5.40527,7.29248,0,8.3125-4.84424,8.3125-10.352Z"/><path class="cls-2" d="M264.03418,239.42822c0-2.24365,0-4.38525-.05078-6.42529h2.499c.10156.81592.15235,4.13086.10156,4.84473,1.12207-2.60108,3.2129-5.45655,8.46485-5.45655,4.53906,0,8.56738,2.54981,8.56738,9.58692v16.52246h-2.5498V242.38623c0-4.53857-1.88672-7.49658-6.32325-7.49658-6.06836,0-8.15918,5.04883-8.15918,10.60693v13.00391h-2.5498Z"/><path class="cls-2" d="M311.666,220.91748v30.23975c0,2.44775,0,4.79345.05078,7.34326h-2.44825c-.10156-.61182-.15234-3.00879-.15234-4.28369-1.27539,3.11084-4.13086,4.8955-8.56738,4.8955-6.62988,0-10.60742-5.40527-10.60742-13.05468,0-7.853,4.335-13.66651,11.2705-13.66651,5.09961,0,7.13868,2.19287,7.9043,3.82471V220.91748Zm-19.02149,25.03809c0,6.98632,3.6211,10.76025,8.00586,10.76025,6.73145,0,8.56738-4.64062,8.56738-11.57617,0-6.57813-1.581-10.35156-8.10839-10.35156C296.06152,234.78809,292.64453,238.81641,292.64453,245.95557Z"/><path class="cls-2" d="M333.9541,258.50049V235.3999h-4.38574v-2.397h4.38574v-3.62061c0-4.28369,1.22363-8.97509,6.93457-8.97509a9.52389,9.52389,0,0,1,2.499.35693v2.44775a12.68354,12.68354,0,0,0-2.75391-.30566c-3.00879,0-4.13086,2.1416-4.13086,6.57813v3.51855h5.55859v2.397h-5.55859v23.10059Z"/><path class="cls-2" d="M366.74414,245.70068c0,7.08838-3.92676,13.41162-11.52441,13.41162-6.88477,0-11.168-5.66015-11.168-13.36035,0-7.29248,4.02832-13.36084,11.42285-13.36084C362.25684,232.39111,366.74414,237.69482,366.74414,245.70068Zm-19.98926.05127c0,6.06836,3.26367,10.96387,8.66895,10.96387,5.50683,0,8.61816-4.53857,8.61816-10.96387,0-6.01757-3.05957-10.96386-8.7207-10.96386C349.50781,234.78809,346.75488,239.63232,346.75488,245.752Z"/><path class="cls-2" d="M373.07031,239.93848c0-4.28369-.05176-6.11963-.05176-6.93555h2.499c.05078.81592.10254,2.44775.10254,5.71143a9.65891,9.65891,0,0,1,8.873-6.32325V235.145c-5.30371.35693-8.873,4.02832-8.873,10.09668v13.25879h-2.54981Z"/><path class="cls-2" d="M184.958,294.20313c4.13086,11.67773,6.98633,19.63281,7.95508,22.89648h.05127c.561-1.88672,3.4165-9.48535,8.36328-22.89648h2.70263l-9.63818,25.49707h-3.05957l-9.07715-25.49707Z"/><path class="cls-2" d="M226.063,314.85547a29.15893,29.15893,0,0,0,.35693,4.84473h-2.44775a16.74279,16.74279,0,0,1-.459-3.92676c-.8667,1.88672-3.11084,4.53906-8.36328,4.53906-5.915,0-8.46484-3.8252-8.46484-7.64941,0-5.60938,4.33447-8.15918,11.98389-8.15918h4.84423v-2.60059c0-2.5498-.76513-5.9668-6.57812-5.9668-5.15088,0-5.91553,2.70313-6.47656,4.794h-2.54981c.30615-2.80469,2.04-7.13965,9.07715-7.13965,5.81348,0,9.07715,2.44824,9.07715,8.05762Zm-2.49854-8.15918h-4.99756c-5.66064,0-9.17919,1.47949-9.17919,5.86523,0,3.21192,2.29492,5.40528,5.86425,5.40528,7.29248,0,8.3125-4.84473,8.3125-10.35254Z"/><path class="cls-2" d="M234.47949,301.13867c0-4.28418-.05127-6.12012-.05127-6.93554h2.499c.05078.81542.10205,2.44726.10205,5.71093a9.65961,9.65961,0,0,1,8.873-6.32324v2.75391c-5.30371.35742-8.873,4.02832-8.873,10.09668V319.7002h-2.54981Z"/><path class="cls-2" d="M250.59521,282.11719H253.145v4.94629h-2.54981Zm0,12.08594H253.145V319.7002h-2.54981Z"/><path class="cls-2" d="M282.16211,306.90039c0,7.08887-3.92676,13.41211-11.52539,13.41211-6.88379,0-11.168-5.66016-11.168-13.36035,0-7.293,4.0293-13.36133,11.42285-13.36133C277.6748,293.59082,282.16211,298.89453,282.16211,306.90039Zm-19.99023.05176c0,6.06836,3.26367,10.96387,8.66894,10.96387,5.50781,0,8.61816-4.53907,8.61816-10.96387,0-6.01758-3.05957-10.96387-8.71972-10.96387C264.92578,295.98828,262.17188,300.832,262.17188,306.95215Z"/><path class="cls-2" d="M307.55957,312.25488c0,2.499.05078,6.47657.05078,7.44532h-2.44726a40.80492,40.80492,0,0,1-.15332-4.43653c-1.07129,3.00879-3.67188,5.04883-8.21,5.04883-3.67187,0-8.36328-1.42773-8.36328-9.23047v-16.8789h2.499V310.4707c0,3.72266,1.17285,7.34278,6.2207,7.34278,5.71191,0,7.85352-3.21289,7.85352-10.50489V294.20313h2.5498Z"/><path class="cls-2" d="M315.61914,312.66309c.86719,3.31445,3.21289,5.30371,7.24121,5.30371,4.53906,0,6.375-2.09082,6.375-4.94629,0-2.90723-1.22461-4.335-6.93555-5.71192-6.57812-1.58105-8.21-3.56933-8.21-6.93554,0-3.51856,2.65137-6.78223,8.41407-6.78223,5.76172,0,8.51562,3.51856,8.92382,7.13965h-2.5498c-.459-2.1416-2.1416-4.794-6.47656-4.794-4.43653,0-5.71094,2.19336-5.71094,4.23243,0,2.34668,1.22363,3.51953,6.27246,4.74316,7.19043,1.7334,8.97461,4.0791,8.97461,7.9043,0,4.64062-3.77344,7.49609-9.12793,7.49609-5.81348,0-9.07715-3.05957-9.791-7.64941Z"/><path class="cls-2" d="M137.98975,380.90039V357.7998H133.604v-2.39746h4.38575v-3.62011c0-4.28418,1.22363-8.97559,6.93505-8.97559a9.52646,9.52646,0,0,1,2.499.35742v2.44727a12.65662,12.65662,0,0,0-2.75391-.30567c-3.00879,0-4.13086,2.14161-4.13086,6.57813v3.51855h5.5586v2.39746h-5.5586v23.10059Z"/><path class="cls-2" d="M150.78955,343.31738h2.54981v4.94629h-2.54981Zm0,12.085h2.54981v25.49805h-2.54981Z"/><path class="cls-2" d="M161.44824,373.86328c.8667,3.31445,3.2124,5.30274,7.24121,5.30274,4.53858,0,6.37451-2.09082,6.37451-4.94629,0-2.90625-1.22412-4.335-6.93554-5.71094-6.57813-1.58106-8.21-3.57031-8.21-6.93555,0-3.51855,2.65185-6.78222,8.41406-6.78222s8.51611,3.51855,8.92432,7.13867H174.707c-.459-2.1416-2.14209-4.793-6.47656-4.793-4.43652,0-5.71143,2.19238-5.71143,4.23242,0,2.3457,1.22412,3.51856,6.27246,4.74219,7.19043,1.73437,8.9751,4.08008,8.9751,7.9043,0,4.64062-3.77344,7.49609-9.12793,7.49609-5.81347,0-9.07715-3.05957-9.791-7.64844Z"/><path class="cls-2" d="M186.23389,343.31738v16.36914a8.89216,8.89216,0,0,1,8.41406-4.8955c3.6206,0,8.61816,1.83593,8.61816,9.89257v16.2168h-2.5498v-15.707c0-5.04785-2.29492-7.9043-6.52735-7.9043-5.04833,0-7.95507,3.11133-7.95507,9.38379v14.22754h-2.54981v-37.583Z"/><path class="cls-2" d="M224.89111,373.86328c.8667,3.31445,3.21241,5.30274,7.24121,5.30274,4.53858,0,6.37452-2.09082,6.37452-4.94629,0-2.90625-1.22413-4.335-6.93555-5.71094-6.57813-1.58106-8.21-3.57031-8.21-6.93555,0-3.51855,2.65137-6.78222,8.41406-6.78222,5.76221,0,8.51611,3.51855,8.92383,7.13867H238.1499c-.459-2.1416-2.14209-4.793-6.47656-4.793-4.43652,0-5.71143,2.19238-5.71143,4.23242,0,2.3457,1.22413,3.51856,6.27247,4.74219,7.19042,1.73437,8.97509,4.08008,8.97509,7.9043,0,4.64062-3.77392,7.49609-9.12793,7.49609-5.81347,0-9.07715-3.05957-9.791-7.64844Z"/><path class="cls-2" d="M249.72754,377.127v13.97168h-2.54981V361.6748c0-2.09082,0-4.334-.05127-6.27246h2.499c.102.96973.102,2.499.102,4.58985,1.58057-3.05957,4.38525-5.20117,8.9751-5.20117,6.01709,0,10.19873,5.04785,10.19873,12.69726,0,9.17969-4.89551,14.02344-11.06592,14.02344C253.34814,381.51172,251.00244,379.52344,249.72754,377.127Zm16.47168-9.53613c0-5.916-2.85547-10.35254-7.90479-10.35254-6.17041,0-8.72021,3.876-8.72021,10.81152,0,6.833,1.98926,11.06543,8.36328,11.06543C263.24121,379.11523,266.19922,374.62793,266.19922,367.59082Z"/><path class="cls-2" d="M276.14551,368.457c.05078,6.5791,3.36621,10.6582,8.26172,10.6582,4.793,0,6.4248-2.70312,7.34277-4.793h2.60059c-1.07032,3.36523-3.77344,7.18945-10.0459,7.18945-7.751,0-10.75977-6.67969-10.75977-13.15625,0-7.292,3.62012-13.56445,11.06543-13.56445,7.85352,0,10.35254,6.78222,10.35254,11.57519,0,.71387,0,1.42871-.05078,2.09082Zm16.165-2.24316c-.05078-5.04883-2.80469-9.02637-7.80176-9.02637-5.25293,0-7.64941,3.67188-8.21,9.02637Z"/><path class="cls-2" d="M320.207,373.4043c-1.22363,4.4873-4.18164,8.10742-9.89258,8.10742-6.375,0-10.91308-4.74219-10.91308-13.25879,0-6.98535,3.72265-13.46191,11.21875-13.46191,6.47656,0,9.12793,4.58886,9.58691,8.15918h-2.60058c-.76465-2.958-2.70313-5.7627-7.03711-5.7627-5.40528,0-8.46485,4.58984-8.46485,10.96387,0,6.06836,2.85547,10.96386,8.21,10.96386,3.72266,0,5.96582-1.88671,7.292-5.71093Z"/><path class="cls-2" d="M326.78711,343.31738h2.5498v4.94629h-2.5498Zm0,12.085h2.5498v25.49805h-2.5498Z"/><path class="cls-2" d="M338.26172,368.457c.05078,6.5791,3.36523,10.6582,8.26074,10.6582,4.79395,0,6.42578-2.70312,7.34375-4.793h2.60059c-1.07129,3.36523-3.77442,7.18945-10.0459,7.18945-7.752,0-10.76074-6.67969-10.76074-13.15625,0-7.292,3.62109-13.56445,11.0664-13.56445,7.85352,0,10.35157,6.78222,10.35157,11.57519,0,.71387,0,1.42871-.05079,2.09082Zm16.165-2.24316c-.05078-5.04883-2.80469-9.02637-7.80274-9.02637-5.25195,0-7.64843,3.67188-8.21,9.02637Z"/><path class="cls-2" d="M363.91406,373.86328c.86719,3.31445,3.21289,5.30274,7.24121,5.30274,4.53907,0,6.375-2.09082,6.375-4.94629,0-2.90625-1.22461-4.335-6.93554-5.71094-6.57813-1.58106-8.21-3.57031-8.21-6.93555,0-3.51855,2.65136-6.78222,8.41406-6.78222,5.76172,0,8.51562,3.51855,8.92383,7.13867h-2.54981c-.459-2.1416-2.1416-4.793-6.47656-4.793-4.43652,0-5.71094,2.19238-5.71094,4.23242,0,2.3457,1.22363,3.51856,6.27246,4.74219,7.19043,1.73437,8.97461,4.08008,8.97461,7.9043,0,4.64062-3.77344,7.49609-9.12793,7.49609-5.81347,0-9.07715-3.05957-9.791-7.64844Z"/><path class="cls-1" d="M83.88042,125.57246s155.46926-127.21967,298.86463,0c0,0,47.81256-26.668,56.69486-22.73341S411.599,151.80332,411.599,151.80332s41.96938,22.29623,38.47193,31.477-66.45151-14.86415-66.45151-14.86415S162.303,230.05872,83.88042,125.57246Z"/><circle class="cls-2" cx="138.22638" cy="116.79886" r="10.95413"/><circle class="cls-3" cx="138.22638" cy="116.79886" r="6.26966"/><path class="cls-4" d="M185.38606,136.797a11.40247,11.40247,0,0,1,5.35164,4.94409,4.63923,4.63923,0,0,1-.1677,5.28073,6.93227,6.93227,0,0,0-.96189,1.88788.62553.62553,0,0,0,1.20535.3323c.385-1.4222,1.65163-2.26413,1.95313-3.72556a6.24535,6.24535,0,0,0-.60963-3.71042,12.42172,12.42172,0,0,0-6.14-6.08836c-.7223-.345-1.35722.73237-.6309,1.07934Z"/><path class="cls-4" d="M185.45614,136.53261c11.29144-2.29658,21.74854-6.97763,32.19966-11.68431,7.06378-3.18119,36.04887-18.66184,38.37521-4.31025,1.08708,6.70641-4.57848,11.77218-9.05337,15.88973A144.00136,144.00136,0,0,1,231.37571,148.984c-5.98572,4.13414-11.31521,4.433-18.27125,3.56543-7.51624-.93747-15.0064-2.061-22.47625-3.31323-.78687-.13191-1.12515,1.07244-.3323,1.20535,8.20144,1.37486,16.43692,2.653,24.70156,3.59157,7.58623.86151,12.26487-.5628,18.44225-4.98571a137.90264,137.90264,0,0,0,17.411-14.56487c3.60653-3.61743,7.05576-7.97144,6.5645-13.38932-1.27633-14.07588-20.28519-5.76767-27.6402-2.839-14.83764,5.90823-28.862,13.86162-44.6512,17.073-.78771.16022-.45432,1.36534.3323,1.20535Z"/><path class="cls-4" d="M189.65409,139.60187l50.45336-18.71478c.74768-.27734.42424-1.486-.3323-1.20534l-50.45336,18.71478c-.74768.27734-.42424,1.486.3323,1.20534Z"/><path class="cls-4" d="M191.88354,141.56928q22.54972-5.98794,44.83835-12.88868c.76606-.23718.4392-1.44421-.3323-1.20535q-22.28744,6.90039-44.83835,12.88868a.62553.62553,0,0,0,.3323,1.20535Z"/><path class="cls-4" d="M192.20682,144.27961c6.76507-1.40394,13.6388-2.12949,20.38494-3.647,6.79028-1.52747,13.51732-3.35327,20.26028-5.07437a.62554.62554,0,0,0-.3323-1.20535c-6.7428,1.72106-13.4702,3.547-20.26028,5.07437-6.74577,1.51745-13.62007,2.24313-20.38494,3.647-.78714.16335-.454,1.36853.3323,1.20535Z"/><path class="cls-4" d="M191.64665,147.49287c5.57209.0083,11.07691.63856,16.64375.06337,5.707-.58968,11.317-1.75069,17.07193-1.86365a.62538.62538,0,0,0,0-1.25c-5.767.1132-11.3494,1.27914-17.07193,1.86365-5.56756.56868-11.07079-.05507-16.64375-.06337a.62537.62537,0,0,0,0,1.25Z"/></svg>