<svg id="Layer_1" data-name="Layer 1" xmlns="http://www.w3.org/2000/svg" viewBox="0 0 517 517"><defs><style>.cls-1{fill:#929497;}.cls-2{fill:#fff;}.cls-3{fill:#231f20;}.cls-4{fill:#58595b;}.cls-5{fill:#2e3192;}.cls-6{fill:#716558;}.cls-7{fill:#5a4a42;}</style></defs><title>fish 3</title><path class="cls-1" d="M118.27373,329.34074s155.46926-127.21967,298.86463,0c0,0,47.81255-26.668,56.69485-22.73341s-27.8409,48.96427-27.8409,48.96427,41.96937,22.29624,38.47193,31.477-66.45152-14.86416-66.45152-14.86416S196.6963,433.827,118.27373,329.34074Z"/><circle class="cls-2" cx="172.61968" cy="320.56714" r="10.95413"/><circle class="cls-3" cx="172.61968" cy="320.56714" r="6.26966"/><path class="cls-4" d="M219.77936,340.56529a11.40245,11.40245,0,0,1,5.35165,4.94409,4.63925,4.63925,0,0,1-.1677,5.28073,6.93213,6.93213,0,0,0-.96189,1.88788.62553.62553,0,0,0,1.20535.3323c.385-1.4222,1.65163-2.26413,1.95313-3.72555a6.24553,6.24553,0,0,0-.60963-3.71043,12.42174,12.42174,0,0,0-6.14-6.08836c-.72229-.345-1.35722.73238-.6309,1.07934Z"/><path class="cls-4" d="M219.84945,340.3009c11.29144-2.29658,21.74854-6.97763,32.19966-11.68432,7.06377-3.18119,36.04887-18.66184,38.3752-4.31024,1.08709,6.7064-4.57847,11.77217-9.05336,15.88972A144.00113,144.00113,0,0,1,265.769,352.75228c-5.98572,4.13415-11.31521,4.433-18.27125,3.56543-7.51624-.93746-15.00641-2.061-22.47625-3.31322-.78688-.13191-1.12515,1.07244-.3323,1.20535,8.20144,1.37486,16.43691,2.653,24.70156,3.59156,7.58623.86151,12.26486-.56279,18.44224-4.9857a137.90211,137.90211,0,0,0,17.411-14.56488c3.60653-3.61742,7.05576-7.97143,6.56449-13.38931-1.27632-14.07588-20.28519-5.76767-27.64019-2.839-14.83764,5.90823-28.862,13.86163-44.6512,17.073-.78771.16021-.45432,1.36534.3323,1.20535Z"/><path class="cls-4" d="M224.0474,343.37016l50.45335-18.71478c.74769-.27734.42424-1.486-.3323-1.20535L223.7151,342.16481c-.74769.27734-.42424,1.486.3323,1.20535Z"/><path class="cls-4" d="M226.27685,345.33757q22.54971-5.988,44.83835-12.88869c.76605-.23718.4392-1.44421-.3323-1.20535q-22.28745,6.90039-44.83835,12.88869a.62553.62553,0,0,0,.3323,1.20535Z"/><path class="cls-4" d="M226.60013,348.04789c6.76507-1.40394,13.6388-2.12949,20.38494-3.647,6.79028-1.52747,13.51732-3.35326,20.26028-5.07436a.62554.62554,0,0,0-.3323-1.20535c-6.74281,1.72106-13.4702,3.54694-20.26028,5.07436-6.74577,1.51746-13.62008,2.24314-20.38494,3.647-.78715.16336-.454,1.36853.3323,1.20535Z"/><path class="cls-4" d="M226.04,351.26115c5.57209.0083,11.07691.63857,16.64375.06337,5.707-.58967,11.317-1.75068,17.07193-1.86365a.62538.62538,0,0,0,0-1.25c-5.767.1132-11.34941,1.27915-17.07193,1.86365-5.56757.56868-11.0708-.05506-16.64375-.06337a.62537.62537,0,0,0,0,1.25Z"/><path class="cls-5" d="M258.5,516.5058c-142.5,0-258-115.5-258-258a257.961,257.961,0,0,1,75.6-182.4c100.8-100.8,264.1-100.8,364.9,0s100.8,264.1,0,364.9A256.49776,256.49776,0,0,1,258.5,516.5058Z"/><path class="cls-2" d="M258.5,1.0058c142.3.1,257.5,115.5,257.4,257.7a257.624,257.624,0,0,1-157.2,237c-131.1,55.3-282.1-6.2-337.4-137.3-55.2-130.9,6.1-281.9,136.9-337.3a258.099,258.099,0,0,1,100.3-20.1m0-1c-142.8,0-258.5,115.7-258.5,258.5s115.7,258.5,258.5,258.5,258.5-115.7,258.5-258.5S401.3.0058,258.5.0058Z"/><path class="cls-2" d="M113.48486,256.78174h11.83057c9.791,0,16.57373,6.83252,16.57373,17.5415,0,10.65821-6.62939,18.1543-16.62451,18.1543H113.48486Zm2.75342,33.146h8.61817c9.43408,0,14.0747-6.6289,14.0747-15.45117,0-7.85351-4.18164-15.14551-14.0747-15.14551h-8.61817Z"/><path class="cls-2" d="M149.49072,280.03516c.05078,6.57812,3.36573,10.6582,8.26123,10.6582,4.79346,0,6.4253-2.70313,7.34326-4.79395h2.60059c-1.0708,3.36524-3.77392,7.19043-10.0459,7.19043-7.75146,0-10.76025-6.68066-10.76025-13.15722,0-7.292,3.6206-13.56446,11.06592-13.56446,7.85351,0,10.352,6.78223,10.352,11.57618,0,.71386,0,1.42773-.05078,2.09082Zm16.165-2.24414c-.05078-5.04786-2.80469-9.02539-7.80224-9.02539-5.25245,0-7.64893,3.67089-8.21,9.02539Z"/><path class="cls-2" d="M175.14355,285.44043c.8667,3.31445,3.21241,5.30371,7.24122,5.30371,4.53857,0,6.37451-2.09082,6.37451-4.94629,0-2.90722-1.22412-4.335-6.93555-5.71191-6.57812-1.58106-8.21-3.56934-8.21-6.93555,0-3.51855,2.65186-6.78223,8.41406-6.78223s8.51612,3.51856,8.92432,7.13965h-2.54981c-.459-2.1416-2.14209-4.79394-6.47656-4.79394-4.43652,0-5.71142,2.19336-5.71142,4.23242,0,2.34668,1.22412,3.51953,6.27246,4.74316,7.19043,1.7334,8.97509,4.0791,8.97509,7.9043,0,4.64063-3.77343,7.49609-9.12793,7.49609-5.81347,0-9.07714-3.05957-9.791-7.64941Z"/><path class="cls-2" d="M193.80957,266.98047h4.74268v-7.95508h2.5498v7.95508h6.06836V269.377h-6.06836V285.9502c0,2.85546.61182,4.4873,3.05957,4.4873a9.64506,9.64506,0,0,0,2.65186-.30566V292.376a8.96813,8.96813,0,0,1-3.16211.459c-3.26367,0-5.09912-1.63183-5.09912-5.71191V269.377h-4.74268Z"/><path class="cls-2" d="M211.91406,273.916c0-4.28418-.05127-6.12012-.05127-6.93555h2.499c.05078.81543.102,2.44726.102,5.71094a9.65963,9.65963,0,0,1,8.873-6.32325v2.75391c-5.30371.35742-8.873,4.02832-8.873,10.09668v13.25879h-2.54981Z"/><path class="cls-2" d="M246.94922,285.03223c0,2.499.05127,6.47656.05127,7.44531h-2.44776a40.97857,40.97857,0,0,1-.15283-4.43652c-1.07129,3.00878-3.67187,5.04882-8.21045,5.04882-3.67138,0-8.36328-1.42773-8.36328-9.23046V266.98047h2.499v16.26758c0,3.72265,1.17285,7.34277,6.22119,7.34277,5.71142,0,7.85351-3.21289,7.85351-10.50488V266.98047h2.54932Z"/><path class="cls-2" d="M274.08105,284.98145c-1.2246,4.4873-4.18164,8.10839-9.89355,8.10839-6.374,0-10.9126-4.74218-10.9126-13.25879,0-6.98632,3.72266-13.46289,11.21924-13.46289,6.47559,0,9.12793,4.58985,9.58691,8.15918h-2.60058c-.76563-2.957-2.70313-5.76171-7.03809-5.76171-5.40527,0-8.46435,4.58886-8.46435,10.96386,0,6.06836,2.85547,10.96387,8.20947,10.96387,3.72266,0,5.9668-1.8877,7.293-5.71191Z"/><path class="cls-2" d="M276.78516,266.98047h4.74316v-7.95508h2.54981v7.95508h6.06835V269.377h-6.06835V285.9502c0,2.85546.61132,4.4873,3.05957,4.4873a9.63949,9.63949,0,0,0,2.65136-.30566V292.376a8.96593,8.96593,0,0,1-3.16113.459c-3.26367,0-5.09961-1.63183-5.09961-5.71191V269.377h-4.74316Z"/><path class="cls-2" d="M295.34863,254.895h2.54981v4.9458h-2.54981Zm0,12.08545h2.54981v25.49707h-2.54981Z"/><path class="cls-2" d="M326.915,279.67773c0,7.08887-3.92676,13.41211-11.52539,13.41211-6.88379,0-11.168-5.66015-11.168-13.36035,0-7.293,4.0293-13.36133,11.42285-13.36133C322.42773,266.36816,326.915,271.67188,326.915,279.67773Zm-19.99024.05176c0,6.06836,3.26368,10.96387,8.66895,10.96387,5.50781,0,8.61816-4.53906,8.61816-10.96387,0-6.01758-3.05957-10.96386-8.71972-10.96386C309.67871,268.76563,306.9248,273.60938,306.9248,279.72949Z"/><path class="cls-2" d="M333.24023,273.40527c0-2.24316,0-4.38476-.05078-6.4248h2.499c.10156.81543.15234,4.13086.10156,4.84473,1.12207-2.60157,3.21289-5.457,8.46484-5.457,4.53907,0,8.56739,2.54981,8.56739,9.58692v16.52246h-2.54981V276.36328c0-4.53808-1.88672-7.49609-6.32324-7.49609-6.06836,0-8.15918,5.04883-8.15918,10.60644v13.00391h-2.54981Z"/><path class="cls-2" d="M395.10059,279.67773c0,7.08887-3.92676,13.41211-11.52539,13.41211-6.88379,0-11.168-5.66015-11.168-13.36035,0-7.293,4.02929-13.36133,11.42285-13.36133C390.61328,266.36816,395.10059,271.67188,395.10059,279.67773Zm-19.99024.05176c0,6.06836,3.26367,10.96387,8.66895,10.96387,5.50781,0,8.61816-4.53906,8.61816-10.96387,0-6.01758-3.05957-10.96386-8.71973-10.96386C377.86426,268.76563,375.11035,273.60938,375.11035,279.72949Z"/><path class="cls-2" d="M402.49707,292.47754V269.377h-4.38574v-2.39648h4.38574v-3.62109c0-4.28321,1.22363-8.97461,6.93457-8.97461a9.52376,9.52376,0,0,1,2.499.35693v2.44775a12.68338,12.68338,0,0,0-2.7539-.30566c-3.00879,0-4.13086,2.1416-4.13086,6.57812v3.51856h5.55859V269.377H405.0459v23.10059Z"/><path class="cls-2" d="M116.59521,348.833a29.15847,29.15847,0,0,0,.35694,4.84472h-2.44776a16.7428,16.7428,0,0,1-.459-3.92675c-.8667,1.88672-3.11084,4.53906-8.36328,4.53906-5.915,0-8.46484-3.8252-8.46484-7.64941,0-5.60938,4.33447-8.15918,11.98388-8.15918h4.84424v-2.60059c0-2.54981-.76514-5.9668-6.57812-5.9668-5.15088,0-5.91553,2.70313-6.47657,4.79395h-2.5498c.30615-2.80469,2.04-7.13965,9.07715-7.13965,5.81347,0,9.07714,2.44824,9.07714,8.05762Zm-2.49853-8.15918h-4.99756c-5.66064,0-9.1792,1.47949-9.1792,5.86523,0,3.21192,2.29492,5.40528,5.86426,5.40528,7.29248,0,8.3125-4.84473,8.3125-10.35254Z"/><path class="cls-2" d="M142.19678,349.34375c-1.22364,2.90625-3.62061,4.94629-8.72022,4.94629-5.86426,0-10.50488-4.84473-10.50488-13.05469,0-8.82226,5.20166-13.667,11.168-13.667,5.20166,0,7.44531,2.5498,8.05713,4.43652-.05078-1.12207.05127-2.498.10205-3.82422h2.44775c-.05078,3.00879-.05078,4.74219-.05078,7.08789V363.877h-2.499Zm-16.522-8.26172c0,5.5586,2.65137,10.81152,8.26075,10.81152,6.32373,0,8.36328-4.23339,8.36328-11.11718,0-6.73145-1.73389-10.75977-8.15918-10.75977C128.68311,330.0166,125.6748,334.65723,125.6748,341.082Z"/><path class="cls-2" d="M172.13281,346.23242c0,2.499.05127,6.47656.05127,7.44531h-2.44775a40.97844,40.97844,0,0,1-.15283-4.43652c-1.07129,3.00879-3.67188,5.04883-8.21045,5.04883-3.67139,0-8.36328-1.42774-8.36328-9.23047V328.18066h2.499v16.26758c0,3.72266,1.17285,7.34278,6.22119,7.34278,5.71143,0,7.85352-3.21289,7.85352-10.50489V328.18066h2.54931Z"/><path class="cls-2" d="M197.99023,348.833a29.15847,29.15847,0,0,0,.35694,4.84472h-2.44776a16.7428,16.7428,0,0,1-.459-3.92675c-.8667,1.88672-3.11084,4.53906-8.36328,4.53906-5.915,0-8.46485-3.8252-8.46485-7.64941,0-5.60938,4.33448-8.15918,11.9834-8.15918h4.84473v-2.60059c0-2.54981-.76465-5.9668-6.57813-5.9668-5.15087,0-5.91552,2.70313-6.47656,4.79395h-2.5498c.30615-2.80469,2.04-7.13965,9.07715-7.13965,5.81347,0,9.07714,2.44824,9.07714,8.05762Zm-2.499-8.15918h-4.99707c-5.66064,0-9.1792,1.47949-9.1792,5.86523,0,3.21192,2.29492,5.40528,5.86426,5.40528,7.29248,0,8.312-4.84473,8.312-10.35254Z"/><path class="cls-2" d="M202.32764,328.18066h4.74267v-7.95507h2.54981v7.95507h6.06836v2.39649h-6.06836v16.57324c0,2.85547.61181,4.48731,3.05957,4.48731a9.645,9.645,0,0,0,2.65185-.30567v2.24414a8.96678,8.96678,0,0,1-3.16162.459c-3.26367,0-5.09961-1.63184-5.09961-5.71192V330.57715h-4.74267Z"/><path class="cls-2" d="M220.89063,316.09473h2.5498V321.041h-2.5498Zm0,12.08593h2.5498v25.49707h-2.5498Z"/><path class="cls-2" d="M250.56982,346.18164c-1.22412,4.48731-4.18164,8.1084-9.89306,8.1084-6.37451,0-10.91309-4.74219-10.91309-13.25879,0-6.98633,3.72266-13.46289,11.21924-13.46289,6.47607,0,9.12793,4.58984,9.58691,8.15918h-2.60058c-.76514-2.957-2.70313-5.76172-7.0376-5.76172-5.40527,0-8.46484,4.58887-8.46484,10.96387,0,6.06836,2.85547,10.96386,8.21,10.96386,3.72265,0,5.96631-1.88769,7.29248-5.71191Z"/><path class="cls-2" d="M272.29688,316.09473v16.36914a8.89322,8.89322,0,0,1,8.41406-4.89551c3.62011,0,8.61816,1.83594,8.61816,9.89355v16.21582h-2.5498V337.97168c0-5.04883-2.29492-7.9043-6.52735-7.9043-5.04882,0-7.95507,3.11035-7.95507,9.38282v14.22753h-2.54981v-37.583Z"/><path class="cls-2" d="M314.87988,348.833a29.22814,29.22814,0,0,0,.35645,4.84472h-2.44727a16.71459,16.71459,0,0,1-.459-3.92675c-.86719,1.88672-3.11133,4.53906-8.36328,4.53906-5.915,0-8.46485-3.8252-8.46485-7.64941,0-5.60938,4.334-8.15918,11.9834-8.15918h4.84473v-2.60059c0-2.54981-.76465-5.9668-6.57813-5.9668-5.15136,0-5.916,2.70313-6.47656,4.79395h-2.5498c.30566-2.80469,2.04-7.13965,9.07714-7.13965,5.81348,0,9.07715,2.44824,9.07715,8.05762Zm-2.499-8.15918h-4.99707c-5.66113,0-9.17969,1.47949-9.17969,5.86523,0,3.21192,2.29492,5.40528,5.86426,5.40528,7.293,0,8.3125-4.84473,8.3125-10.35254Z"/><path class="cls-2" d="M323.29688,316.09473h2.5498v16.36914c1.22363-2.54981,3.72266-4.89551,8.71973-4.89551,6.01757,0,10.4541,4.94629,10.4541,12.7998,0,8.05762-3.97754,13.92188-11.11719,13.92188-4.2832,0-6.73144-1.73438-8.05664-4.64063,0,1.63184-.05176,3.31446-.10254,4.02832h-2.499c.05176-2.90625.05176-5.81347.05176-8.71972Zm19.0205,24.32422c0-6.374-3.16113-10.45313-8.00586-10.45313-6.374,0-8.61816,4.334-8.61816,11.01465,0,6.01758,1.98926,10.91308,8.3125,10.91308C339.15625,351.89355,342.31738,347.60938,342.31738,340.419Z"/><path class="cls-2" d="M351.5498,316.09473h2.54981V321.041H351.5498Zm0,12.08593h2.54981v25.49707H351.5498Z"/><path class="cls-2" d="M358.99512,328.18066h4.74218v-7.95507h2.54981v7.95507h6.06836v2.39649h-6.06836v16.57324c0,2.85547.6123,4.48731,3.05957,4.48731a9.65051,9.65051,0,0,0,2.65234-.30567v2.24414a8.96786,8.96786,0,0,1-3.16211.459c-3.26367,0-5.09961-1.63184-5.09961-5.71192V330.57715h-4.74218Z"/><path class="cls-2" d="M395.04883,348.833a29.08833,29.08833,0,0,0,.35742,4.84472H392.958a16.77088,16.77088,0,0,1-.459-3.92675c-.86621,1.88672-3.11035,4.53906-8.36328,4.53906-5.915,0-8.46484-3.8252-8.46484-7.64941,0-5.60938,4.335-8.15918,11.98437-8.15918H392.499v-2.60059c0-2.54981-.76464-5.9668-6.57812-5.9668-5.15039,0-5.915,2.70313-6.47656,4.79395h-2.54981c.30664-2.80469,2.04-7.13965,9.07715-7.13965,5.81348,0,9.07715,2.44824,9.07715,8.05762Zm-2.49805-8.15918h-4.998c-5.66015,0-9.17871,1.47949-9.17871,5.86523,0,3.21192,2.29493,5.40528,5.86426,5.40528,7.292,0,8.3125-4.84473,8.3125-10.35254Z"/><path class="cls-2" d="M399.38672,328.18066h4.74219v-7.95507h2.5498v7.95507h6.06836v2.39649h-6.06836v16.57324c0,2.85547.61231,4.48731,3.05957,4.48731a9.65063,9.65063,0,0,0,2.65235-.30567v2.24414a8.96793,8.96793,0,0,1-3.16211.459c-3.26368,0-5.09961-1.63184-5.09961-5.71192V330.57715h-4.74219Z"/><path class="cls-2" d="M418.81641,346.64063c.86621,3.31445,3.21191,5.30371,7.24121,5.30371,4.53808,0,6.374-2.09082,6.374-4.94629,0-2.90723-1.22363-4.335-6.93555-5.71192-6.57812-1.58105-8.21-3.56933-8.21-6.93554,0-3.51856,2.65235-6.78223,8.41407-6.78223,5.76269,0,8.5166,3.51855,8.9248,7.13965h-2.5498c-.459-2.1416-2.14258-4.79395-6.47657-4.79395-4.43652,0-5.71191,2.19336-5.71191,4.23242,0,2.34668,1.22461,3.51954,6.27246,4.74317,7.19043,1.7334,8.97559,4.0791,8.97559,7.9043,0,4.64062-3.77344,7.49609-9.12793,7.49609-5.81348,0-9.07715-3.05957-9.791-7.64941Z"/><path class="cls-6" d="M270.46967,58.48951c.73611-1.46119,2.78059-1.56253,4.38364-1.23518a10.22361,10.22361,0,0,1,4.37844,1.87116,1.93149,1.93149,0,0,1,.8727,1.39446l-.05322-.01917c.04383-1.014-1.12127-1.59064-2.09293-1.88382-1.77263-.53486-3.73605-1.00011-5.4256-.24268a5.50414,5.50414,0,0,0-2.89563,4.71377,15.06091,15.06091,0,0,0,1.04241,5.67886c2.19573,6.68259,4.99031,13.35131,9.75071,18.52981,1.55415,1.69066,3.37736,3.33225,3.92162,5.56328-2.05622-.13632-3.98556-1.01544-6.00691-1.41639s-4.40187-.19133-5.71361,1.398c-1.8581,2.25133-.496,5.64982,1.17446,8.04368a40.14367,40.14367,0,0,0,14.028,12.42479c3.813,2.025,8.30143,3.76427,10.08754,7.69478a15.90334,15.90334,0,0,1,1.00029,6.20223l.17451,6.49549a14.21758,14.21758,0,0,0-4.02409-2.53842,4.8177,4.8177,0,0,0-4.55066.50836c-1.51825,1.21437-1.77841,3.39924-1.77,5.34339a37.73367,37.73367,0,0,0,.71842,7.16325l.03931-.23291a5.08256,5.08256,0,0,1,1.45653,7.25076,2.677,2.677,0,0,0-.25228-3.2486,7.82305,7.82305,0,0,0-2.905-1.94045l-4.96252-2.32459a3.74143,3.74143,0,0,0-2.11954-.517c-1.39987.22634-2.04229,1.88293-2.14905,3.297-.50367,6.67067,4.8446,12.3864,10.57828,15.83261-2.47845-1.56368-6.01829.5312-6.75844,3.36669s.57327,5.8273,2.3584,8.15134a21.07513,21.07513,0,0,0,20.02345,7.7304,169.53644,169.53644,0,0,0-9.10893,26.95363c-2.13181-2.25151-2.30785-5.64382-3.08453-8.6456-2.4354-9.41258-11.301-15.694-20.17283-19.67114,1.05311-3.44645,2.11844-7.01743,1.68333-10.59483-.626-5.14708-4.19895-9.361-7.3326-13.492s-6.099-9.06445-5.21937-14.1743c.7503-4.35843,4.157-7.81617,5.37888-12.06657a2.84282,2.84282,0,0,0,.10067-1.63666,3.00789,3.00789,0,0,0-1.18059-1.372,24.21257,24.21257,0,0,0-6.58252-3.48889,4.8648,4.8648,0,0,1-2.31533-1.26047,4.22246,4.22246,0,0,1-.69186-2.52162c-.32522-7.03409.94939-14.41655-1.80895-20.89542-1.02111-2.39843-2.73187-4.68861-5.2004-5.52617s-5.694.354-6.3382,2.87984A7.67372,7.67372,0,0,0,243.175,99.679l1.41976,5.9303c-.94389-2.46288-4.55294-2.993-6.69845-1.45894s-2.97309,4.37138-2.9795,7.00893a15.81417,15.81417,0,0,0,6.26441,12.51418,41.221,41.221,0,0,1-10.126,2.9417l.71428.20994a8.10279,8.10279,0,0,1-3.85231.65c-3.35351-.2605-6.31022-2.58037-9.67138-2.70885l-.67281.13994a207.87633,207.87633,0,0,0,2.73924-30.70452c.03443-2.33734.0049-4.78092-1.07758-6.85278a18.7748,18.7748,0,0,0-3.68381-4.2717,33.68023,33.68023,0,0,1-7.00566-10.28353c-1.19573-2.73835-1.85365-6.34842.3417-8.37543,2.16559-1.99952,5.80406-1.05218,7.99805.91613s3.5458,4.70879,5.58358,6.83842L222.439,59.3024a18.2939,18.2939,0,0,1,.69377-6.1777,6.20178,6.20178,0,0,1,4.27159-4.17857c2.98409-.61147,5.85587,1.98689,6.698,4.91425s.21027,6.049-.36062,9.04114-1.06207,6.17136.03073,9.01469a11.06594,11.06594,0,0,1,4.72342-4.217,2.91829,2.91829,0,0,1,1.34377-.34949,2.68942,2.68942,0,0,1,1.62411.81425c2.97137,2.7352,2.751,7.63579.92542,11.23825s-4.887,6.4-7.29028,9.64575a31.14851,31.14851,0,0,0-4.68991,27.14945l-.09716-.73628q.32076,5.15481,1.04949,10.27339l10.366-2.50244c2.03536,1.639,2.7587,4.47431,2.59016,7.08214a37.99224,37.99224,0,0,1-1.78741,7.61584,46.61111,46.61111,0,0,0-1.67159,14.14261,6.5163,6.5163,0,0,0,1.10836,4.009,9.87477,9.87477,0,0,0,2.31544,1.7212c5.88417,3.87526,7.06727,12.15687,5.70774,19.07011s-4.63821,13.38014-5.56109,20.36508a49.29693,49.29693,0,0,0-.14558,9.51764,20.58549,20.58549,0,0,0,1.32331,6.96881c2.1743,5.00666,7.59974,7.71453,12.79235,9.39711a76.952,76.952,0,0,0,33.92882,2.80483c3.0502-.41309,6.23625-1.06664,8.56125-3.08374,2.751-2.38671,3.74258-6.18134,4.41682-9.76044,1.40705-7.46906,2.078-15.1526,4.79549-22.25062,5.70747-14.90781,19.72014-25.46089,25.40165-40.37862,3.11666-8.18331,3.49966-17.11178,3.89364-25.85962a45.34532,45.34532,0,0,1,1.44745-11.16841,15.44487,15.44487,0,0,1,6.43881-8.96257l.36015-.50407a49.70146,49.70146,0,0,0,1.63618-31.7115c-.4645-1.637-1.16254-3.42281-2.71131-4.12761a4.29828,4.29828,0,0,0-4.801,1.43813,12.58567,12.58567,0,0,0-2.18687,4.8661l-4.41685-12.09175A5.60935,5.60935,0,0,0,333.354,59.435a3.58267,3.58267,0,0,0-2.23981-.53184c-2.81929.18637-5.002,2.85488-5.458,5.64328s.4532,5.62,1.62411,8.19144c-2.21382-2.00265-6.049-1.20695-7.912,1.12561s-2.036,5.6545-1.256,8.536,2.3856,5.45569,3.83967,8.06285a87.38757,87.38757,0,0,1,6.81552,15.64329l-.27231.66168a6.31522,6.31522,0,0,0-6.44594.90121,13.47609,13.47609,0,0,0-3.94717,5.514c-2.20562-1.04733-1.90176-4.45823-3.65492-6.15767-1.74314-1.68971-4.598-.98533-6.89625-.20324a1.56161,1.56161,0,0,1-1.10792.09075c-.46-.20108-.60775-.76969-.69286-1.26442a60.266,60.266,0,0,1,7.1167-39.939c.892-1.54708,1.88368-3.37863,1.16947-5.01542a3.6733,3.6733,0,0,0-4.2047-1.7407,8.928,8.928,0,0,0-4.07934,2.66951,34.98211,34.98211,0,0,0-4.50093,5.57014,107.36375,107.36375,0,0,0-4.17011-22.6234A8.71627,8.71627,0,0,0,294.753,40.21c-1.43989-1.21394-3.45512-1.40423-5.33347-1.54118a9.18522,9.18522,0,0,0-4.446.40933c-2.5494,1.14466-3.482,4.26023-3.82715,7.03341a39.71393,39.71393,0,0,0,1.3164,16.09422,1.54373,1.54373,0,0,1-1.508-1.21411"/><path class="cls-7" d="M272.23744,60.25728c.95089-1.05636,4.97984-.44616,5.45631.92727l3.0753-3.0753-.05322-.01917,1.7461,1.7461c-1.19165-3.38984-5.19887-4.6309-8.618-4.31874-4.25379.38837-6.72862,4.272-6.69654,8.29251.03926,4.92126,2.564,10.187,4.5906,14.57843a43.88466,43.88466,0,0,0,4.471,7.67962c1.78669,2.42578,4.67935,4.59088,5.7321,7.4566l3.0753-3.0753c-4.54192-.66388-10.35353-3.62815-14.15288.62455-3.46011,3.873-.66,9.17568,1.90663,12.60042a42.60076,42.60076,0,0,0,13.80174,11.7945c2.676,1.44975,6.038,2.5726,8.02755,4.981,2.70463,3.274,1.8898,9.27806,1.99659,13.25285l4.26776-1.76777c-3.31663-2.5846-7.88246-5.34326-11.85729-2.22551-4.26811,3.34779-2.73,10.62-1.94746,15.13445.41268,2.38083,4.41756,2.39288,4.8214,0l.0393-.2329-3.67249,1.49407q1.89651,1.30067.55966,3.83029l4.56937,1.9264c1.72318-4.21467-1.71559-6.77391-5.13328-8.39976-3.38691-1.61121-7.82263-4.66854-10.844-.8601-6.09143,7.67832,4.74023,18.21039,10.49464,21.85292l1.9264-4.56938a7.33609,7.33609,0,0,0-9.10436,3.35424c-2.03168,3.63487-.71811,8.00911,1.45808,11.22936,5.14378,7.61161,14.443,10.74837,23.26969,9.48623l-2.82328-3.6725a185.16906,185.16906,0,0,0-9.361,27.55084l4.17846-1.10317c-2.1952-2.82246-2.062-7.00994-3.35869-10.27311a25.92285,25.92285,0,0,0-4.37067-7.14045c-4.27241-5.0546-10.09307-8.55148-16.034-11.2941l1.1489,2.82328c1.72709-5.7497,2.75745-11.265.16366-16.92461-2.5153-5.48833-7.35112-9.52047-9.82064-15.01711-3.64367-8.11008,3.20905-11.7834,4.25653-19.05054.69191-4.8003-4.357-6.38506-7.8014-8.2501-3.42527-1.85466-2.94366-3.52859-2.90019-7.35083a67.487,67.487,0,0,0-.3764-10.56507c-.63471-4.34887-2.28357-9.24576-6.14425-11.79107-2.99411-1.974-7.25347-2.09439-9.95624.5459-3.71392,3.62806-1.07128,9.60838-.06024,13.83145l4.56937-1.9264c-3.35951-5.66391-10.8772-3.8826-13.30772,1.63174-3.01223,6.83412.5685,15.01189,5.96773,19.462l1.10317-4.17846a48.76689,48.76689,0,0,1-10.12595,2.9417c-2.543.45168-2.211,4.17156,0,4.82139l.71428.20994v-4.8214c-5.04563,1.72587-9.175-2.96336-14.1965-1.91886l3.0753,3.07529c1.10159-6.88834,1.94059-13.8103,2.39933-20.77268.36572-5.55053,1.66807-12.8468-.73767-18.11382-2.14476-4.69564-7.04634-7.72481-9.557-12.348a16.80006,16.80006,0,0,1-1.9717-4.71063c-.56638-3.105,1.92474-4.35828,4.48624-2.90808,2.55183,1.44473,4.16383,5.00844,6.09782,7.22294,1.45786,1.66931,4.27253.301,4.26777-1.76776q-.01269-5.51591-.02539-11.03183c-.00251-3.0284.65147-13.88761,6.04484-7.74232,2.48985,2.837.2731,8.5001-.14558,11.87332a17.49613,17.49613,0,0,0,.51933,7.30877,2.5345,2.5345,0,0,0,4.56937.5972c1.20232-1.67006,3.47322-3.732,5.08814-1.02068.54591.91653.16084,3.06325-.079,4.02438-.67017,2.686-2.516,4.90529-4.23754,6.98976-2.64933,3.20792-5.20075,6.26343-6.95974,10.07822a34.41047,34.41047,0,0,0-1.74473,23.61237c.71795,2.61654,5.28959,2.20655,4.9107-.6646l-.09716-.73628c-.40778-3.09009-5.22619-3.28453-5,0,.25238,3.66484.64506,7.29885,1.1388,10.938.18573,1.36895,1.90639,2.02829,3.07529,1.7461l10.366-2.50243-2.43237-.64293c4.51277,4.52431-.51571,13.756-1.21928,19.2727-.59914,4.69779-1.59886,11.13283,2.54561,14.51673,4.8398,3.95163,7.005,7.53083,6.68648,14.08871-.32624,6.71782-3.49725,12.94406-5.10161,19.39023-2.47816,9.957-2.735,23.27439,6.73842,29.56,9.81616,6.513,24.07632,7.79475,35.5193,7.25244,4.92543-.23343,10.71141-.40053,15.12-2.82717,4.26945-2.35,6.16276-6.59337,7.19756-11.15758,1.39576-6.15634,1.85411-12.48782,3.47744-18.602,1.74307-6.56515,4.96813-12.27139,8.89415-17.76069,6.41578-8.9704,14.13-17.14184,18.09608-27.61565a64.58718,64.58718,0,0,0,3.491-17.75046c.581-7.18731-.49688-16.14216,3.26265-22.59152,1.30568-2.23984,3.59435-3.25873,4.95433-5.30345,1.63023-2.451,2.28321-6.141,2.87436-8.98506a52.8243,52.8243,0,0,0,.58411-18.24981c-.63543-4.42745-1.47063-12.01835-7.12207-12.80875-5.05385-.70682-7.58416,4.28711-8.78874,8.3303h4.8214c-1.6143-4.41937-2.88413-9.25971-4.97528-13.48085-1.2457-2.51456-3.308-4.092-6.23359-3.83025-8.648.77373-8.392,11.07061-5.9123,16.95467l3.6725-2.82328c-6.5959-4.39036-13.45239,1.87613-13.36489,8.84494.05691,4.53228,2.50869,8.45967,4.616,12.3,1.37068,2.4979,2.65722,5.03955,3.7905,7.65489.52441,1.21023,2.96348,5.59919,2.50069,6.72368l3.07529-1.7461c-6.18605-2.09784-10.73533,2.32219-13.21638,7.56407l3.42047-.89688c-1.80552-1.30475-1.67857-4.60352-3.65492-6.15766a6.51233,6.51233,0,0,0-3.78041-1.36807c-.17683-.00983-5.37155.64067-3.76771,1.48523-.81-.42651-.71438-6.83871-.7394-7.90775a59.58793,59.58793,0,0,1,.23538-6.88851,58.04694,58.04694,0,0,1,3.27229-14.4426c1.65253-4.54152,9.43777-13.8207,3.65959-18.17146-6.162-4.63978-12.51348,4.02333-15.496,8.35769l4.65868,1.2618a103.5789,103.5789,0,0,0-4.25941-23.288c-1.67239-5.14275-4.61254-7.3958-10.0723-7.73565-13.97327-.86979-11.784,17.76081-9.36745,26.70156l3.07529-3.0753-.01395-.06521c-1.68983-2.7312-6.01681-.22316-4.31735,2.5236a4.64344,4.64344,0,0,0,3.00211,2.363c1.84308.64979,3.545-1.33769,3.07529-3.0753-1.41967-5.25242-4.60269-24.345,6.71262-20.09494,3.79466,1.42527,4.29415,7.97655,5.01335,11.22254a109.27626,109.27626,0,0,1,2.1518,14.52369,2.52317,2.52317,0,0,0,4.65868,1.2618c1.08766-1.58063,2.37663-4.0901,4.11-5.06418,7.1326-4.00816,3.02178,1.2669,1.95245,3.32888a63.737,63.737,0,0,0-3.64634,8.511,62.71758,62.71758,0,0,0-3.42,20.12184c-.01292,3.18728-.78832,11.85494,2.775,13.71923,2.75222,1.43992,5.49914-1.3361,8.33533,1.42568,1.45766,1.41941,1.40338,3.45673,3.32376,4.84448a2.50791,2.50791,0,0,0,3.42047-.89688c1.4319-3.02527,3.60221-6.61179,7.56984-5.26628a2.562,2.562,0,0,0,3.07529-1.7461c1.3878-3.37206-2.61733-9.83243-4.06677-12.90958-1.3643-2.89639-3.02975-5.61089-4.48353-8.45631-1.06354-2.08163-2.14538-4.24207-2.1783-6.64189-.04178-3.04618,2.39963-6.81842,5.84129-4.52759,1.69051,1.12524,4.52866-.79164,3.6725-2.82327-.75235-1.78526-1.69866-3.87449-1.65343-5.85105q-.57568-3.97224,2.74173-3.1504,2.5533-1.038,2.6042,1.65192c1.87306,2.54216,2.69022,7.36485,3.78587,10.36436a2.523,2.523,0,0,0,4.8214,0c.42636-1.4311,1.26793-5.699,4.18079-3.99279.512.29989.93707,2.72361,1.13224,3.46084a42.47493,42.47493,0,0,1,1.29685,9.42865,47.45817,47.45817,0,0,1-.60861,9.502c-.46173,2.72467-.93887,7.15531-2.68768,9.46182-.766,1.01028-2.44473,1.84862-3.35072,2.98419a19.71417,19.71417,0,0,0-3.06249,5.48723c-2.16821,5.84085-1.89607,12.31086-2.25148,18.43636-.75084,12.94081-4.0751,23.48684-11.747,33.95591-6.21515,8.48119-13.403,16.38872-17.202,26.35476-2.08953,5.48155-2.957,11.29614-3.90478,17.0553-1.09335,6.64348-1.45194,13.69787-9.06412,15.75856-11.71507,3.17139-27.16549,1.36995-38.25775-3.20262-6.99246-2.8825-9.50271-7.44976-9.78138-14.928-.273-7.32543,1.70669-13.63444,3.87715-20.51259,2.60019-8.23995,4.33634-18.40831-1.6815-25.69614-2.12658-2.57538-4.99976-3.68852-5.53474-7.46229-.494-3.48477.35328-7.46657,1.15163-10.854,1.17608-4.99018,3.52438-10.071,1.51234-15.17719-1.34842-3.422-3.18136-4.69339-6.56451-3.93567-2.92544.65521-5.832,1.40788-8.74631,2.11143l3.0753,1.7461c-.43334-3.194-.7388-6.394-.96019-9.60879h-5l.09716.73628,4.9107-.6646A29.0647,29.0647,0,0,1,235.51267,92.957c3.03274-5.11887,8.24836-8.95061,10.04161-14.79021,1.2474-4.06208.873-9.43367-2.82868-12.16147-4.1917-3.08888-8.71285,1.3169-11.11177,4.64907l4.56937.5972c-1.74627-5.99781,2.16729-12.02749.3299-18.05583-1.11954-3.67314-4.447-6.96334-8.47553-6.78662-11.20507.49156-8.08481,18.8779-8.069,25.76371l4.26777-1.76777c-3.64821-4.17735-7.1299-10.88965-13.86512-9.43459-6.13535,1.32547-6.00419,8.14866-4.11067,12.78644a33.89463,33.89463,0,0,0,5.41952,8.77315c3.05415,3.66393,6.09356,5.7546,6.13476,10.966a186.41425,186.41425,0,0,1-2.65247,30.74558,2.53933,2.53933,0,0,0,3.07529,3.0753c2.27378-.473,5.3413,1.81869,7.59973,2.34357a11.61111,11.61111,0,0,0,6.59676-.4247,2.52234,2.52234,0,0,0,0-4.8214l-.71428-.20993v4.82139a48.76652,48.76652,0,0,0,10.126-2.9417c1.54249-.63346,2.72211-2.84411,1.10316-4.17846a14.3295,14.3295,0,0,1-5.007-7.12041,12.23368,12.23368,0,0,1-.5252-3.626c.01322-.39676,1.74526-9.808,5.01928-4.28819a2.5116,2.5116,0,0,0,4.56937-1.9264c-.44817-1.872-1.31413-4.013-1.41976-5.9303-.29291-5.31649,4.37961-3.3148,6.13149-.258,2.59508,4.52809,2.06277,10.48462,2.004,15.49626-.03439,2.93366-.69725,7.17852,1.45605,9.61072,2.839,3.20671,10.28023,1.95683,8.15889,8.12024-1.16429,3.38274-3.62574,5.94319-4.24758,9.60424-.62972,3.70746.47524,7.34647,2.1675,10.6165,2.03733,3.93682,5.14559,7.14918,7.52913,10.86005,3.51667,5.475,3.02317,10.43812,1.21666,16.45224a2.51865,2.51865,0,0,0,1.1489,2.82328c6.16488,2.846,12.4978,6.501,16.34412,12.289,3.2466,4.88557,2.80007,10.99893,6.40727,15.63683,1.17952,1.51655,3.75711.56466,4.17846-1.10317a177.12331,177.12331,0,0,1,8.85691-26.35643,2.54146,2.54146,0,0,0-2.82327-3.6725,18.77282,18.77282,0,0,1-12.3064-2.41412,17.72549,17.72549,0,0,1-4.38578-3.5884c-1.14479-1.31806-5.69324-11.17957,1.06877-8.42451,2.71386,1.10571,4.21719-3.11931,1.9264-4.56937-3.57208-2.26112-7.07261-5.13494-8.61582-9.20431-3.78741-9.98723,7.20574-1.50686,6.75345-.4006-1.08861,2.66258,3.18645,4.32036,4.56937,1.9264,2.27646-3.94076,1.17342-7.98749-2.35342-10.67124a2.50921,2.50921,0,0,0-3.67249,1.49408l-.03931.23291h4.8214c-.69855-4.03009-1.8371-13.72125,5.44782-8.04421,1.58407,1.23444,4.3316.60827,4.26777-1.76777-.11563-4.30395.39535-9.28995-1.2641-13.36232-1.45277-3.56516-4.70424-5.76289-7.97744-7.51069-4.43759-2.36957-8.61455-4.70188-12.21966-8.29373-1.36239-1.35738-4.923-4.35862-4.96647-6.183l1.932-4.57036,2.08207.44314c1.54593.38048,2.92265.81385,4.50473,1.0451,1.68318.246,3.8085-1.07941,3.0753-3.0753-1.00368-2.73213-2.66981-4.52587-4.56456-6.66644a39.57609,39.57609,0,0,1-6.48272-10.40332c-.83508-1.89517-6.9613-15.455.22048-14.46806,1.87776.25806,1.86394,1.6822,3.50414,2.27306a2.51543,2.51543,0,0,0,3.0753-3.07529c-1.7398-5.01489-10.17611-7.17413-13.81325-3.13361-2.14774,2.386,1.37724,5.93321,3.53554,3.53554Z"/><path class="cls-6" d="M218.85322,124.34743a189.27438,189.27438,0,0,0,2.37046-24.17476c.12658-3.77615.08127-7.78148-1.886-11.00721-1.81427-2.97495-4.97724-4.81432-7.47442-7.24455a20.47664,20.47664,0,0,1-5.66582-10.147c-.53486-2.39725-.56841-5.10977.89142-7.08507,2.17128-2.938,6.82928-2.91449,9.90255-.93937S221.93174,69.07,223.67592,72.28c-1.49832-4.55246-2.82549-9.341-2.13481-14.08364s3.91121-9.43026,8.60723-10.388a2.93793,2.93793,0,0,1,2.15353.20372,3.40763,3.40763,0,0,1,1.20435,2.31793,54.40239,54.40239,0,0,1,.235,20.89244c2.82341-.97967,4.58675-4.98269,7.50381-4.33294a3.87342,3.87342,0,0,1,1.86156,1.1362c3.60108,3.665,1.89655,9.98245-1.26017,14.03644s-7.55518,7.2702-9.54364,12.00789c-1.35013,3.2168-1.43531,6.80609-1.41732,10.29469q.05566,10.79022,1.17228,21.54013"/><path class="cls-7" d="M220.05857,124.67973a201.38279,201.38279,0,0,0,2.25286-20.77105c.2844-5.33219.84764-11.33316-2.32148-15.97936-3.28-4.80883-8.716-7.086-11.28682-12.61315-2.2019-4.734-1.80649-13.64,5.71709-11.37786,4.048,1.21712,6.28948,5.53916,8.17636,8.97257a1.25555,1.25555,0,0,0,2.28469-.9632c-2.15231-6.71887-4.34965-15.43726,1.664-20.90775,2.01643-1.83429,4.44382-1.68372,5.93349.56121.99739,1.50306.68,4.39948.79982,6.29895a56.9434,56.9434,0,0,1-.7427,12.99,1.26855,1.26855,0,0,0,1.83625,1.41164c1.54568-.75362,2.5213-2.20978,3.96977-2.973,6.63013-3.49332,5.763,6.36027,3.97986,9.69622-2.5271,4.72773-7.29189,7.79219-10.03918,12.38562-2.54563,4.25625-2.67787,9.10867-2.63766,13.935.05725,6.87022.48322,13.72406,1.16283,20.55924.1577,1.58606,2.65933,1.60237,2.5,0-.8845-8.89584-2.53363-19.32065-.77112-28.17908,1.59738-8.02848,9.51447-11.58356,12.5697-18.755,1.67594-3.93388,2.14928-9.81853-1.97054-12.53415-4.10755-2.70753-6.7396,2.1044-10.02546,3.70647l1.83625,1.41164c.83184-5.00238,4.14758-28.16615-6.37394-24.60081-10.82674,3.66877-8.74272,17.4152-6.10211,25.65841l2.28469-.96319c-2.81678-5.12546-6.87537-11.37156-13.65514-10.46124-5.948.79864-7.22666,6.56774-5.92118,11.63063a21.54761,21.54761,0,0,0,4.31577,8.35253c2.93067,3.52377,7.42139,5.62969,9.32885,9.9422,2.06306,4.66435,1.15342,10.64012.81543,15.59483-.39565,5.79981-1.08209,11.56583-1.99112,17.30709-.24921,1.57393,2.1594,2.2517,2.4107.6646Z"/><path class="cls-6" d="M243.35867,141.4009a48.19609,48.19609,0,0,0,.81049-12.80589,6.60643,6.60643,0,0,0-.8566-3.27282,10.90712,10.90712,0,0,0-2.44892-2.15726c-2.99194-2.40042-4.34858-6.26977-5.26278-9.99509-.55865-2.27647-.97119-4.82209.20461-6.84987a5.14869,5.14869,0,0,1,8.066-.605,68.43281,68.43281,0,0,1-.45682-9.54114c.03013-1.36761.165-2.88048,1.16016-3.819a4.00224,4.00224,0,0,1,2.37267-.93782c4.07615-.41285,7.8855,2.65427,9.56066,6.39316s1.648,7.99928,1.36607,12.08658-.785,8.23452.03474,12.24868a3.7523,3.7523,0,0,0,.53505,1.4485c1.16275,1.63584,3.71249.83419,5.67,1.277a4.32336,4.32336,0,0,1,3.1978,4.72248,9.38514,9.38514,0,0,1-1.24649,2.9407c-4.03871,7.368-5.24487,17.35189.34278,23.627a27.16378,27.16378,0,0,1,2.98619,3.36453c1.01983,1.62244,1.31641,3.58394,2.01963,5.36659,1.2628,3.20114,3.90305,6.10685,3.57339,9.53224-.26057,2.7076-2.33086,4.84851-3.43187,7.33583-1.23353,2.7867-1.21969,5.94321-1.18458,8.99052l.40474,35.12436"/><path class="cls-7" d="M244.564,141.7332c.85785-4.77559,2.6963-12.819-.26984-17.1684-1.71293-2.51173-4.31438-3.57033-5.76174-6.53148a22.29294,22.29294,0,0,1-1.72622-5.19578,11.72032,11.72032,0,0,1-.32181-4.91276q2.22293-4.4293,6.50323-1.326c.71781.67287,2.25279.25829,2.13389-.88388-.19813-1.90321-.36932-3.80483-.43414-5.71777q-.06478-1.91137-.02268-3.82337l4.60795-3.342c5.5107-.30794,7.36678,9.12632,7.47845,12.6522.15965,5.04079-2.63553,14.10654.55061,18.59147a4.15671,4.15671,0,0,0,3.07673,1.79706c2.99268.5969,6.10546-1.80521,4.6076,6.03059a17.34708,17.34708,0,0,1-1.36191,2.84281,25.3787,25.3787,0,0,0-1.89109,14.47027c1.15262,5.91618,5.95822,9.23183,8.00676,14.64581,1.02115,2.69876,2.99671,5.302,3.69885,8.06688,1.01559,3.99923-1.73624,6.209-3.08851,9.499-2.364,5.75156-1.18633,13.04564-1.1168,19.07959l.29231,25.36759a1.25075,1.25075,0,0,0,2.5,0l-.35977-31.22165c-.05257-4.56225-.55013-9.28259,1.58736-13.48135,1.39016-2.73076,3.25488-4.93136,2.95625-8.18629-.25149-2.74111-1.993-4.95313-3.10332-7.36836-1.62994-3.54547-2.2728-6.22745-4.77359-9.252-6.866-8.304-4.03824-15.60289-.4348-24.62644,1.96454-4.9195-.92292-6.987-5.01346-8.26394-3.99226-1.24628-4.136-2.33637-4.17193-6.54887-.02005-2.34837.277-4.68869.41187-7.02949.20723-3.59805.3102-7.30354-.79279-10.78659-1.48714-4.69612-5.97925-9.622-11.38394-8.94315-7.04967.88549-4.82754,10.73036-4.326,15.548l2.13388-.88389c-5.00064-4.68757-11.39765-.47856-10.86784,5.86051a22.69607,22.69607,0,0,0,4.13622,11.30673c2.21419,2.85554,4.40179,3.30277,4.94253,7.51473.48051,3.74281-.15764,7.90728-.813,11.55559-.28259,1.57314,2.12625,2.24811,2.41069.6646Z"/><path class="cls-6" d="M243.38209,141.42845a22.54892,22.54892,0,0,0-3.08652,13.164c.11619,1.51462.4705,3.16314,1.67221,4.09238,1.28327.99231,3.09483.84079,4.62075,1.39127,3.85994,1.39249,4.62966,6.47837,4.36419,10.57321-.7416,11.439-4.50519,22.46772-6.02449,33.82964a19.08516,19.08516,0,0,0,.08327,7.37132c1.07349,4.07805,4.45173,7.15527,8.05947,9.33862a36.01733,36.01733,0,0,0,17.90637,5.16871"/><path class="cls-7" d="M242.30275,140.79755c-2.50739,4.61246-6.6771,16.40991.08292,19.52523,2.72417,1.25541,5.41415.9357,6.72663,4.35884.9196,2.39845.67317,5.26424.449,7.77055a147.42974,147.42974,0,0,1-3.3137,18.34969c-1.822,8.30878-5.685,19.28991.39722,26.65951,5.70865,6.917,15.73014,9.78319,24.33254,10.14623,1.60869.06789,1.6055-2.43225,0-2.5-8.54419-.36058-22.19035-3.97124-24.76049-13.58963-1.4388-5.38451.72778-12.07207,1.86164-17.39437.94362-4.42928,1.99377-8.83611,2.8005-13.29362,1.03329-5.70927,2.936-13.379-.22352-18.75078-1.30366-2.21647-2.84394-2.48188-4.91992-3.51852-6.699-3.34516-4.24763-11.03143-1.27412-16.50133.76861-1.4139-1.3892-2.6773-2.15868-1.2618Z"/><path class="cls-6" d="M218.97086,125.4067a50.71844,50.71844,0,0,0,12.80685,2.23233"/><path class="cls-7" d="M218.63856,126.61205a55.67778,55.67778,0,0,0,13.13915,2.277c1.60777.08549,1.60306-2.41476,0-2.5a52.83933,52.83933,0,0,1-12.47455-2.18768,1.25108,1.25108,0,0,0-.6646,2.4107Z"/><path class="cls-6" d="M309.00654,181.89933a28.60256,28.60256,0,0,1-27.27536-12.0801c-1.1248-1.6759-1.98569-4.1387-.51787-5.52409a4.32535,4.32535,0,0,1,2.66324-.90456,25.63732,25.63732,0,0,1,11.00865,1.47687c-3.82246-1.76957-7.693-3.5691-10.93326-6.26043s-5.83227-6.42326-6.24866-10.61482a4.07785,4.07785,0,0,1,.90388-3.43823c1.07425-.99785,2.76982-.81288,4.18114-.41554a21.08529,21.08529,0,0,1,9.063,5.27434,28.21527,28.21527,0,0,1-3.61318-13.55976c-.01408-1.81248.24709-3.83015,1.634-4.99711,1.52834-1.286,3.929-.99817,5.572.13763a12.95858,12.95858,0,0,1,3.65405,4.67724,132.00632,132.00632,0,0,1,12.55868,32.56671c.55488,2.31487,1.02956,4.83751.044,7.00434-1.09778,2.4135-3.927,4.27979-3.54742,6.90391"/><path class="cls-7" d="M309.00654,180.64933a27.93113,27.93113,0,0,1-19.07889-4.44281c-2.16467-1.45092-7.1321-5.17584-7.5996-8.00363-.97953-5.92494,9.45345-3.05129,12.22485-2.13009,1.32451.44026,2.25753-1.68309.9632-2.28469-4.61838-2.14659-9.53718-4.36465-12.96506-8.26951a16.67432,16.67432,0,0,1-2.46269-3.66634l-.92458-2.64321,3.29223-3.86527c2.04946-.759,7.12527,3.67949,8.51139,4.95287a1.25564,1.25564,0,0,0,1.96322-1.51478,27.63365,27.63365,0,0,1-3.3719-11.15782c-.05016-.90075-.41274-3.50283.17636-4.17937l5.95434-.60366a14.49419,14.49419,0,0,1,1.95712,2.80553,102.79825,102.79825,0,0,1,7.93519,17.08365,107.084,107.084,0,0,1,4.86974,15.83958c.82585,3.9751-.04637,6.15865-2.15771,9.41411a7.51267,7.51267,0,0,0-1.39037,4.16184c-.07017,1.60859,2.43,1.6052,2.5,0,.15672-3.59267,3.97609-5.8135,4.11751-9.63883.14322-3.87421-1.48334-8.06993-2.5768-11.7166a120.6677,120.6677,0,0,0-11.13888-26.40555c-2.15075-3.65291-7.30229-8.30625-11.23821-3.90362-4.3,4.80995-.2682,14.82334,2.20493,19.56254l1.96322-1.51479c-3.30593-3.03706-15.30075-10.66385-16.30168-1.78583-1.10652,9.81456,10.62628,15.85975,17.82083,19.20374l.9632-2.28469c-3.7059-1.23181-11.20356-3.37051-14.63509-.4463-2.8068,2.39185-.7217,6.20258.99594,8.5245,6.26169,8.46461,17.11422,12.63247,27.42819,11.409,1.5782-.1872,1.59707-2.68944,0-2.5Z"/><path class="cls-6" d="M299.774,136.21715a30.39525,30.39525,0,0,0-2.23359-15.79033,10.31391,10.31391,0,0,0-2.47169-3.77167c-1.47764-1.29673-3.45982-1.80888-5.31133-2.46981a29.93559,29.93559,0,0,1-15.93053-13.4978c-1.68389-3.0258-2.61005-7.32092.02827-9.56374,2.56-2.17627,6.4471-.77192,9.45986.71574L276.67447,81.5599c-2.71374-4.20094-5.48187-8.5327-6.45835-13.43768a19.98026,19.98026,0,0,1,.26869-8.93514,5.0597,5.0597,0,0,1,2.23931-3.45233c1.63663-.812,3.603.10012,5.03761,1.23139s2.78326,2.55011,4.57477,2.9084l-1.43061-8.74571c-.659-4.02839-1.15327-8.67046,1.566-11.71473,3.10856-3.48,9.13178-2.78559,12.56562.37393s4.797,7.96582,5.47365,12.58274.84,9.37919,2.51938,13.73274l6.31986-6.55529c1.03235-1.07081,2.325-2.23355,3.7906-1.97983,2.357.408,2.55828,3.73212,1.9257,6.039-2.18456,7.96673-7.04445,15.05288-8.79536,23.126-1.59428,7.35084-.50125,14.98635.59663,22.42754,1.45062,9.832,2.90458,19.68121,5.27169,29.33362,1.73344,7.0685,3.96353,14.075,4.50387,21.33288s-.81677,14.99563-5.503,20.56409"/><path class="cls-7" d="M301.024,136.21715c.71495-7.4028-.22439-18.68524-7.98914-22.17767-4.91128-2.209-9.30549-3.70725-13.2536-7.60192a26.19983,26.19983,0,0,1-4.87506-6.38092,9.66291,9.66291,0,0,1-1.30069-3.46576c-.40969-8.10828,6.46485-4.88732,9.07859-3.672,1.04356.48523,2.44818-.56788,1.71023-1.71024-3.93132-6.0858-8.65874-12.15839-11.48692-18.8535a20.967,20.967,0,0,1-1.65287-6.18972,12.97523,12.97523,0,0,1-.1128-3.42626q-.69276-3.64984,2.6877-4.34865c3.18211-1.67919,2.70674-.27493,5.3285,1.30131a12.143,12.143,0,0,0,2.84631,1.38807c.98868.3479,1.6776-.68211,1.53765-1.53765-.7393-4.51954-2.08643-9.35836-1.89934-13.95411.27758-6.8185,7.40585-9.36991,12.51114-4.91621,6.92743,6.04327,4.95336,17.78975,7.67156,25.76389a1.26383,1.26383,0,0,0,2.08923.55159c1.64549-1.70678,3.61382-4.7038,5.68788-5.89977,5.87032-3.385,4.19595,2.69669,3.25626,5.33163-1.76113,4.93823-4.30193,9.55632-6.12675,14.47-3.71259,9.99684-2.32049,20.159-.79693,30.44766a312.41263,312.41263,0,0,0,6.35847,32.78462c3.0155,11.63278,6.03282,25.01764-2.0367,35.38614-.9766,1.25482.78032,3.03652,1.76776,1.76776,7.3901-9.4955,6.63875-21.392,4.01995-32.51772-3.53388-15.01339-6.8484-29.86-8.707-45.20659-.94984-7.843-.785-15.31688,2.09359-22.76876,2.22533-5.76069,6.185-11.67668,7.05727-17.88212.32988-2.34693.03-5.4758-2.57394-6.36621-4.47393-1.52983-9.31886,6.1456-11.76765,8.68562l2.08923.55158c-3.22335-9.456-.97666-28.36092-14.969-29.85314-13.91147-1.48361-9.39226,16.60761-8.13579,24.28877l1.53765-1.53765c-3.30527-1.16311-6.266-5.819-10.277-4.13979-3.24017,1.35652-3.68782,6.13765-3.77722,9.11064-.32355,10.7596,8.11209,20.30245,13.621,28.8304l1.71023-1.71024c-3.65133-1.69776-8.8756-3.57407-11.80241.41049-2.70722,3.68559-.38412,8.80627,1.80206,12.09288A31.24316,31.24316,0,0,0,287.011,114.40233c4.57942,2.07453,7.97827,2.59166,9.9845,8.0234a30.85862,30.85862,0,0,1,1.52845,13.79142c-.15456,1.60039,2.34647,1.58975,2.5,0Z"/><path class="cls-6" d="M307.96641,107.66285c.39648-1.95756,3.07734-2.66115,4.873-1.78666s2.87478,2.7201,3.849,4.46367l2.17857,3.89888,1.83226-3.09911a11.11729,11.11729,0,0,1,3.56794-4.21639c1.60609-.94257,3.98657-.84463,5.01191.70994"/><path class="cls-7" d="M309.04575,108.29374c2.14516-5.0069,5.90515,1.57751,6.56338,2.677.76358,1.27549,1.45359,2.60143,2.17857,3.89888a1.2617,1.2617,0,0,0,2.15868,0c1.27113-2.15,4.86852-10.17767,8.44888-6.35258,1.1018,1.17711,2.86695-.59346,1.76777-1.76777-5.19957-5.555-10.11756,3.03974-12.37533,6.85855h2.15868c-1.65192-2.95635-3.33964-7.55923-6.77465-8.937a4.73035,4.73035,0,0,0-6.28466,2.3611c-.62671,1.46276,1.52627,2.73785,2.15868,1.26179Z"/><path class="cls-6" d="M324.59986,144.9288a50.27355,50.27355,0,0,0-1.25779-51.48752c-2.06555-3.18355-4.52988-6.18633-5.77478-9.77125s-.954-8.0545,1.90386-10.55134,8.43065-1.32274,9.02139,2.42592c-1.55975-3.43681-3.157-7.11839-2.59619-10.85068s4.26865-7.23552,7.86986-6.106c2.78672.874,4.21658,3.974,4.72961,6.84916s.4729,5.92605,1.7864,8.53459c2.65341-2.10487,3.58284-6.98077,6.96494-6.80083,2.39224.12728,3.61247,2.894,4.13707,5.23148a55.19938,55.19938,0,0,1-.37851,25.64368,21.76693,21.76693,0,0,1-2.08747,5.5526c-1.18854,2.05586-2.89394,3.76186-4.23348,5.72268-4.78337,7.00188-4.35739,16.14437-5.17675,24.58449a64.06211,64.06211,0,0,1-4.8926,19.4615c-7.4124,16.96279-23.24131,30.18381-26.44623,48.41588-.88363,5.02673-.73993,10.21067-1.88793,15.18368a11.63667,11.63667,0,0,1-1.70208,4.21411,12.139,12.139,0,0,1-5.029,3.66133,37.69135,37.69135,0,0,1-28.20314,1.09819"/><path class="cls-7" d="M325.6792,145.5597a52.07155,52.07155,0,0,0,5.68352-35.33086,50.14984,50.14984,0,0,0-6.94131-17.41846c-1.95234-3.06065-4.49739-5.96637-5.64877-9.47265A10.37741,10.37741,0,0,1,318.49,76.9415c1.28273-3.63822,7.31672-6.14932,8.79722-1.06459l2.28469-.96319c-1.15967-2.59623-2.65664-5.682-2.54016-8.62391.18354-4.63564,6.22431-9.1016,9.18532-3.84944,1.99627,3.54092,1.36163,8.09247,2.85983,11.86358a1.26807,1.26807,0,0,0,2.08924.55158c2.88689-2.7722,5.35772-9.82,9.01277-2.12093,1.79564,3.78238,1.41777,10.21138,1.218,14.35971-.25014,5.19308-.95736,11.24164-3.55793,15.87337-1.688,3.00639-4.26652,5.30975-5.79566,8.44317-3.15818,6.47156-3.03541,13.901-3.64462,20.90484a64.47607,64.47607,0,0,1-7.90592,26.458c-7.03554,12.465-17.53784,23.12351-22.0734,36.92866a47.38114,47.38114,0,0,0-2.00645,9.87453c-.648,6.13441.03891,13.94771-6.0741,17.48687-8.51108,4.92753-19.62187,4.72464-28.65937,1.67132-1.52763-.51611-2.18317,1.89765-.6646,2.4107a40.00572,40.00572,0,0,0,21.61445,1.31086c5.76807-1.28025,12.41511-3.59623,14.461-9.68008,2.74408-8.16025,1.47964-17.01512,4.74968-25.1728,2.83926-7.083,7.30449-13.39983,11.65525-19.614,8.92433-12.74667,15.89482-25.049,17.3332-40.879.81677-8.98888.7138-17.69056,6.4669-25.17495,4.3356-5.64031,5.90476-11.93274,6.48192-18.99656a56.17014,56.17014,0,0,0-.50145-13.23654c-.42068-2.68849-.85643-6.565-3.12543-8.52229-5.03019-4.33906-7.93774,3.205-10.75192,5.90738l2.08923.55159c-1.98352-4.99272-1.43415-18.6315-10.72372-16.30408-8.92349,2.23569-5.915,13.09932-3.35065,18.84024.58317,1.30558,2.674.37394,2.28469-.96319-1.2803-4.39717-6.67768-5.97931-10.43717-3.46835-5.79034,3.86737-3.56262,12.04849-.62763,16.90542,5.21031,8.62223,9.901,16.18431,10.94268,26.502a49.40144,49.40144,0,0,1-6.05525,29.14648c-.7857,1.40593,1.37286,2.66793,2.15868,1.2618Z"/><path class="cls-6" d="M305.00061,182.09452a8.56654,8.56654,0,0,0-2.28606,4.31266l-6.95234,23.01765c-1.30546-1.42384-1.55936-3.48447-1.87431-5.39034a45.59435,45.59435,0,0,0-3.65921-11.82373,11.716,11.716,0,0,0-2.8495-4.16223c-1.80321-1.51316-4.23568-1.963-6.44141-2.78515a18.97026,18.97026,0,0,1-6.0619-3.67774"/><path class="cls-7" d="M304.11672,181.21064c-2.724,2.95819-3.34975,7.32161-4.4793,11.0613l-5.08056,16.82059,2.28469-.2986c-2.1101-3.10164-2.08813-7.58784-3.18306-11.1258a32.449,32.449,0,0,0-3.557-8.33686c-3.28449-4.88549-9.98073-4.9869-14.34173-8.62951-1.22672-1.02465-3.00443.73482-1.76777,1.76776,4.47677,3.73932,11.42549,4.33572,14.59238,9.22689,3.61424,5.58212,2.487,13.05074,6.09849,18.35932a1.26725,1.26725,0,0,0,2.28469-.2986l4.011-13.27941c1.2309-4.07522,1.94-10.27846,4.906-13.49932,1.0884-1.182-.67507-2.95438-1.76777-1.76776Z"/><path class="cls-6" d="M177.32069,218.72857a15.95054,15.95054,0,0,0,4.22956.81024l48.66458,4.82585a31.23559,31.23559,0,0,0,8.99257.02118c5.147-.99428,9.4776-4.5283,12.78443-8.59582,10.51731-12.93663,12.11923-30.72841,13.28242-47.36021.1397-1.99748.25752-4.10976-.65364-5.8928-1.2865-2.51754-4.39918-3.69839-7.21243-3.41771a16.078,16.078,0,0,0-7.64884,3.42281l.65879-.5513c-3.18778-9.54174-.51372-19.95938-1.10694-30.002-.19361-3.2775-1.26039-7.16787-4.40907-8.09809-2.80521-.82874-5.57787,1.20525-7.79181,3.11692-2.00586,1.732-4.05853,3.54033-5.21032,5.9271l-.03825-.918q-1.13495-11.29359-1.33077-22.65539a32.67214,32.67214,0,0,0-.67559-7.50679,10.18839,10.18839,0,0,0-4.04506-6.17047c-2.69754-1.73606-6.15249-1.56957-9.35231-1.342l-.64634.01664c1.00375-4.35087,2.01373-8.7703,1.7854-13.22962s-1.8621-9.04318-5.31663-11.87229c-5.01878-4.11017-13.40066-3.09095-17.28818,2.1022-3.10247,4.14445-3.22191,9.727-3.21364,14.904l.04839,30.28665-.10376-.14362c-3.53568-1.07-7.44069.96037-9.5916,3.96363s-2.895,6.77234-3.36733,10.43607c-1.05149,8.15619-1.024,16.40833-.9949,24.632l.22821,64.40779"/><path class="cls-7" d="M244.52288,223.563c9.3565-6.21679,15.23226-15.86655,18.40116-26.50623a111.1523,111.1523,0,0,0,3.62764-20.55162c.48071-4.73181,2.021-11.14185-.33649-15.62873-4.27693-8.14-16.72074-2.85192-19.17143,4.16821a6.22339,6.22339,0,0,0,3.16907,7.95757c4.65879,2.12683,11.02624-.47993,15.58-1.54355,2.34909-.54868,1.3547-4.16531-.9969-3.61605-3.15658.73728-7.2424,2.42666-10.513,2.1487q-2.82622.65252-2.64792-2.37342-1.73332-2.4601.85264-4.10734a11.0902,11.0902,0,0,1,5.33121-2.85235c9.29788-1.57517,4.88458,17.7403,4.1664,22.72867-2.03446,14.13121-6.92977,28.68232-19.35506,36.93812-2.00084,1.32943-.12508,4.5787,1.8927,3.238Z"/><path class="cls-7" d="M244.42582,222.81855a302.81582,302.81582,0,0,0,6.72143-47.79466q.72508-12.41086.41095-24.85284c-.17332-6.74959.08559-14.17557-1.45429-20.78654-2.72-11.67744-17.209-6.98682-20.29939,2.20147-1.36817,4.06785,1.13122,7.12762,4.76356,8.69768,5.23525,2.26292,11.11785,1.35177,15.913-1.46479,2.07965-1.22154.19474-4.46413-1.89269-3.238-2.9421,1.72812-17.53192,4.76608-14.96832-3.46406.71726-2.30269,5.18473-5.67341,7.3857-6.05214,5.103-.87809,5.52595,3.752,5.85618,6.92168a245.9793,245.9793,0,0,1,1.0171,28.65922,296.52846,296.52846,0,0,1-7.06926,60.17609c-.52071,2.35149,3.09368,3.35584,3.61605.9969Z"/><path class="cls-7" d="M221.40118,219.43068c3.08371-20.47086,6.34772-40.92416,9.20295-61.42825,1.267-9.09862,2.36561-18.22966,2.855-27.40715.4742-8.89276,1.28731-19.0564-1.17234-27.73889-1.64528-5.8078-6.31449-11.6617-12.941-11.41678-5.02964.1859-10.77017,5.12249-12.376,9.7687-2.126,6.15129,4.26714,8.56737,9.28539,8.75585,6.82777.25644,12.80855-3.35316,14.95392-9.90784.75245-2.2989-2.86746-3.284-3.616-.99689a10.49065,10.49065,0,0,1-9.6357,7.14272c-1.47758.10606-4.05187.32925-5.13771-.539-2.0355-1.62761-1.813-4.30783-.1794-6.17792,2.24692-2.5722,5.29077-5.0621,8.95462-4.00257,3.79274,1.09679,6.03831,4.80986,7.07586,8.37063,1.65169,5.66852,1.35507,12.2224,1.30918,18.07155-.05045,6.43206-.46078,12.85543-1.08364,19.25607-2.5157,25.85154-7.24315,51.57559-11.11115,77.25287-.35563,2.36081,3.25721,3.379,3.61605.9969Z"/><path class="cls-7" d="M205.63467,219.65636a390.85471,390.85471,0,0,1,.30079-59.15581c1.67619-19.15285,5.96055-38.03072,5.1885-57.35211-.0961-2.405-3.84659-2.41726-3.75,0,.772,19.3192-3.51239,38.20022-5.1885,57.35211a390.8673,390.8673,0,0,0-.30079,59.15581c.1576,2.39574,3.90875,2.41336,3.75,0Z"/><path class="cls-7" d="M194.22248,213.22083a344.49859,344.49859,0,0,1-1.50218-45.17394c.49947-14.79224,2.75916-29.45115,1.95964-44.2698-.78435-14.53749-3.85215-29.96683-1.1884-44.4576,1.51489-8.241,11.04177-14.97783,18.25478-7.91435,5.20544,5.09754,3.62845,16.39889,1.60667,22.599-.74992,2.29974,2.8699,3.28506,3.61605.9969,3.55387-10.89846,3.0245-30.89172-12.92946-30.23725-16.73854.68664-15.4557,22.674-14.904,34.22816.45582,9.54669,1.64838,19.0454,1.96682,28.60021.31281,9.38567-.816,18.61742-1.47935,27.96133a342.84734,342.84734,0,0,0,.84946,57.66737c.23283,2.38,3.98519,2.40415,3.75,0Z"/><path class="cls-7" d="M242.97255,219.79753c-4.49021,4.9393-13.16136,2.9406-19.04269,2.53412l-22.42425-1.54984-10.72464-.74122c-2.01517-.13928-9.45178.45473-10.631-1.184-.46179-.64172-.08726-5.06237-.10133-5.8788l-.10134-5.87881-.18577-10.77782c-.25153-14.59238-.79658-29.215-.67641-43.80939a90.756,90.756,0,0,1,2.41573-21.9334c.84381-3.27829,1.688-8.02678,4.40367-10.34191l2.96712-1.35719q4.909,4.24687-1.114,5.95169c-2.06377.58568-4.57679-.0544-6.60024-.43611-2.35859-.44494-3.36927,3.1685-.9969,3.616,4.89881.92415,11.1691,1.5921,14.093-3.48952,2.11754-3.68014.60545-8.32444-3.7436-9.24419-12.53311-2.65055-14.31216,21.21224-14.85784,28.68216-1.312,17.9606.08305,36.32891.39319,54.32143l.21956,12.73741c.05023,2.91389-.8586,7.886.85354,10.42876,1.161,1.72427,2.95876,1.59488,4.88788,1.73715,4.873.35936,9.74988.67385,14.62451,1.01076l30.224,2.08891c6.47638.44761,13.94753,1.46955,18.76944-3.83462,1.62031-1.78236-1.02407-4.442-2.65165-2.65165Z"/><path class="cls-7" d="M217.86788,217.126a15.93212,15.93212,0,0,0-1.49659,6.08042c-.10245,2.413,3.64776,2.40817,3.75,0a11.1169,11.1169,0,0,1,.98461-4.18772,1.93008,1.93008,0,0,0-.67266-2.56536,1.89031,1.89031,0,0,0-2.56536.67266Z"/><path class="cls-7" d="M201.95653,219.56227l.1215,2.12072a1.875,1.875,0,1,0,3.75,0l-.1215-2.12072a1.875,1.875,0,0,0-3.75,0Z"/><path class="cls-7" d="M190.424,212.87349l.39979,8.81034c.109,2.40328,3.85966,2.4167,3.75,0l-.39979-8.81034c-.10906-2.40328-3.85967-2.4167-3.75,0Z"/></svg>