<svg id="Layer_1" data-name="Layer 1" xmlns="http://www.w3.org/2000/svg" viewBox="0 0 517 517"><defs><style>.cls-1{fill:#2e3192;}.cls-2{fill:#fff;}.cls-3{fill:#603813;stroke:#603813;}.cls-3,.cls-4,.cls-6,.cls-7{stroke-miterlimit:10;stroke-width:7px;}.cls-4{fill:#006838;stroke:#006838;}.cls-5{fill:#6d6e70;}.cls-6,.cls-7{fill:none;}.cls-6{stroke:#6d6e70;}.cls-7{stroke:#3b2314;}</style></defs><title>hamburger3</title><path class="cls-1" d="M258.45,516.49945c-142.5,0-258-115.5-258-258a257.961,257.961,0,0,1,75.6-182.4c100.8-100.8,264.1-100.8,364.9,0s100.8,264.1,0,364.9A256.49776,256.49776,0,0,1,258.45,516.49945Z"/><path class="cls-2" d="M135.80957,249.65381h10.43994c8.63965,0,14.624,6.02978,14.624,15.479,0,9.4043-5.84961,16.01953-14.66944,16.01953H135.80957Zm2.43018,29.24853h7.60449c8.32471,0,12.41943-5.84961,12.41943-13.63476,0-6.9292-3.68994-13.36426-12.41943-13.36426h-7.60449Z"/><path class="cls-2" d="M167.58008,270.17285c.04492,5.80469,2.96972,9.4043,7.28955,9.4043,4.23,0,5.66992-2.38477,6.47949-4.22949H183.644c-.94482,2.96972-3.32959,6.34472-8.86425,6.34472-6.83985,0-9.49463-5.8955-9.49463-11.60937,0-6.43555,3.19482-11.96973,9.76416-11.96973,6.93017,0,9.13476,5.98438,9.13476,10.21387,0,.63086,0,1.26074-.04492,1.8457Zm14.26416-1.98047c-.04492-4.4541-2.4751-7.96484-6.88477-7.96484-4.63476,0-6.74951,3.24023-7.24463,7.96484Z"/><path class="cls-2" d="M190.84424,281.15234V260.76758h-3.87012v-2.11426h3.87012V255.4585c0-3.77979,1.08008-7.91993,6.11963-7.91993a8.42373,8.42373,0,0,1,2.20508.315v2.16015a11.16249,11.16249,0,0,0-2.43018-.27c-2.65479,0-3.64453,1.89014-3.64453,5.80469v3.105H197.999v2.11426h-4.90478v20.38476Z"/><path class="cls-2" d="M219.77783,269.85742c0,6.25488-3.46484,11.835-10.16943,11.835-6.07471,0-9.85449-4.99511-9.85449-11.79,0-6.43457,3.55468-11.78906,10.07959-11.78906C215.81787,258.11328,219.77783,262.793,219.77783,269.85742Zm-17.63916.04492c0,5.35547,2.87988,9.67481,7.64942,9.67481,4.85986,0,7.605-4.00488,7.605-9.67481,0-5.30957-2.7002-9.6748-7.69483-9.6748C204.56836,260.22754,202.13867,264.50293,202.13867,269.90234Z"/><path class="cls-2" d="M225.3584,264.77246c0-3.7793-.04492-5.39941-.04492-6.11914h2.20459c.04492.71973.09033,2.15918.09033,5.03906a8.52408,8.52408,0,0,1,7.82959-5.5791V260.543c-4.67969.31543-7.82959,3.55469-7.82959,8.90918v11.70019h-2.25Z"/><path class="cls-2" d="M240.07324,270.17285c.04492,5.80469,2.96973,9.4043,7.28955,9.4043,4.23,0,5.66992-2.38477,6.4795-4.22949h2.29492c-.94483,2.96972-3.32959,6.34472-8.86426,6.34472-6.83984,0-9.49463-5.8955-9.49463-11.60937,0-6.43555,3.19482-11.96973,9.76416-11.96973,6.93018,0,9.13477,5.98438,9.13477,10.21387,0,.63086,0,1.26074-.04493,1.8457Zm14.26416-1.98047c-.04492-4.4541-2.4751-7.96484-6.88476-7.96484-4.63477,0-6.74951,3.24023-7.24463,7.96484Z"/><path class="cls-2" d="M262.707,274.94238c.76465,2.92481,2.835,4.67969,6.38965,4.67969,4.00488,0,5.625-1.84473,5.625-4.36426,0-2.56543-1.08008-3.82519-6.12012-5.04-5.80468-1.3955-7.24414-3.15039-7.24414-6.12011,0-3.1045,2.33985-5.98438,7.42481-5.98438s7.51465,3.10449,7.874,6.29981h-2.25c-.4043-1.89063-1.88965-4.23047-5.71387-4.23047-3.915,0-5.04,1.93554-5.04,3.73535,0,2.06933,1.08008,3.10449,5.53418,4.18457,6.34473,1.53027,7.91993,3.59961,7.91993,6.97461,0,4.09473-3.33008,6.61523-8.05469,6.61523-5.12988,0-8.00977-2.70019-8.63965-6.75Z"/><path class="cls-2" d="M279.17676,258.65332h4.18554v-7.01953h2.249v7.01953h5.35547v2.11426h-5.35547v14.625c0,2.51953.54,3.96,2.70019,3.96a8.48376,8.48376,0,0,0,2.33985-.27051v1.98047a7.91221,7.91221,0,0,1-2.79.4043c-2.87988,0-4.499-1.43946-4.499-5.03907V260.76758h-4.18554Z"/><path class="cls-2" d="M310.99023,276.877a25.7311,25.7311,0,0,0,.31543,4.27539h-2.16015a14.812,14.812,0,0,1-.4043-3.46484c-.76562,1.665-2.74512,4.00488-7.37988,4.00488-5.21973,0-7.46973-3.375-7.46973-6.75,0-4.95019,3.82422-7.20019,10.57422-7.20019h4.27539v-2.29492c0-2.249-.67578-5.26465-5.80566-5.26465-4.54395,0-5.21973,2.38476-5.71387,4.23047h-2.25c.26953-2.47559,1.7998-6.29981,8.00977-6.29981,5.1289,0,8.00878,2.16016,8.00878,7.10938Zm-2.2041-7.19922H304.376c-4.99512,0-8.09961,1.30469-8.09961,5.17481,0,2.835,2.02441,4.76953,5.1748,4.76953,6.43457,0,7.335-4.27441,7.335-9.13477Z"/><path class="cls-2" d="M314.81641,258.65332H319.002v-7.01953h2.249v7.01953h5.35547v2.11426H321.251v14.625c0,2.51953.54,3.96,2.70019,3.96a8.48376,8.48376,0,0,0,2.33985-.27051v1.98047a7.91221,7.91221,0,0,1-2.79.4043c-2.87989,0-4.499-1.43946-4.499-5.03907V260.76758h-4.18554Z"/><path class="cls-2" d="M331.19629,247.98877h2.25v4.36475h-2.25Zm0,10.66455h2.25v22.499h-2.25Z"/><path class="cls-2" d="M359.0498,269.85742c0,6.25488-3.46484,11.835-10.16894,11.835-6.0752,0-9.85449-4.99511-9.85449-11.79,0-6.43457,3.55468-11.78906,10.0791-11.78906C355.08984,258.11328,359.0498,262.793,359.0498,269.85742Zm-17.63867.04492c0,5.35547,2.87989,9.67481,7.64942,9.67481,4.85937,0,7.60449-4.00488,7.60449-9.67481,0-5.30957-2.7002-9.6748-7.69434-9.6748C343.84082,260.22754,341.41113,264.50293,341.41113,269.90234Z"/><path class="cls-2" d="M364.63086,264.32324c0-1.98047,0-3.87011-.04492-5.66992H366.79c.09082.71973.13574,3.64453.09082,4.27441.98926-2.29492,2.834-4.81445,7.46973-4.81445,4.0039,0,7.55957,2.25,7.55957,8.459v14.58007h-2.25V266.93262c0-4.00489-1.665-6.61426-5.58008-6.61426-5.35449,0-7.19922,4.4541-7.19922,9.35937v11.47461h-2.25Z"/><path class="cls-2" d="M125.12207,301.98828h2.25v4.36524h-2.25Zm0,10.665h2.25v22.499h-2.25Z"/><path class="cls-2" d="M134.75146,318.32324c0-1.98047,0-3.87011-.04492-5.66992h2.20459c.09033.71973.13526,3.64453.09033,4.27441.98975-2.29492,2.83448-4.81445,7.46973-4.81445,4.0044,0,7.55957,2.25,7.55957,8.459v14.58007h-2.25V320.93262c0-4.00489-1.665-6.61426-5.57959-6.61426-5.355,0-7.19971,4.4541-7.19971,9.35937v11.47461h-2.25Z"/><path class="cls-2" d="M167.73584,312.65332h4.18506v-7.01953h2.24951v7.01953h5.355v2.11426h-5.355v14.625c0,2.51953.54,3.96,2.7002,3.96a8.48583,8.48583,0,0,0,2.33984-.27051v1.98047a7.9139,7.9139,0,0,1-2.79.4043c-2.87988,0-4.49951-1.43946-4.49951-5.03907V314.76758h-4.18506Z"/><path class="cls-2" d="M186.23047,301.98828v14.44434a7.8472,7.8472,0,0,1,7.42432-4.31934c3.19531,0,7.605,1.62012,7.605,8.72949v14.30957h-2.25V321.293c0-4.45508-2.02491-6.97461-5.75977-6.97461-4.45459,0-7.01953,2.74414-7.01953,8.2793v12.55468h-2.25V301.98828Z"/><path class="cls-2" d="M209.13525,324.17285c.04493,5.80469,2.96973,9.4043,7.28955,9.4043,4.23,0,5.66993-2.38477,6.4795-4.22949h2.29492c-.94483,2.96972-3.32959,6.34472-8.86426,6.34472-6.83984,0-9.49463-5.8955-9.49463-11.60937,0-6.43555,3.19483-11.96973,9.76416-11.96973,6.93018,0,9.13477,5.98438,9.13477,10.21387,0,.63086,0,1.26074-.04492,1.8457Zm14.26416-1.98047c-.04492-4.4541-2.47509-7.96484-6.88476-7.96484-4.63477,0-6.74951,3.24023-7.24463,7.96484Z"/><path class="cls-2" d="M246.88965,324.2627l-4.00488,10.88964h-2.4751l11.56445-31.499H254.854l12.05909,31.499h-2.6543l-4.09473-10.88964Zm12.46387-2.25c-3.50928-9.35938-5.30957-13.85938-5.93946-15.97461h-.04492c-.76514,2.38476-2.79,7.96484-5.62451,15.97461Z"/><path class="cls-2" d="M271.77441,318.458c0-1.93555,0-4.04981-.04492-5.80469h2.2041c.04493.76465.13575,2.69922.09082,4.00488a7.036,7.036,0,0,1,6.749-4.54492c3.15039,0,5.625,1.57422,6.52539,4.4541a7.655,7.655,0,0,1,7.334-4.4541c3.46485,0,7.06543,1.97949,7.06543,8.23438v14.80468h-2.25V320.61816c0-3.01562-1.08008-6.2998-5.26465-6.2998-4.36523,0-6.34472,3.50977-6.34472,7.874v12.96h-2.20508V320.66309c0-3.28516-.99024-6.34473-5.12988-6.34473-4.36524,0-6.4795,3.86914-6.4795,8.459v12.375h-2.25Z"/><path class="cls-2" d="M324.24316,330.877a25.7311,25.7311,0,0,0,.31543,4.27539h-2.16015a14.812,14.812,0,0,1-.4043-3.46484c-.76562,1.665-2.74512,4.00488-7.37988,4.00488-5.21973,0-7.46973-3.375-7.46973-6.75,0-4.95019,3.82422-7.20019,10.57422-7.20019h4.27539v-2.29492c0-2.249-.67578-5.26465-5.80566-5.26465-4.544,0-5.21973,2.38476-5.71387,4.23047h-2.25c.26953-2.47559,1.7998-6.29981,8.00977-6.29981,5.1289,0,8.00878,2.16016,8.00878,7.10938Zm-2.2041-7.19922h-4.41015c-4.99512,0-8.09961,1.30469-8.09961,5.17481,0,2.835,2.02441,4.76953,5.1748,4.76953,6.43457,0,7.335-4.27441,7.335-9.13477Z"/><path class="cls-2" d="M328.96875,333.082l14.21973-18.31445h-13.5v-2.11426h16.10937v2.15918l-14.03906,18.22461H346.293l-.54,2.11523H328.96875Z"/><path class="cls-2" d="M369.01758,323.85742c0,6.25488-3.46485,11.835-10.16992,11.835-6.07422,0-9.8545-4.99511-9.8545-11.79,0-6.43457,3.55469-11.78906,10.08008-11.78906C365.05762,312.11328,369.01758,316.793,369.01758,323.85742Zm-17.63965.04492c0,5.35547,2.87988,9.67481,7.64941,9.67481,4.86036,0,7.60547-4.00488,7.60547-9.67481,0-5.30957-2.70019-9.6748-7.69531-9.6748C353.80762,314.22754,351.37793,318.50293,351.37793,323.90234Z"/><path class="cls-2" d="M374.59766,318.32324c0-1.98047,0-3.87011-.04493-5.66992h2.20508c.08985.71973.13477,3.64453.08985,4.27441.99023-2.29492,2.835-4.81445,7.46972-4.81445,4.00489,0,7.55957,2.25,7.55957,8.459v14.58007h-2.25V320.93262c0-4.00489-1.665-6.61426-5.5791-6.61426-5.35547,0-7.20019,4.4541-7.20019,9.35937v11.47461h-2.25Z"/><rect class="cls-3" x="270.6982" y="140.68607" width="21.08532" height="41.41348"/><polygon class="cls-4" points="102.705 182.1 259.303 161.505 222.293 73.406 102.705 182.1"/><rect class="cls-3" x="238.48496" y="114.48489" width="21.08532" height="6.76853" transform="translate(269.24479 -156.90195) rotate(68.87912)"/><polyline class="cls-5" points="276.462 128.615 280.92 133.492 281.734 126.935 286.192 131.811 287.008 125.254 291.467 130.13 292.281 123.573 296.74 128.449 297.556 121.892 302.015 126.768 302.83 120.21 307.291 125.086 308.106 118.529 312.566 123.405 313.377 116.849 317.836 121.725 318.651 115.168 323.107 120.045 323.921 113.488 328.382 118.363 329.196 111.807 333.657 116.682 334.473 110.125 338.935 115 339.752 108.442 344.214 113.317 345.033 106.759 349.49 111.635 350.307 105.078 354.771 109.952 355.591 103.393 360.056 108.267 360.881 101.707 365.351 106.58"/><polyline class="cls-6" points="276.462 128.615 280.92 133.492 281.734 126.935 286.192 131.811 287.008 125.254 291.467 130.13 292.281 123.573 296.74 128.449 297.556 121.892 302.015 126.768 302.83 120.21 307.291 125.086 308.106 118.529 312.566 123.405 313.377 116.849 317.836 121.725 318.651 115.168 323.107 120.045 323.921 113.488 328.382 118.363 329.196 111.807 333.657 116.682 334.473 110.125 338.935 115 339.752 108.442 344.214 113.317 345.033 106.759 349.49 111.635 350.307 105.078 354.771 109.952 355.591 103.393 360.056 108.267 360.881 101.707 365.351 106.58"/><polygon class="cls-5" points="278.664 129.256 272.538 113.905 357.186 87.269 365.071 105.548 278.664 129.256"/><polygon class="cls-7" points="357.879 84.602 367.074 111.308 376.425 106.924 369.809 81.906 357.879 84.602"/><polygon class="cls-1" points="282.273 138.086 271.574 104.714 263.253 107.431 272.169 133.925 282.273 138.086"/></svg>