<svg id="Layer_1" data-name="Layer 1" xmlns="http://www.w3.org/2000/svg" viewBox="0 0 517 517"><defs><style>.cls-1{fill:#93278f;}.cls-2{fill:#fff;}.cls-3{fill:#6cf;}</style></defs><title>hamburger2</title><path class="cls-1" d="M258.45,516.49945c-142.5,0-258-115.5-258-258a257.961,257.961,0,0,1,75.6-182.4c100.8-100.8,264.1-100.8,364.9,0s100.8,264.1,0,364.9A256.49776,256.49776,0,0,1,258.45,516.49945Z"/><path class="cls-2" d="M90.08936,227.00146h2.43017v13.72413h18.89893V227.00146h2.43017V258.5h-2.43017V242.97559H92.51953V258.5H90.08936Z"/><path class="cls-2" d="M121.7251,225.33643h2.25v4.36474h-2.25Zm0,10.66455h2.25V258.5h-2.25Z"/><path class="cls-2" d="M148.54346,256.97021c0,7.19971-3.19483,10.98-9.71924,10.98-5.8501,0-8.27979-3.28516-8.81983-6.70508h2.29493c.81006,3.10449,3.375,4.58984,6.61474,4.58984,5.84961,0,7.46973-3.78027,7.46973-9.49512V254c-1.21484,2.92529-3.41992,4.5-7.51465,4.5-5.26465,0-9.31445-4.2749-9.31445-11.24951,0-7.55957,4.31982-11.78955,9.62939-11.78955,4.58985,0,6.56983,2.16015,7.19971,3.96.04492-1.30518.08984-2.87988.13476-3.41992h2.11524c0,.81006-.09033,4.36474-.09033,6.5249Zm-16.604-9.80957c0,5.3545,2.835,9.22461,7.15479,9.22461,5.62451,0,7.33447-3.73486,7.33447-9.585,0-5.93945-1.7998-9.22461-7.19971-9.22461C134.0542,237.57568,131.93945,242.03076,131.93945,247.16064Z"/><path class="cls-2" d="M158.17432,225.33643v14.44433a7.84753,7.84753,0,0,1,7.42431-4.31982c3.19483,0,7.605,1.62011,7.605,8.72949V258.5h-2.25V244.64063c0-4.45508-2.0249-6.97461-5.75976-6.97461-4.45459,0-7.01953,2.74462-7.01953,8.27929V258.5h-2.25V225.33643Z"/><path class="cls-2" d="M192.32813,236.001c3.33007,11.60937,5.26464,18.269,5.62451,20.249h.04541c.35986-1.7998,2.60986-8.86475,6.11963-20.249h2.42968c4.18506,13.90429,5.44483,17.90918,5.8501,19.66406h.04492c.62989-2.47461,1.665-5.84961,5.80469-19.66406h2.38477L213.52246,258.5h-2.4751c-2.42968-7.96484-5.355-17.72949-5.80468-19.79932h-.04493c-.45019,2.20508-3.01513,10.25977-5.93994,19.79932h-2.6997l-6.61475-22.499Z"/><path class="cls-2" d="M240.38721,254.2251a25.67287,25.67287,0,0,0,.31543,4.2749h-2.16016a14.76906,14.76906,0,0,1-.40478-3.46484c-.76514,1.665-2.74512,4.00488-7.37989,4.00488-5.21972,0-7.46972-3.375-7.46972-6.75,0-4.94971,3.8247-7.19971,10.5747-7.19971h4.27491v-2.29492c0-2.24951-.6753-5.26465-5.80518-5.26465-4.54443,0-5.21973,2.38477-5.71436,4.23h-2.25c.27-2.4751,1.79981-6.2998,8.00977-6.2998,5.12939,0,8.00928,2.16015,8.00928,7.10986Zm-2.20459-7.19971h-4.41016c-4.99463,0-8.09961,1.30518-8.09961,5.17481,0,2.835,2.0249,4.77,5.17481,4.77,6.43505,0,7.335-4.2749,7.335-9.13476Z"/><path class="cls-2" d="M244.21338,236.001h4.18506v-7.01953H250.648V236.001h5.355v2.11474h-5.355v14.62451c0,2.52.54,3.96,2.70019,3.96a8.504,8.504,0,0,0,2.33985-.27v1.98a7.9026,7.9026,0,0,1-2.79.40478c-2.87988,0-4.49951-1.43994-4.49951-5.03955V238.11572h-4.18506Z"/><path class="cls-2" d="M260.81836,247.52051c.04492,5.80469,2.96973,9.40478,7.28906,9.40478,4.23047,0,5.66992-2.38525,6.48047-4.23h2.29492c-.94531,2.96973-3.33008,6.34473-8.86523,6.34473-6.83985,0-9.49414-5.895-9.49414-11.60938,0-6.435,3.19531-11.96972,9.76367-11.96972,6.93066,0,9.13477,5.98486,9.13477,10.21435,0,.63037,0,1.26026-.04493,1.84522Zm14.26367-1.98c-.04492-4.45459-2.47461-7.96485-6.88476-7.96485-4.63477,0-6.749,3.24024-7.24414,7.96485Z"/><path class="cls-2" d="M282.91309,242.12061c0-3.77979-.04493-5.39991-.04493-6.11963h2.20411c.04492.71972.09082,2.15966.09082,5.03955a8.52366,8.52366,0,0,1,7.8291-5.57959v2.42969c-4.67969.31542-7.8291,3.55517-7.8291,8.90966V258.5h-2.25Z"/><path class="cls-2" d="M326.02148,251.93018c0,2.20507.04493,5.71484.04493,6.56982h-2.16016a36.2238,36.2238,0,0,1-.13477-3.915c-.94531,2.65527-3.24023,4.45508-7.24414,4.45508-3.24023,0-7.37988-1.25977-7.37988-8.14453V236.001h2.2041v14.35449c0,3.28467,1.03516,6.47949,5.49024,6.47949,5.04,0,6.92968-2.835,6.92968-9.26953V236.001h2.25Z"/><path class="cls-2" d="M333.13281,252.29c.76367,2.92529,2.834,4.68017,6.38867,4.68017,4.00586,0,5.625-1.84521,5.625-4.36474,0-2.56494-1.08007-3.8252-6.11914-5.04-5.80468-1.395-7.24511-3.1499-7.24511-6.11963,0-3.105,2.33984-5.98486,7.4248-5.98486s7.51465,3.105,7.875,6.2998h-2.25c-.40527-1.89013-1.89062-4.23-5.71484-4.23-3.915,0-5.04,1.93506-5.04,3.73487,0,2.06982,1.08008,3.105,5.53418,4.18505,6.3457,1.52979,7.91992,3.59961,7.91992,6.97461,0,4.09473-3.33008,6.61475-8.05469,6.61475-5.1289,0-8.00976-2.7002-8.63867-6.75Z"/><path class="cls-2" d="M368.72559,254.2251A25.72783,25.72783,0,0,0,369.041,258.5h-2.16016a14.80835,14.80835,0,0,1-.4043-3.46484c-.76562,1.665-2.74609,4.00488-7.38086,4.00488-5.21875,0-7.46875-3.375-7.46875-6.75,0-4.94971,3.82422-7.19971,10.57422-7.19971h4.27539v-2.29492c0-2.24951-.67578-5.26465-5.80566-5.26465-4.54395,0-5.21973,2.38477-5.71387,4.23h-2.25c.26953-2.4751,1.79883-6.2998,8.00977-6.2998,5.1289,0,8.00879,2.16015,8.00879,7.10986Zm-2.20411-7.19971h-4.41015c-4.99512,0-8.09961,1.30518-8.09961,5.17481,0,2.835,2.02441,4.77,5.17383,4.77,6.43554,0,7.33593-4.2749,7.33593-9.13476Z"/><path class="cls-2" d="M393.33984,256.97021c0,7.19971-3.19433,10.98-9.71875,10.98-5.84961,0-8.27929-3.28516-8.82031-6.70508h2.29492c.81055,3.10449,3.375,4.58984,6.61524,4.58984,5.84961,0,7.46972-3.78027,7.46972-9.49512V254c-1.21484,2.92529-3.41992,4.5-7.51464,4.5-5.26465,0-9.31446-4.2749-9.31446-11.24951,0-7.55957,4.32032-11.78955,9.62891-11.78955,4.58984,0,6.57031,2.16015,7.20019,3.96.04493-1.30518.08985-2.87988.13477-3.41992h2.11523c0,.81006-.09082,4.36474-.09082,6.5249Zm-16.60351-9.80957c0,5.3545,2.835,9.22461,7.1543,9.22461,5.625,0,7.335-3.73486,7.335-9.585,0-5.93945-1.79981-9.22461-7.2002-9.22461C378.85156,237.57568,376.73633,242.03076,376.73633,247.16064Z"/><path class="cls-2" d="M401.21582,247.52051c.04492,5.80469,2.96973,9.40478,7.29,9.40478,4.22949,0,5.66992-2.38525,6.47852-4.23h2.29492C416.335,255.665,413.9502,259.04,408.416,259.04c-6.83985,0-9.49512-5.895-9.49512-11.60938,0-6.435,3.19433-11.96972,9.76465-11.96972,6.92968,0,9.13476,5.98486,9.13476,10.21435,0,.63037,0,1.26026-.04492,1.84522Zm14.26465-1.98c-.04492-4.45459-2.47559-7.96485-6.88477-7.96485-4.63476,0-6.75,3.24024-7.24511,7.96485Z"/><path class="cls-2" d="M146.0249,290.001H150.21v-7.01953h2.24951V290.001h5.355v2.11523h-5.355v14.624c0,2.52051.54,3.96,2.7002,3.96a8.52144,8.52144,0,0,0,2.33984-.26954v1.9795a7.89126,7.89126,0,0,1-2.79.40527c-2.87988,0-4.49951-1.44043-4.49951-5.04V292.11621H146.0249Z"/><path class="cls-2" d="M180.3584,301.20605c0,6.25391-3.46485,11.834-10.16944,11.834-6.0747,0-9.85449-4.99414-9.85449-11.78906,0-6.43457,3.55469-11.79,10.07959-11.79C176.39844,289.46094,180.3584,294.14063,180.3584,301.20605Zm-17.63916.04493c0,5.35449,2.87988,9.6748,7.64941,9.6748,4.85987,0,7.605-4.00488,7.605-9.6748,0-5.31055-2.70019-9.67481-7.69482-9.67481C165.14893,291.57617,162.71924,295.85059,162.71924,301.251Z"/><path class="cls-2" d="M198.22363,312.5V292.11621h-3.87011V290.001h3.87011v-3.19434c0-3.78027,1.08008-7.91992,6.11963-7.91992a8.42415,8.42415,0,0,1,2.20508.31445v2.16016a11.19126,11.19126,0,0,0-2.43018-.26953c-2.65478,0-3.64453,1.88965-3.64453,5.80468v3.1045h4.90479v2.11523h-4.90479V312.5Z"/><path class="cls-2" d="M209.42871,301.52051c.04492,5.80469,2.96973,9.40527,7.28955,9.40527,4.23,0,5.66992-2.38574,6.47949-4.23047h2.29493c-.94483,2.96973-3.32959,6.34473-8.86426,6.34473-6.83985,0-9.49463-5.89453-9.49463-11.60938,0-6.43457,3.19482-11.96972,9.76416-11.96972,6.93018,0,9.13476,5.98535,9.13476,10.21484,0,.62988,0,1.25977-.04492,1.84473Zm14.26416-1.97949c-.04492-4.45508-2.4751-7.96485-6.88476-7.96485-4.63477,0-6.74952,3.24024-7.24463,7.96485Z"/><path class="cls-2" d="M232.24316,301.52051c.04493,5.80469,2.96973,9.40527,7.28955,9.40527,4.23,0,5.66993-2.38574,6.4795-4.23047h2.29492c-.94483,2.96973-3.32959,6.34473-8.86426,6.34473-6.83984,0-9.49463-5.89453-9.49463-11.60938,0-6.43457,3.19483-11.96972,9.76416-11.96972,6.93018,0,9.13477,5.98535,9.13477,10.21484,0,.62988,0,1.25977-.04492,1.84473Zm14.26416-1.97949c-.04492-4.45508-2.47509-7.96485-6.88476-7.96485-4.63477,0-6.74951,3.24024-7.24463,7.96485Z"/><path class="cls-2" d="M271.93164,279.33691v26.6836c0,2.16015,0,4.22949.04492,6.47949h-2.16015c-.08985-.54-.13477-2.6543-.13477-3.7793-1.125,2.74414-3.64453,4.31934-7.55957,4.31934-5.84961,0-9.35937-4.76953-9.35937-11.51953,0-6.92969,3.8247-12.05957,9.94433-12.05957,4.5,0,6.29981,1.93554,6.97461,3.375v-13.499Zm-16.78418,22.09375c0,6.165,3.19483,9.49512,7.06445,9.49512,5.94043,0,7.55957-4.0957,7.55957-10.21484,0-5.80469-1.39453-9.13477-7.15429-9.13477C258.16211,291.57617,255.14746,295.13086,255.14746,301.43066Z"/><path class="cls-2" d="M306.44531,308.22559a25.58625,25.58625,0,0,0,.31641,4.27441h-2.16016a14.72664,14.72664,0,0,1-.40527-3.46484c-.76465,1.665-2.74512,4.00488-7.37988,4.00488-5.21973,0-7.46973-3.375-7.46973-6.75,0-4.94922,3.8252-7.19922,10.5752-7.19922h4.27441V296.7959c0-2.25-.67481-5.26465-5.80566-5.26465-4.54395,0-5.21875,2.38477-5.71387,4.22949h-2.25c.27051-2.47461,1.7998-6.2998,8.00976-6.2998,5.12989,0,8.00879,2.16015,8.00879,7.11035Zm-2.2041-7.2002h-4.41016c-4.99511,0-8.0996,1.30566-8.0996,5.17481,0,2.835,2.02441,4.7705,5.1748,4.7705,6.43555,0,7.335-4.27539,7.335-9.13476Z"/><path class="cls-2" d="M313.87109,295.6709c0-1.97949,0-3.87012-.04492-5.66992h2.20508c.08984.71972.13477,3.6455.08984,4.27539.99024-2.29492,2.835-4.81543,7.47071-4.81543,4.0039,0,7.55859,2.25,7.55859,8.46V312.5h-2.25V298.28125c0-4.00488-1.66406-6.61523-5.5791-6.61523-5.35449,0-7.2002,4.45507-7.2002,9.35937V312.5h-2.25Z"/><path class="cls-2" d="M355.90039,279.33691v26.6836c0,2.16015,0,4.22949.04492,6.47949h-2.16015c-.08985-.54-.13477-2.6543-.13477-3.7793-1.125,2.74414-3.64453,4.31934-7.56055,4.31934-5.84961,0-9.35937-4.76953-9.35937-11.51953,0-6.92969,3.82519-12.05957,9.94531-12.05957,4.5,0,6.29883,1.93554,6.97461,3.375v-13.499Zm-16.78516,22.09375c0,6.165,3.19532,9.49512,7.06446,9.49512,5.94043,0,7.56054-4.0957,7.56054-10.21484,0-5.80469-1.39453-9.13477-7.15429-9.13477C342.13086,291.57617,339.11523,295.13086,339.11523,301.43066Z"/><path class="cls-2" d="M154.25879,344.001c3.33008,11.60937,5.26465,18.26953,5.62451,20.249h.04541c.35986-1.7998,2.60986-8.86426,6.11963-20.249H168.478c4.18506,13.90429,5.44482,17.90918,5.8501,19.66406h.04492c.62988-2.47461,1.665-5.84961,5.80468-19.66406h2.38477L175.45313,366.5H172.978c-2.42969-7.96484-5.355-17.72949-5.80469-19.79883h-.04492c-.4502,2.20508-3.01514,10.25977-5.93994,19.79883h-2.69971L151.874,344.001Z"/><path class="cls-2" d="M202.31787,362.22559A25.67173,25.67173,0,0,0,202.6333,366.5h-2.16016a14.76534,14.76534,0,0,1-.40478-3.46484c-.76514,1.665-2.74512,4.00488-7.37988,4.00488-5.21973,0-7.46973-3.375-7.46973-6.75,0-4.94922,3.82471-7.19922,10.57471-7.19922h4.2749V350.7959c0-2.25-.67529-5.26465-5.80518-5.26465-4.54443,0-5.21972,2.38477-5.71435,4.22949h-2.25c.27-2.47461,1.7998-6.2998,8.00976-6.2998,5.1294,0,8.00928,2.16015,8.00928,7.11035Zm-2.20459-7.2002h-4.41015c-4.99463,0-8.09961,1.30566-8.09961,5.17481,0,2.835,2.0249,4.7705,5.1748,4.7705,6.43506,0,7.335-4.27539,7.335-9.13476Z"/><path class="cls-2" d="M206.144,344.001h4.18506v-7.01953h2.24951V344.001h5.355v2.11523h-5.355v14.624c0,2.52051.54,3.96,2.7002,3.96a8.52144,8.52144,0,0,0,2.33984-.26954v1.9795a7.89126,7.89126,0,0,1-2.79.40527c-2.87988,0-4.49951-1.44043-4.49951-5.04V346.11621H206.144Z"/><path class="cls-2" d="M222.74854,355.52051c.04492,5.80469,2.96972,9.40527,7.28955,9.40527,4.23,0,5.66992-2.38574,6.47949-4.23047h2.29492c-.94482,2.96973-3.32959,6.34473-8.86426,6.34473-6.83984,0-9.49463-5.89453-9.49463-11.60938,0-6.43457,3.19483-11.96972,9.76416-11.96972,6.93018,0,9.13477,5.98535,9.13477,10.21484,0,.62988,0,1.25977-.04492,1.84473ZM237.0127,353.541c-.04493-4.45508-2.4751-7.96485-6.88477-7.96485-4.63477,0-6.74951,3.24024-7.24463,7.96485Z"/><path class="cls-2" d="M244.84375,350.12109c0-3.78027-.04492-5.40039-.04492-6.12011h2.20459c.04492.71972.09033,2.16015.09033,5.04a8.52427,8.52427,0,0,1,7.82959-5.58008v2.42969c-4.67969.31542-7.82959,3.55566-7.82959,8.91015V366.5h-2.25Z"/><path class="cls-2" d="M287.68164,359.88574c-1.0791,3.96-3.68945,7.1543-8.72851,7.1543-5.625,0-9.62989-4.18457-9.62989-11.69922,0-6.165,3.28418-11.87988,9.89942-11.87988a8.0435,8.0435,0,0,1,8.459,7.20019h-2.29492c-.67383-2.61035-2.38477-5.085-6.209-5.085-4.76953,0-7.46972,4.04981-7.46972,9.67481,0,5.35449,2.52051,9.6748,7.24512,9.6748,3.28417,0,5.26367-1.665,6.43359-5.04Z"/><path class="cls-2" d="M311.35156,355.20605c0,6.25391-3.46484,11.834-10.16992,11.834-6.07422,0-9.85449-4.99414-9.85449-11.78906,0-6.43457,3.55469-11.79,10.0791-11.79C307.39063,343.46094,311.35156,348.14063,311.35156,355.20605Zm-17.63965.04493c0,5.35449,2.87989,9.6748,7.64942,9.6748,4.85937,0,7.60547-4.00488,7.60547-9.6748,0-5.31055-2.70117-9.67481-7.69532-9.67481C296.1416,345.57617,293.71191,349.85059,293.71191,355.251Z"/><path class="cls-2" d="M316.8418,344.001c3.33008,11.60937,5.26465,18.26953,5.625,20.249h.04492c.35937-1.7998,2.60937-8.86426,6.11914-20.249h2.42969c4.18554,13.90429,5.44531,17.90918,5.85058,19.66406h.04492c.62989-2.47461,1.665-5.84961,5.80469-19.66406h2.38477L338.03613,366.5h-2.47558c-2.42969-7.96484-5.3545-17.72949-5.80469-19.79883h-.04492c-.44922,2.20508-3.01465,10.25977-5.93946,19.79883h-2.69921L314.457,344.001Z"/><path class="cls-2" d="M350.18652,360.29c.76465,2.92578,2.835,4.68066,6.38965,4.68066,4.00488,0,5.625-1.8457,5.625-4.36523,0-2.56445-1.08008-3.8252-6.12012-5.04-5.80468-1.39453-7.24511-3.14941-7.24511-6.11914,0-3.10547,2.33984-5.98535,7.42578-5.98535,5.084,0,7.51367,3.10547,7.874,6.2998h-2.25c-.40527-1.88965-1.88965-4.22949-5.71386-4.22949-3.916,0-5.041,1.93457-5.041,3.73438,0,2.07031,1.08008,3.10546,5.53516,4.18554,6.34472,1.5293,7.91992,3.59961,7.91992,6.97461,0,4.09473-3.33008,6.61426-8.05469,6.61426-5.12988,0-8.00977-2.7002-8.63965-6.75Z"/><path class="cls-3" d="M161.08656,84.17353S110.24311,132.64317,122.954,162.687s38.1326,26.87728,38.1326,26.87728,28.31054-3.76662,31.19938-24.56621S192.28593,136.23524,161.08656,84.17353Z"/><path class="cls-3" d="M259.97242,84.17353S209.129,132.64317,221.83984,162.687s38.13258,26.87728,38.13258,26.87728,28.31055-3.76662,31.1994-24.56621S291.17182,136.23524,259.97242,84.17353Z"/><path class="cls-3" d="M358.85831,84.17353s-50.84344,48.46964-38.13256,78.51347,38.13256,26.87728,38.13256,26.87728,28.31055-3.76662,31.19941-24.56621S390.05769,136.23524,358.85831,84.17353Z"/></svg>