<svg id="Layer_1" data-name="Layer 1" xmlns="http://www.w3.org/2000/svg" viewBox="0 0 517 517"><defs><style>.cls-1{fill:#2e3192;}.cls-2{fill:#fff;}.cls-3,.cls-8{fill:#c3996b;stroke:#c3996b;}.cls-3,.cls-5,.cls-6,.cls-7,.cls-8,.cls-9{stroke-miterlimit:10;}.cls-4{fill:#d6de23;}.cls-5{fill:#8a5d3b;stroke:#8a5d3b;}.cls-6{fill:#ec1c24;stroke:#ec1c24;}.cls-6,.cls-7,.cls-8{stroke-width:2px;}.cls-7{fill:#ffdd15;stroke:#ffdd15;}.cls-9{fill:#fff3bf;stroke:#fff3bf;stroke-width:3px;}</style></defs><title>hamburger1</title><path class="cls-1" d="M258.45,516.49945c-142.5,0-258-115.5-258-258a257.961,257.961,0,0,1,75.6-182.4c100.8-100.8,264.1-100.8,364.9,0s100.8,264.1,0,364.9A256.49776,256.49776,0,0,1,258.45,516.49945Z"/><path class="cls-2" d="M150.27588,281.002h10.43994c8.63965,0,14.624,6.0293,14.624,15.47852,0,9.40527-5.84961,16.01953-14.66943,16.01953H150.27588Zm2.43017,29.248h7.6045c8.3247,0,12.41943-5.84961,12.41943-13.63379,0-6.92969-3.68994-13.36523-12.41943-13.36523h-7.6045Z"/><path class="cls-2" d="M182.04639,301.52051c.04492,5.80469,2.96972,9.40527,7.28955,9.40527,4.23,0,5.66992-2.38574,6.47949-4.23047h2.29492c-.94482,2.96973-3.32959,6.34473-8.86426,6.34473-6.83984,0-9.49463-5.89453-9.49463-11.60938,0-6.43457,3.19483-11.96972,9.76417-11.96972,6.93017,0,9.13476,5.98535,9.13476,10.21484,0,.62988,0,1.25977-.04492,1.84473Zm14.26416-1.97949c-.04492-4.45508-2.4751-7.96485-6.88477-7.96485-4.63476,0-6.74951,3.24024-7.24463,7.96485Z"/><path class="cls-2" d="M204.14111,295.80566c0-1.93457,0-4.0498-.04492-5.80468h2.20459c.04492.76562.13526,2.70019.09033,4.00488a7.03671,7.03671,0,0,1,6.74952-4.54492c3.1499,0,5.625,1.57519,6.5249,4.45508A7.65641,7.65641,0,0,1,227,289.46094c3.46484,0,7.06494,1.98047,7.06494,8.23535V312.5h-2.25V297.96582c0-3.01465-1.08008-6.2998-5.26465-6.2998-4.36523,0-6.34472,3.50976-6.34472,7.875V312.5h-2.20508V298.01074c0-3.28515-.99024-6.34472-5.12988-6.34472-4.36475,0-6.4795,3.87011-6.4795,8.46V312.5h-2.25Z"/><path class="cls-2" d="M256.60986,308.22559a25.67173,25.67173,0,0,0,.31543,4.27441h-2.16015a14.76512,14.76512,0,0,1-.40479-3.46484c-.76514,1.665-2.74512,4.00488-7.37988,4.00488-5.21973,0-7.46973-3.375-7.46973-6.75,0-4.94922,3.82471-7.19922,10.57471-7.19922h4.2749V296.7959c0-2.25-.67529-5.26465-5.80517-5.26465-4.54444,0-5.21973,2.38477-5.71436,4.22949h-2.25c.27-2.47461,1.79981-6.2998,8.00977-6.2998,5.12939,0,8.00927,2.16015,8.00927,7.11035Zm-2.20459-7.2002h-4.41015c-4.99463,0-8.09961,1.30566-8.09961,5.17481,0,2.835,2.0249,4.7705,5.1748,4.7705,6.43506,0,7.335-4.27539,7.335-9.13476Z"/><path class="cls-2" d="M264.03516,295.6709c0-1.97949,0-3.87012-.04493-5.66992h2.20508c.08985.71972.13477,3.6455.08985,4.27539.99023-2.29492,2.835-4.81543,7.4707-4.81543,4.00391,0,7.55859,2.25,7.55859,8.46V312.5h-2.25V298.28125c0-4.00488-1.66406-6.61523-5.5791-6.61523-5.35449,0-7.20019,4.45507-7.20019,9.35937V312.5h-2.25Z"/><path class="cls-2" d="M306.06445,279.33691v26.6836c0,2.16015,0,4.22949.04493,6.47949h-2.16016c-.08984-.54-.13477-2.6543-.13477-3.7793-1.125,2.74414-3.64453,4.31934-7.55957,4.31934-5.84961,0-9.35937-4.76953-9.35937-11.51953,0-6.92969,3.82519-12.05957,9.94433-12.05957,4.5,0,6.29981,1.93554,6.97461,3.375v-13.499Zm-16.78418,22.09375c0,6.165,3.19434,9.49512,7.06446,9.49512,5.94043,0,7.55957-4.0957,7.55957-10.21484,0-5.80469-1.39453-9.13477-7.1543-9.13477C292.29492,291.57617,289.28027,295.13086,289.28027,301.43066Z"/><path class="cls-2" d="M325.72949,312.5V292.11621h-3.87011V290.001h3.87011v-3.19434c0-3.78027,1.08008-7.91992,6.12012-7.91992a8.43629,8.43629,0,0,1,2.20508.31445v2.16016a11.20237,11.20237,0,0,0-2.43067-.26953c-2.65527,0-3.64453,1.88965-3.64453,5.80468v3.1045h4.90528v2.11523h-4.90528V312.5Z"/><path class="cls-2" d="M354.66309,301.20605c0,6.25391-3.46485,11.834-10.16895,11.834-6.07519,0-9.85547-4.99414-9.85547-11.78906,0-6.43457,3.55469-11.79,10.08008-11.79C350.70313,289.46094,354.66309,294.14063,354.66309,301.20605Zm-17.63965.04493c0,5.35449,2.88086,9.6748,7.65039,9.6748,4.85937,0,7.60449-4.00488,7.60449-9.6748,0-5.31055-2.70019-9.67481-7.69434-9.67481C339.45313,291.57617,337.02344,295.85059,337.02344,301.251Z"/><path class="cls-2" d="M360.24414,296.12109c0-3.78027-.04492-5.40039-.04492-6.12011h2.2041c.04492.71972.09082,2.16015.09082,5.04a8.52312,8.52312,0,0,1,7.8291-5.58008v2.42969c-4.67969.31542-7.8291,3.55566-7.8291,8.91015V312.5h-2.25Z"/><path class="cls-2" d="M159.81592,333.33691v14.44434a7.84785,7.84785,0,0,1,7.42431-4.32031c3.19483,0,7.605,1.62011,7.605,8.72949V366.5h-2.25V352.64063c0-4.45508-2.0249-6.97461-5.75976-6.97461-4.45459,0-7.01953,2.74511-7.01953,8.27929V366.5h-2.25V333.33691Z"/><path class="cls-2" d="M197.38965,362.22559a25.74111,25.74111,0,0,0,.31494,4.27441h-2.15967a14.76534,14.76534,0,0,1-.40478-3.46484c-.76514,1.665-2.74512,4.00488-7.37989,4.00488-5.21972,0-7.46972-3.375-7.46972-6.75,0-4.94922,3.8247-7.19922,10.5747-7.19922h4.27491V350.7959c0-2.25-.6753-5.26465-5.80518-5.26465-4.54443,0-5.21973,2.38477-5.71435,4.22949h-2.25c.27-2.47461,1.7998-6.2998,8.00976-6.2998,5.1294,0,8.00928,2.16015,8.00928,7.11035Zm-2.20459-7.2002H190.7749c-4.99463,0-8.09961,1.30566-8.09961,5.17481,0,2.835,2.02491,4.7705,5.17481,4.7705,6.43506,0,7.335-4.27539,7.335-9.13476Z"/><path class="cls-2" d="M204.81543,349.80566c0-1.93457,0-4.0498-.04492-5.80468h2.20459c.04492.76562.13525,2.70019.09033,4.00488a7.03669,7.03669,0,0,1,6.74951-4.54492c3.1499,0,5.625,1.57519,6.5249,4.45508a7.65643,7.65643,0,0,1,7.33448-4.45508c3.46484,0,7.06494,1.98047,7.06494,8.23535V366.5h-2.25V351.96582c0-3.01465-1.08008-6.2998-5.26465-6.2998-4.36523,0-6.34473,3.50976-6.34473,7.875V366.5H218.6748V352.01074c0-3.28515-.98974-6.34472-5.12988-6.34472-4.36474,0-6.47949,3.87011-6.47949,8.46V366.5h-2.25Z"/><path class="cls-2" d="M242.12012,333.33691h2.25v14.44434c1.07959-2.25,3.28467-4.32031,7.69433-4.32031,5.31006,0,9.22461,4.36523,9.22461,11.29492,0,7.10937-3.50976,12.28418-9.80957,12.28418-3.77978,0-5.93945-1.5293-7.10937-4.09473,0,1.44043-.04541,2.92481-.09033,3.55469H242.0752c.04492-2.56445.04492-5.12988.04492-7.69434Zm16.78418,21.46387c0-5.625-2.79-9.22461-7.06446-9.22461-5.625,0-7.605,3.8252-7.605,9.71973,0,5.30957,1.75489,9.62988,7.335,9.62988C256.11426,364.92578,258.9043,361.14551,258.9043,354.80078Z"/><path class="cls-2" d="M283.69922,359.93066c0,2.20508.04492,5.71485.04492,6.56934H281.584a36.21849,36.21849,0,0,1-.13476-3.915c-.94531,2.65527-3.24024,4.45508-7.24512,4.45508-3.23926,0-7.37988-1.25977-7.37988-8.14453V344.001h2.20508v14.35449c0,3.28516,1.03515,6.47949,5.49023,6.47949,5.03906,0,6.92969-2.835,6.92969-9.26953V344.001h2.25Z"/><path class="cls-2" d="M291.0791,350.12109c0-3.78027-.04492-5.40039-.04492-6.12011h2.2041c.04492.71972.09082,2.16015.09082,5.04a8.52413,8.52413,0,0,1,7.8291-5.58008v2.42969c-4.67968.31542-7.8291,3.55566-7.8291,8.91015V366.5h-2.25Z"/><path class="cls-2" d="M322.26367,364.9707c0,7.19922-3.19531,10.9795-9.71875,10.9795-5.85058,0-8.28027-3.28516-8.82031-6.70508h2.29492c.81055,3.10449,3.375,4.58984,6.61524,4.58984,5.84961,0,7.46875-3.78027,7.46875-9.49512V362c-1.21485,2.92578-3.41993,4.5-7.51368,4.5-5.26562,0-9.31445-4.27441-9.31445-11.249,0-7.55957,4.31934-11.79,9.62891-11.79,4.58984,0,6.57031,2.16015,7.19922,3.96.04492-1.30469.08984-2.87988.13476-3.41992h2.11524c0,.81054-.08985,4.36523-.08985,6.52539Zm-16.60351-9.80957c0,5.3545,2.834,9.22461,7.15429,9.22461,5.625,0,7.334-3.73535,7.334-9.585,0-5.93945-1.79883-9.22461-7.19922-9.22461C307.77441,345.57617,305.66016,350.03125,305.66016,355.16113Z"/><path class="cls-2" d="M330.13867,355.52051c.04492,5.80469,2.97071,9.40527,7.29,9.40527,4.22949,0,5.66992-2.38574,6.47949-4.23047h2.29493c-.94532,2.96973-3.33008,6.34473-8.86426,6.34473-6.83985,0-9.49512-5.89453-9.49512-11.60938,0-6.43457,3.19531-11.96972,9.76465-11.96972,6.93066,0,9.13476,5.98535,9.13476,10.21484,0,.62988,0,1.25977-.04492,1.84473Zm14.26465-1.97949c-.04492-4.45508-2.47559-7.96485-6.88477-7.96485-4.63476,0-6.749,3.24024-7.24511,7.96485Z"/><path class="cls-2" d="M352.23438,350.12109c0-3.78027-.04493-5.40039-.04493-6.12011h2.2041c.04493.71972.09083,2.16015.09083,5.04a8.5231,8.5231,0,0,1,7.8291-5.58008v2.42969c-4.67969.31542-7.8291,3.55566-7.8291,8.91015V366.5h-2.25Z"/><path class="cls-3" d="M187.18658,191.2037s73.75859,33.578,155.7144,0c0,0,.60029-1.09189-.88164-10.32429s-154.83276-3.41219-154.83276-3.41219Z"/><path class="cls-4" d="M342.2075,169.42584c-54.73693-3.9622-110.11489,2.47793-164.42071-5.441l.64289-.153a28.15412,28.15412,0,0,0-14.1795.15466,3.57739,3.57739,0,0,0-1.965,1.05743c-.94261,1.20938-.04424,3.09161,1.30359,3.8227s2.9563.71589,4.47037.95822c6.892,1.10306,11.99471,8.69688,10.41172,15.49475-.78373,3.3656-2.744,7.41649-.26152,9.82035,2.75693,2.66956,7.37493-.44921,8.97724-3.9363s2.41682-7.84828,5.808-9.64471c3.80126-2.01366,8.42428.53273,11.53121,3.50786s6.05567,6.66359,10.28747,7.43582c7.16475,1.30744,13.00134-6.37632,20.24295-7.15226,9.98093-1.06946,17.8124,11.07164,27.78387,9.9173,9.14849-1.05907,14.38357-12.78339,23.56966-13.44081,3.06588-.21942,6.05863.88385,8.90415,2.04607a169.595,169.595,0,0,1,18.37185,8.82722c2.533,1.4104,5.26463,2.93755,8.1427,2.58813,6.73913-.8182,8.49037-10.46846,14.572-13.48489,4.04474-2.00614,8.88331-.55233,13.09732,1.06836s8.82815,3.40788,13.10855,1.97165,6.7338-7.93,3.02926-10.51084a9.186,9.186,0,0,0-4.21353-1.23032l-20.48962-2.52021"/><path class="cls-4" d="M342.2075,166.92584c-54.5156-3.82348-109.47764,2.39175-163.75611-5.3517v4.8214l.64289-.153c2.35128-.5594,2.41571-4.3001,0-4.82139-4.98394-1.0755-12.54452-2.03665-17.18776.78628-3.3326,2.0261-3.03274,6.20235-.08552,8.427,2.01734,1.52272,4.53554,1.19951,6.84363,1.88225a10.94166,10.94166,0,0,1,7.07032,7.08373c1.67873,5.17993-2.83136,10.21752-.67,15.23007,1.5206,3.5265,5.38486,4.55508,8.75678,3.0733,5.301-2.32951,5.30256-7.19092,8.04146-11.46982,5.16295-8.06592,12.20133,2.45491,16.67963,5.78824a13.13781,13.13781,0,0,0,13.34625,1.76793c5.29043-2.07583,10.07472-7.01649,16.153-6.06262,5.21532.81845,9.56946,4.83864,14.1192,7.20309,9.3213,4.84417,16.30163,1.87079,23.7476-4.5558,5.43819-4.69369,9.58716-7.57007,17.016-4.9713,7.37828,2.58108,14.09746,6.605,21.04227,10.09965,3.91976,1.97243,8.12853,3.07166,12.12012.67032,4.26156-2.56375,5.76714-7.62382,9.35784-10.81286,8.68619-7.71454,28.96277,11.99913,34.08088-4.87877,1.217-4.01335-.48078-7.98582-4.53131-9.41447-3.38171-1.19275-7.49727-1.14783-11.02341-1.58155l-13.03885-1.60377c-3.18611-.39189-3.1577,4.61161,0,5,6.20874.76367,12.42173,1.49927,18.62693,2.2911,3.35325.4279,7.22438,2.32671,4.07926,5.81721-2.96654,3.29231-8.41508,1.12893-11.87867-.12034-8.2833-2.98768-15.75271-4.40192-21.78353,3.18941-2.87269,3.616-5.20785,9.609-10.86344,8.2643-2.86955-.68226-5.65936-2.82992-8.24668-4.17921q-4.52072-2.35756-9.17681-4.44295c-8.61352-3.847-16.28869-6.79827-24.53831-.80781-7.40418,5.37656-12.57429,12.76854-22.46631,7.71948-6.70295-3.42129-12.86195-9.2152-20.96427-7.76227-4.181.74974-7.60427,3.25952-11.29919,5.17749-6.53567,3.39255-10.33058.71553-15.09611-3.91624-5.32424-5.17481-13.99917-9.24226-19.1463-1.49106a31.90944,31.90944,0,0,0-2.4147,5.30143c-.62487,1.46223-1.00611,2.93536-2.35519,3.91918q-1.4654,2.30665-3.91463-.178a15.61987,15.61987,0,0,1,.66648-3.26331c1.01675-4.17912,1.57158-7.73367-.18686-11.84318a15.99057,15.99057,0,0,0-8.46069-8.51344c-1.002-.40895-6.29369-.863-6.59863-1.84664-.35412-1.14227,12.41574-.24843,12.8503-.15466v-4.82139l-.64289.153c-2.26238.53825-2.502,4.46446,0,4.8214,54.75053,7.81079,110.10253,1.67406,165.08531,5.5303,3.21119.22521,3.19711-4.77577,0-5Z"/><path class="cls-5" d="M172.988,140.34234s-3.93173,7.43655,0,20.35268,151.30975,21.91826,171.85619,7.82795c0,0,5.64822-13.90852,0-21.24028"/><path class="cls-6" d="M178.728,138.58284s-4.31485,2.49289,0,5.5577,42.01207,4.90371,42.01207,4.90371,57.85877,9.75874,59.45742,0l60.33992.5309s3.33435.38854,0-6.66053"/><path class="cls-7" d="M175.8884,127.59054,161.89562,136.785s53.94075,4.59722,58.84445,12.25926c0,0,48.42409-2.75834,59.45742,0s60.33992-6.12963,60.33992-6.12963l14.44158-4.33178-15.88832-10.9923"/><path class="cls-8" d="M257.293,67.78127c-23.22416-.93108-49.07917,6.66933-73.57092,32.34421,0,0-13.89914,16.24353-8.02727,28.80927,3.05491,6.53749,42.26563,11.99654,81.60114,12.7518,39.3355-.75526,78.54622-6.21431,81.60113-12.7518,5.87187-12.56574-8.02727-28.80927-8.02727-28.80927-24.49175-25.67488-50.34676-33.27529-73.57092-32.34421"/><path class="cls-9" d="M182.33117,116.96139a2.74406,2.74406,0,0,0,1.2609.56053c.48434-.028.54419-1.14908,0-1.065C183.59207,116.45691,183.77978,115.98046,182.33117,116.96139Z"/><path class="cls-9" d="M210.81179,126.84942a2.74411,2.74411,0,0,0-.56053,1.2609c.028.48433,1.14909.54419,1.065,0C211.31627,128.11032,211.79272,128.298,210.81179,126.84942Z"/><path class="cls-9" d="M245.25794,133.72081a2.74406,2.74406,0,0,0-.56053,1.2609c.028.48434,1.14908.54419,1.065,0C245.76241,134.98171,246.23886,135.16942,245.25794,133.72081Z"/><path class="cls-9" d="M248.146,115.11183a2.74416,2.74416,0,0,0-.56053,1.2609c.028.48434,1.14909.54419,1.065,0C248.65049,116.37273,249.12694,116.56044,248.146,115.11183Z"/><path class="cls-9" d="M292.86373,114.3587a2.74406,2.74406,0,0,0-.56053,1.2609c.028.48434,1.14908.54419,1.065,0C293.3682,115.6196,293.84465,115.80731,292.86373,114.3587Z"/><path class="cls-9" d="M238.04451,123.54508a2.74409,2.74409,0,0,0-.145-1.37224c-.26644-.40543-1.26723.10326-.92232.53251C236.97717,122.70535,236.4707,122.781,238.04451,123.54508Z"/><path class="cls-9" d="M282.46365,131.61755a2.74406,2.74406,0,0,0,.56053-1.2609c-.028-.48434-1.14908-.5442-1.065,0C281.95918,130.35665,281.48273,130.16894,282.46365,131.61755Z"/><path class="cls-9" d="M236.42207,104.50206a2.744,2.744,0,0,0-1.37224.145c-.40543.26644.10326,1.26724.53251.92233C235.58234,105.5694,235.658,106.07587,236.42207,104.50206Z"/><path class="cls-9" d="M216.568,109.20364s.898-.37824,1.11588-.8117-.723-1.04583-.92232-.53251C216.76151,107.85943,216.44274,107.45865,216.568,109.20364Z"/><path class="cls-9" d="M308.45315,111.73229a2.74416,2.74416,0,0,0-1.37224.145c-.40543.26644.10326,1.26724.5325.92233C307.61341,112.79963,307.68908,113.3061,308.45315,111.73229Z"/><path class="cls-9" d="M300.9261,122.77533s-.898.37825-1.11588.81171.723,1.04583.92232.5325C300.73254,124.11954,301.05131,124.52033,300.9261,122.77533Z"/><path class="cls-9" d="M252.83152,87.32789s.37825.898.81171,1.11588,1.04582-.723.5325-.92232C254.17573,87.52145,254.57652,87.20268,252.83152,87.32789Z"/><path class="cls-9" d="M288.44081,105.76265a2.74407,2.74407,0,0,0-.56052,1.2609c.028.48434,1.14908.54419,1.065,0C288.94529,107.02355,289.42174,107.21126,288.44081,105.76265Z"/><path class="cls-9" d="M215.97712,89.26548s.898-.37825,1.11588-.81171-.723-1.04582-.92232-.5325C216.17068,87.92127,215.85191,87.52049,215.97712,89.26548Z"/><path class="cls-9" d="M328.99627,119.4891a2.744,2.744,0,0,0,.145,1.37223c.26644.40544,1.26723-.10325.92232-.5325C330.06361,120.32883,330.57008,120.25317,328.99627,119.4891Z"/><path class="cls-9" d="M197.91311,97.25781a2.74411,2.74411,0,0,0-1.2609-.56053c-.48433.028-.54419,1.14909,0,1.065C196.65221,97.76229,196.4645,98.23874,197.91311,97.25781Z"/><path class="cls-9" d="M277.473,118.14305a2.74406,2.74406,0,0,0,1.2609.56053c.48434-.028.54419-1.14908,0-1.065C278.73394,117.63858,278.92165,117.16213,277.473,118.14305Z"/><path class="cls-9" d="M226.653,132.89735a2.744,2.744,0,0,0-.56053,1.2609c.028.48433,1.14909.54419,1.065,0C227.15751,134.15825,227.634,134.346,226.653,132.89735Z"/><path class="cls-9" d="M210.84112,117.31839s-.37824-.898-.8117-1.11588-1.04583.723-.53251.92232C209.49691,117.12483,209.09613,117.44359,210.84112,117.31839Z"/><path class="cls-9" d="M265.81655,97.22534a2.74411,2.74411,0,0,0-.56053,1.2609c.028.48433,1.14909.54419,1.065,0C266.321,98.48624,266.79748,98.674,265.81655,97.22534Z"/><path class="cls-9" d="M307.69286,97.72428a2.74408,2.74408,0,0,0,1.37224-.145c.40544-.26644-.10326-1.26724-.5325-.92232C308.5326,96.65694,308.45694,96.15046,307.69286,97.72428Z"/><path class="cls-9" d="M267.49281,78.15272a2.74406,2.74406,0,0,0-1.2609-.56053c-.48434.028-.54419,1.14909,0,1.065C266.23191,78.6572,266.0442,79.13365,267.49281,78.15272Z"/><path class="cls-9" d="M244.46381,77.38792a2.744,2.744,0,0,0,1.2609.56053c.48433-.028.54419-1.14909,0-1.065C245.72471,76.88344,245.91242,76.407,244.46381,77.38792Z"/><path class="cls-9" d="M286.1004,88.1551s-.37825-.898-.81171-1.11589-1.04583.723-.5325.92233C284.75619,87.96154,284.3554,88.2803,286.1004,88.1551Z"/><path class="cls-9" d="M278.2965,105.32552a2.744,2.744,0,0,0-1.37223.145c-.40544.26643.10326,1.26723.5325.92232C277.45677,106.39286,277.53243,106.89933,278.2965,105.32552Z"/><path class="cls-9" d="M264.64293,132.89735a2.74411,2.74411,0,0,0-.56053,1.2609c.028.48433,1.14909.54419,1.065,0C265.14741,134.15825,265.62386,134.346,264.64293,132.89735Z"/><path class="cls-9" d="M196.46949,126.76708a2.744,2.744,0,0,0-.56053,1.2609c.028.48433,1.14908.54419,1.065,0C196.974,128.028,197.45042,128.21569,196.46949,126.76708Z"/><path class="cls-9" d="M246.4396,100.68515a2.74406,2.74406,0,0,0-.56053,1.2609c.028.48434,1.14908.54419,1.065,0C246.94408,101.94605,247.42053,102.13376,246.4396,100.68515Z"/><path class="cls-9" d="M282.40518,74.98386s-.898.37825-1.11588.81171.723,1.04582.92232.5325C282.21162,76.32807,282.53038,76.72886,282.40518,74.98386Z"/><path class="cls-9" d="M234.74644,82.19218s.898-.37825,1.11588-.81171-.723-1.04582-.92232-.5325C234.94,80.848,234.62123,80.44718,234.74644,82.19218Z"/><path class="cls-9" d="M316.89668,127.31719a2.74406,2.74406,0,0,0-.56053,1.2609c.028.48434,1.14908.54419,1.065,0C317.40115,128.57809,317.8776,128.7658,316.89668,127.31719Z"/><path class="cls-9" d="M298.46241,98.80908a2.74409,2.74409,0,0,0-.145-1.37224c-.26644-.40543-1.26723.10326-.92232.5325C297.39507,97.96934,296.88859,98.045,298.46241,98.80908Z"/><path class="cls-9" d="M262.30108,112.26431s-.37824-.898-.8117-1.11588-1.04583.723-.53251.92232C260.95687,112.07075,260.55609,112.38951,262.30108,112.26431Z"/><path class="cls-9" d="M228.99623,93.68978a2.744,2.744,0,0,0,.56053-1.2609c-.028-.48433-1.14908-.54419-1.065,0C228.49176,92.42888,228.01531,92.24117,228.99623,93.68978Z"/><path class="cls-9" d="M228.001,116.33057s-.37825-.898-.81171-1.11588-1.04583.723-.5325.92232C226.65679,116.137,226.256,116.45577,228.001,116.33057Z"/><path class="cls-9" d="M327.86952,105.32552s-.37824-.898-.8117-1.11589-1.04583.72305-.53251.92233C326.52531,105.132,326.12453,105.45072,327.86952,105.32552Z"/><path class="cls-9" d="M300.33886,86.76576a2.744,2.744,0,0,0-.145-1.37223c-.26643-.40544-1.26723.10326-.92232.5325C299.27152,85.926,298.765,86.00169,300.33886,86.76576Z"/><path class="cls-9" d="M224.2267,76.098a2.74409,2.74409,0,0,0-1.37224.145c-.40543.26644.10326,1.26723.53251.92232C223.387,77.16533,223.46263,77.67181,224.2267,76.098Z"/><path class="cls-9" d="M271.55263,88.97481a2.74408,2.74408,0,0,0,1.37224-.145c.40543-.26644-.10326-1.26723-.5325-.92232C272.39237,87.90747,272.3167,87.401,271.55263,88.97481Z"/><path class="cls-9" d="M253.78858,126.84942a2.744,2.744,0,0,0-.56053,1.2609c.028.48433,1.14909.54419,1.065,0C254.29306,128.11032,254.76951,128.298,253.78858,126.84942Z"/><path class="cls-9" d="M208.699,98.49813a2.744,2.744,0,0,0,1.2609.56053c.48433-.028.54419-1.14908,0-1.065C209.95993,97.99366,210.14764,97.51721,208.699,98.49813Z"/><path class="cls-9" d="M198.64092,109.68563s-.37825-.898-.81171-1.11588-1.04583.723-.5325.92232C197.29671,109.49207,196.89592,109.81083,198.64092,109.68563Z"/></svg>