<svg id="Layer_1" data-name="Layer 1" xmlns="http://www.w3.org/2000/svg" viewBox="0 0 517 517"><defs><style>.cls-1{fill:#2e3192;}.cls-2{fill:#93278f;}.cls-3{fill:#fff;}.cls-4{fill:#231f20;}.cls-5{fill:#25a9e0;}</style></defs><title>milk1</title><path class="cls-1" d="M258.45,516.49945c-142.5,0-258-115.5-258-258a257.961,257.961,0,0,1,75.6-182.4c100.8-100.8,264.1-100.8,364.9,0s100.8,264.1,0,364.9A256.49776,256.49776,0,0,1,258.45,516.49945Z"/><path class="cls-2" d="M255.31363,47.49751a29.51662,29.51662,0,0,0,3.68263-10.52107c.11694-.78691-1.08733-1.12644-1.20535-.3323a28.57713,28.57713,0,0,1-3.55662,10.22247.62547.62547,0,0,0,1.07934.6309Z"/><path class="cls-2" d="M262.90712,45.85479c-.62561-2.13662-1.23613-4.2786-1.90382-6.40258-.471-1.49819-.79445-3.67445-2.09157-4.68782-.84751-.66212-2.60737-.09446-2.08923,1.21618.63367,1.60289,2.09757,2.68416,2.43117,4.40824l1.83625-1.41164a10.77478,10.77478,0,0,1-2.40241-2.47958c-.914-1.29374-2.9727-.15874-2.15868,1.2618,1.05952,1.84894,2.61667,3.44011,3.13025,5.55325l2.08923-1.21618a16.75962,16.75962,0,0,1-2.56858-4.78l-2.28469.9632c1.56465,2.20649,3.04714,4.51949,3.29753,7.28119l1.8809-1.07934c-.52744-.23271-1.19-1.32386-1.48093-1.75037-.6512-.95456-1.85189-2.32574-1.95708-3.5006l-2.13389.88388a20.53774,20.53774,0,0,1,2.98631,3.85948l1.96322-1.51478a15.54811,15.54811,0,0,1-2.29161-3.67753c-.71377-1.44191-2.87079-.17677-2.15867,1.2618a17.81455,17.81455,0,0,0,2.68251,4.1835c.95724,1.059,2.68921-.30637,1.96323-1.51478a23.32218,23.32218,0,0,0-3.37722-4.36545,1.26307,1.26307,0,0,0-2.13388.88388c.15673,1.7505,1.17484,3.03254,2.10928,4.47122.64637.99518,1.44267,2.44239,2.56693,2.93843.77281.341,1.97574-.03336,1.8809-1.07934-.29481-3.25167-1.77725-5.91772-3.63885-8.543-.75148-1.05974-2.84746-.453-2.28469.9632a20.54609,20.54609,0,0,0,3.21151,5.88318c.84662,1.00634,2.36385-.08627,2.08923-1.21618-.57342-2.35936-2.20192-4.09067-3.38226-6.15045l-2.15868,1.2618a14.72751,14.72751,0,0,0,3.29929,3.37646c.95911.7167,2.01988-.46259,1.83625-1.41164-.35858-1.85318-1.77677-2.7529-2.43117-4.40824L257.144,36.53216c1.06876.835,1.53488,3.84375,1.90212,5.06051.49464,1.63886.9693,3.28384,1.45035,4.92672a1.25107,1.25107,0,0,0,2.41069-.6646Z"/><path class="cls-3" d="M143.21533,294.48535h10.43994c8.63965,0,14.624,6.0293,14.624,15.47852,0,9.40527-5.84961,16.01953-14.66944,16.01953H143.21533Zm2.43018,29.24805H153.25c8.32471,0,12.41943-5.84961,12.41943-13.63379,0-6.92969-3.68994-13.36523-12.41943-13.36523h-7.60449Z"/><path class="cls-3" d="M174.98584,315.00391c.04492,5.80468,2.96973,9.40527,7.28955,9.40527,4.23,0,5.66992-2.38574,6.47949-4.23047h2.29492c-.94482,2.96973-3.32959,6.34473-8.86425,6.34473-6.83985,0-9.49463-5.89453-9.49463-11.60938,0-6.43457,3.19482-11.96972,9.76416-11.96972,6.93017,0,9.13476,5.98535,9.13476,10.21484,0,.62988,0,1.25977-.04492,1.84473Zm14.26416-1.9795c-.04492-4.45507-2.4751-7.96484-6.88477-7.96484-4.63476,0-6.74951,3.24023-7.24462,7.96484Z"/><path class="cls-3" d="M197.08057,309.28906c0-1.93457,0-4.0498-.04493-5.80468h2.20459c.04493.76562.13526,2.70019.09034,4.00488a7.03668,7.03668,0,0,1,6.74951-4.54492c3.1499,0,5.625,1.57519,6.5249,4.45507a7.65642,7.65642,0,0,1,7.33447-4.45507c3.46485,0,7.06494,1.98046,7.06494,8.23535V325.9834h-2.25V311.44922c0-3.01465-1.08007-6.29981-5.26464-6.29981-4.36524,0-6.34473,3.50977-6.34473,7.875v12.959h-2.20508V311.49414c0-3.28516-.99023-6.34473-5.12988-6.34473-4.36475,0-6.47949,3.87012-6.47949,8.46v12.374h-2.25Z"/><path class="cls-3" d="M249.54932,321.709a25.67066,25.67066,0,0,0,.31543,4.27442h-2.16016a14.76515,14.76515,0,0,1-.40479-3.46485c-.76513,1.665-2.74511,4.00489-7.37988,4.00489-5.21972,0-7.46972-3.375-7.46972-6.75,0-4.94922,3.8247-7.19922,10.5747-7.19922h4.2749V310.2793c0-2.25-.67529-5.26465-5.80517-5.26465-4.54443,0-5.21973,2.38476-5.71436,4.22949h-2.25c.27-2.47461,1.79981-6.2998,8.00977-6.2998,5.12939,0,8.00928,2.16015,8.00928,7.11035Zm-2.20459-7.20019h-4.41016c-4.99463,0-8.09961,1.30566-8.09961,5.1748,0,2.835,2.0249,4.77051,5.17481,4.77051,6.435,0,7.335-4.27539,7.335-9.13476Z"/><path class="cls-3" d="M256.9751,309.1543c0-1.9795,0-3.87012-.04492-5.66992h2.20459c.08984.71972.13476,3.6455.08984,4.27539.99023-2.29493,2.835-4.81543,7.46973-4.81543,4.00488,0,7.55957,2.25,7.55957,8.46v14.5791h-2.25V311.76465c0-4.00488-1.665-6.61524-5.57911-6.61524-5.35546,0-7.20019,4.45508-7.20019,9.35938V325.9834H256.9751Z"/><path class="cls-3" d="M299.00391,292.82031v26.6836c0,2.16015,0,4.22949.04492,6.47949h-2.16016c-.08984-.54-.13476-2.6543-.13476-3.7793-1.125,2.74414-3.64453,4.31934-7.55957,4.31934-5.84961,0-9.35938-4.76953-9.35938-11.51953,0-6.92969,3.82422-12.05957,9.94434-12.05957,4.5,0,6.2998,1.93554,6.97461,3.375v-13.499Zm-16.78418,22.09375c0,6.165,3.19433,9.49512,7.06445,9.49512,5.93945,0,7.55957-4.0957,7.55957-10.21484,0-5.80469-1.39453-9.13477-7.1543-9.13477C285.23438,305.05957,282.21973,308.61426,282.21973,314.91406Z"/><path class="cls-3" d="M318.669,325.9834V305.59961h-3.87012v-2.11523H318.669V300.29c0-3.78027,1.08007-7.91992,6.11914-7.91992a8.42407,8.42407,0,0,1,2.20507.31445v2.16016a11.18682,11.18682,0,0,0-2.42968-.26953c-2.65528,0-3.64453,1.88964-3.64453,5.80468v3.1045h4.90429v2.11523H320.919V325.9834Z"/><path class="cls-3" d="M347.60254,314.68945c0,6.25391-3.46484,11.834-10.16992,11.834-6.07422,0-9.85449-4.99414-9.85449-11.78906,0-6.43458,3.55468-11.79,10.08007-11.79C343.64258,302.94434,347.60254,307.624,347.60254,314.68945Zm-17.63965.04493c0,5.35449,2.87988,9.6748,7.64941,9.6748,4.86036,0,7.60547-4.00488,7.60547-9.6748,0-5.31055-2.70019-9.67481-7.69531-9.67481C332.39258,305.05957,329.96289,309.334,329.96289,314.73438Z"/><path class="cls-3" d="M353.18262,309.60449c0-3.78027-.04492-5.40039-.04492-6.12011h2.20507c.04493.71972.08985,2.16015.08985,5.04a8.52439,8.52439,0,0,1,7.83008-5.58007V305.374c-4.67969.31543-7.83008,3.55567-7.83008,8.91016V325.9834h-2.25Z"/><path class="cls-3" d="M222.14453,363.28906c0-1.93457,0-4.0498-.04492-5.80468h2.20459c.04492.76562.13525,2.70019.09033,4.00488a7.0367,7.0367,0,0,1,6.74951-4.54492c3.14991,0,5.625,1.57519,6.52491,4.45507a7.65642,7.65642,0,0,1,7.33447-4.45507c3.46484,0,7.06494,1.98046,7.06494,8.23535V379.9834h-2.25V365.44922c0-3.01465-1.08008-6.29981-5.26465-6.29981-4.36523,0-6.34473,3.50977-6.34473,7.875v12.959h-2.20507V365.49414c0-3.28516-.98975-6.34473-5.12989-6.34473-4.36474,0-6.47949,3.87012-6.47949,8.46v12.374h-2.25Z"/><path class="cls-3" d="M259.44922,346.82031h2.25v4.36426h-2.25Zm0,10.66407h2.25v22.499h-2.25Z"/><path class="cls-3" d="M269.07813,379.9834V346.82031h2.25V379.9834Z"/><path class="cls-3" d="M280.958,369.09375c2.07031-2.2041,8.37012-8.59473,11.38476-11.60937h2.87989l-8.91016,8.95507,10.03516,13.54395h-2.79l-8.86426-12.10449-3.73535,3.59961v8.50488h-2.25V346.82031h2.25Z"/><path class="cls-3" d="M232.99386,38.00863v16.9243l-.34406-.28282q-17.34025,21.0261-35.71841,41.16969l-.02534-.50349c-.36229,8.969-.508,17.9436-.54636,26.92-.03768,8.81687.02819,17.63541.09409,26.45195l.09683,12.95347L197.28,259.213l-.0819.2411c7.709,1.49069,15.63424,1.16541,23.48541,1.2954,14.65236.24259,29.22374,2.089,43.829,3.28581,4.76956.39083,9.62482.7071,14.29576-.33249l.7467.36184a21.0739,21.0739,0,0,0,4.25875-.933c1.60838-.53193,3.15042-1.25726,4.77827-1.72646a33.327,33.327,0,0,1,3.78973-.7738q15.30212-2.5392,30.35414-6.35761l-.03541-.01731-1.35951-132.02252-.371-36.02678.31443-.48038A259.69341,259.69341,0,0,0,303.46347,53.896l.16832-.80975L304.5427,38.012l.09711-.36352c-23.4914,1.66276-47.08024.80648-70.615-.05059"/><path class="cls-4" d="M230.49386,38.00863v16.9243l4.26777-1.76777-.34406-.28282c-.96535-.79353-2.61005-1.12017-3.53553,0Q213.52008,73.8965,195.16362,94.052l4.26777,1.76777-.02534-.50349a2.50155,2.50155,0,0,0-5,0c-1.0343,26.73486-.45117,53.51807-.25125,80.26413l.30513,40.82064.15629,20.90813.07442,9.95626c.02389,3.19553,1.10719,8.54914.09671,11.524a2.51152,2.51152,0,0,0,1.7461,3.0753c10.81234,1.89719,21.82424,1.11324,32.74179,1.696,11.77552.6286,23.48585,2.04143,35.23722,2.97447,8.24686.65478,15.44081.42287,23.1392-2.18153,5.67455-1.91972,11.92028-2.4068,17.78957-3.58792,6.02036-1.21153,12.00309-2.5868,17.95918-4.08141,1.99108-.49964,2.55289-3.61334.5972-4.56937l-.03541-.01731,1.2382,2.15867-1.23776-120.1996-.29748-28.88823c-.05191-5.04151.10424-10.13475-.1562-15.16918-.10247-1.98081.28111-3.69174-.06595-5.53447-.7961-4.227-4.54452-9.254-6.58929-13.02981q-3.04266-5.61848-6.35907-11.08256c-1.18065-1.9467-3.06455-4.07536-3.8763-6.18847q-.93393.31211-.57587-.41327a17.481,17.481,0,0,0,.20317-2.54888c.29253-4.05528-.24137-8.97239.80485-12.88887a2.52125,2.52125,0,0,0-2.41069-3.1646c-23.52183,1.59532-47.08044.80575-70.615-.05059-3.218-.11709-3.21327,4.88308,0,5,23.53453.85634,47.0931,1.64591,70.615.05059l-2.4107-3.1646c-.938,3.51128-.59349,7.76472-.81266,11.39165-.32162,5.32234-.543,6.02685,2.35721,10.62092a267.15754,267.15754,0,0,1,15.352,27.99209v-2.5236c-1.0503,1.60462-.63554,3.7049-.6167,5.53447l.10739,10.42881.21478,20.85761.45617,44.29875.9131,88.67184a2.47812,2.47812,0,0,0,1.2382,2.15868l.03541.01731.5972-4.56937c-10.97523,2.7541-22.25352,4.196-33.20266,6.91056-2.43317.60324-4.70589,1.6712-7.11636,2.35621-1.66552.47331-1.01781.07557-2.27937.16229a98.91789,98.91789,0,0,1-14.96036.24319c-10.79924-.85771-21.56274-2.12454-32.37643-2.80853-11.37166-.71927-23.02091.29105-34.27338-1.68338l1.7461,3.0753c.74658-2.198.13625-5.58034.1191-7.87508l-.08186-10.95188-.15629-20.90813-.32-42.81189c-.20487-27.40835-.82355-54.85848.23637-82.25538h-5l.02534.50349c.10272,2.0412,2.73139,3.45472,4.26776,1.76776Q217.0535,77.4344,234.41757,56.41787H230.882l.34405.28282a2.53453,2.53453,0,0,0,4.26777-1.76776V38.00863c0-3.21726-5-3.22259-5,0Z"/><path class="cls-4" d="M233.12347,57.01386l69.8861.67081c3.21829.03089,3.221-4.96908,0-5l-69.8861-.67081c-3.2183-.03089-3.221,4.96909,0,5Z"/><path class="cls-4" d="M301.75825,52.05262c-8.52582,14.56753-16.97759,29.18829-26.50032,43.13657-1.81895,2.66429,2.51183,5.16821,4.31736,2.5236,9.52269-13.94824,17.9745-28.56907,26.50031-43.13657,1.62872-2.78289-2.69113-5.30222-4.31735-2.5236Z"/><path class="cls-4" d="M278.27757,98.94923q21.87942-5.201,43.503-11.384c3.08833-.88307,1.77535-5.7091-1.32919-4.82139q-21.62253,6.18269-43.503,11.384c-3.12916.74384-1.80435,5.56628,1.3292,4.82139Z"/><path class="cls-4" d="M197.267,98.86032c26.78829-.95468,53.70067-.093,80.50171.05684,3.21794.018,3.22171-4.982,0-5-26.801-.14986-53.71341-1.01152-80.50171-.05684-3.20825.11434-3.22346,5.11488,0,5Z"/><path class="cls-4" d="M274.01657,96.83268c2.35965,13.25887,1.523,27.09919,1.60353,40.51391l.25226,42.03008.50953,84.89309c.0193,3.21632,5.01934,3.22331,5,0l-.52138-86.86734q-.12855-21.41937-.25712-42.83874c-.078-12.99766.52115-26.21194-1.76542-39.0602-.56285-3.16264-5.38229-1.82245-4.8214,1.3292Z"/><path class="cls-5" d="M214.42732,136.80632l1.80217-14.57011-4.26777,1.76777c2.34956,3.04067,4.36426,6.42426,4.538,10.35024a2.52185,2.52185,0,0,0,4.65868,1.2618,123.4535,123.4535,0,0,0,6.63524-11.169l-4.65868-1.26179q.81738,6.80328,1.19629,13.64163c.17735,3.19975,5.17849,3.22041,5,0q-.3792-6.84171-1.19629-13.64163c-.268-2.23027-3.38349-3.69053-4.65868-1.2618a123.45,123.45,0,0,1-6.63524,11.169l4.65868,1.2618c-.23733-5.36163-2.7944-9.734-6.0025-13.88578-1.50305-1.94517-4.04046-.07-4.26777,1.76777l-1.80217,14.57011c-.394,3.18567,4.6095,3.15708,5,0Z"/><path class="cls-5" d="M231.65212,123.8439q.324,6.63139.13043,13.26415c-.09385,3.21857,4.90623,3.2158,5,0q.19353-6.63646-.13043-13.26415c-.15649-3.20284-5.15741-3.22169-5,0Z"/><path class="cls-5" d="M239.04324,124.4l-.3217,7.52936c-.08434,1.97382-.81176,4.97721.056,6.82331.718,1.52745,2.15945,1.76582,3.68541,1.97243a67.05359,67.05359,0,0,0,7.79663.58338c3.21872.0585,3.219-4.94149,0-5-1.60584-.02919-3.20691-.09668-4.8067-.241a24.906,24.906,0,0,1-3.05177-.36177l1.13657.52619.06893-1.61343.4366-10.21842c.13746-3.21731-4.86282-3.21079-5,0Z"/><path class="cls-5" d="M253.1859,123.84044l.11434,16.02985c.02294,3.21611,5.023,3.22342,5,0l-.11434-16.02985c-.02295-3.21611-5.023-3.22341-5,0Z"/><path class="cls-5" d="M259.057,133.72464a45.918,45.918,0,0,1,8.47632-7.48386c2.64635-1.79822.1475-6.13239-2.52359-4.31735a51.16824,51.16824,0,0,0-9.48826,8.26568c-2.13514,2.39521,1.389,5.9435,3.53553,3.53553Z"/><path class="cls-5" d="M256.45417,134.58021a62.45785,62.45785,0,0,1,8.23057,7.46491c2.19661,2.36086,5.72635-1.18089,3.53553-3.53553a69.41928,69.41928,0,0,0-9.24251-8.24674,2.51861,2.51861,0,0,0-3.42047.89688,2.55724,2.55724,0,0,0,.89688,3.42048Z"/><path class="cls-5" d="M225.99381,176.0813c.22628-8.24661,8.2851-19.55158,17.56118-13.1453,4.20654,2.90513,4.15594,7.79543,4.74365,12.25259.521,3.95119,2.77988,5.84129,4.76889,9.10438,3.55,5.824-.58736,10.36651-6.18077,12.15025-4.23526,1.35062-8.67816.97208-12.95978.02056-3.759-.83539-9.331-1.94425-12.56932-4.21613-6.248-4.38341-.8669-11.6604,3.56223-14.65926,2.64982-1.79413.15063-6.128-2.5236-4.31735-5.26851,3.56718-9.64476,8.84454-8.573,15.6124,1.006,6.35274,6.124,8.50869,11.60555,10.31029,10.25,3.3688,29.687,6.50942,33.93544-7.73223.92334-3.09524.07513-6.22307-1.49944-8.95881a33.57158,33.57158,0,0,0-2.40489-3.35008c-1.88943-2.51072-2.08367-4.80729-2.46956-7.82335-.72284-5.64959-3.26472-11.20881-8.70573-13.64821-12.68344-5.68643-22.96854,6.65422-23.29083,18.40025-.08831,3.21864,4.91175,3.21635,5,0Z"/><path class="cls-5" d="M222.14369,167.41406c-1.35013.04362-5.36117-3.92838-3.96012-5.3773.57882-.5986,2.159-.08551,2.77158.19846a4.66435,4.66435,0,0,1,2.35366,2.431c1.17574,2.95385,6.01347,1.66568,4.8214-1.3292a9.94335,9.94335,0,0,0-6.35654-6.12328c-2.64869-.79676-5.8675-.49655-7.59947,1.8758a7.02956,7.02956,0,0,0,.05836,7.84254c1.58476,2.53177,4.76006,5.58382,7.91113,5.482,3.20943-.10369,3.22372-5.10415,0-5Z"/><path class="cls-5" d="M250.66784,162.80762c.09549-1.03456,4.66891-2.19619,4.42727-.00454-.242,2.19444-3.3527,4.43413-4.96961,5.6469-2.54352,1.90779-.054,6.25067,2.5236,4.31736,3.972-2.97927,11.003-9.49766,5.68017-14.57813-3.96727-3.78664-12.16908-.7159-12.66143,4.61841-.2956,3.20277,4.70626,3.18264,5,0Z"/><path class="cls-5" d="M228.84438,180.49849a7.01283,7.01283,0,0,0-8.03308,4.23882,5.38405,5.38405,0,0,0,4.6811,7.56257c3.27762.27963,6.94031-1.804,7.65243-5.16658.71519-3.377-1.94522-7.04814-5.51139-6.87822-3.20339.15264-3.22191,5.15352,0,5,.37917-.01806.35649.09312.13351-.08224.12186.09583.29407.16687.36553.333a.97855.97855,0,0,1,.10506.66322c-.19958.84118-1.6073,1.21886-2.33769,1.15758a1.95518,1.95518,0,0,1-.54655-.1009c-.282-.10745.01552-.01209.06487.15655a1.23142,1.23142,0,0,1,.08736-.952,1.93332,1.93332,0,0,1,2.00966-1.1104c3.13689.68138,4.4771-4.13763,1.32919-4.82139Z"/><path class="cls-5" d="M244.91111,181.16381a6.166,6.166,0,0,0-3.80157,8.84385,6.69178,6.69178,0,0,0,8.63588,3.14249,6.51926,6.51926,0,0,0,3.3942-8.62294,5.96341,5.96341,0,0,0-8.46861-2.484c-2.71,1.71878-.20439,6.04756,2.5236,4.31735,1.52313-.966,2.08312,1.54279.61656,2.20252-1.80013.80978-3.52253-2.04057-1.57086-2.57785,3.09833-.85293,1.78279-5.67809-1.3292-4.82139Z"/><path class="cls-5" d="M229.28489,167.8882c-1.55319,2.119-2.03395,7.05738,1.21159,7.96a3.27781,3.27781,0,0,0,3.91-2.721,7.22439,7.22439,0,0,0-.64074-4.72847,2.52081,2.52081,0,0,0-3.42047-.89688,2.55666,2.55666,0,0,0-.89688,3.42047c-.09208-.19721.05395.18959.05916.20743l.06719.28009q-.02036-.213-.00483.0498a3.40115,3.40115,0,0,1,.00665.38512q.02681-.14076-.024.09356-.25133.91086,1.03489-.88418h1.32919l-.18194-.05474,1.10316.64293q.44845.865.24763.23191l.01379.15859c-.01845-.14256.02685-.8212.00245-.68817-.06612.36042.24725-.65367.11385-.34912-.03672.08381.30111-.467.38666-.58374a2.5181,2.5181,0,0,0-.89688-3.42048,2.55746,2.55746,0,0,0-3.42048.89688Z"/><path class="cls-5" d="M240.15464,167.35515a6.07746,6.07746,0,0,0-1.58932,4.538c.168,1.87834,1.20682,3.92375,3.37414,3.88512,2.07185-.03692,3.39415-2.0484,3.57455-3.92194a6.87418,6.87418,0,0,0-1.14346-4.20158,2.5004,2.5004,0,1,0-4.31735,2.5236c.05111.0816.457.8763.29995.48484a4.1437,4.1437,0,0,1,.20613.703c-.11552-.5609.071.27425-.01922.26662a.53854.53854,0,0,1,.11572-.40972q-.53606.81924,1.0298-.47532l1.2618.34132a1.33938,1.33938,0,0,1,.59217.56108q.10979.20986-.0219-.17611c-.09159.42395.02322-.26286.03084-.32772-.05435.4629.14559-.36452-.02152.06226.03675-.09384.42009-.61717.1632-.31791a2.56411,2.56411,0,0,0,0-3.53553,2.52188,2.52188,0,0,0-3.53553,0Z"/></svg>