<svg id="Layer_1" data-name="Layer 1" xmlns="http://www.w3.org/2000/svg" viewBox="0 0 517 517"><defs><style>.cls-1{fill:#93278f;}.cls-2{fill:#fff;}.cls-3{fill:#52321b;}</style></defs><title>milk2</title><path class="cls-1" d="M258.45,516.49945c-142.5,0-258-115.5-258-258a257.961,257.961,0,0,1,75.6-182.4c100.8-100.8,264.1-100.8,364.9,0s100.8,264.1,0,364.9A256.49776,256.49776,0,0,1,258.45,516.49945Z"/><path class="cls-2" d="M102.01807,240.48486H112.458c8.63965,0,14.624,6.02979,14.624,15.479,0,9.40527-5.84961,16.01953-14.66943,16.01953H102.01807Zm2.43017,29.24854h7.60449c8.32471,0,12.41944-5.84961,12.41944-13.63428,0-6.92969-3.68994-13.36474-12.41944-13.36474h-7.60449Z"/><path class="cls-2" d="M148.72754,267.709a25.74116,25.74116,0,0,0,.31494,4.27442h-2.15967a14.76537,14.76537,0,0,1-.40478-3.46485c-.76514,1.665-2.74512,4.00489-7.37989,4.00489-5.21972,0-7.46972-3.375-7.46972-6.75,0-4.94922,3.82471-7.19971,10.57471-7.19971h4.2749v-2.29492c0-2.24951-.6753-5.26465-5.80518-5.26465-4.54443,0-5.21972,2.38477-5.71435,4.23h-2.25c.27-2.4751,1.7998-6.2998,8.00976-6.2998,5.1294,0,8.00928,2.16015,8.00928,7.10986Zm-2.20459-7.20019h-4.41016c-4.99463,0-8.09961,1.30566-8.09961,5.1748,0,2.835,2.02491,4.77051,5.17481,4.77051,6.43506,0,7.335-4.27539,7.335-9.13476Z"/><path class="cls-2" d="M156.15332,238.81982h2.25v4.36475h-2.25Zm0,10.66456h2.25v22.499h-2.25Z"/><path class="cls-2" d="M165.78271,255.604c0-3.77978-.04492-5.3999-.04492-6.11962h2.20459c.04492.71972.09033,2.15966.09033,5.03955a8.52381,8.52381,0,0,1,7.82959-5.57959V251.374c-4.67968.31543-7.82959,3.55518-7.82959,8.91016V271.9834h-2.25Z"/><path class="cls-2" d="M181.17188,249.48438c4.54492,12.87011,6.52441,18.17968,7.28955,20.60937h.04492c.8999-2.74512,2.70019-7.96484,7.06494-20.60937h2.33984l-8.45947,23.80468c-2.38525,6.65918-4.00488,8.14453-8.05469,8.14453a14.87314,14.87314,0,0,1-2.07031-.13574v-2.249a14.84064,14.84064,0,0,0,2.0249.13476c3.24024,0,4.2749-1.57519,5.93994-6.21l-8.59472-23.48925Z"/><path class="cls-2" d="M214.51563,271.9834V251.59912h-3.87012v-2.11474h3.87012v-3.19483c0-3.77978,1.08007-7.91992,6.11962-7.91992a8.42368,8.42368,0,0,1,2.20508.31494v2.16016a11.16172,11.16172,0,0,0-2.43017-.27c-2.65479,0-3.64453,1.89013-3.64453,5.80468v3.105h4.90478v2.11474h-4.90478V271.9834Z"/><path class="cls-2" d="M240.43506,267.709a25.67066,25.67066,0,0,0,.31543,4.27442h-2.16016a14.76537,14.76537,0,0,1-.40478-3.46485c-.76514,1.665-2.74512,4.00489-7.37989,4.00489-5.21972,0-7.46972-3.375-7.46972-6.75,0-4.94922,3.8247-7.19971,10.5747-7.19971h4.27491v-2.29492c0-2.24951-.6753-5.26465-5.80518-5.26465-4.54443,0-5.21973,2.38477-5.71435,4.23h-2.25c.27-2.4751,1.7998-6.2998,8.00976-6.2998,5.1294,0,8.00928,2.16015,8.00928,7.10986Zm-2.20459-7.20019h-4.41016c-4.99463,0-8.09961,1.30566-8.09961,5.1748,0,2.835,2.02491,4.77051,5.17481,4.77051,6.43506,0,7.335-4.27539,7.335-9.13476Z"/><path class="cls-2" d="M247.86084,255.604c0-3.77978-.04492-5.3999-.04492-6.11962h2.20459c.04492.71972.09033,2.15966.09033,5.03955a8.5238,8.5238,0,0,1,7.82959-5.57959V251.374c-4.67969.31543-7.82959,3.55518-7.82959,8.91016V271.9834h-2.25Z"/><path class="cls-2" d="M261.94531,255.28906c0-1.93506,0-4.0498-.04492-5.80468h2.20508c.04492.76513.13476,2.6997.08984,4.00488a7.03739,7.03739,0,0,1,6.75-4.54492c3.14942,0,5.625,1.5747,6.52442,4.45459a7.65683,7.65683,0,0,1,7.335-4.45459c3.46484,0,7.06445,1.98,7.06445,8.23486v14.8042h-2.25V257.44922c0-3.01514-1.08008-6.29981-5.26465-6.29981-4.36523,0-6.34472,3.50977-6.34472,7.875v12.959h-2.20508V257.49414c0-3.28516-.99024-6.34473-5.12989-6.34473-4.36425,0-6.47949,3.86963-6.47949,8.46v12.374h-2.25Z"/><path class="cls-2" d="M310.9502,255.604c0-3.77978-.04493-5.3999-.04493-6.11962h2.20411c.04492.71972.09082,2.15966.09082,5.03955a8.52365,8.52365,0,0,1,7.8291-5.57959V251.374c-4.67969.31543-7.8291,3.55518-7.8291,8.91016V271.9834h-2.25Z"/><path class="cls-2" d="M341.86426,265.41406c0,2.20508.04492,5.71485.04492,6.56934H339.75a36.13412,36.13412,0,0,1-.13574-3.915c-.94434,2.65527-3.23926,4.45508-7.24414,4.45508-3.24024,0-7.37989-1.25977-7.37989-8.14453V249.48438h2.20508v14.35449c0,3.28515,1.03516,6.47949,5.48926,6.47949,5.04,0,6.92969-2.835,6.92969-9.26953V249.48438h2.25Z"/><path class="cls-2" d="M349.24512,255.1543c0-1.98,0-3.87012-.04492-5.66992h2.2041c.09082.71972.13574,3.645.09082,4.2749.98926-2.29492,2.834-4.81494,7.46972-4.81494,4.00391,0,7.55957,2.25,7.55957,8.45947V271.9834h-2.25V257.76416c0-4.00488-1.665-6.61475-5.58007-6.61475-5.3545,0-7.19922,4.45459-7.19922,9.35938V271.9834h-2.25Z"/><path class="cls-2" d="M392.12891,260.68945c0,6.25391-3.46485,11.834-10.16993,11.834-6.07421,0-9.85449-4.99414-9.85449-11.78906,0-6.43506,3.55469-11.79,10.08008-11.79C388.169,248.94434,392.12891,253.624,392.12891,260.68945Zm-17.63965.04493c0,5.35449,2.87988,9.6748,7.64941,9.6748,4.86035,0,7.60547-4.00488,7.60547-9.6748,0-5.31055-2.70019-9.6753-7.69531-9.6753C376.919,251.05908,374.48926,255.334,374.48926,260.73438Z"/><path class="cls-2" d="M400.9043,251.59912V271.9834h-2.25V251.59912h-3.87012v-2.11474h3.87012v-3.105c0-3.86962.85449-8.00976,5.89453-8.00976a4.91469,4.91469,0,0,1,2.02441.31494v2.11523a7.16633,7.16633,0,0,0-2.15918-.31494c-2.52051,0-3.50976,1.66455-3.50976,5.53467v3.46485h9.04394v-3.105c0-3.86962.94531-8.00976,5.89551-8.00976a4.91466,4.91466,0,0,1,2.02441.31494v2.11523a7.17258,7.17258,0,0,0-2.16015-.31494c-2.51953,0-3.50977,1.66455-3.50977,5.53467v3.46485h4.76953v2.11474h-4.76953V271.9834h-2.25V251.59912Z"/><path class="cls-2" d="M149.5376,319.36914c-1.07959,3.96-3.68946,7.1543-8.72949,7.1543-5.625,0-9.6294-4.18457-9.6294-11.69922,0-6.165,3.28467-11.87988,9.89942-11.87988a8.04436,8.04436,0,0,1,8.45947,7.20019h-2.29492c-.67481-2.61035-2.38477-5.085-6.20948-5.085-4.77,0-7.46972,4.04981-7.46972,9.67481,0,5.35449,2.52,9.6748,7.24463,9.6748,3.28466,0,5.26464-1.665,6.43457-5.04Z"/><path class="cls-2" d="M173.207,314.68945c0,6.25391-3.46484,11.834-10.16943,11.834-6.07471,0-9.85449-4.99414-9.85449-11.78906,0-6.43458,3.55468-11.79,10.07959-11.79C169.24707,302.94434,173.207,307.624,173.207,314.68945Zm-17.63916.04493c0,5.35449,2.87988,9.6748,7.64942,9.6748,4.85986,0,7.605-4.00488,7.605-9.6748,0-5.31055-2.7002-9.67481-7.69483-9.67481C157.99756,305.05957,155.56787,309.334,155.56787,314.73438Z"/><path class="cls-2" d="M178.7876,309.1543c0-1.9795,0-3.87012-.04492-5.66992h2.20459c.09033.71972.13525,3.6455.09033,4.27539.98974-2.29493,2.83447-4.81543,7.46972-4.81543,4.0044,0,7.55957,2.25,7.55957,8.46v14.5791h-2.25V311.76465c0-4.00488-1.665-6.61524-5.57959-6.61524-5.355,0-7.1997,4.45508-7.1997,9.35938V325.9834h-2.25Z"/><path class="cls-2" d="M199.9375,303.48438h4.18506v-7.01954h2.24951v7.01954h5.355v2.11523h-5.355v14.624c0,2.52051.54,3.96,2.7002,3.96a8.52146,8.52146,0,0,0,2.33984-.26953v1.97949a7.89133,7.89133,0,0,1-2.79.40528c-2.87988,0-4.49951-1.44043-4.49951-5.04V305.59961H199.9375Z"/><path class="cls-2" d="M231.751,321.709a25.74116,25.74116,0,0,0,.31494,4.27442h-2.15967a14.76515,14.76515,0,0,1-.40479-3.46485c-.76513,1.665-2.74511,4.00489-7.37988,4.00489-5.21972,0-7.46972-3.375-7.46972-6.75,0-4.94922,3.8247-7.19922,10.5747-7.19922h4.2749V310.2793c0-2.25-.67529-5.26465-5.80517-5.26465-4.54443,0-5.21973,2.38476-5.71436,4.22949h-2.25c.27-2.47461,1.79981-6.2998,8.00977-6.2998,5.12939,0,8.00928,2.16015,8.00928,7.11035Zm-2.20459-7.20019h-4.41016c-4.99463,0-8.09961,1.30566-8.09961,5.1748,0,2.835,2.0249,4.77051,5.17481,4.77051,6.435,0,7.335-4.27539,7.335-9.13476Z"/><path class="cls-2" d="M239.17627,309.28906c0-1.93457,0-4.0498-.04492-5.80468h2.20459c.04492.76562.13525,2.70019.09033,4.00488a7.03669,7.03669,0,0,1,6.74951-4.54492c3.1499,0,5.625,1.57519,6.5249,4.45507a7.65644,7.65644,0,0,1,7.33448-4.45507c3.46484,0,7.06445,1.98046,7.06445,8.23535V325.9834h-2.25V311.44922c0-3.01465-1.08008-6.29981-5.26465-6.29981-4.36475,0-6.34424,3.50977-6.34424,7.875v12.959h-2.20508V311.49414c0-3.28516-.99023-6.34473-5.12988-6.34473-4.36474,0-6.47949,3.87012-6.47949,8.46v12.374h-2.25Z"/><path class="cls-2" d="M276.48145,292.82031h2.25v4.36426h-2.25Zm0,10.66407h2.25v22.499h-2.25Z"/><path class="cls-2" d="M286.11035,309.1543c0-1.9795,0-3.87012-.04492-5.66992h2.20508c.08984.71972.13476,3.6455.08984,4.27539.99024-2.29493,2.835-4.81543,7.46973-4.81543,4.00488,0,7.55957,2.25,7.55957,8.46v14.5791h-2.25V311.76465c0-4.00488-1.665-6.61524-5.5791-6.61524-5.35547,0-7.2002,4.45508-7.2002,9.35938V325.9834h-2.25Z"/><path class="cls-2" d="M325.93457,321.709a25.75785,25.75785,0,0,0,.31445,4.27442h-2.15918a14.72667,14.72667,0,0,1-.40527-3.46485c-.76465,1.665-2.74512,4.00489-7.37988,4.00489-5.21973,0-7.46973-3.375-7.46973-6.75,0-4.94922,3.8252-7.19922,10.5752-7.19922h4.27441V310.2793c0-2.25-.6748-5.26465-5.80469-5.26465-4.54492,0-5.21972,2.38476-5.71484,4.22949h-2.25c.27051-2.47461,1.7998-6.2998,8.00976-6.2998,5.12989,0,8.00977,2.16015,8.00977,7.11035Zm-2.20508-7.20019h-4.41015c-4.99414,0-8.09961,1.30566-8.09961,5.1748,0,2.835,2.02539,4.77051,5.1748,4.77051,6.43555,0,7.335-4.27539,7.335-9.13476Z"/><path class="cls-2" d="M329.76074,303.48438h4.18457v-7.01954h2.25v7.01954h5.35449v2.11523h-5.35449v14.624c0,2.52051.54,3.96,2.7002,3.96a8.52353,8.52353,0,0,0,2.33984-.26953v1.97949a7.893,7.893,0,0,1-2.79.40528c-2.87988,0-4.5-1.44043-4.5-5.04V305.59961h-4.18457Z"/><path class="cls-2" d="M346.36523,315.00391c.04493,5.80468,2.96973,9.40527,7.28907,9.40527,4.23047,0,5.66992-2.38574,6.47949-4.23047h2.29492c-.94433,2.96973-3.3291,6.34473-8.86426,6.34473-6.83984,0-9.49414-5.89453-9.49414-11.60938,0-6.43457,3.19434-11.96972,9.76367-11.96972,6.93067,0,9.13477,5.98535,9.13477,10.21484,0,.62988,0,1.25977-.04492,1.84473Zm14.26368-1.9795c-.04493-4.45507-2.47461-7.96484-6.88477-7.96484-4.63476,0-6.749,3.24023-7.24414,7.96484Z"/><path class="cls-2" d="M369,319.77344c.76465,2.92578,2.835,4.68066,6.38965,4.68066,4.00488,0,5.625-1.8457,5.625-4.36523,0-2.56446-1.08008-3.8252-6.12012-5.04-5.80469-1.39453-7.24512-3.14942-7.24512-6.11914,0-3.10547,2.33985-5.98535,7.42481-5.98535s7.51465,3.10546,7.875,6.2998h-2.25c-.40527-1.88965-1.88965-4.22949-5.71484-4.22949-3.915,0-5.04,1.93457-5.04,3.73437,0,2.07032,1.08007,3.10547,5.53515,4.18555,6.34473,1.5293,7.91992,3.59961,7.91992,6.97461,0,4.09473-3.33007,6.61426-8.05468,6.61426-5.12989,0-8.00977-2.7002-8.63965-6.75Z"/><path class="cls-2" d="M157.68213,378.4541c0,7.19922-3.19483,10.97949-9.71924,10.97949-5.8501,0-8.27978-3.28515-8.81982-6.70507H141.438c.81006,3.10449,3.375,4.58984,6.61474,4.58984,5.84961,0,7.46973-3.78027,7.46973-9.49512V375.4834c-1.21484,2.92578-3.41992,4.5-7.51465,4.5-5.26465,0-9.31445-4.27442-9.31445-11.249,0-7.55958,4.31982-11.79,9.62939-11.79,4.58985,0,6.56983,2.16015,7.19971,3.96.04492-1.30469.08984-2.87989.13477-3.41992h2.11523c0,.81054-.09033,4.36523-.09033,6.52539Zm-16.604-9.80957c0,5.35449,2.835,9.22461,7.15478,9.22461,5.62451,0,7.33447-3.73535,7.33447-9.585,0-5.93945-1.7998-9.22461-7.1997-9.22461C143.19287,359.05957,141.07813,363.51465,141.07813,368.64453Z"/><path class="cls-2" d="M165.0625,363.60449c0-3.78027-.04492-5.40039-.04492-6.12011h2.20459c.04492.71972.09033,2.16015.09033,5.04a8.52426,8.52426,0,0,1,7.82959-5.58007V359.374c-4.67969.31543-7.82959,3.55567-7.82959,8.91016V379.9834h-2.25Z"/><path class="cls-2" d="M197.50635,368.68945c0,6.25391-3.46485,11.834-10.16944,11.834-6.0747,0-9.85449-4.99414-9.85449-11.78906,0-6.43458,3.55469-11.79,10.07959-11.79C193.54639,356.94434,197.50635,361.624,197.50635,368.68945Zm-17.63916.04493c0,5.35449,2.87988,9.6748,7.64941,9.6748,4.85986,0,7.605-4.00488,7.605-9.6748,0-5.31055-2.70019-9.67481-7.69482-9.67481C182.29688,359.05957,179.86719,363.334,179.86719,368.73438Z"/><path class="cls-2" d="M219.916,373.41406c0,2.20508.04492,5.71485.04492,6.56934h-2.15967a36.17625,36.17625,0,0,1-.13525-3.915c-.94483,2.65527-3.23975,4.45508-7.24463,4.45508-3.23975,0-7.3794-1.25977-7.3794-8.14453V357.48438h2.20459v14.35449c0,3.28515,1.03516,6.47949,5.48975,6.47949,5.04,0,6.92969-2.835,6.92969-9.26953V357.48438h2.25Z"/><path class="cls-2" d="M227.29688,363.1543c0-1.9795,0-3.87012-.04493-5.66992h2.20459c.09034.71972.13526,3.6455.09034,4.27539.98974-2.29493,2.83447-4.81543,7.46972-4.81543,4.0044,0,7.55957,2.25,7.55957,8.46v14.5791h-2.25V365.76465c0-4.00488-1.665-6.61524-5.57959-6.61524-5.355,0-7.1997,4.45508-7.1997,9.35938V379.9834h-2.25Z"/><path class="cls-2" d="M269.3252,346.82031v26.6836c0,2.16015,0,4.22949.04492,6.47949h-2.15918c-.09082-.54-.13574-2.6543-.13574-3.7793-1.125,2.74414-3.64454,4.31934-7.55957,4.31934-5.84913,0-9.35889-4.76953-9.35889-11.51953,0-6.92969,3.82471-12.05957,9.94385-12.05957,4.5,0,6.2998,1.93554,6.97461,3.375v-13.499Zm-16.7837,22.09375c0,6.165,3.19483,9.49512,7.064,9.49512,5.94043,0,7.56055-4.0957,7.56055-10.21484,0-5.80469-1.39551-9.13477-7.15528-9.13477C255.55615,359.05957,252.5415,362.61426,252.5415,368.91406Z"/><path class="cls-2" d="M276.30078,357.48438c3.33008,11.60937,5.26465,18.26953,5.624,20.249h.0459c.35938-1.79981,2.60938-8.86426,6.11914-20.249h2.42969c4.18555,13.90429,5.44531,17.90917,5.85059,19.66406h.04492c.62988-2.47461,1.665-5.84961,5.80469-19.66406h2.38476l-7.10937,22.499h-2.47559c-2.42969-7.96485-5.35449-17.72949-5.80469-19.79883h-.04492c-.45019,2.20508-3.01465,10.25977-5.93945,19.79883h-2.7002l-6.61425-22.499Z"/><path class="cls-2" d="M324.35938,375.709a25.72706,25.72706,0,0,0,.31542,4.27442h-2.16015a14.80406,14.80406,0,0,1-.4043-3.46485c-.76562,1.665-2.74512,4.00489-7.37988,4.00489-5.21973,0-7.46973-3.375-7.46973-6.75,0-4.94922,3.82422-7.19922,10.57422-7.19922h4.27539V364.2793c0-2.25-.67578-5.26465-5.80566-5.26465-4.54395,0-5.21973,2.38476-5.71387,4.22949h-2.25c.26953-2.47461,1.79981-6.2998,8.00977-6.2998,5.1289,0,8.00879,2.16015,8.00879,7.11035Zm-2.20411-7.20019h-4.41015c-4.99512,0-8.09961,1.30566-8.09961,5.1748,0,2.835,2.02441,4.77051,5.1748,4.77051,6.43457,0,7.335-4.27539,7.335-9.13476Z"/><path class="cls-2" d="M328.18555,357.48438h4.18554v-7.01954h2.249v7.01954h5.35547v2.11523h-5.35547v14.624c0,2.52051.54,3.96,2.70019,3.96a8.51937,8.51937,0,0,0,2.33985-.26953v1.97949a7.88964,7.88964,0,0,1-2.79.40528c-2.87989,0-4.499-1.44043-4.499-5.04V359.59961h-4.18554Z"/><path class="cls-2" d="M344.791,369.00391c.04492,5.80468,2.96972,9.40527,7.28906,9.40527,4.23047,0,5.66992-2.38574,6.47949-4.23047h2.29492c-.94433,2.96973-3.3291,6.34473-8.86426,6.34473-6.83984,0-9.49414-5.89453-9.49414-11.60938,0-6.43457,3.19434-11.96972,9.76368-11.96972,6.93066,0,9.13476,5.98535,9.13476,10.21484,0,.62988,0,1.25977-.04492,1.84473Zm14.26367-1.9795c-.04492-4.45507-2.47461-7.96484-6.88477-7.96484-4.63476,0-6.749,3.24023-7.24414,7.96484Z"/><path class="cls-2" d="M366.88574,363.60449c0-3.78027-.04492-5.40039-.04492-6.12011h2.2041c.04492.71972.09082,2.16015.09082,5.04a8.52412,8.52412,0,0,1,7.8291-5.58007V359.374c-4.67968.31543-7.8291,3.55567-7.8291,8.91016V379.9834h-2.25Z"/><path class="cls-3" d="M256.33074,120.60967c-3.373.19858-6.20054-2.39091-8.49509-4.87118a19.39383,19.39383,0,0,1-3.31456-4.40343c-1.80443-3.63574-1.30166-8.07486.36513-11.77573s4.37477-6.81719,7.04438-9.8746l5.26091-6.02517-.248,2.073c-1.49343,6.19454,3.05669,12.43436,8.58449,15.60391s11.98293,4.22576,17.95671,6.44311a76.92311,76.92311,0,0,1,8.32219,3.78273c6.22308,3.1954,12.36319,6.813,17.14052,11.92326s8.0908,11.93138,7.67685,18.91464l1.81128-2.45687a45.00652,45.00652,0,0,1,13.50674,17.83256c2.75348,7.016,3.16831,15.0918.29887,22.06118-3.43908,8.3529-11.07929,14.25611-19.07153,18.46589a85.1555,85.1555,0,0,1-27.5487,8.93141c-12.91023,1.84857-26.05464.7034-38.99367-.93147-10.14812-1.28223-20.3678-2.89337-29.84329-6.74609s-18.25281-10.166-23.34545-19.03689-5.95345-20.49707-.648-29.24239a19.15715,19.15715,0,0,1,8.83219-7.91875l1.50559,2.67865a13.94805,13.94805,0,0,1-.86795-4.86384c.02426-4.67387,2.59457-9.06616,6.07528-12.1855s7.8078-5.12456,12.168-6.80816a111.54394,111.54394,0,0,1,26.04345-6.58452"/><path d="M256.33074,118.10967c-6.95957-.38018-11.72607-9.75907-9.82494-15.731,2.1011-6.60008,8.00029-11.8512,12.45348-16.9513l-4.26777-1.76777c-.67028,5.60228-.31055,10.0396,3.41258,14.60218,4.76142,5.835,11.96184,7.98409,18.91273,10.05986,15.37277,4.59082,37.46387,15.21968,37.10743,34.07857-.05078,2.68643,3.28618,3.12348,4.65868,1.2618l1.81128-2.45687-3.92644.506c7.17013,6.11121,13.239,13.88648,14.7137,23.4436,1.654,10.71925-3.32348,19.87406-11.74132,26.18732-16.02611,12.01936-36.93,15.22472-56.43807,14.08485-18.58226-1.08579-40.27313-2.88549-56.00066-13.83927-7.46515-5.19927-13.40922-12.71135-15.06135-21.81765-1.72121-9.487,1.58936-19.95739,10.7444-24.25249l-3.42047-.89688,1.5056,2.67865c1.37595,2.448,5.3997.81078,4.56937-1.9264-5.98811-19.73975,28.78095-25.61732,41.67265-27.36672,3.17382-.43069,1.82238-5.24906-1.3292-4.82139-16.021,2.174-52.37086,9.76274-45.16484,33.51731l4.56937-1.92639-1.5056-2.67866a2.56224,2.56224,0,0,0-3.42047-.89688c-14.09293,6.61173-16.45866,24.85232-10.48,37.84332,7.05242,15.32407,23.48359,23.33754,39.145,26.875,18.58612,4.19808,39.25276,6.5015,58.15837,3.588,15.70892-2.42085,34.16685-9.29033,43.90114-22.59564,12.00985-16.41566,2.97552-36.92415-10.88214-48.73524a2.55335,2.55335,0,0,0-3.92644.506l-1.81129,2.45686,4.65868,1.2618c.29878-15.80825-12.55093-25.96894-25.33855-32.62388-7.42536-3.86432-15.18462-5.6259-22.892-8.66244-4.2167-1.66128-8.34061-4.18876-10.49524-8.34344-1.57312-3.0334-1.0884-5.92238-.70692-9.11085.25621-2.14138-2.91627-3.31559-4.26776-1.76777-6.2449,7.15209-15.51923,15.35581-14.43041,25.84267.75018,7.22524,7.9808,14.97334,15.3374,15.37521,3.21524.17564,3.20543-4.8249,0-5Z"/><path d="M314.12425,142.40017c-2.26006,23.63179-33.36626,24.088-50.88688,24.31283-10.79539.13855-21.68466-.44168-32.10291-3.47851-9.51293-2.77293-21.51629-8.072-25.59549-17.86169-1.21967-2.92709-6.05971-1.64264-4.82139,1.3292,4.33976,10.415,14.84478,16.37947,25.03589,20.04693,12.56739,4.5226,26.16846,5.19895,39.39981,4.93176,20.53789-.41475,51.44918-2.912,53.971-29.28052.30615-3.20124-4.69586-3.1802-5,0Z"/><path class="cls-3" d="M205.42744,105.11236s-6.56558-7.78451,0-21.79711-2.918-21.73627-2.918-21.73627S182.99525,98.19525,205.42744,105.11236Z"/><path class="cls-3" d="M256.18463,61.579s-6.56558-7.78451,0-21.79711-2.918-21.73626-2.918-21.73626S233.75244,54.66188,256.18463,61.579Z"/><path class="cls-3" d="M308.49486,105.42625s-6.56559-7.78452,0-21.79711-2.918-21.73627-2.918-21.73627S286.06266,98.50914,308.49486,105.42625Z"/></svg>