<svg id="Layer_1" data-name="Layer 1" xmlns="http://www.w3.org/2000/svg" viewBox="0 0 517 517"><defs><style>.cls-1{fill:#93278f;}.cls-2{fill:#fff;}.cls-3{fill:#e3acce;}.cls-4{fill:#231f20;}.cls-5{fill:#330;}</style></defs><title>milk4</title><path class="cls-1" d="M258.45,516.49945c-142.5,0-258-115.5-258-258a257.961,257.961,0,0,1,75.6-182.4c100.8-100.8,264.1-100.8,364.9,0s100.8,264.1,0,364.9A256.49776,256.49776,0,0,1,258.45,516.49945Z"/><path class="cls-2" d="M205.84961,298.01074c0-6.165.04492-12.05957.18018-15.209h-.13526c-1.25976,4.22949-7.64941,19.7539-11.6543,29.69824H191.855c-3.01465-7.69434-9.62939-24.97363-11.06934-29.74316h-.08984c.22461,3.59961.31494,10.93457.31494,16.334V312.5h-2.43017V281.002h3.645c4.31982,10.79883,9.76464,24.92871,10.93457,28.4834H193.25c.72021-2.29492,7.02-17.999,11.42969-28.4834h3.59961V312.5h-2.42969Z"/><path class="cls-2" d="M216.69531,301.52051c.04492,5.80469,2.96973,9.40527,7.28955,9.40527,4.23,0,5.66993-2.38574,6.4795-4.23047h2.29492c-.94483,2.96973-3.32959,6.34473-8.86426,6.34473-6.83984,0-9.49463-5.89453-9.49463-11.60938,0-6.43457,3.19482-11.96972,9.76416-11.96972,6.93018,0,9.13477,5.98535,9.13477,10.21484,0,.62988,0,1.25977-.04493,1.84473Zm14.26416-1.97949c-.04492-4.45508-2.47509-7.96485-6.88476-7.96485-4.63477,0-6.74951,3.24024-7.24463,7.96485Z"/><path class="cls-2" d="M235.7749,290.001H239.96v-7.01953h2.24951V290.001h5.355v2.11523h-5.355v14.624c0,2.52051.54,3.96,2.7002,3.96a8.52144,8.52144,0,0,0,2.33984-.26954v1.9795a7.89126,7.89126,0,0,1-2.79.40527c-2.87988,0-4.49951-1.44043-4.49951-5.04V292.11621H235.7749Z"/><path class="cls-2" d="M254.27,279.33691v14.44434a7.84787,7.84787,0,0,1,7.42432-4.32031c3.19433,0,7.60449,1.62011,7.60449,8.72949V312.5h-2.25V298.64063c0-4.45508-2.02442-6.97461-5.75977-6.97461-4.4541,0-7.019,2.74511-7.019,8.27929V312.5h-2.25V279.33691Z"/><path class="cls-2" d="M291.84375,308.22559A25.7578,25.7578,0,0,0,292.1582,312.5H289.999a14.72664,14.72664,0,0,1-.40527-3.46484c-.76465,1.665-2.74414,4.00488-7.37891,4.00488-5.2207,0-7.4707-3.375-7.4707-6.75,0-4.94922,3.8252-7.19922,10.5752-7.19922h4.27441V296.7959c0-2.25-.6748-5.26465-5.80469-5.26465-4.54492,0-5.21972,2.38477-5.71484,4.22949h-2.25c.27051-2.47461,1.80078-6.2998,8.00976-6.2998,5.12989,0,8.00977,2.16015,8.00977,7.11035Zm-2.20508-7.2002h-4.41015c-4.99414,0-8.09961,1.30566-8.09961,5.17481,0,2.835,2.02539,4.7705,5.17578,4.7705,6.43457,0,7.334-4.27539,7.334-9.13476Z"/><path class="cls-2" d="M299.26953,295.6709c0-1.97949,0-3.87012-.04492-5.66992h2.20508c.08984.71972.13476,3.6455.08984,4.27539.99024-2.29492,2.834-4.81543,7.46973-4.81543,4.00488,0,7.55957,2.25,7.55957,8.46V312.5h-2.25V298.28125c0-4.00488-1.665-6.61523-5.58008-6.61523-5.35449,0-7.19922,4.45507-7.19922,9.35937V312.5h-2.25Z"/><path class="cls-2" d="M324.42383,301.52051c.04492,5.80469,2.96972,9.40527,7.28906,9.40527,4.23047,0,5.66992-2.38574,6.48047-4.23047h2.29492c-.94531,2.96973-3.33008,6.34473-8.86523,6.34473-6.83985,0-9.49414-5.89453-9.49414-11.60938,0-6.43457,3.19531-11.96972,9.76367-11.96972,6.93066,0,9.13476,5.98535,9.13476,10.21484,0,.62988,0,1.25977-.04492,1.84473ZM338.6875,299.541c-.04492-4.45508-2.47461-7.96485-6.88477-7.96485-4.63476,0-6.749,3.24024-7.24414,7.96485Z"/><path class="cls-2" d="M182.45215,363.16992V375.5h-2.25V349.53613c0-1.84472,0-3.82519-.04492-5.53515h2.20459c.09033.85547.09033,2.20507.09033,4.0498a8.266,8.266,0,0,1,7.91943-4.58984c5.31006,0,8.99951,4.45508,8.99951,11.20508,0,8.09961-4.31982,12.374-9.76464,12.374C185.647,367.04,183.57715,365.28516,182.45215,363.16992Zm14.53418-8.41406c0-5.21973-2.52-9.13477-6.97461-9.13477-5.44483,0-7.69483,3.41993-7.69483,9.54,0,6.0293,1.75489,9.76465,7.37989,9.76465C194.37646,364.92578,196.98633,360.96582,196.98633,354.75586Z"/><path class="cls-2" d="M223.49072,355.20605c0,6.25391-3.46484,11.834-10.16943,11.834-6.07471,0-9.85449-4.99414-9.85449-11.78906,0-6.43457,3.55468-11.79,10.07959-11.79C219.53076,343.46094,223.49072,348.14063,223.49072,355.20605Zm-17.63916.04493c0,5.35449,2.87989,9.6748,7.64942,9.6748,4.85986,0,7.605-4.00488,7.605-9.6748,0-5.31055-2.7002-9.67481-7.69483-9.67481C208.28125,345.57617,205.85156,349.85059,205.85156,355.251Z"/><path class="cls-2" d="M229.07129,366.5V333.33691h2.25V366.5Z"/><path class="cls-2" d="M238.70068,366.5V333.33691h2.25V366.5Z"/><path class="cls-2" d="M265.16016,359.93066c0,2.20508.04492,5.71485.04492,6.56934h-2.16016a36.21849,36.21849,0,0,1-.13476-3.915c-.94532,2.65527-3.24024,4.45508-7.24512,4.45508-3.23975,0-7.3794-1.25977-7.3794-8.14453V344.001h2.20459v14.35449c0,3.28516,1.03516,6.47949,5.48975,6.47949,5.03955,0,6.93018-2.835,6.93018-9.26953V344.001h2.25Z"/><path class="cls-2" d="M269.70508,344.001h4.18555v-7.01953h2.249V344.001h5.35449v2.11523h-5.35449v14.624c0,2.52051.54,3.96,2.70019,3.96a8.52362,8.52362,0,0,0,2.33985-.26954v1.9795a7.893,7.893,0,0,1-2.79.40527c-2.87988,0-4.499-1.44043-4.499-5.04V346.11621h-4.18555Z"/><path class="cls-2" d="M286.084,333.33691h2.25v4.36426h-2.25Zm0,10.66407h2.25V366.5h-2.25Z"/><path class="cls-2" d="M313.9375,355.20605c0,6.25391-3.46484,11.834-10.16895,11.834-6.07519,0-9.85449-4.99414-9.85449-11.78906,0-6.43457,3.55469-11.79,10.08008-11.79C309.97852,343.46094,313.9375,348.14063,313.9375,355.20605Zm-17.63867.04493c0,5.35449,2.87988,9.6748,7.64941,9.6748,4.86035,0,7.60449-4.00488,7.60449-9.6748,0-5.31055-2.69921-9.67481-7.69433-9.67481C298.72852,345.57617,296.29883,349.85059,296.29883,355.251Z"/><path class="cls-2" d="M319.51855,349.6709c0-1.97949,0-3.87012-.04492-5.66992h2.2041c.09082.71972.13575,3.6455.09082,4.27539.98926-2.29492,2.835-4.81543,7.46973-4.81543,4.00391,0,7.55957,2.25,7.55957,8.46V366.5h-2.25V352.28125c0-4.00488-1.665-6.61523-5.5791-6.61523-5.35547,0-7.2002,4.45507-7.2002,9.35937V366.5h-2.25Z"/><path class="cls-3" d="M268.66081,184.57826a63.95723,63.95723,0,0,1,24.19147-12.042,17.93683,17.93683,0,0,1,8.15182-.51644c3.57028.79369,6.81257,3.409,9.51018,6.684a76.26778,76.26778,0,0,1,7.10826,11.11167l.35177-.11861c-2.69372,2.01142-4.59648,5.86324-4.94591,10.01216-.17431,2.06967.01372,4.19263-.32164,6.22538a10.00936,10.00936,0,0,1-2.3554,5.11072,2.37577,2.37577,0,0,1-1.65516.94132c-1.20662-.03288-1.96837-1.72191-2.49663-3.19613l-1.85062-5.16452a1.3796,1.3796,0,0,0-.483-.77607.77957.77957,0,0,0-.63723.04909l-2.45067.91328-1.38432,8.58931a4.041,4.041,0,0,1-1.06649,2.61475,1.44122,1.44122,0,0,1-1.93243-.54585,7.1173,7.1173,0,0,1-1.04232-2.45553,55.8903,55.8903,0,0,1-1.64229-8.40869l-3.16387-.4a25.61158,25.61158,0,0,1-3.12218,9.882,2.49538,2.49538,0,0,1-.878,1.0277c-1.15979.584-2.075-1.45286-2.28624-3.10862a26.71917,26.71917,0,0,1-.14732-5.23612,4.43586,4.43586,0,0,0-.17152-2.1441,2.20512,2.20512,0,0,0-.92171-.91629c-2.41654-1.472-5.26411-1.68161-7.38643-3.83374a17.66631,17.66631,0,0,1-2.92927-4.77842l-5.02387-10.48494"/><path class="cls-3" d="M268.97626,185.11793c7.34778-5.6264,15.72222-10.23977,24.85314-12.16112,12.20236-2.56765,18.10151,8.03427,23.25347,17.17414a.63232.63232,0,0,0,.70582.28722l.35177-.1186-.60809-1.04462a15.44847,15.44847,0,0,0-5.129,10.4541c-.13265,1.29665-.04074,2.60768-.12742,3.90634-.07025,1.05247-.69839,6.59164-2.36656,6.98782-3.38051.80284-4.35387-6.22115-5.50376-8.06891a.62144.62144,0,0,0-.53966-.30955,11.94251,11.94251,0,0,0-3.25405.98469.62751.62751,0,0,0-.43652.43653c-.19813,1.22933-.40212,7.81528-1.38433,8.58931l-2.83589-.38663-.42807-1.64288c-.7404-1.62227-.9883-5.06658-1.19189-6.59966a.654.654,0,0,0-.625-.625l-3.16387-.4a.62106.62106,0,0,0-.60267.45885c-.19974,1.40139-.9183,7.75606-2.2848,8.25792-3.80461,1.39727-2.87324-4.29771-2.92131-5.52684-.07074-1.80874.05837-2.4-1.40278-3.60006a11.71147,11.71147,0,0,0-2.66669-1.2329c-3.30188-1.42442-5.01782-2.68244-6.78688-5.84678-2.11493-3.783-3.78895-7.88456-5.66178-11.7932-.34746-.72516-1.42562-.0918-1.07934.6309,2.4182,5.04683,4.50791,13.03372,9.2936,16.41661,3.45413,2.44163,6.86088,2.6517,7.01328,8.04943.04085,1.44717-.02569,4.24,1.15837,5.4483,2.53409,2.58606,4.02989-1.47827,4.87379-3.6238.8531-2.16894,1.237-8.12965,3.85617-4.73217,1.56767,2.03355.65974,6.3563,2.20986,8.72932,1.35907,2.08055,2.9014,1.89442,4.10987-.14185.74751-1.25956.6581-3.47238.89511-4.943l.55373-3.43572q.58556-2.90066,2.16246-.96032c2.44144,1.13494,1.79965,4.75586,3.48519,6.635,2.2735,2.53468,4.44863.17858,5.63592-2.29446a15.4638,15.4638,0,0,0,1.16549-6.2408c.22852-4.9.91859-9.29629,4.86328-12.69675a.6294.6294,0,0,0-.60809-1.04462c.26109-.088-6.62494-10.65721-7.88865-12.02728-2.8043-3.04034-6.30835-5.54967-10.54092-5.912-10.69637-.91561-22.96623,6.7065-31.03323,12.88363-.63008.48247-.00816,1.56868.6309,1.07934Z"/><path class="cls-4" d="M267.27309,187.6778c3.16821,6.30636,5.96823,13.62145,12.87057,16.6688,1.59572.7045,2.19081.38964,2.5832,1.86093.37147,1.39284-.30094,3.4147-.06639,4.91311.22485,1.43638.819,3.82621,2.40728,4.42538,4.20732,1.58715,5.0466-5.9724,5.73612-8.12813.5726-1.79019.62845-1.91061,1.32181-.32675.49218,1.1243.00334,3.58223.371,4.97638.48649,1.84469,1.53793,4.28923,3.7144,4.57775,5.18269.68706,3.699-6.64164,4.63455-9.12031,1.51247-4.007,3.94784,3.79774,5.10928,5.06971,1.035,1.13348,2.37737,1.92959,3.95247,1.40908,1.87773-.62051,2.27741-2.5367,2.58809-4.2512.87711-4.8405.53608-10.44464,3.49161-14.6742,1.13913-1.63016,2.74558-2.2865,2.42348-4.39388-.35689-2.33492-4.4716-6.11128-5.9229-7.83967-5.30831-6.3218-9.42337-9.35505-17.865-8.07921-9.79025,1.47967-17.75371,6.62609-26.33639,11.28687-1.41432.768-.15379,2.9274,1.26179,2.15868,6.43206-3.49289,13.15426-8.21019,20.28694-10.01769,3.03406-.76886,6.97182-1.7315,10.08463-1.40983,4.64746.48024,7.37874,3.81412,10.19324,7.10593,1.415,1.65495,3.749,3.78,4.5526,5.67751.89257,2.10752,1.31288.48679.10767,2.99655-.937,1.95128-2.25814,3.51335-2.92143,5.66261a56.05055,56.05055,0,0,0-1.5752,9.31173l-.37943,2.66126q-3.01671.50673-3.53112-1.96436c-.90428-1.1613-1.353-3.18965-1.91847-4.52264a1.2086,1.2086,0,0,0-1.07934-.6191c-1.74323.10939-4.08678.231-4.9671,2.02079-.44711.909-.01867,2.19409.01257,3.10117a12.95772,12.95772,0,0,1-.30314,3.73325q-4.70886.78555-3.55376-3.92252c-.0455-2.13238.62491-2.91051-1.12966-4.05688-.93754-.61256-3.4057-.999-4.3734-.15864-1.85165,1.608.27622,7.72283-2.27211,8.45206-2.5737.7365-1.29968-7.67606-1.72211-8.31626a4.499,4.499,0,0,0-1.124-.957c-1.61558-1.35275-4.40246-1.56535-6.21328-3.10817-4.00006-3.408-5.98816-8.88234-8.29038-13.465-.72237-1.43788-2.87974-.17347-2.15868,1.2618Z"/><path class="cls-2" d="M183.4783,246.74224a12.54329,12.54329,0,0,1-5.89025-.03875q.405-5.88192.34656-11.784a103.87837,103.87837,0,0,0-3.60177-27.49689,33.09078,33.09078,0,0,0-1.9488-5.37378,29.551,29.551,0,0,0-3.25563-5.0993,50.63079,50.63079,0,0,0-16.94829-14.11141l.41517.1418c-5.99972-4.62759-8.61425-12.33575-11.20019-19.5012-3.11236-8.62414-6.64861-17.14892-11.51846-24.89817-3.15555-5.02134-7.36379-10.01743-13.14284-11.14814-7.8768-1.54115-16.02926,4.622-23.68257,2.189a4.904,4.904,0,0,1-1.54406-.74816A4.46447,4.46447,0,0,1,90.01,126.14893c-.611-3.17318.92388-6.323,2.41216-9.18456l5.26121-10.11585-.36127.727A12.05586,12.05586,0,0,0,91.0113,94.7773a14.22617,14.22617,0,0,1-3.10394-1.635,2.73349,2.73349,0,0,1-.945-3.14147c.61836-1.2175,2.24893-1.37389,3.60311-1.35944q8.08066.08624,16.14437.704c2.888-3.39217,6.31258-6.51086,10.50536-7.95047s9.27636-.88273,12.39657,2.29248c1.20126,1.22243,2.08517,2.782,3.49188,3.75526a11.0988,11.0988,0,0,0,3.93552,1.44173l9.01208,2.05311a7.65016,7.65016,0,0,1,3.283,1.3128,19.98256,19.98256,0,0,1,2.23454,2.89534c2.41794,2.91337,6.73205,3.03712,10.49317,2.924q28.90621-.86931,57.81107-1.78431l-.19818-.50327a160.95423,160.95423,0,0,0,18.21268,1.51341c7.35632.19193,14.71536-.121,22.06761-.43386l17.91251-.76223c11.23085-.47791,22.46648-.95613,33.66352-1.95746,3.45491-.309,6.96451-.66521,10.368.00969s6.75423,2.5571,8.33712,5.6757l.5425-.19856c1.955,1.21525,2.81673,3.5913,3.54459,5.791a41.361,41.361,0,0,1,1.97173,7.50756,41.44435,41.44435,0,0,1,.06068,7.65693l-2.16221,40.14962a82.13578,82.13578,0,0,0,.00627,13.34943l.385.10455c.153.07524.04624-.29107-.0904-.18857s-.0702.31913.00933.47116c3.29478,6.29844,8.05664,11.89912,10.06937,18.72691,1.346,4.56606,1.37345,9.40736,1.39019,14.17167l.03091,8.79981a44.62174,44.62174,0,0,0-5.58923-6.072q.75057,5.19235,1.20958,10.42207a21.01582,21.01582,0,0,1-.02154,5.43859,22.18413,22.18413,0,0,1-1.92484,5.364l-7.197,15.66848-.063.18276c-1.56833,1.22332-3.79456.94474-5.71792.46445a2.51969,2.51969,0,0,1-1.51355-.79928,2.67827,2.67827,0,0,1-.10428-2.18322l3.05918-12.65967c1.04934-4.34243,2.10561-8.74541,2.00906-13.21437s-1.48266-9.08786-4.67378-12.18345c-1.3236,1.94332-1.5954,4.40423-2.42662,6.60874-.91164,2.4178-2.49279,4.51226-3.648,6.82131-1.8602,3.7182-2.573,7.89338-3.7207,11.89506a55.3448,55.3448,0,0,1-6.59644,14.59131,7.10041,7.10041,0,0,1-1.594,1.91033c-1.57494,1.18913-3.77619.95683-5.67616.44626L307.17639,228.51c1.17327-4.44734,2.33721-9.22972.7937-13.56005l.00965-.50169c2.07324-.10052,3.69433-1.93829,4.4484-3.89242s.88983-4.09286,1.46118-6.10928a14.53449,14.53449,0,0,1,3.37288-5.96368c.43645-.46444.94141-1.00219.85975-1.63734a2.01106,2.01106,0,0,0-.54443-.982c-5.30806-6.31666-12.21278-12.11766-20.39678-12.64467-5.40926-.34834-10.66431,1.65826-15.72045,3.63183l-19.04214,7.43278-.00587-.44463c-3.438,2.16352-7.50815,3.05837-11.52966,3.54395a125.17751,125.17751,0,0,1-20.71878.25483,225.60387,225.60387,0,0,1-28.70364-2.65021l-.22875-.15474c-1.65794,8.02-3.2821,16.56495-.4032,24.22422.62161,1.65378,1.4451,3.23316,1.92388,4.93477,1.35231,4.80622-.18021,9.90487-1.70182,14.65912l-2.59458,8.1067-.10012.04722a8.19023,8.19023,0,0,1-5.56076-.50711.997.997,0,0,1-.48571-.38252,1.09942,1.09942,0,0,1,.01893-.80721,46.79169,46.79169,0,0,0,1.03057-20.75538c-.627-3.54032-1.66112-6.99352-2.4061-10.51042-.80818-3.81528-1.27391-7.69489-1.73862-11.56824l-.32922.49811a3.5606,3.5606,0,0,0-1.56182,2.41252c-3.822,13.15873-1.28124,27.4319-4.2073,40.82316"/><path class="cls-2" d="M183.146,245.53689c-5.99506,1.03758-3.96576-4.52343-3.95474-8.652.01-3.74834-.11062-7.49929-.41593-11.23569a90.06469,90.06469,0,0,0-3.64584-19.93155c-3.39249-10.66279-12.69733-18.83414-22.31847-23.95883l-.96319,2.28468.41516.1418a1.25866,1.25866,0,0,0,1.21619-2.08923c-7.72914-6.45666-9.89332-16.84653-13.4763-25.81491-3.336-8.35017-7.16887-17.2759-13.27027-24.01268-5.08192-5.61113-11.2369-7.18165-18.52034-5.55554-2.003.4472-3.96953,1.04235-5.97014,1.49939a16.58565,16.58565,0,0,1-4.83838.72851c-1.87563-.17473-5.703-2.49822-6.28062-4.37532-.73533-2.38961,2.16592-6.55392,3.2552-8.65622q2.18565-4.21829,4.38434-8.42987l-2.15868-1.2618-.36126.727,2.32933.6309a13.53187,13.53187,0,0,0-4.62913-12.3572c-.9702-.80262-2.54832-1.18845-3.37454-2.00391l-1.06045-.50456q-.13208-3.68067,2.85311-2.7927c3.33757-.5685,7.3878.222,10.76558.43005,3.13891.19329,3.45408.68243,5.4499-1.23652,2.9097-2.79765,5.62478-5.58974,9.68426-6.71288,5.28208-1.46138,8.69356.44635,12.13595,4.14463a10.4899,10.4899,0,0,0,4.93841,3.213c3.3695,1.06406,7.05453,1.21845,10.38376,2.38744,3.00442,1.05494,3.93268,3.3047,6.20975,5.04886,4.72834,3.62176,12.7054,2.05089,18.10734,1.88726q24.919-.75483,49.837-1.54363a1.26017,1.26017,0,0,0,1.20535-1.5823l-.19818-.50327-1.53765,1.53765c17.51317,2.36148,34.96676,1.36445,52.55427.61605,9.25719-.39393,18.518-.74708,27.76615-1.32381,8.66415-.54031,23.96078-4.74781,29.494,4.17856a1.269,1.269,0,0,0,1.41163.57445c2.38033-.87122,4.66758,14.56437,4.684,15.716.09069,6.34842-.62914,12.79138-.97053,19.13058-.67733,12.57722-2.42758,25.63311-1.33224,38.204a1.2954,1.2954,0,0,0,.9177,1.20534l.385.10456a1.27842,1.27842,0,0,0,1.41164-.57445l.06342-.10451a1.26469,1.26469,0,0,0-.44844-1.71024l-.15382-.08406a1.26216,1.26216,0,0,0-1.8809,1.07934c.04467,2.2575,2.376,4.94276,3.51519,6.7739a70.44605,70.44605,0,0,1,5.52508,9.85113c3.33166,7.96025,2.42984,17.09139,2.45953,25.54452l2.13388-.88388a55.27008,55.27008,0,0,0-5.58923-6.072,1.26175,1.26175,0,0,0-2.08923,1.21618,92.6708,92.6708,0,0,1,1.29935,11.90682c.03179,4.50122-1.67,7.8319-3.50947,11.83654-1.59931,3.48184-3.208,6.95955-4.798,10.44565q-.49486,1.00566-.92568,2.03954l-4.24323-.22584c-1.69415-1.08.00581-4.551.34778-5.96616,2.69431-11.14972,7.878-25.06607-1.01957-34.75236a1.26045,1.26045,0,0,0-1.96322.253c-1.66056,2.98024-2.16088,6.37-3.77185,9.38932a51.0168,51.0168,0,0,0-4.046,8.4728c-1.9273,6.01458-4.86316,25.87746-14.43244,23.83643l.873,1.53764c1.79029-6.78618,3.62827-13.56178,5.37132-20.36023a46.26025,46.26025,0,0,0,1.4603-7.15621,43.58172,43.58172,0,0,0-.48037-6.63764,9.79534,9.79534,0,0,0,2.85131-1.67635c1.34292-1.587,1.76632-3.54545,2.21963-5.51524.84-3.65,2.19054-5.71461,4.02557-8.86742a3.72538,3.72538,0,0,0,.86912-2.4762c-.3292-3.21117-6.50916-7.48523-8.84946-9.2274a25.70073,25.70073,0,0,0-11.77766-5.15756c-6.12028-.82035-11.95806,1.349-17.57218,3.517-6.35612,2.45463-12.6949,4.95525-19.04214,7.43278l1.5823,1.20535-.00587-.44463a1.26267,1.26267,0,0,0-1.8809-1.07934c-8.76607,4.946-19.99522,4.1154-29.73274,3.712-4.47178-.18524-8.94527-.40517-13.40949-.72806-2.55712-.185-5.11261-.40034-7.66145-.67829-2.32311-.25334-7.09074.05772-9.11535-1.31185a1.25762,1.25762,0,0,0-1.83625.747c-1.439,7.03367-2.91149,14.40565-1.37435,21.55616,1.00812,4.68958,3.6373,8.41253,3.30739,13.43192-.28879,4.39382-2.082,8.72949-3.41147,12.88338l-.77838,2.432q-3.79089,2.63825-3.79462-1.0524c-.15189-1.229.77293-3.88436.938-5.15061a47.3317,47.3317,0,0,0,.174-10.78944c-.85309-8.59468-3.58222-16.92527-4.62279-25.53757a1.26193,1.26193,0,0,0-2.32934-.63089c-3.23809,4.8992-3.76749,10.78453-4.17753,16.70113-.63365,9.14319-.23294,18.29606-2.04682,27.33125-.31539,1.571,2.09378,2.24323,2.4107.6646,1.50156-7.47954,1.59828-15.02891,1.87154-22.62659.2515-6.9927.15984-14.846,4.10079-20.8086l-2.32934-.6309c1.30241,10.77947,5.38837,21.62078,4.79616,32.51551a74.45854,74.45854,0,0,1-1.41674,9.14187c-.143.80135-.56754,1.82247-.11354,2.61477.98688,1.72227,4.34327,1.93079,6.05638,1.70569,2.98482-.39221,2.80061-2.492,3.67218-5.21523,1.50092-4.68956,3.39928-9.49238,3.53156-14.4716.14015-5.27535-2.89358-9.60072-3.65411-14.715-.93132-6.26275.34724-12.55657,1.601-18.6849l-1.83625.747c2.80991,1.90079,9.923,1.62923,13.24677,1.938,6.05247.56233,12.12905.8677,18.20132,1.12148,10.1985.42624,21.79513,1.1372,30.99453-4.05335l-1.88089-1.07934.00587.44463a1.25932,1.25932,0,0,0,1.5823,1.20535c6.34727-2.47755,12.68686-4.97587,19.04214-7.43278,6.77573-2.61945,13.77732-5.057,20.949-2.322a28.748,28.748,0,0,1,8.51762,5.38784,29.46069,29.46069,0,0,1,3.36965,3.2903l1.05085,1.15812q1.61912,1.86476-.19669,3.07938c-.62883,1.45271-1.77166,2.61395-2.35771,4.15193-1.32717,3.4829-.74291,9.42038-5.4779,10.44138a1.26644,1.26644,0,0,0-.9177,1.20535c-.03572,1.857.74789,3.61242.72688,5.52251-.03744,3.40384-1.1152,6.7919-1.97389,10.05786q-2.43376,9.25668-4.883,18.50931a1.264,1.264,0,0,0,.873,1.53764c8.53326,1.82007,11.43867-6.79916,13.99357-13.58387,2.04112-5.42036,2.68482-11.34629,5.37309-16.51552a69.37359,69.37359,0,0,0,3.28025-6.13932c.88672-2.22086,1.24433-4.48684,2.42662-6.60874l-1.96322.253c7.94238,8.6464,2.99213,21.49647.59516,31.41573-1.272,5.26406-3.16572,10.81671,4.5042,10.397,2.77057-.15161,3.62037-1.10066,4.66779-3.41388,2.107-4.65341,4.32412-9.259,6.39733-13.92754,3.25441-7.32841,1.94626-14.43723.86281-22.18787l-2.08923,1.21619a55.27018,55.27018,0,0,1,5.58922,6.072c.69839.88157,2.1374.11722,2.13389-.88388-.02684-7.63921.72406-15.87848-1.46575-23.30378a40.97819,40.97819,0,0,0-4.25519-9.15752c-1.4422-2.4395-5.72311-6.89076-5.77886-9.70825l-1.8809,1.07934.15382.08406-.44844-1.71024a2.21376,2.21376,0,0,0,1.71531-1.26945q-.12131-1.90416-.11587-3.81217c-.00858-2.22939.11176-4.45743.22492-6.68305.243-4.7797.51363-9.55816.771-14.33711.48043-8.92116,1.03025-17.84177,1.44147-26.76641.29529-6.40861-.15454-14.10644-3.865-19.65645-.97708-1.46147-2.422-1.72334-3.29424-2.50435.27328.2447-.8158-1.50065-1.076-1.85095a9.82388,9.82388,0,0,0-3.3023-2.29513c-6.70724-3.37242-15.34638-1.255-22.44666-.75865-9.23827.64578-18.49255,1.02159-27.74416,1.4154-18.64779.79378-37.29348,2.14753-55.87022-.35736-.821-.11071-1.932.53632-1.53765,1.53765l.19818.50327,1.20535-1.5823c-18.60507.58845-37.21015,1.21358-55.81754,1.7243-1.61854.04443-3.25938.1554-4.87979.06054-4.10977-.24058-5.1081-1.67921-7.93908-4.31278a9.87985,9.87985,0,0,0-4.853-2.77525c-3.876-1.053-8.35753-1.19916-11.875-3.19313-2.81167-1.59388-4.23617-4.55988-7.27025-5.96156-4.80778-2.22109-10.27478-1.06206-14.59935,1.68537-2.61265,1.65983-4.72781,4.98934-7.7203,5.70187-3.45408.82244-8.95592-.51485-12.55761-.54762-3.07239-.02795-8.48408.58322-6.42218,5.13983.85763,1.89528,2.77307,2.36106,4.44153,3.2997a11.20363,11.20363,0,0,1,5.69166,11.71884c-.16148,1.23731,1.80192,1.69221,2.32934.6309l.36127-.727c.71166-1.43205-1.41242-2.69665-2.15868-1.2618-2.578,4.95687-12.4742,18.11311-5.9807,23.53956,7.1017,5.93471,18.64128-3.0925,26.48438-.93891,11.43319,3.13938,17.33828,20.017,21.15652,29.83562,3.45979,8.89684,5.81575,18.83487,13.44722,25.20994l1.21618-2.08924-.41517-.14179a1.25552,1.25552,0,0,0-.96319,2.28468c10.01018,5.33193,18.7615,13.553,21.8223,24.73111,3.3835,12.35657,3.75851,25.33565,2.96652,38.0549a1.25333,1.25333,0,0,0,.9177,1.20535,17.72721,17.72721,0,0,0,6.55485.03875c1.58225-.27384.9115-2.68348-.6646-2.4107Z"/><path class="cls-4" d="M186.55571,242.74649c1.16865-8.6225.377-17.27727.99746-25.92724a36.90487,36.90487,0,0,1,3.4048-13.95535c1.33109-2.66084,3.01461-5.75632,6.093-6.54606,2.39383-.61412,5.21561-.17458,7.67767-.21433,2.41064-.03892,2.418-3.789,0-3.75-4.06515.06563-8.97-.70084-12.36208,2.0809-3.72732,3.05666-5.95461,8.6339-7.15661,13.17364-2.94935,11.13924-.73785,22.83477-2.27032,34.14154-.31984,2.35986,3.29291,3.38106,3.61605.9969Z"/><path class="cls-4" d="M86.25907,96.15038c7.83775,2.22059,12.03665,9.54906,7.54288,16.9527-2.60793,4.29665-7.08466,8.793-5.58844,14.30472,1.28384,4.72932,6.82881,6.469,11.2446,6.30788,7.99464-.29174,14.08478-6.96147,21.788-1.29626,9.96868,7.3313,12.78783,21.01,17.6106,31.707,1.35022,2.99482,2.95882,5.83215,4.17361,8.88937a37.00841,37.00841,0,0,0,3.52537,7.61169c3.09978,4.48223,9.09528,7.03345,13.41851,10.17748,7.325,5.327,10.33906,12.16056,12.95747,20.63695,3.085,9.98679,4.52628,20.34029,2.96447,30.73766-.35462,2.3608,3.25821,3.37907,3.616.9969a68.17909,68.17909,0,0,0-.6722-23.83254c-1.49741-7.40575-3.61758-16.09855-7.685-22.56655-3.11151-4.94791-7.97188-8.39345-12.74565-11.59485-3.04074-2.03919-6.89094-3.92511-9.00679-7.01114-2.04175-2.978-2.79277-6.74-4.34482-9.97356-5.29914-11.04028-8.59156-24.32214-16.49029-33.88434-3.47961-4.21241-8.6683-8.61076-14.45929-8.34969-3.5544.16024-6.65875,1.92633-9.94858,3.04377a16.19913,16.19913,0,0,1-5.41922.98877c-3.75181-.03277-8.05016-2.83363-6.61327-7.03444,2.34711-6.86186,8.79764-10.83039,7.11639-18.91969-1.261-6.0674-6.27794-9.8902-11.98749-11.50783-2.32591-.659-3.31875,2.95822-.9969,3.61605Z"/><path class="cls-4" d="M203.8063,195.93307c16.44374,4.68725,35.49011,7.60163,52.33062,3.28088,8.26323-2.12008,15.8978-6.02383,23.79638-9.14759,8.29631-3.28106,18.19941-6.87389,26.59009-2.07586,2.09836,1.1999,3.98963-2.03893,1.89269-3.238-14.40323-8.23618-31.71053,3.10523-45.214,8.23174-18.69531,7.09753-39.54452,4.70719-58.39885-.66719-2.325-.66273-3.31752,2.95456-.9969,3.616Z"/><path class="cls-4" d="M306.891,188.46881c1.43,1.43807,1.87821,3.13868,3.11895,4.618.4083.48682,3.46084,2.67983,3.57333,2.7681a65.38933,65.38933,0,0,1,7.80182,6.857c5.82346,6.302,6.25526,13.685,5.54682,21.90287a63.52035,63.52035,0,0,1-2.24538,12.10892c-.72386,2.51584-3.46934,6.35382-2.90862,8.91142,1.18072,5.38562,7.12594,2.6949,10.55814,3.12658a1.87094,1.87094,0,0,0,1.808-1.37655c1.75187-8.04226,7.928-13.95333,8.95657-22.317.53425-4.34413-.508-8.38861-.95454-12.68192-.4861-4.674-.49264-9.38339-.91264-14.06268-.32649-3.63754-.704-7.11336-2.47732-10.361a45.16459,45.16459,0,0,0-6.44728-8.35391c-3.16609-3.50236-6.7094-6.92136-7.68357-11.73143-.92267-4.5558.02216-9.44058.28914-14.02094.14053-2.41081-3.61-2.40269-3.75,0-.42759,7.33578-1.82392,14.87731,2.55252,21.35082,4.70742,6.9631,12.32291,11.67454,13.47857,20.55316.63718,4.89531.634,9.83616,1.036,14.751.33979,4.15368,1.48779,8.3293,1.30368,12.49091-.39033,8.82321-7.18367,15.01483-9.00722,23.38613l1.808-1.37655c-1.86555-.23464-5.88309,1.12913-6.27311-.9105-.12953-.67737,1.51739-4.04385,1.74517-4.7533.52114-1.62315.96807-3.27161,1.35251-4.93242a61.70876,61.70876,0,0,0,1.45577-21.48821c-.69026-5.254-3.44477-9.63163-7.08442-13.38567a90.31679,90.31679,0,0,0-7.297-6.33837c-2.66631-2.22075-4.29426-4.97458-6.69228-7.38609-1.704-1.71364-4.356.93769-2.65165,2.65165Z"/><path class="cls-4" d="M324.39631,154.47955c2.4059-6.24789,4.794-12.55689,5.54495-19.2569.80012-7.13866.16332-14.50551.00091-21.6701-.05462-2.40935-3.80482-2.41807-3.75,0,.14945,6.59272.67518,13.31241.1659,19.89558-.53992,6.97922-3.08552,13.5623-5.5778,20.03452-.86787,2.25376,2.75637,3.22937,3.616.9969Z"/><path class="cls-4" d="M325.63326,136.23139c1.64042,6.22213.505,13.38123.30211,19.75888l-.62127,19.53345c-.07677,2.41381,3.67331,2.41118,3.75,0l.6834-21.48679c.19685-6.18947,1.09884-12.74489-.4982-18.80244-.61468-2.33149-4.23286-1.34271-3.616.9969Z"/><path class="cls-4" d="M338.12492,206.31336a45.582,45.582,0,0,0,6.25031,11.55237c1.02912,1.37549,3.545,1.08595,3.494-.94634-.19175-7.63821.27537-15.67733-1.18046-23.21012-1.39914-7.2395-6.45566-12.10683-9.52028-18.5447-3.83734-8.06113-.74672-19.43332-.223-28.05388q.813-13.381.94966-26.78719c.02855-2.41384-3.72143-2.41537-3.75,0-.10568,8.936-.4061,17.86678-.94966,26.78719-.4882,8.01174-2.77151,17.27573-1.0098,25.18752,1.616,7.25719,7.79446,12.25523,10.08,19.2055,2.57605,7.83369,1.64893,17.26672,1.8535,25.41568l3.494-.94635a41.99648,41.99648,0,0,1-5.87227-10.65658c-.83576-2.24109-4.46183-1.27107-3.61605.9969Z"/><path class="cls-4" d="M338.14659,120.017c.50979-9.0348-1.47559-19.03965-9.61732-24.30726-3.93592-2.5465-8.39223-2.86974-12.95888-2.65719-6.50041.30256-12.99493.83559-19.49338,1.19307q-19.3828,1.06624-38.78878,1.63272c-6.56325.19169-13.13419.406-19.7007.412-6.14508.00563-12.86509-1.665-18.8923-.866-2.35772.31257-2.38879,4.06669,0,3.75,4.86331-.64474,10.10278.71813,15.02824.82936,5.53117.1249,11.06948-.05182,16.59884-.18773q16.91824-.41585,33.82435-1.21152c10.7458-.50574,21.4836-1.42035,32.23022-1.83831,13.79217-.5364,18.70478,11.10969,18.01971,23.25082-.13605,2.41114,3.61438,2.4034,3.75,0Z"/><path class="cls-4" d="M218.89671,95.35724q-32.89286-.565-65.73158,1.67825l1.875,1.875c.60879-5.098-3.48539-8.10073-8.08694-8.95424-3.42667-.63558-7.1972-.02147-10.27624-1.98779-2.60391-1.6629-4.289-4.50441-6.64136-6.46267-7.71938-6.42606-20.81532.23106-24.08134,8.68063-.87066,2.25249,2.7537,3.22788,3.61605.9969,1.64685-4.26059,6.27147-6.828,10.48379-8.04995,5.96089-1.72921,8.2079,2.14417,11.88386,5.69176a14.21878,14.21878,0,0,0,6.88126,3.97866c3.79059.89017,13.27277-.608,12.47092,6.1067a1.88069,1.88069,0,0,0,1.875,1.875q32.82117-2.2428,65.73158-1.67825c2.414.04147,2.41444-3.70853,0-3.75Z"/><path class="cls-4" d="M106.75218,88.58953c-3.01841.53227-6.56458-.81247-9.60853-1.10818a19.92282,19.92282,0,0,0-8.36695.63291c-3.06321,1.06941-5.10826,3.54037-3.42894,6.71468,1.129,2.134,4.367.24125,3.238-1.8927-1.30008-2.45745,10.91647-1.383,11.70291-1.25513,2.55733.41581,4.875.98037,7.46039.52446,2.37245-.41836,1.367-4.03289-.9969-3.616Z"/><path class="cls-4" d="M188.67479,201.8044a54.49914,54.49914,0,0,0,1.45758,15.88476c1.63867,6.09641,3.73032,11.55873,2.61,17.99045-.42334,2.43044-1.02293,4.83611-1.54646,7.24682-.23406,1.07781-1.2623,3.59317-.64212,4.794,1.15315,2.23277,5.77618.90616,7.52534.44494,3.16018-.83326,2.48907-2.67819,3.13716-5.68728,1.019-4.73118,3.89048-8.86189,4.18277-13.78229a17.97814,17.97814,0,0,0-.80283-6.57061c-.84749-2.59821-3.00064-4.77147-3.67978-7.36586-1.53216-5.853.68584-14.17821,1.87088-19.90971.32465-1.57017-2.08463-2.24161-2.4107-.6646-1.36593,6.60638-4.18407,16.74307-1.12082,23.10586,2.71008,5.62923,4.71624,9.42,2.68071,15.83013-.69271,2.18142-1.81788,4.20488-2.51133,6.38728-.37146,1.16906-.40755,3.44294-.97792,4.47451-.24041.43479-4.799,3.761-5.74193,2.35837-.16964-.25234,1.4681-5.35724,1.61277-6.02645.83694-3.87142,1.65772-7.5772,1.2121-11.55783-.45191-4.03671-1.94845-7.8333-2.98717-11.73234a52.47765,52.47765,0,0,1-1.36827-15.22016,1.25077,1.25077,0,0,0-2.5,0Z"/><path class="cls-4" d="M176.49439,242.07567l-.18449,2.7039a5.26054,5.26054,0,0,0,.02944,2.38413c.64429,1.42492,2.81353.92684,4.02184.901,1.29872-.02781,3.23249.33037,4.13265-.85512.95078-1.25215,1.17747-3.48,1.60177-4.97665a1.25107,1.25107,0,0,0-2.4107-.6646l-.64581,2.278-.287,1.01242c-.05435.19174-.4294.93473-.02286.65529-.39147.26907-1.87331.04012-2.368.05071l-1.48.03169-.592.01268q-.50325.02318-.17657-.00626l.6191,1.07933a26.28764,26.28764,0,0,1,.26271-4.60643c.10957-1.60589-2.39089-1.59911-2.5,0Z"/><path class="cls-4" d="M305.18844,213.24063c2.29172,7.3574.40529,12.81914-2.56865,19.55821-2.24211,5.08073-1.66421,10.66089-3.59766,15.80527-.46887,1.24752.71257,2.26333,1.808,2.37345,3.62577.36447,7.84838.67912,9.45967-3.03862,1.86254-4.29747,5.48816-7.92366,6.44661-12.58251.50784-2.46848.52793-4.93564,1.3077-7.36491a60.94666,60.94666,0,0,1,4.30717-9.18059c2.44669-4.73605,4.40965-9.44955,4.37371-14.86156-.016-2.41215-3.76605-2.41753-3.75,0,.06464,9.73271-7.70388,16.8734-9.32732,26.18877-.75222,4.31627-1.53145,7.30536-4.01806,10.96636-.93908,1.38257-1.55451,2.96074-2.45632,4.33029-.97561,1.48164.28071,1.072-1.84606,1.73687a11.56594,11.56594,0,0,1-4.4971.0559l1.808,2.37345a37.52352,37.52352,0,0,0,1.71766-8.71844c.56354-4.30438,2.32931-7.37247,3.9135-11.30825a25.36935,25.36935,0,0,0,.53515-17.33058c-.71537-2.29665-4.3366-1.31641-3.616.99689Z"/><path class="cls-4" d="M226.62744,111.719a22.99316,22.99316,0,0,1-5.11468-6.25135c-1.01366-1.72849-1.6694-4.78557-3.5974-5.55034-1.94348-.77093-6.08515.26666-8.28289.13391-2.98435-.18026-5.95358-.5609-8.94382-.65342-5.30734-.16422-10.5999.54826-15.9062.74329a122.27445,122.27445,0,0,1-18.10117-.90549c-1.98806-.22291-5.33625-1.16918-5.72274,1.736-.27206,2.04512,2.29881,3.66183,3.23123,5.21754,1.17347,1.9579,1.11853,4.37852,1.22755,6.65859.109,2.28023.54108,4.78541,2.3132,6.22449a11.11564,11.11564,0,0,0,2.167,1.22754,25.20711,25.20711,0,0,1,9.15575,7.67067c1.44052,1.963,2.61127,4.1543,4.37983,5.82778s4.38427,2.76051,6.6593,1.893c2.19541-.83716,3.42865-3.1885,5.42381-4.42946,2.04449-1.27165,4.6379-1.22942,7.01452-.8438s4.73751,1.07427,7.14214.95245a21.45364,21.45364,0,0,0,7.29948-2.17558c4.15061-1.799,8.41944-3.6787,11.5466-6.94748,1.56381-1.63464,2.85215-3.913,2.20947-6.082C230.14564,114.19839,228.21294,113.02075,226.62744,111.719Z"/><path class="cls-4" d="M227.06938,111.277c-3.07571-2.77264-4.52524-5.79285-6.47277-9.26142a5.01,5.01,0,0,0-3.47052-2.92936c-2.37517-.54234-5.08552.35358-7.49362.33994-4.47736-.02537-8.86063-.78452-13.36373-.61268-8.44079.3221-16.62149.99782-25.07527.25142-2.49371-.22017-10.171-2.66413-10.8376,1.74053-.20938,1.38343.59632,2.36116,1.34273,3.39305a13.42968,13.42968,0,0,1,3.03684,7.26915,28.98221,28.98221,0,0,0,.43018,4.30785,7.03736,7.03736,0,0,0,3.29517,4.50917c3.36766,2.12385,6.612,3.81459,9.22225,6.94035,3.034,3.63321,5.93711,10.52546,11.87733,9.21731,3.33649-.73476,4.87455-4.19063,8.16734-5.13806,4.24824-1.22234,8.38148,1.06126,12.70194.60193,6.00978-.63893,13.70381-4.5094,17.98979-8.697,4.61733-4.51132,3.25388-8.29622-1.35006-11.93222-.62466-.49332-1.51509.38539-.88388.88389,1.88151,1.48593,2.75927,2.00171,3.37642,4.42589.94282,3.70337-1.96082,6.04354-4.81945,7.97507a47.57644,47.57644,0,0,1-8.08555,4.09327,21.39063,21.39063,0,0,1-6.984,2.09025c-2.41849.14832-4.63246-.62147-6.976-.93013a12.83777,12.83777,0,0,0-6.135.26222c-4.39513,1.61046-5.96485,8.50676-12.68681,3.27879-2.257-1.75541-3.47961-4.832-5.30814-7.01514a25.94508,25.94508,0,0,0-6.37912-5.48247c-2.55941-1.56152-4.65751-1.84464-5.81683-5.41546-.54089-1.666-.26625-3.64272-.46988-5.36041-.24783-2.09048-1.07522-3.29869-1.89187-5.15279a8.639,8.639,0,0,0-.99606-1.10245l.70279-4.29205c.51447-.468,2.99159.32281,3.86693.42256a123.368,123.368,0,0,0,22.50235.49211,101.38747,101.38747,0,0,1,11.49938-.38433c3.44589.15537,6.862.74944,10.3111.507a18.09566,18.09566,0,0,1,3.91209-.31793c3.61262.653,3.54962,2.32735,4.68074,4.57a24.89567,24.89567,0,0,0,5.697,7.33605C226.78164,112.69831,227.66841,111.817,227.06938,111.277Z"/><path class="cls-4" d="M266.9962,97.94937c1.36778-.05677,2.07153,1.83633,1.49473,3.07784s-1.856,1.96522-2.97863,2.7487a10.7053,10.7053,0,0,0-3.5325,3.81133,6.04828,6.04828,0,0,0-.30794,5.07206c.92674,2.11628,3.16488,3.27612,5.18984,4.38834q2.42486,1.33188,4.72889,2.86947c3.40752,2.27427,6.83573,5.27465,7.41577,9.33015.6217,4.34685-2.2089,8.37506-3.1249,12.66954a14.84126,14.84126,0,0,0,.11585,6.66611,8.06279,8.06279,0,0,0,3.52489,5.25719c2.21065,1.22739,5.02765.7613,7.26114-.424a39.03488,39.03488,0,0,0,6.01742-4.59336c1.96189-1.59511,4.21211-3.03287,6.73306-3.22833,1.27032-.09849,2.54233.12542,3.81624.14873a10.7292,10.7292,0,0,0,7.41835-2.67918,16.804,16.804,0,0,0,3.9848-6.88672,73.4002,73.4002,0,0,0,2.78241-9.79639,12.82925,12.82925,0,0,0,.35348-4.53223,9.89127,9.89127,0,0,0-3.49156-5.73313,48.016,48.016,0,0,0-5.63957-3.8808c-5.79242-3.77616-9.56046-8.62631-14.043-13.70572-3.87214-4.38772-13.39811.54044-18.90118-.70054a15.3829,15.3829,0,0,0-4.21771-.77817c-1.71635.10229-3.33374,1.10957-5.04471.93954"/><path class="cls-4" d="M266.83005,98.552c.82519.26132-2.39558,5.18083-3.28687,6.029a9.84465,9.84465,0,0,0-2.103,2.69073,6.78288,6.78288,0,0,0-.37094,5.55366c2.369,5.623,11.16135,6.79189,14.84765,11.53072,6.15549,7.913-2.79431,15.73558-.5222,24.39289,1.0904,4.15472,4.15891,7.06577,8.67073,6.28449,2.66278-.46109,4.81065-2.15948,6.8549-3.80431a37.06224,37.06224,0,0,1,4.68748-3.636c3.17962-1.8079,6.01-.89943,9.35773-1.30975,5.69576-.69811,8.52733-4.9382,10.3904-9.9401,1.819-4.88355,4.88507-12.29821,2.19051-17.36991-1.24668-2.34651-3.43126-3.97574-5.57925-5.43547a62.99376,62.99376,0,0,1-10.27993-8.1094c-4.53622-4.688-6.83662-9.8918-13.95573-9.28732-3.09488.26278-6.13986,1.21394-9.2529,1.24853-1.94253.02159-3.51646-.65672-5.38019-.8598-2.30244-.25089-4.223.63462-6.547.83478-.79544.06851-.80269,1.31914,0,1.25,6.42-.55293,12.38839.04873,18.86182-.91651,4.90784-.7318,7.66682-.08576,11.05425,3.78931a78.76676,78.76676,0,0,0,7.84106,8.16874c3.00159,2.573,6.76237,4.23282,9.64711,6.90109,4.53976,4.1991,3.23735,9.38907,1.75624,14.60378-1.48675,5.2346-3.381,11.93818-9.32418,13.58265-3.73713,1.03405-7.148-.40269-10.73708,1.42117-3.363,1.709-5.7165,5.29637-9.18269,6.7114-9.74786,3.97946-11.32588-7.2918-9.02162-13.97354,1.93135-5.60043,3.61139-10.47989-.64555-15.43059-2.16417-2.51687-5.19919-4.38375-8.02-6.05327-2.97933-1.76334-7.80922-3.39112-6.67845-8.43979.64774-2.892,2.96846-3.766,4.86846-5.44859,1.994-1.76585,3.81358-5.037.19161-6.18394-.76868-.24342-1.09766.963-.3323,1.20535Z"/><path class="cls-4" d="M149.86363,95.53232h1.87684l-.00515.12832-1.68271.1994.11519-.00679a5.89156,5.89156,0,0,0-4.87184,1.89448,2.48993,2.48993,0,0,1-.85339.79842,3.44437,3.44437,0,0,1-2.00123-.14437c-1.80551-.36878-3.95055.57794-4.31881,2.1281-.44565,1.87594,1.57256,3.51235,1.98153,5.39434a3.60412,3.60412,0,0,1-1.33485,3.5128,5.21363,5.21363,0,0,1-4.18252.9691c-1.47642-.29515-2.74208-1.20776-4.25159-1.33185a6.75853,6.75853,0,0,0-4.02875,1.2591,17.52,17.52,0,0,1-3.64467,2.06268,13.65261,13.65261,0,0,1-4.57216.42922l-3.27346-.06249c-1.7158-.03276-3.60209-.12226-4.84876-1.127a2.74469,2.74469,0,0,1-.596-3.70059c.9101-1.29224,2.76505-1.79471,4.39346-2.38356a21.80482,21.80482,0,0,0,4.00383-1.923,4.39522,4.39522,0,0,0,2.31325-2.60788c.23194-1.37389-.89791-2.96274.10227-4.05851a3.30641,3.30641,0,0,1,1.12791-.70337,26.33987,26.33987,0,0,1,5.449-1.71975c1.40025-.281,2.97177-.52482,3.82875-1.50907a4.11145,4.11145,0,0,0,.63518-3.12256l-.31177-4.40138.0022-.04277a1.59251,1.59251,0,0,0,.17186-1.121l.16441-.06658a6.12956,6.12956,0,0,0,1.80553,2.01555c2.51671,2.09727,5.4392,4.33871,8.95907,4.27217.98839-.01868,1.96111-.22519,2.9491-.25553,3.54561-.10886,6.929,2.404,7.28541,5.411"/><path class="cls-4" d="M149.86363,96.15732l.189-.92228c-.77791.09217-.81922,1.29822,0,1.25l.11519-.00679c.79728-.04693.809-1.27917,0-1.25a11.06245,11.06245,0,0,0-4.35627,1.21353,51.972,51.972,0,0,1-5.57789,1.509c-3.14392.949-2.28892,2.57095-2.29509,4.98708a5.80627,5.80627,0,0,0,.62332,1.13023l-5.232,5.28644c-.3375.06607-2.53222-.88545-2.99474-.90528-2.25606-.09673-3.61038,1.13762-5.51078,2.10574-2.38951,1.2173-7.08359,2.55629-10.00826,1.58277q-3.98589.49431-2.13068-5.54435l1.24548-.43914c-.33173.2671,3.22067-1.44519,2.87591-1.26074,1.35947-.72735,2.954-1.55888,3.59171-3.04569,1.01729-2.37183-1.19371-3.327,2.39256-5.52288,2.72645-1.66938,7.57875-.47946,8.91859-4.08422.59433-1.599-1.08941-5.77406-.17146-6.73463-.32551.34062,2.26284,2.19048,2.30754,2.22534a15.09835,15.09835,0,0,0,6.53188,3.329c4.36311.75531,9.54589-1.72526,11.27049,4.82455a.62553.62553,0,0,0,1.20535-.3323,7.4636,7.4636,0,0,0-5.505-5.5441c-1.80508-.48979-3.50778-.00044-5.33216-.07019-3.848-.1471-8.02983-2.88-10.22493-5.97817a.63842.63842,0,0,0-.70582-.28722c-1.85726.75215-.21555,4.94763-.48555,6.23444-1.236,5.89045-7.91561,3.30718-11.01856,6.8886-1.60105,1.84794-.12668.77759-.41949,1.56621-1.14758,3.09068-1.23494,4.659-4.27467,6.01926-1.57835.70628-3.75714,1.10549-5.11648,2.27687a3.45672,3.45672,0,0,0-.11889,5.517c2.51174,2.17821,8.78512,1.6906,11.695,1.155,2.08568-.38387,3.39534-1.63224,5.275-2.45743,4.95866-2.177,5.59272.71633,9.62478.21148,2.69061-.33689,4.86928-2.41624,4.47131-5.24338-.50611-3.59543-3.72242-1.94773,2.74528-6.59107.824-.59157,8.47389-2.83561,6.70463-2.77182v-1.25l-.11519.00679v1.25l1.68271-.1994a.644.644,0,0,0,.625-.625l.00515-.12832a.63246.63246,0,0,0-.625-.625h-1.87684a.62537.62537,0,0,0,0,1.25Z"/><path class="cls-4" d="M170.8843,103.079c3.88077-1.25512,7.56-.79113,11.54208-.658a51.00355,51.00355,0,0,0,9.61223-.95378c8.03608-1.21552,16.69926-.13095,24.80092.08839,3.21866.08714,3.21647-4.91292,0-5-8.03475-.21753-16.53921-1.23974-24.52622-.16357a66.91907,66.91907,0,0,1-12.39011.89892,28.4739,28.4739,0,0,0-10.36809.9666c-3.049.9861-1.74475,5.81557,1.32919,4.8214Z"/><path class="cls-4" d="M209.523,194.61a90.47292,90.47292,0,0,0,29.89772,4.50006c2.202-.04158,4.403-.16383,6.59383-.38977a70.13794,70.13794,0,0,0,28.528-9.43774l.02294-.0215-2.94006-6.64485a15.39542,15.39542,0,0,0-3.00791-4.97661c-2.93559-2.86074-7.54667-2.92-11.62514-2.51067s-8.45371,1.05318-12.06914-.87816c-3.48276-1.86047-5.52019-5.768-9.02234-7.59168a20.684,20.684,0,0,0-6.32415-1.64339,81.44862,81.44862,0,0,1-12.97767-3.22924c-4.975-1.68247-10.19041-3.88015-15.296-2.64982a12.06694,12.06694,0,0,0-6.90089,4.63959,7.19521,7.19521,0,0,0-1.53405,5.051c.28345,2.04912,1.78026,3.71976,3.39256,5.0158a21.77478,21.77478,0,0,0,8.6937,4.2246,9.21482,9.21482,0,0,1,3.62082,1.2746c1.59128,1.21081,1.96423,3.41232,2.20326,5.39754.43482,3.61136.68057,7.71022-1.74171,10.42381"/><path class="cls-4" d="M209.02451,196.418a91.87141,91.87141,0,0,0,36.99,4.17727A71.71643,71.71643,0,0,0,262.13218,197.07c4.25171-1.47138,10.43-3.36252,13.75913-6.48316a1.93366,1.93366,0,0,0,.29318-2.27218c-2.11633-4.78313-3.75847-11.25362-8.80168-13.81185-4.76785-2.41854-10.009-.95418-15.0482-.83766-4.71375.109-7.31657-1.31966-10.58945-4.54988a20.69232,20.69232,0,0,0-5.34582-4.26425c-3.10015-1.51986-6.75255-1.64228-10.08369-2.34759a103.05079,103.05079,0,0,1-11.72572-3.38964c-5.26185-1.78283-10.91105-3.339-16.23179-.89561-3.76749,1.73007-7.44087,5.54067-7.37134,9.94058.079,4.99836,5.0931,8.39274,9.18009,10.2316,3.07837,1.38505,7.15122,1.36672,8.50919,5.03972,1.18741,3.21169.69019,8.11977-1.25836,10.78714-1.42521,1.951,1.82715,3.824,3.238,1.89269,3.48971-4.77706,3.77287-15.9618-2.25-18.99974-2.19917-1.10925-4.83116-1.2012-7.08926-2.28538-3.88706-1.86629-8.3921-6.70242-4.69455-10.81848,5.503-6.12583,13.96882-2.191,20.38812-.11619,5.75687,1.86072,13.25784,1.83645,18.4258,4.866,4.07877,2.39106,6.30713,6.77846,11.10235,8.11192,4.61072,1.28215,9.2651-.12675,13.9281-.03646,7.9884.15468,9.72978,7.15962,12.48016,13.37578l.29319-2.27217c-3.47278,3.25526-10.2236,4.996-14.64806,6.33653a68.62432,68.62432,0,0,1-15.8698,2.83755,90.5033,90.5033,0,0,1-32.70039-4.30734c-2.30578-.73114-3.29264,2.88808-.9969,3.61605Z"/><path class="cls-4" d="M306.44984,188.316c4.1048,2.75849,7.6907,6.93534,11.19754,10.39626,3.09962,3.059,6.82458,6.0931,7.85,10.50546.54608,2.3497,4.16266,1.35509,3.616-.9969-1.06871-4.59851-4.36679-7.736-7.606-10.96211-4.1374-4.12072-8.31037-8.91837-13.165-12.18072-2.00853-1.34976-3.88764,1.89739-1.8927,3.238Z"/><path class="cls-4" d="M176.80332,246.66937a15.019,15.019,0,0,0-2.33891,4.82179c.89014.60358,2.06611.46216,3.12651.64161.81139.13732,1.57544.47168,2.37326.67341a3.35058,3.35058,0,0,0,2.40708-.13434c1.085-.59006,1.4402-1.949,1.68946-3.15866l.67343-3.26811"/><path class="cls-4" d="M176.26365,246.35392a17.384,17.384,0,0,0-2.40191,4.97109.63079.63079,0,0,0,.28722.70581c1.40718.70033,2.96407.6103,4.46753,1.01717,1.30078.352,2.609.85955,3.92092.22652,2.28916-1.10457,2.36073-4.73441,2.79941-6.86329.16179-.78514-1.04285-1.1209-1.20535-.3323-.37,1.79578-.50954,5.9428-2.93567,6.25818a8.37126,8.37126,0,0,1-2.83779-.67222c-1.17659-.29244-2.46724-.16052-3.57815-.71339l.28723.70582a16.25427,16.25427,0,0,1,2.2759-4.67249c.46109-.66137-.622-1.28684-1.07934-.6309Z"/><path class="cls-4" d="M300.06006,249.2103c-2.3517,2.12526-3.70827,5.108-5.00165,8.00184-.084.188-.15785.4359-.00756.5767a.505.505,0,0,0,.311.0987,103.77577,103.77577,0,0,0,12.90262.571c.45255-.01759.99566-.10023,1.17655-.51543a1.25806,1.25806,0,0,0-.01733-.78567,43.84907,43.84907,0,0,1-1.15471-8.56376"/><path class="cls-4" d="M299.61812,248.76835a18.26361,18.26361,0,0,0-3.22639,4.25641c-.57077,1.02426-2.08759,3.08016-2.02765,4.32729.09487,1.97375,3.432,1.37048,4.75659,1.4693,2.3262.17355,4.65782.30813,6.99141.30363.97924-.00188,2.4181.2346,3.28449-.33308.79-.51762.6843-.87341.6298-1.80057-.16386-2.78769-.99723-5.56243-1.13238-8.39762-.03818-.80084-1.2884-.80547-1.25,0,.10508,2.20449.664,4.42777.73011,6.613q.77268,1.69428-1.18583,2.65784-.80712.01716-1.61426.00638c-1.25624-.00882-2.51113-.05465-3.76556-.12174-1.076-.05755-2.1508-.13556-3.22513-.21821q-1.07437-.08451-2.14813-.17647a.9311.9311,0,0,1-.046-1.5663c.49158-2.17665,2.60073-4.65562,4.11287-6.13594.5758-.56369-.30836-1.44731-.88389-.88389Z"/><path class="cls-4" d="M323.996,246.00773a27.804,27.804,0,0,0-5.10927,9.20621q6.16131.22138,12.32837.04785a.76368.76368,0,0,0,.93913-.72l1.00278-4.59709c.25935-1.189.47084-2.5812-.33346-3.49441"/><path class="cls-4" d="M323.554,245.56579a31.02385,31.02385,0,0,0-5.27,9.482.63085.63085,0,0,0,.60267.79115c2.98808.09865,5.97645.14506,8.96616.11313,1.25234-.01337,3.46124.45907,4.52921-.46091.98987-.85272,1.15214-4.1416,1.37759-5.38034a5.13212,5.13212,0,0,0-.39647-3.976c-.42026-.68436-1.50188-.05716-1.07934.6309.95947,1.56241.12821,3.66494-.23093,5.31135-.47393,2.17268-.17538,2.55339-2.51883,2.59889-3.55.06893-7.09885.03013-10.64739-.087l.60268.79115a29.19208,29.19208,0,0,1,4.94853-8.93042c.50152-.61995-.37762-1.5097-.88389-.88388Z"/><path class="cls-4" d="M191.00064,245.517a24.58915,24.58915,0,0,0-4.33784,8.06531q5.231.19393,10.467.04192a.84721.84721,0,0,0,.61558-.18623.90417.90417,0,0,0,.18176-.44456l.85137-4.02739c.22019-1.0416.39975-2.26131-.28311-3.06135"/><path class="cls-4" d="M190.55869,245.0751a27.52708,27.52708,0,0,0-4.49857,8.3411.63108.63108,0,0,0,.60268.79115c2.53688.08642,5.074.12708,7.6124.09911,1.09349-.012,2.98547.38636,3.91208-.42648.88276-.77438.99758-3.63749,1.19387-4.74774a4.70324,4.70324,0,0,0-.34613-3.54295.62546.62546,0,0,0-1.07933.6309c.8033,1.34981.09467,3.17311-.20558,4.59344-.39293,1.85875-.06919,2.18032-2.04753,2.22-3.01405.06038-6.02706.02639-9.03978-.07624l.60267.79115a25.74138,25.74138,0,0,1,4.17711-7.78951c.49081-.626-.38778-1.51669-.88389-.88389Z"/><path class="cls-5" d="M354.48133,127.32131c4.12562-6.11076,9.58053-12.92947,16.94534-12.58067a18.35978,18.35978,0,0,0,4.13781.14823c3.39213-.61676,5.36821-4.50836,8.71078-5.35349,4.047-1.02324,7.80252,2.80569,11.97446,2.94851,2.449.08383,4.7962-1.12113,7.24655-1.09905a7.29814,7.29814,0,0,1,4.60857,12.90261c5.68075-1.1169,12.17415-2.058,16.74348,1.49724,3.95322,3.07584,5.09714,8.75112,4.09978,13.65968s-3.75479,9.25045-6.45972,13.46614L415.458,163.86759a23.19164,23.19164,0,0,1-5.08928,6.20724,11.868,11.868,0,0,1-13.37975.44555,9.28145,9.28145,0,0,0-3.36738-1.84206c-2.99865-.49579-4.94947,2.91463-7.31976,4.81709-5.53624,4.44352-14.26456-.01147-17.42114-6.37s-2.85086-13.8088-4.20131-20.7781-5.56558-14.48258-12.60291-15.41574"/><path class="cls-5" d="M356.64,128.5831c3.01954-4.40776,6.85971-9.99881,12.46708-11.12486,4.666-.937,7.44763.5281,11.59064-2.54368,3.32661-2.46648,4.80441-3.58413,8.91223-1.89719a22.49014,22.49014,0,0,0,5.26356,1.7941c2.69478.39428,4.86331-.64766,7.503-.77055,4.87707-.227,7.75306,4.65729,3.96051,8.47877-1.85593,1.87008.07031,4.62777,2.43237,4.17846,6.80266-1.294,15.83148-2.14422,17.738,6.55822,1.6052,7.32695-3.45856,14.15039-7.18211,19.95764-3.62177,5.64853-7.86241,16.31374-15.57773,16.65018-5.18088.22592-8.46457-5.53609-13.73575-2.93917-2.39731,1.18107-3.65439,3.89572-5.98022,5.10491-2.92969,1.52314-6.31116.44558-8.85007-1.34953-6.14263-4.34308-6.43056-12.67482-7.269-19.45067-1.15978-9.37266-4.52217-20.63645-15.17154-22.70885-3.14353-.61174-4.48957,4.20638-1.3292,4.82139,9.65517,1.87893,10.91053,13.17941,11.882,21.17052.80282,6.60415,1.86553,13.61057,6.85852,18.46148,3.91483,3.80343,10.06928,6.20883,15.339,3.89,3.1586-1.38986,5.26076-5.95963,9.1673-4.93261,1.37.36016,2.75782,1.76956,4.21793,2.23849a15.04016,15.04016,0,0,0,4.871.694c7.351-.16682,11.26816-5.69705,14.87336-11.3001,4.64123-7.21322,10.998-14.8531,12.73782-23.45512,1.155-5.71039-.0803-12.23192-4.74271-16.092-5.38978-4.46233-12.84481-3.34444-19.17585-2.14016l2.43237,4.17846c4.24712-4.27952,4.52851-11.17663-.4718-15.056-2.60877-2.02393-5.5737-2.3408-8.75089-1.76744-2.79238.50392-4.73258.87028-7.48966-.119-1.86022-.66748-3.59173-1.6854-5.5578-2.04513-3.0774-.56307-5.492.41195-7.91964,2.21168-2.08656,1.54686-3.42414,3.06087-6.18032,3.1398a32.73528,32.73528,0,0,0-5.08154.05594c-7.29973,1.307-12.17076,7.8512-16.09831,13.58442-1.8231,2.66127,2.508,5.16486,4.31736,2.52359Z"/></svg>