<svg id="Layer_1" data-name="Layer 1" xmlns="http://www.w3.org/2000/svg" viewBox="0 0 517 517"><defs><style>.cls-1{fill:#2e3192;}.cls-2{fill:#fff;}.cls-3{fill:#6cf;}</style></defs><title>milk3</title><path class="cls-1" d="M258.45,516.49945c-142.5,0-258-115.5-258-258a257.961,257.961,0,0,1,75.6-182.4c100.8-100.8,264.1-100.8,364.9,0s100.8,264.1,0,364.9A256.49776,256.49776,0,0,1,258.45,516.49945Z"/><path class="cls-2" d="M90.08936,227.00146h2.43017v13.72413h18.89893V227.00146h2.43017V258.5h-2.43017V242.97559H92.51953V258.5H90.08936Z"/><path class="cls-2" d="M121.7251,225.33643h2.25v4.36474h-2.25Zm0,10.66455h2.25V258.5h-2.25Z"/><path class="cls-2" d="M148.54346,256.97021c0,7.19971-3.19483,10.98-9.71924,10.98-5.8501,0-8.27979-3.28516-8.81983-6.70508h2.29493c.81006,3.10449,3.375,4.58984,6.61474,4.58984,5.84961,0,7.46973-3.78027,7.46973-9.49512V254c-1.21484,2.92529-3.41992,4.5-7.51465,4.5-5.26465,0-9.31445-4.2749-9.31445-11.24951,0-7.55957,4.31982-11.78955,9.62939-11.78955,4.58985,0,6.56983,2.16015,7.19971,3.96.04492-1.30518.08984-2.87988.13476-3.41992h2.11524c0,.81006-.09033,4.36474-.09033,6.5249Zm-16.604-9.80957c0,5.3545,2.835,9.22461,7.15479,9.22461,5.62451,0,7.33447-3.73486,7.33447-9.585,0-5.93945-1.7998-9.22461-7.19971-9.22461C134.0542,237.57568,131.93945,242.03076,131.93945,247.16064Z"/><path class="cls-2" d="M158.17432,225.33643v14.44433a7.84753,7.84753,0,0,1,7.42431-4.31982c3.19483,0,7.605,1.62011,7.605,8.72949V258.5h-2.25V244.64063c0-4.45508-2.0249-6.97461-5.75976-6.97461-4.45459,0-7.01953,2.74462-7.01953,8.27929V258.5h-2.25V225.33643Z"/><path class="cls-2" d="M192.32813,236.001c3.33007,11.60937,5.26464,18.269,5.62451,20.249h.04541c.35986-1.7998,2.60986-8.86475,6.11963-20.249h2.42968c4.18506,13.90429,5.44483,17.90918,5.8501,19.66406h.04492c.62989-2.47461,1.665-5.84961,5.80469-19.66406h2.38477L213.52246,258.5h-2.4751c-2.42968-7.96484-5.355-17.72949-5.80468-19.79932h-.04493c-.45019,2.20508-3.01513,10.25977-5.93994,19.79932h-2.6997l-6.61475-22.499Z"/><path class="cls-2" d="M240.38721,254.2251a25.67287,25.67287,0,0,0,.31543,4.2749h-2.16016a14.76906,14.76906,0,0,1-.40478-3.46484c-.76514,1.665-2.74512,4.00488-7.37989,4.00488-5.21972,0-7.46972-3.375-7.46972-6.75,0-4.94971,3.8247-7.19971,10.5747-7.19971h4.27491v-2.29492c0-2.24951-.6753-5.26465-5.80518-5.26465-4.54443,0-5.21973,2.38477-5.71436,4.23h-2.25c.27-2.4751,1.79981-6.2998,8.00977-6.2998,5.12939,0,8.00928,2.16015,8.00928,7.10986Zm-2.20459-7.19971h-4.41016c-4.99463,0-8.09961,1.30518-8.09961,5.17481,0,2.835,2.0249,4.77,5.17481,4.77,6.43505,0,7.335-4.2749,7.335-9.13476Z"/><path class="cls-2" d="M244.21338,236.001h4.18506v-7.01953H250.648V236.001h5.355v2.11474h-5.355v14.62451c0,2.52.54,3.96,2.70019,3.96a8.504,8.504,0,0,0,2.33985-.27v1.98a7.9026,7.9026,0,0,1-2.79.40478c-2.87988,0-4.49951-1.43994-4.49951-5.03955V238.11572h-4.18506Z"/><path class="cls-2" d="M260.81836,247.52051c.04492,5.80469,2.96973,9.40478,7.28906,9.40478,4.23047,0,5.66992-2.38525,6.48047-4.23h2.29492c-.94531,2.96973-3.33008,6.34473-8.86523,6.34473-6.83985,0-9.49414-5.895-9.49414-11.60938,0-6.435,3.19531-11.96972,9.76367-11.96972,6.93066,0,9.13477,5.98486,9.13477,10.21435,0,.63037,0,1.26026-.04493,1.84522Zm14.26367-1.98c-.04492-4.45459-2.47461-7.96485-6.88476-7.96485-4.63477,0-6.749,3.24024-7.24414,7.96485Z"/><path class="cls-2" d="M282.91309,242.12061c0-3.77979-.04493-5.39991-.04493-6.11963h2.20411c.04492.71972.09082,2.15966.09082,5.03955a8.52366,8.52366,0,0,1,7.8291-5.57959v2.42969c-4.67969.31542-7.8291,3.55517-7.8291,8.90966V258.5h-2.25Z"/><path class="cls-2" d="M326.02148,251.93018c0,2.20507.04493,5.71484.04493,6.56982h-2.16016a36.2238,36.2238,0,0,1-.13477-3.915c-.94531,2.65527-3.24023,4.45508-7.24414,4.45508-3.24023,0-7.37988-1.25977-7.37988-8.14453V236.001h2.2041v14.35449c0,3.28467,1.03516,6.47949,5.49024,6.47949,5.04,0,6.92968-2.835,6.92968-9.26953V236.001h2.25Z"/><path class="cls-2" d="M333.13281,252.29c.76367,2.92529,2.834,4.68017,6.38867,4.68017,4.00586,0,5.625-1.84521,5.625-4.36474,0-2.56494-1.08007-3.8252-6.11914-5.04-5.80468-1.395-7.24511-3.1499-7.24511-6.11963,0-3.105,2.33984-5.98486,7.4248-5.98486s7.51465,3.105,7.875,6.2998h-2.25c-.40527-1.89013-1.89062-4.23-5.71484-4.23-3.915,0-5.04,1.93506-5.04,3.73487,0,2.06982,1.08008,3.105,5.53418,4.18505,6.3457,1.52979,7.91992,3.59961,7.91992,6.97461,0,4.09473-3.33008,6.61475-8.05469,6.61475-5.1289,0-8.00976-2.7002-8.63867-6.75Z"/><path class="cls-2" d="M368.72559,254.2251A25.72783,25.72783,0,0,0,369.041,258.5h-2.16016a14.80835,14.80835,0,0,1-.4043-3.46484c-.76562,1.665-2.74609,4.00488-7.38086,4.00488-5.21875,0-7.46875-3.375-7.46875-6.75,0-4.94971,3.82422-7.19971,10.57422-7.19971h4.27539v-2.29492c0-2.24951-.67578-5.26465-5.80566-5.26465-4.54395,0-5.21973,2.38477-5.71387,4.23h-2.25c.26953-2.4751,1.79883-6.2998,8.00977-6.2998,5.1289,0,8.00879,2.16015,8.00879,7.10986Zm-2.20411-7.19971h-4.41015c-4.99512,0-8.09961,1.30518-8.09961,5.17481,0,2.835,2.02441,4.77,5.17383,4.77,6.43554,0,7.33593-4.2749,7.33593-9.13476Z"/><path class="cls-2" d="M393.33984,256.97021c0,7.19971-3.19433,10.98-9.71875,10.98-5.84961,0-8.27929-3.28516-8.82031-6.70508h2.29492c.81055,3.10449,3.375,4.58984,6.61524,4.58984,5.84961,0,7.46972-3.78027,7.46972-9.49512V254c-1.21484,2.92529-3.41992,4.5-7.51464,4.5-5.26465,0-9.31446-4.2749-9.31446-11.24951,0-7.55957,4.32032-11.78955,9.62891-11.78955,4.58984,0,6.57031,2.16015,7.20019,3.96.04493-1.30518.08985-2.87988.13477-3.41992h2.11523c0,.81006-.09082,4.36474-.09082,6.5249Zm-16.60351-9.80957c0,5.3545,2.835,9.22461,7.1543,9.22461,5.625,0,7.335-3.73486,7.335-9.585,0-5.93945-1.79981-9.22461-7.2002-9.22461C378.85156,237.57568,376.73633,242.03076,376.73633,247.16064Z"/><path class="cls-2" d="M401.21582,247.52051c.04492,5.80469,2.96973,9.40478,7.29,9.40478,4.22949,0,5.66992-2.38525,6.47852-4.23h2.29492C416.335,255.665,413.9502,259.04,408.416,259.04c-6.83985,0-9.49512-5.895-9.49512-11.60938,0-6.435,3.19433-11.96972,9.76465-11.96972,6.92968,0,9.13476,5.98486,9.13476,10.21435,0,.63037,0,1.26026-.04492,1.84522Zm14.26465-1.98c-.04492-4.45459-2.47559-7.96485-6.88477-7.96485-4.63476,0-6.75,3.24024-7.24511,7.96485Z"/><path class="cls-2" d="M125.55029,290.001h4.18506v-7.01953h2.24951V290.001h5.355v2.11523h-5.355v14.624c0,2.52051.54,3.96,2.7002,3.96a8.52144,8.52144,0,0,0,2.33984-.26954v1.9795a7.89126,7.89126,0,0,1-2.79.40527c-2.87988,0-4.49951-1.44043-4.49951-5.04V292.11621h-4.18506Z"/><path class="cls-2" d="M159.88379,301.20605c0,6.25391-3.46484,11.834-10.16943,11.834-6.07471,0-9.8545-4.99414-9.8545-11.78906,0-6.43457,3.55469-11.79,10.07959-11.79C155.92383,289.46094,159.88379,294.14063,159.88379,301.20605Zm-17.63916.04493c0,5.35449,2.87988,9.6748,7.64941,9.6748,4.85987,0,7.605-4.00488,7.605-9.6748,0-5.31055-2.70019-9.67481-7.69482-9.67481C144.67432,291.57617,142.24463,295.85059,142.24463,301.251Z"/><path class="cls-2" d="M193.72314,305.88574c-1.07959,3.96-3.68945,7.1543-8.72949,7.1543-5.625,0-9.62939-4.18457-9.62939-11.69922,0-6.165,3.28467-11.87988,9.89941-11.87988a8.04435,8.04435,0,0,1,8.45947,7.20019h-2.29492c-.6748-2.61035-2.38476-5.085-6.20947-5.085-4.77,0-7.46973,4.04981-7.46973,9.67481,0,5.35449,2.52,9.6748,7.24463,9.6748,3.28467,0,5.26465-1.665,6.43457-5.04Z"/><path class="cls-2" d="M198.94385,312.5V279.33691h2.25V312.5Z"/><path class="cls-2" d="M209.06836,301.52051c.04492,5.80469,2.96973,9.40527,7.28955,9.40527,4.23,0,5.66992-2.38574,6.47949-4.23047h2.29492c-.94482,2.96973-3.32959,6.34473-8.86425,6.34473-6.83985,0-9.49463-5.89453-9.49463-11.60938,0-6.43457,3.19482-11.96972,9.76416-11.96972,6.93017,0,9.13476,5.98535,9.13476,10.21484,0,.62988,0,1.25977-.04492,1.84473Zm14.26416-1.97949c-.04492-4.45508-2.4751-7.96485-6.88477-7.96485-4.63476,0-6.74951,3.24024-7.24462,7.96485Z"/><path class="cls-2" d="M246.59766,308.22559A25.74111,25.74111,0,0,0,246.9126,312.5h-2.15967a14.76512,14.76512,0,0,1-.40479-3.46484c-.76513,1.665-2.74511,4.00488-7.37988,4.00488-5.21972,0-7.46972-3.375-7.46972-6.75,0-4.94922,3.8247-7.19922,10.5747-7.19922h4.2749V296.7959c0-2.25-.67529-5.26465-5.80517-5.26465-4.54443,0-5.21973,2.38477-5.71436,4.22949h-2.25c.27-2.47461,1.79981-6.2998,8.00977-6.2998,5.12939,0,8.00928,2.16015,8.00928,7.11035Zm-2.20459-7.2002h-4.41016c-4.99463,0-8.09961,1.30566-8.09961,5.17481,0,2.835,2.0249,4.7705,5.17481,4.7705,6.435,0,7.335-4.27539,7.335-9.13476Z"/><path class="cls-2" d="M254.023,295.6709c0-1.97949,0-3.87012-.04492-5.66992h2.20459c.09033.71972.13525,3.6455.09033,4.27539.98975-2.29492,2.83447-4.81543,7.46924-4.81543,4.00488,0,7.56054,2.25,7.56054,8.46V312.5h-2.25V298.28125c0-4.00488-1.666-6.61523-5.58007-6.61523-5.355,0-7.19971,4.45507-7.19971,9.35937V312.5h-2.25Z"/><path class="cls-2" d="M307.752,279.33691v26.6836c0,2.16015,0,4.22949.04493,6.47949h-2.16016c-.08984-.54-.13477-2.6543-.13477-3.7793-1.125,2.74414-3.64453,4.31934-7.56054,4.31934-5.84961,0-9.35938-4.76953-9.35938-11.51953,0-6.92969,3.8252-12.05957,9.94531-12.05957,4.5,0,6.29883,1.93554,6.97461,3.375v-13.499ZM290.9668,301.43066c0,6.165,3.19531,9.49512,7.06445,9.49512,5.94043,0,7.56055-4.0957,7.56055-10.21484,0-5.80469-1.39453-9.13477-7.1543-9.13477C293.98242,291.57617,290.9668,295.13086,290.9668,301.43066Z"/><path class="cls-2" d="M330.252,308.22559a25.75636,25.75636,0,0,0,.31446,4.27441h-2.16016a14.804,14.804,0,0,1-.4043-3.46484c-.76562,1.665-2.74511,4.00488-7.37988,4.00488-5.21973,0-7.46973-3.375-7.46973-6.75,0-4.94922,3.82422-7.19922,10.57422-7.19922H328.002V296.7959c0-2.25-.67578-5.26465-5.80468-5.26465-4.54493,0-5.22071,2.38477-5.71485,4.22949h-2.25c.26953-2.47461,1.79981-6.2998,8.00977-6.2998,5.1289,0,8.00976,2.16015,8.00976,7.11035Zm-2.20507-7.2002h-4.41016c-4.99414,0-8.09961,1.30566-8.09961,5.17481,0,2.835,2.02539,4.7705,5.1748,4.7705,6.43457,0,7.335-4.27539,7.335-9.13476Z"/><path class="cls-2" d="M337.67773,279.33691h2.25v4.36426h-2.25Zm0,10.66407h2.25V312.5h-2.25Z"/><path class="cls-2" d="M347.30664,296.12109c0-3.78027-.04492-5.40039-.04492-6.12011h2.20508c.04492.71972.08984,2.16015.08984,5.04a8.52441,8.52441,0,0,1,7.83008-5.58008v2.42969c-4.67969.31542-7.83008,3.55566-7.83008,8.91015V312.5h-2.25Z"/><path class="cls-2" d="M362.69531,290.001c4.54492,12.87011,6.52539,18.17968,7.29,20.60937h.04492c.89942-2.74512,2.7002-7.96484,7.06543-20.60937h2.33985l-8.46,23.80468c-2.38575,6.65918-4.00489,8.14454-8.05469,8.14454a14.873,14.873,0,0,1-2.07031-.13575v-2.249a14.83855,14.83855,0,0,0,2.02441.13477c3.24023,0,4.27539-1.5752,5.94043-6.21L360.2207,290.001Z"/><path class="cls-2" d="M130.45605,366.5V346.11621h-3.87011V344.001h3.87011v-3.19434c0-3.78027,1.08008-7.91992,6.11963-7.91992a8.42415,8.42415,0,0,1,2.20508.31445v2.16016a11.19124,11.19124,0,0,0-2.43017-.26953c-2.65479,0-3.64454,1.88965-3.64454,5.80468v3.1045h4.90479v2.11523h-4.90479V366.5Z"/><path class="cls-2" d="M156.37549,362.22559a25.67061,25.67061,0,0,0,.31543,4.27441h-2.16016a14.76534,14.76534,0,0,1-.40478-3.46484c-.76514,1.665-2.74512,4.00488-7.37989,4.00488-5.21972,0-7.46972-3.375-7.46972-6.75,0-4.94922,3.8247-7.19922,10.5747-7.19922H154.126V350.7959c0-2.25-.6753-5.26465-5.80518-5.26465-4.54443,0-5.21973,2.38477-5.71435,4.22949h-2.25c.27-2.47461,1.7998-6.2998,8.00976-6.2998,5.1294,0,8.00928,2.16015,8.00928,7.11035Zm-2.20459-7.2002h-4.41016c-4.99463,0-8.09961,1.30566-8.09961,5.17481,0,2.835,2.02491,4.7705,5.17481,4.7705,6.43506,0,7.335-4.27539,7.335-9.13476Z"/><path class="cls-2" d="M180.35986,359.88574c-1.07959,3.96-3.68945,7.1543-8.72949,7.1543-5.625,0-9.62939-4.18457-9.62939-11.69922,0-6.165,3.28466-11.87988,9.89941-11.87988a8.04436,8.04436,0,0,1,8.45947,7.20019h-2.29492c-.6748-2.61035-2.38476-5.085-6.20947-5.085-4.77,0-7.46973,4.04981-7.46973,9.67481,0,5.35449,2.52,9.6748,7.24463,9.6748,3.28467,0,5.26465-1.665,6.43457-5.04Z"/><path class="cls-2" d="M186.165,333.33691h2.25v4.36426h-2.25Zm0,10.66407h2.25V366.5h-2.25Z"/><path class="cls-2" d="M195.79443,366.5V333.33691h2.25V366.5Z"/><path class="cls-2" d="M205.42383,333.33691h2.25v4.36426h-2.25Zm0,10.66407h2.25V366.5h-2.25Z"/><path class="cls-2" d="M211.99316,344.001h4.18506v-7.01953h2.24951V344.001h5.355v2.11523h-5.355v14.624c0,2.52051.54,3.96,2.7002,3.96a8.52144,8.52144,0,0,0,2.33984-.26954v1.9795a7.89126,7.89126,0,0,1-2.79.40527c-2.87988,0-4.49951-1.44043-4.49951-5.04V346.11621h-4.18506Z"/><path class="cls-2" d="M228.37256,333.33691h2.25v4.36426h-2.25Zm0,10.66407h2.25V366.5h-2.25Z"/><path class="cls-2" d="M238.49707,355.52051c.04492,5.80469,2.96973,9.40527,7.28955,9.40527,4.23,0,5.66992-2.38574,6.47949-4.23047H254.561c-.94483,2.96973-3.32959,6.34473-8.86426,6.34473-6.83985,0-9.49463-5.89453-9.49463-11.60938,0-6.43457,3.19482-11.96972,9.76416-11.96972,6.93017,0,9.13476,5.98535,9.13476,10.21484,0,.62988,0,1.25977-.04492,1.84473Zm14.26416-1.97949c-.04492-4.45508-2.4751-7.96485-6.88477-7.96485-4.63476,0-6.74951,3.24024-7.24462,7.96485Z"/><path class="cls-2" d="M261.13184,360.29c.76464,2.92578,2.835,4.68066,6.38964,4.68066,4.00489,0,5.625-1.8457,5.625-4.36523,0-2.56445-1.08007-3.8252-6.12011-5.04-5.80469-1.39453-7.24512-3.14941-7.24512-6.11914,0-3.10547,2.33984-5.98535,7.42578-5.98535,5.084,0,7.51367,3.10547,7.874,6.2998h-2.25c-.40527-1.88965-1.88964-4.22949-5.71386-4.22949-3.916,0-5.041,1.93457-5.041,3.73438,0,2.07031,1.08008,3.10546,5.53516,4.18554,6.34472,1.5293,7.91992,3.59961,7.91992,6.97461,0,4.09473-3.33008,6.61426-8.05469,6.61426-5.12988,0-8.00976-2.7002-8.63965-6.75Z"/><path class="cls-2" d="M278.23047,371.62988a28.60579,28.60579,0,0,0,3.15039-10.88965h2.25a28.13542,28.13542,0,0,1-3.375,10.88965Z"/><path class="cls-2" d="M301.7207,366.5V346.11621h-3.87011V344.001h3.87011v-3.19434c0-3.78027,1.08008-7.91992,6.11914-7.91992a8.412,8.412,0,0,1,2.20508.31445v2.16016a11.18016,11.18016,0,0,0-2.42969-.26953c-2.65429,0-3.64453,1.88965-3.64453,5.80468v3.1045h4.9043v2.11523h-4.9043V366.5Z"/><path class="cls-2" d="M312.92578,355.52051c.04492,5.80469,2.96875,9.40527,7.28906,9.40527,4.23047,0,5.66993-2.38574,6.4795-4.23047h2.29492c-.94434,2.96973-3.3291,6.34473-8.86426,6.34473-6.83984,0-9.49414-5.89453-9.49414-11.60938,0-6.43457,3.19434-11.96972,9.76367-11.96972,6.92969,0,9.13477,5.98535,9.13477,10.21484,0,.62988,0,1.25977-.04492,1.84473Zm14.26367-1.97949c-.04492-4.45508-2.47461-7.96485-6.88476-7.96485-4.63477,0-6.75,3.24024-7.24414,7.96485Z"/><path class="cls-2" d="M335.74023,355.52051c.04493,5.80469,2.96875,9.40527,7.28907,9.40527,4.23047,0,5.66992-2.38574,6.47949-4.23047h2.29492c-.94433,2.96973-3.3291,6.34473-8.86426,6.34473-6.83984,0-9.49414-5.89453-9.49414-11.60938,0-6.43457,3.19434-11.96972,9.76367-11.96972,6.92969,0,9.13477,5.98535,9.13477,10.21484,0,.62988,0,1.25977-.04492,1.84473Zm14.26368-1.97949c-.04493-4.45508-2.47461-7.96485-6.88477-7.96485-4.63476,0-6.75,3.24024-7.24414,7.96485Z"/><path class="cls-2" d="M375.42773,333.33691v26.6836c0,2.16015,0,4.22949.04493,6.47949h-2.15918c-.09082-.54-.13575-2.6543-.13575-3.7793-1.125,2.74414-3.64453,4.31934-7.55859,4.31934-5.84961,0-9.35937-4.76953-9.35937-11.51953,0-6.92969,3.82421-12.05957,9.94336-12.05957,4.5,0,6.30078,1.93554,6.9746,3.375v-13.499Zm-16.7832,22.09375c0,6.165,3.19434,9.49512,7.06445,9.49512,5.93946,0,7.55957-4.0957,7.55957-10.21484,0-5.80469-1.3955-9.13477-7.15527-9.13477C361.6582,345.57617,358.64453,349.13086,358.64453,355.43066Z"/><path class="cls-2" d="M127.66357,416.22559A25.67173,25.67173,0,0,0,127.979,420.5h-2.16015a14.76512,14.76512,0,0,1-.40479-3.46484c-.76513,1.665-2.74511,4.00488-7.37988,4.00488-5.21973,0-7.46973-3.375-7.46973-6.75,0-4.94922,3.82471-7.19922,10.57471-7.19922h4.2749V404.7959c0-2.25-.67529-5.26465-5.80517-5.26465-4.54444,0-5.21973,2.38477-5.71436,4.22949h-2.25c.27-2.47461,1.79981-6.2998,8.00977-6.2998,5.12939,0,8.00927,2.16015,8.00927,7.11035Zm-2.20459-7.2002h-4.41015c-4.99463,0-8.09961,1.30566-8.09961,5.17481,0,2.835,2.0249,4.7705,5.1748,4.7705,6.43506,0,7.335-4.27539,7.335-9.13476Z"/><path class="cls-2" d="M135.08936,403.6709c0-1.97949,0-3.87012-.04493-5.66992H137.249c.09034.71972.13526,3.6455.09034,4.27539.98974-2.29492,2.83447-4.81543,7.46972-4.81543,4.0044,0,7.55957,2.25,7.55957,8.46V420.5h-2.25V406.28125c0-4.00488-1.665-6.61523-5.57959-6.61523-5.355,0-7.1997,4.45507-7.1997,9.35937V420.5h-2.25Z"/><path class="cls-2" d="M177.11816,387.33691v26.6836c0,2.16015,0,4.22949.04493,6.47949h-2.15967c-.09033-.54-.13526-2.6543-.13526-3.7793-1.125,2.74414-3.64453,4.31934-7.55957,4.31934-5.84961,0-9.35937-4.76953-9.35937-11.51953,0-6.92969,3.82471-12.05957,9.94433-12.05957,4.5,0,6.29981,1.93554,6.97461,3.375v-13.499ZM160.334,409.43066c0,6.165,3.19483,9.49512,7.06446,9.49512,5.93994,0,7.56006-4.0957,7.56006-10.21484,0-5.80469-1.395-9.13477-7.15479-9.13477C163.34863,399.57617,160.334,403.13086,160.334,409.43066Z"/><path class="cls-2" d="M196.24316,398.001c3.33008,11.60937,5.26465,18.26953,5.62452,20.249h.04541c.35986-1.7998,2.60986-8.86426,6.11962-20.249h2.42969c4.18506,13.90429,5.44483,17.90918,5.8501,19.66406h.04492c.62988-2.47461,1.665-5.84961,5.80469-19.66406h2.38477L217.4375,420.5h-2.4751c-2.42969-7.96484-5.355-17.72949-5.80469-19.79883h-.04492c-.45019,2.20508-3.01513,10.25977-5.93994,19.79883h-2.69971l-6.61474-22.499Z"/><path class="cls-2" d="M244.30176,416.22559A25.74111,25.74111,0,0,0,244.6167,420.5H242.457a14.76534,14.76534,0,0,1-.40478-3.46484c-.76514,1.665-2.74512,4.00488-7.37989,4.00488-5.21972,0-7.46972-3.375-7.46972-6.75,0-4.94922,3.8247-7.19922,10.5747-7.19922h4.27491V404.7959c0-2.25-.6753-5.26465-5.80518-5.26465-4.54443,0-5.21973,2.38477-5.71436,4.22949h-2.25c.27-2.47461,1.79981-6.2998,8.00977-6.2998,5.1294,0,8.00928,2.16015,8.00928,7.11035Zm-2.20459-7.2002H237.687c-4.99463,0-8.09961,1.30566-8.09961,5.17481,0,2.835,2.0249,4.7705,5.17481,4.7705,6.43506,0,7.335-4.27539,7.335-9.13476Z"/><path class="cls-2" d="M248.12793,398.001H252.313v-7.01953h2.24951V398.001H259.918v2.11523H254.5625v14.624c0,2.52051.54,3.96,2.7002,3.96a8.52148,8.52148,0,0,0,2.33984-.26954v1.9795a7.89133,7.89133,0,0,1-2.79.40527c-2.87988,0-4.49951-1.44043-4.49951-5.04V400.11621h-4.18506Z"/><path class="cls-2" d="M264.73242,409.52051c.04492,5.80469,2.97071,9.40527,7.29,9.40527,4.22949,0,5.66992-2.38574,6.47949-4.23047h2.29493c-.94532,2.96973-3.33008,6.34473-8.86426,6.34473-6.83985,0-9.49512-5.89453-9.49512-11.60938,0-6.43457,3.19531-11.96972,9.76465-11.96972,6.93066,0,9.13476,5.98535,9.13476,10.21484,0,.62988,0,1.25977-.04492,1.84473Zm14.26465-1.97949c-.04492-4.45508-2.47559-7.96485-6.88477-7.96485-4.63476,0-6.749,3.24024-7.24511,7.96485Z"/><path class="cls-2" d="M286.82813,404.12109c0-3.78027-.04493-5.40039-.04493-6.12011h2.2041c.04493.71972.09083,2.16015.09083,5.04a8.5231,8.5231,0,0,1,7.8291-5.58008v2.42969c-4.67969.31542-7.8291,3.55566-7.8291,8.91015V420.5h-2.25Z"/><path class="cls-2" d="M329.666,413.88574c-1.08008,3.96-3.68946,7.1543-8.7295,7.1543-5.625,0-9.62988-4.18457-9.62988-11.69922,0-6.165,3.28516-11.87988,9.90039-11.87988a8.04351,8.04351,0,0,1,8.459,7.20019h-2.29493c-.6748-2.61035-2.38476-5.085-6.209-5.085-4.77051,0-7.4707,4.04981-7.4707,9.67481,0,5.35449,2.5205,9.6748,7.24511,9.6748,3.28418,0,5.26465-1.665,6.43457-5.04Z"/><path class="cls-2" d="M353.33594,409.20605c0,6.25391-3.46485,11.834-10.16992,11.834-6.07422,0-9.8545-4.99414-9.8545-11.78906,0-6.43457,3.55469-11.79,10.07911-11.79C349.375,397.46094,353.33594,402.14063,353.33594,409.20605Zm-17.63965.04493c0,5.35449,2.87988,9.6748,7.64941,9.6748,4.85938,0,7.60547-4.00488,7.60547-9.6748,0-5.31055-2.70117-9.67481-7.69531-9.67481C338.126,399.57617,335.69629,403.85059,335.69629,409.251Z"/><path class="cls-2" d="M358.82617,398.001c3.33008,11.60937,5.26465,18.26953,5.625,20.249h.04492c.35938-1.7998,2.60938-8.86426,6.11914-20.249h2.42969c4.18555,13.90429,5.44531,17.90918,5.85059,19.66406h.04492c.62988-2.47461,1.665-5.84961,5.80469-19.66406h2.38476L380.02051,420.5h-2.47559c-2.42969-7.96484-5.35449-17.72949-5.80469-19.79883h-.04492c-.44922,2.20508-3.01465,10.25977-5.93945,19.79883h-2.69922l-6.61523-22.499Z"/><path class="cls-2" d="M392.1709,414.29c.76465,2.92578,2.835,4.68066,6.38965,4.68066,4.00488,0,5.625-1.8457,5.625-4.36523,0-2.56445-1.08008-3.8252-6.12012-5.04-5.80469-1.39453-7.24512-3.14941-7.24512-6.11914,0-3.10547,2.33985-5.98535,7.42578-5.98535,5.084,0,7.51368,3.10547,7.874,6.2998h-2.25c-.40528-1.88965-1.88965-4.22949-5.71387-4.22949-3.916,0-5.041,1.93457-5.041,3.73438,0,2.07031,1.08008,3.10546,5.53516,4.18554,6.34473,1.5293,7.91992,3.59961,7.91992,6.97461,0,4.09473-3.33008,6.61426-8.05468,6.61426-5.12989,0-8.00977-2.7002-8.63965-6.75Z"/><path class="cls-3" d="M161.08624,93.1783s-50.84345,48.46963-38.13259,78.51348,38.13259,26.87727,38.13259,26.87727,28.31055-3.76661,31.19938-24.5662S192.28562,145.24,161.08624,93.1783Z"/><path class="cls-3" d="M259.97211,93.1783s-50.84344,48.46963-38.13258,78.51348,38.13258,26.87727,38.13258,26.87727,28.31056-3.76661,31.19939-24.5662S291.1715,145.24,259.97211,93.1783Z"/><path class="cls-3" d="M358.858,93.1783s-50.84344,48.46963-38.13258,78.51348S358.858,198.56905,358.858,198.56905s28.31055-3.76661,31.19939-24.5662S390.05738,145.24,358.858,93.1783Z"/></svg>