<svg id="Layer_1" data-name="Layer 1" xmlns="http://www.w3.org/2000/svg" viewBox="0 0 374.8985 669.9421"><defs><style>.cls-1{fill:#231f20;}.cls-2{fill:#27aae1;}</style></defs><title>milk</title><path class="cls-1" d="M5.99621,174.96251Q59.75126,115.91246,110.54313,54.26284c2.0308-2.465-1.4871-6.0219-3.53553-3.53554Q56.232,112.3581,2.46067,171.427c-2.16216,2.37514,1.36379,5.9212,3.53554,3.53553Z"/><path class="cls-1" d="M112.28242,53.32423V3.70625c0-3.21726-5-3.22259-5,0v49.618c0,3.21726,5,3.22259,5,0Z"/><path class="cls-1" d="M112.80013,5.002c68.86193,2.51155,137.86654,4.95654,206.6882.14831,3.192-.223,3.21661-5.22472,0-5C250.66668,4.95857,181.66205,2.51358,112.80013.002c-3.218-.11736-3.21324,4.88281,0,5Z"/><path class="cls-1" d="M316.7041,3.7161l-2.66621,44.194c-.19389,3.21392,4.80679,3.20254,5,0l2.66621-44.194c.19389-3.21393-4.80679-3.20254-5,0Z"/><path class="cls-1" d="M110.16176,54.51469l204.55491,1.96344c3.2183.03089,3.221-4.96909,0-5L110.16176,49.51469c-3.21829-.03089-3.221,4.96908,0,5Z"/><path class="cls-1" d="M315.2138,47.24215c-24.94923,42.62917-49.61946,85.49378-77.56576,126.25968-1.824,2.66065,2.50715,5.16417,4.31735,2.5236,27.9463-40.76589,52.61653-83.63052,77.56577-126.25969,1.62871-2.78288-2.69114-5.30221-4.31736-2.52359Z"/><path class="cls-1" d="M313.88656,51.54593a774.90082,774.90082,0,0,1,52.16124,93.32015c1.37155,2.90839,5.68352.37338,4.31735-2.52359a774.90345,774.90345,0,0,0-52.16123-93.32016c-1.75318-2.68342-6.08421-.18076-4.31736,2.5236Z"/><path class="cls-1" d="M241.04606,177.43058q64.045-15.17884,127.33213-33.32073c3.08763-.88512,1.77482-5.71121-1.3292-4.82139q-63.27074,18.1376-127.33213,33.32072c-3.12967.74174-1.80469,5.56413,1.3292,4.8214Z"/><path class="cls-1" d="M5.21067,176.99824c38.92733-1.45525,77.91209-.7155,116.85577-.49774l118.77078.66412c3.21793.018,3.22171-4.982,0-5l-118.77078-.66412c-38.94367-.21776-77.92845-.95751-116.85577.49774-3.2076.11992-3.22329,5.1205,0,5Z"/><path class="cls-1" d="M234.50024,174.60015c5.87636,31.42976,4.52967,63.90018,4.72071,95.72909q.28484,47.45993.5697,94.91986l1.14748,191.18366.65741,109.5323c.0193,3.21631,5.01935,3.22331,5,0q-1.16376-193.896-2.32752-387.792c-.20917-34.85066,1.48809-70.48725-4.94639-104.90209-.59061-3.15889-5.41039-1.82106-4.82139,1.32919Z"/><path class="cls-1" d="M364.78614,145.01265l3.95775,384.96882L369.85124,637.693c.03306,3.2155,5.03314,3.22368,5,0l-3.95775-384.96882-1.10735-107.71148c-.03306-3.2155-5.03314-3.22368-5,0Z"/><path class="cls-1" d="M246.06548,668.94829c10.25631-1.3099,19.05025-5.864,28.93848-8.37506,10.7945-2.74124,22.102-3.93441,33.0472-6.00643q32.7494-6.19975,65.06834-14.4124c3.11732-.78929,1.79638-5.61277-1.3292-4.82139q-31.3741,7.94376-63.17032,14.05132c-10.393,1.98678-20.88029,3.51475-31.25813,5.56135-10.7488,2.11975-20.33947,7.60324-31.29637,9.00261-3.1482.40207-3.18835,5.4072,0,5Z"/><path class="cls-1" d="M1.65428,171.71864C-.83977,234.50234.10041,297.35976.56916,360.17246Q1.26606,453.55625,1.963,546.94l.78571,105.28437c.024,3.216,5.02406,3.22345,5,0C6.81451,527.049,5.32,401.863,5.03505,276.68441c-.07965-34.99532.23-69.99488,1.61923-104.96577.12782-3.21769-4.87241-3.212-5,0Z"/><path class="cls-1" d="M4.34436,655.34194c19.11837,3.57637,38.51953,3.66922,57.90159,3.77695,20.67187.1149,41.28307,1.0893,61.88988,2.71969,20.39943,1.614,40.75638,3.7076,61.13425,5.56405,19.62756,1.78809,39.76651,4.48314,59.27443.39554,3.14744-.6595,1.81546-5.48032-1.3292-4.8214-19.299,4.04384-39.52149,1.111-58.93128-.664-20.04856-1.83338-40.0778-3.88626-60.1482-5.4742-19.64372-1.55419-39.30476-2.56965-59.01179-2.7026-19.87762-.1341-39.83218.05445-59.45049-3.61543-3.14507-.58834-4.49307,4.22954-1.32919,4.82139Z"/><path class="cls-2" d="M55.62116,292.88268l5.27492-42.64634-12.8033,5.3033c6.8058,8.72787,12.90625,18.82287,13.22925,30.16582.21812,7.65985,9.87012,9.91056,13.976,3.7854a348.8858,348.8858,0,0,0,19.42118-32.69132l-13.976-3.78539q2.41681,19.90533,3.50151,39.92873c.52009,9.60109,15.52339,9.662,15,0q-1.08459-20.02215-3.50151-39.92873c-.8104-6.67458-10.15872-11.08976-13.976-3.7854A348.88533,348.88533,0,0,1,62.346,281.92007l13.976,3.78539c-.44568-15.65119-8.24757-28.74966-17.62265-40.77242-4.52992-5.80924-12.11886-.23023-12.8033,5.3033l-5.27492,42.64634c-.49805,4.02666,3.80359,7.5,7.5,7.5,4.46721,0,7.00049-3.46152,7.5-7.5Z"/><path class="cls-2" d="M105.6726,254.942q.97016,19.40389.38178,38.82384c-.29255,9.65552,14.70773,9.64626,15,0q.58837-19.41924-.38178-38.82384c-.48033-9.607-15.48321-9.66448-15,0Z"/><path class="cls-2" d="M127.30623,256.56955l-.84957,19.88414c-.27337,6.39818-1.88878,14.351-.39352,20.59491,1.61417,6.74045,8.34118,7.11665,14.08,7.8334a184.54029,184.54029,0,0,0,20.17574,1.36082c9.65581.14211,9.65953-14.85784,0-15-5.14094-.07566-10.27059-.32153-15.38869-.82263-.76761-.07515-7.26689-1.32841-7.56435-.93528q4.07674,5.74642,3.49615.88767l.12743-2.98262,1.31684-30.82041c.4124-9.65194-14.58844-9.63236-15,0Z"/><path class="cls-2" d="M168.70144,254.93189l.33468,46.919c.06883,9.64833,15.069,9.67026,15,0l-.33468-46.919c-.06882-9.64833-15.069-9.67026-15,0Z"/><path class="cls-2" d="M186.19764,283.99179a133.879,133.879,0,0,1,24.773-21.87653c7.94118-5.39213.44443-18.39447-7.57078-12.95206a149.58063,149.58063,0,0,0-27.80886,24.222c-6.40272,7.18757,4.16958,17.83268,10.6066,10.6066Z"/><path class="cls-2" d="M178.358,286.52455a182.55956,182.55956,0,0,1,24.05374,21.82108c6.58982,7.08257,17.17906-3.54269,10.6066-10.6066a203.44291,203.44291,0,0,0-27.08955-24.16654c-3.26555-2.44821-8.3494-.50113-10.26142,2.69064-2.281,3.80762-.53307,7.84458,2.69063,10.26142Z"/><path class="cls-2" d="M86.976,407.83959c.10705-21.12484,12.88254-44.08088,36.09458-45.26522,10.39507-.53039,20.27172,3.53647,26.16671,12.32936,6.59652,9.83927,6.42708,20.76116,7.85264,32.00084,1.49611,11.79592,11.54636,18.70254,16.46764,28.9308,5.92259,12.30939-1.93127,23.10424-12.52831,29.40782-21.64343,12.87447-47.71407,5.76019-69.9154-1.56548-6.42278-2.1193-13.91415-3.813-19.13034-8.36905-4.49773-3.92855-6.56387-9.90214-6.56514-15.76826-.00277-12.79336,9.427-22.76639,19.562-29.29063,5.39368-3.47209.38544-12.13187-5.04719-8.63471-11.03061,7.10076-21.243,17.4438-23.80167,30.79718C53.69942,445.1055,57.996,458.46822,69.17,465.57086c6.33425,4.02632,14.00957,6.03158,21.08424,8.34118a197.69046,197.69046,0,0,0,23.69123,6.46747c14.2128,2.75133,29.23346,3.05858,42.94607-2.16226,11.8168-4.499,23.46986-13.07679,27.74067-25.45957,5.32141-15.42891-6.30576-27.29032-14.303-38.87355-4.29443-6.22007-3.427-13.38484-4.39129-20.55623a60.77855,60.77855,0,0,0-5.79124-19.5421,38.22839,38.22839,0,0,0-29.41132-20.86012c-32.09113-4.20535-53.6102,25.48368-53.75933,54.91391-.03262,6.43576,9.96734,6.4436,10,0Z"/><path class="cls-2" d="M78.02424,384.78823c-4.16671.247-9.07712-5.56212-11.47454-8.56159-2.14541-2.68416-4.48-7.20895-2.17856-10.56283,2.12654-3.099,7.57235-1.9709,10.51441-.74739a16.1244,16.1244,0,0,1,8.78363,8.89532c2.2959,5.93959,11.96859,3.35856,9.64279-2.65839a26.68684,26.68684,0,0,0-15.768-15.87972c-7.02763-2.60546-16.48116-2.28433-21.14438,4.3649-4.25305,6.06436-3.40966,14.24189.48245,20.24424,4.25314,6.55914,12.73577,15.40383,21.14223,14.90546,6.3956-.37917,6.439-10.38174,0-10Z"/><path class="cls-2" d="M159.19629,368.98786c.361-5.89146,16.1164-8.63048,17.58524-2.12773,1.77871,7.87465-10.33905,16.66042-15.68557,20.64383-5.10184,3.80111-.12151,12.48563,5.04719,8.63471,10.26478-7.64774,30.354-25.51767,16.27805-38.94146-9.8418-9.3858-32.369-2.1774-33.22491,11.79065-.39384,6.42738,9.60759,6.40408,10,0Z"/><path class="cls-2" d="M97.02093,423.00326A18.17978,18.17978,0,0,0,76.2422,434.06839c-3.53726,9.12267,1.83172,18.06336,11.58362,18.92515,8.57014.75736,18.34427-4.532,20.16383-13.42108,1.73823-8.49178-4.9923-17.62317-13.89707-17.19887-6.40676.30527-6.44381,10.307,0,10,2.86507-.13651,4.76411,2.89236,4.00285,5.6087-.99474,3.54939-5.77413,5.23848-9.077,5.08958-8.28071-.3733-1.36471-11.88306,5.3441-10.42582,6.27379,1.36274,8.95421-8.27527,2.6584-9.64279Z"/><path class="cls-2" d="M145.28,424.95063c-9.9313,2.734-14.14061,13.31987-9.74213,22.48141a17.28863,17.28863,0,0,0,22.38312,8.2498c8.33746-3.54128,12.56848-13.57609,8.82655-21.95161a15.12314,15.12314,0,0,0-21.61671-6.43933c-5.41995,3.43756-.40879,12.09512,5.04719,8.6347,7.12571-4.51943,11.15254,7.38063,3.86716,10.56562-8.14586,3.56118-15.03558-9.4398-6.10678-11.8978,6.19666-1.70587,3.56558-11.35618-2.6584-9.64279Z"/><path class="cls-2" d="M100.9274,385.02825a16.85421,16.85421,0,0,0-3.194,10.21314c.09784,3.76056,1.23145,8.5298,5.35527,9.68116,4.32075,1.20634,7.7357-2.4355,8.59367-6.3456a18.61706,18.61706,0,0,0-1.64182-12.0544c-1.14237-2.44677-4.66349-3.06737-6.84095-1.79375-2.50815,1.467-2.94041,4.385-1.79376,6.84094a7.8291,7.8291,0,0,1,.6721,2.74238,7.61481,7.61481,0,0,1-.02192,1.43526c-.22984,1.88129-.72274.0656,1.299-.3875h2.6584l-.53256-.16024,2.20634,1.28586c.75964.79467.06789.031.0864-.49569a16.62055,16.62055,0,0,1,.04854-2.32228,8.49118,8.49118,0,0,1,1.74-3.59208c1.59746-2.17941.3665-5.57742-1.79376-6.84095-2.53543-1.483-5.23972-.39079-6.84094,1.79375Z"/><path class="cls-2" d="M132.38051,383.937a15.41252,15.41252,0,0,0-3.97313,11.64389c.41513,4.22754,2.58,9.16311,7.55858,9.05422,4.72-.10322,7.70616-4.94408,8.14519-9.162a17.9222,17.9222,0,0,0-3.03047-11.12828c-3.40815-5.44175-12.06387-.4281-8.63471,5.04719a10.4645,10.4645,0,0,1,1.71491,4.0304c.05891.42308-.06525,1.00293.02653,1.39647q-.07251-.06423.02228-.02958-.99044,1.40241,1.01319-.24348l2.52359.68265c1.57491,1.08261.4289.5822.60416-.2582.09876-.47353-.06127-1.0905.00748-1.57528a4.93791,4.93791,0,0,1,1.09347-2.387,5.12823,5.12823,0,0,0,0-7.07107c-1.79958-1.79958-5.30447-2.058-7.07107,0Z"/></svg>