<svg id="Layer_1" data-name="Layer 1" xmlns="http://www.w3.org/2000/svg" viewBox="0 0 223 217.25709"><defs><style>.cls-1,.cls-4,.cls-5{fill:none;stroke-linecap:round;}.cls-1,.cls-4{stroke:#703000;}.cls-1{stroke-linejoin:round;stroke-width:12px;}.cls-2{fill:#703000;}.cls-3{fill:#f2b181;}.cls-4,.cls-5{stroke-miterlimit:10;}.cls-4{stroke-width:14px;}.cls-5{stroke:#000;stroke-width:4px;}</style></defs><title>monkey</title><path class="cls-1" d="M119.08187,95.3137S156,96.25709,164,145.25709"/><path class="cls-1" d="M57,94.25625S19,132.25709,6,75.25709"/><path class="cls-2" d="M65,67.25709s-56,92.51042,27,107c0,0,75-4.45833,29-107C121,67.25709,93,91.77792,65,67.25709Z"/><path class="cls-3" d="M72,70.25709s21,12.85714,35,0c0,0,51,81.81818-17,90C90,160.25709,31,149.73761,72,70.25709Z"/><path class="cls-2" d="M91,90.25709s36,7,40-50c0,0-2-44-40-40s-39,39-39,39S55,91.25709,91,90.25709Z"/><path class="cls-2" d="M125,66.25709s17,7,21-13-16-17-16-17Z"/><path class="cls-2" d="M57.52893,66.25709s-17,7-21-13,16-17,16-17Z"/><path class="cls-4" d="M131,137.25709s32-2,32-66,41-37,41-37,12,8,12,21-5,29-32,15"/><path class="cls-3" d="M55,60.72727s-10.26526,4.22687-12.68061-7.8499,9.66142-10.26526,9.66142-10.26526Z"/><path class="cls-3" d="M129,60.72727s10.26526,4.22687,12.68061-7.8499-9.66142-10.26526-9.66142-10.26526Z"/><path class="cls-1" d="M71,163.25709s-10,18,11,39l-20,5"/><path class="cls-1" d="M115,167.25709s10,18-11,39l20,5"/><ellipse class="cls-3" cx="91" cy="67.12276" rx="31" ry="24.13433"/><ellipse class="cls-3" cx="91.5" cy="39.09291" rx="23.5" ry="17.83582"/><path class="cls-5" d="M74,72.25709s18,14,34,0"/><circle cx="82" cy="36.25709" r="5"/><circle cx="99" cy="37.25709" r="5"/></svg>