<svg id="Layer_1" data-name="Layer 1" xmlns="http://www.w3.org/2000/svg" viewBox="0 0 517 517"><defs><style>.cls-1{fill:#93278f;}.cls-2{fill:#fff;}.cls-3,.cls-5,.cls-6{fill:#231f20;}.cls-3,.cls-6{stroke:#231f20;}.cls-3,.cls-4,.cls-5,.cls-6{stroke-miterlimit:10;}.cls-3{stroke-width:7px;}.cls-4{fill:none;}.cls-4,.cls-5{stroke:#ec1c24;stroke-width:13px;}.cls-6{stroke-width:5px;}</style></defs><title>nutella4</title><path class="cls-1" d="M258.5,516.5058c-142.5,0-258-115.5-258-258a257.961,257.961,0,0,1,75.6-182.4c100.8-100.8,264.1-100.8,364.9,0s100.8,264.1,0,364.9A256.49776,256.49776,0,0,1,258.5,516.5058Z"/><path class="cls-2" d="M258.5,1.0058c142.3.1,257.5,115.5,257.4,257.7a257.624,257.624,0,0,1-157.2,237c-131.1,55.3-282.1-6.2-337.4-137.3-55.2-130.9,6.1-281.9,136.9-337.3a258.099,258.099,0,0,1,100.3-20.1m0-1c-142.8,0-258.5,115.7-258.5,258.5s115.7,258.5,258.5,258.5,258.5-115.7,258.5-258.5S401.3.0058,258.5.0058Z"/><polygon class="cls-1" points="293.4 141.706 280.5 101.306 270.5 104.606 281.2 136.606 293.4 141.706"/><path class="cls-2" d="M88.46729,222.8042h11.83056c9.791,0,16.57373,6.833,16.57373,17.542,0,10.6582-6.62939,18.1543-16.62451,18.1543H88.46729Zm2.75341,33.14648h8.61817c9.43408,0,14.0747-6.62939,14.0747-15.45117,0-7.85351-4.18164-15.14551-14.0747-15.14551H91.2207Z"/><path class="cls-2" d="M124.32031,220.91748h2.54981v4.94629h-2.54981Zm0,12.08545h2.54981v25.49756h-2.54981Z"/><path class="cls-2" d="M134.979,251.46338c.8667,3.31445,3.21241,5.30322,7.24121,5.30322,4.53858,0,6.37452-2.09082,6.37452-4.94629,0-2.90674-1.22412-4.33447-6.93555-5.71142-6.57813-1.58106-8.21-3.56983-8.21-6.93555,0-3.51855,2.65137-6.78223,8.41406-6.78223,5.76221,0,8.51611,3.51856,8.92383,7.13916h-2.54932c-.459-2.1416-2.14209-4.79345-6.47656-4.79345-4.43652,0-5.71143,2.19287-5.71143,4.23242,0,2.34619,1.22413,3.519,6.27247,4.74267,7.19043,1.73389,8.97509,4.07959,8.97509,7.9043,0,4.64063-3.77392,7.49609-9.12793,7.49609-5.81347,0-9.07714-3.05957-9.791-7.64892Z"/><path class="cls-2" d="M159.81543,254.72705v13.97217h-2.5498V239.27539c0-2.09082,0-4.33447-.05127-6.27246h2.499c.102.96924.102,2.499.102,4.58984,1.58057-3.06006,4.38525-5.20166,8.9751-5.20166,6.01709,0,10.19873,5.04834,10.19873,12.69776,0,9.1792-4.89551,14.02343-11.06592,14.02343C163.436,259.1123,161.09033,257.12354,159.81543,254.72705Zm16.47119-9.53613c0-5.91553-2.85547-10.35205-7.9043-10.35205-6.17041,0-8.72021,3.87549-8.72021,10.811,0,6.833,1.98926,11.06592,8.36328,11.06592C173.3291,256.71582,176.28662,252.228,176.28662,245.19092Z"/><path class="cls-2" d="M185.3667,258.50049v-37.583h2.5498v37.583Z"/><path class="cls-2" d="M213.415,253.65576a29.164,29.164,0,0,0,.35693,4.84473h-2.44775a16.752,16.752,0,0,1-.459-3.92676c-.86669,1.88672-3.11084,4.53857-8.36328,4.53857-5.915,0-8.46484-3.8247-8.46484-7.64892,0-5.60938,4.33447-8.15918,11.9834-8.15918h4.84472v-2.60107c0-2.54981-.76464-5.96631-6.57812-5.96631-5.15088,0-5.91553,2.70263-6.47656,4.79345h-2.54981c.30615-2.80468,2.04-7.13916,9.07715-7.13916,5.81348,0,9.07715,2.44776,9.07715,8.05713Zm-2.499-8.15918H205.919c-5.66065,0-9.1792,1.479-9.1792,5.86475,0,3.2124,2.29492,5.40527,5.86425,5.40527,7.29248,0,8.312-4.84424,8.312-10.352Z"/><path class="cls-2" d="M240.59766,251.00439c-1.22412,4.48731-4.18164,8.10791-9.89307,8.10791-6.37451,0-10.91309-4.74218-10.91309-13.2583,0-6.98632,3.72266-13.46289,11.21924-13.46289,6.47608,0,9.12793,4.58936,9.58692,8.15918h-2.60059c-.76514-2.95752-2.70312-5.7622-7.0376-5.7622-5.40527,0-8.46484,4.58935-8.46484,10.96386,0,6.06836,2.85547,10.96387,8.21,10.96387,3.72266,0,5.96631-1.88721,7.29248-5.71143Z"/><path class="cls-2" d="M247.33057,246.05762c.05078,6.57861,3.36572,10.6582,8.26123,10.6582,4.79394,0,6.42578-2.70264,7.34375-4.79346h2.60058c-1.07129,3.36524-3.77441,7.18994-10.04638,7.18994-7.75147,0-10.76026-6.68017-10.76026-13.15673,0-7.292,3.62061-13.56446,11.06592-13.56446,7.854,0,10.35205,6.78223,10.35205,11.57569,0,.71386,0,1.42822-.05078,2.09082Zm16.16552-2.24366c-.05078-5.04833-2.80468-9.02587-7.80273-9.02587-5.25244,0-7.64893,3.67138-8.21,9.02587Z"/><path class="cls-2" d="M272.37207,239.58154c0-2.19287,0-4.58984-.05176-6.57861h2.499c.05078.86719.15332,3.06006.10254,4.53857a7.97331,7.97331,0,0,1,7.64843-5.15039c3.57032,0,6.375,1.78467,7.39453,5.04834a8.67871,8.67871,0,0,1,8.3125-5.04834c3.92676,0,8.00586,2.24366,8.00586,9.332v16.77735h-2.5498V242.0293c0-3.417-1.22363-7.13965-5.96582-7.13965-4.94727,0-7.19043,3.978-7.19043,8.92431v14.68653h-2.499V242.08008c0-3.72266-1.12208-7.19043-5.81348-7.19043-4.94629,0-7.34277,4.38574-7.34277,9.5874v14.02344h-2.54981Z"/><path class="cls-2" d="M315.21191,246.05762c.05079,6.57861,3.36524,10.6582,8.26075,10.6582,4.79394,0,6.42578-2.70264,7.34375-4.79346H333.417c-1.07129,3.36524-3.77441,7.18994-10.0459,7.18994-7.75195,0-10.76074-6.68017-10.76074-13.15673,0-7.292,3.6211-13.56446,11.06641-13.56446,7.85351,0,10.35156,6.78223,10.35156,11.57569,0,.71386,0,1.42822-.05078,2.09082Zm16.165-2.24366c-.05078-5.04833-2.80468-9.02587-7.80273-9.02587-5.252,0-7.64844,3.67138-8.21,9.02587Z"/><path class="cls-2" d="M340.252,239.42822c0-2.24365,0-4.38525-.05078-6.42529h2.499c.10156.81592.15234,4.13086.10156,4.84473,1.12207-2.60108,3.21289-5.45655,8.46484-5.45655,4.53906,0,8.56738,2.54981,8.56738,9.58692v16.52246h-2.5498V242.38623c0-4.53857-1.88672-7.49658-6.32324-7.49658-6.06836,0-8.15918,5.04883-8.15918,10.60693v13.00391H340.252Z"/><path class="cls-2" d="M364.22266,233.00293h4.74218v-7.95508h2.54981v7.95508H377.583v2.397h-6.06836v16.57324c0,2.85547.6123,4.48731,3.05957,4.48731a9.65049,9.65049,0,0,0,2.65234-.30566v2.24365a8.95692,8.95692,0,0,1-3.16211.459c-3.26367,0-5.09961-1.63183-5.09961-5.71142V235.3999h-4.74218Z"/><path class="cls-2" d="M416.69824,245.70068c0,7.08838-3.92676,13.41162-11.52539,13.41162-6.88379,0-11.168-5.66015-11.168-13.36035,0-7.29248,4.0293-13.36084,11.42285-13.36084C412.21094,232.39111,416.69824,237.69482,416.69824,245.70068ZM396.708,245.752c0,6.06836,3.26367,10.96387,8.66894,10.96387,5.50782,0,8.61817-4.53857,8.61817-10.96387,0-6.01757-3.05957-10.96386-8.71973-10.96386C399.46191,234.78809,396.708,239.63232,396.708,245.752Z"/><path class="cls-2" d="M424.09473,258.50049V235.3999H419.709v-2.397h4.38575v-3.62061c0-4.28369,1.22363-8.97509,6.93554-8.97509a9.51632,9.51632,0,0,1,2.49805.35693v2.44775a12.6747,12.6747,0,0,0-2.75293-.30566c-3.00879,0-4.13086,2.1416-4.13086,6.57813v3.51855h5.5586v2.397h-5.5586v23.10059Z"/><path class="cls-2" d="M161.24414,300.62793c0-2.24316,0-4.38477-.05127-6.4248h2.499c.10206.81542.15284,4.13085.10206,4.84472,1.12158-2.60156,3.2124-5.457,8.46484-5.457,4.53857,0,8.56738,2.54981,8.56738,9.58691V319.7002h-2.5498V303.58594c0-4.53809-1.88672-7.4961-6.32324-7.4961-6.06836,0-8.15918,5.04883-8.15918,10.60645V319.7002h-2.54981Z"/><path class="cls-2" d="M206.377,314.85547a29.15749,29.15749,0,0,0,.35694,4.84473h-2.44776a16.743,16.743,0,0,1-.459-3.92676c-.8667,1.88672-3.11084,4.53906-8.36328,4.53906-5.915,0-8.46485-3.8252-8.46485-7.64941,0-5.60938,4.33448-8.15918,11.9834-8.15918h4.84473v-2.60059c0-2.5498-.76465-5.9668-6.57813-5.9668-5.15088,0-5.91552,2.70313-6.47656,4.794h-2.5498c.30615-2.80469,2.04-7.13965,9.07714-7.13965,5.81348,0,9.07715,2.44824,9.07715,8.05762Zm-2.499-8.15918h-4.99707c-5.66065,0-9.1792,1.47949-9.1792,5.86523,0,3.21192,2.29492,5.40528,5.86426,5.40528,7.29248,0,8.312-4.84473,8.312-10.35254Z"/><path class="cls-2" d="M210.71436,294.20313H215.457v-7.95508h2.54981v7.95508h6.06836v2.39648h-6.06836v16.57324c0,2.85547.61181,4.48731,3.05957,4.48731a9.64467,9.64467,0,0,0,2.65185-.30567v2.24414a8.96682,8.96682,0,0,1-3.16162.459c-3.26367,0-5.09961-1.63184-5.09961-5.71192V296.59961h-4.74267Z"/><path class="cls-2" d="M229.27734,282.11719h2.54981v4.94629h-2.54981Zm0,12.08594h2.54981V319.7002h-2.54981Z"/><path class="cls-2" d="M239.78223,294.20313c4.13086,11.67773,6.98632,19.63281,7.95507,22.89648h.05127c.561-1.88672,3.41651-9.48535,8.36329-22.89648h2.70263l-9.63818,25.49707h-3.05957l-9.07715-25.49707Z"/><path class="cls-2" d="M264.416,307.25781c.05078,6.57813,3.36523,10.65821,8.26074,10.65821,4.79394,0,6.42578-2.70313,7.34375-4.79395h2.60058c-1.07129,3.36523-3.77441,7.19043-10.04589,7.19043-7.752,0-10.76075-6.68066-10.76075-13.15723,0-7.292,3.6211-13.56445,11.06641-13.56445,7.85352,0,10.35156,6.78223,10.35156,11.57617,0,.71387,0,1.42774-.05078,2.09082Zm16.165-2.24414c-.05078-5.04785-2.80468-9.02539-7.80273-9.02539-5.252,0-7.64844,3.6709-8.21,9.02539Z"/><path class="cls-2" d="M290.06836,312.66309c.86621,3.31445,3.21191,5.30371,7.24121,5.30371,4.53809,0,6.374-2.09082,6.374-4.94629,0-2.90723-1.22363-4.335-6.93554-5.71192-6.57813-1.58105-8.21-3.56933-8.21-6.93554,0-3.51856,2.65136-6.78223,8.41406-6.78223s8.5166,3.51856,8.92383,7.13965h-2.54883c-.459-2.1416-2.14258-4.794-6.47656-4.794-4.43653,0-5.71192,2.19336-5.71192,4.23243,0,2.34668,1.22461,3.51953,6.27246,4.74316,7.19043,1.7334,8.97559,4.0791,8.97559,7.9043,0,4.64062-3.77442,7.49609-9.12793,7.49609-5.81348,0-9.07715-3.05957-9.791-7.64941Z"/><path class="cls-2" d="M355.80273,296.75293l-8.873,13.76855c-4.335,6.68067-7.44531,9.68848-13.15625,9.68848a9.05423,9.05423,0,0,1-9.23047-9.07715c0-4.334,1.98926-7.64843,9.53613-11.72851,5.20117-3.36524,7.13965-4.793,7.13965-8.05664,0-2.80469-1.78516-5.50782-5.20215-5.50782-3.21289,0-5.45605,1.98926-5.45605,5.71094,0,2.29492,1.58105,4.4375,4.64062,7.34375L356.3125,319.7002h-3.82422l-19.27637-19.02051c-3.31445-3.16211-5.25195-5.50781-5.25195-9.12891a7.77615,7.77615,0,0,1,8.15918-8.05664,7.58438,7.58438,0,0,1,7.751,7.85352c0,3.46679-1.88672,5.71093-8.15918,9.58691-7.19043,4.0791-8.41406,6.57813-8.41406,9.99512a6.86385,6.86385,0,0,0,6.47656,6.78222c4.12988,0,6.88379-1.42773,11.47363-8.77148l7.59766-12.1875Z"/><path class="cls-2" d="M133.21973,368.457c.05078,6.5791,3.36572,10.6582,8.26123,10.6582,4.79345,0,6.42529-2.70312,7.34326-4.793h2.60058c-1.0708,3.36523-3.77343,7.18945-10.04589,7.18945-7.75147,0-10.76026-6.67969-10.76026-13.15625,0-7.292,3.62061-13.56445,11.06592-13.56445,7.85352,0,10.352,6.78222,10.352,11.57519,0,.71387,0,1.42871-.05078,2.09082Zm16.165-2.24316c-.05079-5.04883-2.80469-9.02637-7.80225-9.02637-5.25244,0-7.64893,3.67188-8.21,9.02637Z"/><path class="cls-2" d="M158.26074,361.82813c0-2.24415,0-4.38575-.05127-6.42579h2.499c.10205.81641.15283,4.13086.10205,4.84473,1.12158-2.60059,3.2124-5.45605,8.46484-5.45605,4.53857,0,8.56738,2.5498,8.56738,9.58691v16.52246H175.293V364.78613c0-4.53906-1.88672-7.49707-6.32324-7.49707-6.06836,0-8.15918,5.04883-8.15918,10.60742v13.00391h-2.54981Z"/><path class="cls-2" d="M205.89209,343.31738v30.23926c0,2.44824,0,4.79395.05078,7.34375h-2.44775c-.102-.6123-.15283-3.00879-.15283-4.28418-1.27491,3.11133-4.13086,4.89551-8.56739,4.89551-6.62939,0-10.60693-5.40527-10.60693-13.05469,0-7.85254,4.335-13.666,11.27-13.666,5.09961,0,7.13916,2.19238,7.9043,3.82421V343.31738Zm-19.021,25.03809c0,6.98633,3.62061,10.75976,8.00586,10.75976,6.73145,0,8.56739-4.64062,8.56739-11.57617,0-6.57812-1.58106-10.35156-8.1084-10.35156C190.2876,357.1875,186.87109,361.21582,186.87109,368.35547Z"/><path class="cls-2" d="M231.39209,376.05566a29.16907,29.16907,0,0,0,.35693,4.84473h-2.44775a16.76007,16.76007,0,0,1-.459-3.92676c-.8667,1.88672-3.11084,4.53809-8.36329,4.53809-5.915,0-8.46484-3.82422-8.46484-7.64844,0-5.61035,4.33447-8.15918,11.98389-8.15918h4.84424v-2.60156c0-2.54981-.76514-5.96582-6.57813-5.96582-5.15088,0-5.91553,2.70215-6.47656,4.793h-2.54981c.30616-2.80469,2.04-7.13867,9.07715-7.13867,5.81348,0,9.07715,2.44726,9.07715,8.05664Zm-2.49854-8.15918H223.896c-5.66065,0-9.1792,1.47852-9.1792,5.86426,0,3.21289,2.29492,5.40528,5.86425,5.40528,7.29249,0,8.3125-4.84375,8.3125-10.35157Z"/><path class="cls-2" d="M239.80859,361.82813c0-2.24415,0-4.38575-.05127-6.42579h2.499c.102.81641.15283,4.13086.102,4.84473,1.12158-2.60059,3.2124-5.45605,8.46484-5.45605,4.53858,0,8.56739,2.5498,8.56739,9.58691v16.52246h-2.54981V364.78613c0-4.53906-1.88672-7.49707-6.32324-7.49707-6.06836,0-8.15918,5.04883-8.15918,10.60742v13.00391h-2.54981Z"/><path class="cls-2" d="M287.23633,379.166c0,8.15918-3.62012,12.44336-11.01465,12.44336-6.62891,0-9.38281-3.72266-9.99512-7.59864h2.60059c.918,3.51856,3.82519,5.20117,7.49609,5.20117,6.62989,0,8.46582-4.2832,8.46582-10.75976v-2.65137c-1.377,3.31445-3.876,5.09961-8.5166,5.09961-5.96582,0-10.55566-4.84473-10.55566-12.749,0-8.56739,4.8955-13.36035,10.91308-13.36035,5.20117,0,7.44532,2.44726,8.15918,4.4873.05078-1.47852.10157-3.26367.15235-3.876h2.39746c0,.918-.10254,4.94727-.10254,7.39454ZM268.41992,368.0498c0,6.06836,3.21192,10.45313,8.10742,10.45313,6.375,0,8.3125-4.23242,8.3125-10.86133,0-6.73144-2.04-10.4541-8.15918-10.4541C270.81641,357.1875,268.41992,362.23633,268.41992,368.0498Z"/><path class="cls-2" d="M296.16309,368.457c.05078,6.5791,3.36523,10.6582,8.26074,10.6582,4.79394,0,6.42578-2.70312,7.34375-4.793h2.60058c-1.07128,3.36523-3.77441,7.18945-10.04589,7.18945-7.752,0-10.76075-6.67969-10.76075-13.15625,0-7.292,3.6211-13.56445,11.06641-13.56445,7.85352,0,10.35156,6.78222,10.35156,11.57519,0,.71387,0,1.42871-.05078,2.09082Zm16.165-2.24316c-.05079-5.04883-2.80469-9.02637-7.80274-9.02637-5.252,0-7.64844,3.67188-8.21,9.02637Z"/><path class="cls-2" d="M321.2041,362.33789c0-4.2832-.05176-6.11914-.05176-6.93555h2.499c.05078.81641.10254,2.44825.10254,5.71192a9.65819,9.65819,0,0,1,8.873-6.32324v2.7539c-5.30371.35645-8.873,4.02832-8.873,10.09668v13.25879H321.2041Z"/><path class="cls-2" d="M337.88086,368.457c.05078,6.5791,3.36523,10.6582,8.26074,10.6582,4.79395,0,6.42578-2.70312,7.34375-4.793h2.60059c-1.07129,3.36523-3.77442,7.18945-10.0459,7.18945-7.75195,0-10.76074-6.67969-10.76074-13.15625,0-7.292,3.62109-13.56445,11.0664-13.56445,7.85352,0,10.35157,6.78222,10.35157,11.57519,0,.71387,0,1.42871-.05079,2.09082Zm16.165-2.24316c-.05078-5.04883-2.80469-9.02637-7.80274-9.02637-5.25195,0-7.64843,3.67188-8.21,9.02637Z"/><path class="cls-2" d="M382.86035,343.31738v30.23926c0,2.44824,0,4.79395.05078,7.34375h-2.44824c-.10156-.6123-.15234-3.00879-.15234-4.28418-1.27539,3.11133-4.13086,4.89551-8.56739,4.89551-6.62988,0-10.60742-5.40527-10.60742-13.05469,0-7.85254,4.335-13.666,11.27051-13.666,5.09961,0,7.13867,2.19238,7.9043,3.82421V343.31738Zm-19.02148,25.03809c0,6.98633,3.62109,10.75976,8.00586,10.75976,6.73144,0,8.56738-4.64062,8.56738-11.57617,0-6.57812-1.58106-10.35156-8.1084-10.35156C367.25586,357.1875,363.83887,361.21582,363.83887,368.35547Z"/><path class="cls-2" d="M181.10889,435.06348c.8667,3.31445,3.2124,5.30273,7.24121,5.30273,4.53857,0,6.37451-2.09082,6.37451-4.94629,0-2.90625-1.22412-4.335-6.93555-5.71094-6.57812-1.58105-8.21-3.57031-8.21-6.93554,0-3.51856,2.65137-6.78223,8.41406-6.78223,5.76221,0,8.51612,3.51856,8.92383,7.13867h-2.54931c-.459-2.1416-2.14209-4.793-6.47657-4.793-4.43652,0-5.71142,2.19239-5.71142,4.23243,0,2.3457,1.22412,3.51855,6.27246,4.74218,7.19043,1.73438,8.9751,4.08008,8.9751,7.9043,0,4.64063-3.77393,7.49609-9.12793,7.49609-5.81348,0-9.07715-3.05957-9.791-7.64843Z"/><path class="cls-2" d="M205.94531,438.32715v13.97168h-2.5498V422.875c0-2.09082,0-4.334-.05127-6.27246h2.499c.10205.96973.10205,2.499.10205,4.58984,1.58057-3.05957,4.38526-5.20117,8.9751-5.20117,6.01709,0,10.19873,5.04785,10.19873,12.69727,0,9.17968-4.89551,14.02343-11.06592,14.02343C209.56592,442.71191,207.22021,440.72363,205.94531,438.32715ZM222.4165,428.791c0-5.916-2.85546-10.35254-7.90429-10.35254-6.17041,0-8.72022,3.876-8.72022,10.81152,0,6.833,1.98926,11.06543,8.36328,11.06543C219.459,440.31543,222.4165,435.82813,222.4165,428.791Z"/><path class="cls-2" d="M232.36328,429.65723c.05078,6.5791,3.36572,10.6582,8.26123,10.6582,4.79346,0,6.42529-2.70313,7.34326-4.793h2.60059c-1.0708,3.36524-3.77344,7.18945-10.0459,7.18945-7.75146,0-10.76025-6.67968-10.76025-13.15625,0-7.292,3.6206-13.56445,11.06592-13.56445,7.85351,0,10.35205,6.78223,10.35205,11.5752,0,.71386,0,1.42871-.05079,2.09082Zm16.165-2.24317c-.05078-5.04883-2.80469-9.02636-7.80225-9.02636-5.25244,0-7.64892,3.67187-8.21,9.02636Z"/><path class="cls-2" d="M276.4248,434.60449c-1.22363,4.48731-4.18164,8.10742-9.89257,8.10742-6.375,0-10.91358-4.74218-10.91358-13.25878,0-6.98536,3.72315-13.46192,11.21924-13.46192,6.47656,0,9.12793,4.58887,9.58691,8.15918h-2.60058c-.76465-2.958-2.70313-5.76269-7.03711-5.76269-5.40527,0-8.46533,4.58984-8.46533,10.96386,0,6.06836,2.856,10.96387,8.21045,10.96387,3.72265,0,5.96582-1.88672,7.292-5.71094Z"/><path class="cls-2" d="M283.00488,404.51758h2.54981v4.94629h-2.54981Zm0,12.085h2.54981v25.49805h-2.54981Z"/><path class="cls-2" d="M294.47949,429.65723c.05078,6.5791,3.36524,10.6582,8.26074,10.6582,4.79395,0,6.42579-2.70313,7.34375-4.793h2.60059c-1.07129,3.36524-3.77441,7.18945-10.0459,7.18945-7.75195,0-10.76074-6.67968-10.76074-13.15625,0-7.292,3.62109-13.56445,11.06641-13.56445,7.85351,0,10.35156,6.78223,10.35156,11.5752,0,.71386,0,1.42871-.05078,2.09082Zm16.165-2.24317c-.05078-5.04883-2.80469-9.02636-7.80273-9.02636-5.252,0-7.64844,3.67187-8.21,9.02636Z"/><path class="cls-2" d="M320.13184,435.06348c.86718,3.31445,3.21289,5.30273,7.24121,5.30273,4.53906,0,6.375-2.09082,6.375-4.94629,0-2.90625-1.22461-4.335-6.93555-5.71094-6.57812-1.58105-8.21-3.57031-8.21-6.93554,0-3.51856,2.65137-6.78223,8.41406-6.78223,5.76172,0,8.51563,3.51856,8.92383,7.13867h-2.5498c-.459-2.1416-2.14161-4.793-6.47657-4.793-4.43652,0-5.71093,2.19239-5.71093,4.23243,0,2.3457,1.22363,3.51855,6.27246,4.74218,7.19043,1.73438,8.97461,4.08008,8.97461,7.9043,0,4.64063-3.77344,7.49609-9.12793,7.49609-5.81348,0-9.07715-3.05957-9.791-7.64843Z"/><circle class="cls-2" cx="258.3611" cy="122.90967" r="84.02645"/><rect class="cls-3" x="215.48469" y="105.19551" width="85.75281" height="61.39919"/><polygon class="cls-3" points="208.018 100.342 310.343 100.342 258.312 63.067 208.018 100.342"/><circle class="cls-4" cx="259.18063" cy="123.35139" r="83.58473"/><line class="cls-5" x1="315.40609" y1="184.59127" x2="202.95516" y2="61.22806"/><polygon class="cls-6" points="281.057 79.028 281.057 65.325 290.765 65.325 290.765 84.738 290.765 98.083 281.057 79.028"/></svg>