<svg id="Layer_1" data-name="Layer 1" xmlns="http://www.w3.org/2000/svg" viewBox="0 0 517 517"><defs><style>.cls-1{fill:#93278f;}.cls-2{fill:#fff;}.cls-3{fill:#603813;stroke:#603813;}.cls-3,.cls-4,.cls-6,.cls-7{stroke-miterlimit:10;stroke-width:7px;}.cls-4{fill:#006838;stroke:#006838;}.cls-5{fill:#6d6e70;}.cls-6,.cls-7{fill:none;}.cls-6{stroke:#6d6e70;}.cls-7{stroke:#3b2314;}</style></defs><title>nutella2</title><path class="cls-1" d="M258.5,516.5C116.0105,516.49994.5,400.98938.5,258.49988A258,258,0,0,1,76.06641,76.06641c100.75529-100.75529,264.1119-100.75529,364.86718,0s100.75531,264.11187,0,364.86718A256.313,256.313,0,0,1,258.5,516.5Z"/><path class="cls-2" d="M258.5,1c142.25092.09075,257.49451,115.48149,257.40375,257.73242a257.568,257.568,0,0,1-157.1734,237.03235C227.65308,551.02686,76.59519,489.56647,21.33312,358.4892-33.87311,227.54436,27.40383,76.62849,158.26965,21.2352A255.88786,255.88786,0,0,1,258.5,1m0-1C115.73441,0,0,115.73441,0,258.5S115.73441,517,258.5,517,517,401.26563,517,258.5,401.26563,0,258.5,0Z"/><path class="cls-2" d="M132.40527,225.20557h10.249c8.458,0,14.30957,5.895,14.30957,15.13086,0,9.18945-5.71875,15.66357-14.3584,15.66357h-10.2002Zm2.46778,28.52685h7.38183c8.09082,0,12.06446-5.69043,12.06446-13.2666,0-6.7373-3.582-12.99268-12.06348-12.99268h-7.38281Z"/><path class="cls-2" d="M163.61035,245.27734c.043,5.61573,2.87207,9.12012,7.07324,9.12012a6.13783,6.13783,0,0,0,6.28516-4.09961h2.333c-.92188,2.90186-3.25781,6.23047-8.708,6.23047-6.707,0-9.31738-5.76172-9.31738-11.35889,0-6.31152,3.13672-11.71728,9.58105-11.71728,6.79883,0,8.9668,5.84863,8.9668,10.01855,0,.61963,0,1.23291-.04492,1.80664Zm13.83789-1.978c-.04394-4.31983-2.3916-7.72608-6.67773-7.72608-4.5,0-6.54981,3.145-7.02832,7.72608Z"/><path class="cls-2" d="M186.30859,256V236.10645H182.5332V233.98h3.77539v-3.1001c0-3.71826,1.083-7.74609,6.01172-7.74609a8.30193,8.30193,0,0,1,2.17383.30762v2.17431a10.86,10.86,0,0,0-2.35351-.26074c-2.58106,0-3.543,1.82324-3.543,5.62158V233.98H193.377v2.12647h-4.77929V256Z"/><path class="cls-2" d="M214.75781,244.9458c0,6.13379-3.40429,11.58252-9.97558,11.58252-5.96582,0-9.6709-4.88818-9.6709-11.53662,0-6.30908,3.49316-11.53955,9.89258-11.53955C210.875,233.45215,214.75781,238.03174,214.75781,244.9458Zm-17.22656.04443c0,5.21827,2.79688,9.40723,7.42578,9.40723,4.7168,0,7.37988-3.88769,7.37988-9.40674,0-5.18359-2.62109-9.4082-7.46777-9.4082C199.89746,235.58252,197.53125,239.71924,197.53125,244.99023Z"/><path class="cls-2" d="M220.18164,239.96924c0-3.66553-.043-5.25928-.04394-5.98926h2.24414c.04492.69971.08984,2.12647.08984,4.90869a8.30912,8.30912,0,0,1,7.64941-5.43652v2.45508c-4.57714.29882-7.64941,3.42529-7.64941,8.68408V256h-2.29Z"/><path class="cls-2" d="M234.75586,245.27734c.043,5.61573,2.87207,9.12012,7.07324,9.12012a6.1392,6.1392,0,0,0,6.28613-4.09961h2.332c-.9209,2.90186-3.25684,6.23047-8.707,6.23047-6.707,0-9.31738-5.76172-9.31738-11.35889,0-6.31152,3.13574-11.71728,9.58008-11.71728,6.7998,0,8.9668,5.84863,8.9668,10.01855,0,.61963,0,1.23291-.04493,1.80664Zm13.83789-1.978c-.04395-4.31983-2.3916-7.72608-6.67676-7.72608-4.5,0-6.5498,3.145-7.02929,7.72608Z"/><path class="cls-2" d="M256.93359,249.91016c.74219,2.83789,2.75489,4.53906,6.207,4.53906,3.88183,0,5.45019-1.7832,5.45019-4.22412,0-2.48584-1.05469-3.70362-5.94727-4.8833-5.71484-1.37451-7.11816-3.103-7.11816-6.01416,0-3.04346,2.29-5.87549,7.30371-5.87549,5.01465,0,7.39063,3.05224,7.73926,6.17578h-2.2832c-.39161-1.82617-1.82422-4.09961-5.54883-4.09961-3.79,0-4.88086,1.87109-4.88086,3.61572,0,2.00489,1.04785,3.00684,5.39062,4.0586,6.23536,1.50244,7.76563,3.53906,7.76563,6.84033,0,3.99951-3.24805,6.48535-7.91992,6.48535-5.05762,0-7.875-2.65576-8.48828-6.61816Z"/><path class="cls-2" d="M273.04883,233.98h4.0791v-6.84961h2.29V233.98h5.21973v2.12647H279.418V250.3418c0,2.44873.52832,3.84082,2.63476,3.84082a8.318,8.318,0,0,0,2.27051-.25977v1.98828a7.86963,7.86963,0,0,1-2.76172.397c-2.85156,0-4.43359-1.4292-4.43359-4.96V236.10645h-4.0791Z"/><path class="cls-2" d="M304.30469,251.78223A25.62514,25.62514,0,0,0,304.61328,256H302.416a14.3803,14.3803,0,0,1-.39454-3.36328c-.75,1.6206-2.67773,3.8916-7.19921,3.8916-5.11329,0-7.31641-3.30762-7.31641-6.61279,0-4.84864,3.75-7.05274,10.35254-7.05274h4.16113v-2.22607c0-2.1875-.65918-5.10645-5.62988-5.10645-4.40625,0-5.06445,2.30616-5.54492,4.10694H288.5625c.26563-2.45557,1.7832-6.186,7.875-6.18506,5.04.00049,7.86719,2.11865,7.86719,6.97217Zm-2.24219-6.98535h-4.27539c-4.86035,0-7.86231,1.27343-7.86231,5.02392,0,2.74805,1.96,4.6294,5.02247,4.6294,6.24316,0,7.11523-4.1504,7.11523-8.86524Z"/><path class="cls-2" d="M308.02734,233.98h4.08008v-6.84961h2.28906V233.98h5.22071v2.12647h-5.22071V250.3418c0,2.44873.52832,3.84082,2.63575,3.84082a8.31112,8.31112,0,0,0,2.26953-.25977v1.98828a7.864,7.864,0,0,1-2.76074.397c-2.85157,0-4.4336-1.4292-4.4336-4.96V236.10645h-4.08008Z"/><path class="cls-2" d="M324.1084,223.57422h2.28906v4.29785H324.1084Zm0,10.40576h2.28906V256H324.1084Z"/><path class="cls-2" d="M351.46289,244.9458c0,6.13379-3.4043,11.58252-9.97559,11.58252-5.96484,0-9.67089-4.88818-9.67089-11.53662,0-6.30908,3.49316-11.53955,9.89257-11.53955C347.58105,233.45215,351.46289,238.03174,351.46289,244.9458Zm-17.22559.04443c0,5.21827,2.7959,9.40723,7.42579,9.40723,4.71582,0,7.37988-3.88769,7.37988-9.40674,0-5.18359-2.62109-9.4082-7.46777-9.4082C336.60352,235.58252,334.2373,239.71924,334.2373,244.99023Z"/><path class="cls-2" d="M356.88867,239.52881c0-1.936,0-3.79-.04394-5.54883h2.24218c.08887.70166.13379,3.53418.09082,4.15283.96387-2.22656,2.76954-4.68066,7.29-4.68066,3.93067,0,7.39649,2.21924,7.39649,8.28467V256H371.5752V242.09668c0-3.88721-1.61133-6.42432-5.417-6.42432-5.18164,0-6.98047,4.29444-6.98047,9.07422V256h-2.28906Z"/><path class="cls-2" d="M130.8291,297.74609c0,6.13379-3.4043,11.582-9.97558,11.582-5.96485,0-9.6709-4.88868-9.6709-11.53711,0-6.3086,3.49316-11.53907,9.89258-11.53907C126.94727,286.252,130.8291,290.832,130.8291,297.74609Zm-17.22558.04395c0,5.21777,2.79589,9.40723,7.42578,9.40723,4.71582,0,7.37988-3.8877,7.37988-9.40625,0-5.1836-2.62109-9.40918-7.46777-9.40918C115.96973,288.38184,113.60352,292.51953,113.60352,297.79Z"/><path class="cls-2" d="M137.18359,308.7998V288.90625h-3.77441v-2.126h3.77441v-3.10058c0-3.71875,1.084-7.7461,6.0127-7.7461a8.3149,8.3149,0,0,1,2.17285.30762V278.415a10.88254,10.88254,0,0,0-2.35351-.25977c-2.58008,0-3.543,1.82227-3.543,5.6211v3.0039H144.252v2.126h-4.77929V308.7998Z"/><path class="cls-2" d="M159.13379,292.76855c0-3.665-.04395-5.25878-.04395-5.98828H161.333c.04492.69922.08984,2.126.08984,4.90821a8.31155,8.31155,0,0,1,7.64942-5.43653V288.707c-4.57618.29883-7.64942,3.42578-7.64942,8.6836V308.7998h-2.28906Z"/><path class="cls-2" d="M187.90527,304.582a25.66035,25.66035,0,0,0,.30762,4.21777h-2.19726a14.34886,14.34886,0,0,1-.39356-3.36328c-.75,1.6211-2.67773,3.89161-7.20019,3.89161-5.11231,0-7.31543-3.30762-7.31543-6.61329,0-4.84765,3.75-7.05273,10.35253-7.05273h4.16016v-2.22559c0-2.1875-.6582-5.10644-5.62988-5.10644-4.40625,0-5.06446,2.30566-5.54395,4.10742h-2.2832c.26562-2.45605,1.78418-6.18652,7.876-6.18555,5.04.001,7.86718,2.11914,7.86718,6.97168Zm-2.24316-6.98535H181.3877c-4.86133,0-7.86231,1.27344-7.86231,5.02344,0,2.748,1.959,4.62988,5.02149,4.62988,6.24414,0,7.11523-4.15039,7.11523-8.86523Z"/><path class="cls-2" d="M195.124,276.374h2.29v4.29786h-2.29Zm0,10.40625h2.29V308.7998h-2.29Z"/><path class="cls-2" d="M204.585,292.3291c0-1.93652,0-3.791-.04394-5.54883h2.24218c.08887.70118.13379,3.53418.09082,4.15235.96387-2.22657,2.76953-4.68067,7.29-4.68067,3.93067,0,7.39649,2.21973,7.39649,8.28516V308.7998h-2.28907V294.89648c0-3.88769-1.61132-6.4248-5.417-6.4248-5.18164,0-6.98047,4.29492-6.98047,9.07422v11.2539H204.585Z"/><path class="cls-2" d="M229.31836,308.7998V288.90625H225.543v-2.126h3.77539v-3.10058c0-3.71875,1.083-7.7461,6.01172-7.7461a8.3226,8.3226,0,0,1,2.17383.30762V278.415a10.88929,10.88929,0,0,0-2.35352-.25977c-2.581,0-3.543,1.82227-3.543,5.6211v3.0039h4.7793v2.126h-4.7793V308.7998Z"/><path class="cls-2" d="M257.76758,297.74609c0,6.13379-3.4043,11.582-9.97559,11.582-5.96582,0-9.6709-4.88868-9.6709-11.53711,0-6.3086,3.49317-11.53907,9.89258-11.53907C253.88477,286.252,257.76758,290.832,257.76758,297.74609ZM240.541,297.79c0,5.21777,2.79687,9.40723,7.42578,9.40723,4.71679,0,7.37988-3.8877,7.37988-9.40625,0-5.1836-2.62109-9.40918-7.46777-9.40918C242.90723,288.38184,240.541,292.51953,240.541,297.79Z"/><path class="cls-2" d="M263.19141,292.76855c0-3.665-.043-5.25878-.04395-5.98828h2.24414c.04492.69922.08985,2.126.08985,4.90821a8.31053,8.31053,0,0,1,7.64941-5.43653V288.707c-4.57715.29883-7.64941,3.42578-7.64941,8.6836V308.7998h-2.29Z"/><path class="cls-2" d="M277.76563,298.07715c.043,5.61523,2.87207,9.12012,7.07324,9.12012a6.13921,6.13921,0,0,0,6.28613-4.09961h2.332c-.9209,2.90234-3.25683,6.23047-8.707,6.23047-6.707,0-9.31738-5.76172-9.31738-11.35938,0-6.31055,3.13574-11.7168,9.58008-11.7168,6.7998,0,8.96679,5.84864,8.96679,10.01856,0,.61914,0,1.2334-.04492,1.80664Zm13.83789-1.97852c-.04395-4.31933-2.39161-7.72558-6.67676-7.72558-4.5,0-6.54981,3.14453-7.0293,7.72558Z"/><path class="cls-2" d="M299.94336,302.71c.74219,2.83789,2.75488,4.53906,6.207,4.53906,3.88184,0,5.4502-1.7832,5.4502-4.22461,0-2.48535-1.05469-3.70312-5.94727-4.88281-5.71484-1.374-7.11816-3.10351-7.11816-6.01465,0-3.043,2.29-5.875,7.30371-5.875,5.01465,0,7.39062,3.05176,7.73926,6.17578h-2.28321c-.3916-1.82617-1.82422-4.0996-5.54883-4.0996-3.79,0-4.88086,1.87109-4.88086,3.61523,0,2.00488,1.04786,3.00781,5.39063,4.05957,6.23535,1.502,7.76562,3.53906,7.76562,6.83984,0,4-3.248,6.48536-7.91992,6.48536-5.05761,0-7.875-2.65625-8.48828-6.61817Z"/><path class="cls-2" d="M316.05762,286.78027h4.08008v-6.85058h2.28906v6.85058h5.2207v2.126h-5.2207V303.1416c0,2.44824.52832,3.84082,2.63574,3.84082a8.31149,8.31149,0,0,0,2.26953-.25976v1.98828a7.8644,7.8644,0,0,1-2.76074.39648c-2.85156,0-4.43359-1.42871-4.43359-4.959V288.90625h-4.08008Z"/><path class="cls-2" d="M332.98633,302.71c.74316,2.83789,2.75488,4.53906,6.207,4.53906,3.88281,0,5.45019-1.7832,5.45019-4.22461,0-2.48535-1.05371-3.70312-5.94628-4.88281-5.71485-1.374-7.11914-3.10351-7.11914-6.01465,0-3.043,2.29-5.875,7.30371-5.875,5.01562,0,7.39062,3.05176,7.73925,6.17578h-2.28222c-.39258-1.82617-1.8252-4.0996-5.54883-4.0996-3.791,0-4.88184,1.87109-4.88184,3.61523,0,2.00488,1.04883,3.00781,5.3916,4.05957,6.23438,1.502,7.76465,3.53906,7.76465,6.83984,0,4-3.248,6.48536-7.91894,6.48536-5.05762,0-7.875-2.65625-8.48926-6.61817Z"/><path class="cls-2" d="M360.67285,286.78027h4.08008v-6.85058H367.042v6.85058h5.22071v2.126H367.042V303.1416c0,2.44824.52832,3.84082,2.63574,3.84082a8.31156,8.31156,0,0,0,2.26954-.25976v1.98828a7.86446,7.86446,0,0,1-2.76075.39648c-2.85156,0-4.43359-1.42871-4.43359-4.959V288.90625h-4.08008Z"/><path class="cls-2" d="M394.38477,297.74609c0,6.13379-3.4043,11.582-9.97559,11.582-5.96484,0-9.6709-4.88868-9.6709-11.53711,0-6.3086,3.49317-11.53907,9.89258-11.53907C390.50293,286.252,394.38477,290.832,394.38477,297.74609Zm-17.22559.04395c0,5.21777,2.7959,9.40723,7.42578,9.40723,4.71582,0,7.37988-3.8877,7.37988-9.40625,0-5.1836-2.62109-9.40918-7.46777-9.40918C379.52539,288.38184,377.15918,292.51953,377.15918,297.79Z"/><path class="cls-2" d="M121.22754,345.26074c0-1.89453,0-3.96-.044-5.68066h2.24024c.04492.74316.13379,2.62207.0918,3.88965a6.88,6.88,0,0,1,6.59472-4.418c3.085,0,5.49219,1.543,6.37012,4.33691a7.49258,7.49258,0,0,1,7.16992-4.33691c3.40137,0,6.915,1.94726,6.915,8.05957v14.48828h-2.28516V347.38672c0-2.92969-1.0498-6.11621-5.10937-6.11621-4.23438,0-6.15137,3.39551-6.15137,7.64746v12.68164h-2.24414v-14.165c0-3.19434-.959-6.16309-4.97851-6.16309-4.23145,0-6.28125,3.73731-6.28125,8.2129v12.11523h-2.28809Z"/><path class="cls-2" d="M172.65918,357.38184a25.63026,25.63026,0,0,0,.30859,4.21777h-2.19726a14.38483,14.38483,0,0,1-.39453-3.36328c-.75,1.62109-2.67774,3.8916-7.19922,3.8916-5.11328,0-7.31641-3.30762-7.31641-6.61328,0-4.84766,3.75-7.05274,10.35254-7.05274H170.374v-2.22558c0-2.1875-.65918-5.10645-5.62988-5.10645-4.40625,0-5.06445,2.30567-5.54492,4.10645H156.917c.26563-2.45508,1.78321-6.18555,7.875-6.18457,5.04.001,7.86719,2.11914,7.86719,6.97168Zm-2.24219-6.98536H166.1416c-4.86035,0-7.8623,1.27344-7.8623,5.02344,0,2.74805,1.96,4.62988,5.02246,4.62988,6.24316,0,7.11523-4.15039,7.11523-8.86523Z"/><path class="cls-2" d="M182.168,350.89551c2.0166-2.15918,8.10937-8.34863,11.0625-11.31543h2.91211l-8.69629,8.7539,9.78906,13.26563h-2.82422l-8.60644-11.80078-3.63672,3.50586v8.29492h-2.28906V329.17383H182.168Z"/><path class="cls-2" d="M200.87793,350.877c.043,5.61524,2.87207,9.12012,7.07324,9.12012a6.13783,6.13783,0,0,0,6.28516-4.09961h2.333c-.92188,2.90234-3.25782,6.23047-8.708,6.23047-6.707,0-9.31738-5.76172-9.31738-11.35938,0-6.31054,3.13671-11.71679,9.58105-11.71679,6.79883,0,8.9668,5.84863,8.9668,10.01855,0,.61914,0,1.2334-.04492,1.80664Zm13.83789-1.97851c-.04394-4.31934-2.3916-7.72559-6.67773-7.72559-4.5,0-6.54981,3.14453-7.02832,7.72559Z"/><path class="cls-2" d="M233.86621,345.56836c0-3.665-.043-5.25879-.04394-5.98828h2.24414c.04492.69922.08984,2.126.08984,4.9082a8.31054,8.31054,0,0,1,7.64941-5.43652v2.45508c-4.57714.29882-7.64941,3.4248-7.64941,8.68359v11.40918h-2.29Z"/><path class="cls-2" d="M265.75391,350.5459c0,6.13379-3.4043,11.582-9.97559,11.582-5.96582,0-9.6709-4.88867-9.6709-11.53711,0-6.30859,3.49317-11.53906,9.89258-11.53906C261.87109,339.05176,265.75391,343.63184,265.75391,350.5459Zm-17.22657.04394c0,5.21778,2.79688,9.40723,7.42579,9.40723,4.71679,0,7.37988-3.88769,7.37988-9.40625,0-5.18359-2.6211-9.40918-7.46778-9.40918C250.89355,341.18164,248.52734,345.31934,248.52734,350.58984Z"/><path class="cls-2" d="M289.33691,350.5459c0,6.13379-3.40429,11.582-9.97558,11.582-5.96485,0-9.6709-4.88867-9.6709-11.53711,0-6.30859,3.49316-11.53906,9.89258-11.53906C285.45508,339.05176,289.33691,343.63184,289.33691,350.5459Zm-17.22558.04394c0,5.21778,2.7959,9.40723,7.42578,9.40723,4.71582,0,7.37988-3.88769,7.37988-9.40625,0-5.18359-2.62109-9.40918-7.46777-9.40918C274.47754,341.18164,272.11133,345.31934,272.11133,350.58984Z"/><path class="cls-2" d="M294.76172,345.26074c0-1.89453,0-3.96-.044-5.68066H296.958c.04492.74316.13379,2.62207.09179,3.88965a6.88,6.88,0,0,1,6.59473-4.418c3.085,0,5.49219,1.543,6.37012,4.33691a7.49258,7.49258,0,0,1,7.16992-4.33691c3.40137,0,6.915,1.94726,6.915,8.05957v14.48828h-2.28516V347.38672c0-2.92969-1.0498-6.11621-5.10937-6.11621-4.23438,0-6.15137,3.39551-6.15137,7.64746v12.68164h-2.24414v-14.165c0-3.19434-.959-6.16309-4.97852-6.16309-4.23144,0-6.28125,3.73731-6.28125,8.2129v12.11523h-2.28808Z"/><path class="cls-2" d="M343.29883,361.59961V341.70605h-3.77442v-2.126h3.77442v-3.10059c0-3.71875,1.084-7.74609,6.01269-7.74609a8.31462,8.31462,0,0,1,2.17286.30762v2.17382a10.88262,10.88262,0,0,0-2.35352-.25976c-2.58008,0-3.543,1.82226-3.543,5.62109v3.00391h4.7793v2.126h-4.7793v19.89356Z"/><path class="cls-2" d="M371.74805,350.5459c0,6.13379-3.4043,11.582-9.97559,11.582-5.96582,0-9.6709-4.88867-9.6709-11.53711,0-6.30859,3.49317-11.53906,9.89258-11.53906C367.86523,339.05176,371.74805,343.63184,371.74805,350.5459Zm-17.22657.04394c0,5.21778,2.79688,9.40723,7.42579,9.40723,4.71679,0,7.37988-3.88769,7.37988-9.40625,0-5.18359-2.6211-9.40918-7.46777-9.40918C356.8877,341.18164,354.52148,345.31934,354.52148,350.58984Z"/><path class="cls-2" d="M377.17285,345.56836c0-3.665-.04394-5.25879-.04394-5.98828h2.24316c.04492.69922.08984,2.126.08984,4.9082a8.31155,8.31155,0,0,1,7.64942-5.43652v2.45508c-4.57617.29882-7.64942,3.4248-7.64942,8.68359v11.40918h-2.28906Z"/><path class="cls-2" d="M83.36621,411.1709v12.0293H81.07813V397.79492c0-1.80469,0-3.73926-.04395-5.41406h2.24121c.08887.83105.09082,2.15234.09082,3.93555a8.06255,8.06255,0,0,1,7.7207-4.46387c5.19141,0,8.80762,4.35449,8.80762,10.96582,0,7.92383-4.22949,12.11035-9.55762,12.11035C86.47852,414.92871,84.46191,413.22266,83.36621,411.1709Zm14.10742-8.26074c0-5.085-2.44726-8.88184-6.77441-8.88184-5.28711,0-7.46777,3.32227-7.46777,9.27637,0,5.86328,1.70507,9.49121,7.16015,9.49121C94.94141,412.7959,97.47363,408.95117,97.47363,402.91016Z"/><path class="cls-2" d="M120.542,410.18262a25.66045,25.66045,0,0,0,.30762,4.21777h-2.19727a14.34973,14.34973,0,0,1-.39355-3.36328c-.75,1.62109-2.67774,3.8916-7.2002,3.8916-5.1123,0-7.31543-3.30762-7.31543-6.61328,0-4.84766,3.75-7.05273,10.35254-7.05273h4.16016v-2.22559c0-2.1875-.6582-5.10645-5.62988-5.10645-4.40625,0-5.06446,2.30567-5.54395,4.10645h-2.2832c.26562-2.45508,1.78418-6.18555,7.876-6.18457,5.04.001,7.86719,2.11914,7.86719,6.97168Zm-2.24316-6.98535h-4.27442c-4.86132,0-7.8623,1.27343-7.8623,5.02343,0,2.748,1.959,4.62989,5.02148,4.62989,6.24414,0,7.11524-4.15039,7.11524-8.86524Z"/><path class="cls-2" d="M127.76074,414.40039V381.97461h2.28906v32.42578Z"/><path class="cls-2" d="M137.2207,398.06152c0-1.89453,0-3.96-.04394-5.68066H139.417c.04492.74316.13379,2.62207.09082,3.88965a6.88142,6.88142,0,0,1,6.59571-4.418c3.084,0,5.49121,1.543,6.37011,4.33691a7.49009,7.49009,0,0,1,7.16895-4.33691c3.40137,0,6.916,1.94726,6.916,8.05957v14.48828h-2.28613V400.1875c0-2.92969-1.0498-6.11621-5.10937-6.11621-4.23438,0-6.15137,3.39551-6.15137,7.64746v12.68164h-2.24317v-14.165c0-3.19433-.96-6.16308-4.97851-6.16308-4.23242,0-6.28223,3.7373-6.28223,8.21289v12.11523H137.2207Z"/><path class="cls-2" d="M203.0752,403.34668c0,6.13379-3.4043,11.582-9.97559,11.582-5.96484,0-9.6709-4.88867-9.6709-11.53711,0-6.30859,3.49317-11.53906,9.89258-11.53906C199.19336,391.85254,203.0752,396.43262,203.0752,403.34668Zm-17.22559.04395c0,5.21777,2.7959,9.40722,7.42578,9.40722,4.71582,0,7.37988-3.88769,7.37988-9.40625,0-5.18359-2.62109-9.40918-7.46777-9.40918C188.21582,393.98242,185.84961,398.12012,185.84961,403.39063Z"/><path class="cls-2" d="M208.67578,381.97461h2.28906v4.29785h-2.28906Zm0,10.40625h2.28906v22.01953h-2.28906Z"/><path class="cls-2" d="M218.13574,414.40039V381.97461h2.28906v32.42578Z"/><path class="cls-2" d="M241.32324,411.1709v12.0293h-2.28808V397.79492c0-1.80469,0-3.73926-.04395-5.41406h2.24121c.08887.83105.09082,2.15234.09082,3.93555a8.06255,8.06255,0,0,1,7.72071-4.46387c5.1914,0,8.80761,4.35449,8.80761,10.96582,0,7.92383-4.22949,12.11035-9.55761,12.11035C244.43555,414.92871,242.419,413.22266,241.32324,411.1709Zm14.10742-8.26074c0-5.085-2.44726-8.88184-6.77441-8.88184-5.28711,0-7.46777,3.32227-7.46777,9.27637,0,5.86328,1.70507,9.49121,7.16015,9.49121C252.89844,412.7959,255.43066,408.95117,255.43066,402.91016Z"/><path class="cls-2" d="M263.32227,414.40039V381.97461h2.29v32.42578Z"/><path class="cls-2" d="M287.65137,410.18262a25.66193,25.66193,0,0,0,.30761,4.21777h-2.19726a14.34952,14.34952,0,0,1-.39356-3.36328c-.75,1.62109-2.67773,3.8916-7.20019,3.8916-5.11231,0-7.31543-3.30762-7.31543-6.61328,0-4.84766,3.75-7.05273,10.35254-7.05273h4.16015v-2.22559c0-2.1875-.6582-5.10645-5.62988-5.10645-4.40625,0-5.06445,2.30567-5.54394,4.10645H271.9082c.26563-2.45508,1.78418-6.18555,7.876-6.18457,5.04.001,7.86719,2.11914,7.86719,6.97168Zm-2.24317-6.98535h-4.27441c-4.86133,0-7.86231,1.27343-7.86231,5.02343,0,2.748,1.959,4.62989,5.02149,4.62989,6.24414,0,7.11523-4.15039,7.11523-8.86524Z"/><path class="cls-2" d="M294.87109,397.92969c0-1.93653,0-3.791-.04394-5.54883h2.24219c.08886.70117.13379,3.53418.09082,4.15234.96386-2.22656,2.76953-4.68066,7.29-4.68066,3.93066,0,7.39648,2.21973,7.39648,8.28516v14.26269h-2.28906V400.49707c0-3.88769-1.61133-6.4248-5.417-6.4248-5.18165,0-6.98047,4.29492-6.98047,9.07421v11.25391h-2.28907Z"/><path class="cls-2" d="M315.61719,392.38086h4.08008v-6.85059h2.28906v6.85059h5.2207v2.126h-5.2207v14.23535c0,2.44824.52832,3.84082,2.63574,3.84082a8.31112,8.31112,0,0,0,2.26953-.25977v1.98828a7.86417,7.86417,0,0,1-2.76074.39649c-2.85156,0-4.43359-1.42871-4.43359-4.959V394.50684h-4.08008Z"/><path class="cls-2" d="M346.874,410.18262a25.62879,25.62879,0,0,0,.3086,4.21777h-2.19727a14.38483,14.38483,0,0,1-.39453-3.36328c-.75,1.62109-2.67773,3.8916-7.19922,3.8916-5.11328,0-7.3164-3.30762-7.3164-6.61328,0-4.84766,3.75-7.05273,10.35253-7.05273h4.16114v-2.22559c0-2.1875-.65918-5.10645-5.62989-5.10645-4.40625,0-5.06445,2.30567-5.54492,4.10645h-2.28222c.26562-2.45508,1.7832-6.18555,7.875-6.18457,5.04.001,7.86718,2.11914,7.86718,6.97168Zm-2.24218-6.98535h-4.27539c-4.86036,0-7.86231,1.27343-7.86231,5.02343,0,2.748,1.96,4.62989,5.02246,4.62989,6.24317,0,7.11524-4.15039,7.11524-8.86524Z"/><path class="cls-2" d="M350.59668,392.38086h4.08008v-6.85059h2.28906v6.85059h5.2207v2.126h-5.2207v14.23535c0,2.44824.52832,3.84082,2.63574,3.84082a8.31108,8.31108,0,0,0,2.26953-.25977v1.98828a7.86417,7.86417,0,0,1-2.76074.39649c-2.85156,0-4.43359-1.42871-4.43359-4.959V394.50684h-4.08008Z"/><path class="cls-2" d="M366.67676,381.97461h2.29v4.29785h-2.29Zm0,10.40625h2.29v22.01953h-2.29Z"/><path class="cls-2" d="M394.03223,403.34668c0,6.13379-3.4043,11.582-9.97559,11.582-5.96484,0-9.6709-4.88867-9.6709-11.53711,0-6.30859,3.49317-11.53906,9.89258-11.53906C390.15039,391.85254,394.03223,396.43262,394.03223,403.34668Zm-17.22559.04395c0,5.21777,2.7959,9.40722,7.42578,9.40722,4.71582,0,7.37988-3.88769,7.37988-9.40625,0-5.18359-2.62109-9.40918-7.46777-9.40918C379.17285,393.98242,376.80664,398.12012,376.80664,403.39063Z"/><path class="cls-2" d="M399.458,397.92969c0-1.93653,0-3.791-.04492-5.54883h2.24218c.08887.70117.13379,3.53418.0918,4.15234.96387-2.22656,2.76856-4.68066,7.29-4.68066,3.93066,0,7.39648,2.21973,7.39648,8.28516v14.26269h-2.29V400.49707c0-3.88769-1.61132-6.4248-5.417-6.4248-5.18164,0-6.97949,4.29492-6.97949,9.07421v11.25391H399.458Z"/><path class="cls-2" d="M423.582,408.31055c.74219,2.83789,2.75488,4.53906,6.207,4.53906,3.88184,0,5.4502-1.7832,5.4502-4.22461,0-2.48535-1.05469-3.70312-5.94727-4.88281-5.71484-1.374-7.11816-3.10352-7.11816-6.01465,0-3.043,2.29-5.875,7.30371-5.875,5.01465,0,7.39062,3.05176,7.73926,6.17578h-2.28321c-.3916-1.82617-1.82421-4.09961-5.54882-4.09961-3.79,0-4.88086,1.87109-4.88086,3.61524,0,2.00488,1.04785,3.00781,5.39062,4.05957,6.23535,1.502,7.76563,3.53906,7.76563,6.83984,0,4-3.24805,6.48535-7.91993,6.48535-5.05761,0-7.875-2.65527-8.48828-6.61816Z"/><rect class="cls-3" x="279.44743" y="144.81435" width="25.47922" height="50.0435"/><polygon class="cls-4" points="76.447 194.858 265.677 169.972 220.955 63.515 76.447 194.858"/><rect class="cls-3" x="240.52137" y="113.15318" width="25.47922" height="8.179" transform="translate(271.36833 -161.25165) rotate(68.87912)"/><polyline class="cls-5" points="286.603 130.824 291.61 135.525 292.972 128.793 297.98 133.494 299.346 126.762 304.355 131.463 305.718 124.731 310.727 129.432 312.092 122.699 317.101 127.4 318.465 120.668 323.476 125.368 324.84 118.636 329.85 123.336 331.216 116.603 336.226 121.304 337.589 114.572 342.594 119.274 343.957 112.542 348.968 117.243 350.331 110.511 355.341 115.211 356.706 108.478 361.718 113.178 363.084 106.445 368.096 111.145 369.465 104.412 374.478 109.111 375.843 102.379 380.856 107.078 382.226 100.344 387.24 105.043 388.615 98.308 393.635 103.005"/><polyline class="cls-6" points="286.603 130.824 291.61 135.525 292.972 128.793 297.98 133.494 299.346 126.762 304.355 131.463 305.718 124.731 310.727 129.432 312.092 122.699 317.101 127.4 318.465 120.668 323.476 125.368 324.84 118.636 329.85 123.336 331.216 116.603 336.226 121.304 337.589 114.572 342.594 119.274 343.957 112.542 348.968 117.243 350.331 110.511 355.341 115.211 356.706 108.478 361.718 113.178 363.084 106.445 368.096 111.145 369.465 104.412 374.478 109.111 375.843 102.379 380.856 107.078 382.226 100.344 387.24 105.043 388.615 98.308 393.635 103.005"/><polygon class="cls-5" points="289.074 131.002 281.67 112.453 383.958 80.266 393.486 102.354 289.074 131.002"/><polygon class="cls-7" points="384.796 77.043 395.907 109.315 407.206 104.017 399.212 73.786 384.796 77.043"/><polygon class="cls-1" points="293.435 141.672 280.506 101.346 270.45 104.63 281.224 136.644 293.435 141.672"/></svg>