<svg id="Layer_1" data-name="Layer 1" xmlns="http://www.w3.org/2000/svg" viewBox="0 0 517 517"><defs><style>.cls-1{fill:#2e3192;}.cls-2{fill:#fff;}.cls-3{fill:#d3d3d3;}</style></defs><title>nutella3</title><path class="cls-1" d="M258.5,516.5058c-142.5,0-258-115.5-258-258a257.961,257.961,0,0,1,75.6-182.4c100.8-100.8,264.1-100.8,364.9,0s100.8,264.1,0,364.9A256.49776,256.49776,0,0,1,258.5,516.5058Z"/><path class="cls-2" d="M258.5,1.0058c142.3.1,257.5,115.5,257.4,257.7a257.624,257.624,0,0,1-157.2,237c-131.1,55.3-282.1-6.2-337.4-137.3-55.2-130.9,6.1-281.9,136.9-337.3a258.099,258.099,0,0,1,100.3-20.1m0-1c-142.8,0-258.5,115.7-258.5,258.5s115.7,258.5,258.5,258.5,258.5-115.7,258.5-258.5S401.3.0058,258.5.0058Z"/><path class="cls-2" d="M93.2,241.70579v14.3H90.7v-30.8h11.1c6.1,0,9.3,3.3,9.3,8.1a6.91,6.91,0,0,1-5.7,7.2c3.1.7,5.2,2.8,5.2,8v1.2c0,2.2-.2,5,.4,6.2h-2.5c-.6-1.3-.4-3.8-.4-6.4v-.8c0-5-1.5-7.1-7.4-7.1H93.2Zm0-2.3h7.4c5.4,0,7.9-2,7.9-6,0-3.8-2.4-5.9-7.2-5.9h-8l-.1,11.9Z"/><path class="cls-2" d="M118.3,245.3058c0,5.6,2.9,9.1,7.1,9.1a6.16851,6.16851,0,0,0,6.3-4.1H134c-.9,2.9-3.3,6.2-8.7,6.2-6.7,0-9.3-5.8-9.3-11.4,0-6.3,3.1-11.7,9.6-11.7,6.8,0,9,5.8,9,10v1.8l-16.3.1Zm13.8-2c0-4.3-2.4-7.7-6.7-7.7-4.5,0-6.5,3.1-7,7.7Z"/><path class="cls-2" d="M139.8,256.0058v-32.4h2.3v32.4Z"/><path class="cls-2" d="M149.9,245.3058c0,5.6,2.9,9.1,7.1,9.1a6.16851,6.16851,0,0,0,6.3-4.1h2.3c-.9,2.9-3.3,6.2-8.7,6.2-6.7,0-9.3-5.8-9.3-11.4,0-6.3,3.1-11.7,9.6-11.7,6.8,0,9,5.8,9,10v1.8l-16.3.1Zm13.8-2c0-4.3-2.4-7.7-6.7-7.7-4.5,0-6.5,3.1-7,7.7Z"/><path class="cls-2" d="M186.6,251.8058a30.51517,30.51517,0,0,0,.3,4.2h-2.2a13.56339,13.56339,0,0,1-.4-3.4c-.8,1.6-2.7,3.9-7.2,3.9-5.1,0-7.3-3.3-7.3-6.6,0-4.8,3.8-7.1,10.4-7.1h4.2v-2.2c0-2.2-.7-5.1-5.6-5.1-4.4,0-5.1,2.3-5.5,4.1H171c.3-2.5,1.8-6.2,7.9-6.2,5,0,7.9,2.1,7.9,7v11.4h-.2Zm-2.2-7h-4.3c-4.9,0-7.9,1.3-7.9,5,0,2.7,2,4.6,5,4.6,6.2,0,7.1-4.2,7.1-8.9l.1-.7Z"/><path class="cls-2" d="M193.9,249.90579c.7,2.8,2.8,4.5,6.2,4.5,3.9,0,5.5-1.8,5.5-4.2,0-2.5-1.1-3.7-5.9-4.9-5.7-1.4-7.1-3.1-7.1-6,0-3,2.3-5.9,7.3-5.9s7.4,3.1,7.7,6.2h-2.3c-.4-1.8-1.8-4.1-5.5-4.1-3.8,0-4.9,1.9-4.9,3.6,0,2,1,3,5.4,4.1,6.2,1.5,7.8,3.5,7.8,6.8,0,4-3.2,6.5-7.9,6.5-5.1,0-7.9-2.7-8.5-6.6Z"/><path class="cls-2" d="M214,245.3058c0,5.6,2.9,9.1,7.1,9.1a6.16849,6.16849,0,0,0,6.3-4.1h2.3c-.9,2.9-3.3,6.2-8.7,6.2-6.7,0-9.3-5.8-9.3-11.4,0-6.3,3.1-11.7,9.6-11.7,6.8,0,9,5.8,9,10v1.8l-16.3.1Zm13.9-2c0-4.3-2.4-7.7-6.7-7.7-4.5,0-6.5,3.1-7,7.7Z"/><path class="cls-2" d="M264.9,244.90579c0,6.1-3.4,11.6-10,11.6-6,0-9.7-4.9-9.7-11.5,0-6.3,3.5-11.5,9.9-11.5C261,233.5058,264.9,238.0058,264.9,244.90579Zm-17.2.1c0,5.2,2.8,9.4,7.4,9.4,4.7,0,7.4-3.9,7.4-9.4,0-5.2-2.6-9.4-7.5-9.4S247.7,239.70579,247.7,245.0058Z"/><path class="cls-2" d="M270.9,256.0058v-19.9h-3.8v-2.1h3.8v-3.1c0-3.7,1.1-7.7,6-7.7a7.79861,7.79861,0,0,1,2.2.3v2.2a9.86324,9.86324,0,0,0-2.4-.3c-2.6,0-3.5,1.8-3.5,5.6v3H278v2.1h-4.8v19.9Z"/><path class="cls-2" d="M309.2,249.5058c-1.1,3.9-3.6,7-8.6,7-5.5,0-9.4-4.1-9.4-11.4,0-6,3.2-11.6,9.7-11.6a7.91924,7.91924,0,0,1,8.3,7.1h-2.3c-.7-2.5-2.3-4.9-6-4.9-4.6,0-7.2,3.9-7.2,9.4,0,5.2,2.4,9.4,7,9.4,3.2,0,5.1-1.6,6.2-4.9h2.3Z"/><path class="cls-2" d="M329.4,251.8058a30.50726,30.50726,0,0,0,.3,4.2h-2.2a13.56339,13.56339,0,0,1-.4-3.4c-.8,1.6-2.7,3.9-7.2,3.9-5.1,0-7.3-3.3-7.3-6.6,0-4.8,3.8-7.1,10.4-7.1h4.2v-2.2c0-2.2-.7-5.1-5.6-5.1-4.4,0-5.1,2.3-5.5,4.1h-2.3c.3-2.5,1.8-6.2,7.9-6.2,5,0,7.9,2.1,7.9,7v11.4h-.2Zm-2.2-7h-4.3c-4.9,0-7.9,1.3-7.9,5,0,2.7,2,4.6,5,4.6,6.2,0,7.1-4.2,7.1-8.9l.1-.7Z"/><path class="cls-2" d="M336.6,240.0058v-6h2.2c0,.7.1,2.1.1,4.9a8.18978,8.18978,0,0,1,7.6-5.4v2.5c-4.6.3-7.6,3.4-7.6,8.7v11.3h-2.3Z"/><path class="cls-2" d="M351,223.6058h2.3v14.1c1.1-2.2,3.2-4.2,7.5-4.2,5.2,0,9,4.3,9,11.1,0,6.9-3.4,12-9.6,12-3.7,0-5.8-1.5-6.9-4a30.29478,30.29478,0,0,1-.1,3.4H351v-32.4Zm16.4,21c0-5.5-2.7-9-6.9-9-5.5,0-7.4,3.7-7.4,9.5,0,5.2,1.7,9.4,7.1,9.4C364.7,254.40579,367.4,250.70579,367.4,244.6058Z"/><path class="cls-2" d="M393.1,244.90579c0,6.1-3.4,11.6-10,11.6-6,0-9.7-4.9-9.7-11.5,0-6.3,3.5-11.5,9.9-11.5C389.2,233.5058,393.1,238.0058,393.1,244.90579Zm-17.2.1c0,5.2,2.8,9.4,7.4,9.4,4.7,0,7.4-3.9,7.4-9.4,0-5.2-2.6-9.4-7.5-9.4S375.9,239.70579,375.9,245.0058Z"/><path class="cls-2" d="M398.6,239.5058v-5.5h2.2c.1.7.1,3.5.1,4.2a7.28844,7.28844,0,0,1,7.3-4.7c3.9,0,7.4,2.2,7.4,8.3v14.2h-2.3v-13.9c0-3.9-1.6-6.4-5.4-6.4-5.2,0-7,4.3-7,9.1v11.2h-2.3Z"/><path class="cls-2" d="M161.3,298.1058c0,5.6,2.9,9.1,7.1,9.1a6.16848,6.16848,0,0,0,6.3-4.1H177c-.9,2.9-3.3,6.2-8.7,6.2-6.7,0-9.3-5.8-9.3-11.4,0-6.3,3.1-11.7,9.6-11.7,6.8,0,9,5.8,9,10v1.8H161.3Zm13.8-2c0-4.3-2.4-7.7-6.7-7.7-4.5,0-6.5,3.1-7,7.7Z"/><path class="cls-2" d="M182.8,292.5058v-5.7H185c0,.7.1,2.6.1,3.9a6.77737,6.77737,0,0,1,6.6-4.4c3.1,0,5.5,1.5,6.4,4.3a7.44538,7.44538,0,0,1,7.2-4.3c3.4,0,6.9,1.9,6.9,8.1v14.5h-2.3v-14.2c0-2.9-1-6.1-5.1-6.1-4.2,0-6.2,3.4-6.2,7.6v12.7h-2.2v-14.2c0-3.2-1-6.2-5-6.2-4.2,0-6.3,3.7-6.3,8.2v12.1h-2.3l0-16.3Z"/><path class="cls-2" d="M219.3,276.40579h2.3v4.3h-2.3Zm0,10.4h2.3v22h-2.3Z"/><path class="cls-2" d="M228.9,302.70581c.7,2.8,2.8,4.5,6.2,4.5,3.9,0,5.5-1.8,5.5-4.2,0-2.5-1.1-3.7-5.9-4.9-5.7-1.4-7.1-3.1-7.1-6,0-3,2.3-5.9,7.3-5.9s7.4,3.1,7.7,6.2h-2.3c-.4-1.8-1.8-4.1-5.5-4.1-3.8,0-4.9,1.9-4.9,3.6,0,2,1,3,5.4,4.1,6.2,1.5,7.8,3.5,7.8,6.8,0,4-3.2,6.5-7.9,6.5-5.1,0-7.9-2.7-8.5-6.6Z"/><path class="cls-2" d="M248.5,302.70581c.7,2.8,2.8,4.5,6.2,4.5,3.9,0,5.5-1.8,5.5-4.2,0-2.5-1.1-3.7-5.9-4.9-5.7-1.4-7.1-3.1-7.1-6,0-3,2.3-5.9,7.3-5.9s7.4,3.1,7.7,6.2h-2.3c-.4-1.8-1.8-4.1-5.5-4.1-3.8,0-4.9,1.9-4.9,3.6,0,2,1,3,5.4,4.1,6.2,1.5,7.8,3.5,7.8,6.8,0,4-3.2,6.5-7.9,6.5-5.1,0-7.9-2.7-8.5-6.6Z"/><path class="cls-2" d="M268,276.40579h2.3v4.3H268Zm0,10.4h2.3v22H268Z"/><path class="cls-2" d="M295.4,297.70581c0,6.1-3.4,11.6-10,11.6-6,0-9.7-4.9-9.7-11.5,0-6.3,3.5-11.5,9.9-11.5C291.5,286.30579,295.4,290.80579,295.4,297.70581Zm-17.2.1c0,5.2,2.8,9.4,7.4,9.4,4.7,0,7.4-3.9,7.4-9.4,0-5.2-2.6-9.4-7.5-9.4C280.5,288.40579,278.2,292.5058,278.2,297.80579Z"/><path class="cls-2" d="M300.8,292.30579v-5.5H303c.1.7.1,3.5.1,4.2a7.28843,7.28843,0,0,1,7.3-4.7c3.9,0,7.4,2.2,7.4,8.3v14.3h-2.3v-13.9c0-3.9-1.6-6.4-5.4-6.4-5.2,0-7,4.3-7,9.1v11.3h-2.3Z"/><path class="cls-2" d="M325.1,302.70581c.7,2.8,2.8,4.5,6.2,4.5,3.9,0,5.5-1.8,5.5-4.2,0-2.5-1.1-3.7-5.9-4.9-5.7-1.4-7.1-3.1-7.1-6,0-3,2.3-5.9,7.3-5.9s7.4,3.1,7.7,6.2h-2.3c-.4-1.8-1.8-4.1-5.5-4.1-3.8,0-4.9,1.9-4.9,3.6,0,2,1,3,5.4,4.1,6.2,1.5,7.8,3.5,7.8,6.8,0,4-3.2,6.5-7.9,6.5-5.1,0-7.9-2.7-8.5-6.6Z"/><path class="cls-2" d="M341,313.80579a28.71917,28.71917,0,0,0,3.1-10.7h2.3a27.44109,27.44109,0,0,1-3.3,10.7Z"/><path class="cls-2" d="M151.7,329.20581H154v14.1c1.1-2.2,3.2-4.2,7.5-4.2,5.2,0,9,4.3,9,11.1,0,6.9-3.4,12-9.6,12-3.7,0-5.8-1.5-6.9-4a30.29176,30.29176,0,0,1-.1,3.4h-2.2v-7.5l0-24.9Zm16.4,21c0-5.5-2.7-9-6.9-9-5.5,0-7.4,3.7-7.4,9.5,0,5.2,1.7,9.4,7.1,9.4C165.4,360.0058,168.1,356.30579,168.1,350.20581Z"/><path class="cls-2" d="M175.9,329.20581h2.3v4.3h-2.3Zm0,10.4h2.3v22h-2.3Z"/><path class="cls-2" d="M203.3,350.5058c0,6.1-3.4,11.6-10,11.6-6,0-9.7-4.9-9.7-11.5,0-6.3,3.5-11.5,9.9-11.5C199.4,339.1058,203.3,343.6058,203.3,350.5058Zm-17.3.1c0,5.2,2.8,9.4,7.4,9.4,4.7,0,7.4-3.9,7.4-9.4,0-5.2-2.6-9.4-7.5-9.4S186,345.30579,186,350.6058Z"/><path class="cls-2" d="M225.8,329.20581v32.4h-2.2c-.1-.5-.1-2.6-.1-3.7-1.1,2.7-3.6,4.2-7.4,4.2-5.7,0-9.2-4.7-9.2-11.3,0-6.8,3.7-11.8,9.7-11.8,4.4,0,6.1,1.9,6.8,3.3v-13.2h2.4v.1Zm-16.4,21.6c0,6,3.1,9.2,6.9,9.2,5.8,0,7.3-4,7.3-9.9,0-5.6-1.3-8.9-6.9-8.9C212.3,341.20581,209.4,344.6058,209.4,350.80579Z"/><path class="cls-2" d="M232.9,329.20581h2.3v4.3h-2.3Zm0,10.4h2.3v22h-2.3Z"/><path class="cls-2" d="M241.9,339.6058c3.5,10,6,16.9,6.8,19.7h0c.5-1.7,2.9-8.2,7.2-19.7h2.4l-8.3,22h-2.7l-7.8-22Z"/><path class="cls-2" d="M263.2,350.90579c0,5.6,2.9,9.1,7.1,9.1a6.16849,6.16849,0,0,0,6.3-4.1h2.3c-.9,2.9-3.3,6.2-8.7,6.2-6.7,0-9.3-5.8-9.3-11.4,0-6.3,3.1-11.7,9.6-11.7,6.8,0,9,5.8,9,10v1.8H263.2Zm13.9-2c0-4.3-2.4-7.7-6.7-7.7-4.5,0-6.5,3.1-7,7.7Z"/><path class="cls-2" d="M284.8,345.6058v-6H287c0,.7.1,2.1.1,4.9a8.18982,8.18982,0,0,1,7.6-5.4v2.5c-4.6.3-7.6,3.4-7.6,8.7v11.4h-2.3Z"/><path class="cls-2" d="M299.2,355.5058c.7,2.8,2.8,4.5,6.2,4.5,3.9,0,5.5-1.8,5.5-4.2,0-2.5-1.1-3.7-5.9-4.9-5.7-1.4-7.1-3.1-7.1-6,0-3,2.3-5.9,7.3-5.9s7.4,3.1,7.7,6.2h-2.3c-.4-1.8-1.8-4.1-5.5-4.1-3.8,0-4.9,1.9-4.9,3.6,0,2,1,3,5.4,4.1,6.2,1.5,7.8,3.5,7.8,6.8,0,4-3.2,6.5-7.9,6.5-5.1,0-7.9-2.7-8.5-6.6Z"/><path class="cls-2" d="M318.7,329.20581H321v4.3h-2.3Zm0,10.4H321v22h-2.3Z"/><path class="cls-2" d="M324.9,339.6058H329v-6.9h2.3v6.9h5.2v2.1h-5.2v14.2c0,2.4.5,3.8,2.6,3.8a6.08342,6.08342,0,0,0,2.3-.3v2a8.24583,8.24583,0,0,1-2.8.4c-2.9,0-4.4-1.4-4.4-5v-15.2h-4.1l0-2Z"/><path class="cls-2" d="M340.5,339.6058c4.4,12.5,6.3,17.7,7.1,20.1h0c.9-2.7,2.6-7.8,6.9-20.1h2.4l-8.3,23.3c-2.3,6.5-3.9,8-7.9,8a12.74955,12.74955,0,0,1-2-.1v-2.3a13.402,13.402,0,0,0,2,.1c3.1,0,4.2-1.5,5.8-6l-8.4-23Z"/><path class="cls-2" d="M150.8,407.90579c-1.1,3.9-3.6,7-8.6,7-5.5,0-9.4-4.1-9.4-11.4,0-6,3.2-11.6,9.7-11.6a7.91921,7.91921,0,0,1,8.3,7.1h-2.3c-.7-2.5-2.3-4.9-6-4.9-4.6,0-7.2,3.9-7.2,9.4,0,5.2,2.4,9.4,7,9.4,3.2,0,5.1-1.6,6.2-4.9h2.3Z"/><path class="cls-2" d="M173.8,403.30579c0,6.1-3.4,11.6-10,11.6-6,0-9.7-4.9-9.7-11.5,0-6.3,3.5-11.5,9.9-11.5C169.9,391.90579,173.8,396.40579,173.8,403.30579Zm-17.3.1c0,5.2,2.8,9.4,7.4,9.4,4.7,0,7.4-3.9,7.4-9.4,0-5.2-2.6-9.4-7.5-9.4S156.5,398.1058,156.5,403.40579Z"/><path class="cls-2" d="M179.2,398.1058v-5.7h2.2c0,.7.1,2.6.1,3.9a6.77737,6.77737,0,0,1,6.6-4.4c3.1,0,5.5,1.5,6.4,4.3a7.4454,7.4454,0,0,1,7.2-4.3c3.4,0,6.9,1.9,6.9,8.1v14.5h-2.3v-14.2c0-2.9-1-6.1-5.1-6.1-4.2,0-6.2,3.4-6.2,7.6v12.7h-2.2v-14.2c0-3.2-1-6.2-5-6.2-4.2,0-6.3,3.7-6.3,8.2v12.1h-2.3l0-16.3Z"/><path class="cls-2" d="M218,411.20581v12h-2.3v-30.8h2.2c.1.8.1,2.2.1,3.9a8.18708,8.18708,0,0,1,7.7-4.5c5.2,0,8.8,4.4,8.8,11,0,7.9-4.2,12.1-9.6,12.1C221.1,414.90579,219.1,413.20581,218,411.20581Zm14.1-8.3c0-5.1-2.4-8.9-6.8-8.9-5.3,0-7.5,3.3-7.5,9.3,0,5.9,1.7,9.5,7.2,9.5C229.6,412.80579,232.1,409.0058,232.1,402.90579Z"/><path class="cls-2" d="M240,398.40579v-6h2.2c0,.7.1,2.1.1,4.9a8.18981,8.18981,0,0,1,7.6-5.4v2.5c-4.6.3-7.6,3.4-7.6,8.7v11.4H240l0-16.1Z"/><path class="cls-2" d="M272.2,403.30579c0,6.1-3.4,11.6-10,11.6-6,0-9.7-4.9-9.7-11.5,0-6.3,3.5-11.5,9.9-11.5C268.4,391.90579,272.2,396.40579,272.2,403.30579Zm-17.2.1c0,5.2,2.8,9.4,7.4,9.4,4.7,0,7.4-3.9,7.4-9.4,0-5.2-2.6-9.4-7.5-9.4S255,398.1058,255,403.40579Z"/><path class="cls-2" d="M277.7,398.1058v-5.7h2.2c0,.7.1,2.6.1,3.9a6.77737,6.77737,0,0,1,6.6-4.4c3.1,0,5.5,1.5,6.4,4.3a7.4454,7.4454,0,0,1,7.2-4.3c3.4,0,6.9,1.9,6.9,8.1v14.5h-2.3v-14.2c0-2.9-1-6.1-5.1-6.1-4.2,0-6.2,3.4-6.2,7.6v12.7h-2.2v-14.2c0-3.2-1-6.2-5-6.2-4.2,0-6.3,3.7-6.3,8.2v12.1h-2.3l0-16.3Z"/><path class="cls-2" d="M314.2,382.0058h2.3v4.3h-2.3Zm0,10.4h2.3v22h-2.3Z"/><path class="cls-2" d="M323.7,408.30579c.7,2.8,2.8,4.5,6.2,4.5,3.9,0,5.5-1.8,5.5-4.2,0-2.5-1.1-3.7-5.9-4.9-5.7-1.4-7.1-3.1-7.1-6,0-3,2.3-5.9,7.3-5.9s7.4,3.1,7.7,6.2h-2.3c-.4-1.8-1.8-4.1-5.5-4.1-3.8,0-4.9,1.9-4.9,3.6,0,2,1,3,5.4,4.1,6.2,1.5,7.8,3.5,7.8,6.8,0,4-3.2,6.5-7.9,6.5-5.1,0-7.9-2.7-8.5-6.6Z"/><path class="cls-2" d="M343.9,403.70581c0,5.6,2.9,9.1,7.1,9.1a6.16851,6.16851,0,0,0,6.3-4.1h2.3c-.9,2.9-3.3,6.2-8.7,6.2-6.7,0-9.3-5.8-9.3-11.4,0-6.3,3.1-11.7,9.6-11.7,6.8,0,9,5.8,9,10v1.8H343.9v.1Zm13.8-2c0-4.3-2.4-7.7-6.7-7.7-4.5,0-6.5,3.1-7,7.7Z"/><path class="cls-2" d="M382.5,382.0058v32.4h-2.2c-.1-.5-.1-2.6-.1-3.7-1.1,2.7-3.6,4.2-7.4,4.2-5.7,0-9.2-4.7-9.2-11.3,0-6.8,3.7-11.8,9.7-11.8,4.4,0,6.1,1.9,6.8,3.3v-13.1Zm-16.4,21.6c0,6,3.1,9.2,6.9,9.2,5.8,0,7.3-4,7.3-9.9,0-5.6-1.3-8.9-6.9-8.9C369,394.0058,366.1,397.40579,366.1,403.6058Z"/><polygon class="cls-1" points="293.4 141.706 280.5 101.306 270.5 104.606 281.2 136.606 293.4 141.706"/><circle class="cls-3" cx="231.79999" cy="90.1058" r="19.1"/><ellipse class="cls-3" cx="260" cy="72.3058" rx="18.39999" ry="22.1"/><ellipse class="cls-3" cx="296" cy="60.4058" rx="24.60001" ry="27.9"/><ellipse class="cls-3" cx="312.3" cy="86.4058" rx="26.10001" ry="20.5"/><ellipse class="cls-3" cx="263.5" cy="88.3058" rx="31.8" ry="20.9"/><ellipse class="cls-3" cx="330.5" cy="59.1058" rx="26.39999" ry="22.9"/><path d="M224.2,210.5058s16.4-49.9,11.5-105.4h46.5s2.8,87.1,13.7,105.4Z"/></svg>