<svg id="Layer_1" data-name="Layer 1" xmlns="http://www.w3.org/2000/svg" viewBox="0 0 517 517"><defs><style>.cls-1{fill:#2e3192;}.cls-2{fill:#fff;}.cls-3{fill:#a87c4f;stroke:#a87c4f;stroke-width:4px;}.cls-3,.cls-4,.cls-5{stroke-miterlimit:10;}.cls-4{fill:#8bc53f;stroke:#8bc53f;}.cls-4,.cls-5{stroke-width:7px;}.cls-5{fill:#603813;stroke:#603813;}</style></defs><title>nutella1</title><path class="cls-1" d="M258.5,516.5C116.0105,516.49994.5,400.98938.5,258.49988A258,258,0,0,1,76.06641,76.06641c100.75529-100.75529,264.1119-100.75529,364.86718,0s100.75531,264.11187,0,364.86718A256.313,256.313,0,0,1,258.5,516.5Z"/><path class="cls-2" d="M258.5,1c142.25092.09075,257.49451,115.48149,257.40375,257.73242a257.568,257.568,0,0,1-157.1734,237.03235C227.65308,551.02686,76.59519,489.56647,21.33312,358.4892-33.87311,227.54436,27.40383,76.62849,158.26965,21.2352A255.88786,255.88786,0,0,1,258.5,1m0-1C115.73441,0,0,115.73441,0,258.5S115.73441,517,258.5,517,517,401.26563,517,258.5,401.26563,0,258.5,0Z"/><path class="cls-3" d="M267.00678,91.65c12.88175,62.791-2.81056,108.74738-2.81056,108.74738h-15.4581S269.81734,142.54382,258.10666,91.65Z"/><path class="cls-4" d="M260.02418,86.35028c29.07409-6.22839,58.9235-22.34891,58.9235-22.34891C277.045,37.18588,257.69825,86.35028,257.69825,86.35028"/><path class="cls-4" d="M262.98591,80.63555s.4413-21.00314,28.86249-46.689c0,0-48.24993,6.37058-45.93658,32.148,0,0-1.2111,22.81695,7.93149,18.679Z"/><path class="cls-4" d="M250.46629,52.01605s-14.79932-21.68891-45.53387-12.766c0,0,28.09072,24.45545,38.666,23.79449s-35.03078-8.1962-45.60611,8.12962c0,0,44.61467,2.87478,49.57185,2.66024"/><path class="cls-4" d="M245.83121,75.93324s-36.27208-.32672-43.21214,29.91023c0,0,27.43262-19.9014,49.408-17.96575S245.83121,75.93324,245.83121,75.93324Z"/><circle class="cls-5" cx="251.94134" cy="90.88828" r="8.46988"/><circle class="cls-5" cx="268.83981" cy="86.35028" r="8.46988"/><path class="cls-2" d="M55.23535,218.01709H73.86816c15.376,0,26.0127,10.71729,26.0127,27.50684C99.88086,262.23047,89.48535,274,73.7793,274h-18.544ZM59.7207,269.877H73.1416c14.709,0,21.93262-10.34472,21.93262-24.11767,0-12.24854-6.5127-23.61963-21.93067-23.61963H59.7207Z"/><path class="cls-2" d="M111.9707,254.50684c.0791,10.209,5.22266,16.58007,12.85938,16.58007,7.46094,0,9.99512-4.19043,11.42773-7.45312h4.24024C138.82227,268.91016,134.57617,274.96,124.667,274.96c-12.19238,0-16.93847-10.47363-16.93847-20.64941,0-11.47412,5.70214-21.30225,17.417-21.30225,12.3623,0,16.30176,10.63281,16.30176,18.21387,0,1.12646,0,2.2417-.08106,3.28467Zm25.15723-3.5962c-.08008-7.853-4.34766-14.04589-12.13867-14.04589-8.18067,0-11.90723,5.71728-12.77832,14.04589Z"/><path class="cls-2" d="M151.15137,244.29639c0-3.44336,0-7.19873-.08008-10.32764h4.07324c.08106,1.352.24317,4.76758.166,7.07275a12.50956,12.50956,0,0,1,11.98925-8.0332c5.6084,0,9.9834,2.80615,11.58106,7.88525,2.00879-4.14355,6-7.88525,13.03418-7.88525,6.18262,0,12.57226,3.54,12.57226,14.65283V274h-4.15625V248.16113c0-5.32519-1.9082-11.11816-9.28808-11.11816-7.69727,0-11.18262,6.17334-11.18262,13.90283V274h-4.0791V248.24854c0-5.80665-1.74512-11.20362-9.05176-11.20362-7.69238,0-11.41894,6.793-11.41894,14.93018V274h-4.15918Z"/><path class="cls-2" d="M244.66113,266.332A46.56725,46.56725,0,0,0,245.2207,274h-3.99414a26.0143,26.0143,0,0,1-.71679-6.11426C239.14648,270.832,235.6416,274.96,227.4209,274.96c-9.29492,0-13.29981-6.01269-13.29981-12.02148,0-8.814,6.81641-12.82178,18.82032-12.82178h7.56347v-4.04639c0-3.97754-1.19726-9.28369-10.23437-9.28369-8.00977,0-9.207,4.19238-10.08008,7.46631H216.041c.48339-4.46436,3.24316-11.24609,14.3164-11.24463,9.16309.002,14.30371,3.85254,14.30371,12.67578ZM240.583,253.6333h-7.77149c-8.83691,0-14.293,2.31543-14.293,9.13233,0,4.99609,3.56153,8.416,9.12989,8.416,11.34961,0,12.93457-7.54492,12.93457-16.11621Z"/><path class="cls-2" d="M257.791,244.05664c0-3.52051,0-6.89111-.08008-10.08789h4.07519c.16211,1.27539.24317,6.4248.167,7.54932,1.752-4.04786,5.0332-8.50977,13.252-8.50977,7.14648,0,13.44726,4.03565,13.44726,15.062V274h-4.16211V248.72412c0-7.06689-2.92968-11.6792-9.84863-11.6792-9.41992,0-12.68847,7.80713-12.68847,16.49658V274H257.791Z"/><path class="cls-2" d="M332.74414,215.05078v47.43164c0,3.83887,0,7.52149.08008,11.51758h-3.99609c-.16114-.9668-.24415-4.69141-.2461-6.668-2,4.84473-6.46,7.62793-13.40332,7.62793-10.40234,0-16.65137-8.47851-16.65137-20.49853,0-12.32959,6.80664-21.45313,17.70508-21.45313,7.95606,0,11.15528,3.41113,12.34961,5.95606V215.05078Zm-29.81348,39.24756c0,10.897,5.625,16.78369,12.47754,16.78369,10.50293,0,13.33985-7.26465,13.33985-18.03808,0-10.25-2.44825-16.15772-12.62891-16.15772C308.24023,236.88623,302.93066,243.17139,302.93066,254.29834Z"/><path class="cls-2" d="M367.63867,274V237.834h-6.8623v-3.86523h6.8623v-5.63623c0-6.75977,1.97071-14.08154,10.93067-14.08154a15.08553,15.08553,0,0,1,3.95019.55859v3.95313a19.71159,19.71159,0,0,0-4.27832-.47413c-4.69141,0-6.44043,3.31446-6.44043,10.21924v5.46094h8.68848V237.834h-8.68848V274Z"/><path class="cls-2" d="M419.36133,253.9043c0,11.15039-6.18945,21.05566-18.13574,21.05566-10.84473,0-17.582-8.88574-17.582-20.97266,0-11.46923,6.35157-20.979,17.98536-20.979C412.30273,233.0083,419.36133,241.335,419.36133,253.9043Zm-31.31641.08008c0,9.48632,5.083,17.10253,13.499,17.10253,8.57421,0,13.416-7.06836,13.416-17.10107,0-9.42334-4.76465-17.104-13.57617-17.104C392.34668,236.88184,388.04492,244.40234,388.04492,253.98438Z"/><path class="cls-2" d="M429.22754,244.85645c0-6.66358-.07813-9.56055-.08008-10.8877h4.0791c.082,1.272.16309,3.86572.16309,8.92334a15.10979,15.10979,0,0,1,13.90723-9.88379v4.46387c-8.32129.54346-13.90723,6.227-13.90723,15.78711V274h-4.16211Z"/><path class="cls-2" d="M135.99219,364.12891v21.86816H131.832V339.81152c0-3.28125,0-6.79687-.08008-9.84277h4.0752c.16015,1.51074.165,3.91406.165,7.15527,2.46484-4.76172,6.84961-8.11523,14.03613-8.11523,9.43652,0,16.01074,7.917,16.01074,19.93555,0,14.40527-7.6875,22.01562-17.376,22.01562C141.64941,370.96,137.9834,367.85938,135.99219,364.12891Zm25.64648-15.01856c0-9.24316-4.44922-16.14551-12.3164-16.14551-9.61133,0-13.57422,6.03907-13.57422,16.86426,0,10.65918,3.09863,17.25488,13.01562,17.25488C157.03516,367.084,161.63867,360.09375,161.63867,349.11035Z"/><path class="cls-2" d="M203.58105,362.333a46.55111,46.55111,0,0,0,.55958,7.667h-3.99415a26.0143,26.0143,0,0,1-.71679-6.11426c-1.36328,2.94629-4.86817,7.07422-13.08887,7.07422-9.29492,0-13.2998-6.01269-13.2998-12.02148,0-8.81446,6.8164-12.82227,18.82031-12.82227h7.56347v-4.0459c0-3.97754-1.19726-9.28418-10.23437-9.28418-8.00977,0-9.207,4.19336-10.08008,7.4668h-4.14941c.4834-4.46387,3.24316-11.24609,14.3164-11.24414,9.16309.001,14.30371,3.85156,14.30371,12.6748Zm-4.07812-12.7002h-7.77148c-8.83692,0-14.293,2.31543-14.293,9.13282,0,4.99609,3.56152,8.416,9.12988,8.416,11.34961,0,12.93457-7.54492,12.93457-16.11621Z"/><path class="cls-2" d="M216.71,370V311.05078h4.16211V370Z"/><path class="cls-2" d="M233.90918,340.29688c0-3.44336,0-7.19922-.08008-10.32813h4.07324c.08106,1.35254.24317,4.76758.166,7.07227a12.51015,12.51015,0,0,1,11.98926-8.03223c5.6084,0,9.9834,2.80566,11.58105,7.88476,2.00879-4.14355,6-7.88476,13.03418-7.88476,6.18262,0,12.57227,3.54,12.57227,14.65234V370h-4.15625V344.16113c0-5.32519-1.90821-11.11816-9.28809-11.11816-7.69726,0-11.18262,6.17285-11.18262,13.90234V370h-4.0791V344.249c0-5.80664-1.74511-11.2041-9.05176-11.2041-7.69238,0-11.41894,6.793-11.41894,14.92969V370h-4.15918Z"/><path class="cls-2" d="M353.6416,349.9043c0,11.15039-6.18945,21.05566-18.13574,21.05566-10.84473,0-17.582-8.88672-17.582-20.97266,0-11.46972,6.35156-20.97851,17.98535-20.97851C346.583,329.00879,353.6416,337.335,353.6416,349.9043Zm-31.3164.08008c0,9.48632,5.083,17.10253,13.499,17.10253,8.57422,0,13.416-7.06836,13.416-17.10156,0-9.42285-4.76464-17.10351-13.57617-17.10351C326.627,332.88184,322.3252,340.40234,322.3252,349.98438Z"/><path class="cls-2" d="M363.82715,311.05078h4.16211v7.81348h-4.16211Zm0,18.918h4.16211V370h-4.16211Z"/><path class="cls-2" d="M381.02734,370V311.05078h4.16211V370Z"/></svg>