<svg id="Layer_1" data-name="Layer 1" xmlns="http://www.w3.org/2000/svg" viewBox="0 0 599.19224 421.9885"><defs><style>.cls-1{fill:#603913;}.cls-2{fill:#d5772d;}.cls-3{fill:#ec8730;}.cls-4{fill:#eb872d;}.cls-5{fill:#5d6162;}.cls-6{fill:#86898e;}.cls-7{fill:#858a8e;}.cls-8{fill:#231f20;}.cls-9{fill:#90271e;}.cls-10{fill:#c49a6c;stroke:#c49a6c;stroke-width:3px;}.cls-10,.cls-11{stroke-miterlimit:10;}.cls-11{fill:none;stroke:#603913;stroke-width:0.5px;}</style></defs><title>orangutan stumps</title><path class="cls-1" d="M98.87229,132.888a305.915,305.915,0,0,0,7.62137,53.50736,2.18449,2.18449,0,0,1,.07925.92877,1.44659,1.44659,0,0,1-.52108.77551c-2.91712,2.60378-6.45564,3.41267-9.89113,4.052a161.47953,161.47953,0,0,1-21.49857,2.529h3.39719a161.47953,161.47953,0,0,1-21.49857-2.529c-3.43549-.63931-6.974-1.4482-9.89113-4.052a1.44658,1.44658,0,0,1-.52107-.77551,2.18432,2.18432,0,0,1,.07924-.92877A305.915,305.915,0,0,0,53.84916,132.888"/><path class="cls-1" d="M76.91,134.37784q-11.51691-.51483-23.013-1.66751"/><path class="cls-2" d="M416.63892,132.6432c1.22661-18.26447,2.42539-36.87608-1.95683-54.64942a8.34034,8.34034,0,0,1-.37894-3.09553c.54092-3.94678,5.94027-4.75092,8.71645-7.60792,4.25765-4.38158.9911-11.88094-3.52317-15.99764-2.92894-2.671-6.48577-4.88855-10.43218-5.26115s-8.27663,1.49386-9.89213,5.11368c-5.28737-3.99142-8.22948-10.25513-11.83852-15.81054-11.86328-18.26123-32.378-29.91337-53.81447-33.74576S289.823,1.18408,269.2637,8.3621c-7.64226,2.6682-15.20595,5.90733-21.56572,10.915-5.67146,4.4657-10.198,10.18581-15.16332,15.42546-4.70648,4.96654-9.82742,9.51962-14.94114,14.06574a4.7881,4.7881,0,0,1-2.5432,1.44864,5.40665,5.40665,0,0,1-2.498-.63194c-6.71384-2.742-15.46112-1.12169-19.47184,4.9205s-.9136,15.95857,6.20583,17.33978c.88656,19.474,1.7009,39.48842-4.59934,57.93651a9.33929,9.33929,0,0,0-7.71633-1.18489l.00366.02439a82.51613,82.51613,0,0,0-33.71845,52.39914,142.783,142.783,0,0,0-1.7835,23.98185A571.50308,571.50308,0,0,0,173.67925,368.9954l-.48869-1.03252-10.00969,6.62618c-3.30784,2.18971-6.72,4.48491-8.80228,7.86138s-2.44075,8.16264.25651,11.07149c1.50826,1.62657,3.688,2.41881,5.78042,3.15519,4.58051,1.612,9.22355,3.23774,14.06335,3.6328s9.98-.57354,13.727-3.66221c3.57676-2.94836,5.72813-7.646,9.93645-9.58916,5.47442-2.52782,11.69286.63418,17.36212,2.68815,1.97488.7155,4.27046,1.27308,6.09191.22693,2.23165-1.28176,2.64647-4.5098,1.58635-6.85487s-3.17908-4.00842-5.22021-5.57591l-8.35086-6.413a12.32557,12.32557,0,0,1-3.97075-4.20048c-1.09159-2.32386-.62956-5.042-.19779-7.57286a185.22738,185.22738,0,0,0,2.62464-33.1922l-.17606-.77469a353.75349,353.75349,0,0,1,1.16591-66.05492l-.40065-.93026,14.68071,12.04884-.16617.71686c3.65248,20.97243,11.65248,39.97243,18.65248,59.97243-9,8-20,14-23,26,4,8,14,13,23,12,11-1,16-11,23-17,1-1,3,0,3,1-1,5-4,8-6,12,0,1,0,2,1,2,8-1,14-8,16.23046-14.84915l.04364-.51c9.4542-14.81088,10.75646-33.2162,11.79-50.75689l.00255-.58848a17.05351,17.05351,0,0,0,8.95473,1.46656c3.05718-.185,6.08607-.75669,9.14791-.83229,4.57381-.11293,9.37257.8484,13.58412-.93913l.78575.18535a112.97874,112.97874,0,0,0,11.69408,54.12118,63.52413,63.52413,0,0,0,8.61033,13.44817c.99324,1.14614,2.176,2.3094,3.68286,2.48175a4.73962,4.73962,0,0,0,3.36124-1.15553,8.1034,8.1034,0,0,0-2.69752-14.144c1.17117-1.80722,3.88852-2.05344,5.78578-1.03454a10.38648,10.38648,0,0,1,4.05221,4.8913,27.7945,27.7945,0,0,0,3.05989,5.66968,19.52342,19.52342,0,0,0,4.40831,3.64518c1.89413,1.27567,3.94866,2.6014,6.232,2.56319a10.88035,10.88035,0,0,0,3.593-.88481,153.8778,153.8778,0,0,0,15.06842-6.60672c2.38564-1.202,4.913-2.64987,5.93394-5.1184a7.93067,7.93067,0,0,0-1.02046-7.12294,23.43716,23.43716,0,0,0-5.248-5.28492l-13.76506-11.183a6.596,6.596,0,0,1-2.34185-2.77255c-.63728-1.88774.513-3.854,1.447-5.614,2.46761-4.64972,3.65138-9.85452,4.80975-14.98941l6.99585-31.01159a11.54987,11.54987,0,0,1,4.66522-8.1595l12.22668-10.73741.26082-.38288q5.44947,48.28752,6.90874,96.91463c.11418,3.81071.07947,8.00947-2.40876,10.89793a19.31954,19.31954,0,0,1-4.45,3.33506,40.3282,40.3282,0,0,0-11.64964,11.38228c-.98076,1.45541-1.8941,3.28-1.20363,4.89346.976,2.28058,4.16006,2.2856,6.61259,1.91331l11.78485-1.78892a18.18442,18.18442,0,0,1,5.42425-.2742c7.16908,1.08355,10.60219,9.87708,17.32035,12.604,4.28155,1.73789,9.14839.70912,13.57235-.62522q4.80539-1.44939,9.46189-3.34213c4.21668-1.71429,9.02692-4.86227,8.51339-9.385-.293-2.58037-2.308-4.58618-4.24527-6.31568A157.64969,157.64969,0,0,0,441.407,367.00214l-.25971-.08383c9.37918-27.28025,13.18431-56.10882,16.93742-84.71118l4.46573-34.03321c.68925-5.25274,1.37895-10.51,1.7227-15.79663a185.75208,185.75208,0,0,0-.171-22.83146c-1.16832-20.08356-3.9912-40.495-12.8846-58.54-3.12357-6.33782-7.113-12.47121-12.875-16.5607s-13.58132-5.80975-20.04714-2.96058"/><path class="cls-3" d="M370.50858,179.802l-32.7808,6.12663c-11.36821,2.12469-22.80883,4.25665-34.37357,4.34126A131.9202,131.9202,0,0,1,283.096,188.6704a202.58874,202.58874,0,0,1-35.68154-8.64719l-.19925.78842c-13.76381,16.292-23.5817,36.72583-23.63953,58.05345s10.967,43.25992,30.05039,52.78339c9.805,4.89316,20.91881,6.3263,31.795,7.66378,16.67241,2.05026,33.67116,4.03293,50.17022.87794a82.17568,82.17568,0,0,0,31.919-13.5863c5.437-3.84794,10.47352-8.4497,13.86529-14.18235,3.09953-5.23871,4.71257-11.22273,5.81281-17.20944,4.74723-25.831-.16266-54.17607-16.91144-74.40619"/><path class="cls-4" d="M369.844,177.3913c-20.59818,3.84974-41.65429,9.35725-62.63938,10.27738-19.95966.87517-40.30463-3.73528-59.12554-10.05617a2.52539,2.52539,0,0,0-3.07529,1.7461c-.44888,1.77612-2.90512,3.80754-4.05146,5.33134-1.9836,2.63677-3.86253,5.35325-5.607,8.15435a103.84085,103.84085,0,0,0-8.43466,16.71613c-4.37269,11.06033-6.65485,23.22843-5.57822,35.12648,1.94526,21.49748,14.313,42.38227,34.76708,50.80638,12.231,5.03739,25.94132,6.03857,38.97064,7.45825,14.54328,1.58463,29.366,2.34732,43.75121-.88928a83.14084,83.14084,0,0,0,34.44-16.72379c9.78109-8.07136,14.53795-18.689,16.611-31.01456,4.43038-26.34073-.80766-54.26789-17.82759-75.28577-2.02549-2.50127-5.54385,1.05547-3.53553,3.53554,14.12588,17.444,19.38091,40.3603,17.53322,62.45987-1.01568,12.14831-3.6895,24.53287-12.60029,33.41816-8.561,8.53651-20.15651,14.47371-31.71429,17.72064-12.67564,3.561-25.88085,3.60935-38.9101,2.53443-12.36371-1.02-25.21487-2.11428-37.23441-5.30146-21.30065-5.64822-35.41134-23.57447-38.79528-45.03224-1.99285-12.63675.264-25.67609,4.94392-37.48345a97.90609,97.90609,0,0,1,8.81493-16.91535,108.50435,108.50435,0,0,1,6.35042-8.85619c1.14545-1.43575,2.47087-2.62236,2.92778-4.43028l-3.07529,1.7461c19.19266,6.44574,40.09579,11.1311,60.45473,10.23477,21.45208-.94445,42.91963-6.522,63.96858-10.456,3.15892-.59039,1.82107-5.41017-1.3292-4.8214Z"/><path class="cls-5" d="M356.17894,95.23553a20.11537,20.11537,0,0,1,20.43548,7.79659l-4.42251,2.22027a25.11919,25.11919,0,0,1,5.30751,13.09382l-7.3729-2.29986a46.20625,46.20625,0,0,1,2.95525,25.17486,19.23825,19.23825,0,0,1-6.13677-6.37956,45.33476,45.33476,0,0,1-4.10462,21.23613,18.413,18.413,0,0,0-6.44821-6.14743,93.43645,93.43645,0,0,1-8.85269,26.96163l-4.39321-9.20545L337.73449,183.036c-.46915,1.33066-1.17924,2.87157-2.57407,3.0842-3.26858.49828-2.8676-5.91588-5.95858-7.08966L311.826,197.979c-.9404,1.02551-2.04953,2.12962-3.44093,2.13472a5.00919,5.00919,0,0,1-3.054-1.52179,108.41034,108.41034,0,0,1-16.05473-16.84844c-1.83356-2.39383-3.14273-6.623-.3485-7.75644a31.54789,31.54789,0,0,1-4.00856,14.17522l-9.63775-22.19744a21.02521,21.02521,0,0,1-6.26367,12.1498l-8.62124-28.17512-7.415,7.80848L250.439,132.6548a12.4583,12.4583,0,0,1-7.84584,7.5534,65.81943,65.81943,0,0,1,1.02166-24.43448l-5.46077,2.23873a23.22735,23.22735,0,0,1,6.20413-12.58683c-1.17684,2.28683-5.09506-.307-4.41959-2.78857s3.447-3.65093,5.882-4.47869l16.83484-5.7228.34642-.08744A63.4881,63.4881,0,0,1,254.801,34.8634a17.26905,17.26905,0,0,1,6.99231,6.42751,78.2669,78.2669,0,0,1,10.57545-16.32646,56.90233,56.90233,0,0,1,1.54806,14.81425A33.87863,33.87863,0,0,1,286.08362,23.957l2.8479,23.57521q7.665-11.49078,14.5066-23.50331l1.933,20.068A52.55134,52.55134,0,0,1,321.476,23.79268l-4.12285,20.29426a22.30773,22.30773,0,0,0,13.761-13.98488l1.74595,15.08365a37.159,37.159,0,0,0,11.99762-15.64923l3.09382,10.82063a20.7345,20.7345,0,0,0,6.72484-8.58769,68.10011,68.10011,0,0,1,1.47018,62.268"/><path class="cls-6" d="M255.50487,132.09186c-1.24413-12.79472,3.04849-25.5493,9.01926-36.93362,5.3277-10.15818,12.19786-19.757,21.49338-26.47757s21.27292-10.29389,32.46939-7.80155c17.32628,3.85682,28.51608,20.49346,36.08024,36.55143,3.834,8.13917,7.25735,16.65762,7.99307,25.62445s-1.53814,18.53228-7.80957,24.98322c-8.95776,9.21415-23.25422,9.9788-36.1038,10.15257l-21.48907.29059c-7.22144.09765-14.61568.16877-21.43652-2.205a31.75336,31.75336,0,0,1-20.465-24.35006"/><path class="cls-7" d="M398.57462,51.73633c1.22423,1.61574,2.2955,3.34081,3.36479,5.063l9.92792,15.98976a2.52929,2.52929,0,0,0,.91874,1.00835,2.55636,2.55636,0,0,0,2.3668-.51911c4.26321-2.64007,8.769-5.92357,9.82775-10.825a12.07576,12.07576,0,0,0-3.02549-10.25013,20.52062,20.52062,0,0,0-9.36036-5.68109,14.32151,14.32151,0,0,0-8.18246-.55584c-2.66657.76457-5.0435,3.043-5.2054,5.81231"/><path class="cls-8" d="M269.80659,48.40731a6.6377,6.6377,0,0,0-6.22766,2.248,7.0856,7.0856,0,0,0-1.26235,6.541,7.20733,7.20733,0,0,0,14.01052-3.19452,7.4695,7.4695,0,0,0-7.61268-6.14612"/><path class="cls-8" d="M269.80659,47.15731a8.00461,8.00461,0,0,0-9.04288,8.33442,8.44766,8.44766,0,0,0,16.87852-.72824c-.10164-4.722-4.40551-8.18782-8.92781-8.15782a1.25075,1.25075,0,0,0,0,2.5,6.23578,6.23578,0,0,1,6.33948,5.06895,5.93514,5.93514,0,1,1-11.79019,1.31711,5.57873,5.57873,0,0,1,6.54288-5.83442c1.59089.2062,1.57581-2.29576,0-2.5Z"/><path class="cls-8" d="M347.74823,48.40731a6.63769,6.63769,0,0,0-6.22766,2.248,7.08558,7.08558,0,0,0-1.26236,6.541,7.20734,7.20734,0,0,0,14.01053-3.19452,7.46951,7.46951,0,0,0-7.61269-6.14612"/><path class="cls-8" d="M347.74823,47.15731a8.00462,8.00462,0,0,0-9.04289,8.33442,8.44766,8.44766,0,0,0,16.87852-.72824c-.10163-4.722-4.40551-8.18782-8.92781-8.15782a1.25075,1.25075,0,0,0,0,2.5,6.23578,6.23578,0,0,1,6.33948,5.06895,5.93514,5.93514,0,1,1-11.79019,1.31711,5.57873,5.57873,0,0,1,6.54289-5.83442c1.59089.2062,1.5758-2.29576,0-2.5Z"/><path class="cls-8" d="M291.49082,80.723l4.43481,8.20322a9.24308,9.24308,0,0,0,2.6592,3.45967,4.93538,4.93538,0,0,0,5.50978-.13821,5.4264,5.4264,0,0,0,2.08032-5.172,7.58305,7.58305,0,0,0-3.94813-5.10517,22.44974,22.44974,0,0,0-6.31816-2.07194l-4.51031-.99716"/><path class="cls-8" d="M290.41148,81.35385c1.47765,2.73325,2.91462,5.49346,4.43482,8.20322a10.31478,10.31478,0,0,0,3.10763,3.90811,6.201,6.201,0,0,0,8.592-2.13523c1.81245-3.07835.76754-6.68745-1.74047-9.00832-3.43012-3.17419-8.7151-3.66177-13.07479-4.62563-1.56773-.3466-2.23734,2.063-.6646,2.4107,4.27322.94474,14.85547,1.92191,13.82052,8.46282a3.73831,3.73831,0,0,1-4.446,3.26365c-1.8281-.41437-2.61835-2.08123-3.43555-3.53789-1.52019-2.70977-2.95717-5.47-4.43482-8.20323-.76539-1.41578-2.92463-.155-2.15867,1.2618Z"/><path class="cls-8" d="M324.83192,79.31962a44.41183,44.41183,0,0,0-10.27417,3.1981c-2.33426,1.05184-4.87893,2.77083-4.93478,5.33051-.06021,2.75951,3.13128,4.71713,5.85838,4.29119s4.89946-2.49436,6.57825-4.6853a30.78921,30.78921,0,0,0,3.87-6.624"/><path class="cls-8" d="M324.49962,78.11427c-4.26835.83746-21.69895,5.37229-14.77345,13.14266,6.74374,7.56643,14.90961-4.50471,17.28275-9.796.653-1.45591-1.50071-2.72883-2.15868-1.2618-1.689,3.766-6.84331,13.61535-12.30434,10.05393-7.10057-4.63065,10.01247-9.21686,12.61832-9.72813,1.57728-.30946.90956-2.71955-.6646-2.4107Z"/><path class="cls-7" d="M199.90618,71.01537c-4.47581-.36814-7.89016-4.86581-7.962-9.35616s2.60687-8.68884,6.15272-11.4448a10.09522,10.09522,0,0,1,3.894-2.01957,11.51483,11.51483,0,0,1,6.0099.67426c2.05872.67029,4.19479,1.60919,5.351,3.43967A135.03013,135.03013,0,0,0,202.1733,71.05285"/><path class="cls-7" d="M200.57078,68.60467c-6.2202-1.04142-7.36469-7.85857-4.39077-12.6295,3.42587-5.496,10.9246-7.45728,15.40414-1.89863l-.39091-3.02957a145.86014,145.86014,0,0,0-11.17862,18.74409c-1.43313,2.87057,2.87836,5.40591,4.31735,2.52359a145.86063,145.86063,0,0,1,11.17862-18.74408,2.55005,2.55005,0,0,0-.39091-3.02956A15.00577,15.00577,0,0,0,201.991,45.69484c-4.25806.71961-7.91767,4.19687-10.12832,7.75674-4.565,7.35106-2.05217,18.39548,7.37893,19.97449,3.14752.527,4.50066-4.29041,1.3292-4.8214Z"/><path class="cls-9" d="M354.60566,140.35152c-9.22864-15.96722-28.22962-19.48795-45.26394-19.23636-16.486.24349-35.50044,3.843-43.28,20.29169-.68415,1.44653,1.47049,2.71687,2.15868,1.2618,7.4086-15.6643,25.47766-18.82235,41.12136-19.05349,16.12767-.2383,34.32312,2.80346,43.10527,17.99816a1.25093,1.25093,0,0,0,2.15867-1.2618Z"/><path class="cls-2" d="M203.42752,131.49231c-17.01206-12.66-36.62691,7.66761-43.747,22.07562a68.85653,68.85653,0,0,0-2.86636,53.24833c1.6122,4.51258,8.8617,2.5675,7.2321-1.99379A62.11294,62.11294,0,0,1,164.2565,161.69c4.5544-11.85389,20.64659-34.69016,35.38562-23.7217,3.87437,2.88322,7.61786-3.624,3.7854-6.476Z"/><ellipse class="cls-10" cx="76.36861" cy="132.19171" rx="21.46864" ry="9.84604"/><ellipse class="cls-11" cx="76.91004" cy="132.25024" rx="17.06662" ry="7.38202"/><ellipse class="cls-11" cx="76.42464" cy="132.1154" rx="12.05931" ry="4.68539"/><ellipse class="cls-11" cx="76.43139" cy="132.4047" rx="20.68396" ry="10.05902"/><path class="cls-1" d="M549.76543,150.17458a220.7908,220.7908,0,0,0,10.91326,53.50735,1.17193,1.17193,0,0,1-.63266,1.70428c-4.17712,2.60378-9.244,3.41267-14.1634,4.052q-15.31689,1.99056-30.78444,2.529h4.86454q-15.44335-.53841-30.78444-2.529c-4.91938-.63932-9.98628-1.44821-14.16341-4.052a1.17195,1.17195,0,0,1-.63266-1.70428,220.79081,220.79081,0,0,0,10.91327-53.50735"/><path class="cls-1" d="M518.317,151.66442q-16.49142-.51483-32.953-1.6675"/><ellipse class="cls-10" cx="517.54175" cy="149.4783" rx="30.74157" ry="9.84604"/><ellipse class="cls-11" cx="518.31703" cy="149.53682" rx="24.4382" ry="7.38202"/><ellipse class="cls-11" cx="517.62198" cy="149.40199" rx="17.26809" ry="4.68539"/><ellipse class="cls-11" cx="517.63164" cy="149.69128" rx="29.61798" ry="10.05902"/><path class="cls-1" d="M135.42524,370.02922a234.021,234.021,0,0,0,7.09473,44.9925,1.66742,1.66742,0,0,1,.07377.781,1.21965,1.21965,0,0,1-.48507.6521c-2.71555,2.18943-6.00956,2.8696-9.20765,3.40718a165.75873,165.75873,0,0,1-20.013,2.12653h3.16244a165.75889,165.75889,0,0,1-20.013-2.12653c-3.19809-.53758-6.49209-1.21775-9.20765-3.40718a1.21963,1.21963,0,0,1-.48506-.6521,1.66729,1.66729,0,0,1,.07377-.781,234.02255,234.02255,0,0,0,7.09473-44.9925"/><path class="cls-1" d="M114.98058,371.282q-10.7211-.43291-21.4228-1.40215"/><ellipse class="cls-10" cx="114.47657" cy="369.44374" rx="19.98515" ry="8.2792"/><ellipse class="cls-11" cx="114.98058" cy="369.49295" rx="15.88732" ry="6.20729"/><ellipse class="cls-11" cx="114.52873" cy="369.37957" rx="11.22601" ry="3.93979"/><ellipse class="cls-11" cx="114.53501" cy="369.62283" rx="19.2547" ry="8.45829"/><path class="cls-1" d="M564.52359,228.888a257.70517,257.70517,0,0,0,9.17659,53.50736,1.83206,1.83206,0,0,1,.09542.92877,1.4684,1.4684,0,0,1-.6274.77551c-3.5124,2.60378-7.773,3.41267-11.90953,4.052a232.54244,232.54244,0,0,1-25.88558,2.529h4.09042a232.54267,232.54267,0,0,1-25.88558-2.529c-4.13653-.63931-8.39712-1.4482-11.90952-4.052a1.46836,1.46836,0,0,1-.6274-.77551,1.83206,1.83206,0,0,1,.09542-.92877A257.70649,257.70649,0,0,0,510.313,228.888"/><path class="cls-1" d="M538.0797,230.37784q-13.86707-.51483-27.709-1.66751"/><ellipse class="cls-10" cx="537.4278" cy="228.19171" rx="25.84954" ry="9.84604"/><ellipse class="cls-11" cx="538.07971" cy="228.25024" rx="20.54925" ry="7.38202"/><ellipse class="cls-11" cx="537.49526" cy="228.1154" rx="14.52014" ry="4.68539"/><ellipse class="cls-11" cx="537.50338" cy="228.4047" rx="24.90474" ry="10.05902"/><path class="cls-1" d="M69.16811,253.9214a238.63855,238.63855,0,0,0,9.9938,53.50736,1.69209,1.69209,0,0,1,.10392.92877,1.501,1.501,0,0,1-.68327.77551c-3.8252,2.60378-8.46521,3.41267-12.97012,4.052a275.16112,275.16112,0,0,1-28.1908,2.529h4.45469a275.16107,275.16107,0,0,1-28.19081-2.529c-4.50491-.63932-9.14492-1.44821-12.97011-4.052a1.501,1.501,0,0,1-.68328-.77551,1.69209,1.69209,0,0,1,.10392-.92877,238.63855,238.63855,0,0,0,9.9938-53.50736"/><path class="cls-1" d="M40.36928,255.41125q-15.102-.51483-30.17665-1.6675"/><ellipse class="cls-10" cx="39.65932" cy="253.22513" rx="28.15155" ry="9.84604"/><ellipse class="cls-11" cx="40.36929" cy="253.28365" rx="22.37925" ry="7.38202"/><ellipse class="cls-11" cx="39.73279" cy="253.14882" rx="15.81323" ry="4.68539"/><ellipse class="cls-11" cx="39.74164" cy="253.43811" rx="27.12262" ry="10.05902"/><path class="cls-1" d="M544.83361,337.66052a220.79117,220.79117,0,0,0,10.91326,53.50735,1.17194,1.17194,0,0,1-.63266,1.70429c-4.17712,2.60378-9.244,3.41266-14.1634,4.052q-15.31689,1.99056-30.78444,2.529h4.86454q-15.44335-.53841-30.78444-2.529c-4.91938-.63932-9.98628-1.4482-14.16341-4.052a1.172,1.172,0,0,1-.63266-1.70429,220.79072,220.79072,0,0,0,10.91327-53.50735"/><path class="cls-1" d="M513.38521,339.15036q-16.49142-.51483-32.953-1.6675"/><ellipse class="cls-10" cx="512.60993" cy="336.96424" rx="30.74157" ry="9.84604"/><ellipse class="cls-11" cx="513.38521" cy="337.02276" rx="24.4382" ry="7.38202"/><ellipse class="cls-11" cx="512.69016" cy="336.88793" rx="17.26809" ry="4.68539"/><ellipse class="cls-11" cx="512.69982" cy="337.17722" rx="29.61798" ry="10.05902"/><path class="cls-1" d="M593.67425,85.99085a223.03065,223.03065,0,0,0,5.44388,38.6257,1.59277,1.59277,0,0,1,.05661.67046,1.04475,1.04475,0,0,1-.3722.55982c-2.08368,1.87961-4.61121,2.46352-7.06515,2.925a114.185,114.185,0,0,1-15.35625,1.82561h2.42658a114.185,114.185,0,0,1-15.35625-1.82561c-2.45394-.46151-4.98147-1.04542-7.06515-2.925a1.04468,1.04468,0,0,1-.37219-.55982,1.59276,1.59276,0,0,1,.0566-.67046,223.03065,223.03065,0,0,0,5.44388-38.6257"/><path class="cls-1" d="M577.9868,87.06633q-8.22645-.37164-16.438-1.20373"/><ellipse class="cls-10" cx="577.60006" cy="85.48822" rx="15.33487" ry="7.10762"/><ellipse class="cls-11" cx="577.9868" cy="85.53047" rx="12.19055" ry="5.32891"/><ellipse class="cls-11" cx="577.64008" cy="85.43314" rx="8.61387" ry="3.38227"/><ellipse class="cls-11" cx="577.6449" cy="85.64197" rx="14.77438" ry="7.26137"/></svg>