<svg id="Layer_1" data-name="Layer 1" xmlns="http://www.w3.org/2000/svg" viewBox="0 0 749.6 730.15"><defs><style>.cls-1{fill:#603913;}.cls-2{fill:#006838;}.cls-3{fill:#d5772d;}.cls-4{fill:#ec8730;}.cls-5{fill:#eb872d;}.cls-6{fill:#5d6162;}.cls-7{fill:#86898e;}.cls-8{fill:#858a8e;}.cls-9{fill:#231f20;}.cls-10{fill:#90271e;}</style></defs><title>orangutan w trees</title><path class="cls-1" d="M707.66,707.52c-2-14.68-4.06-29.41-8-43.68C693,640,681.24,618,671.5,595.32,651,547.48,639.45,496,617.11,449l-.59-1.3a69.5,69.5,0,0,1,26.16-12.56l1.37,1.1c30.65,52.3,45.75,112,69.37,167.88,4.63,10.94,9.59,21.75,14,32.8a333.07,333.07,0,0,1,14.21,44.91c.93,3.85,2.23,7.93,2.63,11.88.6,6,1.67,4.34-2.94,7.21-6.09,3.79-16.85,4.7-23.8,6.64a23.57,23.57,0,0,1-8.08,1.25"/><path class="cls-1" d="M710.07,706.85c-2.58-18.68-5.4-37.27-11.62-55.15-5.86-16.86-13.76-32.89-21.06-49.15-15.13-33.71-25.48-69.18-37.69-104-6.22-17.73-13.32-35-21-52.11l-.89,3.42a71.07,71.07,0,0,1,25.55-12.31l-2.43-.65c3.23,2.59,5.2,8,7.14,11.58,2.55,4.74,5,9.55,7.34,14.39,4.73,9.77,9.08,19.73,13.18,29.78,7.93,19.48,14.95,39.32,22.1,59.1s14.47,39.49,22.81,58.81c8.89,20.6,17.51,41.09,23.38,62.8,1.57,5.81,3.27,11.69,4.42,17.6.25,1.28,1.52,5.33,1,6.67.27-.66-2.54,1.35-3.29,1.74-4.16,2.15-9,3-13.52,3.89-5.19,1-10.75,3.13-16,3.05-3.22-.05-3.22,4.95,0,5,5.18.08,10.2-1.79,15.24-2.8s9.88-1.83,14.51-3.76c2.3-1,6.16-2.42,7.54-4.68s.09-6.38-.28-8.73c-2.12-13.19-6.5-26.52-10.77-39.15-4.1-12.1-9-23.85-14.11-35.55-20.71-47.58-35.22-97.6-56.52-144.91-2.95-6.54-6-13-9.32-19.41-2.84-5.56-5.69-13.2-9.88-17.85-3.36-3.74-9-.38-12.82,1.1a74.64,74.64,0,0,0-17.74,10,2.61,2.61,0,0,0-.9,3.42c14.34,31.93,25.16,64.86,36.37,98,5.58,16.45,11.44,32.81,18.25,48.79,7.31,17.14,15.82,33.77,22.44,51.21,7.51,19.81,11,40.33,13.83,61.23.44,3.17,5.26,1.82,4.82-1.33Z"/><path class="cls-2" d="M676,500.18a16.18,16.18,0,0,1,10.89-9.08c2.43-.58,5.89.23,5.88,2.72a4.22,4.22,0,0,1-1.56,2.81,16.65,16.65,0,0,1-15.49,4.06"/><path class="cls-2" d="M678.12,501.44a14.91,14.91,0,0,1,4.67-5.79c1.29-.92,4.77-3,6.52-2.15,1.39.7.19,1.31-.68,2.06a13,13,0,0,1-4.35,2.38,14.55,14.55,0,0,1-7.93.34c-3.14-.7-4.48,4.12-1.33,4.82a19.81,19.81,0,0,0,14.06-1.84c3.36-1.86,8.22-6.09,5.24-10.25-2.38-3.32-7.13-2.89-10.45-1.56a18.9,18.9,0,0,0-10.06,9.47c-1.39,2.88,2.92,5.42,4.31,2.52Z"/><path class="cls-2" d="M624.24,488.28c-.94,5.3-7.26,7.43-12.52,8.54l-18.31,3.85c-2.74.57-5.9,1.06-8.07-.71s-1.08-6.45,1.66-5.88c-12.93,7-31.12,1.1-37.55-12.11-5.22,3.21-12.25,2.63-17.44-.62s-8.67-8.81-10.34-14.71a14.87,14.87,0,0,0-1.69-4.48,16.6,16.6,0,0,0-3.5-3.18,24.72,24.72,0,0,1-7.85-26.49c1.16-3.48,5.27-7.12,8-4.64a61.72,61.72,0,0,1,12.08-32.25c1.47-2,4.44-3.89,6-2,2-9.21,4.81-18.62,11.19-25.54s17.15-10.59,25.5-6.26c1.26.66,2.53,1.49,4,1.45s2.79-1.1,3.89-2.13c4.67-4.39,8.64-9.64,14.08-13s13.17-4.35,17.9,0c1.23,1.12,2.39,2.64,4.06,2.7a5.27,5.27,0,0,0,2.89-1.12c4.21-2.72,8.52-5.69,13.48-6.38s10.8,1.8,12,6.67c.74,3-.06,7,2.6,8.61,1.5.91,3.42.51,5.12.06,6.38-1.68,12.93-3.65,19.47-2.73s13.09,5.67,13.61,12.25c.32,4-.8,9.54,3,10.86,1.36.48,2.86.08,4.28-.21,4.23-.87,9.37-.33,11.72,3.3,2.23,3.42,1,7.92.06,11.9s-1,9,2.37,11.25c1.38.9,3.08,1.15,4.58,1.84,6,2.79,6.51,11.08,5.94,17.71-1.06,12.29-3,25.4-11.31,34.49-6.84,7.47-17,11-26.8,13.35a105.73,105.73,0,0,1-18.61,3c-3.62.22-7.3.18-10.77,1.2-8.68,2.56-16.35,11.62-24.94,8.74"/><path class="cls-2" d="M621.83,487.62c-1.54,5.79-9.52,6.52-14.44,7.56l-9.15,1.92c-1.82.39-3.66.84-5.49,1.16l-1.4.27c-1.94.69-3.39.05-4.35-1.95l-1.26-4.66c-12.24,6.17-27.86.84-34.13-11.21a2.54,2.54,0,0,0-3.42-.9c-6.58,3.56-14.26,1.28-19-4.18a26.81,26.81,0,0,1-5.08-9.65c-.75-2.3-1.23-4.32-2.85-6.18-1.79-2-4.22-3.4-6-5.49a22,22,0,0,1-4.3-8A22.51,22.51,0,0,1,510,438c.16-1.93,1.81-10.19,5.3-7.94,1.72,1.11,3.61-.39,3.76-2.16a61.59,61.59,0,0,1,3.95-17.09c.72-1.84,7.58-17,10.38-15a2.51,2.51,0,0,0,3.67-1.49c2.82-12.86,8.07-28.53,22.82-31.47a16.57,16.57,0,0,1,10.2,1.17c2,.88,3.63,2,5.87,1.7,5.69-.73,10.11-8.33,14-11.89,5-4.54,13.11-8.9,19.39-3.93,1.69,1.35,2.86,3,5.17,3.35,2.93.4,5.32-1.76,7.64-3.2,5.13-3.18,16-8.07,19,.63,1.41,4.16-.07,9.38,5.54,10.81,2.29.58,4.8-.3,7-.86a63.45,63.45,0,0,1,11.71-2.35c8.17-.51,16.27,3.24,16.53,12.23.1,3.41-.21,7.47,2.75,9.86,4.7,3.8,11.83-2.36,16.14,2.55,3.82,4.34-1.19,12.74-.24,18.07a9.88,9.88,0,0,0,2.53,5.32c2.37,2.37,6.1,2.23,8.34,4.7,3.8,4.19,2.6,11.84,2.08,16.93-.73,7.2-1.86,14.63-4.89,21.28-7.11,15.65-24.73,20.39-40.34,23-7.75,1.29-16.13.3-23.44,3.55-6.34,2.81-12.89,9.45-20.3,7.48-3.11-.82-4.44,4-1.33,4.82,6.26,1.66,11.61-.94,16.94-4.06,3-1.74,6-3.69,9.33-4.68,5-1.48,10.57-1,15.73-1.64,14-1.76,30.78-5.42,41-16,9.6-9.94,11.89-24.83,12.68-38.09.32-5.26,0-11.44-3.56-15.66-1.64-1.95-3.58-2.8-5.85-3.78-5.49-2.37-4.17-6.84-3.14-11.72,1.18-5.57,1.17-11.85-4.49-14.92a14.79,14.79,0,0,0-7.6-1.5c-1.85.08-3.28.61-5.14,0-2.57-.85-1.53,0-2.13-1.92a11.8,11.8,0,0,1-.07-3c-.25-14.11-13.18-19.37-25.75-17.33-2.09.34-4.14.82-6.19,1.34-1.77.45-4.58,1.89-6.35,1.54-3.05-.6-2.16-6.41-3.18-8.78-2-4.62-7.15-7.06-12-7.13a20.35,20.35,0,0,0-8.68,2.13,45.93,45.93,0,0,0-5.13,2.86c-2.66,1.65-3.77,2.2-6.76.63-2.49-1.31-4.12-2.87-7.07-3.38a18.73,18.73,0,0,0-8.82.74c-7.51,2.38-12.52,8.62-17.89,14-2.18,2.18-4.29,3-7.17,1.68a20.18,20.18,0,0,0-4.54-1.51,22.56,22.56,0,0,0-9.57.3c-16.09,3.85-22.44,20.28-25.62,34.79l3.67-1.49c-6.38-4.57-12,6.32-14.33,10.61a66.42,66.42,0,0,0-7.52,25.81l3.77-2.16c-6.79-4.36-11.75,4.64-12.6,10.21a27.64,27.64,0,0,0,6.42,22c1.46,1.67,3.37,2.8,4.88,4.38,2.13,2.23,2.6,5.19,3.68,8a28.11,28.11,0,0,0,7,10.57c6.47,6,15.67,7.56,23.49,3.34l-3.42-.9c7.57,14.57,26.4,20.35,41,13,2.28-1.15,1.11-4.63-1.26-4.66-3.9,0-6.16,3.91-5.06,7.53,1.51,4.93,7.32,4.84,11.44,4.1,7.49-1.33,15.48-2.62,22.73-4.94,4.85-1.54,9.17-4.16,10.54-9.32.83-3.11-4-4.44-4.82-1.33Z"/><path class="cls-1" d="M495.65,707.08c-1.57-25.19-3.14-50.47-1.34-75.65,3-42,15.27-82.7,23.87-123.93,18.11-86.83,20-176.64,41.44-262.71l.54-2.36a118.47,118.47,0,0,0-47.92-12.16l-1.93,2.31c-33.52,97.7-38.58,202.56-59.17,303.78-4,19.85-8.68,39.57-12.26,59.5a570.05,570.05,0,0,0-8.57,79.8c-.25,6.74-1.05,14-.38,20.72,1,10.23-1.32,7.82,7.34,11.06,11.45,4.27,29.72,2.15,42,3,4.66.34,9.43.66,13.92-.63"/><path class="cls-1" d="M498.15,707.08c-2-31.48-3.57-62.94.57-94.32,4.08-30.92,12.21-61.11,19-91.49,13.44-59.91,18.78-121.06,27.08-181.79,4.43-32.49,10.51-64.42,17.75-96.39a2.55,2.55,0,0,0-1.15-2.82,124.64,124.64,0,0,0-28.25-9.87,126.39,126.39,0,0,0-13.84-2.15c-3.37-.33-7-1.44-9.54,1.07-2.18,2.15-2.74,5.06-3.68,7.9q-2.64,8-5.05,16-4.68,15.6-8.58,31.41c-10.34,41.66-17.07,84.1-23.38,126.52-6.38,42.9-12.36,85.9-21.16,128.4-4.57,22.06-9.71,44-13.27,66.28a573.64,573.64,0,0,0-6.7,65.92c-.45,10.36-1.24,20.7-.13,31,.54,5,4.57,5.63,8.77,7.07,8.56,2.93,17.84,2.92,26.8,2.9,9.86,0,20.82,1.85,30.43-.49,3.13-.76,1.8-5.58-1.33-4.82-8.24,2-17.57.27-26,.3-8.22,0-16.76.37-24.8-1.58-2.21-.54-6.51-1.24-8.26-2.73-.8-.68-.63-1.6-.72-3.39a281.25,281.25,0,0,1,.26-28.3c1.85-42.5,9.82-83.62,18.59-125.12,16.52-78.19,23.22-158.08,40.07-236.2,4.71-21.83,10.24-43.49,17-64.78,1.12-3.55,1.87-9.77,4.41-12.45,1-1.1,2.48-.27,4.52-.1,3,.26,6.05.63,9,1.13a119.11,119.11,0,0,1,32.29,10.37l-1.14-2.83c-6.53,28.84-12.25,57.62-16.43,86.91-4.28,29.94-7.63,60-11.45,90-4,31.43-8.6,62.81-15.3,93.8C508.1,542.4,500,572,495.22,602.31c-5.5,34.91-4.26,69.63-2.07,104.77.2,3.2,5.2,3.22,5,0Z"/><path class="cls-1" d="M343.6,623.27c-3.45-25-6.92-50.09-13.67-74.41-11.26-40.58-31.35-78-47.95-116.74-35-81.53-54.6-169.18-92.67-249.3l-1-2.21a118.66,118.66,0,0,1,44.56-21.41l2.35,1.88c52.22,89.12,78,190.91,118.19,286,7.89,18.65,16.34,37.06,23.8,55.89a569.31,569.31,0,0,1,24.21,76.52c1.58,6.56,3.8,13.51,4.48,20.23,1,10.23,2.85,7.41-5,12.3-10.38,6.46-28.71,8-40.56,11.3-4.5,1.25-9.11,2.52-13.76,2.14"/><path class="cls-1" d="M346,622.61c-4.39-31.8-9.2-63.45-19.77-93.88-10.05-28.9-23.62-56.38-36.12-84.26-25.43-56.73-42.92-116.37-63.39-175C216,238.82,203.78,209,190.47,179.35l-.89,3.42a120.15,120.15,0,0,1,44-21.16l-2.43-.64c5.38,4.3,8.41,12.61,11.66,18.62q6.61,12.25,12.69,24.78c8,16.5,15.42,33.3,22.37,50.28,13.79,33.66,25.94,68,38.29,102.16s25,68.16,39.37,101.48c15.7,36.29,30.69,72.43,40.73,110.77,2.77,10.59,5.92,21.28,7.34,32.14.16,1.27,1.21,5,.85,5.79-.67,1.38-5.12,3.16-6.4,3.84-7.39,3.93-16,5.4-24.13,7-8.8,1.74-18.34,5.51-27.3,5.16-3.22-.13-3.22,4.87,0,5,8.88.35,17.79-3.19,26.45-4.91,8.19-1.62,16.58-3.09,24.29-6.41,3.31-1.43,10.55-4.15,11.82-8.1.52-1.65,0-3.57-.28-5.22-.76-5.19-1.41-10.26-2.68-15.37-5.39-21.63-11.17-43.09-18.54-64.14s-16.22-41.4-25.1-61.79c-34.15-78.45-57.8-161-92.88-239.07q-7.17-16-15.07-31.6-4.08-8-8.36-15.9c-2.73-5-5.2-11.28-8.85-15.67a7.27,7.27,0,0,0-5.17-3c-2.52-.08-5.85,1.55-8.27,2.32-2.72.87-5.42,1.85-8.07,2.92a123.7,123.7,0,0,0-28.82,16.42,2.61,2.61,0,0,0-.89,3.42c12.11,27,23.41,54.1,33.3,82,10.1,28.47,19.31,57.24,29,85.85,9.76,28.8,20,57.44,32.09,85.36,12.19,28.25,26.14,55.74,37.05,84.52,12.81,33.76,18.66,68.72,23.58,104.34.44,3.17,5.26,1.82,4.82-1.33Z"/><path class="cls-2" d="M289.59,270a27.63,27.63,0,0,1,18.55-15.47c4.14-1,10,.39,10,4.64,0,1.88-1.3,3.49-2.65,4.8a28.44,28.44,0,0,1-26.39,6.91"/><path class="cls-2" d="M291.75,271.27a26.18,26.18,0,0,1,9-10.73c2.74-1.87,9.34-5.59,12.78-3.43,2.07,1.3,1.6,3.73.24,5.09a20.59,20.59,0,0,1-3,2.44,25.6,25.6,0,0,1-6.08,3.09,26.53,26.53,0,0,1-14.9.74c-3.13-.72-4.46,4.1-1.33,4.82a31.74,31.74,0,0,0,22.28-2.79c4.71-2.52,12.66-8.39,9.06-14.62-3.11-5.39-11-4.52-15.8-2.64a30.53,30.53,0,0,0-16.55,15.5c-1.37,2.89,2.94,5.43,4.32,2.53Z"/><path class="cls-2" d="M251.67,351.25a22.27,22.27,0,0,0-25.38,7.17c-1,1.38-1.77,3.62-.36,4.62a3.4,3.4,0,0,0,2.32.35,34.78,34.78,0,0,0,24.87-14.61"/><path class="cls-2" d="M252.33,348.84A25.07,25.07,0,0,0,232.59,350c-4,2-11.73,7.53-9.63,13,2.2,5.76,12.28,1.71,16,.16A38.37,38.37,0,0,0,255.28,350c1.9-2.6-2.44-5.1-4.32-2.52a32.94,32.94,0,0,1-10,9.11,33.32,33.32,0,0,1-6.17,2.81c-1,.32-5.85,2.09-6.59,1.45-2.18-1.85,9.21-7.52,10.22-7.81a20,20,0,0,1,12.53.58c3,1.08,4.35-3.75,1.33-4.82Z"/><path class="cls-2" d="M549.73,314.29a22.72,22.72,0,0,1,22.91-10.46c1.71.31,3.63,1,4.19,2.69s-.44,3.24-1.57,4.45c-6.56,7.1-17.82,6.24-27.39,4.82"/><path class="cls-2" d="M551.89,315.55a20.4,20.4,0,0,1,10.33-8.33c2.28-.82,13.86-3.12,11.28,2-1.87,3.69-8.71,4.75-12.27,5a60.77,60.77,0,0,1-12.7-.81c-3.14-.45-4.5,4.36-1.33,4.82,7.11,1,14.76,2,21.72-.38,4.5-1.52,12.09-6.1,10.32-12s-11.08-5.23-15.64-4.23a25.61,25.61,0,0,0-16,11.4c-1.75,2.71,2.58,5.22,4.32,2.52Z"/><path class="cls-2" d="M203.87,226c-3.63-5.09-12.42-5.1-16.06,0a3.23,3.23,0,0,0-.77,2.33c.26,1.61,2.26,2.18,3.89,2.25a26.47,26.47,0,0,0,12.71-2.59"/><path class="cls-2" d="M205.64,224.18c-4.77-6-15.62-6.22-20,.49-2.4,3.68-.37,7.36,3.78,8.17,5.13,1,10.85-.66,15.47-2.76,2.93-1.33.39-5.64-2.52-4.32a24.58,24.58,0,0,1-9.07,2.26c-.31,0-3.17.23-3.39-.18-.45-.81,1.34-1.87,1.81-2.14a8,8,0,0,1,10.37,2c2,2.52,5.51-1,3.54-3.54Z"/><path class="cls-2" d="M497.18,272.54A25.9,25.9,0,0,1,481,268.19c-2.45-1.66-4.81-4.32-4.22-7.22a6.27,6.27,0,0,1,2.38-3.5,10.33,10.33,0,0,1,16.48,10.47"/><path class="cls-2" d="M497.18,270c-4.58.2-18.41-1.72-17.3-8.43.61-3.67,5.38-4.51,8.53-3.35a8.07,8.07,0,0,1,4.85,9c-.55,3.15,4.27,4.5,4.82,1.33.92-5.31-.88-11-5.66-13.92a13.12,13.12,0,0,0-15.4,1.38c-4.42,4.11-2.88,9.83,1.46,13.32,5.21,4.19,12.11,5.94,18.7,5.66,3.2-.13,3.22-5.13,0-5Z"/><path class="cls-3" d="M529.15,458.54c1.22-18.26,2.42-36.87-2-54.65a8.37,8.37,0,0,1-.38-3.09c.54-3.95,5.94-4.75,8.72-7.61,4.25-4.38,1-11.88-3.53-16-2.93-2.67-6.48-4.89-10.43-5.26s-8.27,1.49-9.89,5.11c-5.29-4-8.23-10.25-11.84-15.81C488,343,467.46,331.32,446,327.49s-43.7-.41-64.26,6.77c-7.64,2.67-15.2,5.91-21.56,10.92-5.68,4.46-10.2,10.18-15.17,15.42-4.7,5-9.83,9.52-14.94,14.07a4.79,4.79,0,0,1-2.54,1.45,5.43,5.43,0,0,1-2.5-.64c-6.71-2.74-15.46-1.12-19.47,4.92s-.92,16,6.2,17.34c.89,19.48,1.7,39.49-4.6,57.94a9.3,9.3,0,0,0-7.71-1.18v0a82.53,82.53,0,0,0-33.72,52.4,143.53,143.53,0,0,0-1.78,24,571.22,571.22,0,0,0,22.21,164l-.49-1-10,6.63c-3.31,2.19-6.72,4.48-8.8,7.86s-2.44,8.16.25,11.07c1.51,1.63,3.69,2.42,5.78,3.16,4.58,1.61,9.23,3.23,14.07,3.63s10-.58,13.72-3.66c3.58-2.95,5.73-7.65,9.94-9.59,5.47-2.53,11.69.63,17.36,2.68,2,.72,4.27,1.28,6.09.23,2.24-1.28,2.65-4.51,1.59-6.85s-3.18-4-5.22-5.58L322.12,697a12.44,12.44,0,0,1-4-4.2c-1.09-2.33-.63-5-.2-7.58a185.38,185.38,0,0,0,2.63-33.19l-.18-.77a353.9,353.9,0,0,1,1.17-66.06l-.41-.93,14.69,12.05-.17.72c3.65,21,11.65,40,18.65,60-9,8-20,14-23,26,4,8,14,13,23,12,11-1,16-11,23-17,1-1,3,0,3,1-1,5-4,8-6,12,0,1,0,2,1,2,8-1,14-8,16.23-14.85l.05-.51c9.45-14.81,10.75-33.21,11.79-50.76v-.58a17,17,0,0,0,9,1.46c3.06-.18,6.09-.75,9.15-.83,4.57-.11,9.37.85,13.58-.94l.79.19a113.09,113.09,0,0,0,11.69,54.12,64,64,0,0,0,8.61,13.45c1,1.14,2.18,2.31,3.69,2.48a4.74,4.74,0,0,0,3.36-1.16,8.1,8.1,0,0,0-2.7-14.14c1.17-1.81,3.89-2.06,5.79-1a10.46,10.46,0,0,1,4.05,4.9,28.08,28.08,0,0,0,3.06,5.66,19.41,19.41,0,0,0,4.41,3.65c1.89,1.28,3.95,2.6,6.23,2.56a11,11,0,0,0,3.59-.88,152.86,152.86,0,0,0,15.07-6.61c2.39-1.2,4.91-2.65,5.94-5.12a7.92,7.92,0,0,0-1-7.12,23.43,23.43,0,0,0-5.24-5.28L488.62,660.5a6.58,6.58,0,0,1-2.34-2.77c-.64-1.89.51-3.85,1.45-5.61,2.46-4.65,3.65-9.86,4.81-15l7-31a15.39,15.39,0,0,1,1.87-5.22,15.23,15.23,0,0,1,2.8-2.93l12.22-10.74.26-.38q5.46,48.28,6.91,96.91c.12,3.81.08,8-2.41,10.9a19,19,0,0,1-4.45,3.33,40.32,40.32,0,0,0-11.64,11.38c-1,1.46-1.9,3.28-1.21,4.9,1,2.28,4.16,2.28,6.61,1.91l11.79-1.79a18.32,18.32,0,0,1,5.42-.27c7.17,1.08,10.61,9.88,17.32,12.6,4.29,1.74,9.15.71,13.58-.62q4.8-1.46,9.46-3.34c4.21-1.72,9-4.87,8.51-9.39-.29-2.58-2.31-4.59-4.24-6.32a157.86,157.86,0,0,0-18.42-14.14l-.26-.08c9.38-27.28,13.19-56.11,16.94-84.71l4.47-34c.69-5.25,1.38-10.51,1.72-15.79a187.18,187.18,0,0,0-.17-22.84c-1.17-20.08-4-40.49-12.89-58.54-3.12-6.33-7.11-12.47-12.87-16.56s-13.58-5.81-20.05-3"/><path class="cls-4" d="M483,505.7l-32.78,6.13c-11.37,2.12-22.81,4.25-34.38,4.34a132.29,132.29,0,0,1-20.26-1.6,202.65,202.65,0,0,1-35.68-8.65l-.2.79C346,523,336.14,543.44,336.08,564.76s11,43.26,30.05,52.79c9.81,4.89,20.92,6.32,31.8,7.66,16.67,2,33.67,4,50.17.88A82.25,82.25,0,0,0,480,612.5c5.43-3.85,10.47-8.45,13.86-14.18,3.1-5.24,4.72-11.22,5.82-17.21,4.74-25.83-.17-54.18-16.92-74.41"/><path class="cls-5" d="M482.35,503.29c-20.6,3.85-41.65,9.36-62.64,10.28-20,.87-40.3-3.74-59.12-10.06a2.53,2.53,0,0,0-3.08,1.75c-.45,1.77-2.9,3.8-4.05,5.33-2,2.63-3.86,5.35-5.61,8.15a104.33,104.33,0,0,0-8.43,16.72c-4.37,11.06-6.66,23.23-5.58,35.13,2,21.49,14.31,42.38,34.77,50.8,12.23,5,25.94,6,39,7.46,14.54,1.58,29.36,2.35,43.75-.89a83.07,83.07,0,0,0,34.44-16.72c9.78-8.07,14.54-18.69,16.61-31,4.43-26.34-.81-54.27-17.83-75.28-2-2.5-5.54,1.05-3.53,3.53,14.12,17.45,19.38,40.36,17.53,62.46-1,12.15-3.69,24.53-12.6,33.42-8.56,8.54-20.16,14.47-31.71,17.72-12.68,3.56-25.89,3.61-38.91,2.54-12.37-1-25.22-2.12-37.24-5.31-21.3-5.64-35.41-23.57-38.79-45-2-12.64.26-25.67,4.94-37.48a98.14,98.14,0,0,1,8.81-16.92c2-3,4.09-6,6.35-8.85,1.15-1.44,2.48-2.63,2.93-4.43l-3.07,1.74c19.19,6.45,40.09,11.13,60.45,10.24,21.45-1,42.92-6.53,64-10.46,3.16-.59,1.82-5.41-1.33-4.82Z"/><path class="cls-6" d="M468.69,421.13a20.12,20.12,0,0,1,20.43,7.8l-4.42,2.22A25.17,25.17,0,0,1,490,444.24l-7.38-2.3a46.17,46.17,0,0,1,3,25.18,19.21,19.21,0,0,1-6.14-6.38,45.44,45.44,0,0,1-4.1,21.24,18.36,18.36,0,0,0-6.45-6.15,93.6,93.6,0,0,1-8.85,27l-4.4-9.21-5.41,15.35c-.47,1.33-1.18,2.88-2.57,3.09-3.27.5-2.87-5.92-6-7.09l-17.38,18.95c-.94,1-2.05,2.13-3.44,2.13a5,5,0,0,1-3.05-1.52,108.51,108.51,0,0,1-16.06-16.85c-1.83-2.39-3.14-6.62-.34-7.75a31.63,31.63,0,0,1-4,14.17l-9.64-22.2A21,21,0,0,1,381.53,504l-8.63-28.17-7.41,7.81L363,458.55a12.49,12.49,0,0,1-7.85,7.56,65.91,65.91,0,0,1,1-24.44l-5.46,2.24a23.31,23.31,0,0,1,6.21-12.59c-1.18,2.29-5.1-.3-4.42-2.78s3.44-3.66,5.88-4.48l16.83-5.73.35-.08a63.5,63.5,0,0,1-8.2-57.49,17.26,17.26,0,0,1,7,6.43,78.47,78.47,0,0,1,10.58-16.33,56.84,56.84,0,0,1,1.54,14.82,33.9,33.9,0,0,1,12.17-15.82l2.85,23.57q7.67-11.49,14.51-23.5L417.88,370A52.48,52.48,0,0,1,434,349.69L429.86,370a22.32,22.32,0,0,0,13.76-14l1.75,15.08a37.18,37.18,0,0,0,12-15.65l3.09,10.83a20.82,20.82,0,0,0,6.72-8.59,68.09,68.09,0,0,1,1.47,62.27"/><path class="cls-7" d="M368,458c-1.24-12.79,3.05-25.55,9-36.93,5.33-10.16,12.2-19.76,21.49-26.48s21.28-10.29,32.47-7.8c17.33,3.85,28.52,20.49,36.08,36.55,3.84,8.14,7.26,16.66,8,25.62s-1.54,18.54-7.81,25c-9,9.21-23.26,10-36.11,10.15l-21.48.29c-7.23.1-14.62.17-21.44-2.21a31.75,31.75,0,0,1-20.47-24.35"/><path class="cls-8" d="M511.08,377.63c1.23,1.62,2.3,3.35,3.37,5.07l9.92,16a2.64,2.64,0,0,0,.92,1,2.6,2.6,0,0,0,2.37-.52c4.26-2.64,8.77-5.93,9.83-10.83a12.08,12.08,0,0,0-3-10.25,20.51,20.51,0,0,0-9.36-5.68,14.32,14.32,0,0,0-8.18-.56c-2.67.77-5,3.05-5.21,5.82"/><path class="cls-9" d="M382.31,374.31a6.62,6.62,0,0,0-6.22,2.24,7.07,7.07,0,0,0-1.27,6.54,7.21,7.21,0,1,0,6.4-9.34"/><path class="cls-9" d="M382.31,373.06a8,8,0,0,0-9,8.33,8.45,8.45,0,0,0,16.88-.73c-.1-4.72-4.41-8.19-8.93-8.16a1.25,1.25,0,0,0,0,2.5,6.23,6.23,0,0,1,6.34,5.07,5.94,5.94,0,1,1-11.79,1.32,5.57,5.57,0,0,1,6.54-5.83c1.59.2,1.58-2.3,0-2.5Z"/><path class="cls-9" d="M460.26,374.31a6.63,6.63,0,0,0-6.23,2.24,7.07,7.07,0,0,0-1.26,6.54,7.21,7.21,0,1,0,6.39-9.34"/><path class="cls-9" d="M460.26,373.06a8,8,0,0,0-9.05,8.33,8.45,8.45,0,0,0,16.88-.73c-.1-4.72-4.4-8.19-8.93-8.16a1.25,1.25,0,0,0,0,2.5,6.23,6.23,0,0,1,6.34,5.07,5.94,5.94,0,1,1-11.79,1.32,5.57,5.57,0,0,1,6.55-5.83c1.59.2,1.57-2.3,0-2.5Z"/><path class="cls-9" d="M404,406.62l4.43,8.2a9.24,9.24,0,0,0,2.66,3.46,4.94,4.94,0,0,0,5.51-.13,5.41,5.41,0,0,0,2.08-5.18,7.57,7.57,0,0,0-3.95-5.1,22.27,22.27,0,0,0-6.31-2.07l-4.51-1"/><path class="cls-9" d="M402.92,407.25c1.48,2.74,2.91,5.5,4.43,8.21a10.4,10.4,0,0,0,3.11,3.9,6.2,6.2,0,0,0,8.59-2.13c1.82-3.08.77-6.69-1.74-9-3.43-3.17-8.71-3.66-13.07-4.63-1.57-.34-2.24,2.07-.67,2.41,4.28.95,14.86,1.93,13.82,8.47a3.73,3.73,0,0,1-4.44,3.26c-1.83-.41-2.62-2.08-3.44-3.54-1.52-2.71-2.95-5.47-4.43-8.2-.77-1.42-2.93-.15-2.16,1.26Z"/><path class="cls-9" d="M437.34,405.22a43.88,43.88,0,0,0-10.27,3.2c-2.34,1.05-4.88,2.77-4.94,5.33-.06,2.76,3.13,4.71,5.86,4.29s4.9-2.5,6.58-4.69a30.68,30.68,0,0,0,3.87-6.62"/><path class="cls-9" d="M437,404c-4.27.84-21.7,5.37-14.78,13.15,6.75,7.56,14.91-4.51,17.29-9.8.65-1.46-1.5-2.73-2.16-1.26-1.69,3.76-6.85,13.61-12.31,10-7.1-4.63,10-9.22,12.62-9.73,1.58-.31.91-2.72-.66-2.41Z"/><path class="cls-8" d="M312.41,396.91c-4.47-.36-7.89-4.86-8-9.35s2.61-8.69,6.15-11.45a10.32,10.32,0,0,1,3.9-2,11.61,11.61,0,0,1,6,.68c2.06.67,4.19,1.61,5.35,3.44A135.33,135.33,0,0,0,314.68,397"/><path class="cls-8" d="M313.08,394.5c-6.22-1-7.37-7.86-4.39-12.63,3.42-5.49,10.92-7.45,15.4-1.9l-.39-3a145.27,145.27,0,0,0-11.18,18.74c-1.43,2.87,2.88,5.41,4.32,2.52A145.27,145.27,0,0,1,328,379.47a2.56,2.56,0,0,0-.39-3,15,15,0,0,0-13.13-4.85c-4.26.72-7.92,4.2-10.13,7.76-4.56,7.35-2.05,18.4,7.38,20,3.15.53,4.5-4.29,1.33-4.82Z"/><path class="cls-10" d="M378.57,449.93c9.23,16,28.23,19.49,45.26,19.24,16.49-.25,35.5-3.85,43.28-20.3.69-1.44-1.47-2.71-2.16-1.26-7.4,15.67-25.47,18.83-41.12,19.06-16.12.23-34.32-2.81-43.1-18a1.25,1.25,0,0,0-2.16,1.26Z"/><path class="cls-3" d="M315.93,457.39c-17-12.66-36.62,7.67-43.74,22.08a68.85,68.85,0,0,0-2.87,53.24c1.61,4.52,8.86,2.57,7.23-2a62.19,62.19,0,0,1,.21-43.13c4.56-11.86,20.65-34.69,35.39-23.72,3.87,2.88,7.62-3.63,3.78-6.48Z"/><path class="cls-2" d="M201.47,249.74c-1.62,9-12.37,12.65-21.35,14.54l-31.19,6.56c-4.66,1-10.05,1.81-13.76-1.2s-1.83-11,2.84-10C116,271.5,85,261.5,74,239c-8.9,5.47-20.87,4.47-29.73-1.07s-14.76-15-17.61-25.06c-.75-2.63-1.33-5.38-2.89-7.63s-3.85-3.74-6-5.42C4.78,189.41-.81,170.53,4.48,154.68c2-5.93,9-12.14,13.59-7.91A105,105,0,0,1,38.64,91.83c2.5-3.33,7.56-6.63,10.24-3.44C52.24,72.72,57.09,56.67,68,44.88s29.21-18,43.45-10.66c2.14,1.12,4.31,2.55,6.72,2.47,2.58-.09,4.76-1.87,6.64-3.63,8-7.48,14.72-16.43,24-22.18s22.43-7.41,30.49-.05c2.09,1.92,4.08,4.51,6.92,4.6,1.79.06,3.42-.93,4.93-1.9,7.17-4.63,14.51-9.69,23-10.86S232.46,5.74,234.49,14c1.25,5.14-.11,11.91,4.41,14.65,2.57,1.56,5.84.87,8.74.11,10.87-2.87,22-6.21,33.17-4.65S303.11,33.81,304,45c.55,6.85-1.37,16.26,5.12,18.51,2.33.81,4.88.13,7.29-.37,7.21-1.48,16-.55,20,5.62,3.8,5.84,1.66,13.5.1,20.29s-1.77,15.32,4,19.16c2.35,1.54,5.25,2,7.8,3.14,10.3,4.75,11.09,18.87,10.12,30.18-1.81,20.92-5.07,43.28-19.26,58.76C327.52,213,310.3,219,293.52,223.05a180.43,180.43,0,0,1-31.71,5.15c-6.16.37-12.43.3-18.34,2-14.81,4.37-27.86,19.8-42.5,14.9"/><path class="cls-2" d="M199.06,249.08c-2.63,11.41-19.07,12.68-28.37,14.64-7.15,1.5-14.29,3-21.45,4.51-3.09.64-6.52,1.52-9.68.77-2-.47-3.65-1.74-3.85-3.85-.13-1.45.48-3.18,2.3-3l-1.27-4.66C115.38,268.53,87,259.09,76.2,237.73a2.53,2.53,0,0,0-3.42-.9c-11.23,6.39-25,2.74-33.56-6.31A43.1,43.1,0,0,1,30,215.05c-1.68-4.77-2.3-9.66-6-13.4-3.93-4-8.47-6.72-11.74-11.42A41.22,41.22,0,0,1,6,175.85a38.78,38.78,0,0,1-.2-16.37c.85-4.1,5.22-14.89,11-10.55,1.66,1.24,3.62-.48,3.76-2.16a104,104,0,0,1,7.74-31.91c1.49-3.53,13.6-29.3,18.8-24.7,1.33,1.17,3.76.85,4.18-1.1,4.82-22.19,13.79-48.23,38.48-54.47a30.45,30.45,0,0,1,15.63-.05c4.44,1.25,8.58,5,13.39,4.56,5.13-.5,9.08-5.48,12.4-8.9,4.18-4.31,8.19-8.83,12.79-12.71,8.26-7,21.57-13.08,31.78-6.22,3.41,2.29,5.83,6.58,10.4,6.66,4.86.09,9.57-4.54,13.45-6.86,8.8-5.24,26.89-11.23,32.1,2.42,2.57,6.71-.37,17.69,9.95,18.59,5.23.46,10.79-2,15.76-3.25,7.43-1.82,15.16-3.3,22.82-2.22,11.76,1.65,21.26,9.74,21.38,22,.07,6.69-.25,16.2,8.26,17.65,4.33.74,8.76-1.34,13.14-1.21,7.3.23,13,4,13,11.92,0,9.56-6.07,19.56-.93,28.86,2.12,3.83,5.53,5.29,9.42,6.78,5.69,2.18,8.93,5.46,10.56,11.45,2.74,10.08.77,21.72-.68,31.86-1.63,11.41-4.3,23-10.06,33.08-13.8,24.18-44.41,31.51-70,35.38-13.63,2.05-27.41.55-40,7-10,5.1-20.66,14.88-32.64,11.35-3.09-.91-4.42,3.91-1.33,4.82,10.3,3,19.5-2,28.17-7.13,5-2.95,10-6.12,15.65-7.77,7.52-2.2,15.61-1.61,23.33-2.4a196,196,0,0,0,38.92-8.15c10.84-3.44,21.43-8.2,30.1-15.69,18.17-15.69,22.31-40.62,24.33-63.29.81-9.09,1.18-19.69-4.09-27.64a18.57,18.57,0,0,0-9.29-7.15c-3.93-1.48-7.27-2.38-8.74-6.73-1-2.87-.76-6.31-.31-9.26,1.47-9.6,6.16-21.26-3.25-28.51-3.44-2.65-7.84-3.67-12.11-3.78-5.14-.13-13.93,4.11-15.89-2.48-1.34-4.53-.1-9.62-.84-14.26a23,23,0,0,0-6.73-12.69c-8.44-8.38-20.35-10.3-31.74-8.88a145.77,145.77,0,0,0-19,4.17c-3.14.82-7.91,2.64-10-.95-1.5-2.55-1.05-6.28-1.45-9.12C236,6.62,228.2,1,219.24.11a29.75,29.75,0,0,0-14.56,2.71,62,62,0,0,0-7.59,3.94c-2.8,1.67-8.69,7.2-12.26,5.71-2-.84-3.65-3.39-5.41-4.7a21.36,21.36,0,0,0-6.71-3.36,28.9,28.9,0,0,0-15.33.08c-13.06,3.38-21.8,14.16-30.87,23.35-3.18,3.22-6.24,7.37-11.25,5.6-2.94-1-5.47-2.87-8.53-3.72a35.39,35.39,0,0,0-16.87-.28c-27.36,5.83-38.1,34-43.39,58.29l4.18-1.11c-9.75-8.61-19.92,12-23.19,18.32a110.19,110.19,0,0,0-11.89,41.83l3.76-2.16c-4.52-3.37-9.75-1-13.23,2.68C2.12,151.53.76,157.41.2,163a45,45,0,0,0,13.2,36.18c3,2.86,7.14,4.91,9.08,8.68,1.78,3.47,2.29,7.66,3.77,11.28a46.07,46.07,0,0,0,11,16.43c10.25,9.55,25.58,12.62,38,5.54l-3.42-.9C84,264.13,115.61,274,139.27,261.78c2.37-1.23,1-4.47-1.26-4.66-6.28-.51-8.93,7.37-6.25,12.23,4.32,7.82,16,4.28,22.71,2.88,11.18-2.35,23-3.84,33.84-7.54,7.07-2.43,13.79-6.56,15.57-14.28.72-3.13-4.1-4.47-4.82-1.33Z"/><path class="cls-2" d="M485.55,296.48l-61.33-27.07c-6.16-2.72-12.47-5.48-19.19-6-2.78-.2-5.64,0-8.32-.81-7.63-2.24-10.87-11-13-18.7-.72-2.58-1.3-5.77.67-7.58s6,1.56,3.78,3A62.84,62.84,0,0,1,383,231.3c-5.31-10.45-5-23-1.59-34.27s9.51-21.37,15.59-31.39c10.25-16.88,23.23-35.58,42.87-37.65,2.79-.29,5.7-.24,8.25-1.4,2.3-1,4.06-3,5.75-4.87,13.73-15.33,29.92-32.1,50.49-32,7.48.05,14.92,2.42,22.33,1.47,6-.77,11.46-3.64,16.84-6.38,12.35-6.29,25.38-12.22,39.24-12.71s28.8,5.71,34.83,18.19c1.5,3.11,2.42,6.52,4.36,9.38,7.42,11,23.88,8.31,36.82,11.21a39,39,0,0,1,29,29.51c1.48,7.19,1,15.08,4.84,21.31,6.84,11,23.33,11.18,32.5,20.33,9.63,9.59,8.16,25.33,12.66,38.16,2.32,6.61,6.33,12.64,7.69,19.51,2.13,10.87-2.77,21.94-9.07,31.06-21.41,30.93-58.15,47.17-93.92,58.81-13.84,4.5-28.07,8.58-42.62,8.61s-29.67-4.47-39.77-14.95c-5.18-5.38-9-12.22-15.25-16.29-4.64-3-10.2-4.2-15.61-5.34l-48.42-10.17"/><path class="cls-2" d="M486.82,294.32q-30.68-13.54-61.34-27.07a97.9,97.9,0,0,0-12.61-4.9c-4.73-1.33-9.44-.94-14.18-1.89s-7.63-4.56-9.64-8.79c-1.41-2.95-5.31-11.12-2.69-14l3.92.51c-4.6-6.47-8-13.13-8.71-21.17a54.59,54.59,0,0,1,3.32-22.6c4.91-13.9,13.43-27.22,21.86-39.26,7.41-10.56,17.06-21.35,30.25-24.13,6.52-1.37,12-.73,17.06-5.81,4.8-4.83,9.12-10.1,14.06-14.81,10.39-9.94,23.08-18.78,38.09-18,7.69.37,15.2,2.58,22.91,1,7.32-1.47,13.89-5.54,20.52-8.77,13.76-6.7,29.49-12.64,44.93-8.68a33.8,33.8,0,0,1,16.63,9.47c4.61,5,5.51,12,9.74,17.16,7.22,8.89,20.07,8.59,30.42,9.74,13.45,1.5,25.21,8.31,31.25,20.8,5.44,11.24,1.75,25.72,11.87,34.72,8.69,7.73,22,8.22,29.81,17.1,8.81,10,7,25.74,11.64,37.64,2.84,7.29,7.33,14.05,7.49,22.11.16,7.91-3.26,15.53-7.39,22.1-14.9,23.72-40.07,39-65.28,49.77a340.86,340.86,0,0,1-40.81,14.32c-15.33,4.33-31.66,7-47.3,2.62a46.4,46.4,0,0,1-19.16-10.32c-5.28-4.9-8.88-11.34-14.38-16-5.06-4.3-11.25-6.15-17.63-7.55-8.27-1.8-16.58-3.48-24.87-5.22L481.43,289c-3.14-.66-4.48,4.16-1.33,4.82,17.73,3.73,35.72,6.86,53.29,11.26,9.14,2.28,14.46,7.27,20.18,14.4,4.47,5.56,9.35,10.34,15.64,13.82,28.15,15.57,62.31,3.36,90.06-6.95,26.26-9.75,52.47-22.88,71.28-44.19,9.2-10.43,18.47-23.85,17.84-38.4-.34-7.77-4.12-14.31-7.08-21.3-2.85-6.75-3.79-13.93-5.15-21.07-1.24-6.52-3-13.12-7-18.5-3.53-4.65-8.52-7.59-13.78-9.93-5.66-2.52-12-4.37-16.86-8.36-6.48-5.3-6.67-13.44-7.73-21.11a41.92,41.92,0,0,0-19.12-29.93c-11.57-7.32-24.59-5.2-37.22-8.63a19.28,19.28,0,0,1-8.23-4.14c-3.21-3-4.32-7.14-6.1-11A32.19,32.19,0,0,0,608.53,76.6c-11.45-7.65-25.84-8.31-38.87-5.07a115.48,115.48,0,0,0-22.54,8.71c-8.4,4.09-16.33,9.06-26,8.65-7.93-.34-15.51-2.39-23.47-1.11a49.66,49.66,0,0,0-18.56,7.4A99.86,99.86,0,0,0,462.31,109c-2.43,2.43-4.78,4.92-7.1,7.45-3.12,3.42-5.88,7.52-10.67,8.5-6.57,1.33-12.46,1.54-18.58,4.74a55.38,55.38,0,0,0-14.84,11.89c-9.78,10.67-17.46,23.76-24.28,36.46-7,13.08-12.27,27.83-9.79,42.86,1.23,7.45,4.59,13.64,8.92,19.72a2.53,2.53,0,0,0,3.92.51c5.24-5.86-7.66-12.19-9.25-2.61-.82,5,2,11.25,4.09,15.64s5.21,8.41,9.79,10.3c2.87,1.18,5.78,1.15,8.83,1.36A43.19,43.19,0,0,1,415,268.3c7.92,2.83,15.56,6.64,23.25,10l46,20.3c2.92,1.29,5.47-3,2.53-4.31Z"/><path class="cls-1" d="M647.12,719.47c-.73-5.64-1.46-11.29-.63-16.93,1.39-9.4,7.08-18.5,11.07-27.73,8.4-19.43,9.27-39.52,19.21-58.78l.25-.53a104.9,104.9,0,0,0-22.21-2.72l-.9.52c-15.54,21.86-17.88,45.32-27.43,68-1.88,4.44-4,8.85-5.69,13.31a65.26,65.26,0,0,0-4,17.86,17.15,17.15,0,0,0-.18,4.63c.48,2.29-.61,1.75,3.41,2.48,5.3,1,13.78.48,19.47.68a37.42,37.42,0,0,0,6.45-.14"/><path class="cls-1" d="M649.62,719.47c-1.33-10.32-1-19.18,3.22-28.78,3.52-8,7.62-15.54,10.4-23.82,5.62-16.78,8.37-34,15.94-50.11a2.53,2.53,0,0,0-1.49-3.67A115.87,115.87,0,0,0,665.27,611c-3.23-.37-8.69-1.73-11.73-.35-2.33,1.07-3.57,4-4.86,6a103.86,103.86,0,0,0-5.89,10.89c-6.66,14.23-10.16,29.59-15.37,44.36-2.86,8.09-6.91,15.7-9.67,23.81-2.23,6.55-4.56,15.06-3.52,22,.66,4.41,4.57,4.28,8.47,4.66a125.64,125.64,0,0,0,23.27.19c3.17-.31,3.2-5.32,0-5-6.12.6-12.59.22-18.73,0-2.78-.08-5.69-.87-8.42-.83q-1.32-.39.45,1.08c-.08-.5-.13-1-.17-1.51.22-1.21.09-2.67.22-3.94,1.5-14.67,8.76-27.1,13.47-40.82,4.24-12.35,7.34-25.09,12.38-37.16,1.29-3.1,2.7-6.14,4.27-9.11,1.37-2.6,3.23-7.39,5.57-9.26,2-1.62,6.57-.52,9.33-.23a104.41,104.41,0,0,1,12,2l-1.5-3.67c-7.75,16.54-10.68,34.1-16.44,51.3-3.08,9.18-8,17.5-11.53,26.48-3.6,9.14-3.51,17.82-2.27,27.45.4,3.15,5.4,3.19,5,0Z"/><path class="cls-2" d="M626.41,618,598,605.47c-2.86-1.27-5.79-2.54-8.9-2.77a18.45,18.45,0,0,1-3.86-.38c-3.53-1-5-5.12-6-8.67-.34-1.19-.6-2.67.31-3.51s2.79.72,1.75,1.41a30,30,0,0,1-2.38-3.75c-2.46-4.85-2.3-10.69-.74-15.89s4.41-9.91,7.23-14.56c4.75-7.83,10.77-16.5,19.87-17.45a12.26,12.26,0,0,0,3.83-.65,8.71,8.71,0,0,0,2.66-2.26c6.37-7.11,13.88-14.88,23.41-14.83,3.47,0,6.92,1.12,10.36.68,2.77-.35,5.31-1.68,7.81-3,5.72-2.92,11.76-5.67,18.19-5.9s13.35,2.65,16.15,8.44a32.43,32.43,0,0,0,2,4.35c3.44,5.09,11.07,3.85,17.07,5.19a18.08,18.08,0,0,1,13.43,13.69c.69,3.33.45,7,2.25,9.88,3.17,5.1,10.81,5.18,15.07,9.42,4.46,4.45,3.78,11.75,5.86,17.69,1.08,3.07,2.94,5.86,3.57,9.05,1,5-1.28,10.17-4.21,14.4-9.92,14.34-27,21.87-43.54,27.27-6.42,2.09-13,4-19.76,4s-13.76-2.07-18.44-6.93c-2.4-2.49-4.17-5.67-7.07-7.55a21,21,0,0,0-7.24-2.48l-22.45-4.71"/><path class="cls-2" d="M627.68,615.86c-9.48-4.19-18.94-8.41-28.44-12.55a34.37,34.37,0,0,0-10.16-3.11c-2.79-.3-4.34-.42-6-3.07a17.61,17.61,0,0,1-1.16-2.94c-.07-1.41-.93-2.08-2.57-2v-2.52l-.3.62h4.32c-9.09-12.94.91-29,9.57-39.73a25.49,25.49,0,0,1,6.93-6.29c2.88-1.63,5.58-1.35,8.58-2.22,4.88-1.43,7.82-6.63,11.4-9.95,4.83-4.47,10.22-7.77,17-7.34,3.13.2,6.12,1,9.28.5,3.6-.55,6.76-2.42,10-4,6.18-3,13.22-6,20.21-4.3a13.8,13.8,0,0,1,8.48,5.53c1.5,2.28,1.93,5,3.87,7,3.28,3.43,8.21,3.74,12.63,4.21,6.59.69,12.45,2.84,15.4,9.35,2.21,4.86.88,10.64,4.47,15,3.41,4.11,8.85,4.53,13,7.46,5.28,3.71,4.67,10.82,6.29,16.39.89,3.09,2.67,5.82,3.59,8.88,1.51,5.05-.7,9.92-3.55,14-7.25,10.48-18.78,17.16-30.36,21.89-13.25,5.41-33.69,13.94-46.33,3-4.89-4.22-6.93-9.1-13.52-11-8.25-2.43-17.05-3.65-25.46-5.42-3.14-.65-4.48,4.16-1.33,4.83,8.39,1.76,17.25,2.91,25.46,5.41,7.12,2.16,10.19,10.26,17,13.49,13.6,6.47,29.53.69,42.62-4.3,12.5-4.77,25-11.26,33.57-21.78,4.19-5.13,8.1-11.48,7.34-18.38-.37-3.41-2-6.22-3.25-9.35-1.39-3.43-1.78-7-2.55-10.61-1.31-6.08-4.2-10.22-9.87-12.88-2.6-1.22-5.91-2-8.05-4-3.08-2.92-2.42-7.53-3.38-11.33a20.66,20.66,0,0,0-10-12.85c-5.66-3.08-12.22-1.49-17.88-4-3.55-1.6-4-5.69-6.14-8.6a17.67,17.67,0,0,0-6.18-5.07C676.5,510.94,670,511,664,512.72c-8.11,2.28-14.92,8.37-23.64,7.46-7.07-.74-12.75,0-18.73,4.11a56.15,56.15,0,0,0-8.53,7.55c-1.25,1.31-2.45,3.17-3.91,4.25s-3.44,1.19-5.29,1.5c-7,1.17-12.12,6.25-16.17,11.7-9.18,12.37-18.74,29.08-8.6,43.52,1,1.38,3.46,1.85,4.32,0,1.66-3.55-2.5-7.24-5.67-4.44-3.56,3.14.26,10.87,2.61,13.55a9.39,9.39,0,0,0,6.15,3.14,43.21,43.21,0,0,1,12,3.35c8.9,3.89,17.78,7.84,26.66,11.76,2.92,1.29,5.47-3,2.53-4.31Z"/><path class="cls-1" d="M230,716.88c-5.38-13-10.78-26.07-14.38-39.68-6-22.71-6.88-46.41-9.8-69.72-6.13-49.11-21.36-96.86-25.6-146.16l-.14-1.34a66,66,0,0,0-27.49,2.24l-.6,1.57c0,57.62,16.24,113.88,23.67,171,1.45,11.2,2.57,22.45,4.28,33.62a316.68,316.68,0,0,0,9.89,43.67c1.09,3.6,2,7.57,3.55,11,2.39,5.22.71,4.37,5.87,4.51,6.82.19,16.08-4.23,22.71-6a22.09,22.09,0,0,0,7.24-2.85"/><path class="cls-1" d="M232.39,716.22c-6.6-16-13-32-16.55-48.94-3.57-17.22-4.75-34.79-6.65-52.23-3.69-33.73-11.73-66.67-18.32-99.9-3.64-18.31-6.31-36.62-8.31-55.17a2.6,2.6,0,0,0-2.5-2.5,70.44,70.44,0,0,0-17.29,0c-3.63.48-10.61.59-12.61,4s-.62,10-.49,13.74q.35,9.57,1.18,19.11c2.19,25.1,6.6,49.93,11.18,74.68,4.61,24.95,9.24,49.88,12.26,75.08a453.61,453.61,0,0,0,14,71.77c1.08,3.78,2.13,9.11,4.55,12.32,1.59,2.11,3.93,1.91,6.37,1.87,5.23-.08,10.17-1.68,15.07-3.36,5.32-1.82,11.31-2.88,16.14-5.81,2.75-1.66.24-6-2.53-4.31-3.62,2.2-8,2.93-12,4.29a96.85,96.85,0,0,1-11.83,3.67,46.4,46.4,0,0,1-6,.51c-2,.15-.92.34-1.4-.53-2.1-3.76-3-8.25-4.23-12.35a380,380,0,0,1-12.27-60.59c-4.89-40.6-13.45-80.46-19.77-120.83-1.85-11.77-3.41-23.58-4.47-35.45q-.76-8.6-1.15-17.2c-.2-4.5-1.45-11,.19-15.28l-1.74,1.75a67.86,67.86,0,0,1,26.82-2.15l-2.5-2.5c3.55,33,10.33,65.09,17,97.53,3.61,17.49,7,35.06,9.06,52.8,2,16.94,3.09,34,6,50.83,3.36,19.69,10.36,38,18,56.41,1.21,2.93,6.05,1.65,4.82-1.33Z"/><path class="cls-2" d="M156.47,531.55a15.41,15.41,0,0,0-13.29-2.22c-2.27.69-4.72,3-3.51,5a4,4,0,0,0,2.63,1.56,15.83,15.83,0,0,0,14.65-4.1"/><path class="cls-2" d="M157.73,529.39a18.2,18.2,0,0,0-13.12-2.94c-3.57.6-8.34,3.12-7.69,7.49.62,4.12,5.66,4.94,9.05,4.91a18.85,18.85,0,0,0,12.75-5.24c2.36-2.2-1.18-5.73-3.54-3.54a13.7,13.7,0,0,1-6.21,3.42c-1.11.27-6.25,1.09-6.91-.24-.84-1.69,5.76-2.07,6.42-2a13.79,13.79,0,0,1,6.73,2.48c2.68,1.79,5.19-2.53,2.52-4.32Z"/><path class="cls-2" d="M197.62,560a12.42,12.42,0,0,1,14.24-3.69c.89.37,1.88,1.24,1.48,2.12a1.88,1.88,0,0,1-1,.83,19.47,19.47,0,0,1-16.09,0"/><path class="cls-2" d="M199.39,561.76c2.34-2.76,9.09-6.23,12.17-2.43l-.73-1.77v.86l.73-1.77c-1.33,1.55-4.85,1.75-6.75,1.82a17.09,17.09,0,0,1-7.33-1.41c-2.93-1.26-5.48,3.05-2.53,4.31A23,23,0,0,0,208.78,563c2.91-.58,8.16-2,7-6.11-1-3.48-6.33-4.15-9.32-4a15.09,15.09,0,0,0-10.57,5.29c-2.07,2.44,1.45,6,3.54,3.54Z"/><path class="cls-2" d="M193.2,497c3.32,3.89,9.52,2.61,14.37,1l16.87-5.63c2.53-.84,5.35-2,6.29-4.45s-2.22-5.82-4.19-4c14-.49,26.07-14,25-28,5.83.12,11.31-3.73,14-8.89s2.88-11.39,1.42-17a14.2,14.2,0,0,1-.76-4.49,15.18,15.18,0,0,1,1.35-4.29,23.53,23.53,0,0,0-6.28-25.5c-2.63-2.29-7.75-3.31-8.77,0a58.6,58.6,0,0,0-25.39-20.66c-2.14-.9-5.5-1.06-5.89,1.23-6-6.61-12.89-13-21.44-15.58s-19.15-.46-23.93,7.11c-.72,1.14-1.36,2.43-2.54,3.08a6.11,6.11,0,0,1-4.22.12c-5.94-1.36-11.72-3.77-17.8-3.92s-12.89,2.75-14.7,8.56c-.47,1.52-.69,3.32-2,4.17a5,5,0,0,1-2.9.47c-4.77-.21-9.72-.58-14.13,1.24s-8,6.66-6.63,11.23c.84,2.83,3.41,5.7,2,8.3-.79,1.47-2.56,2.06-4.17,2.51-6,1.68-12.36,3.22-17.29,7.11s-8,10.93-5.29,16.58c1.67,3.45,5.24,7.45,2.75,10.36a7.77,7.77,0,0,1-3.61,1.87c-3.89,1.32-7.85,4.24-8,8.34-.18,3.88,3,7,5.67,9.79s5.17,6.88,3.45,10.37c-.7,1.4-2,2.42-2.87,3.71-3.62,5.19,0,12.21,3.63,17.38,6.76,9.57,14.63,19.42,25.83,22.87,9.2,2.84,19.17.86,28.39-1.91a100.92,100.92,0,0,0,16.73-6.45c3.06-1.56,6.06-3.36,9.4-4.19,8.36-2.06,19,1.69,24.66-4.79"/><path class="cls-2" d="M191.43,498.74c3.74,3.59,8.49,3.72,13.34,2.62a161.88,161.88,0,0,0,21.61-7.07c3.45-1.32,7.53-3.88,6.93-8.18-.57-4-4.48-6.27-8-4.42-2.15,1.13-1.21,4.82,1.26,4.66,15.57-1,28.21-14.75,27.49-30.45l-2.5,2.5a19.21,19.21,0,0,0,17.38-12.9,26.22,26.22,0,0,0,1.1-13.06c-.44-2.87-1.55-5.55-.86-8.46.56-2.36,1.66-4.38,2-6.83A26.35,26.35,0,0,0,265,395.91c-3.42-3.86-11.55-7.87-14.67-1.45h4.32a62.92,62.92,0,0,0-19.92-18.4c-4.43-2.54-13.1-7.47-15.94-.44l4.18-1.1c-8.3-9-18.85-18.13-31.92-17.32A22.91,22.91,0,0,0,176.61,363c-2.68,2.54-3.41,5.73-7.74,5.38-3.82-.31-7.73-2.29-11.5-3-5.71-1.15-11.71-1.09-16.85,2a14.42,14.42,0,0,0-5,4.78c-.57.92-.8,2-1.32,2.91-1.56,2.77-3,2.71-6.13,2.65-6.15-.13-12.65.63-16.92,5.55a11.92,11.92,0,0,0-3,6.49c-.35,3.27,2.07,5.94,1.71,9-.31,2.67.11,1.5-1.84,2.46a14.36,14.36,0,0,1-2.27.63c-1.78.5-3.56,1-5.3,1.58a37,37,0,0,0-9,4.22,19.34,19.34,0,0,0-8.68,13.53,13.47,13.47,0,0,0,1.11,7.11c.5,1.13,1.17,2.18,1.78,3.26,1.62,2.88-.09,4.66-2.62,6.22-4.21,2.59-8.45,5.19-8.24,10.83a12.41,12.41,0,0,0,3,7c1.87,2.44,6.57,5.65,6.57,9s-3.94,6.44-4.59,9.9a15.53,15.53,0,0,0,1.09,8.4c2.28,5.9,6.6,11.14,10.59,16,4.15,5,9,9.76,14.73,12.88,14.62,7.9,32.49,2.75,46.89-3.16,3.75-1.54,7.24-3.52,10.91-5.22,4.13-1.92,8.16-2.2,12.63-2.2,6.33,0,12.6,0,17.34-4.81,2.27-2.28-1.26-5.82-3.54-3.53-4.2,4.23-10.49,3.25-16,3.35-6,.1-10.77,1.75-16.08,4.45-12.3,6.26-29,12.75-43,9.38-12.17-2.94-21.71-14.61-27.85-24.92-1.72-2.88-3.7-6.56-2.83-10,.76-3,3.86-4.67,4.56-7.78,1.06-4.65-2.12-8.8-5-12-2.6-2.83-6.37-6.54-3-10.45,1.77-2.07,4.34-2.6,6.7-3.67,4-1.8,5.13-5.26,3.62-9.22-1.15-3-3.63-5.46-3.84-8.8s1.38-6.4,3.43-8.73c4.68-5.32,11.94-6.4,18.31-8.47,3.67-1.19,6.88-3.2,6.3-7.6-.29-2.29-1.91-4.09-2.38-6.29-1.4-6.49,6.18-9.15,11.15-9.44,4.17-.25,10.24,1.7,13.08-2.36,1.19-1.71,1.18-3.93,2.28-5.69,1.94-3.08,5.72-4.5,9.17-4.89,7.6-.86,14.18,3.57,21.54,4.06,6.25.42,7.56-6.42,12.25-9.17,13.69-8,27.83,3.87,36.68,13.45,1.4,1.51,3.52.52,4.18-1.11s12.88,6.13,13.88,6.87A57.64,57.64,0,0,1,250.35,397c1,1.4,3.43,1.84,4.32,0,1.61-3.33,6.65,2.25,7.47,3.31a21,21,0,0,1,3.76,7.87c1.5,6.1-.85,10.22-2,15.93-1,5.38,2.09,10.68,1.19,16.28-1.13,6.94-6.33,12.78-13.6,13a2.53,2.53,0,0,0-2.5,2.5c.59,12.85-9.52,24.59-22.49,25.45l1.27,4.66-.89,2.56a12.21,12.21,0,0,1-2.5,1.13c-1.13.44-2.31.78-3.45,1.16L211.6,494c-4.71,1.57-12.33,5.35-16.63,1.21-2.32-2.23-5.86,1.3-3.54,3.54Z"/></svg>