<svg id="Layer_1" data-name="Layer 1" xmlns="http://www.w3.org/2000/svg" viewBox="0 0 516.1 516.0011"><defs><style>.cls-1{fill:#93278f;}.cls-2{fill:#fff;}.cls-3{fill:#2e3192;}.cls-4{fill:#a87c51;stroke:#a87c51;stroke-width:4px;}.cls-4,.cls-5,.cls-6,.cls-8,.cls-9{stroke-miterlimit:10;}.cls-5{fill:#9a8479;stroke:#9a8479;}.cls-5,.cls-6,.cls-8,.cls-9{stroke-width:7px;}.cls-6{fill:#5f3a16;stroke:#5f3a16;}.cls-7{fill:#6d6e71;}.cls-8,.cls-9{fill:none;}.cls-8{stroke:#6d6e71;}.cls-9{stroke:#3c2417;}</style></defs><title>oreo2</title><path class="cls-1" d="M258,515.99945c-142.5,0-258-115.5-258-258a257.961,257.961,0,0,1,75.6-182.4c100.8-100.8,264.1-100.8,364.9,0s100.8,264.1,0,364.9A256.49776,256.49776,0,0,1,258,515.99945Z"/><path class="cls-2" d="M258,.5C400.3.6,515.5,116,515.4,258.2a257.624,257.624,0,0,1-157.2,237C227.1,550.5,76.1,489,20.8,357.9-34.4,227,26.9,76,157.7,20.6A258.09883,258.09883,0,0,1,258,.5m0-1C115.2-.5-.5,115.2-.5,258S115.2,516.5,258,516.5,516.5,400.8,516.5,258,400.8-.5,258-.5Z"/><path class="cls-2" d="M59.27246,249.52832h8.35108c6.91113,0,11.69873,4.82373,11.69873,12.38184,0,7.52343-4.67969,12.81445-11.73487,12.81445H59.27246Zm1.94385,23.39648H67.2998c6.65918,0,9.93458-4.67968,9.93458-10.90625,0-5.54345-2.95167-10.69042-9.93458-10.69042H61.21631Z"/><path class="cls-2" d="M84.689,265.94141c.03614,4.64355,2.37549,7.52343,5.83106,7.52343a5.06841,5.06841,0,0,0,5.18359-3.38379h1.83545a6.89992,6.89992,0,0,1-7.09082,5.0752c-5.47119,0-7.59521-4.71484-7.59521-9.28613,0-5.14746,2.55566-9.57471,7.811-9.57471,5.54346,0,7.30713,4.78662,7.30713,8.17041,0,.50391,0,1.00781-.03613,1.47559Zm11.41065-1.584c-.03613-3.56347-1.98-6.3706-5.50732-6.3706-3.70752,0-5.39942,2.59131-5.79541,6.3706Z"/><path class="cls-2" d="M103.2998,274.72461V258.41943h-3.0957v-1.69238h3.0957v-2.55566c0-3.02344.86426-6.335,4.89551-6.335a6.72024,6.72024,0,0,1,1.76367.25195v1.728a8.93288,8.93288,0,0,0-1.94384-.21631c-2.12354,0-2.91553,1.51172-2.91553,4.64355v2.4834h3.92383v1.69238h-3.92383v16.30518Z"/><path class="cls-2" d="M126.4458,265.68945c0,5.00391-2.77148,9.4668-8.13476,9.4668-4.85938,0-7.88331-3.99512-7.88331-9.43066,0-5.14746,2.84375-9.43018,8.063-9.43018C123.27832,256.29541,126.4458,260.03809,126.4458,265.68945Zm-14.11035.03614c0,4.2832,2.30371,7.73925,6.11914,7.73925,3.8877,0,6.0835-3.2041,6.0835-7.73925,0-4.24707-2.15967-7.73877-6.15528-7.73877C114.2793,257.98682,112.33545,261.40625,112.33545,265.72559Z"/><path class="cls-2" d="M130.91162,261.62207c0-3.02344-.03613-4.31885-.03613-4.895h1.76367c.03613.57617.07227,1.72852.07227,4.03174a6.81783,6.81783,0,0,1,6.26318-4.46338v1.94336c-3.74365.252-6.26318,2.84326-6.26318,7.12744v9.3584h-1.79981Z"/><path class="cls-2" d="M142.68311,265.94141c.03613,4.64355,2.37548,7.52343,5.83105,7.52343a5.06841,5.06841,0,0,0,5.18359-3.38379h1.83545a6.89992,6.89992,0,0,1-7.09082,5.0752c-5.47119,0-7.59521-4.71484-7.59521-9.28613,0-5.14746,2.55566-9.57471,7.811-9.57471,5.54346,0,7.30713,4.78662,7.30713,8.17041,0,.50391,0,1.00781-.03613,1.47559Zm11.41064-1.584c-.03613-3.56347-1.98-6.3706-5.50732-6.3706-3.70752,0-5.39942,2.59131-5.79541,6.3706Z"/><path class="cls-2" d="M160.791,269.75684c.61181,2.33984,2.26757,3.74414,5.11132,3.74414,3.20362,0,4.49952-1.47559,4.49952-3.49219,0-2.05176-.86377-3.05957-4.89551-4.03125-4.64356-1.11524-5.79541-2.51953-5.79541-4.89551,0-2.4834,1.87207-4.78662,5.93945-4.78662s6.01123,2.48291,6.29932,5.03857H170.1499a4.242,4.242,0,0,0-4.57129-3.38232c-3.13183,0-4.03173,1.54639-4.03173,2.98682,0,1.65527.86376,2.4834,4.42724,3.34765,5.07568,1.22364,6.33545,2.87989,6.33545,5.5791,0,3.2754-2.66357,5.291-6.44336,5.291-4.10351,0-6.40723-2.15918-6.91113-5.39941Z"/><path class="cls-2" d="M173.96729,256.72705h3.34765v-5.61523h1.79981v5.61523h4.2832v1.69238h-4.2832v11.69776c0,2.01562.43164,3.168,2.15966,3.168a6.77736,6.77736,0,0,0,1.87159-.2168v1.584a6.31883,6.31883,0,0,1-2.23145.32422c-2.30371,0-3.59961-1.15136-3.59961-4.03125V258.41943h-3.34765Z"/><path class="cls-2" d="M199.4165,271.30469a20.58791,20.58791,0,0,0,.252,3.41992h-1.72754a11.811,11.811,0,0,1-.32373-2.77148c-.61231,1.332-2.1958,3.20312-5.90332,3.20312-4.17578,0-5.97559-2.69922-5.97559-5.39941,0-3.959,3.05957-5.75879,8.459-5.75879h3.41992v-1.83594c0-1.79981-.54-4.21045-4.64356-4.21045-3.63574,0-4.17578,1.90674-4.57129,3.38232h-1.7998c.21582-1.97949,1.43945-5.03857,6.40723-5.03857,4.103,0,6.40673,1.72754,6.40673,5.687Zm-1.76367-5.75879h-3.52734c-3.99561,0-6.47949,1.04394-6.47949,4.13965,0,2.26758,1.62011,3.81543,4.13964,3.81543,5.14747,0,5.86719-3.41993,5.86719-7.30762Z"/><path class="cls-2" d="M202.479,256.72705h3.34766v-5.61523h1.7998v5.61523h4.28321v1.69238h-4.28321v11.69776c0,2.01562.43165,3.168,2.15967,3.168a6.77725,6.77725,0,0,0,1.87158-.2168v1.584a6.31874,6.31874,0,0,1-2.23144.32422c-2.30371,0-3.59961-1.15136-3.59961-4.03125V258.41943H202.479Z"/><path class="cls-2" d="M215.582,248.19629h1.79981v3.4917H215.582Zm0,8.53076h1.79981v17.99756H215.582Z"/><path class="cls-2" d="M237.86377,265.68945c0,5.00391-2.77148,9.4668-8.13477,9.4668-4.85937,0-7.8833-3.99512-7.8833-9.43066,0-5.14746,2.84375-9.43018,8.063-9.43018C234.69629,256.29541,237.86377,260.03809,237.86377,265.68945Zm-14.11035.03614c0,4.2832,2.30371,7.73925,6.11914,7.73925,3.88769,0,6.08349-3.2041,6.08349-7.73925,0-4.24707-2.15966-7.73877-6.15527-7.73877C225.69727,257.98682,223.75342,261.40625,223.75342,265.72559Z"/><path class="cls-2" d="M242.32959,261.2627c0-1.584,0-3.09522-.03613-4.53565h1.76367c.07226.57617.1084,2.91553.07226,3.41943a5.87839,5.87839,0,0,1,5.9751-3.85107c3.20362,0,6.04737,1.7998,6.04737,6.76709v11.66211h-1.79981v-11.375c0-3.20313-1.332-5.29053-4.46338-5.29053-4.28369,0-5.75928,3.563-5.75928,7.48682v9.17871h-1.7998Z"/><path class="cls-2" d="M285.99512,265.68945c0,5.00391-2.77149,9.4668-8.13477,9.4668-4.85937,0-7.8833-3.99512-7.8833-9.43066,0-5.14746,2.84375-9.43018,8.063-9.43018C282.82764,256.29541,285.99512,260.03809,285.99512,265.68945Zm-14.11035.03614c0,4.2832,2.30371,7.73925,6.11914,7.73925,3.88769,0,6.08349-3.2041,6.08349-7.73925,0-4.24707-2.15967-7.73877-6.15527-7.73877C273.82861,257.98682,271.88477,261.40625,271.88477,265.72559Z"/><path class="cls-2" d="M291.21631,274.72461V258.41943h-3.0957v-1.69238h3.0957v-2.55566c0-3.02344.86426-6.335,4.89551-6.335a6.72024,6.72024,0,0,1,1.76367.25195v1.728a8.933,8.933,0,0,0-1.94385-.21631c-2.12353,0-2.91553,1.51172-2.91553,4.64355v2.4834h3.92383v1.69238h-3.92383v16.30518Z"/><path class="cls-2" d="M309.144,261.62207c0-3.02344-.03613-4.31885-.03613-4.895h1.76367c.03613.57617.07227,1.72852.07227,4.03174a6.81783,6.81783,0,0,1,6.26318-4.46338v1.94336c-3.74365.252-6.26318,2.84326-6.26318,7.12744v9.3584H309.144Z"/><path class="cls-2" d="M332.5415,271.30469a20.64316,20.64316,0,0,0,.252,3.41992h-1.72754a11.85646,11.85646,0,0,1-.32422-2.77148c-.61133,1.332-2.19531,3.20312-5.90332,3.20312-4.17481,0-5.97461-2.69922-5.97461-5.39941,0-3.959,3.05957-5.75879,8.459-5.75879h3.41895v-1.83594c0-1.79981-.54-4.21045-4.64356-4.21045-3.63476,0-4.1748,1.90674-4.57128,3.38232h-1.79981c.21582-1.97949,1.44043-5.03857,6.40723-5.03857,4.10351,0,6.40722,1.72754,6.40722,5.687Zm-1.76367-5.75879h-3.52734c-3.99512,0-6.47949,1.04394-6.47949,4.13965,0,2.26758,1.62011,3.81543,4.13964,3.81543,5.14747,0,5.86719-3.41993,5.86719-7.30762Z"/><path class="cls-2" d="M338.48291,248.19629h1.7998v3.4917h-1.7998Zm0,8.53076h1.7998v17.99756h-1.7998Z"/><path class="cls-2" d="M346.187,261.2627c0-1.584,0-3.09522-.03515-4.53565h1.76367c.07129.57617.10742,2.91553.07129,3.41943a5.87951,5.87951,0,0,1,5.97558-3.85107c3.2041,0,6.04688,1.7998,6.04688,6.76709v11.66211h-1.79883v-11.375c0-3.20313-1.332-5.29053-4.46387-5.29053-4.2832,0-5.75976,3.563-5.75976,7.48682v9.17871H346.187Z"/><path class="cls-2" d="M366.3833,274.72461V258.41943h-3.0957v-1.69238h3.0957v-2.55566c0-3.02344.86328-6.335,4.89551-6.335a6.73234,6.73234,0,0,1,1.76367.25195v1.728a8.93745,8.93745,0,0,0-1.94434-.21631c-2.123,0-2.915,1.51172-2.915,4.64355v2.4834H372.106v1.69238h-3.92285v16.30518Z"/><path class="cls-2" d="M389.52881,265.68945c0,5.00391-2.77246,9.4668-8.13574,9.4668-4.85938,0-7.88282-3.99512-7.88282-9.43066,0-5.14746,2.84375-9.43018,8.06348-9.43018C386.36084,256.29541,389.52881,260.03809,389.52881,265.68945Zm-14.11035.03614c0,4.2832,2.30371,7.73925,6.11914,7.73925,3.88769,0,6.083-3.2041,6.083-7.73925,0-4.24707-2.16016-7.73877-6.15528-7.73877C377.36182,257.98682,375.41846,261.40625,375.41846,265.72559Z"/><path class="cls-2" d="M393.99365,261.62207c0-3.02344-.03515-4.31885-.03515-4.895h1.76367c.03613.57617.07129,1.72852.07129,4.03174a6.818,6.818,0,0,1,6.26367-4.46338v1.94336c-3.74317.252-6.26367,2.84326-6.26367,7.12744v9.3584h-1.79981Z"/><path class="cls-2" d="M405.76611,265.94141c.03614,4.64355,2.376,7.52343,5.83106,7.52343a5.06887,5.06887,0,0,0,5.18359-3.38379h1.83594a6.90075,6.90075,0,0,1-7.0918,5.0752c-5.4707,0-7.59472-4.71484-7.59472-9.28613,0-5.14746,2.55566-9.57471,7.81152-9.57471,5.543,0,7.30664,4.78662,7.30664,8.17041,0,.50391,0,1.00781-.03613,1.47559Zm11.41016-1.584c-.03613-3.56347-1.97949-6.3706-5.50684-6.3706-3.708,0-5.39941,2.59131-5.79492,6.3706Z"/><path class="cls-2" d="M423.87256,269.75684c.6123,2.33984,2.26855,3.74414,5.11133,3.74414,3.2041,0,4.5-1.47559,4.5-3.49219,0-2.05176-.86426-3.05957-4.89551-4.03125-4.64356-1.11524-5.79492-2.51953-5.79492-4.89551,0-2.4834,1.87109-4.78662,5.93847-4.78662,4.06836,0,6.01172,2.48291,6.29981,5.03857h-1.79981a4.242,4.242,0,0,0-4.57129-3.38232c-3.13183,0-4.03125,1.54639-4.03125,2.98682,0,1.65527.86329,2.4834,4.42676,3.34765,5.0752,1.22364,6.335,2.87989,6.335,5.5791,0,3.2754-2.66308,5.291-6.44238,5.291-4.10352,0-6.40723-2.15918-6.91113-5.39941Z"/><path class="cls-2" d="M437.04932,256.72705H440.397v-5.61523h1.79981v5.61523H446.48v1.69238h-4.2832v11.69776c0,2.01562.43164,3.168,2.15918,3.168a6.78277,6.78277,0,0,0,1.87207-.2168v1.584a6.31714,6.31714,0,0,1-2.23145.32422c-2.30371,0-3.59961-1.15136-3.59961-4.03125V258.41943h-3.34765Z"/><path class="cls-2" d="M450.76416,269.75684c.6123,2.33984,2.26855,3.74414,5.1123,3.74414,3.20313,0,4.499-1.47559,4.499-3.49219,0-2.05176-.86426-3.05957-4.89551-4.03125-4.64355-1.11524-5.79492-2.51953-5.79492-4.89551,0-2.4834,1.87109-4.78662,5.93848-4.78662,4.06835,0,6.01171,2.48291,6.2998,5.03857h-1.7998a4.242,4.242,0,0,0-4.57129-3.38232c-3.13184,0-4.03125,1.54639-4.03125,2.98682,0,1.65527.86328,2.4834,4.42675,3.34765,5.0752,1.22364,6.335,2.87989,6.335,5.5791,0,3.2754-2.66308,5.291-6.44238,5.291-4.10351,0-6.40722-2.15918-6.91113-5.39941Z"/><path class="cls-2" d="M130.42432,299.92676H133.772v-5.61524h1.79981v5.61524h4.2832v1.69238h-4.2832v11.69824c0,2.01563.43164,3.168,2.15967,3.168a6.777,6.777,0,0,0,1.87158-.2168v1.584a6.31906,6.31906,0,0,1-2.23145.32422c-2.30371,0-3.59961-1.15137-3.59961-4.03125V301.61914h-3.34765Z"/><path class="cls-2" d="M157.88965,308.88965c0,5.0039-2.77149,9.4668-8.13477,9.4668-4.85937,0-7.8833-3.99512-7.8833-9.43067,0-5.14746,2.84375-9.43066,8.063-9.43066C154.72217,299.49512,157.88965,303.23828,157.88965,308.88965Zm-14.11035.03613c0,4.2832,2.30371,7.73926,6.11914,7.73926,3.88769,0,6.08349-3.2041,6.08349-7.73926,0-4.24707-2.15966-7.73926-6.15527-7.73926C145.72314,301.18652,143.7793,304.60645,143.7793,308.92578Z"/><path class="cls-2" d="M171.71533,304.57031c0-1.54785,0-3.23926-.03613-4.64355h1.76367c.03613.6123.1084,2.16015.07227,3.2041a5.62929,5.62929,0,0,1,5.39941-3.63574,5.10852,5.10852,0,0,1,5.21924,3.56347,6.12426,6.12426,0,0,1,5.86719-3.56347c2.77148,0,5.65136,1.584,5.65136,6.58691V317.9248h-1.7998v-11.627c0-2.41113-.86377-5.03906-4.21143-5.03906-3.4917,0-5.07519,2.80762-5.07519,6.2998V317.9248h-1.76416V306.334c0-2.627-.79151-5.07519-4.10352-5.07519-3.49121,0-5.1831,3.0957-5.1831,6.76758v9.89843h-1.79981Z"/><path class="cls-2" d="M213.68945,314.50488a20.51884,20.51884,0,0,0,.25244,3.41992h-1.728a11.81041,11.81041,0,0,1-.32373-2.77148c-.61231,1.332-2.1958,3.20313-5.90332,3.20313-4.17578,0-5.97559-2.69922-5.97559-5.39942,0-3.959,3.05957-5.75879,8.459-5.75879h3.41993V305.3623c0-1.7998-.54-4.21093-4.64356-4.21093-3.63574,0-4.17578,1.90722-4.57129,3.38281h-1.7998c.21582-1.97949,1.43945-5.03906,6.40722-5.03906,4.103,0,6.40674,1.72754,6.40674,5.6875Zm-1.76367-5.75879h-3.52734c-3.99561,0-6.47949,1.04395-6.47949,4.13965,0,2.26758,1.62011,3.81543,4.13964,3.81543,5.14746,0,5.86719-3.41992,5.86719-7.30762Z"/><path class="cls-2" d="M221.43066,309.21387c1.65577-1.76367,6.69532-6.875,9.10694-9.28711h2.30371l-7.12744,7.16308,8.02734,10.835h-2.23193l-7.09082-9.68261-2.9878,2.87988v6.80273h-1.7998V291.39648h1.7998Z"/><path class="cls-2" d="M236.65918,309.1416c.03613,4.64356,2.37549,7.52344,5.83105,7.52344a5.06843,5.06843,0,0,0,5.1836-3.38379h1.83545a6.89993,6.89993,0,0,1-7.09082,5.0752c-5.47119,0-7.59522-4.71485-7.59522-9.28614,0-5.14746,2.55567-9.57519,7.811-9.57519,5.54345,0,7.30713,4.78711,7.30713,8.1709,0,.5039,0,1.00781-.03614,1.47558Zm11.41064-1.583c-.03613-3.56445-1.98-6.37207-5.50732-6.37207-3.70752,0-5.39941,2.5918-5.79541,6.37207Z"/><path class="cls-2" d="M263.69482,304.82227c0-3.02344-.03613-4.31934-.03613-4.89551h1.76367c.03614.57617.07227,1.72851.07227,4.03222a6.8176,6.8176,0,0,1,6.26318-4.46386v1.94336c-3.74365.25195-6.26318,2.84375-6.26318,7.12793v9.35839h-1.79981Z"/><path class="cls-2" d="M289.64893,308.88965c0,5.0039-2.77149,9.4668-8.13477,9.4668-4.85937,0-7.8833-3.99512-7.8833-9.43067,0-5.14746,2.84375-9.43066,8.063-9.43066C286.48145,299.49512,289.64893,303.23828,289.64893,308.88965Zm-14.11036.03613c0,4.2832,2.30372,7.73926,6.11914,7.73926,3.8877,0,6.0835-3.2041,6.0835-7.73926,0-4.24707-2.15967-7.73926-6.15527-7.73926C277.48242,301.18652,275.53857,304.60645,275.53857,308.92578Z"/><path class="cls-2" d="M308.9082,308.88965c0,5.0039-2.77148,9.4668-8.13476,9.4668-4.85938,0-7.8833-3.99512-7.8833-9.43067,0-5.14746,2.84375-9.43066,8.063-9.43066C305.74072,299.49512,308.9082,303.23828,308.9082,308.88965Zm-14.11035.03613c0,4.2832,2.30371,7.73926,6.11914,7.73926,3.8877,0,6.0835-3.2041,6.0835-7.73926,0-4.24707-2.15967-7.73926-6.15528-7.73926C296.7417,301.18652,294.79785,304.60645,294.79785,308.92578Z"/><path class="cls-2" d="M313.374,304.57031c0-1.54785,0-3.23926-.03613-4.64355h1.76367c.03614.6123.1084,2.16015.07227,3.2041a5.62909,5.62909,0,0,1,5.39892-3.63574,5.10834,5.10834,0,0,1,5.21973,3.56347,6.12325,6.12325,0,0,1,5.86719-3.56347c2.77148,0,5.65137,1.584,5.65137,6.58691V317.9248h-1.79981v-11.627c0-2.41113-.86426-5.03906-4.21191-5.03906-3.49121,0-5.0752,2.80762-5.0752,6.2998V317.9248h-1.76367V306.334c0-2.627-.792-5.07519-4.10352-5.07519-3.49121,0-5.1831,3.0957-5.1831,6.76758v9.89843H313.374Z"/><path class="cls-2" d="M353.04541,317.9248V301.61914h-3.0957v-1.69238h3.0957v-2.55567c0-3.02343.86328-6.335,4.89551-6.335a6.75249,6.75249,0,0,1,1.76367.252v1.72754a8.967,8.967,0,0,0-1.94434-.21583c-2.123,0-2.915,1.51172-2.915,4.64356v2.4834h3.92286v1.69238h-3.92286V317.9248Z"/><path class="cls-2" d="M376.19189,308.88965c0,5.0039-2.77246,9.4668-8.13574,9.4668-4.85937,0-7.88281-3.99512-7.88281-9.43067,0-5.14746,2.84375-9.43066,8.06348-9.43066C373.02393,299.49512,376.19189,303.23828,376.19189,308.88965Zm-14.11035.03613c0,4.2832,2.30371,7.73926,6.11914,7.73926,3.8877,0,6.083-3.2041,6.083-7.73926,0-4.24707-2.16015-7.73926-6.15527-7.73926C364.0249,301.18652,362.08154,304.60645,362.08154,308.92578Z"/><path class="cls-2" d="M380.65674,304.82227c0-3.02344-.03516-4.31934-.03516-4.89551h1.76367c.03614.57617.07129,1.72851.07129,4.03222a6.81775,6.81775,0,0,1,6.26367-4.46386v1.94336c-3.74316.25195-6.26367,2.84375-6.26367,7.12793v9.35839h-1.7998Z"/><path class="cls-2" d="M121.47852,358.46094v9.86328h-1.79981V347.55469c0-1.47559,0-3.05957-.03613-4.42774h1.76367c.07227.68457.07227,1.76368.07227,3.24024a6.61136,6.61136,0,0,1,6.335-3.67188c4.24756,0,7.19922,3.56348,7.19922,8.96289,0,6.4795-3.45557,9.89844-7.811,9.89844C124.03418,361.55664,122.37842,360.15332,121.47852,358.46094Zm11.62646-6.73047c0-4.17578-2.01562-7.30762-5.5791-7.30762-4.35547,0-6.15527,2.73633-6.15527,7.63086,0,4.82422,1.4038,7.81152,5.90332,7.81152C131.01709,359.86523,133.105,356.69727,133.105,351.73047Z"/><path class="cls-2" d="M151.86084,357.70508a20.58822,20.58822,0,0,0,.25195,3.41992h-1.72754a11.81156,11.81156,0,0,1-.32373-2.77148c-.6123,1.332-2.1958,3.20312-5.90332,3.20312-4.17578,0-5.97558-2.69922-5.97558-5.39941,0-3.959,3.05957-5.75879,8.459-5.75879h3.41992V348.5625c0-1.7998-.54-4.21094-4.64355-4.21094-3.63574,0-4.17578,1.90723-4.57129,3.38282h-1.7998c.21582-1.9795,1.43945-5.03907,6.40722-5.03907,4.103,0,6.40674,1.72754,6.40674,5.6875Zm-1.76367-5.75879h-3.52735c-3.9956,0-6.47949,1.04394-6.47949,4.13965,0,2.26758,1.62012,3.81543,4.13965,3.81543,5.14746,0,5.86719-3.41992,5.86719-7.30762Z"/><path class="cls-2" d="M157.80225,361.125V334.59668h1.7998V361.125Z"/><path class="cls-2" d="M165.50586,347.77051c0-1.54785,0-3.23926-.03613-4.64356h1.76367c.03613.61231.1084,2.16016.07226,3.2041a5.62931,5.62931,0,0,1,5.39942-3.63574,5.10853,5.10853,0,0,1,5.21924,3.56348,6.12426,6.12426,0,0,1,5.86718-3.56348c2.77149,0,5.65137,1.584,5.65137,6.58692V361.125h-1.7998v-11.627c0-2.41114-.86377-5.03907-4.21143-5.03907-3.4917,0-5.07519,2.80762-5.07519,6.29883V361.125h-1.76416V349.53418c0-2.62695-.792-5.0752-4.10352-5.0752-3.49121,0-5.18311,3.09571-5.18311,6.76758V361.125h-1.7998Z"/><path class="cls-2" d="M219.2876,352.08984c0,5.00391-2.77149,9.4668-8.13477,9.4668-4.85937,0-7.8833-3.99512-7.8833-9.43066,0-5.14746,2.84375-9.43067,8.063-9.43067C216.12012,342.69531,219.2876,346.43848,219.2876,352.08984Zm-14.11035.03614c0,4.2832,2.30371,7.73925,6.11914,7.73925,3.88769,0,6.08349-3.2041,6.08349-7.73925,0-4.24707-2.15967-7.73926-6.15527-7.73926C207.12109,344.38672,205.17725,347.80664,205.17725,352.126Z"/><path class="cls-2" d="M223.89746,334.59668h1.79981v3.49121h-1.79981Zm0,8.53027h1.79981v17.998h-1.79981Z"/><path class="cls-2" d="M231.60059,361.125V334.59668h1.7998V361.125Z"/><path class="cls-2" d="M250.46387,358.46094v9.86328h-1.79981V347.55469c0-1.47559,0-3.05957-.03613-4.42774h1.76367c.07227.68457.07227,1.76368.07227,3.24024a6.61136,6.61136,0,0,1,6.335-3.67188c4.24756,0,7.19922,3.56348,7.19922,8.96289,0,6.4795-3.45557,9.89844-7.811,9.89844C253.01953,361.55664,251.36377,360.15332,250.46387,358.46094Zm11.62646-6.73047c0-4.17578-2.01562-7.30762-5.5791-7.30762-4.35547,0-6.15527,2.73633-6.15527,7.63086,0,4.82422,1.40381,7.81152,5.90332,7.81152C260.00244,359.86523,262.09033,356.69727,262.09033,351.73047Z"/><path class="cls-2" d="M268.5,361.125V334.59668h1.7998V361.125Z"/><path class="cls-2" d="M288.29834,357.70508a20.58822,20.58822,0,0,0,.252,3.41992h-1.72754a11.81156,11.81156,0,0,1-.32373-2.77148c-.6123,1.332-2.1958,3.20312-5.90332,3.20312-4.17578,0-5.97558-2.69922-5.97558-5.39941,0-3.959,3.05957-5.75879,8.459-5.75879H286.499V348.5625c0-1.7998-.54-4.21094-4.64355-4.21094-3.63574,0-4.17578,1.90723-4.57129,3.38282h-1.7998c.21582-1.9795,1.43945-5.03907,6.40722-5.03907,4.103,0,6.40674,1.72754,6.40674,5.6875Zm-1.76367-5.75879h-3.52735c-3.9956,0-6.47949,1.04394-6.47949,4.13965,0,2.26758,1.62012,3.81543,4.13965,3.81543,5.14746,0,5.86719-3.41992,5.86719-7.30762Z"/><path class="cls-2" d="M294.23975,347.66309c0-1.584,0-3.09571-.03614-4.53614h1.76368c.07226.57618.10839,2.916.07226,3.41993a5.8781,5.8781,0,0,1,5.9751-3.85157c3.20361,0,6.04736,1.79981,6.04736,6.76758V361.125h-1.7998V349.75c0-3.20312-1.332-5.291-4.46338-5.291-4.28369,0-5.75928,3.56348-5.75928,7.48731V361.125h-1.7998Z"/><path class="cls-2" d="M311.16016,343.127h3.34765v-5.61523h1.79981V343.127h4.28369v1.69239h-4.28369v11.69824c0,2.01562.43164,3.168,2.15967,3.168a6.78286,6.78286,0,0,0,1.87207-.2168v1.584a6.325,6.325,0,0,1-2.23194.32422c-2.30371,0-3.59961-1.15136-3.59961-4.03125V344.81934h-3.34765Z"/><path class="cls-2" d="M336.60986,357.70508a20.642,20.642,0,0,0,.252,3.41992h-1.72754a11.85646,11.85646,0,0,1-.32422-2.77148c-.61133,1.332-2.19531,3.20312-5.90332,3.20312-4.17481,0-5.97461-2.69922-5.97461-5.39941,0-3.959,3.05957-5.75879,8.459-5.75879h3.41895V348.5625c0-1.7998-.54-4.21094-4.64356-4.21094-3.63476,0-4.1748,1.90723-4.57129,3.38282h-1.7998c.21582-1.9795,1.44043-5.03907,6.40723-5.03907,4.10351,0,6.40722,1.72754,6.40722,5.6875Zm-1.76367-5.75879h-3.52734c-3.99512,0-6.47949,1.04394-6.47949,4.13965,0,2.26758,1.62011,3.81543,4.13964,3.81543,5.14746,0,5.86719-3.41992,5.86719-7.30762Z"/><path class="cls-2" d="M339.67139,343.127H343.019v-5.61523h1.79981V343.127h4.2832v1.69239h-4.2832v11.69824c0,2.01562.43164,3.168,2.15918,3.168a6.78277,6.78277,0,0,0,1.87207-.2168v1.584a6.31714,6.31714,0,0,1-2.23145.32422c-2.30371,0-3.59961-1.15136-3.59961-4.03125V344.81934h-3.34765Z"/><path class="cls-2" d="M352.7749,334.59668h1.79981v3.49121H352.7749Zm0,8.53027h1.79981v17.998H352.7749Z"/><path class="cls-2" d="M375.05713,352.08984c0,5.00391-2.77246,9.4668-8.13574,9.4668-4.85938,0-7.88282-3.99512-7.88282-9.43066,0-5.14746,2.84375-9.43067,8.06348-9.43067C371.88916,342.69531,375.05713,346.43848,375.05713,352.08984Zm-14.11035.03614c0,4.2832,2.30371,7.73925,6.11914,7.73925,3.88769,0,6.083-3.2041,6.083-7.73925,0-4.24707-2.16016-7.73926-6.15528-7.73926C362.89014,344.38672,360.94678,347.80664,360.94678,352.126Z"/><path class="cls-2" d="M379.522,347.66309c0-1.584,0-3.09571-.03515-4.53614h1.76367c.07129.57618.10742,2.916.07129,3.41993a5.87923,5.87923,0,0,1,5.97558-3.85157c3.2041,0,6.04688,1.79981,6.04688,6.76758V361.125h-1.79981V349.75c0-3.20312-1.33105-5.291-4.46289-5.291-4.2832,0-5.75976,3.56348-5.75976,7.48731V361.125H379.522Z"/><path class="cls-2" d="M399.14209,356.15723c.6123,2.33984,2.26855,3.74414,5.11133,3.74414,3.2041,0,4.5-1.47559,4.5-3.49219,0-2.05176-.86426-3.05957-4.89551-4.03125-4.64355-1.11523-5.79492-2.51953-5.79492-4.89551,0-2.4834,1.87109-4.78711,5.93847-4.78711,4.06836,0,6.01172,2.4834,6.29981,5.03907h-1.79981a4.24231,4.24231,0,0,0-4.57128-3.38282c-3.13184,0-4.03125,1.54688-4.03125,2.98731,0,1.65527.86328,2.4834,4.42675,3.34765,5.0752,1.22364,6.335,2.87989,6.335,5.57911,0,3.27539-2.66308,5.291-6.44238,5.291-4.10351,0-6.40722-2.15918-6.91113-5.39941Z"/><path class="cls-3" d="M-207.89326,943.0618c-142.5,0-258-115.5-258-258a257.961,257.961,0,0,1,75.6-182.4c100.8-100.8,264.1-100.8,364.9,0s100.8,264.1,0,364.9A256.49775,256.49775,0,0,1-207.89326,943.0618Z"/><path class="cls-4" d="M315.18879,115.94422c-.94768,38.87959-9.37148,63.54947-9.37148,63.54947H287.28293a300.60307,300.60307,0,0,0,13.94751-63.20007"/><path class="cls-5" d="M211.1376,161.30378s14.12163,41.13578,51.07687,36.90153c0,0-33.45791-23.06155-40.04906-48.67786S211.1376,161.30378,211.1376,161.30378Z"/><path class="cls-4" d="M286.446,116.20077c-20.4867,4.807-42.89935,12.53256-62.44483,24.94672L220.4455,131.086a296.89468,296.89468,0,0,1,61.02015-27.9295"/><path class="cls-5" d="M217.24377,141.09707c-18.65651-30.37971-48.80571-57.68391-48.80571-57.68391-13.57421,58.0836,49.73492,60.31335,49.73492,60.31335"/><path class="cls-5" d="M209.60007,140.03193s-23.92016,7.89205-64.31233-13.97611c0,0,26.47816,52.001,54.695,39.08751,0,0,26.2782-7.74642,17.94776-16.42891Z"/><path class="cls-5" d="M182.24768,165.619S163.641,191.01441,186.007,222.19474c0,0,16.42418-41.52645,11.452-53.21772s4.72937,42.87642,27.4105,48.30944c0,0-14.574-51.585-16.797-57.10333"/><circle class="cls-6" cx="225.60308" cy="148.42167" r="10.15544"/><circle class="cls-6" cx="213.72183" cy="131.13108" r="10.15544"/><polyline class="cls-7" points="296.407 102.834 299.796 105.496 301.019 101.364 304.409 104.026 305.634 99.893 309.025 102.555 310.248 98.422 313.638 101.084 314.864 96.95 318.253 99.613 319.478 95.48 322.869 98.142 324.094 94.009 327.485 96.671 328.71 92.537 332.102 95.199 333.327 91.066 336.718 93.728 337.944 89.594 341.335 92.256 342.557 88.124 345.949 90.786 347.173 86.652 350.565 89.314 351.79 85.181 355.182 87.842 356.409 83.709 359.802 86.37 361.029 82.236 364.421 84.897 365.648 80.763 369.041 83.425 370.272 79.289 373.669 81.95"/><polyline class="cls-8" points="296.407 102.834 299.796 105.496 301.019 101.364 304.409 104.026 305.634 99.893 309.025 102.555 310.248 98.422 313.638 101.084 314.864 96.95 318.253 99.613 319.478 95.48 322.869 98.142 324.094 94.009 327.485 96.671 328.71 92.537 332.102 95.199 333.327 91.066 336.718 93.728 337.944 89.594 341.335 92.256 342.557 88.124 345.949 90.786 347.173 86.652 350.565 89.314 351.79 85.181 355.182 87.842 356.409 83.709 359.802 86.37 361.029 82.236 364.421 84.897 365.648 80.763 369.041 83.425 370.272 79.289 373.669 81.95"/><polygon class="cls-7" points="298.078 102.592 292.717 89.161 366.781 65.856 373.68 81.849 298.078 102.592"/><polygon class="cls-9" points="367.388 63.523 375.432 86.889 383.614 83.053 377.825 61.163 367.388 63.523"/><polygon class="cls-1" points="301.236 110.318 291.875 81.119 284.594 83.497 292.395 106.677 301.236 110.318"/></svg>