<svg id="Layer_1" data-name="Layer 1" xmlns="http://www.w3.org/2000/svg" viewBox="0 0 516.1 516.0011"><defs><style>.cls-1{fill:#93278f;}.cls-2{fill:#fff;}.cls-3{fill:#2e3192;}.cls-4{fill:#2e51a2;}.cls-5{fill:#201e1f;}.cls-6{fill:#f4fffd;}</style></defs><title>oreo4</title><path class="cls-1" d="M258,515.99945c-142.5,0-258-115.5-258-258a257.961,257.961,0,0,1,75.6-182.4c100.8-100.8,264.1-100.8,364.9,0s100.8,264.1,0,364.9A256.49776,256.49776,0,0,1,258,515.99945Z"/><path class="cls-2" d="M258,.5C400.3.6,515.5,116,515.4,258.2a257.624,257.624,0,0,1-157.2,237C227.1,550.5,76.1,489,20.8,357.9-34.4,227,26.9,76,157.7,20.6A258.09883,258.09883,0,0,1,258,.5m0-1C115.2-.5-.5,115.2-.5,258S115.2,516.5,258,516.5,516.5,400.8,516.5,258,400.8-.5,258-.5Z"/><path class="cls-2" d="M147.72217,274.72461V249.52832h2.87988c3.92334,6.04736,13.13818,20.12109,14.72217,22.85645h.03613c-.21631-3.63575-.18017-7.34278-.18017-11.44629V249.52832h1.98v25.19629h-2.66407c-3.74316-5.83106-13.10205-20.481-14.90185-23.25244h-.03613c.18017,3.31152.144,6.9834.144,11.5542v11.69824Z"/><path class="cls-2" d="M188.22021,265.68945c0,5.00391-2.77148,9.4668-8.13476,9.4668-4.85938,0-7.8833-3.99512-7.8833-9.43066,0-5.14746,2.84375-9.43018,8.063-9.43018C185.05273,256.29541,188.22021,260.03809,188.22021,265.68945Zm-14.11035.03614c0,4.2832,2.30371,7.73925,6.11914,7.73925,3.8877,0,6.0835-3.2041,6.0835-7.73925,0-4.24707-2.15967-7.73877-6.15527-7.73877C176.05371,257.98682,174.10986,261.40625,174.10986,265.72559Z"/><path class="cls-2" d="M192.686,261.2627c0-1.584,0-3.09522-.03614-4.53565h1.76367c.07227.57617.1084,2.91553.07227,3.41943a5.87839,5.87839,0,0,1,5.9751-3.85107c3.20361,0,6.04736,1.7998,6.04736,6.76709v11.66211h-1.7998v-11.375c0-3.20313-1.332-5.29053-4.46338-5.29053-4.28369,0-5.75928,3.563-5.75928,7.48682v9.17871H192.686Z"/><path class="cls-2" d="M220.36865,264.64551v1.76367h-9.0708v-1.76367Z"/><path class="cls-2" d="M225.12207,261.62207c0-3.02344-.03613-4.31885-.03613-4.895h1.76367c.03613.57617.07227,1.72852.07227,4.03174a6.81783,6.81783,0,0,1,6.26318-4.46338v1.94336c-3.74365.252-6.26318,2.84326-6.26318,7.12744v9.3584h-1.79981Z"/><path class="cls-2" d="M236.89355,265.94141c.03614,4.64355,2.37549,7.52343,5.83106,7.52343a5.06841,5.06841,0,0,0,5.18359-3.38379h1.83545a6.89992,6.89992,0,0,1-7.09082,5.0752c-5.47119,0-7.59521-4.71484-7.59521-9.28613,0-5.14746,2.55566-9.57471,7.811-9.57471,5.54346,0,7.30713,4.78662,7.30713,8.17041,0,.50391,0,1.00781-.03613,1.47559Zm11.41065-1.584c-.03613-3.56347-1.98-6.3706-5.50732-6.3706-3.70752,0-5.39942,2.59131-5.79542,6.3706Z"/><path class="cls-2" d="M267.99561,269.43359c-.86377,3.167-2.95118,5.72266-6.98291,5.72266-4.49952,0-7.70313-3.34766-7.70313-9.3584,0-4.93164,2.62793-9.50244,7.91895-9.50244a6.43422,6.43422,0,0,1,6.76709,5.75928h-1.83545c-.54-2.08789-1.90772-4.06787-4.96729-4.06787-3.81592,0-5.97558,3.23974-5.97558,7.73877,0,4.2832,2.01611,7.73925,5.79541,7.73925,2.62744,0,4.21142-1.332,5.14746-4.03125Z"/><path class="cls-2" d="M272.5332,256.72705c3.63526,10.29443,5.21924,14.54248,5.83106,16.48584h.03613c.71973-2.19629,2.15967-6.37109,5.65137-16.48584h1.87158l-6.76709,19.0415c-1.90771,5.32715-3.20361,6.51465-6.44336,6.51465a11.958,11.958,0,0,1-1.65576-.10742V280.376a11.80435,11.80435,0,0,0,1.61963.1084c2.59179,0,3.41992-1.26075,4.75146-4.96778l-6.875-18.78955Z"/><path class="cls-2" d="M302.80615,269.43359c-.86377,3.167-2.95117,5.72266-6.98291,5.72266-4.49951,0-7.70312-3.34766-7.70312-9.3584,0-4.93164,2.62793-9.50244,7.91894-9.50244a6.43421,6.43421,0,0,1,6.76709,5.75928H300.9707c-.54-2.08789-1.90771-4.06787-4.96728-4.06787-3.81592,0-5.97559,3.23974-5.97559,7.73877,0,4.2832,2.01612,7.73925,5.79541,7.73925,2.62744,0,4.21143-1.332,5.14746-4.03125Z"/><path class="cls-2" d="M306.98389,274.72461V248.19629h1.7998v26.52832Z"/><path class="cls-2" d="M326.78271,271.30469a20.533,20.533,0,0,0,.252,3.41992h-1.72852a11.82215,11.82215,0,0,1-.32324-2.77148c-.6123,1.332-2.19629,3.20312-5.90332,3.20312-4.17578,0-5.97559-2.69922-5.97559-5.39941,0-3.959,3.05957-5.75879,8.459-5.75879h3.41992v-1.83594c0-1.79981-.54-4.21045-4.64355-4.21045-3.63575,0-4.17579,1.90674-4.57129,3.38232h-1.79981c.21582-1.97949,1.43945-5.03857,6.40723-5.03857,4.10351,0,6.40722,1.72754,6.40722,5.687ZM325.019,265.5459h-3.52832c-3.99511,0-6.479,1.04394-6.479,4.13965,0,2.26758,1.62012,3.81543,4.14014,3.81543,5.14648,0,5.86718-3.41993,5.86718-7.30762Z"/><path class="cls-2" d="M332.72314,248.19629H334.523V259.75c.86426-1.79834,2.62793-3.45459,6.15527-3.45459,4.248,0,7.37989,3.49072,7.37989,9.03467,0,5.68652-2.80762,9.82617-7.84766,9.82617-3.02344,0-4.751-1.22363-5.6875-3.27539,0,1.15234-.03516,2.33984-.07129,2.84375H332.688c.03515-2.05176.03515-4.10352.03515-6.15527Zm13.42676,17.16992c0-4.5-2.23144-7.37939-5.65136-7.37939-4.499,0-6.083,3.05908-6.083,7.7749,0,4.24707,1.40332,7.70312,5.86718,7.70312C343.91846,273.46484,346.1499,270.44141,346.1499,265.36621Z"/><path class="cls-2" d="M352.523,274.72461V248.19629h1.7998v26.52832Z"/><path class="cls-2" d="M360.62256,265.94141c.03613,4.64355,2.376,7.52343,5.83105,7.52343a5.06888,5.06888,0,0,0,5.1836-3.38379h1.83593a6.90073,6.90073,0,0,1-7.09179,5.0752c-5.47071,0-7.59473-4.71484-7.59473-9.28613,0-5.14746,2.55567-9.57471,7.81152-9.57471,5.543,0,7.30665,4.78662,7.30665,8.17041,0,.50391,0,1.00781-.03614,1.47559Zm11.41015-1.584c-.03613-3.56347-1.97949-6.3706-5.50683-6.3706-3.708,0-5.39942,2.59131-5.7959,6.3706Z"/><path class="cls-2" d="M39.72461,315.26074V325.124H37.9248V304.35449c0-1.47558,0-3.05957-.03613-4.42773h1.76367c.07227.68457.07227,1.76367.07227,3.24023a6.61137,6.61137,0,0,1,6.335-3.67187c4.24756,0,7.19922,3.56347,7.19922,8.96289,0,6.47949-3.45557,9.89844-7.811,9.89844C42.28027,318.35645,40.62451,316.95313,39.72461,315.26074Zm11.62646-6.73047c0-4.17578-2.01562-7.30761-5.5791-7.30761-4.35547,0-6.15527,2.73632-6.15527,7.63086,0,4.82421,1.40381,7.81152,5.90332,7.81152C49.26318,316.665,51.35107,313.49707,51.35107,308.53027Z"/><path class="cls-2" d="M70.10693,314.50488a20.5878,20.5878,0,0,0,.252,3.41992H68.63135a11.81041,11.81041,0,0,1-.32373-2.77148c-.61231,1.332-2.1958,3.20313-5.90332,3.20313-4.17578,0-5.97559-2.69922-5.97559-5.39942,0-3.959,3.05957-5.75879,8.459-5.75879h3.41992V305.3623c0-1.7998-.54-4.21093-4.64356-4.21093-3.63574,0-4.17578,1.90722-4.57129,3.38281H57.293c.21582-1.97949,1.43945-5.03906,6.40723-5.03906,4.103,0,6.40673,1.72754,6.40673,5.6875Zm-1.76367-5.75879H64.81592c-3.99561,0-6.47949,1.04395-6.47949,4.13965,0,2.26758,1.62011,3.81543,4.13964,3.81543,5.14747,0,5.86719-3.41992,5.86719-7.30762Z"/><path class="cls-2" d="M89.29443,312.63379c-.86377,3.167-2.95117,5.72266-6.98291,5.72266-4.49951,0-7.70312-3.34766-7.70312-9.3584,0-4.93164,2.62793-9.50293,7.91894-9.50293a6.43454,6.43454,0,0,1,6.76709,5.75879H87.459c-.54-2.08692-1.90771-4.06739-4.96728-4.06739-3.81592,0-5.97559,3.24024-5.97559,7.73926,0,4.2832,2.01612,7.73926,5.79541,7.73926,2.62744,0,4.21143-1.332,5.14746-4.03125Z"/><path class="cls-2" d="M95.272,309.21387c1.65576-1.76367,6.69532-6.875,9.10694-9.28711h2.30371l-7.12744,7.16308,8.02734,10.835h-2.23193l-7.09082-9.68261-2.9878,2.87988v6.80273h-1.7998V291.39648H95.272Z"/><path class="cls-2" d="M123.24219,314.50488a20.51772,20.51772,0,0,0,.25244,3.41992h-1.728a11.81156,11.81156,0,0,1-.32373-2.77148c-.6123,1.332-2.1958,3.20313-5.90332,3.20313-4.17578,0-5.97559-2.69922-5.97559-5.39942,0-3.959,3.05958-5.75879,8.459-5.75879h3.41992V305.3623c0-1.7998-.54-4.21093-4.64355-4.21093-3.63575,0-4.17578,1.90722-4.57129,3.38281h-1.79981c.21582-1.97949,1.43946-5.03906,6.40723-5.03906,4.103,0,6.40674,1.72754,6.40674,5.6875Zm-1.76367-5.75879h-3.52735c-3.9956,0-6.47949,1.04395-6.47949,4.13965,0,2.26758,1.62012,3.81543,4.13965,3.81543,5.14746,0,5.86719-3.41992,5.86719-7.30762Z"/><path class="cls-2" d="M142.93408,316.70117c0,5.75879-2.55615,8.78223-7.77539,8.78223-4.6792,0-6.62305-2.627-7.05517-5.36328h1.83593c.648,2.48437,2.69971,3.67187,5.29151,3.67187,4.6792,0,5.97509-3.02344,5.97509-7.59472V314.3252c-.97167,2.33984-2.73584,3.5996-6.01123,3.5996-4.21142,0-7.45117-3.41992-7.45117-8.999,0-6.04687,3.45557-9.43066,7.70313-9.43066,3.67138,0,5.25537,1.72754,5.75927,3.168.03614-1.04395.07178-2.30371.10791-2.73633h1.6919c0,.64844-.07178,3.49219-.07178,5.21972Zm-13.28271-7.84765c0,4.28418,2.26806,7.37988,5.72363,7.37988,4.499,0,5.86719-2.98828,5.86719-7.667,0-4.752-1.43994-7.37989-5.75928-7.37989C131.34326,301.18652,129.65137,304.75,129.65137,308.85352Z"/><path class="cls-2" d="M148.83936,291.39648h1.7998v3.49122h-1.7998Zm0,8.53028h1.7998v17.998h-1.7998Z"/><path class="cls-2" d="M156.543,304.46289c0-1.584,0-3.0957-.03613-4.53613h1.76367c.07226.57617.1084,2.916.07226,3.41992a5.87811,5.87811,0,0,1,5.9751-3.85156c3.20361,0,6.04736,1.7998,6.04736,6.76758v11.6621h-1.7998v-11.375c0-3.20312-1.332-5.291-4.46338-5.291-4.28369,0-5.75928,3.56348-5.75928,7.4873v9.17871H156.543Z"/><path class="cls-2" d="M190.021,316.70117c0,5.75879-2.55616,8.78223-7.77539,8.78223-4.6792,0-6.62305-2.627-7.05518-5.36328h1.83594c.648,2.48437,2.6997,3.67187,5.2915,3.67187,4.6792,0,5.9751-3.02344,5.9751-7.59472V314.3252c-.97168,2.33984-2.73584,3.5996-6.01123,3.5996-4.21143,0-7.45117-3.41992-7.45117-8.999,0-6.04687,3.45556-9.43066,7.70312-9.43066,3.67139,0,5.25537,1.72754,5.75928,3.168.03613-1.04395.07178-2.30371.10791-2.73633h1.69189c0,.64844-.07177,3.49219-.07177,5.21972Zm-13.28272-7.84765c0,4.28418,2.26807,7.37988,5.72363,7.37988,4.499,0,5.86719-2.98828,5.86719-7.667,0-4.752-1.43994-7.37989-5.75928-7.37989C178.43018,301.18652,176.73828,304.75,176.73828,308.85352Z"/><path class="cls-2" d="M205.68213,309.1416c.03613,4.64356,2.37549,7.52344,5.83105,7.52344a5.06843,5.06843,0,0,0,5.1836-3.38379h1.83545a6.89993,6.89993,0,0,1-7.09082,5.0752c-5.4712,0-7.59522-4.71485-7.59522-9.28614,0-5.14746,2.55567-9.57519,7.811-9.57519,5.54345,0,7.30713,4.78711,7.30713,8.1709,0,.5039,0,1.00781-.03614,1.47558Zm11.41064-1.583c-.03613-3.56445-1.98-6.37207-5.50732-6.37207-3.70752,0-5.39941,2.5918-5.79541,6.37207Z"/><path class="cls-2" d="M223.35791,304.46289c0-1.584,0-3.0957-.03613-4.53613h1.76367c.07226.57617.1084,2.916.07226,3.41992a5.87811,5.87811,0,0,1,5.9751-3.85156c3.20362,0,6.04737,1.7998,6.04737,6.76758v11.6621h-1.79981v-11.375c0-3.20312-1.332-5.291-4.46338-5.291-4.28369,0-5.75928,3.56348-5.75928,7.4873v9.17871h-1.7998Z"/><path class="cls-2" d="M256.98,291.39648v21.34473c0,1.72754,0,3.38379.03613,5.18359h-1.72754c-.07226-.43164-.10839-2.124-.10839-3.02343-.89991,2.19531-2.91553,3.45508-6.04688,3.45508-4.67969,0-7.4873-3.81543-7.4873-9.21485,0-5.543,3.05957-9.64648,7.95507-9.64648,3.59961,0,5.03956,1.54785,5.57911,2.69922V291.39648Zm-13.42627,17.67383c0,4.93067,2.55567,7.59473,5.65137,7.59473,4.75146,0,6.04736-3.27539,6.04736-8.1709,0-4.64355-1.11572-7.30762-5.72314-7.30762C245.96533,301.18652,243.55371,304.03027,243.55371,309.07031Z"/><path class="cls-2" d="M262.70557,312.957c.61181,2.33985,2.26757,3.74414,5.11132,3.74414,3.20362,0,4.49952-1.47558,4.49952-3.49219,0-2.05175-.86377-3.05957-4.89551-4.03125-4.64356-1.11523-5.79541-2.51953-5.79541-4.8955,0-2.4834,1.87207-4.78711,5.93945-4.78711s6.01123,2.4834,6.29932,5.03906h-1.79981a4.24233,4.24233,0,0,0-4.57129-3.38281c-3.13183,0-4.03173,1.54687-4.03173,2.9873,0,1.65528.86377,2.4834,4.42724,3.34766,5.07569,1.22363,6.33545,2.87988,6.33545,5.5791,0,3.27539-2.66357,5.291-6.44336,5.291-4.10351,0-6.40722-2.15918-6.91113-5.39942Z"/><path class="cls-2" d="M301.51123,312.66992c0,1.76367.03565,4.57129.03565,5.25488h-1.72754a28.99647,28.99647,0,0,1-.10791-3.13183c-.75586,2.124-2.5918,3.56348-5.79541,3.56348-2.5918,0-5.90332-1.00782-5.90332-6.51465v-11.915h1.76367v11.48242c0,2.62793.82812,5.18359,4.3916,5.18359,4.03174,0,5.54346-2.26757,5.54346-7.415v-9.251h1.7998Z"/><path class="cls-2" d="M309.21631,315.26074V325.124H307.4165V304.35449c0-1.47558,0-3.05957-.03613-4.42773H309.144c.07227.68457.07227,1.76367.07227,3.24023a6.61137,6.61137,0,0,1,6.335-3.67187c4.24805,0,7.19922,3.56347,7.19922,8.96289,0,6.47949-3.45508,9.89844-7.811,9.89844C311.772,318.35645,310.11621,316.95313,309.21631,315.26074Zm11.62695-6.73047c0-4.17578-2.0166-7.30761-5.57959-7.30761-4.35547,0-6.15527,2.73632-6.15527,7.63086,0,4.82421,1.40381,7.81152,5.90332,7.81152C318.75537,316.665,320.84326,313.49707,320.84326,308.53027Z"/><path class="cls-2" d="M336.61182,291.39648h1.7998v3.49122h-1.7998Zm0,8.53028h1.7998v17.998h-1.7998Z"/><path class="cls-2" d="M344.31592,304.46289c0-1.584,0-3.0957-.03516-4.53613h1.76367c.07129.57617.10743,2.916.07129,3.41992a5.87924,5.87924,0,0,1,5.97559-3.85156c3.2041,0,6.04687,1.7998,6.04687,6.76758v11.6621h-1.79882v-11.375c0-3.20312-1.332-5.291-4.46387-5.291-4.2832,0-5.75977,3.56348-5.75977,7.4873v9.17871h-1.7998Z"/><path class="cls-2" d="M373.40283,317.9248V291.39648h1.79981V317.9248Z"/><path class="cls-2" d="M393.20166,314.50488a20.64337,20.64337,0,0,0,.252,3.41992h-1.72754a11.85726,11.85726,0,0,1-.32421-2.77148c-.61133,1.332-2.19532,3.20313-5.90332,3.20313-4.17481,0-5.97461-2.69922-5.97461-5.39942,0-3.959,3.05957-5.75879,8.459-5.75879h3.41895V305.3623c0-1.7998-.54-4.21093-4.64356-4.21093-3.63476,0-4.1748,1.90722-4.57129,3.38281h-1.7998c.21582-1.97949,1.44043-5.03906,6.40722-5.03906,4.10352,0,6.40723,1.72754,6.40723,5.6875Zm-1.76367-5.75879h-3.52735c-3.99511,0-6.47949,1.04395-6.47949,4.13965,0,2.26758,1.62012,3.81543,4.13965,3.81543,5.14746,0,5.86719-3.41992,5.86719-7.30762Z"/><path class="cls-2" d="M399.14307,304.46289c0-1.584,0-3.0957-.03516-4.53613h1.76367c.07129.57617.10742,2.916.07129,3.41992a5.87924,5.87924,0,0,1,5.97559-3.85156c3.2041,0,6.04687,1.7998,6.04687,6.76758v11.6621h-1.7998v-11.375c0-3.20312-1.33106-5.291-4.46289-5.291-4.28321,0-5.75977,3.56348-5.75977,7.4873v9.17871h-1.7998Z"/><path class="cls-2" d="M432.76514,291.39648v21.34473c0,1.72754,0,3.38379.03613,5.18359h-1.72754c-.07227-.43164-.1084-2.124-.1084-3.02343-.89941,2.19531-2.915,3.45508-6.04687,3.45508-4.67969,0-7.48731-3.81543-7.48731-9.21485,0-5.543,3.05957-9.64648,7.95508-9.64648,3.59961,0,5.03906,1.54785,5.5791,2.69922V291.39648Zm-13.42578,17.67383c0,4.93067,2.55566,7.59473,5.65136,7.59473,4.751,0,6.04688-3.27539,6.04688-8.1709,0-4.64355-1.11621-7.30762-5.72364-7.30762C421.75049,301.18652,419.33936,304.03027,419.33936,309.07031Z"/><path class="cls-2" d="M439.5708,317.9248V301.61914h-3.0957v-1.69238h3.0957v-2.55567c0-3.02343.86328-6.335,4.89551-6.335a6.75249,6.75249,0,0,1,1.76367.252v1.72754a8.967,8.967,0,0,0-1.94434-.21583c-2.123,0-2.915,1.51172-2.915,4.64356v2.4834h3.92285v1.69238h-3.92285V317.9248Z"/><path class="cls-2" d="M448.605,291.39648h1.79981v3.49122H448.605Zm0,8.53028h1.79981v17.998H448.605Z"/><path class="cls-2" d="M456.30811,317.9248V291.39648h1.7998V317.9248Z"/><path class="cls-2" d="M464.01221,317.9248V291.39648h1.7998V317.9248Z"/><path class="cls-2" d="M471.53564,312.957c.61231,2.33985,2.26856,3.74414,5.11231,3.74414,3.20312,0,4.499-1.47558,4.499-3.49219,0-2.05175-.86426-3.05957-4.89551-4.03125-4.64355-1.11523-5.79492-2.51953-5.79492-4.8955,0-2.4834,1.8711-4.78711,5.93848-4.78711,4.06836,0,6.01172,2.4834,6.2998,5.03906H480.895a4.24233,4.24233,0,0,0-4.57129-3.38281c-3.13184,0-4.03125,1.54687-4.03125,2.9873,0,1.65528.86328,2.4834,4.42676,3.34766,5.07519,1.22363,6.335,2.87988,6.335,5.5791,0,3.27539-2.66309,5.291-6.44238,5.291-4.10352,0-6.40723-2.15918-6.91114-5.39942Z"/><path class="cls-3" d="M-207.89326,943.0618c-142.5,0-258-115.5-258-258a257.961,257.961,0,0,1,75.6-182.4c100.8-100.8,264.1-100.8,364.9,0s100.8,264.1,0,364.9A256.49775,256.49775,0,0,1-207.89326,943.0618Z"/><polygon class="cls-4" points="143.701 57.152 143.701 222.539 177.84 210.756 322.449 212.783 349.478 222.539 355.865 57.152 323.8 70.878 173.786 72.229 143.701 57.152"/><ellipse class="cls-5" cx="252.45214" cy="143.49034" rx="39.89505" ry="23.64643" transform="translate(-37.5551 158.23346) rotate(-32.52355)"/><ellipse class="cls-6" cx="249.94045" cy="139.78738" rx="38.70904" ry="22.94346" transform="translate(-35.95813 156.30233) rotate(-32.52355)"/><ellipse class="cls-5" cx="247.11425" cy="136.20067" rx="39.89505" ry="23.64643" transform="translate(-34.47298 154.22033) rotate(-32.52355)"/></svg>