<svg id="Layer_1" data-name="Layer 1" xmlns="http://www.w3.org/2000/svg" viewBox="0 0 516.1 516.0011"><defs><style>.cls-1{fill:#2e3192;}.cls-2{fill:#fff;}.cls-3{fill:#201e1f;}.cls-4{fill:#f4fffd;}</style></defs><title>oreo1</title><path class="cls-1" d="M258,515.99945c-142.5,0-258-115.5-258-258a257.961,257.961,0,0,1,75.6-182.4c100.8-100.8,264.1-100.8,364.9,0s100.8,264.1,0,364.9A256.49776,256.49776,0,0,1,258,515.99945Z"/><path class="cls-2" d="M258,.5C400.3.6,515.5,116,515.4,258.2a257.624,257.624,0,0,1-157.2,237C227.1,550.5,76.1,489,20.8,357.9-34.4,227,26.9,76,157.7,20.6A258.09883,258.09883,0,0,1,258,.5m0-1C115.2-.5-.5,115.2-.5,258S115.2,516.5,258,516.5,516.5,400.8,516.5,258,400.8-.5,258-.5Z"/><path class="cls-2" d="M131.16211,249.52832h8.35107c6.91114,0,11.69873,4.82373,11.69873,12.38184,0,7.52343-4.67968,12.81445-11.73486,12.81445h-8.31494ZM133.106,272.9248h6.08349c6.65918,0,9.93457-4.67968,9.93457-10.90625,0-5.54345-2.95166-10.69042-9.93457-10.69042H133.106Z"/><path class="cls-2" d="M156.57861,265.94141c.03614,4.64355,2.37549,7.52343,5.83106,7.52343a5.06841,5.06841,0,0,0,5.18359-3.38379h1.83545a6.89992,6.89992,0,0,1-7.09082,5.0752c-5.47119,0-7.59521-4.71484-7.59521-9.28613,0-5.14746,2.55566-9.57471,7.811-9.57471,5.54346,0,7.30713,4.78662,7.30713,8.17041,0,.50391,0,1.00781-.03613,1.47559Zm11.41065-1.584c-.03613-3.56347-1.98-6.3706-5.50733-6.3706-3.70752,0-5.39941,2.59131-5.79541,6.3706Z"/><path class="cls-2" d="M174.25439,261.37012c0-1.54785,0-3.23877-.03613-4.64307h1.76367c.03614.61231.1084,2.15967.07227,3.20361a5.62959,5.62959,0,0,1,5.39941-3.63525,5.10869,5.10869,0,0,1,5.21924,3.563,6.12468,6.12468,0,0,1,5.86719-3.563c2.77148,0,5.65137,1.584,5.65137,6.58643v11.84277H196.3916V263.09766c0-2.41114-.86377-5.03858-4.21142-5.03858-3.4917,0-5.0752,2.80713-5.0752,6.29834v10.36719h-1.76416V263.13379c0-2.62695-.7915-5.07471-4.10352-5.07471-3.49121,0-5.1831,3.09522-5.1831,6.76709v9.89844h-1.79981Z"/><path class="cls-2" d="M216.22852,271.30469a20.51782,20.51782,0,0,0,.25244,3.41992h-1.728a11.81156,11.81156,0,0,1-.32373-2.77148c-.61231,1.332-2.1958,3.20312-5.90332,3.20312-4.17578,0-5.97559-2.69922-5.97559-5.39941,0-3.959,3.05957-5.75879,8.459-5.75879h3.41992v-1.83594c0-1.79981-.54-4.21045-4.64356-4.21045-3.63574,0-4.17578,1.90674-4.57128,3.38232h-1.79981c.21582-1.97949,1.43945-5.03857,6.40723-5.03857,4.103,0,6.40674,1.72754,6.40674,5.687Zm-1.76368-5.75879H210.9375c-3.99561,0-6.47949,1.04394-6.47949,4.13965,0,2.26758,1.62012,3.81543,4.13965,3.81543,5.14746,0,5.86718-3.41993,5.86718-7.30762Z"/><path class="cls-2" d="M222.16992,261.2627c0-1.584,0-3.09522-.03613-4.53565h1.76367c.07227.57617.1084,2.91553.07227,3.41943a5.87837,5.87837,0,0,1,5.97509-3.85107c3.20362,0,6.04737,1.7998,6.04737,6.76709v11.66211h-1.79981v-11.375c0-3.20313-1.332-5.29053-4.46338-5.29053-4.28369,0-5.75927,3.563-5.75927,7.48682v9.17871h-1.79981Z"/><path class="cls-2" d="M255.7915,248.19629V269.541c0,1.72851,0,3.38378.03614,5.18359H254.1001c-.07227-.43164-.1084-2.124-.1084-3.02344-.8999,2.19531-2.91553,3.45508-6.04688,3.45508-4.67968,0-7.4873-3.81543-7.4873-9.21484,0-5.543,3.05957-9.646,7.95508-9.646,3.59961,0,5.03955,1.54785,5.5791,2.69873V248.19629Zm-13.42627,17.67383c0,4.93066,2.55567,7.59472,5.65137,7.59472,4.75147,0,6.04736-3.27539,6.04736-8.17089,0-4.64356-1.11572-7.30713-5.72314-7.30713C244.77686,257.98682,242.36523,260.83008,242.36523,265.87012Z"/><path class="cls-2" d="M271.5249,274.72461V258.41943h-3.0957v-1.69238h3.0957v-2.55566c0-3.02344.86426-6.335,4.89551-6.335a6.72024,6.72024,0,0,1,1.76367.25195v1.728a8.933,8.933,0,0,0-1.94385-.21631c-2.12353,0-2.91552,1.51172-2.91552,4.64355v2.4834h3.92383v1.69238h-3.92383v16.30518Z"/><path class="cls-2" d="M294.6709,265.68945c0,5.00391-2.77149,9.4668-8.13477,9.4668-4.85937,0-7.8833-3.99512-7.8833-9.43066,0-5.14746,2.84375-9.43018,8.063-9.43018C291.50342,256.29541,294.6709,260.03809,294.6709,265.68945Zm-14.11035.03614c0,4.2832,2.30371,7.73925,6.11914,7.73925,3.88769,0,6.08349-3.2041,6.08349-7.73925,0-4.24707-2.15966-7.73877-6.15527-7.73877C282.50439,257.98682,280.56055,261.40625,280.56055,265.72559Z"/><path class="cls-2" d="M299.13672,261.62207c0-3.02344-.03613-4.31885-.03613-4.895h1.76367c.03613.57617.07226,1.72852.07226,4.03174a6.81785,6.81785,0,0,1,6.26319-4.46338v1.94336c-3.74366.252-6.26319,2.84326-6.26319,7.12744v9.3584h-1.7998Z"/><path class="cls-2" d="M334.73877,265.68945c0,5.00391-2.77246,9.4668-8.13574,9.4668-4.85938,0-7.88282-3.99512-7.88282-9.43066,0-5.14746,2.84375-9.43018,8.06348-9.43018C331.5708,256.29541,334.73877,260.03809,334.73877,265.68945Zm-14.11035.03614c0,4.2832,2.30371,7.73925,6.11914,7.73925,3.88769,0,6.083-3.2041,6.083-7.73925,0-4.24707-2.16016-7.73877-6.15528-7.73877C322.57178,257.98682,320.62842,261.40625,320.62842,265.72559Z"/><path class="cls-2" d="M339.20264,261.62207c0-3.02344-.03516-4.31885-.03516-4.895h1.76367c.03614.57617.07129,1.72852.07129,4.03174a6.818,6.818,0,0,1,6.26367-4.46338v1.94336c-3.74316.252-6.26367,2.84326-6.26367,7.12744v9.3584h-1.7998Z"/><path class="cls-2" d="M350.9751,265.94141c.03613,4.64355,2.376,7.52343,5.83105,7.52343a5.06888,5.06888,0,0,0,5.1836-3.38379h1.83593a6.90074,6.90074,0,0,1-7.09179,5.0752c-5.47071,0-7.59473-4.71484-7.59473-9.28613,0-5.14746,2.55566-9.57471,7.81152-9.57471,5.543,0,7.30664,4.78662,7.30664,8.17041,0,.50391,0,1.00781-.03613,1.47559Zm11.41015-1.584c-.03613-3.56347-1.97949-6.3706-5.50683-6.3706-3.708,0-5.39942,2.59131-5.79492,6.3706Z"/><path class="cls-2" d="M383.40967,265.68945c0,5.00391-2.77246,9.4668-8.13574,9.4668-4.85938,0-7.88282-3.99512-7.88282-9.43066,0-5.14746,2.84375-9.43018,8.06348-9.43018C380.2417,256.29541,383.40967,260.03809,383.40967,265.68945Zm-14.11035.03614c0,4.2832,2.30371,7.73925,6.11914,7.73925,3.88769,0,6.083-3.2041,6.083-7.73925,0-4.24707-2.16015-7.73877-6.15527-7.73877C371.24268,257.98682,369.29932,261.40625,369.29932,265.72559Z"/><path class="cls-2" d="M388.23389,269.75684c.6123,2.33984,2.26855,3.74414,5.11132,3.74414,3.20411,0,4.5-1.47559,4.5-3.49219,0-2.05176-.86425-3.05957-4.8955-4.03125-4.64356-1.11524-5.79492-2.51953-5.79492-4.89551,0-2.4834,1.87109-4.78662,5.93847-4.78662,4.06836,0,6.01172,2.48291,6.29981,5.03857h-1.79981a4.242,4.242,0,0,0-4.57129-3.38232c-3.13183,0-4.03125,1.54639-4.03125,2.98682,0,1.65527.86328,2.4834,4.42676,3.34765,5.0752,1.22364,6.335,2.87989,6.335,5.5791,0,3.2754-2.66308,5.291-6.44238,5.291-4.10352,0-6.40723-2.15918-6.91113-5.39941Z"/><path class="cls-1" d="M-207.89326,943.0618c-142.5,0-258-115.5-258-258a257.961,257.961,0,0,1,75.6-182.4c100.8-100.8,264.1-100.8,364.9,0s100.8,264.1,0,364.9A256.49775,256.49775,0,0,1-207.89326,943.0618Z"/><ellipse class="cls-3" cx="240.13476" cy="180.85928" rx="41.20006" ry="69.51066" transform="matrix(0.02354, -0.99972, 0.99972, 0.02354, 53.67301, 416.67023)"/><ellipse class="cls-4" cx="240.09716" cy="173.06341" rx="39.97526" ry="67.44423" transform="matrix(0.02354, -0.99972, 0.99972, 0.02354, 61.43, 409.02027)"/><ellipse class="cls-3" cx="239.49168" cy="165.13031" rx="41.20006" ry="69.51066" transform="translate(68.76969 400.66859) rotate(-88.65118)"/><ellipse class="cls-3" cx="241.59012" cy="160.48425" rx="41.20006" ry="69.51066" transform="translate(75.4635 398.22976) rotate(-88.65118)"/><ellipse class="cls-4" cx="241.55252" cy="152.68838" rx="39.97526" ry="67.44423" transform="translate(83.22049 390.57981) rotate(-88.65118)"/><ellipse class="cls-3" cx="240.94704" cy="144.75527" rx="41.20006" ry="69.51066" transform="translate(90.56017 382.22813) rotate(-88.65118)"/><ellipse class="cls-3" cx="243.04548" cy="135.74314" rx="41.20006" ry="69.51066" transform="translate(101.61885 375.526) rotate(-88.65118)"/><ellipse class="cls-4" cx="243.00788" cy="127.94727" rx="39.97526" ry="67.44423" transform="matrix(0.02354, -0.99972, 0.99972, 0.02354, 109.37584, 367.87604)"/><ellipse class="cls-3" cx="242.4024" cy="120.01417" rx="41.20006" ry="69.51066" transform="translate(116.71553 359.52436) rotate(-88.65118)"/><ellipse class="cls-3" cx="307.48743" cy="135.15545" rx="41.20006" ry="69.51066" transform="translate(-26.38222 171.85111) rotate(-30)"/><ellipse class="cls-4" cx="314.12567" cy="131.06756" rx="39.97526" ry="67.44423" transform="translate(-23.44892 174.62256) rotate(-30)"/><ellipse class="cls-3" cx="320.58567" cy="126.42329" rx="41.20006" ry="69.51066" transform="matrix(0.86603, -0.5, 0.5, 0.86603, -20.26131, 177.23034)"/></svg>