<svg id="Layer_1" data-name="Layer 1" xmlns="http://www.w3.org/2000/svg" viewBox="0 0 227.34355 180.71602"><defs><style>.cls-1{fill:#201e1f;}.cls-2{fill:#f4fffd;}</style></defs><title>oreo</title><ellipse class="cls-1" cx="79.57097" cy="133.95255" rx="46.73887" ry="78.85545" transform="translate(-56.2175 210.34833) rotate(-88.65118)"/><ellipse class="cls-2" cx="79.52831" cy="125.10862" rx="45.34941" ry="76.51122" transform="translate(-47.41768 201.66994) rotate(-88.65118)"/><ellipse class="cls-1" cx="78.84143" cy="116.10902" rx="46.73887" ry="78.85545" transform="translate(-39.09127 192.19549) rotate(-88.65118)"/><ellipse class="cls-1" cx="81.22198" cy="110.83836" rx="46.73887" ry="78.85545" transform="translate(-31.49757 189.42879) rotate(-88.65118)"/><ellipse class="cls-2" cx="81.17932" cy="101.99444" rx="45.34941" ry="76.51122" transform="matrix(0.02354, -0.99972, 0.99972, 0.02354, -22.69775, 180.7504)"/><ellipse class="cls-1" cx="80.49245" cy="92.99483" rx="46.73887" ry="78.85545" transform="translate(-14.37134 171.27595) rotate(-88.65118)"/><ellipse class="cls-1" cx="82.873" cy="82.77114" rx="46.73887" ry="78.85545" transform="translate(-1.82597 163.6728) rotate(-88.65118)"/><ellipse class="cls-2" cx="82.83034" cy="73.92721" rx="45.34941" ry="76.51122" transform="translate(6.97385 154.99441) rotate(-88.65118)"/><ellipse class="cls-1" cx="82.14346" cy="64.92761" rx="46.73887" ry="78.85545" transform="translate(15.30025 145.51996) rotate(-88.65118)"/><ellipse class="cls-1" cx="155.97832" cy="82.10444" rx="46.73887" ry="78.85545" transform="matrix(0.86603, -0.5, 0.5, 0.86603, -20.15509, 88.98907)"/><ellipse class="cls-2" cx="163.50897" cy="77.46698" rx="45.34941" ry="76.51122" transform="translate(-16.82744 92.13309) rotate(-30)"/><ellipse class="cls-1" cx="170.83744" cy="72.19836" rx="46.73887" ry="78.85545" transform="translate(-13.2113 95.09146) rotate(-30)"/></svg>