<svg id="Layer_1" data-name="Layer 1" xmlns="http://www.w3.org/2000/svg" viewBox="0 0 516.1 516.0011"><defs><style>.cls-1{fill:#2e3192;}.cls-2{fill:#fff;}.cls-3,.cls-5,.cls-6{fill:#231f20;}.cls-3,.cls-6{stroke:#231f20;}.cls-3,.cls-4,.cls-5,.cls-6{stroke-miterlimit:10;}.cls-3{stroke-width:7px;}.cls-4{fill:none;}.cls-4,.cls-5{stroke:#ec1c24;stroke-width:13px;}.cls-6{stroke-width:5px;}</style></defs><title>oreo3</title><path class="cls-1" d="M258,515.99945c-142.5,0-258-115.5-258-258a257.961,257.961,0,0,1,75.6-182.4c100.8-100.8,264.1-100.8,364.9,0s100.8,264.1,0,364.9A256.49776,256.49776,0,0,1,258,515.99945Z"/><path class="cls-2" d="M258,.5C400.3.6,515.5,116,515.4,258.2a257.624,257.624,0,0,1-157.2,237C227.1,550.5,76.1,489,20.8,357.9-34.4,227,26.9,76,157.7,20.6A258.09883,258.09883,0,0,1,258,.5m0-1C115.2-.5-.5,115.2-.5,258S115.2,516.5,258,516.5,516.5,400.8,516.5,258,400.8-.5,258-.5Z"/><circle class="cls-2" cx="257.13514" cy="122.54272" r="84.40426"/><path class="cls-2" d="M82.13086,249.52832h8.35107c6.91114,0,11.69873,4.82373,11.69873,12.38184,0,7.52343-4.67968,12.81445-11.73486,12.81445H82.13086Zm1.94385,23.39648H90.1582c6.65918,0,9.93457-4.67968,9.93457-10.90625,0-5.54345-2.95166-10.69042-9.93457-10.69042H84.07471Z"/><path class="cls-2" d="M107.439,248.19629h1.79981v3.4917H107.439Zm0,8.53076h1.79981v17.99756H107.439Z"/><path class="cls-2" d="M114.96289,269.75684c.61182,2.33984,2.26758,3.74414,5.11133,3.74414,3.20361,0,4.49951-1.47559,4.49951-3.49219,0-2.05176-.86377-3.05957-4.89551-4.03125-4.64355-1.11524-5.79541-2.51953-5.79541-4.89551,0-2.4834,1.87207-4.78662,5.93946-4.78662s6.01123,2.48291,6.29931,5.03857h-1.7998a4.242,4.242,0,0,0-4.57129-3.38232c-3.13184,0-4.03174,1.54639-4.03174,2.98682,0,1.65527.86377,2.4834,4.42725,3.34765,5.07568,1.22364,6.33545,2.87989,6.33545,5.5791,0,3.2754-2.66358,5.291-6.44336,5.291-4.10352,0-6.40723-2.15918-6.91114-5.39941Z"/><path class="cls-2" d="M132.49463,272.06055v9.86328h-1.79981V261.1543c0-1.47559,0-3.05909-.03613-4.42725h1.76367c.07227.68457.07227,1.76367.07227,3.23975a6.6118,6.6118,0,0,1,6.335-3.67139c4.24756,0,7.19922,3.563,7.19922,8.9624,0,6.47949-3.45557,9.89844-7.811,9.89844C135.05029,275.15625,133.39453,273.75293,132.49463,272.06055Zm11.62646-6.73047c0-4.17578-2.01562-7.30713-5.5791-7.30713-4.35547,0-6.15527,2.73584-6.15527,7.63037,0,4.82422,1.40381,7.81152,5.90332,7.81152C142.0332,273.46484,144.12109,270.29688,144.12109,265.33008Z"/><path class="cls-2" d="M150.53076,274.72461V248.19629h1.79981v26.52832Z"/><path class="cls-2" d="M170.32861,271.30469a20.58791,20.58791,0,0,0,.252,3.41992H168.853a11.81041,11.81041,0,0,1-.32373-2.77148c-.61231,1.332-2.1958,3.20312-5.90332,3.20312-4.17578,0-5.97559-2.69922-5.97559-5.39941,0-3.959,3.05957-5.75879,8.459-5.75879h3.41992v-1.83594c0-1.79981-.54-4.21045-4.64356-4.21045-3.63574,0-4.17578,1.90674-4.57129,3.38232h-1.7998c.21582-1.97949,1.43945-5.03857,6.40723-5.03857,4.103,0,6.40673,1.72754,6.40673,5.687Zm-1.76367-5.75879H165.0376c-3.99561,0-6.47949,1.04394-6.47949,4.13965,0,2.26758,1.62011,3.81543,4.13964,3.81543,5.14746,0,5.86719-3.41993,5.86719-7.30762Z"/><path class="cls-2" d="M189.5166,269.43359c-.86377,3.167-2.95166,5.72266-6.98291,5.72266-4.49951,0-7.70312-3.34766-7.70312-9.3584,0-4.93164,2.62793-9.50244,7.91894-9.50244a6.43421,6.43421,0,0,1,6.76709,5.75928h-1.83545c-.54-2.08789-1.90771-4.06787-4.96728-4.06787-3.81592,0-5.97559,3.23974-5.97559,7.73877,0,4.2832,2.01611,7.73925,5.79541,7.73925,2.62744,0,4.21143-1.332,5.14746-4.03125Z"/><path class="cls-2" d="M194.27,265.94141c.03613,4.64355,2.37549,7.52343,5.83105,7.52343a5.06843,5.06843,0,0,0,5.1836-3.38379h1.83545a6.89993,6.89993,0,0,1-7.09082,5.0752c-5.47119,0-7.59522-4.71484-7.59522-9.28613,0-5.14746,2.55567-9.57471,7.811-9.57471,5.54345,0,7.30713,4.78662,7.30713,8.17041,0,.50391,0,1.00781-.03614,1.47559Zm11.41064-1.584c-.03613-3.56347-1.98-6.3706-5.50732-6.3706-3.70752,0-5.39941,2.59131-5.79541,6.3706Z"/><path class="cls-2" d="M211.9458,261.37012c0-1.54785,0-3.23877-.03613-4.64307h1.76367c.03613.61231.1084,2.15967.07227,3.20361a5.62958,5.62958,0,0,1,5.39941-3.63525,5.10869,5.10869,0,0,1,5.21924,3.563,6.12467,6.12467,0,0,1,5.86719-3.563c2.77148,0,5.65136,1.584,5.65136,6.58643v11.84277H234.083V263.09766c0-2.41114-.86377-5.03858-4.21143-5.03858-3.4917,0-5.07519,2.80713-5.07519,6.29834v10.36719h-1.76416V263.13379c0-2.62695-.79151-5.07471-4.10352-5.07471-3.49121,0-5.1831,3.09522-5.1831,6.76709v9.89844H211.9458Z"/><path class="cls-2" d="M242.18555,265.94141c.03613,4.64355,2.37549,7.52343,5.83105,7.52343a5.06843,5.06843,0,0,0,5.1836-3.38379h1.83544a6.89991,6.89991,0,0,1-7.09082,5.0752c-5.47119,0-7.59521-4.71484-7.59521-9.28613,0-5.14746,2.55566-9.57471,7.811-9.57471,5.54346,0,7.30713,4.78662,7.30713,8.17041,0,.50391,0,1.00781-.03613,1.47559Zm11.41064-1.584c-.03613-3.56347-1.98-6.3706-5.50732-6.3706-3.70752,0-5.39942,2.59131-5.79541,6.3706Z"/><path class="cls-2" d="M259.86182,261.2627c0-1.584,0-3.09522-.03614-4.53565h1.76368c.07226.57617.10839,2.91553.07226,3.41943a5.87839,5.87839,0,0,1,5.9751-3.85107c3.20361,0,6.04736,1.7998,6.04736,6.76709v11.66211h-1.7998v-11.375c0-3.20313-1.332-5.29053-4.46338-5.29053-4.28369,0-5.75928,3.563-5.75928,7.48682v9.17871h-1.7998Z"/><path class="cls-2" d="M276.78174,256.72705h3.34765v-5.61523h1.79981v5.61523h4.2832v1.69238h-4.2832v11.69776c0,2.01562.43164,3.168,2.15967,3.168a6.77725,6.77725,0,0,0,1.87158-.2168v1.584a6.31883,6.31883,0,0,1-2.23145.32422c-2.30371,0-3.59961-1.15136-3.59961-4.03125V258.41943h-3.34765Z"/><path class="cls-2" d="M313.82324,265.68945c0,5.00391-2.77148,9.4668-8.13476,9.4668-4.85938,0-7.8833-3.99512-7.8833-9.43066,0-5.14746,2.84375-9.43018,8.063-9.43018C310.65576,256.29541,313.82324,260.03809,313.82324,265.68945Zm-14.11035.03614c0,4.2832,2.30371,7.73925,6.11914,7.73925,3.8877,0,6.0835-3.2041,6.0835-7.73925,0-4.24707-2.15967-7.73877-6.15528-7.73877C301.65674,257.98682,299.71289,261.40625,299.71289,265.72559Z"/><path class="cls-2" d="M319.04443,274.72461V258.41943h-3.09619v-1.69238h3.09619v-2.55566c0-3.02344.86328-6.335,4.89551-6.335a6.73228,6.73228,0,0,1,1.76367.25195v1.728a8.93736,8.93736,0,0,0-1.94433-.21631c-2.123,0-2.915,1.51172-2.915,4.64355v2.4834h3.92285v1.69238h-3.92285v16.30518Z"/><path class="cls-2" d="M336.97119,261.2627c0-1.584,0-3.09522-.03515-4.53565h1.76367c.07129.57617.10742,2.91553.07129,3.41943a5.87951,5.87951,0,0,1,5.97558-3.85107c3.2041,0,6.04688,1.7998,6.04688,6.76709v11.66211h-1.79981v-11.375c0-3.20313-1.33105-5.29053-4.46289-5.29053-4.2832,0-5.75976,3.563-5.75976,7.48682v9.17871h-1.79981Z"/><path class="cls-2" d="M368.82959,271.30469a20.64348,20.64348,0,0,0,.252,3.41992H367.354a11.85726,11.85726,0,0,1-.32421-2.77148c-.61133,1.332-2.19532,3.20312-5.90333,3.20312-4.1748,0-5.9746-2.69922-5.9746-5.39941,0-3.959,3.05957-5.75879,8.459-5.75879h3.41895v-1.83594c0-1.79981-.54-4.21045-4.64356-4.21045-3.63477,0-4.1748,1.90674-4.57129,3.38232h-1.7998c.21582-1.97949,1.44043-5.03857,6.40722-5.03857,4.10352,0,6.40723,1.72754,6.40723,5.687Zm-1.76367-5.75879h-3.52735c-3.99511,0-6.47949,1.04394-6.47949,4.13965,0,2.26758,1.62012,3.81543,4.13965,3.81543,5.14746,0,5.86719-3.41993,5.86719-7.30762Z"/><path class="cls-2" d="M371.89209,256.72705h3.34766v-5.61523h1.7998v5.61523h4.2832v1.69238h-4.2832v11.69776c0,2.01562.43164,3.168,2.15918,3.168a6.78277,6.78277,0,0,0,1.87207-.2168v1.584a6.31712,6.31712,0,0,1-2.23144.32422c-2.30372,0-3.59961-1.15136-3.59961-4.03125V258.41943h-3.34766Z"/><path class="cls-2" d="M384.99463,248.19629h1.7998v3.4917h-1.7998Zm0,8.53076h1.7998v17.99756h-1.7998Z"/><path class="cls-2" d="M392.41064,256.72705c2.916,8.24268,4.93165,13.85791,5.61524,16.16162h.03613c.39649-1.332,2.41211-6.69531,5.90332-16.16162h1.90821l-6.80372,17.99756h-2.15918l-6.40722-17.99756Z"/><path class="cls-2" d="M409.79834,265.94141c.03613,4.64355,2.376,7.52343,5.83105,7.52343a5.06888,5.06888,0,0,0,5.1836-3.38379h1.83594a6.90075,6.90075,0,0,1-7.0918,5.0752c-5.4707,0-7.59473-4.71484-7.59473-9.28613,0-5.14746,2.55567-9.57471,7.81153-9.57471,5.543,0,7.30664,4.78662,7.30664,8.17041,0,.50391,0,1.00781-.03614,1.47559Zm11.41016-1.584c-.03614-3.56347-1.9795-6.3706-5.50684-6.3706-3.708,0-5.39941,2.59131-5.7959,6.3706Z"/><path class="cls-2" d="M427.90576,269.75684c.61231,2.33984,2.26856,3.74414,5.11133,3.74414,3.2041,0,4.5-1.47559,4.5-3.49219,0-2.05176-.86426-3.05957-4.89551-4.03125-4.64355-1.11524-5.79492-2.51953-5.79492-4.89551,0-2.4834,1.87109-4.78662,5.93848-4.78662,4.06836,0,6.01172,2.48291,6.2998,5.03857h-1.7998a4.242,4.242,0,0,0-4.57129-3.38232c-3.13184,0-4.03125,1.54639-4.03125,2.98682,0,1.65527.86328,2.4834,4.42676,3.34765,5.07519,1.22364,6.335,2.87989,6.335,5.5791,0,3.2754-2.66309,5.291-6.44239,5.291-4.10351,0-6.40722-2.15918-6.91113-5.39941Z"/><path class="cls-2" d="M117.84033,301.72656l-6.26318,9.71875c-3.05957,4.71582-5.25537,6.83985-9.28662,6.83985a6.39162,6.39162,0,0,1-6.51514-6.40723c0-3.05957,1.40381-5.39941,6.731-8.2793,3.67187-2.376,5.03955-3.38379,5.03955-5.6875a3.6439,3.6439,0,0,0-3.67139-3.88769c-2.26806,0-3.85156,1.40429-3.85156,4.03222,0,1.61914,1.11572,3.13086,3.27539,5.18262l14.90234,14.68652H115.501l-13.60645-13.42675c-2.33984-2.23145-3.70752-3.88672-3.70752-6.44239a5.48942,5.48942,0,0,1,5.75928-5.6875,5.35279,5.35279,0,0,1,5.47119,5.543c0,2.44825-1.33154,4.03125-5.75928,6.76758-5.07519,2.87988-5.939,4.64356-5.939,7.05469a4.84432,4.84432,0,0,0,4.57129,4.78711c2.91552,0,4.85937-1.00781,8.09912-6.19043l5.36328-8.60352Z"/><path class="cls-2" d="M132.42285,309.1416c.03613,4.64356,2.37549,7.52344,5.83106,7.52344a5.06841,5.06841,0,0,0,5.18359-3.38379H145.273a6.89992,6.89992,0,0,1-7.09082,5.0752c-5.47119,0-7.59522-4.71485-7.59522-9.28614,0-5.14746,2.55567-9.57519,7.811-9.57519,5.54346,0,7.30713,4.78711,7.30713,8.1709,0,.5039,0,1.00781-.03613,1.47558Zm11.41065-1.583c-.03614-3.56445-1.98-6.37207-5.50733-6.37207-3.70752,0-5.39941,2.5918-5.79541,6.37207Z"/><path class="cls-2" d="M150.09863,304.46289c0-1.584,0-3.0957-.03613-4.53613h1.76367c.07227.57617.1084,2.916.07227,3.41992a5.8781,5.8781,0,0,1,5.9751-3.85156c3.20361,0,6.04736,1.7998,6.04736,6.76758v11.6621h-1.79981v-11.375c0-3.20312-1.332-5.291-4.46338-5.291-4.28369,0-5.75927,3.56348-5.75927,7.4873v9.17871h-1.79981Z"/><path class="cls-2" d="M183.72021,291.39648v21.34473c0,1.72754,0,3.38379.03614,5.18359h-1.72754c-.07227-.43164-.1084-2.124-.1084-3.02343-.8999,2.19531-2.91553,3.45508-6.04687,3.45508-4.67969,0-7.48731-3.81543-7.48731-9.21485,0-5.543,3.05957-9.64648,7.95508-9.64648,3.59961,0,5.03955,1.54785,5.5791,2.69922V291.39648ZM170.294,309.07031c0,4.93067,2.55566,7.59473,5.65136,7.59473,4.75147,0,6.04737-3.27539,6.04737-8.1709,0-4.64355-1.11573-7.30762-5.72315-7.30762C172.70557,301.18652,170.294,304.03027,170.294,309.07031Z"/><path class="cls-2" d="M201.7207,314.50488a20.51884,20.51884,0,0,0,.25244,3.41992h-1.728a11.81041,11.81041,0,0,1-.32373-2.77148c-.61231,1.332-2.1958,3.20313-5.90332,3.20313-4.17578,0-5.97559-2.69922-5.97559-5.39942,0-3.959,3.05957-5.75879,8.459-5.75879h3.41993V305.3623c0-1.7998-.54-4.21093-4.64356-4.21093-3.63574,0-4.17578,1.90722-4.57129,3.38281h-1.7998c.21582-1.97949,1.43945-5.03906,6.40722-5.03906,4.103,0,6.40674,1.72754,6.40674,5.6875Zm-1.76367-5.75879h-3.52734c-3.99561,0-6.47949,1.04395-6.47949,4.13965,0,2.26758,1.62011,3.81543,4.13964,3.81543,5.14746,0,5.86719-3.41992,5.86719-7.30762Z"/><path class="cls-2" d="M207.66211,304.46289c0-1.584,0-3.0957-.03613-4.53613h1.76367c.07226.57617.1084,2.916.07226,3.41992a5.87811,5.87811,0,0,1,5.9751-3.85156c3.20362,0,6.04737,1.7998,6.04737,6.76758v11.6621h-1.79981v-11.375c0-3.20312-1.332-5.291-4.46338-5.291-4.28369,0-5.75928,3.56348-5.75928,7.4873v9.17871h-1.7998Z"/><path class="cls-2" d="M241.14014,316.70117c0,5.75879-2.55616,8.78223-7.77539,8.78223-4.6792,0-6.623-2.627-7.05518-5.36328h1.83594c.648,2.48437,2.6997,3.67187,5.2915,3.67187,4.6792,0,5.9751-3.02344,5.9751-7.59472V314.3252c-.97168,2.33984-2.73584,3.5996-6.01123,3.5996-4.21143,0-7.45117-3.41992-7.45117-8.999,0-6.04687,3.45556-9.43066,7.70312-9.43066,3.67139,0,5.25537,1.72754,5.75928,3.168.03613-1.04395.07178-2.30371.10791-2.73633h1.69189c0,.64844-.07177,3.49219-.07177,5.21972Zm-13.28272-7.84765c0,4.28418,2.26807,7.37988,5.72363,7.37988,4.499,0,5.86719-2.98828,5.86719-7.667,0-4.752-1.43994-7.37989-5.75928-7.37989C229.54932,301.18652,227.85742,304.75,227.85742,308.85352Z"/><path class="cls-2" d="M247.44141,309.1416c.03613,4.64356,2.37548,7.52344,5.83105,7.52344a5.0684,5.0684,0,0,0,5.18359-3.38379h1.83545a6.89992,6.89992,0,0,1-7.09082,5.0752c-5.47119,0-7.59521-4.71485-7.59521-9.28614,0-5.14746,2.55566-9.57519,7.811-9.57519,5.54346,0,7.30713,4.78711,7.30713,8.1709,0,.5039,0,1.00781-.03613,1.47558Zm11.41064-1.583c-.03613-3.56445-1.98-6.37207-5.50732-6.37207-3.70752,0-5.39942,2.5918-5.79541,6.37207Z"/><path class="cls-2" d="M265.11719,304.82227c0-3.02344-.03614-4.31934-.03614-4.89551h1.76368c.03613.57617.07226,1.72851.07226,4.03222a6.81761,6.81761,0,0,1,6.26319-4.46386v1.94336c-3.74366.25195-6.26319,2.84375-6.26319,7.12793v9.35839h-1.7998Z"/><path class="cls-2" d="M276.88916,309.1416c.03613,4.64356,2.37549,7.52344,5.83105,7.52344a5.06843,5.06843,0,0,0,5.1836-3.38379h1.83545a6.89993,6.89993,0,0,1-7.09082,5.0752c-5.47119,0-7.59522-4.71485-7.59522-9.28614,0-5.14746,2.55567-9.57519,7.811-9.57519,5.54345,0,7.30713,4.78711,7.30713,8.1709,0,.5039,0,1.00781-.03614,1.47558Zm11.41064-1.583c-.03613-3.56445-1.98-6.37207-5.50732-6.37207-3.70752,0-5.39941,2.5918-5.79541,6.37207Z"/><path class="cls-2" d="M308.63867,291.39648v21.34473c0,1.72754,0,3.38379.03613,5.18359h-1.72753c-.07227-.43164-.1084-2.124-.1084-3.02343-.89991,2.19531-2.91553,3.45508-6.04688,3.45508-4.67969,0-7.4873-3.81543-7.4873-9.21485,0-5.543,3.05957-9.64648,7.95508-9.64648,3.59961,0,5.03955,1.54785,5.5791,2.69922V291.39648ZM295.2124,309.07031c0,4.93067,2.55567,7.59473,5.65137,7.59473,4.75146,0,6.04736-3.27539,6.04736-8.1709,0-4.64355-1.11572-7.30762-5.72314-7.30762C297.624,301.18652,295.2124,304.03027,295.2124,309.07031Z"/><path class="cls-2" d="M323.90381,312.957c.6123,2.33985,2.26855,3.74414,5.11133,3.74414,3.2041,0,4.5-1.47558,4.5-3.49219,0-2.05175-.86426-3.05957-4.89551-4.03125-4.64356-1.11523-5.79492-2.51953-5.79492-4.8955,0-2.4834,1.87109-4.78711,5.93847-4.78711,4.06836,0,6.01172,2.4834,6.29981,5.03906h-1.79981a4.24233,4.24233,0,0,0-4.57129-3.38281c-3.13183,0-4.03125,1.54687-4.03125,2.9873,0,1.65528.86329,2.4834,4.42676,3.34766,5.0752,1.22363,6.335,2.87988,6.335,5.5791,0,3.27539-2.66308,5.291-6.44238,5.291-4.10352,0-6.40723-2.15918-6.91113-5.39942Z"/><path class="cls-2" d="M341.43506,315.26074V325.124h-1.79981V304.35449c0-1.47558,0-3.05957-.03515-4.42773h1.76367c.07129.68457.07129,1.76367.07129,3.24023a6.61237,6.61237,0,0,1,6.33594-3.67187c4.24707,0,7.19921,3.56347,7.19921,8.96289,0,6.47949-3.45605,9.89844-7.81152,9.89844C343.99072,318.35645,342.33545,316.95313,341.43506,315.26074Zm11.62695-6.73047c0-4.17578-2.01562-7.30761-5.5791-7.30761-4.35547,0-6.15527,2.73632-6.15527,7.63086,0,4.82421,1.40332,7.81152,5.90332,7.81152C350.97412,316.665,353.062,313.49707,353.062,308.53027Z"/><path class="cls-2" d="M360.0835,309.1416c.03613,4.64356,2.376,7.52344,5.83105,7.52344a5.06886,5.06886,0,0,0,5.18359-3.38379h1.83594a6.90074,6.90074,0,0,1-7.09179,5.0752c-5.47071,0-7.59473-4.71485-7.59473-9.28614,0-5.14746,2.55566-9.57519,7.81152-9.57519,5.543,0,7.30664,4.78711,7.30664,8.1709,0,.5039,0,1.00781-.03613,1.47558Zm11.41015-1.583c-.03613-3.56445-1.97949-6.37207-5.50683-6.37207-3.708,0-5.39942,2.5918-5.7959,6.37207Z"/><path class="cls-2" d="M391.186,312.63379c-.86426,3.167-2.95215,5.72266-6.9834,5.72266-4.499,0-7.70313-3.34766-7.70313-9.3584,0-4.93164,2.62793-9.50293,7.91895-9.50293a6.43575,6.43575,0,0,1,6.76758,5.75879H389.3501c-.54-2.08692-1.90821-4.06739-4.96778-4.06739-3.81543,0-5.97461,3.24024-5.97461,7.73926,0,4.2832,2.01563,7.73926,5.79493,7.73926,2.62793,0,4.21191-1.332,5.14746-4.03125Z"/><path class="cls-2" d="M395.82959,291.39648h1.7998v3.49122h-1.7998Zm0,8.53028h1.7998v17.998h-1.7998Z"/><path class="cls-2" d="M403.93018,309.1416c.03613,4.64356,2.376,7.52344,5.83105,7.52344a5.06886,5.06886,0,0,0,5.18359-3.38379h1.83594a6.90075,6.90075,0,0,1-7.0918,5.0752c-5.4707,0-7.59472-4.71485-7.59472-9.28614,0-5.14746,2.55566-9.57519,7.81152-9.57519,5.543,0,7.30664,4.78711,7.30664,8.1709,0,.5039,0,1.00781-.03613,1.47558Zm11.41015-1.583c-.03613-3.56445-1.97949-6.37207-5.50683-6.37207-3.708,0-5.39942,2.5918-5.79493,6.37207Z"/><path class="cls-2" d="M422.0376,312.957c.6123,2.33985,2.26855,3.74414,5.1123,3.74414,3.20313,0,4.499-1.47558,4.499-3.49219,0-2.05175-.86426-3.05957-4.89551-4.03125-4.64356-1.11523-5.79492-2.51953-5.79492-4.8955,0-2.4834,1.87109-4.78711,5.93847-4.78711,4.06836,0,6.01172,2.4834,6.29981,5.03906H431.397a4.24233,4.24233,0,0,0-4.57129-3.38281c-3.13183,0-4.03125,1.54687-4.03125,2.9873,0,1.65528.86328,2.4834,4.42676,3.34766,5.0752,1.22363,6.335,2.87988,6.335,5.5791,0,3.27539-2.66308,5.291-6.44238,5.291-4.10352,0-6.40723-2.15918-6.91113-5.39942Z"/><path class="cls-1" d="M-207.89326,943.0618c-142.5,0-258-115.5-258-258a257.961,257.961,0,0,1,75.6-182.4c100.8-100.8,264.1-100.8,364.9,0s100.8,264.1,0,364.9A256.49775,256.49775,0,0,1-207.89326,943.0618Z"/><rect class="cls-3" x="214.25873" y="105.72762" width="85.75281" height="61.39919"/><polygon class="cls-3" points="206.792 100.874 309.117 100.874 257.086 63.599 206.792 100.874"/><circle class="cls-4" cx="257.95467" cy="123.8835" r="83.58473"/><line class="cls-5" x1="314.18013" y1="185.12338" x2="201.7292" y2="61.76018"/><polygon class="cls-6" points="279.831 79.56 279.831 65.857 289.539 65.857 289.539 85.27 289.539 98.615 279.831 79.56"/></svg>