<svg id="Layer_1" data-name="Layer 1" xmlns="http://www.w3.org/2000/svg" viewBox="0 0 187.16731 146.95153"><defs><style>.cls-1{fill:#fff;}.cls-2{fill:#be1e2d;}</style></defs><title>rice bowl</title><path class="cls-1" d="M3.47408,44.14416C6.00745,39.94893,1.98431,33.35571,5.62415,30.074c.81222-.7323,1.88011-1.12155,2.73114-1.80836,2.41376-1.948,2.89674-6.06852,5.86118-6.98115,1.9512-.6007,4.387.49034,5.94859-.82479,1.40318-1.18176,1.0754-3.52525,2.23683-4.94531,1.8447-2.2555,5.78382-.684,8.2097-2.29809,2.30988-1.53693,2.09695-5.05786,3.76678-7.27357,2.91535-3.86838,9.01322-1.68837,13.16926.7998C48.05044,1.25163,55.46305-.46483,60.82588.817s10.9419,4.0607,16.10036,2.11307c1.883-.711,3.54748-2.02414,5.52906-2.37718,2.87252-.51178,5.70715,1.09529,8.62441,1.14861,2.83375.05179,5.51-1.36066,8.33912-1.53162,3.85546-.233,7.41721,1.82482,11.03321,3.18255A31.73608,31.73608,0,0,0,123.74537,5.295a37.15041,37.15041,0,0,1,7.08788-.302,21.53309,21.53309,0,0,1,5.119,1.4825,134.31044,134.31044,0,0,1,25.71522,13.37376c1.51151,1.00722,3.102,2.08071,4.91489,2.19212,1.15248.07081,2.41789-.23478,3.39161.38576a4.10063,4.10063,0,0,1,1.37155,2.03865l4.85067,11.88059c1.29884-2.13219,4.94192-1.17735,6.04264,1.06355s.48921,4.90559-.1431,7.32083"/><path d="M3.69,44.27034a11.69226,11.69226,0,0,0,.8146-6.20616A19.85045,19.85045,0,0,1,4.262,34.24809c.98268-7.27386,2.09372-3.37082,4.27008-5.80565,2.10549-2.35554,2.95332-5.43971,6.10284-6.42913,1.70716-.53631,4.22843-.13392,5.70692-1.37682,1.92625-1.61931,1.58058-4.61912,4.13647-6.04063,1.88159-1.04647,4.39125.14137,6.31006-1.20276,1.45075-1.01625,1.67348-2.60314,2.3748-4.07483C36.53908,2.234,41.84442,3.80169,47.42145,6.95841a.25223.25223,0,0,0,.36725-.1494C50.21853-6.1251,69.29579,5.915,77.05242,3.14594c.9539-.34053,1.78906-.9664,2.72758-1.32281,4.99635-1.89738,5.60844-.60866,9.49184-.06962A14.51244,14.51244,0,0,0,94.491,1.47505c3.94933-.79318,7.36025-1.21481,11.248.22247a70.63,70.63,0,0,0,8.69756,3.10107c5.51415,1.26176,10.87687-.12009,16.35192.5597,6.85341.85093,13.8171,4.92882,19.86168,8.17261,4.49883,2.41427,8.67032,5.89732,13.29528,7.99145,3.79136,1.71668,5.40939.27315,8.19846,5.55577,1.54067,2.91808,2.56446,6.28105,3.81124,9.33475a.25331.25331,0,0,0,.41784.11031q7.32082.51706,6.03409,5.20183a13.20594,13.20594,0,0,1-.55239,2.93932c-.077.3124.405.44568.48214.13292,1.28606-5.21595.96166-9.07787-4.66351-9.7929-1.90871-.24262-1.11128.72692-2.62194-2.11886-1.1337-2.13567-1.82918-4.55968-2.7718-6.78891-1.049-2.48071-1.37431-3.63445-3.9418-4.29553-2.292-.59016-3.15337-.15172-5.39342-1.41586-.90934-.51317-1.80143-1.19016-2.66793-1.748q-3.05249-1.96518-6.19972-3.77673a135.22536,135.22536,0,0,0-14.69351-7.26293c-4.46864-1.88288-8.12-3.15657-12.97648-2.7915a37.5924,37.5924,0,0,1-17.43556-2.31068C105.18563.99061,101.801-.49592,97.67078.15872c-3.70937.58793-6.10591,1.452-9.99338.727C85.8801.55047,84.2409-.01552,82.38884.31182c-2.23386.39481-4.22938,1.78637-6.40609,2.4-3.57084,1.00672-6.74413.25178-10.22268-.74612C62.05161.90188,58.57737-.29667,54.67055.38074a9.70907,9.70907,0,0,0-6.11276,3.16747c-.58372.75564-.728,1.78888-1.55137,2.16029-.85064.38369-3.96983-1.40693-5.11606-1.6965-2.24775-.56787-4.84066-.72772-6.768.80552a5.79677,5.79677,0,0,0-1.59825,2.07869A17.78,17.78,0,0,0,32.681,9.18535c-1.22524,3.29264-3.68347,3.814-7.03729,4.73588-2.99077.82206-2.90533,1.0052-4.36789,3.54059-.68559,1.18847-1.7314,2.98149-3.31733,3.43336-.7615.217-1.7869-.15952-2.59049-.04194a5.01581,5.01581,0,0,0-3.15532,1.45638c-1.15525,1.12367-1.60471,2.78381-2.556,4.0456C8.238,28.23691,5.88833,28.91453,4.64974,30.834c-2.48281,3.84756.5305,9.01453-1.39152,13.184-.1338.29025.297.54457.43173.25236Z"/><path class="cls-2" d="M100.3447,146.95153H31.7S-11.63159,95.15141,3.02806,43.3513h97.31663"/><path class="cls-2" d="M86.82262,146.95153h68.64473S198.7989,95.15141,184.13925,43.3513H86.82262"/></svg>