<svg id="Layer_1" data-name="Layer 1" xmlns="http://www.w3.org/2000/svg" viewBox="0 0 517 517"><defs><style>.cls-1{fill:#2e3192;}.cls-2{fill:#fff;}.cls-3{fill:#a0d8d8;}</style></defs><title>rice1</title><path class="cls-1" d="M260.5,516.5c-142.5,0-258-115.5-258-258A257.961,257.961,0,0,1,78.1,76.1C178.9-24.7,342.2-24.7,443,76.1S543.8,340.2,443,441A256.49775,256.49775,0,0,1,260.5,516.5Z"/><path class="cls-2" d="M149.75049,274.39941h7.65722c6.33692,0,10.72657,4.42286,10.72657,11.35352,0,6.89844-4.29053,11.75-10.75977,11.75h-7.624Zm1.78222,21.45313h5.57813c6.10547,0,9.10889-4.29,9.10889-10,0-5.083-2.70606-9.80274-9.10889-9.80274h-5.57813Z"/><path class="cls-2" d="M173.04834,289.4502c.0332,4.25683,2.17822,6.89746,5.34668,6.89746a4.64689,4.64689,0,0,0,4.75293-3.10254h1.6831a6.32707,6.32707,0,0,1-6.50195,4.65429c-5.0166,0-6.96387-4.32421-6.96387-8.51562,0-4.71973,2.34327-8.7793,7.16211-8.7793,5.08252,0,6.69971,4.38965,6.69971,7.49219,0,.46191,0,.92383-.03271,1.35352Zm10.4624-1.45215c-.03271-3.26758-1.81494-5.84278-5.04931-5.84278-3.39991,0-4.95069,2.377-5.314,5.84278Z"/><path class="cls-2" d="M189.25146,285.25781c0-1.41894,0-2.96972-.0332-4.25683h1.61719c.0332.56054.09912,1.97949.06592,2.93652a5.16268,5.16268,0,0,1,4.95068-3.333,4.68476,4.68476,0,0,1,4.78613,3.26758,5.61424,5.61424,0,0,1,5.3794-3.26758c2.5415,0,5.18213,1.45215,5.18213,6.04v10.8584h-1.65039V286.84277c0-2.21191-.792-4.62109-3.86182-4.62109-3.20117,0-4.65332,2.57422-4.65332,5.77637v9.50488H199.417V286.875c0-2.40918-.72656-4.65332-3.76269-4.65332-3.20166,0-4.75293,2.83887-4.75293,6.20508v9.07617h-1.64991Z"/><path class="cls-2" d="M227.731,294.36719a18.9172,18.9172,0,0,0,.23095,3.13574h-1.584a10.85512,10.85512,0,0,1-.29688-2.541c-.561,1.22071-2.01367,2.9375-5.41308,2.9375-3.82861,0-5.47852-2.47558-5.47852-4.95117,0-3.63086,2.80518-5.28027,7.75586-5.28027h3.13574v-1.68359c0-1.6504-.49511-3.86133-4.25781-3.86133-3.33349,0-3.82861,1.749-4.1914,3.10254h-1.65039c.19824-1.81543,1.32031-4.6211,5.875-4.6211,3.7622,0,5.87451,1.584,5.87451,5.21485Zm-1.61719-5.28028h-3.23438c-3.66357,0-5.94091.957-5.94091,3.79493,0,2.08007,1.48535,3.499,3.79541,3.499,4.71972,0,5.37988-3.13574,5.37988-6.7002Z"/><path class="cls-2" d="M233.17432,285.15918c0-1.45215,0-2.83887-.03321-4.1582h1.61719c.06592.52734.09912,2.67285.06592,3.13476a5.3909,5.3909,0,0,1,5.479-3.53125c2.9375,0,5.54492,1.65039,5.54492,6.20508v10.69336h-1.65039V287.07324c0-2.9375-1.22119-4.85156-4.09277-4.85156-3.92725,0-5.28076,3.26758-5.28076,6.86523v8.416h-1.6499Z"/><path class="cls-2" d="M263.99805,273.17871V292.75c0,1.584,0,3.10254.03222,4.75293h-1.584c-.06543-.39648-.09863-1.94727-.09863-2.77246-.82618,2.01367-2.67383,3.16894-5.54541,3.16894-4.29053,0-6.86475-3.499-6.86475-8.44921,0-5.083,2.80518-8.84571,7.29395-8.84571,3.30078,0,4.62011,1.41895,5.11621,2.47559v-9.90137Zm-12.31153,16.20508c0,4.52148,2.34375,6.96387,5.18213,6.96387,4.356,0,5.54444-3.00293,5.54444-7.49219,0-4.25781-1.02246-6.7002-5.24756-6.7002C253.898,282.15527,251.68652,284.7627,251.68652,289.38379Z"/><path class="cls-2" d="M278.416,297.50293V282.55176h-2.83789V281.001H278.416v-2.34375c0-2.77246.793-5.8086,4.48828-5.8086a6.16551,6.16551,0,0,1,1.61718.23047v1.585a8.13617,8.13617,0,0,0-1.78125-.19824c-1.94726,0-2.67382,1.38574-2.67382,4.25781V281.001h3.59765v1.55078h-3.59765v14.95117Z"/><path class="cls-2" d="M299.63672,289.21875c0,4.58789-2.541,8.68066-7.459,8.68066-4.45507,0-7.22851-3.66406-7.22851-8.64746,0-4.71972,2.60742-8.64746,7.39355-8.64746C296.73242,280.60449,299.63672,284.03711,299.63672,289.21875Zm-12.9375.0332c0,3.92774,2.11133,7.09571,5.61035,7.09571,3.56445,0,5.57813-2.9375,5.57813-7.09571,0-3.89453-1.98047-7.09668-5.64356-7.09668C288.48047,282.15527,286.69922,285.291,286.69922,289.252Z"/><path class="cls-2" d="M303.72656,285.48926c0-2.77246-.0332-3.96094-.0332-4.48828h1.61719c.0332.52734.0664,1.584.0664,3.69629a6.2524,6.2524,0,0,1,5.74317-4.09278v1.78223c-3.43262.23144-5.74317,2.60742-5.74317,6.53516v8.58105h-1.65039Z"/><path class="cls-2" d="M322.99805,285.48926c0-2.77246-.03223-3.96094-.03223-4.48828H324.583c.03222.52734.06543,1.584.06543,3.69629a6.25138,6.25138,0,0,1,5.74316-4.09278v1.78223c-3.43262.23144-5.74316,2.60742-5.74316,6.53516v8.58105h-1.65039Z"/><path class="cls-2" d="M333.42578,273.17871h1.65039v3.20117h-1.65039Zm0,7.82227h1.65039v16.50195h-1.65039Z"/><path class="cls-2" d="M352.63379,292.65137c-.793,2.90429-2.707,5.248-6.40332,5.248-4.126,0-7.06348-3.07031-7.06348-8.582,0-4.52148,2.41016-8.71289,7.26172-8.71289a5.90168,5.90168,0,0,1,6.20508,5.28028H350.9502a4.459,4.459,0,0,0-4.55469-3.7295c-3.498,0-5.47852,2.97071-5.47852,7.09668,0,3.92774,1.84766,7.09571,5.31348,7.09571,2.40918,0,3.86133-1.22071,4.71973-3.69629Z"/><path class="cls-2" d="M356.9873,289.4502c.03321,4.25683,2.17872,6.89746,5.34668,6.89746a4.64644,4.64644,0,0,0,4.75293-3.10254h1.6836a6.32749,6.32749,0,0,1-6.502,4.65429c-5.01757,0-6.96484-4.32421-6.96484-8.51562,0-4.71973,2.34375-8.7793,7.16211-8.7793,5.083,0,6.7002,4.38965,6.7002,7.49219,0,.46191,0,.92383-.03321,1.35352Zm10.4629-1.45215c-.03321-3.26758-1.81543-5.84278-5.04981-5.84278-3.39941,0-4.95117,2.377-5.31445,5.84278Z"/><path class="cls-2" d="M162.47894,121.52493c2.53336-4.19523-1.48978-10.78845,2.15006-14.07013.81222-.7323,1.88011-1.12155,2.73115-1.80836,2.41375-1.948,2.89673-6.06853,5.86117-6.98116,1.9512-.6007,4.387.49035,5.94859-.82479,1.40318-1.18175,1.07541-3.52524,2.23683-4.9453,1.84471-2.2555,5.78383-.684,8.2097-2.29809,2.30988-1.53693,2.09695-5.05786,3.76679-7.27357,2.91534-3.86838,9.01321-1.68838,13.16925.79979.50282-5.49091,7.91543-7.20737,13.27825-5.92554s10.9419,4.0607,16.10036,2.11307c1.883-.711,3.54748-2.02414,5.52907-2.37719,2.87251-.51178,5.70714,1.0953,8.6244,1.14862,2.83375.05179,5.51-1.36066,8.33912-1.53163,3.85546-.233,7.41721,1.82483,11.03321,3.18256a31.73608,31.73608,0,0,0,13.29333,1.94256,37.1504,37.1504,0,0,1,7.08788-.302,21.53263,21.53263,0,0,1,5.119,1.4825,134.311,134.311,0,0,1,25.71522,13.37375c1.51151,1.00722,3.102,2.08072,4.91489,2.19212,1.15248.07082,2.41789-.23478,3.39161.38577a4.10056,4.10056,0,0,1,1.37156,2.03864l4.85066,11.88059c1.29884-2.13219,4.94193-1.17734,6.04264,1.06356s.48922,4.90558-.14309,7.32083"/><path class="cls-2" d="M163.01861,121.84038a12.05256,12.05256,0,0,0,.86579-6.39542,19.07878,19.07878,0,0,1-.24256-3.8161c.93331-6.47219,2.07609-3.20743,4.16025-5.54048,2.04055-2.28424,2.94943-5.44593,5.97025-6.37422,1.79808-.55254,4.29723-.11174,5.83951-1.43173,1.85194-1.585,1.41285-4.802,3.971-5.94419,2.119-.9461,4.44472.12376,6.47554-1.2992,1.50776-1.05646,1.73226-2.71778,2.47124-4.24031,3.28667-6.77161,8.32028-5.185,13.70741-2.13574a.63056.63056,0,0,0,.91812-.37352c1.45934-7.76812,11.265-5.9015,16.56257-4.34463,4.09419,1.20321,8.3421,2.42462,12.52882.90568.95134-.34515,1.78882-.96945,2.72758-1.32281,4.7459-1.78644,5.45021-.56453,9.20289-.03182a14.96885,14.96885,0,0,0,5.41848-.27846c3.89781-.78336,7.21092-1.19631,11.04861.22247a70.6306,70.6306,0,0,0,8.69756,3.10107c5.53481,1.26649,10.90893-.11289,16.40177.5664,6.79948.84088,13.72659,4.91056,19.72225,8.12811,4.52213,2.42677,8.72454,5.94924,13.38486,8.02925,3.72317,1.66173,5.25374.23231,7.93655,5.29385,1.54444,2.91383,2.56523,6.28294,3.81123,9.33475a.63329.63329,0,0,0,1.04462.27579q6.60892.5878,5.40062,4.88682a12.96341,12.96341,0,0,1-.54569,2.88948c-.19256.781,1.01257,1.11418,1.20535.3323.67125-2.72245,1.55-6.306-.53305-8.67883-1.45614-1.65873-2.83555-1.14974-4.63655-1.55647-1.95556-.44162-.574,1.78791-2.11585-1.87584-.94808-2.25279-1.8209-4.53732-2.77181-6.78891-1.0617-2.51392-1.5203-4.07986-4.3034-4.57085a18.70032,18.70032,0,0,1-7.87208-3.11267q-3.05247-1.96518-6.19972-3.77673a135.59525,135.59525,0,0,0-14.78309-7.30073c-4.49569-1.89227-8.18782-3.17236-13.07617-2.8049a37.33063,37.33063,0,0,1-17.33587-2.29728c-3.85717-1.53324-7.29253-3.01293-11.49969-2.33662-3.635.58433-5.98873,1.438-9.794.727-1.86787-.349-3.56344-.92032-5.48794-.57387-2.23773.40283-4.22019,1.79629-6.401,2.41225-3.497.9877-6.62385.21834-10.02836-.75832-3.76032-1.07874-7.27891-2.27513-11.239-1.59171a10.1133,10.1133,0,0,0-6.32808,3.27061c-.42381.53872-.91432,1.99549-1.37237,2.21371-.39539.18836-4.15482-1.65047-4.93021-1.84636-2.34893-.59343-5.03729-.73435-7.057.84332a6.33436,6.33436,0,0,0-1.77059,2.3028,18.83475,18.83475,0,0,0-.84307,2.28914c-1.1665,3.14616-3.49766,3.58594-6.67568,4.46058-3.1701.87245-3.17474,1.11046-4.72951,3.81589-.64685,1.12559-1.4432,2.707-2.95572,3.15806-.77613.23144-1.86235-.15367-2.69018-.02855a5.385,5.385,0,0,0-3.3208,1.55282c-1.17907,1.14845-1.63788,2.83763-2.61467,4.12149-1.41823,1.86411-3.77064,2.5492-5.00692,4.47874-2.50292,3.90644.53539,9.0039-1.39152,13.184-.3345.72563.74258,1.36143,1.07934.6309Z"/><path class="cls-3" d="M259.34955,224.3323H190.70482s-43.33155-51.80011-28.67191-103.60022h97.31663"/><path class="cls-3" d="M245.82747,224.3323H314.4722s43.33155-51.80011,28.67191-103.60022H245.82747"/></svg>