<svg id="Layer_1" data-name="Layer 1" xmlns="http://www.w3.org/2000/svg" viewBox="0 0 517 517"><defs><style>.cls-1{fill:#2e3192;}.cls-2{fill:#fff;}.cls-3{fill:#29abe2;}</style></defs><title>rice3</title><path class="cls-1" d="M260.5,516.5c-142.5,0-258-115.5-258-258A257.961,257.961,0,0,1,78.1,76.1C178.9-24.7,342.2-24.7,443,76.1S543.8,340.2,443,441A256.49775,256.49775,0,0,1,260.5,516.5Z"/><path class="cls-2" d="M139.28906,252.39941h1.78223v10.06641h13.8623V252.39941h1.78223v23.10352h-1.78223V264.11621h-13.8623v11.38672h-1.78223Z"/><path class="cls-2" d="M162.48877,251.17871h1.6499v3.20117h-1.6499Zm0,7.82227h1.6499v16.50195h-1.6499Z"/><path class="cls-2" d="M182.1582,274.38086c0,5.28027-2.34375,8.05273-7.12939,8.05273-4.29053,0-6.07276-2.40918-6.46875-4.917h1.6831c.59424,2.27735,2.47559,3.36621,4.85157,3.36621,4.291,0,5.479-2.77246,5.479-6.96386v-1.7168c-.89111,2.14551-2.5083,3.30078-5.51172,3.30078-3.86181,0-6.832-3.13574-6.832-8.251,0-5.54492,3.16846-8.64746,7.063-8.64746,3.3667,0,4.81885,1.584,5.28076,2.9043.0332-.957.06592-2.11231.09912-2.50781h1.55127c0,.59375-.06592,3.20117-.06592,4.78515Zm-12.1792-7.19531c0,3.92773,2.07959,6.7666,5.248,6.7666,4.12549,0,5.37988-2.74024,5.37988-7.03027,0-4.35645-1.32031-6.76661-5.28076-6.76661C171.53027,260.15527,169.979,263.42285,169.979,267.18555Z"/><path class="cls-2" d="M189.21777,251.17871v10.59473a5.75594,5.75594,0,0,1,5.4458-3.16895c2.34327,0,5.57813,1.18848,5.57813,6.40332v10.49512h-1.65039v-10.165c0-3.26758-1.48535-5.11621-4.22461-5.11621-3.26758,0-5.14893,2.01367-5.14893,6.07324v9.208h-1.6499V251.17871Z"/><path class="cls-2" d="M214.26416,259.001c2.44238,8.51465,3.86182,13.39941,4.12549,14.85156h.0332c.26416-1.32031,1.91455-6.50195,4.48877-14.85156h1.78223c3.06933,10.19824,3.99365,13.13574,4.29053,14.42285h.0332c.46191-1.81543,1.22119-4.291,4.25732-14.42285h1.74951l-5.21484,16.50195h-1.81543c-1.78223-5.8418-3.92725-13.00391-4.25732-14.52246h-.03321c-.33007,1.61719-2.21142,7.52539-4.35644,14.52246H217.3667L212.51514,259.001Z"/><path class="cls-2" d="M249.50977,272.36719a18.84653,18.84653,0,0,0,.23144,3.13574h-1.58447a10.85512,10.85512,0,0,1-.29688-2.541c-.561,1.22071-2.01367,2.9375-5.41308,2.9375-3.82862,0-5.47852-2.47558-5.47852-4.95117,0-3.63086,2.80518-5.28027,7.75586-5.28027h3.13574v-1.68359c0-1.6504-.49511-3.86133-4.25781-3.86133-3.3335,0-3.82861,1.749-4.19141,3.10254h-1.65039c.19825-1.81543,1.32032-4.6211,5.875-4.6211,3.76221,0,5.87452,1.584,5.87452,5.21485Zm-1.61719-5.28028H244.6582c-3.66357,0-5.94091.957-5.94091,3.79493,0,2.08007,1.48535,3.499,3.79541,3.499,4.71972,0,5.37988-3.13574,5.37988-6.7002Z"/><path class="cls-2" d="M252.313,259.001h3.06933v-5.14942h1.65039V259.001h3.92823v1.55078h-3.92823v10.72656c0,1.84863.396,2.9043,1.981,2.9043a6.2414,6.2414,0,0,0,1.71582-.19824v1.45214a5.78841,5.78841,0,0,1-2.04638.29786c-2.11231,0-3.30079-1.05665-3.30079-3.69727V260.55176H252.313Z"/><path class="cls-2" d="M264.49023,267.4502c.03321,4.25683,2.17774,6.89746,5.34571,6.89746a4.6478,4.6478,0,0,0,4.7539-3.10254h1.68262a6.32665,6.32665,0,0,1-6.502,4.65429c-5.0166,0-6.96387-4.32421-6.96387-8.51562,0-4.71973,2.34375-8.7793,7.16211-8.7793,5.082,0,6.69922,4.38965,6.69922,7.49219,0,.46191,0,.92383-.03223,1.35352Zm10.46192-1.45215c-.03223-3.26758-1.81543-5.84278-5.04981-5.84278-3.39941,0-4.95019,2.377-5.31347,5.84278Z"/><path class="cls-2" d="M280.69336,263.48926c0-2.77246-.0332-3.96094-.0332-4.48828h1.61718c.03321.52734.06543,1.584.06543,3.69629a6.2524,6.2524,0,0,1,5.74317-4.09278v1.78223c-3.43262.23144-5.74317,2.60742-5.74317,6.53516v8.58105h-1.64941Z"/><path class="cls-2" d="M312.30859,270.68457c0,1.61719.03223,4.19141.03223,4.81836h-1.584a26.71026,26.71026,0,0,1-.09864-2.87109c-.69336,1.94726-2.377,3.26757-5.31445,3.26757-2.376,0-5.41211-.9248-5.41211-5.97461V259.001h1.61719V269.5293c0,2.40918.75879,4.75293,4.02637,4.75293,3.69628,0,5.083-2.08008,5.083-6.79981V259.001h1.65039Z"/><path class="cls-2" d="M317.51953,270.94824a4.37168,4.37168,0,0,0,4.6875,3.43262c2.93652,0,4.125-1.35352,4.125-3.20117,0-1.88184-.792-2.80567-4.48828-3.69727-4.25781-1.02246-5.31445-2.30957-5.31445-4.48828,0-2.27734,1.71679-4.38965,5.44629-4.38965s5.51171,2.27735,5.77539,4.6211h-1.64942a3.89113,3.89113,0,0,0-4.19238-3.10254c-2.87109,0-3.69629,1.41894-3.69629,2.73925,0,1.51758.792,2.27735,4.05957,3.06934,4.65332,1.12207,5.80859,2.64063,5.80859,5.11524,0,3.0039-2.44238,4.85253-5.90722,4.85253-3.7627,0-5.875-1.98046-6.33692-4.95117Z"/><path class="cls-2" d="M343.625,272.36719a18.9325,18.9325,0,0,0,.23047,3.13574h-1.584a10.82763,10.82763,0,0,1-.29687-2.541c-.56152,1.22071-2.01367,2.9375-5.41309,2.9375-3.82812,0-5.47851-2.47558-5.47851-4.95117,0-3.63086,2.80566-5.28027,7.75586-5.28027h3.13574v-1.68359c0-1.6504-.49512-3.86133-4.25781-3.86133-3.333,0-3.82813,1.749-4.19141,3.10254H331.875c.19824-1.81543,1.32031-4.6211,5.875-4.6211,3.7627,0,5.875,1.584,5.875,5.21485Zm-1.61719-5.28028h-3.23437c-3.66406,0-5.94141.957-5.94141,3.79493,0,2.08007,1.48535,3.499,3.7959,3.499,4.71973,0,5.37988-3.13574,5.37988-6.7002Z"/><path class="cls-2" d="M361.67578,274.38086c0,5.28027-2.34375,8.05273-7.1289,8.05273-4.291,0-6.07325-2.40918-6.46973-4.917h1.68359c.59375,2.27735,2.47559,3.36621,4.85156,3.36621,4.291,0,5.4795-2.77246,5.4795-6.96386v-1.7168c-.8916,2.14551-2.50879,3.30078-5.5127,3.30078-3.86133,0-6.832-3.13574-6.832-8.251,0-5.54492,3.16895-8.64746,7.06348-8.64746,3.36621,0,4.81836,1.584,5.28125,2.9043.03222-.957.06543-2.11231.09863-2.50781h1.55078c0,.59375-.06543,3.20117-.06543,4.78515Zm-12.17871-7.19531c0,3.92773,2.0791,6.7666,5.24707,6.7666,4.126,0,5.37988-2.74024,5.37988-7.03027,0-4.35645-1.32031-6.76661-5.28027-6.76661C351.04785,260.15527,349.49707,263.42285,349.49707,267.18555Z"/><path class="cls-2" d="M367.44824,267.4502c.03321,4.25683,2.17871,6.89746,5.34668,6.89746a4.64644,4.64644,0,0,0,4.75293-3.10254h1.6836a6.3275,6.3275,0,0,1-6.502,4.65429c-5.01758,0-6.96484-4.32421-6.96484-8.51562,0-4.71973,2.34375-8.7793,7.16211-8.7793,5.083,0,6.70019,4.38965,6.70019,7.49219,0,.46191,0,.92383-.0332,1.35352Zm10.46289-1.45215c-.0332-3.26758-1.81543-5.84278-5.0498-5.84278-3.39942,0-4.95117,2.377-5.31445,5.84278Z"/><path class="cls-2" d="M134.40674,315.10352V300.15234h-2.83838v-1.55078h2.83838v-2.34375c0-2.77246.79248-5.80859,4.48877-5.80859a6.17424,6.17424,0,0,1,1.61719.23047v1.585a8.145,8.145,0,0,0-1.78223-.19824c-1.94727,0-2.67334,1.38574-2.67334,4.25781v2.27734h3.59766v1.55078h-3.59766v14.95118Z"/><path class="cls-2" d="M155.62744,306.81934c0,4.58789-2.5415,8.68066-7.459,8.68066-4.45557,0-7.228-3.66406-7.228-8.64746,0-4.71973,2.60742-8.64746,7.39307-8.64746C152.72314,298.20508,155.62744,301.6377,155.62744,306.81934Zm-12.938.0332c0,3.92773,2.11231,7.0957,5.61084,7.0957,3.56446,0,5.57813-2.9375,5.57813-7.0957,0-3.89453-1.98047-7.09668-5.644-7.09668C144.47168,299.75586,142.68945,302.8916,142.68945,306.85254Z"/><path class="cls-2" d="M159.71729,303.08984c0-2.77246-.03321-3.96093-.03321-4.48828h1.61719c.0332.52735.06592,1.584.06592,3.69629a6.25238,6.25238,0,0,1,5.74316-4.09277v1.78222c-3.43262.23145-5.74316,2.60743-5.74316,6.53516v8.58106h-1.6499Z"/><path class="cls-2" d="M178.98877,303.08984c0-2.77246-.0332-3.96093-.0332-4.48828h1.61718c.03321.52735.06592,1.584.06592,3.69629a6.25239,6.25239,0,0,1,5.74317-4.09277v1.78222c-3.43262.23145-5.74317,2.60743-5.74317,6.53516v8.58106h-1.6499Z"/><path class="cls-2" d="M189.417,290.7793h1.6499v3.20117H189.417Zm0,7.82226h1.6499v16.502H189.417Z"/><path class="cls-2" d="M208.624,310.252c-.792,2.9043-2.70605,5.248-6.40283,5.248-4.12549,0-7.063-3.07031-7.063-8.582,0-4.52149,2.40918-8.71289,7.26123-8.71289a5.90048,5.90048,0,0,1,6.20459,5.28125h-1.6831a4.45933,4.45933,0,0,0-4.55469-3.73047c-3.49853,0-5.479,2.9707-5.479,7.09668,0,3.92773,1.84863,7.0957,5.314,7.0957,2.40918,0,3.86133-1.2207,4.71973-3.69629Z"/><path class="cls-2" d="M212.97754,307.05078c.0332,4.25684,2.17822,6.89746,5.34668,6.89746a4.64688,4.64688,0,0,0,4.75293-3.10254h1.6831a6.32707,6.32707,0,0,1-6.502,4.6543c-5.0166,0-6.96387-4.32422-6.96387-8.51562,0-4.71973,2.34327-8.7793,7.16211-8.7793,5.08252,0,6.69971,4.38965,6.69971,7.49219,0,.46191,0,.92382-.03271,1.35351Zm10.4624-1.45312c-.03271-3.26661-1.81494-5.8418-5.04931-5.8418-3.39991,0-4.95069,2.377-5.314,5.8418Z"/><path class="cls-2" d="M239.41064,312.66113v9.043h-1.6499v-19.043c0-1.35351,0-2.80566-.0332-4.05957h1.61719c.06591.627.06591,1.61719.06591,2.96973a6.06253,6.06253,0,0,1,5.80909-3.36621c3.89453,0,6.60107,3.26758,6.60107,8.21777,0,5.94141-3.16846,9.07715-7.16211,9.07715C241.75439,315.5,240.23584,314.21191,239.41064,312.66113Zm10.66065-6.17187c0-3.82813-1.84815-6.7002-5.11572-6.7002-3.99366,0-5.64356,2.50879-5.64356,6.99707,0,4.42285,1.28711,7.16211,5.4126,7.16211C248.15723,313.94824,250.07129,311.044,250.07129,306.48926Z"/><path class="cls-2" d="M255.94336,303.08984c0-2.77246-.0332-3.96093-.0332-4.48828h1.61718c.03321.52735.06592,1.584.06592,3.69629a6.25225,6.25225,0,0,1,5.74268-4.09277v1.78222c-3.43164.23145-5.74268,2.60743-5.74268,6.53516v8.58106h-1.6499Z"/><path class="cls-2" d="M279.73828,306.81934c0,4.58789-2.542,8.68066-7.459,8.68066-4.45606,0-7.22852-3.66406-7.22852-8.64746,0-4.71973,2.60742-8.64746,7.39258-8.64746C276.834,298.20508,279.73828,301.6377,279.73828,306.81934Zm-12.93848.0332c0,3.92773,2.11231,7.0957,5.61036,7.0957,3.56445,0,5.57812-2.9375,5.57812-7.0957,0-3.89453-1.98047-7.09668-5.64355-7.09668C268.582,299.75586,266.7998,302.8916,266.7998,306.85254Z"/><path class="cls-2" d="M296.76563,290.7793v19.57129c0,1.585,0,3.10254.0332,4.75293h-1.584c-.0664-.39649-.09961-1.94727-.09961-2.77247-.82519,2.01368-2.67382,3.16895-5.54492,3.16895-4.291,0-6.86523-3.499-6.86523-8.44922,0-5.083,2.80566-8.8457,7.29492-8.8457,3.30078,0,4.62012,1.41894,5.11523,2.47558V290.7793Zm-12.31055,16.20508c0,4.52148,2.34375,6.96386,5.18164,6.96386,4.35644,0,5.54492-3.00293,5.54492-7.49219,0-4.25781-1.02344-6.70019-5.24805-6.70019C286.666,299.75586,284.45508,302.36328,284.45508,306.98438Z"/><path class="cls-2" d="M314.51855,310.28516c0,1.61718.03321,4.1914.03321,4.81836h-1.584a26.448,26.448,0,0,1-.09863-2.8711c-.69336,1.94727-2.377,3.26758-5.31445,3.26758-2.376,0-5.41211-.9248-5.41211-5.97461V298.60156h1.61719v10.52832c0,2.40918.75878,4.75293,4.02636,4.75293,3.69629,0,5.083-2.08008,5.083-6.7998v-8.48145h1.64941Z"/><path class="cls-2" d="M332.0752,310.252c-.793,2.9043-2.707,5.248-6.40332,5.248-4.126,0-7.06348-3.07031-7.06348-8.582,0-4.52149,2.41015-8.71289,7.26172-8.71289a5.90171,5.90171,0,0,1,6.20508,5.28125h-1.6836a4.459,4.459,0,0,0-4.55469-3.73047c-3.498,0-5.47851,2.9707-5.47851,7.09668,0,3.92773,1.84765,7.0957,5.31348,7.0957,2.40917,0,3.86132-1.2207,4.71972-3.69629Z"/><path class="cls-2" d="M333.82227,298.60156h3.06933v-5.14941H338.542v5.14941h3.92676v1.55078H338.542v10.72657c0,1.84863.39551,2.90429,1.97949,2.90429a6.24367,6.24367,0,0,0,1.7168-.19824v1.45215a5.78972,5.78972,0,0,1-2.04687.29785c-2.11231,0-3.29981-1.05664-3.29981-3.69726V300.15234h-3.06933Z"/><path class="cls-2" d="M345.833,290.7793h1.65039v3.20117H345.833Zm0,7.82226h1.65039v16.502H345.833Z"/><path class="cls-2" d="M366.26172,306.81934c0,4.58789-2.541,8.68066-7.459,8.68066-4.45605,0-7.22851-3.66406-7.22851-8.64746,0-4.71973,2.60742-8.64746,7.39355-8.64746C363.35742,298.20508,366.26172,301.6377,366.26172,306.81934Zm-12.9375.0332c0,3.92773,2.1123,7.0957,5.61035,7.0957,3.56445,0,5.57813-2.9375,5.57813-7.0957,0-3.89453-1.98047-7.09668-5.64356-7.09668C355.10645,299.75586,353.32422,302.8916,353.32422,306.85254Z"/><path class="cls-2" d="M370.35156,302.75977c0-1.45215,0-2.83887-.03222-4.15821h1.61718c.06543.52735.09864,2.67285.06543,3.13477a5.39067,5.39067,0,0,1,5.47852-3.53125c2.9375,0,5.54492,1.65039,5.54492,6.20508v10.69336H381.375V304.67383c0-2.9375-1.2207-4.85156-4.0918-4.85156-3.92773,0-5.28125,3.26757-5.28125,6.86523v8.416h-1.65039Z"/><path class="cls-3" d="M154.01071,212.06922a38.62965,38.62965,0,0,0,40.71582-34.12368c1.34991-11.68043-2.68131-23.33908-7.94751-33.852-8.81578-17.599-21.13036-33.16619-33.35486-48.59353h-1.43481c-12.2245,15.42734-24.53909,30.99457-33.35487,48.59353-5.2662,10.51293-9.29742,22.17158-7.94751,33.852a38.62965,38.62965,0,0,0,40.71582,34.12368"/><path class="cls-3" d="M154.01071,214.56922c20.4181.79139,39.13738-13.2819,42.7822-33.674,4.02125-22.49818-10.35773-44.94095-22.73659-62.44475-3.1653-4.47576-6.46262-8.85587-9.81365-13.19375q-2.28951-2.96378-4.6079-5.905c-1.439-1.82889-3.23331-5.40911-5.546-6.26241-3.489-1.28731-5.4748,2.66794-7.20067,4.85528-3.46287,4.38877-6.90539,8.79483-10.25641,13.26991-13.02842,17.39867-28.39471,38.81249-28.70293,61.48012-.32468,23.87739,19.83148,42.791,43.474,41.87461,3.20707-.12431,3.22314-5.12493,0-5-19.47966.755-36.93673-13.55427-38.37846-33.37544-1.39548-19.18527,10.65217-37.90107,21.113-53.02,5.66417-8.18634,11.92346-15.89046,17.95262-23.80112.48056-.63052.25855-1.3727.61679-1.3727.98758,0-.26317.34987.06111.67069a58.74356,58.74356,0,0,1,4.43884,5.62572c3.18629,4.06385,6.33781,8.15567,9.39184,12.32017,11.14185,15.19308,23.866,33.29381,25.69624,52.59028a36.73791,36.73791,0,0,1-38.28407,40.36236c-3.2178-.12472-3.21237,4.87549,0,5Z"/><path class="cls-3" d="M255.01071,212.06922a38.62965,38.62965,0,0,0,40.71582-34.12368c1.34991-11.68043-2.68131-23.33908-7.94751-33.852-8.81578-17.599-21.13036-33.16619-33.35486-48.59353h-1.43481c-12.2245,15.42734-24.53909,30.99457-33.35487,48.59353-5.2662,10.51293-9.29742,22.17158-7.94751,33.852a38.62965,38.62965,0,0,0,40.71582,34.12368"/><path class="cls-3" d="M255.01071,214.56922c20.4181.79139,39.13738-13.2819,42.7822-33.674,4.02125-22.49818-10.35773-44.94095-22.73659-62.44475-3.1653-4.47576-6.46262-8.85587-9.81365-13.19375q-2.28951-2.96378-4.6079-5.905c-1.439-1.82889-3.23331-5.40911-5.546-6.26241-3.489-1.28731-5.4748,2.66794-7.20067,4.85528-3.46287,4.38877-6.90539,8.79483-10.25641,13.26991-13.02842,17.39867-28.39471,38.81249-28.70293,61.48012-.32468,23.87739,19.83148,42.791,43.474,41.87461,3.20707-.12431,3.22314-5.12493,0-5-19.47966.755-36.93673-13.55427-38.37846-33.37544-1.39548-19.18527,10.65217-37.90107,21.113-53.02,5.66417-8.18634,11.92346-15.89046,17.95262-23.80112.48056-.63052.25855-1.3727.61679-1.3727.98758,0-.26317.34987.06111.67069a58.74356,58.74356,0,0,1,4.43884,5.62572c3.18629,4.06385,6.33781,8.15567,9.39184,12.32017,11.14185,15.19308,23.866,33.29381,25.69624,52.59028a36.73791,36.73791,0,0,1-38.28407,40.36236c-3.2178-.12472-3.21237,4.87549,0,5Z"/><path class="cls-3" d="M357.01071,212.06922a38.62965,38.62965,0,0,0,40.71582-34.12368c1.34991-11.68043-2.68131-23.33908-7.94751-33.852-8.81578-17.599-21.13036-33.16619-33.35486-48.59353h-1.43481c-12.2245,15.42734-24.53909,30.99457-33.35487,48.59353-5.2662,10.51293-9.29742,22.17158-7.94751,33.852a38.62965,38.62965,0,0,0,40.71582,34.12368"/><path class="cls-3" d="M357.01071,214.56922c20.4181.79139,39.13738-13.2819,42.7822-33.674,4.02125-22.49818-10.35773-44.94095-22.73659-62.44475-3.1653-4.47576-6.46262-8.85587-9.81365-13.19375q-2.28951-2.96378-4.6079-5.905c-1.439-1.82889-3.23331-5.40911-5.546-6.26241-3.489-1.28731-5.4748,2.66794-7.20067,4.85528-3.46287,4.38877-6.90539,8.79483-10.25641,13.26991-13.02842,17.39867-28.39471,38.81249-28.70293,61.48012-.32468,23.87739,19.83148,42.791,43.474,41.87461,3.20707-.12431,3.22314-5.12493,0-5-19.47966.755-36.93673-13.55427-38.37846-33.37544-1.39548-19.18527,10.65217-37.90107,21.113-53.02,5.66417-8.18634,11.92346-15.89046,17.95262-23.80112.48056-.63052.25855-1.3727.61679-1.3727.98758,0-.26317.34987.06111.67069a58.74356,58.74356,0,0,1,4.43884,5.62572c3.18629,4.06385,6.33781,8.15567,9.39184,12.32017,11.14185,15.19308,23.866,33.29381,25.69624,52.59028a36.73791,36.73791,0,0,1-38.28407,40.36236c-3.2178-.12472-3.21237,4.87549,0,5Z"/></svg>