<svg id="Layer_1" data-name="Layer 1" xmlns="http://www.w3.org/2000/svg" viewBox="0 0 516.1 516.0011"><defs><style>.cls-1{fill:#93278f;}.cls-2{fill:#fff;}.cls-3{fill:#2e3192;}.cls-4{fill:none;stroke:#000;stroke-linecap:round;stroke-miterlimit:10;stroke-width:22px;}.cls-5{fill:#b3b3b3;}</style></defs><title>soda4</title><path class="cls-1" d="M258,515.99945c-142.5,0-258-115.5-258-258a257.961,257.961,0,0,1,75.6-182.4c100.8-100.8,264.1-100.8,364.9,0s100.8,264.1,0,364.9A256.49776,256.49776,0,0,1,258,515.99945Z"/><path class="cls-2" d="M258,.5C400.3.6,515.5,116,515.4,258.2a257.624,257.624,0,0,1-157.2,237C227.1,550.5,76.1,489,20.8,357.9-34.4,227,26.9,76,157.7,20.6A258.09883,258.09883,0,0,1,258,.5m0-1C115.2-.5-.5,115.2-.5,258S115.2,516.5,258,516.5,516.5,400.8,516.5,258,400.8-.5,258-.5Z"/><path class="cls-2" d="M147.28955,266.01367l-3.20361,8.71094h-1.97949l9.25048-25.19629h2.30371l9.647,25.19629h-2.12354l-3.27588-8.71094Zm9.9707-1.7998c-2.80761-7.48682-4.24755-11.08643-4.75146-12.77783h-.03565c-.6123,1.9082-2.23193,6.37109-4.49951,12.77783Z"/><path class="cls-2" d="M167.19775,274.72461V248.19629h1.79981v26.52832Z"/><path class="cls-2" d="M188.36377,269.46973c0,1.76367.03564,4.57129.03564,5.25488h-1.72753a28.99571,28.99571,0,0,1-.10792-3.13184c-.75585,2.124-2.59179,3.56348-5.79541,3.56348-2.59179,0-5.90332-1.00781-5.90332-6.51465V256.72705h1.76368V268.209c0,2.62793.82812,5.1836,4.3916,5.1836,4.03174,0,5.54345-2.26758,5.54345-7.415v-9.25049h1.79981Z"/><path class="cls-2" d="M194.269,261.37012c0-1.54785,0-3.23877-.03613-4.64307h1.76367c.03613.61231.1084,2.15967.07227,3.20361a5.62959,5.62959,0,0,1,5.39941-3.63525,5.10869,5.10869,0,0,1,5.21924,3.563,6.12468,6.12468,0,0,1,5.86719-3.563c2.77148,0,5.65136,1.584,5.65136,6.58643v11.84277h-1.7998V263.09766c0-2.41114-.86377-5.03858-4.21143-5.03858-3.49169,0-5.07519,2.80713-5.07519,6.29834v10.36719h-1.76416V263.13379c0-2.62695-.79151-5.07471-4.10352-5.07471-3.49121,0-5.1831,3.09522-5.1831,6.76709v9.89844H194.269Z"/><path class="cls-2" d="M224.11279,248.19629h1.79981v3.4917h-1.79981Zm0,8.53076h1.79981v17.99756h-1.79981Z"/><path class="cls-2" d="M231.81641,261.2627c0-1.584,0-3.09522-.03614-4.53565H233.544c.07226.57617.10839,2.91553.07226,3.41943a5.87839,5.87839,0,0,1,5.9751-3.85107c3.20361,0,6.04736,1.7998,6.04736,6.76709v11.66211h-1.7998v-11.375c0-3.20313-1.332-5.29053-4.46338-5.29053-4.28369,0-5.75928,3.563-5.75928,7.48682v9.17871h-1.7998Z"/><path class="cls-2" d="M264.75488,269.46973c0,1.76367.03565,4.57129.03565,5.25488H263.063a28.99657,28.99657,0,0,1-.10791-3.13184c-.75586,2.124-2.5918,3.56348-5.79541,3.56348-2.5918,0-5.90332-1.00781-5.90332-6.51465V256.72705H253.02V268.209c0,2.62793.82812,5.1836,4.3916,5.1836,4.03174,0,5.54346-2.26758,5.54346-7.415v-9.25049h1.7998Z"/><path class="cls-2" d="M270.66016,261.37012c0-1.54785,0-3.23877-.03614-4.64307h1.76368c.03613.61231.10839,2.15967.07226,3.20361a5.6296,5.6296,0,0,1,5.39942-3.63525,5.10867,5.10867,0,0,1,5.21923,3.563,6.12469,6.12469,0,0,1,5.86719-3.563c2.77149,0,5.65137,1.584,5.65137,6.58643v11.84277h-1.79981V263.09766c0-2.41114-.86377-5.03858-4.21142-5.03858-3.4917,0-5.0752,2.80713-5.0752,6.29834v10.36719h-1.76416V263.13379c0-2.62695-.792-5.07471-4.10351-5.07471-3.49121,0-5.18311,3.09522-5.18311,6.76709v9.89844h-1.7998Z"/><path class="cls-2" d="M323.11084,269.43359c-.86426,3.167-2.95215,5.72266-6.9834,5.72266-4.49951,0-7.70312-3.34766-7.70312-9.3584,0-4.93164,2.62793-9.50244,7.91894-9.50244a6.43542,6.43542,0,0,1,6.76758,5.75928H321.2749c-.54-2.08789-1.9082-4.06787-4.96728-4.06787-3.81592,0-5.97559,3.23974-5.97559,7.73877,0,4.2832,2.01611,7.73925,5.79541,7.73925,2.62793,0,4.21192-1.332,5.14746-4.03125Z"/><path class="cls-2" d="M339.77783,271.30469a20.642,20.642,0,0,0,.252,3.41992h-1.72754a11.85646,11.85646,0,0,1-.32422-2.77148c-.61133,1.332-2.19532,3.20312-5.90332,3.20312-4.17481,0-5.97461-2.69922-5.97461-5.39941,0-3.959,3.05957-5.75879,8.459-5.75879H337.978v-1.83594c0-1.79981-.54-4.21045-4.64356-4.21045-3.63476,0-4.1748,1.90674-4.57129,3.38232h-1.7998c.21582-1.97949,1.44043-5.03857,6.40723-5.03857,4.10351,0,6.40722,1.72754,6.40722,5.687Zm-1.76367-5.75879h-3.52734c-3.99512,0-6.4795,1.04394-6.4795,4.13965,0,2.26758,1.62012,3.81543,4.13965,3.81543,5.14746,0,5.86719-3.41993,5.86719-7.30762Z"/><path class="cls-2" d="M345.71924,261.2627c0-1.584,0-3.09522-.03516-4.53565h1.76367c.07129.57617.10743,2.91553.07129,3.41943a5.87954,5.87954,0,0,1,5.97559-3.85107c3.2041,0,6.04687,1.7998,6.04687,6.76709v11.66211h-1.7998v-11.375c0-3.20313-1.33106-5.29053-4.46289-5.29053-4.2832,0-5.75977,3.563-5.75977,7.48682v9.17871h-1.7998Z"/><path class="cls-2" d="M365.33936,269.75684c.6123,2.33984,2.26855,3.74414,5.11132,3.74414,3.20411,0,4.5-1.47559,4.5-3.49219,0-2.05176-.86425-3.05957-4.8955-4.03125-4.64356-1.11524-5.79493-2.51953-5.79493-4.89551,0-2.4834,1.8711-4.78662,5.93848-4.78662,4.06836,0,6.01172,2.48291,6.29981,5.03857h-1.79981a4.242,4.242,0,0,0-4.57129-3.38232c-3.13183,0-4.03125,1.54639-4.03125,2.98682,0,1.65527.86328,2.4834,4.42676,3.34765,5.07519,1.22364,6.335,2.87989,6.335,5.5791,0,3.2754-2.66309,5.291-6.44238,5.291-4.10352,0-6.40723-2.15918-6.91114-5.39941Z"/><path class="cls-2" d="M150.35107,304.82227c0-3.02344-.03613-4.31934-.03613-4.89551h1.76367c.03614.57617.07227,1.72851.07227,4.03222a6.8176,6.8176,0,0,1,6.26318-4.46386v1.94336c-3.74365.25195-6.26318,2.84375-6.26318,7.12793v9.35839h-1.79981Z"/><path class="cls-2" d="M162.12305,309.1416c.03613,4.64356,2.37549,7.52344,5.83105,7.52344a5.06843,5.06843,0,0,0,5.1836-3.38379h1.83544a6.89991,6.89991,0,0,1-7.09082,5.0752c-5.47119,0-7.59521-4.71485-7.59521-9.28614,0-5.14746,2.55566-9.57519,7.811-9.57519,5.54346,0,7.30713,4.78711,7.30713,8.1709,0,.5039,0,1.00781-.03613,1.47558Zm11.41064-1.583c-.03613-3.56445-1.98-6.37207-5.50732-6.37207-3.70752,0-5.39942,2.5918-5.79541,6.37207Z"/><path class="cls-2" d="M192.10889,314.86523c-.86377,2.05176-2.55567,3.49122-6.15528,3.49122-4.13916,0-7.415-3.41895-7.415-9.21485,0-6.22656,3.67188-9.64648,7.88331-9.64648,3.67138,0,5.25537,1.7998,5.687,3.13183-.03614-.792.03613-1.76367.07226-2.70019h1.72754c-.03613,2.124-.03613,3.34765-.03613,5.0039V325.124h-1.76367Zm-11.6626-5.83105c0,3.92285,1.87207,7.63086,5.83154,7.63086,4.46338,0,5.90332-2.98731,5.90332-7.84668,0-4.75195-1.22412-7.5957-5.75927-7.5957C182.57031,301.22266,180.44629,304.49805,180.44629,309.03418Z"/><path class="cls-2" d="M213.24023,312.66992c0,1.76367.03565,4.57129.03565,5.25488h-1.72754a28.99647,28.99647,0,0,1-.10791-3.13183c-.75586,2.124-2.5918,3.56348-5.79541,3.56348-2.5918,0-5.90332-1.00782-5.90332-6.51465v-11.915h1.76367v11.48242c0,2.62793.82813,5.18359,4.3916,5.18359,4.03174,0,5.54346-2.26757,5.54346-7.415v-9.251h1.7998Z"/><path class="cls-2" d="M219.146,291.39648h1.7998v3.49122H219.146Zm0,8.53028h1.7998v17.998H219.146Z"/><path class="cls-2" d="M226.84961,304.82227c0-3.02344-.03613-4.31934-.03613-4.89551h1.76367c.03613.57617.07226,1.72851.07226,4.03222a6.81761,6.81761,0,0,1,6.26319-4.46386v1.94336c-3.74365.25195-6.26319,2.84375-6.26319,7.12793v9.35839h-1.7998Z"/><path class="cls-2" d="M238.62109,309.1416c.03614,4.64356,2.37549,7.52344,5.83106,7.52344a5.06841,5.06841,0,0,0,5.18359-3.38379h1.83545a6.89992,6.89992,0,0,1-7.09082,5.0752c-5.47119,0-7.59521-4.71485-7.59521-9.28614,0-5.14746,2.55566-9.57519,7.811-9.57519,5.54346,0,7.30713,4.78711,7.30713,8.1709,0,.5039,0,1.00781-.03613,1.47558Zm11.41065-1.583c-.03613-3.56445-1.98-6.37207-5.50733-6.37207-3.70752,0-5.39941,2.5918-5.79541,6.37207Z"/><path class="cls-2" d="M265.65723,291.39648h1.7998v11.55469c.86377-1.7998,2.62744-3.45605,6.15527-3.45605,4.24756,0,7.37891,3.49121,7.37891,9.03515,0,5.68653-2.80762,9.82618-7.84717,9.82618-3.02343,0-4.751-1.22364-5.687-3.2754,0,1.15235-.03613,2.33985-.07226,2.84375h-1.76368c.03614-2.05175.03614-4.10351.03614-6.15527Zm13.42627,17.16993c0-4.5-2.23194-7.37989-5.65137-7.37989-4.49951,0-6.083,3.05957-6.083,7.77539,0,4.24707,1.40381,7.70313,5.86719,7.70313C276.85156,316.665,279.0835,313.6416,279.0835,308.56641Z"/><path class="cls-2" d="M297.80273,314.50488a20.5174,20.5174,0,0,0,.25245,3.41992h-1.728a11.81156,11.81156,0,0,1-.32373-2.77148c-.61231,1.332-2.1958,3.20313-5.90332,3.20313-4.17578,0-5.97559-2.69922-5.97559-5.39942,0-3.959,3.05957-5.75879,8.459-5.75879h3.41992V305.3623c0-1.7998-.54-4.21093-4.64356-4.21093-3.63574,0-4.17578,1.90722-4.57129,3.38281h-1.7998c.21582-1.97949,1.43945-5.03906,6.40723-5.03906,4.103,0,6.40673,1.72754,6.40673,5.6875Zm-1.76367-5.75879h-3.52734c-3.99561,0-6.47949,1.04395-6.47949,4.13965,0,2.26758,1.62011,3.81543,4.13965,3.81543,5.14746,0,5.86718-3.41992,5.86718-7.30762Z"/><path class="cls-2" d="M316.99072,312.66992c0,1.76367.03565,4.57129.03565,5.25488h-1.72754a28.99647,28.99647,0,0,1-.10791-3.13183c-.75586,2.124-2.5918,3.56348-5.79541,3.56348-2.5918,0-5.90332-1.00782-5.90332-6.51465v-11.915h1.76367v11.48242c0,2.62793.82812,5.18359,4.3916,5.18359,4.03174,0,5.54346-2.26757,5.54346-7.415v-9.251h1.7998Z"/><path class="cls-2" d="M322.93213,299.92676c2.9873,4.42773,4.2832,6.40722,5.00293,7.4873h.03613c.86426-1.22363,2.66406-3.81543,5.25586-7.4873h2.05176l-6.26367,8.71094,6.37109,9.2871h-2.15918c-2.5918-3.85156-4.46387-6.58691-5.32812-7.84667h-.03614c-.68359,1.04394-2.30371,3.49121-5.25488,7.84667H320.52l6.37109-9.14257-6.083-8.85547Z"/><path class="cls-2" d="M338.87842,291.39648h1.7998v3.49122h-1.7998Zm0,8.53028h1.7998v17.998h-1.7998Z"/><path class="cls-2" d="M344.13428,299.92676h3.34765v-5.61524h1.79981v5.61524h4.2832v1.69238h-4.2832v11.69824c0,2.01563.43164,3.168,2.15918,3.168a6.78239,6.78239,0,0,0,1.87207-.2168v1.584a6.31737,6.31737,0,0,1-2.23145.32422c-2.30371,0-3.59961-1.15137-3.59961-4.03125V301.61914h-3.34765Z"/><path class="cls-2" d="M357.41846,309.1416c.03613,4.64356,2.376,7.52344,5.83105,7.52344a5.06888,5.06888,0,0,0,5.1836-3.38379H370.269a6.90074,6.90074,0,0,1-7.09179,5.0752c-5.47071,0-7.59473-4.71485-7.59473-9.28614,0-5.14746,2.55566-9.57519,7.81152-9.57519,5.543,0,7.30664,4.78711,7.30664,8.1709,0,.5039,0,1.00781-.03613,1.47558Zm11.41015-1.583c-.03613-3.56445-1.97949-6.37207-5.50683-6.37207-3.708,0-5.39942,2.5918-5.79492,6.37207Z"/><path class="cls-2" d="M105.74805,347.77051c0-1.54785,0-3.23926-.03614-4.64356h1.76368c.03613.61231.10839,2.16016.07226,3.2041a5.6293,5.6293,0,0,1,5.39942-3.63574,5.10851,5.10851,0,0,1,5.21923,3.56348,6.12428,6.12428,0,0,1,5.86719-3.56348c2.77149,0,5.65137,1.584,5.65137,6.58692V361.125h-1.79981v-11.627c0-2.41114-.86377-5.03907-4.21142-5.03907-3.4917,0-5.0752,2.80762-5.0752,6.29883V361.125h-1.76416V349.53418c0-2.62695-.792-5.0752-4.10351-5.0752-3.49121,0-5.18311,3.09571-5.18311,6.76758V361.125h-1.7998Z"/><path class="cls-2" d="M135.5918,334.59668h1.7998v3.49121h-1.7998Zm0,8.53027h1.7998v17.998h-1.7998Z"/><path class="cls-2" d="M143.29541,347.66309c0-1.584,0-3.09571-.03613-4.53614H145.023c.07226.57618.1084,2.916.07226,3.41993a5.87811,5.87811,0,0,1,5.9751-3.85157c3.20362,0,6.04737,1.79981,6.04737,6.76758V361.125h-1.79981V349.75c0-3.20312-1.332-5.291-4.46338-5.291-4.28369,0-5.75928,3.56348-5.75928,7.48731V361.125h-1.7998Z"/><path class="cls-2" d="M163.023,334.59668h1.7998v3.49121H163.023Zm0,8.53027h1.7998v17.998H163.023Z"/><path class="cls-2" d="M170.72656,347.66309c0-1.584,0-3.09571-.03613-4.53614h1.76367c.07227.57618.1084,2.916.07227,3.41993a5.8781,5.8781,0,0,1,5.97509-3.85157c3.20362,0,6.04737,1.79981,6.04737,6.76758V361.125H182.749V349.75c0-3.20312-1.332-5.291-4.46338-5.291-4.28369,0-5.75927,3.56348-5.75927,7.48731V361.125h-1.79981Z"/><path class="cls-2" d="M204.20459,359.90137c0,5.75879-2.55615,8.78222-7.77539,8.78222-4.6792,0-6.62305-2.62695-7.05518-5.36328H191.21c.648,2.48438,2.69971,3.67188,5.2915,3.67188,4.6792,0,5.9751-3.02344,5.9751-7.59473v-1.87207c-.97168,2.33984-2.73584,3.59961-6.01123,3.59961-4.21142,0-7.45117-3.41992-7.45117-8.999,0-6.04688,3.45557-9.43067,7.70313-9.43067,3.67138,0,5.25537,1.72754,5.75927,3.168.03614-1.04394.07178-2.30371.10791-2.73633h1.6919c0,.64844-.07178,3.49219-.07178,5.21973Zm-13.28271-7.84766c0,4.28418,2.26806,7.37988,5.72363,7.37988,4.499,0,5.86719-2.98828,5.86719-7.667,0-4.75195-1.43995-7.37988-5.75928-7.37988C192.61377,344.38672,190.92188,347.9502,190.92188,352.05371Z"/><path class="cls-2" d="M207.51807,365.22852a22.88948,22.88948,0,0,0,2.51953-8.71094h1.7998a22.51975,22.51975,0,0,1-2.6997,8.71094Z"/><path class="cls-2" d="M225.87744,343.127c2.66358,9.28711,4.21143,14.61426,4.499,16.19825h.03614c.28808-1.43946,2.08789-7.09082,4.89551-16.19825H237.252c3.34766,11.123,4.35547,14.32618,4.6792,15.73047h.03614c.5039-1.97949,1.332-4.67969,4.64355-15.73047h1.90771l-5.6875,17.998h-1.97949c-1.94385-6.37109-4.28369-14.18262-4.64355-15.83789h-.03613c-.35987,1.76367-2.41163,8.207-4.75147,15.83789h-2.15967l-5.291-17.998Z"/><path class="cls-2" d="M254.06494,334.59668v11.55371a6.27813,6.27813,0,0,1,5.939-3.45508c2.55615,0,6.08349,1.2959,6.08349,6.9834V361.125h-1.7998V350.03809c0-3.56348-1.61963-5.57911-4.60742-5.57911-3.56348,0-5.61524,2.19629-5.61524,6.623v10.043h-1.7998V334.59668Z"/><path class="cls-2" d="M271.99268,334.59668h1.7998v3.49121h-1.7998Zm0,8.53027h1.7998v17.998h-1.7998Z"/><path class="cls-2" d="M292.94238,355.834c-.86377,3.167-2.95166,5.72266-6.98291,5.72266-4.49951,0-7.70312-3.34766-7.70312-9.3584,0-4.93164,2.62793-9.50293,7.91894-9.50293a6.43456,6.43456,0,0,1,6.76709,5.75977h-1.83545c-.54-2.08789-1.90771-4.06836-4.96728-4.06836-3.81592,0-5.97559,3.24023-5.97559,7.73926,0,4.2832,2.01612,7.73925,5.79541,7.73925,2.62744,0,4.21143-1.332,5.14746-4.03125Z"/><path class="cls-2" d="M298.91992,334.59668v11.55371a6.27813,6.27813,0,0,1,5.939-3.45508c2.55566,0,6.08349,1.2959,6.08349,6.9834V361.125h-1.7998V350.03809c0-3.56348-1.61963-5.57911-4.60742-5.57911-3.56348,0-5.61524,2.19629-5.61524,6.623v10.043h-1.7998V334.59668Z"/><path class="cls-2" d="M326.20654,334.59668h1.79981v3.49121h-1.79981Zm0,8.53027h1.79981v17.998h-1.79981Z"/><path class="cls-2" d="M333.731,356.15723c.6123,2.33984,2.26855,3.74414,5.1123,3.74414,3.20313,0,4.499-1.47559,4.499-3.49219,0-2.05176-.86426-3.05957-4.89551-4.03125-4.64356-1.11523-5.79492-2.51953-5.79492-4.89551,0-2.4834,1.87109-4.78711,5.93847-4.78711,4.06836,0,6.01172,2.4834,6.29981,5.03907h-1.79981a4.24233,4.24233,0,0,0-4.57129-3.38282c-3.13183,0-4.03125,1.54688-4.03125,2.98731,0,1.65527.86328,2.4834,4.42676,3.34765,5.0752,1.22364,6.335,2.87989,6.335,5.57911,0,3.27539-2.66308,5.291-6.44238,5.291-4.10352,0-6.40723-2.15918-6.91113-5.39941Z"/><path class="cls-2" d="M356.37451,343.127h3.34766v-5.61523h1.7998V343.127h4.28321v1.69239H361.522v11.69824c0,2.01562.43164,3.168,2.15918,3.168a6.78277,6.78277,0,0,0,1.87207-.2168v1.584a6.31708,6.31708,0,0,1-2.23144.32422c-2.30371,0-3.59961-1.15136-3.59961-4.03125V344.81934h-3.34766Z"/><path class="cls-2" d="M383.84131,352.08984c0,5.00391-2.77246,9.4668-8.13574,9.4668-4.85938,0-7.88282-3.99512-7.88282-9.43066,0-5.14746,2.84375-9.43067,8.06348-9.43067C380.67334,342.69531,383.84131,346.43848,383.84131,352.08984ZM369.731,352.126c0,4.2832,2.30371,7.73925,6.11914,7.73925,3.88769,0,6.083-3.2041,6.083-7.73925,0-4.24707-2.16016-7.73926-6.15528-7.73926C371.67432,344.38672,369.731,347.80664,369.731,352.126Z"/><path class="cls-2" d="M387.98193,343.127c2.98731,4.42774,4.28321,6.40723,5.00293,7.48731h.03614c.86425-1.22363,2.66406-3.81543,5.25586-7.48731h2.05078l-6.2627,8.71094,6.3711,9.28711h-2.15918c-2.5918-3.85156-4.46387-6.58691-5.32813-7.84668h-.03613c-.6836,1.04395-2.30371,3.49121-5.25489,7.84668h-2.08789l6.3711-9.14258-6.083-8.85547Z"/><path class="cls-2" d="M403.92822,334.59668H405.728v3.49121h-1.79981Zm0,8.53027H405.728v17.998h-1.79981Z"/><path class="cls-2" d="M424.87939,355.834c-.86425,3.167-2.95214,5.72266-6.98339,5.72266-4.499,0-7.70313-3.34766-7.70313-9.3584,0-4.93164,2.62793-9.50293,7.91895-9.50293a6.43576,6.43576,0,0,1,6.76757,5.75977h-1.83593c-.54-2.08789-1.90821-4.06836-4.96778-4.06836-3.81543,0-5.97461,3.24023-5.97461,7.73926,0,4.2832,2.01563,7.73925,5.79493,7.73925,2.62793,0,4.21191-1.332,5.14746-4.03125Z"/><path class="cls-3" d="M-207.89326,943.0618c-142.5,0-258-115.5-258-258a257.961,257.961,0,0,1,75.6-182.4c100.8-100.8,264.1-100.8,364.9,0s100.8,264.1,0,364.9A256.49775,256.49775,0,0,1-207.89326,943.0618Z"/><line class="cls-4" x1="212.95903" y1="100.50969" x2="337.65875" y2="225.20941"/><path class="cls-5" d="M177.1421,188.52814S223.06192,109.807,300.97748,68.84871C300.97748,68.84871,200.84265,83.08243,177.1421,188.52814Z"/></svg>