<svg id="Layer_1" data-name="Layer 1" xmlns="http://www.w3.org/2000/svg" viewBox="0 0 516.1 516.0011"><defs><style>.cls-1{fill:#2e3192;}.cls-2{fill:#fff;}.cls-3{fill:#bebcbd;}.cls-4{fill:#b96300;}.cls-5,.cls-6{fill:none;stroke:#666;stroke-miterlimit:10;}.cls-6{stroke-width:0.75px;}</style></defs><title>soda1</title><path class="cls-1" d="M258,515.99945c-142.5,0-258-115.5-258-258a257.961,257.961,0,0,1,75.6-182.4c100.8-100.8,264.1-100.8,364.9,0s100.8,264.1,0,364.9A256.49776,256.49776,0,0,1,258,515.99945Z"/><path class="cls-2" d="M258,.5C400.3.6,515.5,116,515.4,258.2a257.624,257.624,0,0,1-157.2,237C227.1,550.5,76.1,489,20.8,357.9-34.4,227,26.9,76,157.7,20.6A258.09883,258.09883,0,0,1,258,.5m0-1C115.2-.5-.5,115.2-.5,258S115.2,516.5,258,516.5,516.5,400.8,516.5,258,400.8-.5,258-.5Z"/><path class="cls-2" d="M130.251,269.26758h8.35107c6.91113,0,11.69873,4.82422,11.69873,12.38281,0,7.52344-4.67969,12.81445-11.73486,12.81445H130.251Zm1.94384,23.39746h6.0835c6.65918,0,9.93457-4.67969,9.93457-10.90625,0-5.54395-2.95166-10.69141-9.93457-10.69141h-6.0835Z"/><path class="cls-2" d="M155.667,285.68164c.03614,4.64356,2.37549,7.52344,5.83106,7.52344a5.06841,5.06841,0,0,0,5.18359-3.38379h1.83545a6.89992,6.89992,0,0,1-7.09082,5.07519c-5.47119,0-7.59522-4.71484-7.59522-9.28613,0-5.14746,2.55567-9.57519,7.811-9.57519,5.54346,0,7.30713,4.78711,7.30713,8.17089,0,.50391,0,1.00782-.03613,1.47559Zm11.41065-1.583c-.03614-3.56445-1.98-6.37207-5.50733-6.37207-3.70752,0-5.39941,2.5918-5.79541,6.37207Z"/><path class="cls-2" d="M173.34326,281.11035c0-1.54785,0-3.23926-.03613-4.64355h1.76367c.03613.6123.1084,2.16015.07227,3.2041a5.62929,5.62929,0,0,1,5.39941-3.63574,5.10852,5.10852,0,0,1,5.21924,3.56347,6.12426,6.12426,0,0,1,5.86719-3.56347c2.77148,0,5.65136,1.584,5.65136,6.58691v11.84277h-1.7998V282.83789c0-2.41113-.86377-5.03906-4.21143-5.03906-3.4917,0-5.07519,2.80762-5.07519,6.2998v10.36621h-1.76416V282.874c0-2.62695-.792-5.07519-4.10352-5.07519-3.49121,0-5.1831,3.0957-5.1831,6.76758v9.89843h-1.79981Z"/><path class="cls-2" d="M215.31738,291.04492a20.5878,20.5878,0,0,0,.252,3.41992H213.8418a11.81041,11.81041,0,0,1-.32373-2.77148c-.61231,1.332-2.1958,3.20312-5.90332,3.20312-4.17579,0-5.97559-2.69921-5.97559-5.39941,0-3.959,3.05957-5.75879,8.459-5.75879h3.41993v-1.83594c0-1.7998-.54-4.21093-4.64356-4.21093-3.63574,0-4.17578,1.90722-4.57129,3.38281h-1.7998c.21582-1.97949,1.43945-5.03906,6.40722-5.03906,4.103,0,6.40674,1.72754,6.40674,5.6875Zm-1.76367-5.75879h-3.52734c-3.99561,0-6.47949,1.04395-6.47949,4.13965,0,2.26758,1.62011,3.81543,4.13964,3.81543,5.14746,0,5.86719-3.41992,5.86719-7.30762Z"/><path class="cls-2" d="M221.25879,281.00293c0-1.584,0-3.0957-.03613-4.53613h1.76367c.07226.57617.1084,2.916.07226,3.41992a5.87811,5.87811,0,0,1,5.9751-3.85156c3.20361,0,6.04736,1.7998,6.04736,6.76757v11.66211h-1.7998v-11.375c0-3.20312-1.332-5.291-4.46338-5.291-4.28369,0-5.75928,3.56347-5.75928,7.4873v9.17871h-1.7998Z"/><path class="cls-2" d="M254.88086,267.93652v21.34473c0,1.72754,0,3.38379.03613,5.18359h-1.72754c-.07226-.43164-.1084-2.124-.1084-3.02343-.8999,2.19531-2.91552,3.45507-6.04687,3.45507-4.67969,0-7.4873-3.81543-7.4873-9.21484,0-5.543,3.05957-9.64648,7.95507-9.64648,3.59961,0,5.03955,1.54785,5.5791,2.69922V267.93652Zm-13.42627,17.67383c0,4.93067,2.55566,7.59473,5.65137,7.59473,4.75146,0,6.04736-3.27539,6.04736-8.1709,0-4.64355-1.11572-7.30762-5.72314-7.30762C243.86621,277.72656,241.45459,280.57031,241.45459,285.61035Z"/><path class="cls-2" d="M270.61377,294.46484V278.15918h-3.0957V276.4668h3.0957v-2.55567c0-3.02343.86426-6.335,4.89551-6.335a6.74032,6.74032,0,0,1,1.76367.252v1.72753a8.96323,8.96323,0,0,0-1.94385-.21582c-2.12353,0-2.91553,1.51172-2.91553,4.64356v2.4834h3.92383v1.69238h-3.92383v16.30566Z"/><path class="cls-2" d="M293.75977,285.42969c0,5.0039-2.77149,9.46679-8.13477,9.46679-4.85937,0-7.8833-3.99511-7.8833-9.43066,0-5.14746,2.84375-9.43066,8.063-9.43066C290.59229,276.03516,293.75977,279.77832,293.75977,285.42969Zm-14.11036.03613c0,4.2832,2.30372,7.73926,6.11914,7.73926,3.8877,0,6.0835-3.2041,6.0835-7.73926,0-4.24707-2.15967-7.73926-6.15527-7.73926C281.59326,277.72656,279.64941,281.14648,279.64941,285.46582Z"/><path class="cls-2" d="M298.2251,281.3623c0-3.02343-.03614-4.31933-.03614-4.8955h1.76368c.03613.57617.07226,1.72851.07226,4.03222a6.81761,6.81761,0,0,1,6.26319-4.46386v1.94336c-3.74366.252-6.26319,2.84375-6.26319,7.12793v9.35839h-1.7998Z"/><path class="cls-2" d="M319.24805,289.49707c.6123,2.33984,2.26855,3.74414,5.1123,3.74414,3.20313,0,4.499-1.47558,4.499-3.49219,0-2.05175-.86426-3.05957-4.89551-4.03125-4.64356-1.11523-5.79492-2.51953-5.79492-4.8955,0-2.4834,1.87109-4.78711,5.93847-4.78711,4.06836,0,6.01172,2.48339,6.29981,5.03906h-1.79981a4.24233,4.24233,0,0,0-4.57129-3.38281c-3.13183,0-4.03125,1.54687-4.03125,2.9873,0,1.65527.86328,2.4834,4.42676,3.34766,5.0752,1.22363,6.335,2.87988,6.335,5.5791,0,3.27539-2.66308,5.291-6.44238,5.291-4.10352,0-6.40723-2.15918-6.91113-5.39941Z"/><path class="cls-2" d="M349.81055,285.42969c0,5.0039-2.77246,9.46679-8.13575,9.46679-4.85937,0-7.88281-3.99511-7.88281-9.43066,0-5.14746,2.84375-9.43066,8.06348-9.43066C346.64258,276.03516,349.81055,279.77832,349.81055,285.42969Zm-14.11035.03613c0,4.2832,2.30371,7.73926,6.11914,7.73926,3.88769,0,6.083-3.2041,6.083-7.73926,0-4.24707-2.16015-7.73926-6.15527-7.73926C337.64355,277.72656,335.7002,281.14648,335.7002,285.46582Z"/><path class="cls-2" d="M368.38574,267.93652v21.34473c0,1.72754,0,3.38379.03614,5.18359h-1.72754c-.07227-.43164-.1084-2.124-.1084-3.02343-.89942,2.19531-2.915,3.45507-6.04688,3.45507-4.67968,0-7.4873-3.81543-7.4873-9.21484,0-5.543,3.05957-9.64648,7.95508-9.64648,3.59961,0,5.03906,1.54785,5.5791,2.69922V267.93652ZM354.96,285.61035c0,4.93067,2.55567,7.59473,5.65137,7.59473,4.751,0,6.04687-3.27539,6.04687-8.1709,0-4.64355-1.11621-7.30762-5.72363-7.30762C357.37109,277.72656,354.96,280.57031,354.96,285.61035Z"/><path class="cls-2" d="M386.38574,291.04492a20.64192,20.64192,0,0,0,.252,3.41992h-1.72754a11.85646,11.85646,0,0,1-.32422-2.77148c-.61133,1.332-2.19531,3.20312-5.90332,3.20312-4.17481,0-5.97461-2.69921-5.97461-5.39941,0-3.959,3.05957-5.75879,8.459-5.75879h3.41895v-1.83594c0-1.7998-.54-4.21093-4.64356-4.21093-3.63476,0-4.1748,1.90722-4.57129,3.38281h-1.7998c.21582-1.97949,1.44043-5.03906,6.40723-5.03906,4.10351,0,6.40722,1.72754,6.40722,5.6875Zm-1.76367-5.75879h-3.52734c-3.99512,0-6.4795,1.04395-6.4795,4.13965,0,2.26758,1.62012,3.81543,4.13965,3.81543,5.14746,0,5.86719-3.41992,5.86719-7.30762Z"/><path class="cls-1" d="M-207.89326,943.0618c-142.5,0-258-115.5-258-258a257.961,257.961,0,0,1,75.6-182.4c100.8-100.8,264.1-100.8,364.9,0s100.8,264.1,0,364.9A256.49775,256.49775,0,0,1-207.89326,943.0618Z"/><path class="cls-3" d="M235.02641,209.71174l5.29985,8.21477s29.28169,8.08228,54.32349,0l3.03417-8.21477Z"/><path class="cls-4" d="M236.82173,101.07948l-5.66421,10.8647v97.51729s39.33153,20.40443,70.39529,0V110.61921l-5.90271-9.53973Z"/><ellipse class="cls-3" cx="266.35516" cy="102.00894" rx="30.73915" ry="6.88782"/><path class="cls-5" d="M258.05,100.47753s15.65225-6.382,17.89944,0c0,0,1.76326,9.618-17.99477,3.05618Z"/><line class="cls-6" x1="268.56027" y1="97.73235" x2="268.56027" y2="105.82499"/></svg>