<svg id="Layer_1" data-name="Layer 1" xmlns="http://www.w3.org/2000/svg" viewBox="0 0 226.52897 734.5"><defs><style>.cls-1{fill:#231f20;}.cls-2{fill:#ec1b24;}.cls-3{fill:#cccdcf;}.cls-4{fill:#ec1c24;}</style></defs><title>soda</title><path class="cls-1" d="M3.889,402.5s-11,37,4,61c0,0,8,125-4,167,0,0-17,56,23,101l34,3,13-14,15,14h52l12-13,12,13h34s32-51,26-91c0,0-30-123,1-194,0,0,4-35-8-47S3.889,402.5,3.889,402.5Z"/><path class="cls-1" d="M7.889,256.5s-28-30,37-114c0,0,71,24,129,0,0,0,73,71,45,110S7.889,256.5,7.889,256.5Z"/><path class="cls-2" d="M2.889,250.5s93,31,221,0v154s-93.37413,30.82253-204.16559,4.42674q-4.64182-1.10591-9.32275-2.34764Q6.65584,405.58475,2.889,404.5Z"/><path class="cls-3" d="M44.889,142.5s27-44,30-88c0,0,34,3,66,0l33,88S113.889,166.5,44.889,142.5Z"/><path class="cls-4" d="M68.389,54s41,8,82,0V1l-81-1Z"/></svg>