<svg id="Layer_1" data-name="Layer 1" xmlns="http://www.w3.org/2000/svg" viewBox="0 0 516.1 516.0011"><defs><style>.cls-1{fill:#93278f;}.cls-2{fill:#fff;}.cls-3{fill:#2e3192;}.cls-4{fill:#cccdcf;}.cls-5{fill:#ec1b24;}.cls-6{fill:#ec1c24;}</style></defs><title>soda2</title><path class="cls-1" d="M258,515.99945c-142.5,0-258-115.5-258-258a257.961,257.961,0,0,1,75.6-182.4c100.8-100.8,264.1-100.8,364.9,0s100.8,264.1,0,364.9A256.49776,256.49776,0,0,1,258,515.99945Z"/><path class="cls-2" d="M258,.5C400.3.6,515.5,116,515.4,258.2a257.624,257.624,0,0,1-157.2,237C227.1,550.5,76.1,489,20.8,357.9-34.4,227,26.9,76,157.7,20.6A258.09883,258.09883,0,0,1,258,.5m0-1C115.2-.5-.5,115.2-.5,258S115.2,516.5,258,516.5,516.5,400.8,516.5,258,400.8-.5,258-.5Z"/><path class="cls-2" d="M188.87109,241.76172h8.78321c4.82324,0,7.415,2.55566,7.415,6.19141a5.4449,5.4449,0,0,1-3.8877,5.50781,6.37025,6.37025,0,0,1,4.78809,6.22656c0,5.04-3.78028,7.27148-8.1709,7.27148h-8.92774Zm8.13575,10.835c4.35546,0,6.01074-1.62012,6.01074-4.53516,0-2.48339-1.72754-4.5-5.25488-4.5h-6.9834v9.03516Zm-6.22754,12.5625h7.09082c3.31152,0,6.084-1.65625,6.084-5.36328,0-3.20313-2.05176-5.39942-7.12793-5.39942H190.7793Z"/><path class="cls-2" d="M210.86719,240.43066h1.7998v3.49122h-1.7998Zm0,8.53028h1.7998v17.998h-1.7998Z"/><path class="cls-2" d="M218.57129,266.959V240.43066h1.7998V266.959Z"/><path class="cls-2" d="M226.27441,266.959V240.43066h1.79981V266.959Z"/><path class="cls-2" d="M233.97852,240.43066h1.7998v3.49122h-1.7998Zm0,8.53028h1.7998v17.998h-1.7998Z"/><path class="cls-2" d="M256.25977,257.92383c0,5.0039-2.77149,9.4668-8.13477,9.4668-4.85937,0-7.88281-3.99512-7.88281-9.43067,0-5.14746,2.84375-9.43066,8.0625-9.43066C253.09277,248.5293,256.25977,252.27246,256.25977,257.92383Zm-14.11036.03613c0,4.2832,2.30372,7.73926,6.11914,7.73926,3.8877,0,6.084-3.2041,6.084-7.73926,0-4.24707-2.16016-7.73926-6.15527-7.73926C244.09375,250.2207,242.14941,253.64063,242.14941,257.96Z"/><path class="cls-2" d="M260.72559,253.49707c0-1.584,0-3.0957-.03614-4.53613h1.76368c.07226.57617.10839,2.916.07226,3.41992a5.87833,5.87833,0,0,1,5.97559-3.85156c3.20312,0,6.04687,1.7998,6.04687,6.76758V266.959h-1.7998V255.584c0-3.20312-1.332-5.291-4.46289-5.291-4.28418,0-5.75977,3.56348-5.75977,7.4873V266.959h-1.7998Z"/><path class="cls-2" d="M280.3457,261.99121c.61231,2.33984,2.26758,3.74414,5.11133,3.74414,3.2041,0,4.5-1.47558,4.5-3.49219,0-2.05175-.86426-3.05957-4.89551-4.03125-4.64355-1.11523-5.79589-2.51953-5.79589-4.8955,0-2.4834,1.87207-4.78711,5.93945-4.78711s6.01172,2.4834,6.2998,5.03906h-1.7998a4.24233,4.24233,0,0,0-4.57129-3.38281c-3.13184,0-4.03223,1.54687-4.03223,2.9873,0,1.65528.86426,2.4834,4.42774,3.34766,5.07519,1.22363,6.335,2.87988,6.335,5.5791,0,3.27539-2.66309,5.291-6.44336,5.291-4.10352,0-6.40723-2.15918-6.91113-5.39942Z"/><path class="cls-2" d="M320.26758,257.92383c0,5.0039-2.77246,9.4668-8.13574,9.4668-4.85938,0-7.88282-3.99512-7.88282-9.43067,0-5.14746,2.84375-9.43066,8.0625-9.43066C317.09961,248.5293,320.26758,252.27246,320.26758,257.92383Zm-14.11133.03613c0,4.2832,2.30371,7.73926,6.11914,7.73926,3.8877,0,6.084-3.2041,6.084-7.73926,0-4.24707-2.16016-7.73926-6.15528-7.73926C308.10059,250.2207,306.15625,253.64063,306.15625,257.96Z"/><path class="cls-2" d="M325.48926,266.959V250.65332h-3.09571v-1.69238h3.09571v-2.55567c0-3.02343.86328-6.335,4.89551-6.335a6.75249,6.75249,0,0,1,1.76367.252v1.72753a8.96765,8.96765,0,0,0-1.94434-.21582c-2.123,0-2.915,1.51172-2.915,4.64356v2.4834h3.92285v1.69238h-3.92285V266.959Z"/><path class="cls-2" d="M130.04785,305.19141c.61231,2.33984,2.26758,3.74414,5.11133,3.74414,3.2041,0,4.5-1.47559,4.5-3.49219,0-2.05176-.86426-3.05957-4.89551-4.03125-4.64355-1.11523-5.7959-2.51953-5.7959-4.89551,0-2.4834,1.87207-4.78711,5.93946-4.78711s6.01172,2.4834,6.2998,5.03906h-1.7998a4.24233,4.24233,0,0,0-4.57129-3.38281c-3.13184,0-4.03223,1.54688-4.03223,2.98731,0,1.65527.86426,2.4834,4.42774,3.34765,5.07519,1.22364,6.335,2.87989,6.335,5.5791,0,3.2754-2.66309,5.291-6.44336,5.291-4.10352,0-6.40723-2.15918-6.91114-5.39941Z"/><path class="cls-2" d="M146.03125,283.63086h1.7998v3.49121h-1.7998Zm0,8.53027h1.7998v17.998h-1.7998Z"/><path class="cls-2" d="M153.73535,296.69727c0-1.584,0-3.09571-.03613-4.53614h1.76367c.07227.57617.1084,2.916.07227,3.41992a5.87787,5.87787,0,0,1,5.97461-3.85156c3.2041,0,6.04785,1.79981,6.04785,6.76758v11.66211h-1.79981v-11.375c0-3.20313-1.332-5.291-4.46386-5.291-4.28321,0-5.75879,3.56348-5.75879,7.48731v9.17871h-1.79981Z"/><path class="cls-2" d="M187.21289,308.93555c0,5.75879-2.55566,8.78222-7.77539,8.78222-4.67871,0-6.62305-2.62695-7.05469-5.36328h1.83594c.64746,2.48438,2.69922,3.67188,5.291,3.67188,4.67968,0,5.97558-3.02344,5.97558-7.59473v-1.87207c-.97168,2.33984-2.73633,3.59961-6.01172,3.59961-4.21093,0-7.45117-3.41992-7.45117-8.999,0-6.04688,3.45606-9.43067,7.70313-9.43067,3.67187,0,5.25586,1.72754,5.75976,3.168.03613-1.04394.07129-2.30371.10742-2.73633h1.69239c0,.64844-.07227,3.49219-.07227,5.21973Zm-13.28223-7.84766c0,4.28418,2.26758,7.37988,5.72364,7.37988,4.499,0,5.86718-2.98828,5.86718-7.667,0-4.75195-1.44043-7.37988-5.75976-7.37988C175.62207,293.4209,173.93066,296.98438,173.93066,301.08789Z"/><path class="cls-2" d="M193.11816,310.15918V283.63086H194.918v26.52832Z"/><path class="cls-2" d="M201.21777,301.376c.03614,4.64355,2.376,7.52343,5.83106,7.52343a5.068,5.068,0,0,0,5.18359-3.38378h1.83594a6.90035,6.90035,0,0,1-7.09082,5.07519c-5.47168,0-7.5957-4.71484-7.5957-9.28613,0-5.14746,2.55566-9.5752,7.81152-9.5752,5.543,0,7.30664,4.78711,7.30664,8.1709,0,.50391,0,1.00781-.03613,1.47559Zm11.41114-1.584c-.03614-3.56347-1.98047-6.37109-5.50782-6.37109-3.707,0-5.39941,2.5918-5.79492,6.37109Z"/><path class="cls-2" d="M227.82031,300.08008v1.76367H218.75v-1.76367Z"/><path class="cls-2" d="M246.39551,304.9043c0,1.76367.03613,4.57129.03613,5.25488H244.7041a28.82486,28.82486,0,0,1-.1084-3.13184c-.75586,2.124-2.59179,3.56348-5.79492,3.56348-2.5918,0-5.90332-1.00781-5.90332-6.51465v-11.915h1.76367v11.48242c0,2.62793.82813,5.1836,4.3916,5.1836,4.03125,0,5.543-2.26758,5.543-7.415v-9.251h1.79981Z"/><path class="cls-2" d="M252.085,305.19141c.61231,2.33984,2.26758,3.74414,5.11133,3.74414,3.2041,0,4.5-1.47559,4.5-3.49219,0-2.05176-.86426-3.05957-4.89551-4.03125-4.64355-1.11523-5.7959-2.51953-5.7959-4.89551,0-2.4834,1.87207-4.78711,5.93946-4.78711s6.01171,2.4834,6.2998,5.03906h-1.7998a4.24233,4.24233,0,0,0-4.57129-3.38281c-3.13184,0-4.03223,1.54688-4.03223,2.98731,0,1.65527.86426,2.4834,4.42773,3.34765,5.0752,1.22364,6.335,2.87989,6.335,5.5791,0,3.2754-2.66309,5.291-6.44336,5.291-4.10352,0-6.40723-2.15918-6.91114-5.39941Z"/><path class="cls-2" d="M268.46484,301.376c.03614,4.64355,2.375,7.52343,5.83106,7.52343a5.06887,5.06887,0,0,0,5.18359-3.38378h1.835a6.89951,6.89951,0,0,1-7.09082,5.07519c-5.4707,0-7.59472-4.71484-7.59472-9.28613,0-5.14746,2.55566-9.5752,7.81054-9.5752,5.54395,0,7.30762,4.78711,7.30762,8.1709,0,.50391,0,1.00781-.03613,1.47559Zm11.41016-1.584c-.03613-3.56347-1.97949-6.37109-5.50684-6.37109-3.708,0-5.39941,2.5918-5.79589,6.37109Z"/><path class="cls-2" d="M297.30078,307.49512v9.86328H295.501V296.58887c0-1.47559,0-3.05957-.03614-4.42774h1.76368c.07226.68457.07226,1.76367.07226,3.24024a6.61088,6.61088,0,0,1,6.335-3.67188c4.24707,0,7.19922,3.56348,7.19922,8.96289,0,6.4795-3.45605,9.89844-7.81152,9.89844C299.85645,310.59082,298.2002,309.1875,297.30078,307.49512Zm11.626-6.73047c0-4.17578-2.01563-7.30762-5.5791-7.30762-4.35547,0-6.15528,2.73633-6.15528,7.63086,0,4.82422,1.4043,7.81152,5.90332,7.81152C306.83887,308.89941,308.92676,305.73145,308.92676,300.76465Z"/><path class="cls-2" d="M315.33594,310.15918V283.63086h1.7998v26.52832Z"/><path class="cls-2" d="M335.13477,306.73926a20.64348,20.64348,0,0,0,.252,3.41992h-1.72754a11.85762,11.85762,0,0,1-.32422-2.77148c-.61133,1.332-2.19531,3.20312-5.90332,3.20312-4.1748,0-5.97461-2.69922-5.97461-5.39941,0-3.959,3.05957-5.75879,8.459-5.75879H333.335v-1.83594c0-1.7998-.54-4.21094-4.64355-4.21094-3.63477,0-4.17481,1.90723-4.57129,3.38281h-1.79981c.21582-1.97949,1.44043-5.03906,6.40723-5.03906,4.10351,0,6.40723,1.72754,6.40723,5.6875Zm-1.76368-5.75879h-3.52734c-3.99512,0-6.47949,1.04394-6.47949,4.13965,0,2.26758,1.62012,3.81543,4.13965,3.81543,5.14746,0,5.86718-3.41992,5.86718-7.30762Z"/><path class="cls-2" d="M340.89648,305.19141c.61231,2.33984,2.26856,3.74414,5.11133,3.74414,3.2041,0,4.5-1.47559,4.5-3.49219,0-2.05176-.86426-3.05957-4.89551-4.03125-4.64355-1.11523-5.79492-2.51953-5.79492-4.89551,0-2.4834,1.8711-4.78711,5.93848-4.78711,4.06836,0,6.01172,2.4834,6.2998,5.03906h-1.7998a4.24233,4.24233,0,0,0-4.57129-3.38281c-3.13184,0-4.03125,1.54688-4.03125,2.98731,0,1.65527.86328,2.4834,4.42676,3.34765,5.07519,1.22364,6.335,2.87989,6.335,5.5791,0,3.2754-2.66309,5.291-6.44238,5.291-4.10352,0-6.40723-2.15918-6.91114-5.39941Z"/><path class="cls-2" d="M354.07324,292.16113h3.34766V286.5459h1.7998v5.61523h4.28321v1.69239H359.2207v11.69824c0,2.01562.43164,3.168,2.15918,3.168a6.78277,6.78277,0,0,0,1.87207-.2168v1.584a6.317,6.317,0,0,1-2.23144.32422c-2.30371,0-3.59961-1.15136-3.59961-4.03125V293.85352h-3.34766Z"/><path class="cls-2" d="M367.17578,283.63086h1.79981v3.49121h-1.79981Zm0,8.53027h1.79981v17.998h-1.79981Z"/><path class="cls-2" d="M388.126,304.86816c-.86426,3.167-2.95215,5.72266-6.9834,5.72266-4.499,0-7.70313-3.34766-7.70313-9.3584,0-4.93164,2.62793-9.50293,7.91895-9.50293a6.43578,6.43578,0,0,1,6.76758,5.75977H386.29c-.54-2.08789-1.9082-4.06836-4.96777-4.06836-3.81543,0-5.97461,3.24023-5.97461,7.73926,0,4.2832,2.01562,7.73925,5.79492,7.73925,2.62793,0,4.21191-1.332,5.14746-4.03125Z"/><path class="cls-2" d="M123.85645,326.83008h1.7998v11.55371c.86328-1.79883,2.62695-3.45508,6.15527-3.45508,4.24707,0,7.37891,3.49121,7.37891,9.03516,0,5.68652-2.80762,9.82617-7.84766,9.82617-3.02343,0-4.751-1.22363-5.68652-3.27539,0,1.15234-.03613,2.33984-.07227,2.84375h-1.76367c.03614-2.05176.03614-4.10352.03614-6.15527ZM137.28223,344c0-4.5-2.23145-7.37988-5.65137-7.37988-4.499,0-6.083,3.05957-6.083,7.77539,0,4.24707,1.4043,7.70312,5.86719,7.70312C135.05078,352.09863,137.28223,349.0752,137.28223,344Z"/><path class="cls-2" d="M158.4502,344.32324c0,5.00391-2.77149,9.4668-8.13477,9.4668-4.85938,0-7.88379-3.99512-7.88379-9.43066,0-5.14747,2.84375-9.43067,8.06348-9.43067C155.28223,334.92871,158.4502,338.67188,158.4502,344.32324Zm-14.11036.03614c0,4.2832,2.30371,7.73925,6.11914,7.73925,3.8877,0,6.083-3.2041,6.083-7.73925,0-4.24708-2.15918-7.73926-6.15527-7.73926C146.2832,336.62012,144.33984,340.04,144.33984,344.35938Z"/><path class="cls-2" d="M160.21582,335.36035h3.34766v-5.61523h1.7998v5.61523h4.2832v1.69238h-4.2832V348.751c0,2.01562.43164,3.168,2.15918,3.168a6.78277,6.78277,0,0,0,1.87207-.2168v1.584a6.32043,6.32043,0,0,1-2.23144.32422c-2.30371,0-3.59961-1.15137-3.59961-4.03125V337.05273h-3.34766Z"/><path class="cls-2" d="M170.7627,335.36035h3.34765v-5.61523h1.79981v5.61523h4.2832v1.69238h-4.2832V348.751c0,2.01562.43164,3.168,2.16015,3.168a6.77184,6.77184,0,0,0,1.8711-.2168v1.584a6.31714,6.31714,0,0,1-2.23145.32422c-2.30371,0-3.59961-1.15137-3.59961-4.03125V337.05273H170.7627Z"/><path class="cls-2" d="M183.75879,353.3584V326.83008h1.7998V353.3584Z"/><path class="cls-2" d="M191.8584,344.5752c.03613,4.64355,2.375,7.52343,5.83105,7.52343a5.06888,5.06888,0,0,0,5.1836-3.38379h1.835a6.89951,6.89951,0,0,1-7.09082,5.0752c-5.47071,0-7.59473-4.71484-7.59473-9.28613,0-5.14746,2.55567-9.5752,7.81055-9.5752,5.54394,0,7.30762,4.78711,7.30762,8.1709,0,.50391,0,1.00781-.03614,1.47559Zm11.41015-1.584c-.03613-3.56348-1.97949-6.37109-5.50683-6.37109-3.708,0-5.39942,2.59179-5.7959,6.37109Z"/><path class="cls-2" d="M209.96582,348.39063c.61231,2.33984,2.26758,3.74414,5.11133,3.74414,3.2041,0,4.5-1.47559,4.5-3.49219,0-2.05176-.86426-3.05957-4.89551-4.03125-4.64355-1.11524-5.7959-2.51953-5.7959-4.89551,0-2.4834,1.87207-4.78711,5.93946-4.78711s6.01171,2.4834,6.2998,5.03906h-1.7998a4.24233,4.24233,0,0,0-4.57129-3.38281c-3.13184,0-4.03223,1.54688-4.03223,2.98731,0,1.65527.86426,2.48339,4.42773,3.34765,5.0752,1.22363,6.335,2.87988,6.335,5.5791,0,3.27539-2.66309,5.291-6.44336,5.291-4.10352,0-6.40723-2.15918-6.91114-5.39941Z"/><path class="cls-2" d="M247.65527,349.93848a20.50241,20.50241,0,0,0,.25293,3.41992h-1.72851a11.821,11.821,0,0,1-.32324-2.77149c-.61231,1.332-2.19629,3.20313-5.90332,3.20313-4.17579,0-5.97559-2.69922-5.97559-5.39941,0-3.959,3.05957-5.75879,8.459-5.75879h3.41993V340.7959c0-1.79981-.54-4.21094-4.64356-4.21094-3.63574,0-4.17578,1.90723-4.57129,3.38281h-1.7998c.21582-1.97949,1.43945-5.03906,6.40722-5.03906,4.10254,0,6.40625,1.72754,6.40625,5.6875Zm-1.76367-5.75879h-3.52734c-3.99512,0-6.47949,1.04394-6.47949,4.13965,0,2.26757,1.62011,3.81543,4.13964,3.81543,5.14747,0,5.86719-3.41993,5.86719-7.30762Z"/><path class="cls-2" d="M253.59668,340.25586c0-3.02344-.03613-4.31934-.03613-4.89551h1.76367c.03613.57617.07226,1.72852.07226,4.03223a6.81776,6.81776,0,0,1,6.26368-4.46387v1.94336c-3.74414.25195-6.26368,2.84375-6.26368,7.12793v9.3584h-1.7998Z"/><path class="cls-2" d="M265.36914,344.5752c.03613,4.64355,2.375,7.52343,5.83106,7.52343a5.06888,5.06888,0,0,0,5.18359-3.38379h1.835a6.89951,6.89951,0,0,1-7.09082,5.0752c-5.4707,0-7.59473-4.71484-7.59473-9.28613,0-5.14746,2.55567-9.5752,7.81055-9.5752,5.54395,0,7.30762,4.78711,7.30762,8.1709,0,.50391,0,1.00781-.03614,1.47559Zm11.41016-1.584c-.03614-3.56348-1.9795-6.37109-5.50684-6.37109-3.708,0-5.39941,2.59179-5.7959,6.37109Z"/><path class="cls-2" d="M289.70508,335.36035h3.34765v-5.61523h1.79981v5.61523h4.2832v1.69238h-4.2832V348.751c0,2.01562.43164,3.168,2.15918,3.168a6.78277,6.78277,0,0,0,1.87207-.2168v1.584a6.32052,6.32052,0,0,1-2.23145.32422c-2.30371,0-3.59961-1.15137-3.59961-4.03125V337.05273h-3.34765Z"/><path class="cls-2" d="M304.5,326.83008v11.55371a6.27836,6.27836,0,0,1,5.93945-3.45508c2.55567,0,6.083,1.2959,6.083,6.9834V353.3584h-1.7998V342.27148c0-3.56347-1.61914-5.5791-4.60743-5.5791-3.56347,0-5.61523,2.19629-5.61523,6.623v10.043h-1.7998V326.83008Z"/><path class="cls-2" d="M322.42773,340.25586c0-3.02344-.03515-4.31934-.03515-4.89551h1.76367c.03613.57617.07129,1.72852.07129,4.03223a6.81775,6.81775,0,0,1,6.26367-4.46387v1.94336c-3.74316.25195-6.26367,2.84375-6.26367,7.12793v9.3584h-1.79981Z"/><path class="cls-2" d="M348.38281,344.32324c0,5.00391-2.77246,9.4668-8.13574,9.4668-4.85937,0-7.88281-3.99512-7.88281-9.43066,0-5.14747,2.84375-9.43067,8.06347-9.43067C345.21484,334.92871,348.38281,338.67188,348.38281,344.32324Zm-14.11035.03614c0,4.2832,2.30371,7.73925,6.11914,7.73925,3.8877,0,6.083-3.2041,6.083-7.73925,0-4.24708-2.16016-7.73926-6.15527-7.73926C336.21582,336.62012,334.27246,340.04,334.27246,344.35938Z"/><path class="cls-2" d="M352.77539,335.36035c2.66406,9.28711,4.21191,14.61426,4.5,16.19824h.03613c.28711-1.43945,2.08692-7.09082,4.89453-16.19824h1.94434c3.34766,11.12305,4.35547,14.32617,4.67969,15.73047h.03515c.50391-1.97949,1.332-4.67969,4.64356-15.73047h1.9082l-5.6875,17.99805H367.75c-1.94434-6.3711-4.2832-14.18262-4.64355-15.83789h-.03614c-.35937,1.76367-2.41113,8.207-4.751,15.83789h-2.16016l-5.291-17.99805Z"/><path class="cls-2" d="M378.76758,339.89648c0-1.584,0-3.0957-.03516-4.53613h1.76367c.07129.57617.10743,2.916.07129,3.41992a5.87926,5.87926,0,0,1,5.97559-3.85156c3.2041,0,6.04687,1.79981,6.04687,6.76758V353.3584H390.791v-11.375c0-3.20313-1.332-5.291-4.46387-5.291-4.2832,0-5.75977,3.56348-5.75977,7.48731v9.17871h-1.7998Z"/><path class="cls-2" d="M160.60938,393.13867a20.50373,20.50373,0,0,0,.25292,3.41992h-1.72851a11.82158,11.82158,0,0,1-.32324-2.77148c-.61231,1.332-2.19629,3.20312-5.90332,3.20312-4.17578,0-5.97559-2.69921-5.97559-5.39941,0-3.959,3.05957-5.75879,8.459-5.75879h3.41992v-1.83594c0-1.7998-.54-4.21093-4.64356-4.21093-3.63574,0-4.17578,1.90722-4.57129,3.38281h-1.7998c.21582-1.97949,1.43945-5.03906,6.40723-5.03906,4.10253,0,6.40625,1.72754,6.40625,5.6875Zm-1.76368-5.75879h-3.52734c-3.99512,0-6.47949,1.04395-6.47949,4.13965,0,2.26758,1.62011,3.81543,4.13965,3.81543,5.14746,0,5.86718-3.41992,5.86718-7.30762Z"/><path class="cls-2" d="M166.04785,378.56055c2.66309,9.28711,4.21094,14.61425,4.499,16.19824h.03613c.28808-1.43945,2.08789-7.09082,4.89551-16.19824h1.94336c3.34765,11.123,4.35546,14.32617,4.67968,15.73047h.03614c.5039-1.9795,1.332-4.67969,4.64355-15.73047h1.90723l-5.6875,17.998h-1.9795c-1.94335-6.37109-4.2832-14.18261-4.64355-15.83789h-.03613c-.35938,1.76368-2.41114,8.207-4.751,15.83789h-2.16016l-5.291-17.998Z"/><path class="cls-2" d="M204.49316,393.13867a20.50342,20.50342,0,0,0,.25293,3.41992h-1.72851a11.82158,11.82158,0,0,1-.32324-2.77148c-.61231,1.332-2.19629,3.20312-5.90332,3.20312-4.17579,0-5.97559-2.69921-5.97559-5.39941,0-3.959,3.05957-5.75879,8.459-5.75879h3.41993v-1.83594c0-1.7998-.54-4.21093-4.64356-4.21093-3.63574,0-4.17578,1.90722-4.57129,3.38281h-1.7998c.21582-1.97949,1.43945-5.03906,6.40722-5.03906,4.10254,0,6.40625,1.72754,6.40625,5.6875Zm-1.76367-5.75879h-3.52734c-3.99512,0-6.47949,1.04395-6.47949,4.13965,0,2.26758,1.62011,3.81543,4.13964,3.81543,5.14747,0,5.86719-3.41992,5.86719-7.30762Z"/><path class="cls-2" d="M209.78809,378.56055c3.63476,10.29492,5.21875,14.542,5.831,16.48633h.03613c.71973-2.19629,2.15918-6.3711,5.65137-16.48633h1.87109l-6.7666,19.042c-1.9082,5.32715-3.2041,6.51465-6.44336,6.51465a11.9619,11.9619,0,0,1-1.65625-.10742V402.21a11.80685,11.80685,0,0,0,1.62012.10742c2.5918,0,3.41992-1.25976,4.751-4.96679l-6.875-18.79Z"/><path class="cls-2" d="M236.39063,387.77539c.03613,4.64356,2.376,7.52344,5.83105,7.52344a5.068,5.068,0,0,0,5.18359-3.38379h1.83594a6.90034,6.90034,0,0,1-7.09082,5.07519c-5.47168,0-7.5957-4.71484-7.5957-9.28613,0-5.14746,2.55566-9.57519,7.81152-9.57519,5.543,0,7.30664,4.78711,7.30664,8.17089,0,.50391,0,1.00782-.03613,1.47559Zm11.41113-1.583c-.03613-3.56445-1.98047-6.37207-5.50781-6.37207-3.707,0-5.39942,2.5918-5.79493,6.37207Z"/><path class="cls-2" d="M266.41309,393.13867a20.53316,20.53316,0,0,0,.25195,3.41992H264.9375a11.801,11.801,0,0,1-.32422-2.77148c-.6123,1.332-2.19531,3.20312-5.90332,3.20312-4.17578,0-5.97558-2.69921-5.97558-5.39941,0-3.959,3.05957-5.75879,8.459-5.75879h3.41992v-1.83594c0-1.7998-.54-4.21093-4.64355-4.21093-3.63575,0-4.17578,1.90722-4.57129,3.38281h-1.79981c.21582-1.97949,1.43946-5.03906,6.40723-5.03906,4.10352,0,6.40723,1.72754,6.40723,5.6875Zm-1.76368-5.75879h-3.52734c-3.99609,0-6.47949,1.04395-6.47949,4.13965,0,2.26758,1.62012,3.81543,4.13965,3.81543,5.14746,0,5.86718-3.41992,5.86718-7.30762Z"/><path class="cls-2" d="M285.60059,391.26758c-.86329,3.167-2.95118,5.72265-6.98243,5.72265-4.5,0-7.70312-3.34765-7.70312-9.35839,0-4.93164,2.62793-9.50293,7.91894-9.50293a6.434,6.434,0,0,1,6.76661,5.75879h-1.835c-.54-2.08692-1.90821-4.06739-4.96778-4.06739-3.81543,0-5.97558,3.24024-5.97558,7.73926,0,4.2832,2.0166,7.73926,5.79589,7.73926,2.627,0,4.21094-1.332,5.14747-4.03125Z"/><path class="cls-2" d="M291.57813,370.03027V381.585a6.27741,6.27741,0,0,1,5.93945-3.45605c2.55566,0,6.083,1.29589,6.083,6.98339v11.44629h-1.79981V385.47168c0-3.56348-1.61914-5.5791-4.60742-5.5791-3.56348,0-5.61523,2.19629-5.61523,6.623v10.043h-1.79981V370.03027Z"/><path class="cls-2" d="M318.39746,378.56055c3.63574,10.29492,5.21973,14.542,5.832,16.48633h.03516c.7207-2.19629,2.16015-6.3711,5.65137-16.48633h1.87207l-6.76758,19.042c-1.90723,5.32715-3.20313,6.51465-6.44238,6.51465a11.96169,11.96169,0,0,1-1.65625-.10742V402.21a11.8066,11.8066,0,0,0,1.62011.10742c2.5918,0,3.41895-1.25976,4.751-4.96679l-6.875-18.79Z"/><path class="cls-2" d="M335.82129,387.77539c.03613,4.64356,2.376,7.52344,5.83105,7.52344a5.06888,5.06888,0,0,0,5.1836-3.38379h1.83594a6.90075,6.90075,0,0,1-7.0918,5.07519c-5.4707,0-7.59473-4.71484-7.59473-9.28613,0-5.14746,2.55567-9.57519,7.81153-9.57519,5.543,0,7.30664,4.78711,7.30664,8.17089,0,.50391,0,1.00782-.03614,1.47559Zm11.41016-1.583c-.03614-3.56445-1.9795-6.37207-5.50684-6.37207-3.708,0-5.39941,2.5918-5.79492,6.37207Z"/><path class="cls-2" d="M365.84277,393.13867a20.64192,20.64192,0,0,0,.252,3.41992h-1.72754a11.85646,11.85646,0,0,1-.32422-2.77148c-.61133,1.332-2.19531,3.20312-5.90332,3.20312-4.17481,0-5.97461-2.69921-5.97461-5.39941,0-3.959,3.05957-5.75879,8.459-5.75879h3.419v-1.83594c0-1.7998-.54-4.21093-4.64356-4.21093-3.63476,0-4.1748,1.90722-4.57128,3.38281h-1.79981c.21582-1.97949,1.44043-5.03906,6.40723-5.03906,4.10351,0,6.40722,1.72754,6.40722,5.6875Zm-1.76367-5.75879h-3.52734c-3.99512,0-6.47949,1.04395-6.47949,4.13965,0,2.26758,1.62011,3.81543,4.13964,3.81543,5.14747,0,5.86719-3.41992,5.86719-7.30762Z"/><path class="cls-2" d="M371.78418,383.45605c0-3.02343-.03516-4.31933-.03516-4.8955h1.76368c.03613.57617.07128,1.72851.07128,4.03222a6.81775,6.81775,0,0,1,6.26368-4.46386v1.94336c-3.74317.252-6.26368,2.84375-6.26368,7.12793v9.35839h-1.7998Z"/><path class="cls-3" d="M-207.89326,943.0618c-142.5,0-258-115.5-258-258a257.961,257.961,0,0,1,75.6-182.4c100.8-100.8,264.1-100.8,364.9,0s100.8,264.1,0,364.9A256.49775,256.49775,0,0,1-207.89326,943.0618Z"/><path class="cls-4" d="M232.17968,135.227s-5.31506,9.24205-2.81408,16.64812c0,0-5.81943,34.10244-11.722,44.62443,0,0-8.13884,13.96557-.25823,28.609l8.94587,2.97388,4.38618-2.93353,3.13852,4.71867,13.97444,3.31524,4.05368-2.72855,2.39606,4.25867,9.13714,2.16766s11.85115-11.66555,12.7889-22.79765c0,0-.22034-34.96757,12.63716-52.07166,0,0,3.30637-9.15085.84656-13.14078S232.17968,135.227,232.17968,135.227Z"/><path class="cls-4" d="M242.56283,96.24609s-5.61206-9.84731,17.21139-28.27735c0,0,17.55038,10.97633,34.66737,8.22436,0,0,15.09137,23.73459,5.08024,32.43029S242.56283,96.24609,242.56283,96.24609Z"/><path class="cls-5" d="M241.60166,94.31488S264.618,108.575,300.993,108.40468l-9.81823,41.38585s-27.05838,2.33017-55.14954-11.82689q-1.17693-.59314-2.35571-1.22527-.943-.506-1.88613-1.03764Z"/><path class="cls-4" d="M259.77422,67.96874s10.06117-10.10315,13.6726-21.73641a116.20552,116.20552,0,0,0,17.73679,4.20781l3.258,25.753A55.26992,55.26992,0,0,1,259.77422,67.96874Z"/><path class="cls-6" d="M271.73189,45.68356a67.04876,67.04876,0,0,0,22.03662,5.22788l3.379-14.24318-21.70412-5.43287Z"/></svg>