<svg id="Layer_1" data-name="Layer 1" xmlns="http://www.w3.org/2000/svg" viewBox="0 0 516.1 516.0011"><defs><style>.cls-1{fill:#2e3192;}.cls-2{fill:#fff;}.cls-3{fill:#2ec1ff;}</style></defs><title>soda3</title><path class="cls-1" d="M258,515.99945c-142.5,0-258-115.5-258-258a257.961,257.961,0,0,1,75.6-182.4c100.8-100.8,264.1-100.8,364.9,0s100.8,264.1,0,364.9A256.49776,256.49776,0,0,1,258,515.99945Z"/><path class="cls-2" d="M258,.5C400.3.6,515.5,116,515.4,258.2a257.624,257.624,0,0,1-157.2,237C227.1,550.5,76.1,489,20.8,357.9-34.4,227,26.9,76,157.7,20.6A258.09883,258.09883,0,0,1,258,.5m0-1C115.2-.5-.5,115.2-.5,258S115.2,516.5,258,516.5,516.5,400.8,516.5,258,400.8-.5,258-.5Z"/><path class="cls-2" d="M129.72168,249.52832h1.94385v10.97852h15.11816V249.52832h1.94385v25.19629h-1.94385v-12.418H131.66553v12.418h-1.94385Z"/><path class="cls-2" d="M155.03027,248.19629h1.79981v3.4917h-1.79981Zm0,8.53076h1.79981v17.99756h-1.79981Z"/><path class="cls-2" d="M176.48389,273.501c0,5.75879-2.55567,8.78222-7.77491,8.78222-4.67919,0-6.623-2.627-7.05517-5.36328h1.83594c.648,2.48438,2.6997,3.67188,5.2915,3.67188,4.6792,0,5.9751-3.02344,5.9751-7.59473V271.125c-.97168,2.33984-2.73584,3.59961-6.01123,3.59961-4.21143,0-7.45117-3.41992-7.45117-8.999,0-6.04688,3.45556-9.43018,7.70312-9.43018,3.67139,0,5.25537,1.72754,5.75928,3.16748.03613-1.04346.07178-2.30322.10791-2.73584h1.69189c0,.64844-.07226,3.4917-.07226,5.21924Zm-13.28223-7.84766c0,4.28418,2.26807,7.37988,5.72363,7.37988,4.499,0,5.86719-2.98828,5.86719-7.667,0-4.752-1.43994-7.37939-5.75928-7.37939C164.89355,257.98682,163.20166,261.5498,163.20166,265.65332Z"/><path class="cls-2" d="M184.18945,248.19629V259.75a6.2786,6.2786,0,0,1,5.939-3.45459c2.55566,0,6.08349,1.2959,6.08349,6.98291v11.44629h-1.7998V263.6377c0-3.56348-1.61963-5.57862-4.60742-5.57862-3.56348,0-5.61524,2.1958-5.61524,6.62256v10.043h-1.7998V248.19629Z"/><path class="cls-2" d="M211.51318,256.72705c2.66358,9.28662,4.21143,14.61377,4.499,16.19775h.03613c.28809-1.43945,2.08789-7.09082,4.89551-16.19775h1.94385c3.34765,11.12256,4.35546,14.32568,4.67919,15.73h.03614c.5039-1.97949,1.332-4.67969,4.64355-15.73h1.90772l-5.6875,17.99756h-1.9795c-1.94384-6.37109-4.28369-14.18262-4.64355-15.83789h-.03613c-.35987,1.76367-2.41162,8.207-4.75147,15.83789h-2.15967l-5.291-17.99756Z"/><path class="cls-2" d="M249.959,271.30469a20.51751,20.51751,0,0,0,.25245,3.41992h-1.728a11.81156,11.81156,0,0,1-.32373-2.77148c-.61231,1.332-2.1958,3.20312-5.90332,3.20312-4.17578,0-5.97559-2.69922-5.97559-5.39941,0-3.959,3.05957-5.75879,8.459-5.75879h3.41992v-1.83594c0-1.79981-.54-4.21045-4.64356-4.21045-3.63574,0-4.17578,1.90674-4.57129,3.38232H237.145c.21582-1.97949,1.43945-5.03857,6.40723-5.03857,4.103,0,6.40673,1.72754,6.40673,5.687Zm-1.76367-5.75879H244.668c-3.99561,0-6.47949,1.04394-6.47949,4.13965,0,2.26758,1.62011,3.81543,4.13965,3.81543,5.14746,0,5.86718-3.41993,5.86718-7.30762Z"/><path class="cls-2" d="M253.02148,256.72705h3.34766v-5.61523H258.169v5.61523h4.2832v1.69238H258.169v11.69776c0,2.01562.43164,3.168,2.15966,3.168a6.77736,6.77736,0,0,0,1.87159-.2168v1.584a6.31883,6.31883,0,0,1-2.23145.32422c-2.30371,0-3.59961-1.15136-3.59961-4.03125V258.41943h-3.34766Z"/><path class="cls-2" d="M266.30469,265.94141c.03613,4.64355,2.37549,7.52343,5.83105,7.52343a5.06843,5.06843,0,0,0,5.1836-3.38379h1.83545a6.89994,6.89994,0,0,1-7.09083,5.0752c-5.47119,0-7.59521-4.71484-7.59521-9.28613,0-5.14746,2.55566-9.57471,7.811-9.57471,5.54345,0,7.30712,4.78662,7.30712,8.17041,0,.50391,0,1.00781-.03613,1.47559Zm11.41064-1.584c-.03613-3.56347-1.98-6.3706-5.50732-6.3706-3.70752,0-5.39942,2.59131-5.79541,6.3706Z"/><path class="cls-2" d="M283.98047,261.62207c0-3.02344-.03613-4.31885-.03613-4.895H285.708c.03613.57617.07226,1.72852.07226,4.03174a6.81785,6.81785,0,0,1,6.26319-4.46338v1.94336c-3.74366.252-6.26319,2.84326-6.26319,7.12744v9.3584h-1.7998Z"/><path class="cls-2" d="M318.46631,269.46973c0,1.76367.03613,4.57129.03613,5.25488h-1.728a28.99929,28.99929,0,0,1-.10791-3.13184c-.75586,2.124-2.59179,3.56348-5.79541,3.56348-2.59179,0-5.90332-1.00781-5.90332-6.51465V256.72705h1.76368V268.209c0,2.62793.82812,5.1836,4.3916,5.1836,4.03174,0,5.54345-2.26758,5.54345-7.415v-9.25049h1.79981Z"/><path class="cls-2" d="M324.15576,269.75684c.61231,2.33984,2.26856,3.74414,5.11133,3.74414,3.2041,0,4.5-1.47559,4.5-3.49219,0-2.05176-.86426-3.05957-4.89551-4.03125-4.64355-1.11524-5.79492-2.51953-5.79492-4.89551,0-2.4834,1.87109-4.78662,5.93848-4.78662,4.06836,0,6.01172,2.48291,6.2998,5.03857h-1.7998a4.242,4.242,0,0,0-4.57129-3.38232c-3.13184,0-4.03125,1.54639-4.03125,2.98682,0,1.65527.86328,2.4834,4.42676,3.34765,5.07519,1.22364,6.335,2.87989,6.335,5.5791,0,3.2754-2.66309,5.291-6.44239,5.291-4.10351,0-6.40722-2.15918-6.91113-5.39941Z"/><path class="cls-2" d="M352.62939,271.30469a20.64316,20.64316,0,0,0,.252,3.41992h-1.72754a11.857,11.857,0,0,1-.32422-2.77148c-.61133,1.332-2.19531,3.20312-5.90332,3.20312-4.17481,0-5.97461-2.69922-5.97461-5.39941,0-3.959,3.05957-5.75879,8.459-5.75879h3.41895v-1.83594c0-1.79981-.54-4.21045-4.64355-4.21045-3.63477,0-4.17481,1.90674-4.57129,3.38232h-1.79981c.21582-1.97949,1.44043-5.03857,6.40723-5.03857,4.10351,0,6.40722,1.72754,6.40722,5.687Zm-1.76367-5.75879h-3.52734c-3.99512,0-6.47949,1.04394-6.47949,4.13965,0,2.26758,1.62011,3.81543,4.13965,3.81543,5.14746,0,5.86718-3.41993,5.86718-7.30762Z"/><path class="cls-2" d="M372.32178,273.501c0,5.75879-2.55567,8.78222-7.77539,8.78222-4.67969,0-6.623-2.627-7.05469-5.36328h1.83594c.64746,2.48438,2.69922,3.67188,5.291,3.67188,4.67969,0,5.97461-3.02344,5.97461-7.59473V271.125c-.97168,2.33984-2.73535,3.59961-6.01074,3.59961-4.21191,0-7.45117-3.41992-7.45117-8.999,0-6.04688,3.45605-9.43018,7.70312-9.43018,3.67188,0,5.25489,1.72754,5.75879,3.16748.03613-1.04346.07227-2.30322.1084-2.73584h1.69141c0,.64844-.07129,3.4917-.07129,5.21924Zm-13.28223-7.84766c0,4.28418,2.26758,7.37988,5.72266,7.37988,4.5,0,5.86718-2.98828,5.86718-7.667,0-4.752-1.43945-7.37939-5.75878-7.37939C360.731,257.98682,359.03955,261.5498,359.03955,265.65332Z"/><path class="cls-2" d="M378.62256,265.94141c.03613,4.64355,2.376,7.52343,5.83105,7.52343a5.06888,5.06888,0,0,0,5.1836-3.38379h1.83593a6.90073,6.90073,0,0,1-7.09179,5.0752c-5.47071,0-7.59473-4.71484-7.59473-9.28613,0-5.14746,2.55567-9.57471,7.81152-9.57471,5.543,0,7.30665,4.78662,7.30665,8.17041,0,.50391,0,1.00781-.03614,1.47559Zm11.41015-1.584c-.03613-3.56347-1.97949-6.3706-5.50683-6.3706-3.708,0-5.39942,2.59131-5.7959,6.3706Z"/><path class="cls-2" d="M111.11182,317.9248V301.61914h-3.09571v-1.69238h3.09571v-2.55567c0-3.02343.86425-6.335,4.8955-6.335a6.74039,6.74039,0,0,1,1.76368.252v1.72754a8.96262,8.96262,0,0,0-1.94385-.21583c-2.12354,0-2.91553,1.51172-2.91553,4.64356v2.4834h3.92383v1.69238h-3.92383V317.9248Z"/><path class="cls-2" d="M134.25781,308.88965c0,5.0039-2.77148,9.4668-8.13476,9.4668-4.85938,0-7.8833-3.99512-7.8833-9.43067,0-5.14746,2.84375-9.43066,8.063-9.43066C131.09033,299.49512,134.25781,303.23828,134.25781,308.88965Zm-14.11035.03613c0,4.2832,2.30371,7.73926,6.11914,7.73926,3.8877,0,6.0835-3.2041,6.0835-7.73926,0-4.24707-2.15967-7.73926-6.15528-7.73926C122.09131,301.18652,120.14746,304.60645,120.14746,308.92578Z"/><path class="cls-2" d="M138.72363,304.82227c0-3.02344-.03613-4.31934-.03613-4.89551h1.76367c.03613.57617.07227,1.72851.07227,4.03222a6.81759,6.81759,0,0,1,6.26318-4.46386v1.94336c-3.74365.25195-6.26318,2.84375-6.26318,7.12793v9.35839h-1.79981Z"/><path class="cls-2" d="M159.74707,312.957c.61182,2.33985,2.26758,3.74414,5.11133,3.74414,3.20361,0,4.49951-1.47558,4.49951-3.49219,0-2.05175-.86377-3.05957-4.89551-4.03125-4.64355-1.11523-5.79541-2.51953-5.79541-4.8955,0-2.4834,1.87207-4.78711,5.93946-4.78711s6.01123,2.4834,6.29931,5.03906H169.106a4.24233,4.24233,0,0,0-4.57129-3.38281c-3.13184,0-4.03174,1.54687-4.03174,2.9873,0,1.65528.86377,2.4834,4.42725,3.34766,5.07568,1.22363,6.33545,2.87988,6.33545,5.5791,0,3.27539-2.66358,5.291-6.44336,5.291-4.10352,0-6.40723-2.15918-6.91114-5.39942Z"/><path class="cls-2" d="M190.30859,308.88965c0,5.0039-2.77148,9.4668-8.13476,9.4668-4.85938,0-7.8833-3.99512-7.8833-9.43067,0-5.14746,2.84375-9.43066,8.063-9.43066C187.14111,299.49512,190.30859,303.23828,190.30859,308.88965Zm-14.11035.03613c0,4.2832,2.30371,7.73926,6.11914,7.73926,3.8877,0,6.0835-3.2041,6.0835-7.73926,0-4.24707-2.15967-7.73926-6.15527-7.73926C178.14209,301.18652,176.19824,304.60645,176.19824,308.92578Z"/><path class="cls-2" d="M208.88379,291.39648v21.34473c0,1.72754,0,3.38379.03613,5.18359h-1.72754c-.07226-.43164-.1084-2.124-.1084-3.02343-.8999,2.19531-2.91552,3.45508-6.04687,3.45508-4.67969,0-7.48731-3.81543-7.48731-9.21485,0-5.543,3.05958-9.64648,7.95508-9.64648,3.59961,0,5.03955,1.54785,5.5791,2.69922V291.39648Zm-13.42627,17.67383c0,4.93067,2.55566,7.59473,5.65137,7.59473,4.75146,0,6.04736-3.27539,6.04736-8.1709,0-4.64355-1.11572-7.30762-5.72314-7.30762C197.86914,301.18652,195.45752,304.03027,195.45752,309.07031Z"/><path class="cls-2" d="M226.88428,314.50488a20.58812,20.58812,0,0,0,.252,3.41992h-1.72754a11.81156,11.81156,0,0,1-.32373-2.77148c-.6123,1.332-2.1958,3.20313-5.90332,3.20313-4.17578,0-5.97559-2.69922-5.97559-5.39942,0-3.959,3.05958-5.75879,8.459-5.75879H225.085V305.3623c0-1.7998-.54-4.21093-4.64355-4.21093-3.63575,0-4.17578,1.90722-4.57129,3.38281h-1.79981c.21582-1.97949,1.43946-5.03906,6.40723-5.03906,4.103,0,6.40674,1.72754,6.40674,5.6875Zm-1.76367-5.75879h-3.52735c-3.9956,0-6.47949,1.04395-6.47949,4.13965,0,2.26758,1.62012,3.81543,4.13965,3.81543,5.14746,0,5.86719-3.41992,5.86719-7.30762Z"/><path class="cls-2" d="M243.98535,315.26074V325.124h-1.7998V304.35449c0-1.47558,0-3.05957-.03614-4.42773h1.76368c.07226.68457.07226,1.76367.07226,3.24023a6.61137,6.61137,0,0,1,6.335-3.67187c4.24756,0,7.19922,3.56347,7.19922,8.96289,0,6.47949-3.45557,9.89844-7.811,9.89844C246.541,318.35645,244.88525,316.95313,243.98535,315.26074Zm11.62647-6.73047c0-4.17578-2.01563-7.30761-5.57911-7.30761-4.35546,0-6.15527,2.73632-6.15527,7.63086,0,4.82421,1.40381,7.81152,5.90332,7.81152C253.52393,316.665,255.61182,313.49707,255.61182,308.53027Z"/><path class="cls-2" d="M262.02148,304.82227c0-3.02344-.03613-4.31934-.03613-4.89551H263.749c.03614.57617.07227,1.72851.07227,4.03222a6.8176,6.8176,0,0,1,6.26318-4.46386v1.94336c-3.74365.25195-6.26318,2.84375-6.26318,7.12793v9.35839h-1.79981Z"/><path class="cls-2" d="M287.9751,308.88965c0,5.0039-2.77149,9.4668-8.13477,9.4668-4.85937,0-7.8833-3.99512-7.8833-9.43067,0-5.14746,2.84375-9.43066,8.063-9.43066C284.80762,299.49512,287.9751,303.23828,287.9751,308.88965Zm-14.11035.03613c0,4.2832,2.30371,7.73926,6.11914,7.73926,3.88769,0,6.08349-3.2041,6.08349-7.73926,0-4.24707-2.15967-7.73926-6.15527-7.73926C275.80859,301.18652,273.86475,304.60645,273.86475,308.92578Z"/><path class="cls-2" d="M306.55078,291.39648v21.34473c0,1.72754,0,3.38379.03613,5.18359h-1.72753c-.07227-.43164-.1084-2.124-.1084-3.02343-.89991,2.19531-2.91553,3.45508-6.04688,3.45508-4.67969,0-7.4873-3.81543-7.4873-9.21485,0-5.543,3.05957-9.64648,7.95508-9.64648,3.5996,0,5.03955,1.54785,5.5791,2.69922V291.39648Zm-13.42627,17.67383c0,4.93067,2.55567,7.59473,5.65137,7.59473,4.75146,0,6.04736-3.27539,6.04736-8.1709,0-4.64355-1.11572-7.30762-5.72314-7.30762C295.53613,301.18652,293.12451,304.03027,293.12451,309.07031Z"/><path class="cls-2" d="M325.91846,312.66992c0,1.76367.03613,4.57129.03613,5.25488h-1.72852a29.17576,29.17576,0,0,1-.10742-3.13183c-.75586,2.124-2.59179,3.56348-5.79541,3.56348-2.59179,0-5.90332-1.00782-5.90332-6.51465v-11.915h1.76367v11.48242c0,2.62793.82813,5.18359,4.39209,5.18359,4.03125,0,5.543-2.26757,5.543-7.415v-9.251h1.79981Z"/><path class="cls-2" d="M345.0708,312.63379c-.86426,3.167-2.95215,5.72266-6.9834,5.72266-4.499,0-7.70312-3.34766-7.70312-9.3584,0-4.93164,2.62793-9.50293,7.91894-9.50293a6.43575,6.43575,0,0,1,6.76758,5.75879h-1.83594c-.54-2.08692-1.9082-4.06739-4.96777-4.06739-3.81543,0-5.97461,3.24024-5.97461,7.73926,0,4.2832,2.01563,7.73926,5.79492,7.73926,2.62793,0,4.21192-1.332,5.14746-4.03125Z"/><path class="cls-2" d="M346.98,299.92676h3.34766v-5.61524h1.7998v5.61524h4.2832v1.69238h-4.2832v11.69824c0,2.01563.43164,3.168,2.15918,3.168a6.78239,6.78239,0,0,0,1.87207-.2168v1.584a6.31731,6.31731,0,0,1-2.23144.32422c-2.30371,0-3.59961-1.15137-3.59961-4.03125V301.61914H346.98Z"/><path class="cls-2" d="M360.08252,291.39648h1.7998v3.49122h-1.7998Zm0,8.53028h1.7998v17.998h-1.7998Z"/><path class="cls-2" d="M382.36572,308.88965c0,5.0039-2.77246,9.4668-8.13574,9.4668-4.85937,0-7.88281-3.99512-7.88281-9.43067,0-5.14746,2.84375-9.43066,8.06347-9.43066C379.19775,299.49512,382.36572,303.23828,382.36572,308.88965Zm-14.11035.03613c0,4.2832,2.30371,7.73926,6.11914,7.73926,3.8877,0,6.083-3.2041,6.083-7.73926,0-4.24707-2.16016-7.73926-6.15527-7.73926C370.19873,301.18652,368.25537,304.60645,368.25537,308.92578Z"/><path class="cls-2" d="M386.82959,304.46289c0-1.584,0-3.0957-.03516-4.53613h1.76368c.07128.57617.10742,2.916.07128,3.41992a5.87925,5.87925,0,0,1,5.97559-3.85156c3.2041,0,6.04688,1.7998,6.04688,6.76758v11.6621H398.853v-11.375c0-3.20312-1.332-5.291-4.46387-5.291-4.2832,0-5.75977,3.56348-5.75977,7.4873v9.17871h-1.7998Z"/><path class="cls-2" d="M407.02588,304.57031v-4.64355h1.72754v4.64355Zm0,13.35449v-4.67968h1.72754v4.67968Z"/><path class="cls-2" d="M134.835,353.56641c-.144-3.59961,1.79981-5.43555,4.28369-5.43555,1.51172,0,2.66358.46777,5.0752,1.61914,1.83594.86426,3.16748,1.5127,4.49951,1.5127,1.2959,0,1.90771-1.04395,1.94385-3.02442h2.15967c.17968,4.03223-1.90772,5.43555-4.13965,5.43555-1.43994,0-2.73535-.43164-5.21924-1.584-1.6919-.82714-3.02344-1.584-4.31934-1.584s-2.08789.90039-2.15967,3.06055Z"/><path class="cls-2" d="M157.33447,342.76758c.396-2.916,2.48389-5.75977,6.94727-5.75977,4.53515,0,6.623,2.916,6.623,5.93946a4.94187,4.94187,0,0,1-3.31153,4.96777v.07129a5.92345,5.92345,0,0,1,4.3916,6.15527c0,3.9961-2.52,7.415-7.77539,7.415-4.82324,0-7.23486-3.13086-7.667-6.29883h1.87207a5.76644,5.76644,0,0,0,5.939,4.57129c4.06738,0,5.65136-2.73535,5.65136-5.61523,0-3.7793-2.48388-5.291-5.97509-5.291H162.626V347.2666h1.11572c3.59961,0,5.21924-1.51172,5.21924-4.31933,0-2.4834-1.72754-4.21192-4.75147-4.21192-3.13134,0-4.499,1.65625-5.07519,4.03223Z"/><path class="cls-2" d="M186.4585,361.125V334.59668h1.7998V361.125Z"/><path class="cls-2" d="M194.16211,334.59668h1.7998v3.49121h-1.7998Zm0,8.53027h1.7998v17.998h-1.7998Z"/><path class="cls-2" d="M199.41748,343.127h3.34766v-5.61523h1.7998V343.127h4.2832v1.69239h-4.2832v11.69824c0,2.01562.43164,3.168,2.15967,3.168a6.77725,6.77725,0,0,0,1.87158-.2168v1.584a6.31874,6.31874,0,0,1-2.23144.32422c-2.30371,0-3.59961-1.15136-3.59961-4.03125V344.81934h-3.34766Z"/><path class="cls-2" d="M212.70068,352.3418c.03614,4.64355,2.37549,7.52343,5.83106,7.52343a5.06842,5.06842,0,0,0,5.18359-3.38378h1.83545a6.89993,6.89993,0,0,1-7.09082,5.07519c-5.47119,0-7.59521-4.71484-7.59521-9.28613,0-5.14746,2.55566-9.5752,7.811-9.5752,5.54346,0,7.30713,4.78711,7.30713,8.1709,0,.50391,0,1.00781-.03613,1.47559Zm11.41065-1.584c-.03613-3.56347-1.98-6.37109-5.50733-6.37109-3.70752,0-5.39941,2.5918-5.79541,6.37109Z"/><path class="cls-2" d="M230.377,348.02246c0-3.02344-.03613-4.31933-.03613-4.89551h1.76367c.03614.57618.07227,1.72852.07227,4.03223a6.81759,6.81759,0,0,1,6.26318-4.46387v1.94336c-3.74365.252-6.26318,2.84375-6.26318,7.12793v9.3584H230.377Z"/><path class="cls-2" d="M242.18457,356.15723c.61182,2.33984,2.26758,3.74414,5.11133,3.74414,3.20361,0,4.49951-1.47559,4.49951-3.49219,0-2.05176-.86377-3.05957-4.89551-4.03125-4.64355-1.11523-5.79541-2.51953-5.79541-4.89551,0-2.4834,1.87207-4.78711,5.93946-4.78711s6.01123,2.4834,6.29931,5.03907h-1.7998a4.24233,4.24233,0,0,0-4.57129-3.38282c-3.13184,0-4.03174,1.54688-4.03174,2.98731,0,1.65527.86377,2.4834,4.42725,3.34765,5.07568,1.22364,6.33545,2.87989,6.33545,5.57911,0,3.27539-2.66358,5.291-6.44336,5.291-4.10352,0-6.40723-2.15918-6.91114-5.39941Z"/><path class="cls-2" d="M282.106,352.08984c0,5.00391-2.77149,9.4668-8.13477,9.4668-4.85937,0-7.8833-3.99512-7.8833-9.43066,0-5.14746,2.84375-9.43067,8.063-9.43067C278.93848,342.69531,282.106,346.43848,282.106,352.08984Zm-14.11035.03614c0,4.2832,2.30371,7.73925,6.11914,7.73925,3.88769,0,6.08349-3.2041,6.08349-7.73925,0-4.24707-2.15967-7.73926-6.15527-7.73926C269.93945,344.38672,267.99561,347.80664,267.99561,352.126Z"/><path class="cls-2" d="M287.32715,361.125V344.81934h-3.0957V343.127h3.0957v-2.55566c0-3.02344.86426-6.335,4.89551-6.335a6.74075,6.74075,0,0,1,1.76367.25195v1.72754A8.96323,8.96323,0,0,0,292.04248,336c-2.12353,0-2.91553,1.51172-2.91553,4.64355v2.4834h3.92383v1.69239H289.127V361.125Z"/><path class="cls-2" d="M305.291,343.127c2.66357,9.28711,4.21142,14.61426,4.49951,16.19825h.03564c.28809-1.43946,2.08789-7.09082,4.89551-16.19825h1.94385c3.34765,11.123,4.35547,14.32618,4.67968,15.73047h.03516c.50391-1.97949,1.332-4.67969,4.64356-15.73047h1.9082l-5.6875,17.998h-1.97949c-1.94385-6.37109-4.28369-14.18262-4.64356-15.83789h-.03613c-.35986,1.76367-2.41162,8.207-4.75147,15.83789h-2.15966l-5.291-17.998Z"/><path class="cls-2" d="M343.73682,357.70508a20.64348,20.64348,0,0,0,.25195,3.41992h-1.72754a11.85762,11.85762,0,0,1-.32422-2.77148c-.61133,1.332-2.19531,3.20312-5.90332,3.20312-4.1748,0-5.97461-2.69922-5.97461-5.39941,0-3.959,3.05957-5.75879,8.459-5.75879H341.937V348.5625c0-1.7998-.54-4.21094-4.64355-4.21094-3.63477,0-4.17481,1.90723-4.57129,3.38282h-1.79981c.21582-1.9795,1.44043-5.03907,6.40723-5.03907,4.10352,0,6.40723,1.72754,6.40723,5.6875Zm-1.76368-5.75879H338.4458c-3.99512,0-6.47949,1.04394-6.47949,4.13965,0,2.26758,1.62012,3.81543,4.13965,3.81543,5.14746,0,5.86718-3.41992,5.86718-7.30762Z"/><path class="cls-2" d="M346.79932,343.127H350.147v-5.61523h1.79981V343.127H356.23v1.69239h-4.2832v11.69824c0,2.01562.43164,3.168,2.15918,3.168a6.78277,6.78277,0,0,0,1.87207-.2168v1.584a6.31714,6.31714,0,0,1-2.23145.32422c-2.30371,0-3.59961-1.15136-3.59961-4.03125V344.81934h-3.34765Z"/><path class="cls-2" d="M360.08252,352.3418c.03613,4.64355,2.376,7.52343,5.83105,7.52343a5.06889,5.06889,0,0,0,5.1836-3.38378h1.83594a6.90076,6.90076,0,0,1-7.0918,5.07519c-5.4707,0-7.59473-4.71484-7.59473-9.28613,0-5.14746,2.55567-9.5752,7.81153-9.5752,5.543,0,7.30664,4.78711,7.30664,8.1709,0,.50391,0,1.00781-.03614,1.47559Zm11.41016-1.584c-.03614-3.56347-1.9795-6.37109-5.50684-6.37109-3.708,0-5.39941,2.5918-5.79492,6.37109Z"/><path class="cls-2" d="M377.7583,348.02246c0-3.02344-.03516-4.31933-.03516-4.89551h1.76368c.03613.57618.07129,1.72852.07129,4.03223a6.81774,6.81774,0,0,1,6.26367-4.46387v1.94336c-3.74317.252-6.26367,2.84375-6.26367,7.12793v9.3584H377.7583Z"/><path class="cls-2" d="M140.937,401.66016v9.86328h-1.7998V390.75391c0-1.47559,0-3.05957-.03614-4.42774h1.76368c.07226.68457.07226,1.76367.07226,3.24024a6.61136,6.61136,0,0,1,6.335-3.67188c4.24756,0,7.19922,3.56348,7.19922,8.96289,0,6.47949-3.45556,9.89844-7.811,9.89844C143.49268,404.75586,141.83691,403.35254,140.937,401.66016Zm11.62647-6.73047c0-4.17578-2.01563-7.30762-5.5791-7.30762-4.35547,0-6.15528,2.73633-6.15528,7.63086,0,4.82422,1.40381,7.81152,5.90332,7.81152C150.47559,403.06445,152.56348,399.89648,152.56348,394.92969Z"/><path class="cls-2" d="M159.585,395.541c.03613,4.64355,2.37549,7.52343,5.83106,7.52343a5.06842,5.06842,0,0,0,5.18359-3.38379h1.83545a6.89993,6.89993,0,0,1-7.09082,5.0752c-5.47119,0-7.59522-4.71484-7.59522-9.28613,0-5.14746,2.55567-9.5752,7.811-9.5752,5.54346,0,7.30713,4.78711,7.30713,8.1709,0,.50391,0,1.00781-.03614,1.47559Zm11.41065-1.584c-.03614-3.56348-1.98-6.37109-5.50733-6.37109-3.70752,0-5.39941,2.59179-5.79541,6.37109Z"/><path class="cls-2" d="M177.26074,391.22168c0-3.02344-.03613-4.31934-.03613-4.89551h1.76367c.03613.57617.07227,1.72852.07227,4.03223a6.81759,6.81759,0,0,1,6.26318-4.46387v1.94336c-3.74365.25195-6.26318,2.84375-6.26318,7.12793v9.3584h-1.79981Z"/><path class="cls-2" d="M202.02783,404.32422v-21.417a16.10562,16.10562,0,0,1-5.32763,2.77148v-1.69238a19.64194,19.64194,0,0,0,5.65136-3.52735h1.54785v23.86524Z"/><path class="cls-2" d="M219.91992,404.32422V377.7959h1.79981v26.52832Z"/><path class="cls-2" d="M227.62305,377.7959h1.7998v3.49121h-1.7998Zm0,8.53027h1.7998v17.99805h-1.7998Z"/><path class="cls-2" d="M232.87891,386.32617h3.34765v-5.61523h1.79981v5.61523h4.2832v1.69238h-4.2832V399.7168c0,2.01562.43164,3.168,2.15967,3.168a6.77733,6.77733,0,0,0,1.87158-.2168v1.584a6.31883,6.31883,0,0,1-2.23145.32422c-2.30371,0-3.59961-1.15137-3.59961-4.03125V388.01855h-3.34765Z"/><path class="cls-2" d="M246.16211,395.541c.03613,4.64355,2.37549,7.52343,5.831,7.52343a5.06843,5.06843,0,0,0,5.1836-3.38379h1.83545a6.89993,6.89993,0,0,1-7.09082,5.0752c-5.47119,0-7.59522-4.71484-7.59522-9.28613,0-5.14746,2.55567-9.5752,7.811-9.5752,5.54345,0,7.30713,4.78711,7.30713,8.1709,0,.50391,0,1.00781-.03614,1.47559Zm11.41064-1.584c-.03613-3.56348-1.98-6.37109-5.50732-6.37109-3.70752,0-5.39941,2.59179-5.79541,6.37109Z"/><path class="cls-2" d="M263.83789,391.22168c0-3.02344-.03613-4.31934-.03613-4.89551h1.76367c.03613.57617.07227,1.72852.07227,4.03223a6.81759,6.81759,0,0,1,6.26318-4.46387v1.94336c-3.74365.25195-6.26318,2.84375-6.26318,7.12793v9.3584h-1.79981Z"/><path class="cls-2" d="M299.43945,395.28906c0,5.00391-2.77148,9.4668-8.13476,9.4668-4.85938,0-7.8833-3.99512-7.8833-9.43066,0-5.14747,2.84375-9.43067,8.063-9.43067C296.272,385.89453,299.43945,389.6377,299.43945,395.28906Zm-14.11035.03614c0,4.2832,2.30371,7.73925,6.11914,7.73925,3.8877,0,6.0835-3.2041,6.0835-7.73925,0-4.24707-2.15967-7.73926-6.15528-7.73926C287.273,387.58594,285.3291,391.00586,285.3291,395.3252Z"/><path class="cls-2" d="M304.66064,404.32422V388.01855h-3.0957v-1.69238h3.0957v-2.55566c0-3.02344.86426-6.335,4.89551-6.335a6.74075,6.74075,0,0,1,1.76367.252V379.415a8.96245,8.96245,0,0,0-1.94384-.21582c-2.12354,0-2.91553,1.51172-2.91553,4.64355v2.4834h3.92383v1.69238h-3.92383v16.30567Z"/><path class="cls-2" d="M322.58838,399.35645c.6123,2.33984,2.26855,3.74414,5.1123,3.74414,3.20313,0,4.499-1.47559,4.499-3.49219,0-2.05176-.86426-3.05957-4.89551-4.03125-4.64356-1.11524-5.79492-2.51953-5.79492-4.89551,0-2.4834,1.87109-4.78711,5.93847-4.78711,4.06836,0,6.01172,2.4834,6.29981,5.03906h-1.79981a4.24232,4.24232,0,0,0-4.57129-3.38281c-3.13183,0-4.03125,1.54688-4.03125,2.98731,0,1.65527.86329,2.48339,4.42676,3.34765,5.0752,1.22364,6.335,2.87989,6.335,5.5791,0,3.27539-2.66308,5.291-6.44238,5.291-4.10351,0-6.40723-2.15918-6.91113-5.39941Z"/><path class="cls-2" d="M353.15088,395.28906c0,5.00391-2.77246,9.4668-8.13574,9.4668-4.85938,0-7.88282-3.99512-7.88282-9.43066,0-5.14747,2.84375-9.43067,8.06348-9.43067C349.98291,385.89453,353.15088,389.6377,353.15088,395.28906Zm-14.11035.03614c0,4.2832,2.30371,7.73925,6.11914,7.73925,3.88769,0,6.083-3.2041,6.083-7.73925,0-4.24707-2.16016-7.73926-6.15528-7.73926C340.98389,387.58594,339.04053,391.00586,339.04053,395.3252Z"/><path class="cls-2" d="M371.72607,377.7959v21.34473c0,1.72851,0,3.38378.03614,5.18359h-1.72754c-.07227-.43164-.1084-2.124-.1084-3.02344-.89941,2.19531-2.915,3.45508-6.04688,3.45508-4.67968,0-7.4873-3.81543-7.4873-9.21484,0-5.543,3.05957-9.64649,7.95508-9.64649,3.59961,0,5.03906,1.54785,5.5791,2.69922V377.7959Zm-13.42578,17.67383c0,4.93066,2.55567,7.59472,5.65137,7.59472,4.751,0,6.04688-3.27539,6.04688-8.1709,0-4.64355-1.11622-7.30761-5.72364-7.30761C360.71143,387.58594,358.30029,390.42969,358.30029,395.46973Z"/><path class="cls-2" d="M389.72607,400.9043a20.64316,20.64316,0,0,0,.252,3.41992h-1.72754a11.85707,11.85707,0,0,1-.32422-2.77149c-.61133,1.332-2.19531,3.20313-5.90332,3.20313-4.17481,0-5.97461-2.69922-5.97461-5.39941,0-3.959,3.05957-5.75879,8.459-5.75879h3.41895v-1.83594c0-1.79981-.54-4.21094-4.64356-4.21094-3.63476,0-4.1748,1.90723-4.57128,3.38281h-1.79981c.21582-1.97949,1.44043-5.03906,6.40723-5.03906,4.10351,0,6.40722,1.72754,6.40722,5.6875Zm-1.76367-5.75879h-3.52734c-3.99512,0-6.47949,1.04394-6.47949,4.13965,0,2.26757,1.62011,3.81543,4.13964,3.81543,5.14747,0,5.86719-3.41993,5.86719-7.30762Z"/><path class="cls-1" d="M-207.89326,943.0618c-142.5,0-258-115.5-258-258a257.961,257.961,0,0,1,75.6-182.4c100.8-100.8,264.1-100.8,364.9,0s100.8,264.1,0,364.9A256.49775,256.49775,0,0,1-207.89326,943.0618Z"/><path class="cls-3" d="M257.95467,70.63483s-97.84905,121.84976,0,116.31113S257.95467,70.63483,257.95467,70.63483Z"/></svg>