<svg id="Layer_1" data-name="Layer 1" xmlns="http://www.w3.org/2000/svg" viewBox="0 0 268.08989 268.08989"><defs><style>.cls-1{fill:#231f20;}.cls-2{fill:#eee808;}.cls-3{fill:#afd136;}.cls-4{fill:none;stroke:#231f20;stroke-miterlimit:10;}.cls-5{fill:#dd2726;}.cls-6{fill:#f47521;}.cls-7{fill:#5391b9;}</style></defs><title>toucan</title><path class="cls-1" d="M108.04809,51.71783l13.203,165.92735,16.13349,6.77867,5.00859-17.25562s53.24054,4.93018,73.88565-18.48816l7.65834-12.95984s4.28949-63.465-39.58515-83.64435c0,0-29.41916-71.548-79.32374-47.71248S108.04809,51.71783,108.04809,51.71783Z"/><path class="cls-2" d="M108.04809,51.71783l7.57445,98.1371s16.97071,38.82514,51.72635,19.10444S187.314,124.73225,187.314,124.73225,167.44337,15.51606,108.04809,51.71783Z"/><path class="cls-3" d="M12.35148,125.05365s6.45455-94.414,99.59423-84.01635c0,0,14.92283,25.98219,9.35153,41.60826S34.69651,92.67355,12.35148,125.05365Z"/><path class="cls-4" d="M121.46244,65.4353s-83.16881,15.09637-109.111,59.61835"/><path class="cls-5" d="M35.149,67.87585s-23.04694,32.37652-22.79753,57.1778c0,0,12.26052-14.398,28.86767-19.29516S35.149,67.87585,35.149,67.87585Z"/><path class="cls-6" d="M45.35572,87.46661S96.18651,50.34627,97.68681,65.4353C97.68681,65.4353,113.54618,68.83359,45.35572,87.46661Z"/><path class="cls-7" d="M121.25106,217.64518s-14.51915,8.812-15.096,25.8831l13.71671-16.02307-2.50895,16.02307,11.943-12.94155v16.02291s9.608-11.0929,8.07874-22.18579Z"/><path class="cls-7" d="M213.91105,190.4028s6.109,15.8473,22.80985,19.43023l-13.34845-16.33112,15.328,5.29957-10.62866-14.041,15.771,2.83005s-9.22149-11.41623-20.41009-11.8703Z"/><circle class="cls-3" cx="137.5495" cy="61.82744" r="10.11773"/><circle cx="137.5495" cy="61.82744" r="4.09841"/></svg>