<svg id="Layer_1" data-name="Layer 1" xmlns="http://www.w3.org/2000/svg" viewBox="0 0 402.44012 363.5195"><defs><style>.cls-1,.cls-3{fill:#009245;}.cls-2{fill:#8cc63f;}.cls-3{stroke:#009245;stroke-miterlimit:10;}</style></defs><title>turtle</title><path class="cls-1" d="M74.72232,311.12849s-64-130,17-200,98.06742-40.84,149.03371-28.92c0,0,68.96629,80.92,9.96629,143.92S206.72232,321.12849,74.72232,311.12849Z"/><polygon class="cls-2" points="71.722 253.128 90.722 242.128 130.722 265.128 130.722 291.128 87.722 291.128 71.722 253.128"/><polygon class="cls-2" points="97.722 240.128 130.722 261.128 163.722 245.128 165.722 206.128 134.722 185.128 99.722 202.128 97.722 240.128"/><path class="cls-2" d="M65.72232,182.12849l26,18v37l-20,12s-12-39-6-64"/><path class="cls-2" d="M134.72232,267.12849v24s38-7,59-24l-25-15Z"/><path class="cls-2" d="M197.72232,264.12849s35-26,45-49l-35-26-35,18v38l25,16"/><path class="cls-2" d="M211.72232,185.12849l34,21s20-39,11-76l-43,14Z"/><path class="cls-2" d="M67.72232,179.12849s7-38,28-62l37,22-2,40-33,18Z"/><polygon class="cls-2" points="139.722 141.128 172.722 124.128 207.722 146.128 205.722 183.128 170.722 202.128 137.722 178.128 139.722 141.128"/><path class="cls-2" d="M103.72232,110.12849s24-31,65-36l2,43-34,17Z"/><path class="cls-2" d="M182.72232,74.12849l-5,43,32,20,39-18S233.72232,70.12849,182.72232,74.12849Z"/><path class="cls-3" d="M265.72232,113.12849s52-20,136,79c0,0-23,18-75-17,0,0-33-26-50-27Z"/><path class="cls-1" d="M126.72232,319.12849l53-14s19,75-27,55C152.72232,360.12849,124.72232,371.12849,126.72232,319.12849Z"/><path class="cls-1" d="M44.72232,226.12849s6,52,12,53-31,22-45-1C11.72232,278.12849-30.27768,245.12849,44.72232,226.12849Z"/><path class="cls-1" d="M119.72232,82.12849s-2-14-52-3-49-11-49-11,91-77,161-10C179.72232,58.12849,113.72232,73.12849,119.72232,82.12849Z"/><path class="cls-1" d="M210.72232,64.12849s34,8,42,29c0,0,59-23,31-93C283.72232.12849,227.72232-5.87151,210.72232,64.12849Z"/></svg>