<svg id="Layer_1" data-name="Layer 1" xmlns="http://www.w3.org/2000/svg" viewBox="0 0 584.5 440.5"><defs><style>.cls-1{fill:#00afaf;}.cls-2{fill:#5f9500;}.cls-3{fill:#416600;}.cls-4{fill:#588c00;}.cls-5{fill:#629900;stroke:#629900;stroke-miterlimit:10;}.cls-6{fill:#87c3ff;}.cls-7{fill:#fff;}</style></defs><title>wetlands</title><polygon class="cls-1" points="0 155.5 583 155.5 583 440.5 75.18 440.5 0 440.5 0 155.5"/><path class="cls-2" d="M94.59551,440.5S163.5,420,164.5,388s-93-89,27-142,100-52.5,100-52.5h53.3427S254.5,273,269.5,328s38.66854,112.5,38.66854,112.5Z"/><path class="cls-3" d="M331.89888,440.5S290,383.5,291,332.5s41-67,41-67,90-19,78,21-78,45-59,64,60.10156,90,60.10156,90Z"/><path class="cls-3" d="M75,440.5s102-44,20-124,125-105,125-105-255-28-164,88S0,366.6236,0,366.6236V440.5Z"/><path class="cls-4" d="M437.60674,440.5l-61.476-104.07865S428,293.5,472,280.5s111-19.50953,111-19.50953V440.5Z"/><path class="cls-5" d="M371.692,193.5,320,245.5s29-30,100,0,11,35,11,35L583,237V193.5Z"/><rect class="cls-6" x="1.5" width="583" height="155.5"/><path class="cls-7" d="M397,78.5s11-51,56-34c0,0,38-39,65-3,0,0,33,18,27,37,0,0-2,45-38,37,0,0-13,16-41,1,0,0-20,26-54,6S397,78.5,397,78.5Z"/><path class="cls-7" d="M323.43673,65.80411s-11,51-56,34c0,0-38,39-65,3,0,0-33-18-27-37,0,0,2-45,38-37,0,0,13-16,41-1,0,0,20-26,54-6S323.43673,65.80411,323.43673,65.80411Z"/></svg>